<?xml version="1.0" encoding="utf-8"?>
<!-- Generator: Adobe Illustrator 25.2.1, SVG Export Plug-In . SVG Version: 6.00 Build 0)  -->
<svg version="1.1" id="Layer_1" xmlns:v="https://vecta.io/nano"
	 xmlns="http://www.w3.org/2000/svg" xmlns:xlink="http://www.w3.org/1999/xlink" x="0px" y="0px" viewBox="0 0 186 171"
	 style="enable-background:new 0 0 186 171;" xml:space="preserve">
<style type="text/css">
	.st0{fill:#FEC803;}
	.st1{fill:#F0B90B;}
	.st2{opacity:0.1;fill:none;stroke:#191326;stroke-width:3;enable-background:new    ;}
	.st3{fill:#3468D0;}
	.st4{opacity:0.4;fill:none;stroke:#565656;stroke-width:2.837;enable-background:new    ;}
	.st5{fill:#FFFFFF;}
	.st6{fill:#FEFEFE;}
	.st7{fill:#FDFDFE;}
	.st8{fill:#FDFEFE;}
</style>
<g>
	<path class="st0" d="M172.4,95c-1-7.8-6.2-14.9-13.3-18.2c-8.6-4-18.7-2.6-27.8-5.3c-11.8-3.5-20.4-13.3-30.9-19.8
		C88,44.1,73.2,41.4,58.8,38.8C49.2,37.1,39.1,35.5,30,39c-12.3,4.9-19.5,20-15.5,32.6c6.8,21.4,37,27.1,46.2,47.6
		c4.8,10.6,3.2,24.1,10.7,32.9c9,10.5,25.5,8.7,38.9,5.5c10.2-2.5,20.3-5.3,30.4-8.2c8.2-2.3,16.8-4.8,22.8-10.8
		c7.5-7.4,4.4-13.1,4.3-21.7C167.9,109.5,173.5,103.3,172.4,95z"/>
</g>
<circle class="st1" cx="70.2" cy="39.8" r="29"/>
<circle class="st2" cx="70.2" cy="39.8" r="27.5"/>
<circle class="st3" cx="119.7" cy="83.3" r="43.5"/>
<circle class="st4" cx="119.7" cy="83.3" r="42.1"/>
<g>
	<path class="st5" d="M63.2,36.8c-0.1-0.1-0.2-0.1-0.2-0.2c-1.2-1.2-2.4-2.4-3.7-3.6c-0.2-0.2-0.2-0.3,0-0.5
		c3.6-3.5,7.1-7.1,10.6-10.6c0.2-0.2,0.3-0.2,0.5,0c3.5,3.5,7.1,7.1,10.6,10.6c0.2,0.2,0.2,0.3,0,0.5c-1.2,1.2-2.4,2.4-3.6,3.6
		c-0.3,0.3-0.4,0.1-0.6-0.1c-2.1-2.1-4.2-4.2-6.3-6.4c-0.3-0.3-0.4-0.3-0.7,0c-2.1,2.1-4.2,4.2-6.3,6.3
		C63.5,36.6,63.3,36.7,63.2,36.8z"/>
	<path class="st5" d="M70.2,57.9c-0.1-0.1-0.1-0.1-0.2-0.2c-3.6-3.5-7.1-7.1-10.7-10.6c-0.2-0.2-0.2-0.3,0-0.5
		c1.2-1.2,2.4-2.4,3.6-3.6c0.3-0.3,0.4-0.1,0.6,0.1c2.1,2.1,4.2,4.2,6.3,6.3c0.3,0.3,0.5,0.3,0.8,0c2.1-2.1,4.2-4.2,6.3-6.3
		c0.3-0.3,0.4-0.3,0.7,0c1.1,1.2,2.3,2.3,3.5,3.5c0.2,0.2,0.2,0.3,0,0.6c-3.5,3.5-7.1,7-10.6,10.6C70.4,57.8,70.4,57.9,70.2,57.9z"
		/>
	<path class="st5" d="M56.2,35.7c0.1,0.1,0.2,0.1,0.2,0.2c1.2,1.2,2.4,2.4,3.6,3.6c0.2,0.2,0.2,0.3,0,0.5c-1.2,1.2-2.4,2.4-3.6,3.6
		c-0.2,0.2-0.3,0.2-0.5,0c-1.2-1.2-2.4-2.4-3.6-3.6c-0.1-0.1-0.3-0.2,0-0.5c1.2-1.2,2.5-2.5,3.7-3.7C56,35.8,56.1,35.8,56.2,35.7z"
		/>
	<path class="st5" d="M84.3,43.9c-0.1-0.1-0.2-0.1-0.2-0.2c-1.2-1.2-2.4-2.4-3.6-3.6c-0.2-0.2-0.2-0.3,0-0.5
		c1.2-1.2,2.4-2.4,3.6-3.6c0.2-0.2,0.3-0.2,0.5,0c1.2,1.2,2.4,2.4,3.6,3.6c0.2,0.2,0.2,0.3,0,0.5c-1.2,1.2-2.4,2.4-3.6,3.6
		C84.5,43.7,84.4,43.8,84.3,43.9z"/>
	<path class="st5" d="M70.2,35.7c0.2,0,0.2,0.1,0.3,0.2c1.2,1.2,2.4,2.4,3.6,3.6c0.2,0.2,0.2,0.3,0,0.5c-1.2,1.2-2.4,2.4-3.6,3.6
		c-0.2,0.2-0.3,0.2-0.5,0c-1.2-1.2-2.4-2.4-3.6-3.6c-0.2-0.2-0.2-0.3,0-0.5c1.2-1.2,2.4-2.4,3.6-3.6C70.1,35.9,70.1,35.8,70.2,35.7z
		"/>
</g>
<g>
	<path class="st6" d="M115.3,79.2c-2,0-3.7-1.7-3.7-3.7c0-2,1.7-3.6,3.7-3.7c2,0,3.7,1.7,3.7,3.7C118.9,77.6,117.3,79.2,115.3,79.2z
		"/>
	<path class="st6" d="M124.1,79.2c-2,0-3.7-1.7-3.7-3.7c0-2,1.7-3.7,3.7-3.7c2,0,3.7,1.7,3.7,3.7C127.8,77.6,126.2,79.2,124.1,79.2z
		"/>
	<path class="st6" d="M124.1,87.4c2,0,3.7,1.7,3.7,3.7c0,2-1.7,3.6-3.7,3.6c-2,0-3.7-1.7-3.7-3.7C120.5,89,122.1,87.4,124.1,87.4z"
		/>
	<path class="st6" d="M115.3,87.4c2,0,3.7,1.7,3.7,3.7c0,2-1.7,3.7-3.7,3.7c-2,0-3.7-1.7-3.7-3.7C111.6,89,113.2,87.4,115.3,87.4z"
		/>
	<path class="st6" d="M114.3,83.4c0,2-1.6,3.7-3.6,3.7c-2.1,0-3.7-1.6-3.7-3.7c0-2.1,1.6-3.7,3.7-3.7
		C112.7,79.8,114.3,81.4,114.3,83.4z"/>
	<path class="st6" d="M132.4,83.5c0,2-1.6,3.6-3.7,3.6c-2.1,0-3.7-1.6-3.7-3.7c0-2,1.6-3.6,3.7-3.6
		C130.8,79.8,132.4,81.4,132.4,83.5z"/>
	<path class="st6" d="M119.7,65.8c1.3,0,2.3,1,2.3,2.3c0,1.2-1,2.3-2.3,2.3c-1.3,0-2.3-1.1-2.3-2.3
		C117.4,66.8,118.5,65.8,119.7,65.8z"/>
	<path class="st6" d="M106.5,88.7c1.3,0,2.3,1,2.3,2.3c0,1.2-1,2.3-2.3,2.3c-1.3,0-2.3-1-2.3-2.3C104.2,89.6,105.2,88.6,106.5,88.7z
		"/>
	<path class="st6" d="M119.7,100.8c-1.3,0-2.3-1-2.3-2.2c0-1.3,1-2.3,2.3-2.3c1.2,0,2.3,1,2.3,2.3C122,99.8,121,100.8,119.7,100.8z"
		/>
	<path class="st6" d="M135.2,75.7c0,1.3-1,2.2-2.3,2.2c-1.2,0-2.3-1-2.3-2.3c0-1.3,1.1-2.3,2.3-2.3
		C134.2,73.4,135.2,74.4,135.2,75.7z"/>
	<path class="st6" d="M132.9,88.7c1.3,0,2.2,1,2.2,2.3c0,1.3-1,2.3-2.3,2.3c-1.3,0-2.3-1.1-2.3-2.3
		C130.6,89.6,131.7,88.6,132.9,88.7z"/>
	<path class="st6" d="M106.5,77.9c-1.3,0-2.3-1-2.2-2.3c0-1.3,1-2.3,2.2-2.3c1.3,0,2.3,1,2.3,2.3C108.8,77,107.7,78,106.5,77.9z"/>
	<path class="st6" d="M109.9,68c-1.1,0-1.9-0.8-1.9-1.9c0-1,0.8-1.9,1.9-1.9c1,0,1.9,0.9,1.9,1.9C111.8,67.2,111,68,109.9,68z"/>
	<path class="st6" d="M100.1,85.1c-1.1,0-1.9-0.8-1.9-1.9c0-1.1,0.8-1.9,1.9-1.9c1,0,1.9,0.8,1.9,1.9
		C101.9,84.2,101.1,85,100.1,85.1z"/>
	<path class="st6" d="M131.4,66.2c0,1.1-0.8,1.9-1.9,1.9c-1,0-1.9-0.9-1.9-1.9c0-1,0.9-1.9,1.9-1.9
		C130.5,64.3,131.4,65.1,131.4,66.2z"/>
	<path class="st6" d="M139.4,81.3c1,0,1.9,0.9,1.9,1.9c0,1.1-0.8,1.9-1.9,1.9c-1,0-1.9-0.9-1.9-1.9
		C137.5,82.1,138.4,81.3,139.4,81.3z"/>
	<path class="st6" d="M131.4,100.5c0,1-0.9,1.9-1.9,1.9c-1,0-1.9-0.9-1.9-1.9c0-1,0.9-1.9,1.9-1.8
		C130.6,98.6,131.4,99.4,131.4,100.5z"/>
	<path class="st6" d="M108,100.4c0-1.1,0.8-1.9,1.9-1.8c1,0,1.9,0.9,1.9,1.9c0,1-0.9,1.9-1.9,1.9C108.8,102.3,108,101.4,108,100.4z"
		/>
	<path class="st7" d="M121.2,58.9c0,0.9-0.7,1.5-1.5,1.5c-0.8,0-1.5-0.7-1.5-1.6c0-0.8,0.7-1.5,1.5-1.5
		C120.5,57.4,121.2,58.1,121.2,58.9z"/>
	<path class="st7" d="M121.2,107.6c0,0.9-0.6,1.5-1.5,1.6c-0.8,0-1.5-0.6-1.5-1.5c0-0.8,0.6-1.5,1.5-1.6
		C120.5,106.1,121.2,106.8,121.2,107.6z"/>
	<path class="st8" d="M97.1,95.5c0-0.9,0.7-1.5,1.5-1.5c0.8,0,1.5,0.7,1.5,1.5c0,0.8-0.6,1.5-1.5,1.5C97.8,97,97.1,96.4,97.1,95.5z"
		/>
	<path class="st8" d="M142.3,95.5c0,0.9-0.6,1.5-1.5,1.5c-0.8,0-1.5-0.6-1.5-1.5c0-0.8,0.6-1.6,1.5-1.6
		C141.6,93.9,142.3,94.6,142.3,95.5z"/>
	<path class="st8" d="M98.6,69.6c0.9,0,1.5,0.7,1.5,1.5c0,0.8-0.7,1.5-1.5,1.5c-0.8,0-1.5-0.7-1.5-1.5
		C97.1,70.2,97.8,69.6,98.6,69.6z"/>
	<path class="st8" d="M140.8,69.6c0.9,0,1.5,0.7,1.5,1.5c0,0.8-0.7,1.5-1.5,1.5c-0.8,0-1.5-0.7-1.5-1.5
		C139.2,70.3,139.9,69.6,140.8,69.6z"/>
	<path class="st7" d="M93,82c0.7,0,1.3,0.6,1.2,1.3c0,0.7-0.6,1.2-1.3,1.2c-0.7,0-1.3-0.6-1.3-1.3C91.8,82.6,92.4,82,93,82z"/>
	<path class="st7" d="M146.4,84.6c-0.7,0-1.3-0.6-1.2-1.3c0-0.7,0.6-1.2,1.3-1.2c0.7,0,1.3,0.6,1.3,1.3
		C147.6,84,147,84.6,146.4,84.6z"/>
	<path class="st7" d="M106.2,61.5c-0.7,0-1.3-0.6-1.2-1.3c0-0.7,0.6-1.2,1.3-1.2c0.7,0,1.3,0.6,1.2,1.3
		C107.5,60.9,106.9,61.5,106.2,61.5z"/>
	<path class="st7" d="M131.9,60.1c0-0.7,0.6-1.2,1.3-1.2c0.7,0,1.2,0.6,1.2,1.3c0,0.7-0.6,1.2-1.3,1.2
		C132.4,61.4,131.9,60.8,131.9,60.1z"/>
	<path class="st7" d="M106.2,107.7c-0.7,0-1.3-0.6-1.2-1.3c0-0.7,0.6-1.2,1.3-1.2c0.7,0,1.3,0.6,1.2,1.3
		C107.5,107.1,106.9,107.7,106.2,107.7z"/>
	<path class="st7" d="M134.4,106.4c0,0.7-0.6,1.3-1.3,1.2c-0.7,0-1.2-0.6-1.2-1.3c0-0.7,0.6-1.2,1.2-1.2
		C133.8,105.1,134.4,105.7,134.4,106.4z"/>
</g>
</svg>
