<?xml version="1.0" encoding="utf-8"?>
<!-- Generator: Adobe Illustrator 25.2.3, SVG Export Plug-In . SVG Version: 6.00 Build 0)  -->
<svg version="1.1" id="Layer_1" xmlns:v="https://vecta.io/nano"
	 xmlns="http://www.w3.org/2000/svg" xmlns:xlink="http://www.w3.org/1999/xlink" x="0px" y="0px" viewBox="0 0 186 171"
	 style="enable-background:new 0 0 186 171;" xml:space="preserve">
<style type="text/css">
	.st0{fill:#FEC803;}
	.st1{display:none;fill:#373737;}
	.st2{display:none;}
	.st3{display:inline;fill:#FEC803;}
	.st4{fill:none;}
	.st5{fill:#FAF4E6;}
	.st6{fill:#FFD54F;}
	.st7{fill:#FFCA28;}
	.st8{fill:#FFECB3;}
	.st9{fill:#FFB300;}
	.st10{fill:#FFE082;}
	.st11{opacity:0.1;fill:none;stroke:#191326;stroke-width:3;enable-background:new    ;}
</style>
<g>
	<path class="st0" d="M172.4,95c-1-7.8-6.2-14.9-13.3-18.2c-8.6-4-18.7-2.6-27.8-5.3c-11.8-3.5-20.4-13.3-30.9-19.8
		C88,44.1,73.2,41.4,58.8,38.8C49.2,37.1,39.1,35.5,30,39c-12.3,4.9-19.5,20-15.5,32.6c6.8,21.4,37,27.1,46.2,47.6
		c4.8,10.6,3.2,24.1,10.7,32.9c9,10.5,25.5,8.7,38.9,5.5c10.2-2.5,20.3-5.3,30.4-8.2c8.2-2.3,16.8-4.8,22.8-10.8
		c7.5-7.4,4.4-13.1,4.3-21.7C167.9,109.5,173.5,103.3,172.4,95z"/>
</g>
<circle class="st1" cx="93" cy="83.3" r="43.5"/>
<g class="st2">
	<path class="st3" d="M79.7,74.2c-6.3-0.1-12.7,0-19.1,0c-0.9,0-1.2,0.4-1.1,1.2c0.1,2.4,1.9,4.4,4.3,5h13.4v0.8H66
		c0,0.1,0.1,0.1,0.1,0.2c0.6,2.8,2.2,4.5,4.7,5.3h6.4v0.8h-4.6c0,0,0,0.1,0.1,0.1c0.8,2.9,3.1,4.6,6.2,4.7c5.4,0.2,9.9-3.6,10-8.9
		C89.2,78.7,84.9,74.3,79.7,74.2z"/>
	<path class="st3" d="M125.5,74.2c-6.3,0-12.7-0.1-19.1,0c-5.3,0.1-9.6,4.4-9.3,9.3c0.3,5.3,4.7,9.1,10,8.9c3.1-0.1,5.4-1.8,6.2-4.7
		c0,0,0-0.1,0.1-0.1h-4.6v-0.8h6.5c2.5-0.8,4-2.5,4.7-5.3c0-0.1,0.1-0.1,0.1-0.2H109v-0.8h13.3c2.5-0.7,4.2-2.8,4.3-5
		C126.6,74.6,126.3,74.2,125.5,74.2z"/>
</g>
<line class="st4" x1="135.1" y1="41.2" x2="127" y2="48"/>
<g id="surface1">
	<path class="st5" d="M91.1,126.5c-0.1,0-0.6,0-1-0.1c-13.4-1-25.7-8.3-33-19.7c-3.5-5.4-5.7-11.6-6.5-18c-0.4-3-0.4-6.6-0.1-9.6
		c1.1-11.1,6.6-21.5,15.2-28.7c6.4-5.3,14-8.7,22.1-9.7c3.4-0.4,7.3-0.5,10.7-0.1c8.1,1,15.7,4.2,22,9.3c2.2,1.8,4.5,4.1,6.3,6.3
		c6,7.4,9.4,16.5,9.6,25.8c0.1,3.1-0.1,5.9-0.6,8.8c-1.5,8.8-5.6,16.7-12,23.1c-6.8,6.8-15.6,11.2-25,12.3c-1.9,0.2-2.7,0.3-5.1,0.3
		C92.4,126.5,91.2,126.5,91.1,126.5z M116.8,108c0.1-0.1,1.5-2.7,1.6-3.1c0.1-0.2-0.2-0.3-0.7-0.6c-1.9-0.9-3.6-2.1-4.6-3.5
		c-0.4-0.5-0.9-1.5-1.4-2.7c-0.2-0.5-0.5-1-0.6-1.2c-0.5-0.8-1.3-1.6-3.6-3.5c-1.8-1.6-2.9-2.6-4-4.1c-2.2-2.7-3.9-6-4.5-8.7
		c-0.2-0.7-0.2-1.9-0.1-3.8c0.1-2.4,0.4-3.7,1-4.8c0.3-0.5,1-1.2,1.5-1.4c0.6-0.3,1-0.4,2.1-0.4c1,0,1,0,1.4,0.1
		c1.4,0.5,2.5,1.7,3.7,4c0.4,0.8,0.6,1.2,1.2,2.7c1.1,2.7,1.6,3.7,2.4,4.4c0.4,0.5,0.9,0.8,1.4,0.9c0.3,0.1,0.3,0.1,0.6,0
		c0.4-0.1,0.9-0.5,1.1-0.8c0.1-0.2,0-0.6-0.2-1.2c-0.2-0.5-0.7-1-1.2-1.5c-0.6-0.5-0.8-0.9-1.7-2.9c-0.7-1.6-1-2.3-1.4-3.2
		c-2-4-4.4-5.8-7.4-5.6c-1.6,0.1-3,0.5-4.4,1.2c-1.3,0.6-2.2,1.3-3.3,2.4c-0.6,0.6-0.7,0.7-0.8,0.7c-0.1,0-0.2,0-0.2-0.1
		c0-0.2-0.1-1.9-0.1-5.3c-0.1-4.3-0.2-5.6-0.5-7c-0.5-2.1-1.6-3.8-3-4.7c-0.7-0.5-1.6-0.8-2.3-0.8c-0.4,0-0.6,0-1,0.1
		c-0.3,0.1-0.6,0.2-0.7,0.2c-0.2,0-0.9,0.4-1.1,0.6c-0.1,0.1-0.2,0.1-0.2,0.2c0,0-0.1,0.1-0.1,0.1c0,0.1-0.1,0.1-0.1,0.1
		c-0.1,0-0.4,0.3-0.4,0.4c0,0-0.1,0.1-0.2,0.2c-0.1,0.1-0.2,0.2-0.2,0.2c0,0,0,0.1-0.1,0.1c0,0-0.1,0.1-0.1,0.1c0,0,0,0.1-0.1,0.1
		c0,0-0.1,0.1-0.1,0.1c0,0,0,0.1-0.1,0.1c0,0-0.1,0-0.1,0.1s0,0.1,0,0.1c0,0-0.2,0.4-0.4,0.8c-0.8,1.6-1.1,3.2-1.4,6
		c0,0.5-0.1,0.9-0.1,0.9c0,0,0,0.3,0,0.5c0,0.2,0,0.7,0,0.9c0,0.6,0,4.3,0,5.1c0,0.9,0.2,2.3,0.3,3.5c0.1,0.6,0.2,1.2,0.2,1.4l0,0.3
		h-0.2c-0.1,0-0.3,0-0.3-0.1c-0.2-0.1-1.4-0.6-2-0.8c-0.7-0.2-1.6-0.4-2.5-0.6c-0.8-0.1-2.5-0.1-3.1,0c-2.3,0.5-4,2.1-5.4,4.9
		c-0.6,1.2-0.9,2.1-1.9,4.9c-1.3,4-1.6,4.6-2.8,5.2c-1,0.6-1.8,1.3-2.2,2c-0.2,0.5-0.2,0.6,0,0.9c0.4,0.4,0.9,0.4,1.9,0.1
		c1.5-0.5,2.5-1.1,3.3-2.1c0.7-0.8,0.7-0.8,1.6-3.5c1.1-3.5,1.8-5,2.6-6.5c1.4-2.3,2.7-3.2,4.5-3.1c1.1,0.1,1.9,0.4,2.7,1.3
		c1.1,1.1,2,2.7,3.8,6.5c1.9,4.1,2.7,5.6,3.9,7.5c1,1.4,1.9,2.5,3.8,4.4c2.6,2.6,4.7,4.3,7.1,5.8c1.6,1,3.4,1.8,5,2.2
		c1.6,0.4,2.7,0.5,4.8,0.5c4.1-0.2,6.4,0.3,9.1,1.9C116.6,108.1,116.6,108.1,116.8,108z"/>
	<path class="st6" d="M114.7,107.3c-0.5-0.2-0.6-0.4-0.3-0.4c0.1,0,0.3,0.1,0.5,0.1c0.3,0.1,0.3,0.2,0.3,0.3c0,0.1,0,0.2,0,0.2
		C115.1,107.6,114.9,107.5,114.7,107.3z"/>
	<path class="st6" d="M112.4,106.5c-1.4-0.4-3.1-0.5-5.5-0.4c-1.1,0-1.7,0-2.3,0c-3.8-0.3-7.5-2.1-11.6-5.6c-1-0.8-1.9-1.7-3.1-2.9
		c-1.9-2-2.9-3-3.8-4.4c-1.3-1.9-2.1-3.4-3.9-7.5c-1.8-3.9-2.7-5.4-3.8-6.5c-1.8-1.7-3.9-1.7-5.6,0.1c-1,1-1.9,2.6-2.8,4.8
		c-0.2,0.5-0.7,2-1.2,3.4c-0.5,1.5-0.9,2.6-1,2.7c-0.2,0.4-0.8,1.1-1.1,1.3c-0.9,0.8-3,1.7-4,1.7c-0.4,0-0.7-0.1-0.9-0.3
		c-0.2-0.2-0.2-0.2-0.2-0.5c0-0.8,0.9-1.9,2.4-2.7c1.2-0.6,1.4-1.2,2.8-5.2c0.9-2.8,1.3-3.7,1.9-4.9c1.4-2.8,3.1-4.4,5.4-4.9
		c0.6-0.1,2.7-0.1,3.5,0c0.9,0.2,1.8,0.4,2.5,0.6c0.7,0.2,1.8,0.7,2,0.8c0.1,0.1,0.2,0.1,0.2,0c0-0.1,0-0.1,0.9,0.3
		c1.6,0.8,3.4,2,5.1,3.5c0.7,0.6,2.8,2.7,2.9,2.9c0,0.1,0.1-0.1,0.1-0.6c0-0.7,0.1-1.8,0.2-2.6l0.1-0.5h0.4l0,0.4
		c-0.1,0.9-0.2,2.6-0.2,3v0.5h-0.1l-0.2,0l0.1,0.1c0.1,0.1,0.1,0.2,0.1,0.3c0,0.4,0.5,2.3,0.9,3.4c1.4,4.2,3.9,7.5,7,9.7
		c0.9,0.6,1.6,1,3.6,2c2.5,1.2,3.8,2,5,3c0.6,0.5,1.1,1,1.9,2.1c1,1.3,2,2.2,3,2.8c0.2,0.1,0.3,0.2,0.3,0.3c0,0.1,0,0.2,0,0.2
		C113,106.7,112.7,106.6,112.4,106.5z"/>
	<path class="st6" d="M113.3,82.8c-0.5-0.2-0.7-0.4-0.3-0.4c0.1,0,0.2,0,0.2,0.1c0,0,0,0.1,0.1,0.1c0.3,0,0.5,0.1,0.5,0.2
		C113.8,82.9,113.7,82.9,113.3,82.8z"/>
	<path class="st6" d="M113.9,82.8c0-0.1,0-0.1,0.2-0.1c0.2,0,0.2,0,0.2,0.1c0,0.1-0.1,0.2-0.4,0.2C113.9,82.9,113.9,82.9,113.9,82.8
		z"/>
	<path class="st6" d="M115.1,81.6c0-0.3,0-0.3,0.1-0.3c0.1,0,0.2,0.1,0.2,0.4c0,0.1,0,0.1-0.2,0.1C115.1,81.9,115.1,81.9,115.1,81.6
		z"/>
	<path class="st6" d="M91.8,76.9c0-0.4,0.6-2.1,1.1-3.1c0.6-1.1,1.4-2.3,1.6-2.3c0.1,0,0.1,0,0.1,0.1c0,0.1,0.1,0.1,0.1,0
		c0.1,0,0.1,0,0.1,0.1c0,0.1-0.1,0.3-0.3,0.6c-0.8,1.1-1.5,2.5-2.1,4.1l-0.2,0.7l-0.2,0C91.8,77.1,91.8,77.1,91.8,76.9z"/>
	<path class="st6" d="M101.7,70.6c0-0.2,0-0.2,0.2-0.2c0.1,0,0.2,0,0.2-0.1c0,0,0.2-0.1,0.3-0.1c0.2,0,0.4-0.1,0.4-0.1
		c0.1-0.1,0.9,0,1.2,0c0.1,0,0.3,0.1,0.6,0.1c0.4,0.1,0.4,0.1,0.4,0.2v0.2l-0.3-0.1c-0.5-0.2-1.9-0.2-2.4,0
		c-0.2,0.1-0.4,0.1-0.5,0.1C101.7,70.8,101.7,70.8,101.7,70.6z"/>
	<path class="st6" d="M102.5,67.5c0-0.1,0.2-0.1,0.3-0.1c0,0,0.1,0,0.1,0.1c0,0.1,0,0.1-0.2,0.1C102.6,67.5,102.5,67.5,102.5,67.5z"
		/>
	<path class="st6" d="M103.3,67.4c0-0.1,0.2-0.1,0.4-0.1c0.1,0,0.1,0,0.1,0.1c0,0.1,0,0.1-0.2,0.1C103.3,67.5,103.3,67.5,103.3,67.4
		z"/>
	<path class="st6" d="M103.8,67.4c0-0.1,0-0.1,0.2-0.1c0.1,0,0.2,0,0.2,0.1c0,0.1,0,0.1-0.2,0.1C103.9,67.5,103.8,67.5,103.8,67.4z"
		/>
	<path class="st7" d="M115.6,107.8c-0.3-0.2-0.5-0.3-0.5-0.4c0,0,0,0-0.1,0c0,0,0,0,0,0c0,0,0,0-0.1,0c0,0-0.1,0-0.1,0
		c0,0,0,0-0.1,0c0,0-0.1,0-0.1,0s0,0-0.1,0c0,0-0.1,0-0.1,0s0,0-0.1,0c0,0-0.1,0-0.1,0s0,0,0,0c0,0-0.2,0-0.4-0.1
		c-0.2-0.1-0.5-0.2-0.7-0.3c-0.2-0.1-0.4-0.1-0.4-0.2c0,0-0.1-0.1-0.3-0.2c-1-0.5-2-1.5-3-2.8c-0.9-1.1-1.3-1.6-1.9-2.1
		c-1.2-1-2.5-1.8-5-3c-1-0.5-2.1-1.1-2.4-1.3c-3-1.8-5.4-4.5-7.1-8c-0.6-1.3-1.1-2.5-1.4-3.8c-0.2-0.8-0.5-1.9-0.5-2.1
		c0-0.1,0-0.2-0.1-0.2c-0.1,0-0.1-0.2,0-2.3c0.1-2.4,0.5-4,1.2-5.8c0.4-1.1,1.3-2.7,1.9-3.3c0.2-0.2,0.2-0.2,0.3-0.2
		c0,0.1,0,0.1-0.1,0.3c-0.5,0.6-1.5,2.3-2,3.4c-0.3,0.7-0.6,1.7-0.5,1.7c0,0,0,0,0.3-0.7c0.4-1.3,1-2.6,1.7-3.7
		c0.6-0.9,1.9-2.3,2.9-3c2-1.5,4.3-2.2,6.8-2.3c1.7-0.1,3.2,0.5,4.6,1.8c1.5,1.4,2.5,3.2,4.1,7.1c0.8,2,1,2.4,1.7,2.9
		c0.6,0.5,1,1,1.2,1.5c0.2,0.5,0.3,1,0.2,1c0,0-0.1,0-0.1,0.1c0,0.1,0,0.1,0.1,0.1c0.1,0,0.1,0,0,0.2c0,0.2-0.3,0.5-0.7,0.8
		c-0.2,0.2-0.4,0.2-0.5,0.2c-0.1,0-0.2,0-0.2,0s-0.1,0-0.2,0s-0.2,0-0.2,0s0,0-0.1,0c-0.1,0-0.1,0-0.1,0c0,0-0.1-0.1-0.1-0.1
		c-0.1,0-0.2,0-0.2-0.1c0,0-0.1-0.1-0.1-0.1c-0.1,0-0.5-0.3-0.9-0.7c-0.7-0.8-1.3-1.8-2.4-4.4c-0.6-1.5-0.8-1.9-1.2-2.7
		c-0.7-1.4-1.4-2.5-2.2-3.1c-0.4-0.3-0.9-0.7-1.2-0.8c-0.1,0-0.2-0.1-0.2-0.1c0,0,0,0-0.1,0c0,0-0.1,0-0.1,0c0,0,0,0-0.1,0
		c-0.1,0-0.1,0-0.1,0c0,0-0.1,0-0.1,0c-0.1,0-0.1,0-0.1,0c0,0-0.1,0-0.2,0c-0.1,0-0.2,0-0.2-0.1c-0.1-0.1-0.7-0.1-0.7,0
		c0,0.1-0.1,0.1-0.3,0c-0.1,0-0.2,0-0.2,0c0,0-0.1,0-0.1,0c-0.1,0-0.1,0-0.2,0.1c0,0.1-0.1,0.1-0.2,0.1c-0.1,0-0.2,0-0.2,0
		c0,0-0.1,0.1-0.2,0.2c-2.2,1.1-2.7,1.4-3.6,2.3c-1.3,1.3-2,2.9-2.2,4.8c-0.2,1.9,0.4,4.3,1.5,6.6c1.5,3,3.5,5.4,7.1,8.4
		c1.9,1.6,3,2.7,3.5,3.4c0.2,0.3,0.4,0.7,0.6,1.1c1.1,2.6,2,3.8,4.5,5.6c0.7,0.5,1.5,1.1,1.7,1.3c0.9,0.8,1.3,1.7,1.5,2.9
		c0.1,0.6,0.1,0.7,0,0.7C116.1,108.1,115.9,108,115.6,107.8z M91.4,80.5c0-0.4,0-0.6,0-0.3c0,0.2-0.1,0.8-0.1,1.4
		C91.3,82.6,91.4,82.2,91.4,80.5z M91.5,79.5C91.5,79.5,91.5,79.5,91.5,79.5c0,0.2,0,0.2,0,0.2C91.5,79.7,91.5,79.6,91.5,79.5z"/>
	<path class="st8" d="M91.1,82.9c-0.4-0.5-2.4-2.5-3-3.1c-1.7-1.5-3.6-2.8-5.2-3.6c-0.4-0.2-0.6-0.3-0.6-0.4c0,0,0-0.1-0.1-0.1
		c0,0,0-0.1,0-0.2c0-0.1,0-0.2,0-0.2c0,0,0-0.1,0-0.2c0-0.1,0-0.2,0-0.2c0,0,0-0.1,0-0.2c0-0.1,0-0.2,0-0.2c0,0,0-0.1,0-0.2
		c0-0.1,0-0.2,0-0.2c0,0,0-0.2-0.1-0.3c0-0.1,0-0.4,0-0.5c-0.1-0.8-0.1-1.6-0.2-2.2c0-0.7,0-4.8,0-5.5c0-0.3,0-0.7,0-0.9
		c0-0.2,0-0.4,0.1-0.5c0,0,0-0.2,0-0.4c0-0.2,0-0.3,0-0.3c0,0,0-0.1,0-0.3c0-0.2,0-0.3,0-0.3c0,0,0.1-0.1,0-0.3c0-0.2,0-0.3,0-0.3
		c0,0,0-0.1,0-0.2c0-0.1,0-0.2,0-0.2c0,0,0-0.1,0-0.3c0-0.1,0-0.2,0-0.2c0,0,0.1-0.1,0-0.2c0-0.2,0-0.2,0-0.2c0,0,0-0.1,0-0.2
		c0-0.1,0-0.2,0-0.2c0,0,0.1,0,0-0.1c0-0.1,0-0.1,0-0.1c0,0,0,0,0-0.1c0-0.1,0-0.1,0-0.1c0,0,0,0,0-0.1c0-0.1,0-0.1,0-0.1
		c0,0,0,0,0-0.1s0-0.1,0-0.1c0,0,0,0,0-0.1s0-0.1,0-0.1c0,0,0.1,0,0-0.1c0,0,0-0.1,0-0.1c0,0,0,0,0-0.1c0-0.1,0-0.1,0-0.1s0,0,0-0.1
		c0,0,0-0.1,0-0.1s0.1,0,0-0.1c0,0,0-0.1,0-0.1s0,0,0-0.1c0,0,0-0.1,0-0.1c0,0,0,0,0-0.1c0,0,0-0.1,0-0.1c0,0,0,0,0-0.1
		c0,0,0-0.1,0-0.1c0,0,0.1,0,0-0.1c0,0,0-0.1,0-0.1c0,0,0,0,0-0.1c0,0,0-0.1,0-0.1c0,0,0,0,0-0.1c0,0,0-0.1,0-0.1c0,0,0.1,0,0-0.1
		c0,0,0-0.1,0-0.1c0,0,0,0,0-0.1c0,0,0-0.1,0-0.1c0,0,0,0,0-0.1c0,0,0-0.1,0-0.1c0,0,0,0,0-0.1c0,0,0-0.1,0-0.1c0,0,0,0,0-0.1
		c0,0,0-0.1,0-0.1c0,0,0,0,0-0.1c0,0,0-0.1,0-0.1c0,0,0,0,0,0c0,0,0-0.1,0.1-0.1c0,0,0.1-0.1,0-0.1c0,0,0-0.1,0-0.1s0,0,0-0.1
		c0,0,0-0.1,0-0.1s0,0,0-0.1c0,0,0-0.1,0-0.1c0,0,0.1-0.1,0.1-0.1c0,0,0-0.1,0.1-0.1c0,0,0.1-0.1,0.1-0.1c0,0,0-0.1,0.1-0.1
		c0.1,0,0.1-0.1,0.1-0.1c0,0,0-0.1,0.1-0.1c0.1,0,0.1-0.1,0.1-0.1c0,0,0.1-0.1,0.2-0.2c0.1-0.1,0.2-0.2,0.2-0.2
		c0-0.1,0.3-0.4,0.4-0.4c0.1,0,0.1-0.1,0.1-0.1c0-0.1,0.1-0.1,0.1-0.1c0.1,0,0.2-0.1,0.2-0.2c0.2-0.2,1-0.6,1.3-0.6
		c0.2,0,0.3,0,0.6,0.2c1.7,1,2.9,2.8,3.4,5.2c0.3,1.4,0.4,3.1,0.4,7.3c0.1,4.9,0.2,7.3,0.7,9.2c0.1,0.3,0.1,0.6,0.1,0.7
		c0,0.3-0.1,0.7-0.2,1.5c-0.3,1.5-0.5,2.8-0.5,4.3c0,0.4,0,0.8,0,0.8C91.2,83.1,91.1,83,91.1,82.9z"/>
	<path class="st8" d="M94.2,68.1c0-0.2,0-0.2,0.1-0.2c0.1,0,0.1,0,0.1,0.1c0,0,0,0.1,0,0.2c0,0.1,0,0.1-0.1,0.1
		C94.3,68.2,94.2,68.2,94.2,68.1z"/>
	<path class="st8" d="M91,54.8c0-0.2,0-0.2,0.3,0l0.2,0.1h-0.2C91,54.9,91,54.9,91,54.8z"/>
	<path class="st8" d="M90.1,54.3c-0.1,0-0.1-0.2,0-0.2c0.1,0,0.1,0,0.1,0.1c0,0,0,0,0,0c0,0,0.1,0,0.1,0.1c0.1,0.1,0.1,0.1-0.1,0.1
		C90.2,54.4,90.1,54.3,90.1,54.3z"/>
	<path class="st8" d="M87.5,53.8C87.5,53.8,87.5,53.7,87.5,53.8c0.1-0.1,0.2-0.1,0.2-0.1c0-0.1,0.3,0,0.3,0.1s-0.1,0.1-0.3,0.1
		C87.6,53.9,87.5,53.9,87.5,53.8z"/>
	<path class="st9" d="M116.2,108.2c-0.2-0.1-0.2-0.1-0.3-0.7c-0.2-1.2-0.6-2-1.5-2.9c-0.2-0.2-1-0.8-1.7-1.3c-2.5-1.9-3.4-3-4.5-5.6
		c-0.1-0.3-0.4-0.8-0.6-1.1c-0.4-0.7-1.6-1.8-3.5-3.4c-3.6-3-5.6-5.4-7.1-8.4c-1.7-3.4-2.1-6.7-0.9-9.4c0.7-1.7,2.2-3.2,4.1-4.1
		c0.6-0.3,1-0.4,1-0.3c0,0-0.1,0.1-0.2,0.2c-0.3,0.2-0.8,0.8-1,1.2c-0.6,1.1-0.9,2.4-1,4.7c-0.1,1.8,0,2.7,0.1,3.5
		c0.6,2.7,2.3,6,4.5,8.7c1.2,1.5,2.2,2.5,4,4.1c2.3,2,3.1,2.8,3.6,3.5c0.1,0.2,0.4,0.7,0.6,1.2c0.5,1.1,1,2.2,1.4,2.7
		c1,1.4,2.6,2.6,4.6,3.5c0.6,0.3,0.7,0.4,0.7,0.7c0,0.3-1.5,3.1-1.6,3.2C116.8,108.3,116.4,108.3,116.2,108.2z"/>
	<path class="st10" d="M104.8,106.1C104.8,106,104.8,106,104.8,106.1c0.1-0.1,0.2,0,0.2,0C104.9,106.1,104.9,106.1,104.8,106.1
		C104.8,106.1,104.8,106.1,104.8,106.1z"/>
	<path class="st10" d="M106.5,106.1c0,0,0.1-0.1,0.1-0.1c0.1,0,0.1,0,0.1,0.1c0,0-0.1,0.1-0.1,0.1
		C106.5,106.1,106.5,106.1,106.5,106.1z"/>
	<path class="st10" d="M109.8,106.1C109.8,106,109.9,106,109.8,106.1c0.1-0.1,0.2,0,0.2,0C110,106.1,110,106.1,109.8,106.1
		C109.9,106.1,109.8,106.1,109.8,106.1z"/>
	<path class="st10" d="M107.6,106c0,0,0.1-0.1,0.2-0.1c0.1,0,0.2,0,0.2,0.1c0,0-0.1,0.1-0.2,0.1C107.7,106.1,107.6,106,107.6,106z"
		/>
	<path class="st10" d="M108.7,106c0,0,0.1-0.1,0.1-0.1c0.1,0,0.1,0,0.1,0.1c0,0-0.1,0.1-0.1,0.1C108.7,106.1,108.7,106,108.7,106z"
		/>
	<path class="st10" d="M63,93.1C63,93.1,63,93.1,63,93.1c0.1-0.1,0.2,0,0.2,0C63.1,93.1,63.1,93.2,63,93.1C63,93.2,63,93.1,63,93.1z
		"/>
	<path class="st10" d="M63.7,92.9C63.7,92.9,63.7,92.9,63.7,92.9c0.1-0.1,0.2,0,0.2,0C63.9,93,63.8,93,63.7,92.9
		C63.7,93,63.7,93,63.7,92.9z"/>
	<path class="st10" d="M64,92.8C64,92.8,64.1,92.8,64,92.8c0.1-0.1,0.2,0,0.2,0C64.2,92.9,64.2,92.9,64,92.8
		C64.1,92.9,64,92.9,64,92.8z"/>
	<path class="st10" d="M90.6,82.5l-0.2-0.2L90.6,82.5c0.2,0.1,0.2,0.2,0.2,0.2C90.8,82.6,90.7,82.6,90.6,82.5z"/>
	<path class="st10" d="M89.5,81.2l-0.9-0.9L89.5,81.2c0.8,0.8,0.9,0.9,0.9,0.9C90.4,82.1,90,81.7,89.5,81.2z"/>
	<path class="st10" d="M91.3,82c0-0.1,0-0.8,0-0.8c0,0,0,0,0,0.4C91.3,81.9,91.3,82,91.3,82z"/>
	<path class="st10" d="M91.3,80.6c0-0.1,0-0.2,0-0.2C91.4,80.4,91.4,80.5,91.3,80.6c0.1,0.1,0,0.2,0,0.2
		C91.3,80.8,91.3,80.7,91.3,80.6z"/>
	<path class="st10" d="M88.2,80.1L88,79.9L88.2,80.1c0.1,0.1,0.2,0.2,0.2,0.2C88.4,80.3,88.4,80.3,88.2,80.1z"/>
	<path class="st10" d="M91.4,80c0-0.1,0-0.1,0-0.1C91.4,79.8,91.5,79.9,91.4,80c0.1,0.1,0,0.1,0,0.1C91.4,80.1,91.4,80,91.4,80z"/>
	<path class="st10" d="M74.8,77.8C74.8,77.8,74.8,77.8,74.8,77.8c0.1-0.1,0.2,0,0.2,0C74.9,77.9,74.9,77.9,74.8,77.8
		C74.8,77.9,74.8,77.9,74.8,77.8z"/>
	<path class="st10" d="M75,77.8C75,77.8,75.1,77.7,75,77.8c0.1-0.1,0.2,0,0.2,0C75.2,77.8,75.2,77.8,75,77.8
		C75.1,77.8,75,77.8,75,77.8z"/>
	<path class="st10" d="M91.7,76.2c-0.5-2.1-0.7-4.4-0.8-9.4c-0.1-4.2-0.2-5.9-0.4-7.3c-0.5-2.5-1.7-4.3-3.6-5.3
		C86.6,54,86.6,54,86.7,54c0.5-0.2,0.9-0.2,1.6-0.2c0.8,0,1.2,0.1,2,0.5c1.8,0.9,3.1,2.6,3.7,5c0.4,1.4,0.5,3.1,0.5,6.4
		c0,1.4,0,2.5,0,2.5c0,0,0,0.5,0,1.1c0,0.6,0,1.4,0,1.8l0,0.7l-0.2,0.2c-0.3,0.3-1,1.4-1.3,2.1c-0.4,0.8-0.8,1.7-1,2.5
		c-0.1,0.3-0.2,0.5-0.2,0.5C91.9,76.9,91.8,76.6,91.7,76.2z"/>
</g>
<circle class="st11" cx="93.1" cy="83.4" r="41.5"/>
</svg>
