<?xml version="1.0" encoding="utf-8"?>
<!-- Generator: Adobe Illustrator 25.2.3, SVG Export Plug-In . SVG Version: 6.00 Build 0)  -->
<svg version="1.1" id="Layer_1" xmlns:v="https://vecta.io/nano"
	 xmlns="http://www.w3.org/2000/svg" xmlns:xlink="http://www.w3.org/1999/xlink" x="0px" y="0px" viewBox="0 0 186 171"
	 style="enable-background:new 0 0 186 171;" xml:space="preserve">
<style type="text/css">
	.st0{fill:#FEC803;}
	.st1{fill:#F0B90B;}
	.st2{fill-rule:evenodd;clip-rule:evenodd;fill:#FFFFFF;}
	.st3{opacity:0.1;fill:none;stroke:#191326;stroke-width:3;enable-background:new    ;}
	.st4{fill:#FAF4E6;}
	.st5{fill:#FFD54F;}
	.st6{fill:#FFCA28;}
	.st7{fill:#FFECB3;}
	.st8{fill:#FFB300;}
	.st9{fill:#FFE082;}
	.st10{opacity:0.16;}
</style>
<g>
	<path class="st0" d="M172.4,95c-1-7.8-6.2-14.9-13.3-18.2c-8.6-4-18.7-2.6-27.8-5.3c-11.8-3.5-20.4-13.3-30.9-19.8
		C88,44.1,73.2,41.4,58.8,38.8C49.2,37.1,39.1,35.5,30,39c-12.3,4.9-19.5,20-15.5,32.6c6.8,21.4,37,27.1,46.2,47.6
		c4.8,10.6,3.2,24.1,10.7,32.9c9,10.5,25.5,8.7,38.9,5.5c10.2-2.5,20.3-5.3,30.4-8.2c8.2-2.3,16.8-4.8,22.8-10.8
		c7.5-7.4,4.4-13.1,4.3-21.7C167.9,109.5,173.5,103.3,172.4,95z"/>
</g>
<circle class="st1" cx="70.2" cy="39.8" r="29"/>
<path class="st2" d="M57.9,32.4l12.4-12.4l4.9,4.9L62.8,37.4L57.9,32.4z M57.9,47.2l19.7-19.7l4.9,4.9L62.8,52.1L57.9,47.2z
	 M85,34.9L65.3,54.6l4.9,4.9l19.7-19.7L85,34.9z M50.5,39.8l4.9-4.9l4.9,4.9l-4.9,4.9L50.5,39.8z"/>
<circle class="st3" cx="70.2" cy="39.8" r="27.5"/>
<path class="st4" d="M120.4,127.4c24.1,0,43.7-19.5,43.7-43.7s-19.5-43.7-43.7-43.7S76.8,59.7,76.8,83.8S96.3,127.4,120.4,127.4z"/>
<g id="surface1">
	<path class="st5" d="M141.8,106.7c-0.5-0.2-0.6-0.4-0.3-0.4c0.1,0,0.3,0.1,0.5,0.1c0.3,0.1,0.3,0.2,0.3,0.3c0,0.1,0,0.2,0,0.2
		C142.2,106.9,142,106.8,141.8,106.7z"/>
	<path class="st5" d="M139.5,105.9c-1.4-0.4-3.1-0.5-5.5-0.4c-1.1,0-1.7,0-2.3,0c-3.8-0.3-7.5-2.1-11.6-5.6c-1-0.8-1.9-1.7-3.1-2.9
		c-1.9-2-2.9-3-3.8-4.4c-1.3-1.9-2.1-3.4-3.9-7.5c-1.8-3.9-2.7-5.4-3.8-6.5c-1.8-1.7-3.9-1.7-5.6,0.1c-1,1-1.9,2.6-2.8,4.8
		c-0.2,0.5-0.7,2-1.2,3.4c-0.5,1.5-0.9,2.6-1,2.7c-0.2,0.4-0.8,1.1-1.1,1.3c-0.9,0.8-3,1.7-4,1.7c-0.4,0-0.7-0.1-0.9-0.3
		c-0.2-0.2-0.2-0.2-0.2-0.5c0-0.8,0.9-1.9,2.4-2.7c1.2-0.6,1.4-1.2,2.8-5.2c0.9-2.8,1.3-3.7,1.9-4.9c1.4-2.8,3.1-4.4,5.4-4.9
		c0.6-0.1,2.7-0.1,3.5,0c0.9,0.2,1.8,0.4,2.5,0.6c0.7,0.2,1.8,0.7,2,0.8c0.1,0.1,0.2,0.1,0.2,0c0-0.1,0-0.1,0.9,0.3
		c1.6,0.8,3.4,2,5.1,3.5c0.7,0.6,2.8,2.7,2.9,2.9c0,0.1,0.1-0.1,0.1-0.6c0-0.7,0.1-1.8,0.2-2.6l0.1-0.5h0.4l0,0.4
		c-0.1,0.9-0.2,2.6-0.2,3v0.5h-0.1l-0.2,0l0.1,0.1c0.1,0.1,0.1,0.2,0.1,0.3c0,0.4,0.5,2.3,0.9,3.4c1.4,4.2,3.9,7.5,7,9.7
		c0.9,0.6,1.6,1,3.6,2c2.5,1.2,3.8,2,5,3c0.6,0.5,1.1,1,1.9,2.1c1,1.3,2,2.2,3,2.8c0.2,0.1,0.3,0.2,0.3,0.3c0,0.1,0,0.2,0,0.2
		C140.1,106.1,139.8,106,139.5,105.9z"/>
	<path class="st5" d="M140.4,82.2c-0.5-0.2-0.7-0.4-0.3-0.4c0.1,0,0.2,0,0.2,0.1c0,0,0,0.1,0.1,0.1c0.3,0,0.5,0.1,0.5,0.2
		C140.8,82.3,140.7,82.3,140.4,82.2z"/>
	<path class="st5" d="M140.9,82.2c0-0.1,0-0.1,0.2-0.1c0.2,0,0.2,0,0.2,0.1c0,0.1-0.1,0.2-0.4,0.2C141,82.3,140.9,82.3,140.9,82.2z"
		/>
	<path class="st5" d="M142.2,81c0-0.3,0-0.3,0.1-0.3c0.1,0,0.2,0.1,0.2,0.4c0,0.1,0,0.1-0.2,0.1C142.2,81.3,142.2,81.3,142.2,81z"/>
	<path class="st5" d="M118.8,76.3c0-0.4,0.6-2.1,1.1-3.1c0.6-1.1,1.4-2.3,1.6-2.3c0.1,0,0.1,0,0.1,0.1c0,0.1,0.1,0.1,0.1,0
		c0.1,0,0.1,0,0.1,0.1c0,0.1-0.1,0.3-0.3,0.6c-0.8,1.1-1.5,2.5-2.1,4.1l-0.2,0.7l-0.2,0C118.8,76.5,118.8,76.5,118.8,76.3z"/>
	<path class="st5" d="M128.8,70c0-0.2,0-0.2,0.2-0.2c0.1,0,0.2,0,0.2-0.1c0,0,0.2-0.1,0.3-0.1c0.2,0,0.4-0.1,0.4-0.1
		c0.1-0.1,0.9,0,1.2,0c0.1,0,0.3,0.1,0.6,0.1c0.4,0.1,0.4,0.1,0.4,0.2v0.2l-0.3-0.1c-0.5-0.2-1.9-0.2-2.4,0
		c-0.2,0.1-0.4,0.1-0.5,0.1C128.8,70.2,128.8,70.2,128.8,70z"/>
	<path class="st5" d="M129.6,66.8c0-0.1,0.2-0.1,0.3-0.1c0,0,0.1,0,0.1,0.1c0,0.1,0,0.1-0.2,0.1C129.7,66.9,129.6,66.9,129.6,66.8z"
		/>
	<path class="st5" d="M130.4,66.8c0-0.1,0.2-0.1,0.4-0.1c0.1,0,0.1,0,0.1,0.1c0,0.1,0,0.1-0.2,0.1C130.4,66.9,130.4,66.8,130.4,66.8
		z"/>
	<path class="st5" d="M130.9,66.8c0-0.1,0-0.1,0.2-0.1c0.1,0,0.2,0,0.2,0.1c0,0.1,0,0.1-0.2,0.1C130.9,66.9,130.9,66.8,130.9,66.8z"
		/>
	<path class="st6" d="M142.7,107.2c-0.3-0.2-0.5-0.3-0.5-0.4c0,0,0,0-0.1,0c0,0,0,0,0,0c0,0,0,0-0.1,0c0,0-0.1,0-0.1,0
		c0,0,0,0-0.1,0c0,0-0.1,0-0.1,0c0,0,0,0-0.1,0c0,0-0.1,0-0.1,0c0,0,0,0-0.1,0c0,0-0.1,0-0.1,0s0,0,0,0c0,0-0.2,0-0.4-0.1
		c-0.2-0.1-0.5-0.2-0.7-0.3c-0.2-0.1-0.4-0.1-0.4-0.2c0,0-0.1-0.1-0.3-0.2c-1-0.5-2-1.5-3-2.8c-0.9-1.1-1.3-1.6-1.9-2.1
		c-1.2-1-2.5-1.8-5-3c-1-0.5-2.1-1.1-2.4-1.3c-3-1.8-5.4-4.5-7.1-8c-0.6-1.3-1.1-2.5-1.4-3.8c-0.2-0.8-0.5-1.9-0.5-2.1
		c0-0.1,0-0.2-0.1-0.2c-0.1,0-0.1-0.2,0-2.3c0.1-2.4,0.5-4,1.2-5.8c0.4-1.1,1.3-2.7,1.9-3.3c0.2-0.2,0.2-0.2,0.3-0.2
		c0,0.1,0,0.1-0.1,0.3c-0.5,0.6-1.5,2.3-2,3.4c-0.3,0.7-0.6,1.7-0.5,1.7c0,0,0,0,0.3-0.7c0.4-1.3,1-2.6,1.7-3.7
		c0.6-0.9,1.9-2.3,2.9-3c2-1.5,4.3-2.2,6.8-2.3c1.7-0.1,3.2,0.5,4.6,1.8c1.5,1.4,2.5,3.2,4.1,7.1c0.8,2,1,2.4,1.7,2.9
		c0.6,0.5,1,1,1.2,1.5c0.2,0.5,0.3,1,0.2,1c0,0-0.1,0-0.1,0.1c0,0.1,0,0.1,0.1,0.1c0.1,0,0.1,0,0,0.2c0,0.2-0.3,0.5-0.7,0.8
		c-0.2,0.2-0.4,0.2-0.5,0.2c-0.1,0-0.2,0-0.2,0c0,0-0.1,0-0.2,0c-0.1,0-0.2,0-0.2,0c0,0,0,0-0.1,0c-0.1,0-0.1,0-0.1,0
		c0,0-0.1-0.1-0.1-0.1c-0.1,0-0.2,0-0.2-0.1c0,0-0.1-0.1-0.1-0.1c-0.1,0-0.5-0.3-0.9-0.7c-0.7-0.8-1.3-1.8-2.4-4.4
		c-0.6-1.5-0.8-1.9-1.2-2.7c-0.7-1.4-1.4-2.5-2.2-3.1c-0.4-0.3-0.9-0.7-1.2-0.8c-0.1,0-0.2-0.1-0.2-0.1c0,0,0,0-0.1,0
		c0,0-0.1,0-0.1,0c0,0,0,0-0.1,0c-0.1,0-0.1,0-0.1,0c0,0-0.1,0-0.1,0c-0.1,0-0.1,0-0.1,0c0,0-0.1,0-0.2,0c-0.1,0-0.2,0-0.2-0.1
		c-0.1-0.1-0.7-0.1-0.7,0c0,0.1-0.1,0.1-0.3,0c-0.1,0-0.2,0-0.2,0c0,0-0.1,0-0.1,0c-0.1,0-0.1,0-0.2,0.1c0,0.1-0.1,0.1-0.2,0.1
		c-0.1,0-0.2,0-0.2,0c0,0-0.1,0.1-0.2,0.2c-2.2,1.1-2.7,1.4-3.6,2.3c-1.3,1.3-2,2.9-2.2,4.8c-0.2,1.9,0.4,4.3,1.5,6.6
		c1.5,3,3.5,5.4,7.1,8.4c1.9,1.6,3,2.7,3.5,3.4c0.2,0.3,0.4,0.7,0.6,1.1c1.1,2.6,2,3.8,4.5,5.6c0.7,0.5,1.5,1.1,1.7,1.3
		c0.9,0.8,1.3,1.7,1.5,2.9c0.1,0.6,0.1,0.7,0,0.7C143.2,107.5,142.9,107.4,142.7,107.2z M118.5,79.9c0-0.4,0-0.6,0-0.3
		c0,0.2-0.1,0.8-0.1,1.4C118.4,82,118.4,81.6,118.5,79.9z M118.6,78.9C118.6,78.8,118.6,78.9,118.6,78.9c0,0.2,0,0.2,0,0.2
		C118.6,79,118.6,79,118.6,78.9z"/>
	<path class="st7" d="M118.1,82.3c-0.4-0.5-2.4-2.5-3-3.1c-1.7-1.5-3.6-2.8-5.2-3.6c-0.4-0.2-0.6-0.3-0.6-0.4c0,0,0-0.1-0.1-0.1
		c0,0,0-0.1,0-0.2c0-0.1,0-0.2,0-0.2c0,0,0-0.1,0-0.2c0-0.1,0-0.2,0-0.2c0,0,0-0.1,0-0.2c0-0.1,0-0.2,0-0.2c0,0,0-0.1,0-0.2
		c0-0.1,0-0.2,0-0.2c0,0,0-0.2-0.1-0.3c0-0.1,0-0.4,0-0.5c-0.1-0.8-0.1-1.6-0.2-2.2c0-0.7,0-4.8,0-5.5c0-0.3,0-0.7,0-0.9
		c0-0.2,0-0.4,0.1-0.5c0,0,0-0.2,0-0.4c0-0.2,0-0.3,0-0.3c0,0,0-0.1,0-0.3c0-0.2,0-0.3,0-0.3c0,0,0.1-0.1,0-0.3c0-0.2,0-0.3,0-0.3
		c0,0,0-0.1,0-0.2c0-0.1,0-0.2,0-0.2c0,0,0-0.1,0-0.3c0-0.1,0-0.2,0-0.2c0,0,0.1-0.1,0-0.2c0-0.2,0-0.2,0-0.2c0,0,0-0.1,0-0.2
		c0-0.1,0-0.2,0-0.2c0,0,0.1,0,0-0.1c0-0.1,0-0.1,0-0.1c0,0,0,0,0-0.1c0-0.1,0-0.1,0-0.1c0,0,0,0,0-0.1c0-0.1,0-0.1,0-0.1
		c0,0,0,0,0-0.1c0-0.1,0-0.1,0-0.1c0,0,0,0,0-0.1s0-0.1,0-0.1c0,0,0.1,0,0-0.1c0,0,0-0.1,0-0.1c0,0,0,0,0-0.1c0-0.1,0-0.1,0-0.1
		c0,0,0,0,0-0.1c0,0,0-0.1,0-0.1s0.1,0,0-0.1c0,0,0-0.1,0-0.1s0,0,0-0.1c0,0,0-0.1,0-0.1c0,0,0,0,0-0.1c0,0,0-0.1,0-0.1
		c0,0,0,0,0-0.1c0,0,0-0.1,0-0.1c0,0,0.1,0,0-0.1c0,0,0-0.1,0-0.1c0,0,0,0,0-0.1c0,0,0-0.1,0-0.1s0,0,0-0.1c0,0,0-0.1,0-0.1
		c0,0,0.1,0,0-0.1c0,0,0-0.1,0-0.1s0,0,0-0.1c0,0,0-0.1,0-0.1c0,0,0,0,0-0.1c0,0,0-0.1,0-0.1c0,0,0,0,0-0.1c0,0,0-0.1,0-0.1
		c0,0,0,0,0-0.1c0,0,0-0.1,0-0.1c0,0,0,0,0-0.1c0,0,0-0.1,0-0.1c0,0,0,0,0,0c0,0,0-0.1,0.1-0.1c0,0,0.1-0.1,0-0.1c0,0,0-0.1,0-0.1
		c0,0,0,0,0-0.1c0,0,0-0.1,0-0.1c0,0,0,0,0-0.1c0,0,0-0.1,0-0.1c0,0,0.1-0.1,0.1-0.1c0,0,0-0.1,0.1-0.1c0,0,0.1-0.1,0.1-0.1
		c0,0,0-0.1,0.1-0.1c0.1,0,0.1-0.1,0.1-0.1c0,0,0-0.1,0.1-0.1c0.1,0,0.1-0.1,0.1-0.1c0,0,0.1-0.1,0.2-0.2c0.1-0.1,0.2-0.2,0.2-0.2
		c0-0.1,0.3-0.4,0.4-0.4c0.1,0,0.1-0.1,0.1-0.1c0-0.1,0.1-0.1,0.1-0.1c0.1,0,0.2-0.1,0.2-0.2c0.2-0.2,1-0.6,1.3-0.6
		c0.2,0,0.3,0,0.6,0.2c1.7,1,2.9,2.8,3.4,5.2c0.3,1.4,0.4,3.1,0.4,7.3c0.1,4.9,0.2,7.3,0.7,9.2c0.1,0.3,0.1,0.6,0.1,0.7
		c0,0.3-0.1,0.7-0.2,1.5c-0.3,1.5-0.5,2.8-0.5,4.3c0,0.4,0,0.8,0,0.8C118.3,82.5,118.2,82.4,118.1,82.3z"/>
	<path class="st7" d="M121.3,67.4c0-0.2,0-0.2,0.1-0.2c0.1,0,0.1,0,0.1,0.1c0,0,0,0.1,0,0.2c0,0.1,0,0.1-0.1,0.1
		C121.3,67.6,121.3,67.6,121.3,67.4z"/>
	<path class="st7" d="M118.1,54.2c0-0.2,0-0.2,0.3,0l0.2,0.1h-0.2C118.1,54.3,118.1,54.3,118.1,54.2z"/>
	<path class="st7" d="M117.1,53.7c-0.1,0-0.1-0.2,0-0.2c0.1,0,0.1,0,0.1,0.1c0,0,0,0,0,0c0,0,0.1,0,0.1,0.1c0.1,0.1,0.1,0.1-0.1,0.1
		C117.3,53.7,117.2,53.7,117.1,53.7z"/>
	<path class="st7" d="M114.6,53.2C114.6,53.2,114.6,53.1,114.6,53.2c0.1-0.1,0.2-0.1,0.2-0.1c0-0.1,0.3,0,0.3,0.1
		c0,0.1-0.1,0.1-0.3,0.1C114.6,53.3,114.6,53.3,114.6,53.2z"/>
	<path class="st8" d="M143.3,107.6c-0.2-0.1-0.2-0.1-0.3-0.7c-0.2-1.2-0.6-2-1.5-2.9c-0.2-0.2-1-0.8-1.7-1.3c-2.5-1.9-3.4-3-4.5-5.6
		c-0.1-0.3-0.4-0.8-0.6-1.1c-0.4-0.7-1.6-1.8-3.5-3.4c-3.6-3-5.6-5.4-7.1-8.4c-1.7-3.4-2.1-6.7-0.9-9.4c0.7-1.7,2.2-3.2,4.1-4.1
		c0.6-0.3,1-0.4,1-0.3c0,0-0.1,0.1-0.2,0.2c-0.3,0.2-0.8,0.8-1,1.2c-0.6,1.1-0.9,2.4-1,4.7c-0.1,1.8,0,2.7,0.1,3.5
		c0.6,2.7,2.3,6,4.5,8.7c1.2,1.5,2.2,2.5,4,4.1c2.3,2,3.1,2.8,3.6,3.5c0.1,0.2,0.4,0.7,0.6,1.2c0.5,1.1,1,2.2,1.4,2.7
		c1,1.4,2.6,2.6,4.6,3.5c0.6,0.3,0.7,0.4,0.7,0.7c0,0.3-1.5,3.1-1.6,3.2C143.9,107.7,143.5,107.7,143.3,107.6z"/>
	<path class="st9" d="M131.8,105.5C131.8,105.4,131.9,105.4,131.8,105.5c0.1-0.1,0.2,0,0.2,0C132,105.5,132,105.5,131.8,105.5
		C131.9,105.5,131.8,105.5,131.8,105.5z"/>
	<path class="st9" d="M133.6,105.5c0,0,0.1-0.1,0.1-0.1s0.1,0,0.1,0.1c0,0-0.1,0.1-0.1,0.1S133.6,105.5,133.6,105.5z"/>
	<path class="st9" d="M136.9,105.5C136.9,105.4,137,105.4,136.9,105.5c0.1-0.1,0.2,0,0.2,0C137.1,105.5,137,105.5,136.9,105.5
		C137,105.5,136.9,105.5,136.9,105.5z"/>
	<path class="st9" d="M134.7,105.4c0,0,0.1-0.1,0.2-0.1s0.2,0,0.2,0.1c0,0-0.1,0.1-0.2,0.1S134.7,105.4,134.7,105.4z"/>
	<path class="st9" d="M135.8,105.4c0,0,0.1-0.1,0.1-0.1c0.1,0,0.1,0,0.1,0.1c0,0-0.1,0.1-0.1,0.1
		C135.8,105.5,135.8,105.4,135.8,105.4z"/>
	<path class="st9" d="M90.1,92.5C90.1,92.5,90.1,92.4,90.1,92.5c0.1-0.1,0.2,0,0.2,0C90.2,92.5,90.2,92.6,90.1,92.5
		C90.1,92.6,90.1,92.5,90.1,92.5z"/>
	<path class="st9" d="M90.8,92.3C90.8,92.3,90.8,92.3,90.8,92.3c0.1-0.1,0.2,0,0.2,0C90.9,92.4,90.9,92.4,90.8,92.3
		C90.8,92.4,90.8,92.4,90.8,92.3z"/>
	<path class="st9" d="M91.1,92.2C91.1,92.2,91.1,92.2,91.1,92.2c0.1-0.1,0.2,0,0.2,0C91.3,92.3,91.2,92.3,91.1,92.2
		C91.1,92.3,91.1,92.3,91.1,92.2z"/>
	<path class="st9" d="M117.7,81.9l-0.2-0.2L117.7,81.9c0.2,0.1,0.2,0.2,0.2,0.2C117.9,82,117.8,81.9,117.7,81.9z"/>
	<path class="st9" d="M116.6,80.6l-0.9-0.9L116.6,80.6c0.8,0.8,0.9,0.9,0.9,0.9C117.4,81.5,117,81.1,116.6,80.6z"/>
	<path class="st9" d="M118.3,81.4c0-0.1,0-0.8,0-0.8c0,0,0,0,0,0.4C118.4,81.3,118.4,81.4,118.3,81.4z"/>
	<path class="st9" d="M118.4,80c0-0.1,0-0.2,0-0.2C118.5,79.8,118.5,79.9,118.4,80c0.1,0.1,0,0.2,0,0.2
		C118.4,80.2,118.4,80.1,118.4,80z"/>
	<path class="st9" d="M115.3,79.5l-0.2-0.2L115.3,79.5c0.1,0.1,0.2,0.2,0.2,0.2C115.5,79.7,115.5,79.6,115.3,79.5z"/>
	<path class="st9" d="M118.5,79.4c0-0.1,0-0.1,0-0.1C118.5,79.2,118.5,79.3,118.5,79.4c0.1,0.1,0,0.1,0,0.1
		C118.5,79.5,118.5,79.4,118.5,79.4z"/>
	<path class="st9" d="M101.9,77.2C101.9,77.2,101.9,77.2,101.9,77.2c0.1-0.1,0.2,0,0.2,0C102,77.3,102,77.3,101.9,77.2
		C101.9,77.3,101.9,77.3,101.9,77.2z"/>
	<path class="st9" d="M102.1,77.2C102.1,77.1,102.2,77.1,102.1,77.2c0.1-0.1,0.2,0,0.2,0C102.3,77.2,102.3,77.2,102.1,77.2
		C102.2,77.2,102.1,77.2,102.1,77.2z"/>
	<path class="st9" d="M118.8,75.6c-0.5-2.1-0.7-4.4-0.8-9.4c-0.1-4.2-0.2-5.9-0.4-7.3c-0.5-2.5-1.7-4.3-3.6-5.3
		c-0.4-0.2-0.4-0.2-0.3-0.3c0.5-0.2,0.9-0.2,1.6-0.2c0.8,0,1.2,0.1,2,0.5c1.8,0.9,3.1,2.6,3.7,5c0.4,1.4,0.5,3.1,0.5,6.4
		c0,1.4,0,2.5,0,2.5c0,0,0,0.5,0,1.1c0,0.6,0,1.4,0,1.8l0,0.7l-0.2,0.2c-0.3,0.3-1,1.4-1.3,2.1c-0.4,0.8-0.8,1.7-1,2.5
		c-0.1,0.3-0.2,0.5-0.2,0.5C119,76.3,118.9,76,118.8,75.6z"/>
</g>
<g class="st10">
	<path d="M120.4,127.4c-11.6,0-22.5-4.5-30.7-12.7c-8.3-8.2-12.9-19.1-12.9-30.8S81.3,61.3,89.5,53s19.2-12.8,30.8-12.9l0,0h0.1
		c11.6,0,22.5,4.5,30.7,12.7C159.4,61,163.9,72,164,83.6s-4.5,22.6-12.7,30.9S132.1,127.3,120.4,127.4
		C120.5,127.4,120.4,127.4,120.4,127.4z M120.3,43.2c-10.8,0-21,4.3-28.7,12S79.8,73.1,79.8,83.9s4.3,21,12,28.7
		c7.7,7.6,17.8,11.8,28.6,11.8h0.1c10.8,0,21-4.3,28.7-12S161,94.6,161,83.8s-4.3-21-12-28.7C141.4,47.4,131.2,43.2,120.3,43.2
		L120.3,43.2L120.3,43.2z"/>
</g>
</svg>
