<?xml version="1.0" encoding="utf-8"?>
<!-- Generator: Adobe Illustrator 25.2.3, SVG Export Plug-In . SVG Version: 6.00 Build 0)  -->
<svg version="1.1" id="Layer_1" xmlns:v="https://vecta.io/nano"
	 xmlns="http://www.w3.org/2000/svg" xmlns:xlink="http://www.w3.org/1999/xlink" x="0px" y="0px" viewBox="0 0 186 171"
	 style="enable-background:new 0 0 186 171;" xml:space="preserve">
<style type="text/css">
	.st0{fill:#FEC803;}
	.st1{fill:#F7931A;}
	.st2{fill:#FFFFFF;}
	.st3{opacity:0.1;fill:none;stroke:#191326;stroke-width:3;enable-background:new    ;}
	.st4{fill:#FDA100;}
	.st5{opacity:0.16;}
	.st6{fill:#FEFEFE;}
	.st7{fill:#010100;}
	.st8{fill:#060505;}
	.st9{fill:#050403;}
	.st10{fill:#070604;}
	.st11{fill:#080806;}
	.st12{fill:#100D08;}
	.st13{fill:#0C0A06;}
	.st14{fill:#090805;}
	.st15{fill:#0E0D09;}
	.st16{fill:#020201;}
</style>
<g>
	<path class="st0" d="M172.4,95c-1-7.8-6.2-14.9-13.3-18.2c-8.6-4-18.7-2.6-27.8-5.3c-11.8-3.5-20.4-13.3-30.9-19.8
		C88,44.1,73.2,41.4,58.8,38.8C49.2,37.1,39.1,35.5,30,39c-12.3,4.9-19.5,20-15.5,32.6c6.8,21.4,37,27.1,46.2,47.6
		c4.8,10.6,3.2,24.1,10.7,32.9c9,10.5,25.5,8.7,38.9,5.5c10.2-2.5,20.3-5.3,30.4-8.2c8.2-2.3,16.8-4.8,22.8-10.8
		c7.5-7.4,4.4-13.1,4.3-21.7C167.9,109.5,173.5,103.3,172.4,95z"/>
</g>
<g transform="translate(0.00630876,-0.00301984)">
	<path class="st1" d="M98.6,46.7c-3.9,15.6-19.7,25.1-35.3,21.2C47.7,64,38.2,48.2,42.1,32.6C46,17,61.8,7.5,77.4,11.4
		C93,15.3,102.5,31.1,98.6,46.7z"/>
	<path class="st2" d="M83.2,35.5c0.6-3.9-2.4-6-6.4-7.4l1.3-5.3l-3.2-0.8l-1.3,5.1c-0.8-0.2-1.7-0.4-2.6-0.6l1.3-5.1l-3.2-0.8
		l-1.3,5.3c-0.7-0.2-1.4-0.3-2-0.5l0,0l-4.4-1.1l-0.9,3.4c0,0,2.4,0.5,2.3,0.6c1.3,0.3,1.5,1.2,1.5,1.9l-1.5,6
		c0.1,0,0.2,0.1,0.3,0.1c-0.1,0-0.2-0.1-0.3-0.1l-2.1,8.4c-0.2,0.4-0.6,1-1.5,0.8c0,0-2.3-0.6-2.3-0.6l-1.6,3.7l4.2,1
		c0.8,0.2,1.5,0.4,2.3,0.6l-1.3,5.3l3.2,0.8l1.3-5.3c0.9,0.2,1.7,0.5,2.5,0.7l-1.3,5.2l3.2,0.8l1.3-5.3c5.5,1,9.6,0.6,11.3-4.3
		c1.4-4-0.1-6.3-2.9-7.8C81.2,39.7,82.8,38.3,83.2,35.5z M75.9,45.7c-1,4-7.7,1.8-9.8,1.3l1.8-7C70,40.5,76.9,41.6,75.9,45.7z
		 M76.9,35.4c-0.9,3.6-6.5,1.8-8.3,1.3l1.6-6.4C72,30.8,77.8,31.7,76.9,35.4z"/>
</g>
<circle class="st3" cx="70.2" cy="39.8" r="27.5"/>
<path class="st4" d="M120.4,127.4c24.1,0,43.7-19.5,43.7-43.7S144.6,40,120.4,40S76.8,59.7,76.8,83.8S96.3,127.4,120.4,127.4z"/>
<g class="st5">
	<path d="M120.4,127.4c-11.6,0-22.5-4.5-30.7-12.7c-8.3-8.2-12.9-19.1-12.9-30.8S81.3,61.3,89.5,53s19.2-12.8,30.8-12.9l0,0h0.1
		c11.6,0,22.5,4.5,30.7,12.7C159.4,61,163.9,72,164,83.6s-4.5,22.6-12.7,30.9S132.1,127.3,120.4,127.4
		C120.5,127.4,120.4,127.4,120.4,127.4z M120.3,43.2c-10.8,0-21,4.3-28.7,12S79.8,73.1,79.8,83.9s4.3,21,12,28.7
		c7.7,7.6,17.8,11.8,28.6,11.8h0.1c10.8,0,21-4.3,28.7-12S161,94.6,161,83.8s-4.3-21-12-28.7C141.4,47.4,131.2,43.2,120.3,43.2
		L120.3,43.2L120.3,43.2z"/>
</g>
<g>
	<path class="st4" d="M155.5-98.2c0-9.3,0-18.6,0-27.9c1-5.8,1.5-11.7,2.9-17.5c4.2-18.2,12.6-34.3,24.4-48.4
		c17.6-21.1,39.6-35.2,66.6-41.9c16.3-4,32.7-4.4,48.8-2.3c25.8,3.3,48.4,14.4,67.6,32.3c20.7,19.4,33.6,43.3,37.7,71.2
		c4.3,28.5,0.4,56.1-14,81.7c-13.8,24.7-33.7,42.5-59.3,53.9c-11.5,5.1-23.7,8.7-36.5,8.9c-0.7,0-1.3,0-1.8,0.5c-8,0-15.9,0-23.9,0
		c-12-1.1-23.8-3.2-35-7.8c-20.3-8.3-37.4-21-51.2-38.1c-12.6-15.6-20.8-33.3-24.8-52.9C156.2-90.4,156.5-94.4,155.5-98.2z"/>
</g>
<g>
	<path class="st6" d="M125.3,104.4c-1.2,0.3-2.1-0.5-3.3-0.4c-0.2,0.1-0.4,0.1-0.6,0.1c-2.2-0.3-2.2-0.3-2.8,1.9
		c-0.3,1-0.3,2.1-1.2,2.9c-0.9,0.6-1.7,0-2.4-0.3c-1.3-0.4-2.9-0.2-3.9-1.5c-0.4-1.1,0.1-2.1,0.4-3.2c0.1-0.5,0.2-0.9,0.3-1.4
		c0.1-0.6-0.2-1-0.8-1.2c-0.7-0.2-1.1,0.1-1.3,0.7c-0.3,1-0.6,2-0.9,3c-0.2,0.5-0.2,1.1-0.8,1.5c-2,0-3.7-0.9-5.6-1.3
		c-0.8-0.2-0.7-0.8-0.5-1.4c0.3-1.3,0.6-2.5,1-3.8c0.3-1,0.2-1.4-0.9-1.6c-2.3-0.5-4.6-1.3-6.9-1.8c-1.5-0.3-0.9-1.2-0.7-2
		c0.2-0.8,0.3-1.8,1.6-1.2c1.4,0.6,2.4,0.4,2.5-1.3c0.1-1.1,0.8-1.1,1.7-0.9c1.3,0.4,2.6,0.7,3.9,1c0.7,0.2,1.1,0,1.2-0.7
		c2-7.6,4-15.2,6.1-22.7c0.2-0.9-0.1-1.1-0.8-1.3c-1.4-0.3-2.7-0.7-4.1-1c-0.8-0.2-1-0.6-0.8-1.4c0.4-1.4,0.8-2.9,1.2-4.4
		c0.2-0.8,0.6-0.8,1.3-0.6c1.3,0.4,2.7,0.7,4.1,1.1c1,0.3,1.3-0.1,1.5-0.9c0.3-1.3,0.7-2.6,1-3.9c0.2-0.7,0.5-1.1,1.2-0.8
		c1.8,0.6,3.6,0.8,5.4,1.6c0.4,1.6-0.6,2.9-0.8,4.3c-0.1,0.6-0.4,1.2,0.4,1.6c0.9,0.5,1.6,0.2,1.9-0.8c0.3-0.9,0.4-1.8,0.7-2.7
		c0.2-0.5,0.1-1.2,0.8-1.4c2.3-0.1,4.4,0.4,6.3,1.7c0.3,1.2-0.3,2.3-0.5,3.4c-0.4,1.8-0.4,1.8,1.3,2.6c0.3,0.1,0.5,0.3,0.8,0.5
		c0.9,0.6,2.1,0.4,3.1,1.1c0,0,0.1,0.1,0.1,0.1c-0.5,1.8,0.3,2.9,1.9,3.6c0.1,0.1,0.2,0.2,0.2,0.3c-0.3,1.8,0.5,3,2.2,3.7
		c0,0.1,0.1,0.2,0.1,0.3c0.5,1.4-0.3,2.6-0.5,3.9c-1.8,6.1-3.3,12.3-5,18.5c-0.2,0.7-0.2,1.6-1.1,2l-0.1,0l0,0.1
		c0,0.1-0.1,0.2-0.2,0.2c-1.6-0.4-2.8,0.1-3.4,1.6c0,0.1-0.1,0.2-0.1,0.3c-0.3,0.5-0.8,0.4-1.2,0.3c-1.2-0.4-1.8,0-2.1,1.2
		C125.8,104,125.6,104.3,125.3,104.4z"/>
	<path class="st7" d="M133,100c1.8-6.5,3.5-13,5.3-19.6c0.1-0.3,0.2-0.6,0.4-0.8c0.5-0.8,0.6-1.7,0.8-2.6c0.2-1.3,0.8-1.6,1.9-1
		c0.3,0.1,0.6,0,0.9,0.2c0.7,0.4,0.2,0.9,0.1,1.4c-1.9,7.3-3.9,14.6-5.8,21.9c-0.3,1.1-0.7,1.7-1.9,1.1
		C134.1,100.3,133.6,100.2,133,100z"/>
	<path class="st8" d="M124.3,58.3c-0.4,1.6-0.9,3.2-1.3,4.8c-0.3,1.3-1,0.9-1.7,0.6c-0.7-0.2-1.9,0-1.4-1.4c0.5-1.7,1-3.4,1.4-5.1
		C122.4,57.5,123.5,57.4,124.3,58.3z"/>
	<path class="st9" d="M132.1,66.5c-3.1-0.5-3.1-0.5-2.4-3.4c0.3-1,0.6-2.1,0.9-3.1c2.3-0.5,3.2,0.4,2.6,2.5
		C132.8,63.8,132.4,65.1,132.1,66.5z"/>
	<path class="st10" d="M117.5,108.9c0.4-1.4,0.9-2.8,1.1-4.3c0.2-1.3,0.9-1.6,2-1.1c0.5,0.2,1,0.3,1.4,0.5c-0.4,1.5-0.9,3-1.2,4.5
		c-0.2,1.3-0.8,1.7-2,1.1C118.4,109.4,117.7,109.6,117.5,108.9z"/>
	<path class="st11" d="M108.1,106.6c0.4-1.7,0.9-3.3,1.3-5c0.3-1.4,1.2-0.7,1.9-0.6c0.8,0.2,1.5,0.2,1.1,1.4
		c-0.5,1.5-0.8,3.1-1.2,4.7C110,107.7,109.1,107,108.1,106.6z"/>
	<path class="st12" d="M137.1,71.3c-2.8-0.7-2.8-0.7-2-3.7c0.2,0,0.4,0,0.6,0C138.4,68.1,138.7,68.9,137.1,71.3z"/>
	<path class="st13" d="M125.3,104.4c0.7-2.7,0.7-2.7,3.4-2.1c0.1,0,0.3,0,0.5-0.1c-0.1,0.3-0.2,0.6-0.3,0.9
		C128.2,105.7,127.7,105.9,125.3,104.4z"/>
	<path class="st14" d="M129.3,101.9c0.6-2.5,0.6-2.5,3.6-1.8c-0.1,0.4-0.1,0.8-0.2,1.2c-0.2,0.6,0,1.7-0.9,1.7
		C130.9,103,129.8,103,129.3,101.9z"/>
	<path class="st15" d="M139.5,75.3c-0.1,0-0.2-0.1-0.3-0.1c-2.6-0.8-2.6-0.8-1.9-3.6c0.1,0,0.1,0.1,0.2,0.1c0.1,0,0.3-0.1,0.4,0
		c2.3,0.6,2.5,1,1.5,3.3C139.5,75.1,139.5,75.2,139.5,75.3z"/>
	<path class="st15" d="M142.3,76.2c-2.2-0.1-2.2-0.1-2.9,2.3c-0.1,0.4-0.1,0.9-0.6,1.2c0-1.4,0.6-2.6,0.9-4
		C140.6,75.4,141.4,75.8,142.3,76.2z"/>
	<path class="st12" d="M139.5,75c0.5-2.4,0.5-2.4-1.9-3.3c1-0.3,2.2,0,2.7,0.6C140.6,73.1,140.3,74.3,139.5,75z"/>
	<path class="st4" d="M120.9,70.4c2.8,0.7,5.5,1.5,8.3,2.2c0.9,0.2,1.3,0.6,0.8,1.5c-0.6,1.4-0.4,2.3,1.3,2.4
		c1.1,0.1,1.2,0.6,0.9,1.5c-1.5,5.4-2.9,10.8-4.3,16.2c-0.3,1.1-0.8,1.1-1.6,0.7c-1.4-0.6-2.1-0.3-2.3,1.3c-0.1,0.9-0.5,1.3-1.6,1
		c-2.7-0.8-5.5-1.5-8.2-2.3c-0.2-1.4,0.3-2.7,0.7-3.9c1.9-6.4,3.4-12.9,5.3-19.3C120.4,71.3,120.5,70.8,120.9,70.4z"/>
	<path class="st16" d="M120.9,70.4c-0.5,3.3-1.7,6.5-2.5,9.8c-1.2,4.6-2.4,9.2-3.7,13.8c-0.1,0.3-0.3,0.7-0.4,1
		c-2.9-0.6-2.9-0.6-2.2-3.3c1.7-6.6,3.5-13.1,5.2-19.7c0.7-2.5,0.7-2.5,3.3-1.8C120.7,70.3,120.8,70.4,120.9,70.4z"/>
</g>
</svg>
