<?xml version="1.0" encoding="utf-8"?>
<!-- Generator: Adobe Illustrator 25.2.1, SVG Export Plug-In . SVG Version: 6.00 Build 0)  -->
<svg version="1.1" id="Layer_1" xmlns:v="https://vecta.io/nano"
	 xmlns="http://www.w3.org/2000/svg" xmlns:xlink="http://www.w3.org/1999/xlink" x="0px" y="0px" viewBox="0 0 186 171"
	 style="enable-background:new 0 0 186 171;" xml:space="preserve">
<style type="text/css">
	.st0{fill:#FEC803;}
	.st1{fill:#FFFFFF;}
	.st2{opacity:0.1;fill:none;stroke:#191326;stroke-width:3;enable-background:new    ;}
	.st3{fill:#2D5989;}
	.st4{opacity:0.4;fill:none;stroke:#565656;stroke-width:2.837;enable-background:new    ;}
	.st5{fill:#FEFEFE;}
	.st6{fill:#A7B8C5;}
	.st7{fill:#54595D;}
	.st8{fill:#616C73;}
	.st9{fill:#44494C;}
	.st10{fill:#6E808E;}
</style>
<g>
	<path class="st0" d="M172.4,95c-1-7.8-6.2-14.9-13.3-18.2c-8.6-4-18.7-2.6-27.8-5.3c-11.8-3.5-20.4-13.3-30.9-19.8
		C88,44.1,73.2,41.4,58.8,38.8C49.2,37.1,39.1,35.5,30,39c-12.3,4.9-19.5,20-15.5,32.6c6.8,21.4,37,27.1,46.2,47.6
		c4.8,10.6,3.2,24.1,10.7,32.9c9,10.5,25.5,8.7,38.9,5.5c10.2-2.5,20.3-5.3,30.4-8.2c8.2-2.3,16.8-4.8,22.8-10.8
		c7.5-7.4,4.4-13.1,4.3-21.7C167.9,109.5,173.5,103.3,172.4,95z"/>
</g>
<circle class="st1" cx="70.2" cy="39.8" r="29"/>
<circle class="st2" cx="70.2" cy="39.8" r="27.5"/>
<circle class="st3" cx="119.7" cy="83.3" r="43.5"/>
<circle class="st4" cx="119.7" cy="83.3" r="42.1"/>
<g>
	<polygon class="st5" points="102.1,64.6 102.1,64.6 102.1,64.6 	"/>
	<path class="st5" d="M130.8,82.5c3.7-2.4,5.4-5.5,4.6-9.8c-1.1-5.4-6.5-7.4-11.5-7.9c-1.8-0.2-21.8-0.2-21.8-0.1
		c-0.2,12.5-0.2,24.9,0,37.4c7.7,0,15.4,0,23.1,0c2.1-0.6,4.4-0.7,6.4-1.7c4.8-2.2,7-7.1,5.2-12C135.8,85.5,133.6,83.7,130.8,82.5z
		 M114.8,72.3c2.3,0.2,4.6-0.1,6.9,0.2c2.2,0.4,3.2,1.5,3.2,3.4c0,1.9-1.2,3.1-3.3,3.3c-1.4,0.2-2.9,0.2-4.4,0.2
		c-4.8-0.1-4.7-0.1-4.8-4.8C112.3,72.8,112.8,72.1,114.8,72.3z M126.6,91.3c-0.2,1.6-1.4,2.4-2.8,2.7c-3.4,0.7-6.9,0.2-10.4,0.4
		c-0.9,0-1-0.5-1-1.2c0-1.8,0.1-3.6,0.1-5.4c-0.2-1.1,0.6-0.9,1.2-0.9c2.8,0,5.7,0,8.5,0.1c1.2-0.2,2.2,0.2,3.1,0.9
		C126.6,88.6,126.8,89.9,126.6,91.3z"/>
</g>
<g>
	<path class="st6" d="M58.4,40.1c1.6-2.7,3.3-5.5,4.9-8.2c2.2-3.7,4.4-7.3,6.6-11c0.1-0.1,0.1-0.2,0.2-0.3c0.1,0.2,0.1,0.4,0.1,0.6
		c0,4.4,0,8.8,0,13.2c0,0.4-0.2,0.6-0.5,0.8c-1.5,0.7-2.9,1.3-4.4,2c-1.6,0.7-3.1,1.4-4.7,2.1c-0.6,0.3-1.2,0.5-1.8,0.8
		C58.8,40.2,58.6,40.2,58.4,40.1z"/>
	<path class="st7" d="M70.3,20.6c0.9,1.5,1.9,3.1,2.8,4.6c2.9,4.9,5.8,9.7,8.8,14.6c0,0.1,0.1,0.1,0.1,0.2c-0.1,0.3-0.3,0.1-0.4,0.1
		c-0.5-0.2-1-0.4-1.5-0.7c-3-1.4-6.1-2.8-9.1-4.1c-0.3-0.1-0.7-0.2-0.7-0.6c0-4.5,0-9.1,0-13.6C70.2,20.9,70.2,20.8,70.3,20.6z"/>
	<path class="st8" d="M70.3,20.6c0,0.2,0,0.4,0,0.6c0,4.5,0,9,0,13.6c0.2,0.2,0.2,0.5,0.2,0.8c0,2.7,0,5.5,0,8.2c0,0.9,0,1.8,0,2.7
		c0,0.2,0,0.5-0.2,0.6c-0.1,0.1-0.2,0-0.3-0.1c-3.8-2.2-7.5-4.5-11.3-6.7c-0.1-0.1-0.3,0-0.2-0.3c0.2,0,0.3-0.1,0.4-0.1
		c3.7-1.7,7.3-3.3,11-5c0.2-0.1,0.3-0.2,0.3-0.5c0-4.5,0-9.1,0-13.6c0-0.1,0-0.2,0-0.3C70.3,20.5,70.3,20.6,70.3,20.6z"/>
	<path class="st9" d="M70.3,47.1c0-4.1,0-8.2,0-12.3c1,0.4,2,0.9,3,1.3c2.1,1,4.3,1.9,6.4,2.9c0.6,0.3,1.3,0.6,1.9,0.9
		c0.1,0.1,0.2,0.2,0.4,0.1c0.2,0.3-0.1,0.3-0.2,0.4c-1.4,0.8-2.8,1.7-4.2,2.5c-2.3,1.4-4.6,2.7-6.9,4.1C70.5,47,70.4,47.1,70.3,47.1
		z"/>
	<path class="st7" d="M70.2,49.4c2.8-1.6,5.5-3.3,8.3-4.9c1.1-0.7,2.2-1.3,3.4-2c0,0.2-0.1,0.2-0.1,0.3c-3.8,5.3-7.6,10.7-11.4,16
		c0,0.1-0.1,0.4-0.3,0.1C70,58.5,70,58,70,57.6c0-2.5,0-5,0-7.5C70,49.8,69.9,49.6,70.2,49.4z"/>
	<path class="st10" d="M70.2,49.4c0,3.1,0,6.1,0,9.2c0,0.1,0,0.3-0.1,0.4c-2-2.8-4-5.6-6-8.5c-1.8-2.5-3.5-5-5.3-7.5
		c-0.1-0.1-0.2-0.3-0.3-0.4c0.1-0.1,0.1,0,0.2,0C62.5,44.9,66.3,47.1,70.2,49.4z"/>
</g>
</svg>
