<?xml version="1.0" encoding="utf-8"?>
<!-- Generator: Adobe Illustrator 25.2.3, SVG Export Plug-In . SVG Version: 6.00 Build 0)  -->
<svg version="1.1" id="Layer_1" xmlns:v="https://vecta.io/nano"
	 xmlns="http://www.w3.org/2000/svg" xmlns:xlink="http://www.w3.org/1999/xlink" x="0px" y="0px" viewBox="0 0 186 171"
	 style="enable-background:new 0 0 186 171;" xml:space="preserve">
<style type="text/css">
	.st0{fill:#FEC803;}
	.st1{fill:#F3BA2F;}
	.st2{opacity:0.1;fill:none;stroke:#191326;stroke-width:3;enable-background:new    ;}
	.st3{fill:#FFFFFF;}
	.st4{fill:#2A2A2A;}
	.st5{opacity:0.16;}
	.st6{fill:#D6A700;}
	.st7{fill:#D5A800;}
	.st8{fill:#D5A600;}
	.st9{fill:#FCFCFB;}
	.st10{fill:#D4A800;}
	.st11{fill:#FBFBFA;}
	.st12{fill:#FAFAFA;}
	.st13{fill:#F4F4F4;}
</style>
<g>
	<path class="st0" d="M172.4,95c-1-7.8-6.2-14.9-13.3-18.2c-8.6-4-18.7-2.6-27.8-5.3c-11.8-3.5-20.4-13.3-30.9-19.8
		C88,44.1,73.2,41.4,58.8,38.8C49.2,37.1,39.1,35.5,30,39c-12.3,4.9-19.5,20-15.5,32.6c6.8,21.4,37,27.1,46.2,47.6
		c4.8,10.6,3.2,24.1,10.7,32.9c9,10.5,25.5,8.7,38.9,5.5c10.2-2.5,20.3-5.3,30.4-8.2c8.2-2.3,16.8-4.8,22.8-10.8
		c7.5-7.4,4.4-13.1,4.3-21.7C167.9,109.5,173.5,103.3,172.4,95z"/>
</g>
<circle class="st1" cx="70.2" cy="39.8" r="29"/>
<circle class="st2" cx="70.2" cy="39.8" r="27.5"/>
<g>
	<path class="st3" d="M63.9,37.2l6.3-6.3l6.3,6.3l3.7-3.7l-9.9-9.9l-9.9,9.9L63.9,37.2z M54,39.8l3.7-3.7l3.7,3.7l-3.7,3.7L54,39.8z
		 M63.9,42.4l6.3,6.3l6.3-6.3l3.7,3.7l-10,9.9l-9.9-10l0,0L63.9,42.4z M79.1,39.8l3.7-3.7l3.7,3.7l-3.7,3.7L79.1,39.8z M73.9,39.8
		L73.9,39.8L73.9,39.8l-3.7,3.7l-3.7-3.7l0,0l0,0l0.6-0.7l0.3-0.3l2.7-2.7L73.9,39.8L73.9,39.8z"/>
</g>
<path class="st4" d="M120.4,127.4c24.1,0,43.7-19.5,43.7-43.7S144.6,40,120.4,40S76.8,59.7,76.8,83.8S96.3,127.4,120.4,127.4z"/>
<g class="st5">
	<path d="M120.4,127.4c-11.6,0-22.5-4.5-30.7-12.7c-8.3-8.2-12.9-19.1-12.9-30.8S81.3,61.3,89.5,53s19.2-12.8,30.8-12.9l0,0h0.1
		c11.6,0,22.5,4.5,30.7,12.7C159.4,61,163.9,72,164,83.6s-4.5,22.6-12.7,30.9S132.1,127.3,120.4,127.4
		C120.5,127.4,120.4,127.4,120.4,127.4z M120.3,43.2c-10.8,0-21,4.3-28.7,12S79.8,73.1,79.8,83.9s4.3,21,12,28.7
		c7.7,7.6,17.8,11.8,28.6,11.8h0.1c10.8,0,21-4.3,28.7-12S161,94.6,161,83.8s-4.3-21-12-28.7C141.4,47.4,131.2,43.2,120.3,43.2
		L120.3,43.2L120.3,43.2z"/>
</g>
<g>
	<path class="st6" d="M98.5,92.2c2.6-0.4,4.1-1.4,4.5-3.1c0.6-3,0-4.4-2.6-6c0.1-0.2,0.3-0.4,0.4-0.6c2.2-2.4,1.1-6.3-2.5-6.8
		c-1.7-0.2-3.5-0.2-5.2-0.2c-1.9,0-2.5,0.7-2.6,2.5c0,3.9,0,7.8,0,11.7c0,1.9,0.6,2.5,2.5,2.5C94.9,92.4,96.7,92.4,98.5,92.2z
		 M95.9,78.8c1.2,0.1,2.1,0.4,2.2,1.7c0,1.3-0.9,1.7-2.1,1.8c-1.5,0.1-1.4-0.8-1.3-1.8C94.6,79.5,94.6,78.7,95.9,78.8z M94.6,87
		c-0.2-1.1,0.1-1.9,1.6-1.7c1.3,0.2,2.8,0,2.9,1.9c0.1,1.2-1.2,2-3.1,2C94.7,89.2,94.6,89.2,94.6,87z"/>
	<path class="st7" d="M127.3,92.1c1.6-0.1,1.8-1.2,1.9-2.5c0-2.3,0-4.7,0-7c0-1.7,1-2.8,2.4-2.9c1.8-0.1,2.6,0.5,3,2.4
		c0.1,0.7,0.2,1.4,0.2,2.1c0,1.9-0.1,3.7,0.1,5.6c0.1,1.9,1.8,2.8,3.3,1.9c1-0.6,1.2-1.5,1.1-2.6c-0.1-3.1,0.3-6.3-0.6-9.4
		c-0.8-1-1.4-2.3-2.4-3.2c0,0,0,0,0,0c-4.6-2.7-10-1.1-11.1,4.6c-0.6,2.9-0.3,5.9-0.2,8.9C124.9,91.6,125.9,92.3,127.3,92.1z"/>
	<path class="st8" d="M105.4,90.3c0,0.8,0.4,1.3,0.9,1.8h0c0,0,0,0,0,0c2.2,0,4.4,0,6.6,0.1c1.4,0,2.4-0.3,2.4-2
		c0-1.8-1.1-1.9-2.5-1.9c-0.6,0-1.3,0-1.9,0c-1.1,0.1-1.4-0.3-1.4-1.4c0-2.7,0-5.4,0-8c0-3-1.3-3.8-4-2.4
		C105.2,81,105.4,85.6,105.4,90.3z"/>
	<path class="st9" d="M146.2,91c0.9,1.2,2.4,1.6,3.4,0.7c1-1,0.9-2.2,0.1-3.3c-0.6-0.8-1.1-1.8-1.8-2.5c-1.3-1.3-1.2-2.3-0.1-3.7
		c1.1-1.3,2.4-2.6,2.6-4.3c0.1-1.2-0.4-1.9-1.3-2.3c-1.1-0.5-2,0.1-2.6,0.8c-1.5,2.1-2.9,4.3-4.4,6.5c-0.6,0.9-0.6,1.5,0,2.3
		C143.5,87.2,144.8,89.1,146.2,91z"/>
	<path class="st10" d="M119.8,75.7c-1.3,0-2.1,0.8-2.1,2.2c0,4,0,8,0,12c0,1.4,0.8,2.1,2.2,2.1c1.5,0,2.1-0.8,2.1-2.2c0-2,0-4,0-5.9
		c0,0,0,0,0,0c0-2-0.1-4,0-5.9C122.1,76.5,121.2,75.7,119.8,75.7z"/>
	<path class="st11" d="M116.5,97.8c0.3,0.2,0.6,0.6,1,0.8c3.2,1.9,6.7,2.7,10.4,2.9c2.4,0,4.7-0.5,6.9-1.2c2-0.6,3.9-1.4,5.7-2.5
		c0.7-0.4,1-1,0.6-1.8c-0.4-0.7-1.1-0.6-1.7-0.4c-0.3,0.1-0.6,0.4-0.9,0.5c-6.9,3.4-13.7,4.3-20.5-0.3c-0.7-0.5-1.4-0.6-1.8,0
		C115.6,96.6,115.9,97.3,116.5,97.8z"/>
	<path class="st12" d="M119.8,71.7c1.4,0,2.5-1.2,2.5-2.8c0-1.5-1.1-2.7-2.6-2.7c-1.4,0-2.7,1.3-2.7,2.6
		C117,70.3,118.4,71.8,119.8,71.7z"/>
	<path class="st13" d="M134.7,70.2c0.9,0.6,1.9,1.1,2.8,1.6c0.4,0.2,0.9,0.3,1.2-0.2c0.3-0.5-0.1-0.9-0.5-1.1
		c-0.7-0.5-1.5-0.9-2.4-1.5c0.9-0.5,1.6-1,2.4-1.4c0.5-0.3,0.8-0.6,0.5-1.2c-0.4-0.7-0.7-0.5-1.2-0.2c-0.9,0.5-1.8,0.9-2.7,1.4
		C133.6,68.3,133.6,69.4,134.7,70.2z"/>
</g>
</svg>
