<?xml version="1.0" encoding="utf-8"?>
<!-- Generator: Adobe Illustrator 25.2.3, SVG Export Plug-In . SVG Version: 6.00 Build 0)  -->
<svg version="1.1" id="Layer_1" xmlns:v="https://vecta.io/nano"
	 xmlns="http://www.w3.org/2000/svg" xmlns:xlink="http://www.w3.org/1999/xlink" x="0px" y="0px" viewBox="0 0 186 171"
	 style="enable-background:new 0 0 186 171;" xml:space="preserve">
<style type="text/css">
	.st0{fill:#FEC803;}
	.st1{display:none;fill:#373737;}
	.st2{display:none;}
	.st3{display:inline;fill:#FEC803;}
	.st4{fill:#F7931A;}
	.st5{fill:#FFFFFF;}
	.st6{opacity:0.16;}
</style>
<g>
	<path class="st0" d="M172.4,95c-1-7.8-6.2-14.9-13.3-18.2c-8.6-4-18.7-2.6-27.8-5.3c-11.8-3.5-20.4-13.3-30.9-19.8
		C88,44.1,73.2,41.4,58.8,38.8C49.2,37.1,39.1,35.5,30,39c-12.3,4.9-19.5,20-15.5,32.6c6.8,21.4,37,27.1,46.2,47.6
		c4.8,10.6,3.2,24.1,10.7,32.9c9,10.5,25.5,8.7,38.9,5.5c10.2-2.5,20.3-5.3,30.4-8.2c8.2-2.3,16.8-4.8,22.8-10.8
		c7.5-7.4,4.4-13.1,4.3-21.7C167.9,109.5,173.5,103.3,172.4,95z"/>
</g>
<circle class="st1" cx="93" cy="83.3" r="43.5"/>
<g class="st2">
	<path class="st3" d="M79.7,74.2c-6.3-0.1-12.7,0-19.1,0c-0.9,0-1.2,0.4-1.1,1.2c0.1,2.4,1.9,4.4,4.3,5h13.4v0.8H66
		c0,0.1,0.1,0.1,0.1,0.2c0.6,2.8,2.2,4.5,4.7,5.3h6.4v0.8h-4.6c0,0,0,0.1,0.1,0.1c0.8,2.9,3.1,4.6,6.2,4.7c5.4,0.2,9.9-3.6,10-8.9
		C89.2,78.7,84.9,74.3,79.7,74.2z"/>
	<path class="st3" d="M125.5,74.2c-6.3,0-12.7-0.1-19.1,0c-5.3,0.1-9.6,4.4-9.3,9.3c0.3,5.3,4.7,9.1,10,8.9c3.1-0.1,5.4-1.8,6.2-4.7
		c0,0,0-0.1,0.1-0.1h-4.6v-0.8h6.5c2.5-0.8,4-2.5,4.7-5.3c0-0.1,0.1-0.1,0.1-0.2H109v-0.8h13.3c2.5-0.7,4.2-2.8,4.3-5
		C126.6,74.6,126.3,74.2,125.5,74.2z"/>
</g>
<path class="st4" d="M135.3,93.6c-5.8,23.4-29.5,37.6-52.8,31.7S44.9,95.9,50.7,72.5S80.2,35,103.5,40.8S141.1,70.3,135.3,93.6
	L135.3,93.6z"/>
<path class="st5" d="M112.2,76.9c0.9-5.8-3.6-8.9-9.6-11l2-7.9l-4.8-1.2l-1.9,7.7c-1.3-0.3-2.5-0.6-3.8-0.9l1.9-7.7l-4.8-1.2l-2,7.9
	l-9.6-2.4l-1.3,5.1c0,0,3.5,0.8,3.5,0.9c1.9,0.5,2.3,1.8,2.2,2.8l-5.4,21.5c-0.2,0.6-0.8,1.5-2.2,1.1c0,0.1-3.5-0.9-3.5-0.9
	l-2.4,5.5l9.6,2.4l-2,8l4.8,1.2l2-7.9c1.3,0.4,2.6,0.7,3.8,1l-2,7.8l4.8,1.2l2-7.9c8.2,1.5,14.3,0.9,16.9-6.5
	c2.1-5.9-0.1-9.4-4.4-11.6C109.2,83.2,111.6,81.1,112.2,76.9 M101.3,92.2c-1.5,5.9-11.5,2.7-14.7,1.9l2.6-10.5
	C92.4,84.4,102.8,86,101.3,92.2 M102.8,76.8c-1.3,5.4-9.7,2.7-12.4,2l2.4-9.6C95.5,69.9,104.2,71.2,102.8,76.8"/>
<g class="st6">
	<path d="M93,126.9c-11.6,0-22.5-4.5-30.7-12.7C54,106,49.4,95.1,49.4,83.4s4.5-22.6,12.7-30.9c8.2-8.3,19.2-12.8,30.8-12.9l0,0
		c0,0,0.1,0,0.1,0c11.6,0,22.5,4.5,30.7,12.7c8.3,8.2,12.8,19.2,12.9,30.8s-4.5,22.6-12.7,30.9s-19.2,12.8-30.8,12.9
		C93.1,126.9,93,126.9,93,126.9z M92.9,42.7c-10.8,0-21,4.3-28.7,12S52.4,72.6,52.4,83.4c0,10.8,4.3,21,12,28.7
		c7.7,7.6,17.8,11.8,28.6,11.8c0,0,0.1,0,0.1,0c10.8,0,21-4.3,28.7-12s11.8-17.9,11.8-28.7c0-10.8-4.3-21-12-28.7
		C114,46.9,103.8,42.7,93,42.7C93,42.7,92.9,42.7,92.9,42.7L92.9,42.7z"/>
</g>
</svg>
