<?xml version="1.0" encoding="utf-8"?>
<!-- Generator: Adobe Illustrator 25.2.1, SVG Export Plug-In . SVG Version: 6.00 Build 0)  -->
<svg version="1.1" id="Layer_1" xmlns:v="https://vecta.io/nano"
	 xmlns="http://www.w3.org/2000/svg" xmlns:xlink="http://www.w3.org/1999/xlink" x="0px" y="0px" viewBox="0 0 186 171"
	 style="enable-background:new 0 0 186 171;" xml:space="preserve">
<style type="text/css">
	.st0{fill:#FEC803;}
	.st1{fill:#2775CA;}
	.st2{opacity:0.1;fill:none;stroke:#191326;stroke-width:3;enable-background:new    ;}
	.st3{fill:#F0B90B;}
	.st4{opacity:0.4;fill:none;stroke:#565656;stroke-width:2.837;enable-background:new    ;}
	.st5{fill:#FFFFFF;}
</style>
<g>
	<path class="st0" d="M172.4,95c-1-7.8-6.2-14.9-13.3-18.2c-8.6-4-18.7-2.6-27.8-5.3c-11.8-3.5-20.4-13.3-30.9-19.8
		C88,44.1,73.2,41.4,58.8,38.8C49.2,37.1,39.1,35.5,30,39c-12.3,4.9-19.5,20-15.5,32.6c6.8,21.4,37,27.1,46.2,47.6
		c4.8,10.6,3.2,24.1,10.7,32.9c9,10.5,25.5,8.7,38.9,5.5c10.2-2.5,20.3-5.3,30.4-8.2c8.2-2.3,16.8-4.8,22.8-10.8
		c7.5-7.4,4.4-13.1,4.3-21.7C167.9,109.5,173.5,103.3,172.4,95z"/>
</g>
<circle class="st1" cx="70.2" cy="39.8" r="29"/>
<circle class="st2" cx="70.2" cy="39.8" r="27.5"/>
<circle class="st3" cx="119.7" cy="83.3" r="43.5"/>
<circle class="st4" cx="119.7" cy="83.3" r="42.1"/>
<g id="Layer_2_1_">
	<g id="Layer_1-2_2_">
		<path class="st5" d="M119.5,53.1l7.4,7.6l-18.7,18.7l-7.4-7.4L119.5,53.1z"/>
		<path class="st5" d="M130.8,64.4l7.4,7.6l-30,30l-7.4-7.4L130.8,64.4z"/>
		<path class="st5" d="M97,75.7l7.4,7.6L97,90.7l-7.4-7.4L97,75.7z"/>
		<path class="st5" d="M142.1,75.7l7.4,7.6l-30,30l-7.4-7.4L142.1,75.7z"/>
	</g>
</g>
<g>
	<path class="st5" d="M77.1,43c0-3.2-1.9-4.3-5.8-4.8c-2.8-0.4-3.3-1.1-3.3-2.4c0-1.3,0.9-2.1,2.8-2.1c1.7,0,2.6,0.6,3,1.9
		c0.1,0.3,0.4,0.5,0.6,0.5h1.5c0.4,0,0.6-0.3,0.6-0.6v-0.1c-0.4-2-2-3.6-4.1-3.8v-2.2c0-0.4-0.3-0.6-0.7-0.7h-1.4
		c-0.4,0-0.6,0.3-0.7,0.7v2.1C66.8,31.9,65,33.7,65,36c0,3,1.8,4.2,5.7,4.7c2.6,0.5,3.4,1,3.4,2.5c0,1.5-1.3,2.5-3,2.5
		c-2.4,0-3.2-1-3.5-2.4c-0.1-0.4-0.4-0.6-0.6-0.6h-1.6c-0.4,0-0.6,0.3-0.6,0.6v0.1c0.4,2.3,1.8,3.9,4.9,4.4v2.2
		c0,0.4,0.3,0.6,0.7,0.7h1.4c0.4,0,0.6-0.3,0.7-0.7v-2.2C75.2,47.4,77.1,45.5,77.1,43L77.1,43z"/>
	<path class="st5" d="M66.3,52.6c-7.2-2.6-10.8-10.6-8.2-17.6c1.4-3.9,4.4-6.8,8.2-8.2c0.4-0.2,0.6-0.5,0.6-0.9v-1.3
		c0-0.4-0.2-0.6-0.6-0.7c-0.1,0-0.3,0-0.4,0.1c-8.7,2.8-13.5,12-10.7,20.7c1.7,5.1,5.6,9.1,10.7,10.7c0.4,0.2,0.7,0,0.8-0.4
		c0.1-0.1,0.1-0.2,0.1-0.4v-1.3C66.9,53.2,66.6,52.8,66.3,52.6z M76.1,24c-0.4-0.2-0.7,0-0.8,0.4c-0.1,0.1-0.1,0.2-0.1,0.4V26
		c0,0.4,0.3,0.7,0.6,0.9c7.2,2.6,10.8,10.6,8.2,17.6c-1.4,3.9-4.4,6.8-8.2,8.2c-0.4,0.2-0.6,0.5-0.6,0.9v1.3c0,0.4,0.2,0.6,0.6,0.7
		c0.1,0,0.3,0,0.4-0.1c8.7-2.8,13.5-12,10.7-20.7C85.1,29.6,81.1,25.7,76.1,24L76.1,24z"/>
</g>
</svg>
