<?xml version="1.0" encoding="utf-8"?>
<!-- Generator: Adobe Illustrator 25.2.3, SVG Export Plug-In . SVG Version: 6.00 Build 0)  -->
<svg version="1.1" id="Layer_1" xmlns:v="https://vecta.io/nano"
	 xmlns="http://www.w3.org/2000/svg" xmlns:xlink="http://www.w3.org/1999/xlink" x="0px" y="0px" viewBox="0 0 186 171"
	 style="enable-background:new 0 0 186 171;" xml:space="preserve">
<style type="text/css">
	.st0{fill:#FEC803;}
	.st1{display:none;fill:#373737;}
	.st2{display:none;}
	.st3{display:inline;fill:#FEC803;}
	.st4{fill:#00DBDF;}
	.st5{opacity:0.16;}
	.st6{fill:#682C00;}
	.st7{fill:#606063;}
	.st8{fill:#DC8542;}
	.st9{fill:#F4F2F2;}
	.st10{fill:#943B00;}
	.st11{fill:#DC8442;}
	.st12{fill:#FEDB83;}
	.st13{fill:#F8B700;}
	.st14{fill:#A47100;}
	.st15{fill:#BDBDBD;}
	.st16{fill:#A57100;}
</style>
<g>
	<path class="st0" d="M172.4,95c-1-7.8-6.2-14.9-13.3-18.2c-8.6-4-18.7-2.6-27.8-5.3c-11.8-3.5-20.4-13.3-30.9-19.8
		C88,44.1,73.2,41.4,58.8,38.8C49.2,37.1,39.1,35.5,30,39c-12.3,4.9-19.5,20-15.5,32.6c6.8,21.4,37,27.1,46.2,47.6
		c4.8,10.6,3.2,24.1,10.7,32.9c9,10.5,25.5,8.7,38.9,5.5c10.2-2.5,20.3-5.3,30.4-8.2c8.2-2.3,16.8-4.8,22.8-10.8
		c7.5-7.4,4.4-13.1,4.3-21.7C167.9,109.5,173.5,103.3,172.4,95z"/>
</g>
<circle class="st1" cx="93" cy="83.3" r="43.5"/>
<g class="st2">
	<path class="st3" d="M79.7,74.2c-6.3-0.1-12.7,0-19.1,0c-0.9,0-1.2,0.4-1.1,1.2c0.1,2.4,1.9,4.4,4.3,5h13.4v0.8H66
		c0,0.1,0.1,0.1,0.1,0.2c0.6,2.8,2.2,4.5,4.7,5.3h6.4v0.8h-4.6c0,0,0,0.1,0.1,0.1c0.8,2.9,3.1,4.6,6.2,4.7c5.4,0.2,9.9-3.6,10-8.9
		C89.2,78.7,84.9,74.3,79.7,74.2z"/>
	<path class="st3" d="M125.5,74.2c-6.3,0-12.7-0.1-19.1,0c-5.3,0.1-9.6,4.4-9.3,9.3c0.3,5.3,4.7,9.1,10,8.9c3.1-0.1,5.4-1.8,6.2-4.7
		c0,0,0-0.1,0.1-0.1h-4.6v-0.8h6.5c2.5-0.8,4-2.5,4.7-5.3c0-0.1,0.1-0.1,0.1-0.2H109v-0.8h13.3c2.5-0.7,4.2-2.8,4.3-5
		C126.6,74.6,126.3,74.2,125.5,74.2z"/>
</g>
<path class="st4" d="M92.9,129.2c24.1,0,43.7-19.5,43.7-43.7s-19.5-43.7-43.7-43.7S49.3,61.5,49.3,85.6S68.8,129.2,92.9,129.2z"/>
<g class="st5">
	<path d="M92.9,129.2c-11.6,0-22.5-4.5-30.7-12.7c-8.3-8.2-12.9-19.1-12.9-30.8S53.8,63.1,62,54.8S81.2,42,92.8,41.9l0,0h0.1
		c11.6,0,22.5,4.5,30.7,12.7c8.3,8.2,12.8,19.2,12.9,30.8c0.1,11.6-4.5,22.6-12.7,30.9S104.6,129.1,92.9,129.2
		C93,129.2,92.9,129.2,92.9,129.2z M92.8,45c-10.8,0-21,4.3-28.7,12S52.3,74.9,52.3,85.7s4.3,21,12,28.7
		c7.7,7.6,17.8,11.8,28.6,11.8H93c10.8,0,21-4.3,28.7-12s11.8-17.8,11.8-28.6c0-10.8-4.3-21-12-28.7C113.9,49.2,103.7,45,92.8,45
		L92.8,45L92.8,45z"/>
</g>
<g>
	<path class="st6" d="M70.6,74c0,0.9,0,1.9,0,2.8c-0.1,1.3,0.1,2.5,0.6,3.7c0.1,0.2,0.1,0.4,0.1,0.6c0,0.1-0.1,0.2-0.1,0.2
		c0.3,0.3,0.3,0.6,0.1,1c-0.5,0.9-0.7,1.8-0.9,2.8l0,0l0,0c-0.1,1.9-0.2,3.8,0.1,5.7c0.6,3.3,2.6,5.6,5.2,7.4
		c3.5,2.5,7.5,3.6,11.7,4c4.9,0.5,9.6,0,14.2-1.9c3.2-1.3,6-3.1,7.9-6.2c0.6-1,1.3-1.8,2.2-2.4c2.1-1.5,3.6-3.5,4.4-5.9
		c0.3-0.9,0.3-1.7,0.4-2.6c-0.1-0.1-0.1-0.2-0.2-0.2c0-0.1,0-0.2,0-0.2c0.1-1,0-1.9-0.2-2.9c-0.1-2.3-1.1-4.2-2.6-5.9
		c-0.3-0.3-0.7-0.5-0.6-1c-0.3,0.1-0.5-0.1-0.7-0.3c-0.6-0.5-1.1-0.9-1.7-1.3c-0.3-0.2-0.6-0.5-0.8-0.9c-1.5-3.1-4.1-5-7.1-6.4
		c-2.7-1.3-5.5-2-8.4-2.4c-3.9-0.4-7.8-0.2-11.7,0.9c-2.8,0.8-5.3,1.9-7.6,3.7c-1.8,1.5-3.2,3.3-3.9,5.5c-0.1,0.3-0.1,0.7-0.5,0.9
		c0,0,0,0,0.1,0C70.7,73.2,70.6,73.6,70.6,74z M110.9,76.8c0-0.9,0-1.9,0-3c2.5,2.1,3.8,4.6,3.5,7.8l0,0l0,0c0.4,4.6-2,7.5-5.6,9.7
		c-4,2.3-8.4,3.1-13,3.1c-3.9,0-7.6-0.8-11.1-2.4c-0.3-0.1-0.7-0.2-0.8-0.5c0-0.5,0.1-1.1,0.2-1.6c0-0.2,0.3-0.1,0.4,0
		c1.1,0.1,2.1,0.3,3.2,0.5c3.8,0.3,7.6,0,11.3-1c3.4-1,6.6-2.5,9.1-5.2C109.9,82,110.9,79.7,110.9,76.8z M82.2,85.7c0,1.5,0,3,0,4.5
		c0,1.1-0.7,1.7-1.7,1.7s-1.7-0.6-1.7-1.7c0-2.2,0-4.4,0-6.6c0-0.9,0.6-1.5,0.9-2.2c0.1-0.2,0.2-0.4,0.3-0.6
		c0.3-0.4,0.2-0.6-0.2-0.9c-1.1-0.7-2.2-1.5-2.8-2.8c-0.8-1.7-0.6-3.3,0.5-4.8c0.2-0.2,0.3-0.4,0.7-0.5c0.1,3,2,4.6,4.6,5.4
		c2.4,0.7,4.8,0.6,7-0.6c1.9-1,3.1-2.5,3-4.8c-0.1-0.7,0.1-1.5-0.2-2.2c-0.1-0.3,0-0.5,0.3-0.4c2.2,0.8,5.2,2.4,5.7,5.5
		c0.1,1-0.1,2-0.7,2.9c-1.4,2.2-3.6,3.2-6,3.9s-4.9,0.7-7.3,0.3c-0.4-0.1-0.7,0-0.9,0.4c-0.3,0.6-0.6,1.1-1,1.6S82.2,85,82.2,85.7z
		 M81.3,68.5c2.2-1.7,6.2-1.7,8.4,0c1,0.8,1.5,1.7,1.3,3l0,0l0,0c0.3,1.9-0.8,3-2.2,3.6c-2.1,0.9-4.2,1-6.3,0.1c-2-0.8-2.7-2-2.5-4
		C79.9,70,80.4,69.1,81.3,68.5z M76.5,67.2c2.7-2,5.9-3.1,9.2-3.6c4.9-0.8,9.7-0.5,14.4,1.3c3,1.1,5.7,2.7,7.5,5.5
		c1.1,1.6,1.3,3.4,1.3,5.2c0,0.6,0.1,1.2-0.1,1.8l0,0l0,0c-0.1,3-1.7,5.1-4,6.8c-2.6,2-5.6,3.1-8.8,3.7c-3.8,0.7-7.7,0.7-11.5-0.1
		c-0.5-0.1-0.6-0.3-0.6-0.7c0.1-0.7-0.2-1.5,0.1-2.2c1-1.7,0.3-1.4,2.5-1.3c3.7,0.1,7.3-0.5,10.4-2.7c1.6-1.1,2.9-2.6,3.2-4.6
		c0.5-2.7-0.6-4.8-2.7-6.5c-1.9-1.6-4.2-2.4-6.6-2.9c-0.4-0.1-0.7-0.2-1.1-0.4c-2.9-1.4-5.8-1.4-8.7,0c-1,0.5-1.7,1.2-2.3,2.1
		c-0.2,0.3-0.4,0.4-0.6,0.6c-1.1,0.8-2,1.7-2.6,2.8c-1.3,2.4-1,5.3,0.9,7.4c0.1,0.2,0.3,0.3,0.5,0.5c1,1,1,1,0.2,2.3l0,0l0,0
		c-0.3,0.8-0.1,1.6-0.2,2.5c-2.4-1.6-4.2-3.6-4.7-6.5C71.9,73.4,72.1,70.5,76.5,67.2z M72.6,84.3c0.1-0.4,0.3-0.5,0.6-0.2
		c0.9,1,2,1.8,3,2.5c0.6,0.4,0.8,1,0.9,1.7c0,0.6,0,1.2,0,1.8c0,2.6,2.5,4.3,4.9,3.2c0.4-0.2,0.7-0.1,1.1,0.1
		c3.1,1.7,6.5,2.5,10.1,2.9c1.9,0.2,3.8,0.2,5.6,0c2.6-0.3,5.1-0.8,7.6-1.6c-0.5,0.7-1.1,1.2-1.8,1.7c-2.8,2-5.9,3.1-9.3,3.6
		c-5.2,0.8-10.4,0.4-15.3-1.7c-2.4-1-4.5-2.4-6.1-4.5c-0.9-1.1-1.5-2.4-1.6-3.8c0-0.1,0-0.2,0-0.3C72.1,88,72.1,86.1,72.6,84.3z"/>
	<path class="st6" d="M71.2,81.3c0-0.1,0.1-0.2,0.1-0.2c0.1-0.2,0-0.4-0.1-0.6c-0.5-1.2-0.6-2.5-0.6-3.7c0-0.9,0-1.9,0-2.8
		c0-0.4,0-0.8-0.1-1.2c0,0,0,0-0.1,0h-0.1c0,2.8-0.4,5.6,0.7,8.4C71.1,81.2,71.1,81.2,71.2,81.3z"/>
	<path class="st6" d="M113.4,74c1.5,1.7,2.5,3.6,2.6,5.9c0.2,0.9,0.3,1.9,0.2,2.9c0,0.1,0,0.2,0,0.2c0.1,0.1,0.1,0.2,0.2,0.2
		c0-0.1,0-0.2,0-0.3l0,0c0,0,0-0.1-0.1-0.1c-0.3-1-0.1-2-0.1-3.1c0-0.3-0.1-0.7-0.1-1c-0.4-2.3-1.7-4.1-3.3-5.8h-0.1
		C112.7,73.5,113.1,73.7,113.4,74z"/>
	<path class="st6" d="M70.9,71.9c0.7-2.3,2.1-4.1,3.9-5.5c2.3-1.8,4.8-2.9,7.6-3.7c3.9-1.1,7.7-1.3,11.7-0.9
		c2.9,0.3,5.8,1.1,8.4,2.4c3,1.4,5.6,3.4,7.1,6.4c0.2,0.4,0.4,0.7,0.8,0.9c0.6,0.4,1.2,0.9,1.7,1.3c0.2,0.2,0.4,0.4,0.7,0.3V73l0,0
		c-0.8-0.7-1.6-1.4-2.5-1.9c-0.2-0.1-0.3-0.3-0.3-0.4c-1.1-2.4-3-4.2-5.3-5.6c-4-2.5-8.5-3.5-13.1-3.7c-3.4-0.1-6.7,0.3-9.9,1.2
		c-2.8,0.8-5.4,2.1-7.6,4c-1.9,1.7-3.3,3.7-3.8,6.3c0,0,0.1,0,0.1,0.1C70.8,72.6,70.8,72.2,70.9,71.9z"/>
	<path class="st6" d="M112.8,73h0.1l0,0c0,0,0,0-0.1-0.1C112.8,72.9,112.8,72.9,112.8,73C112.8,72.9,112.8,73,112.8,73z"/>
	<path class="st6" d="M70.4,72.8C70.4,72.7,70.4,72.7,70.4,72.8C70.3,72.8,70.3,72.8,70.4,72.8C70.4,72.8,70.4,72.8,70.4,72.8z"/>
	<path class="st7" d="M116.3,85.9c0,0.1-0.1,0.2-0.1,0.3c0.8,1.3,1.1,2.8,1.1,4.4c0,0.5,0,1,0,1.5l0,0c0.3,3.4-1,6.1-3.3,8.4
		c-2.9,2.9-6.5,4.7-10.4,5.8c-8.1,2.3-16.2,2.1-24.1-1c-3.4-1.3-6.5-3.2-8.8-6.2c-1.6-2.1-2.4-4.4-2.2-7.1c-0.2-2.2,0.1-4.4,1.3-6.3
		c0.1-0.1,0.1-0.3,0.2-0.4v-0.1c0-0.8,0.2-1.6,0.6-2.4c0.2-0.4,0.3-0.8,0.4-1.3c-0.1,0.2-0.3,0.4-0.5,0.6c-2.4,2.5-3.7,5.5-3.7,9
		c0,1.9,0,3.8,0.7,5.6c0.9,2.2,2.2,4.1,4,5.7c4.2,3.7,9.3,5.5,14.7,6.5c2.6,0.4,5.1,0.7,7.7,0.6c4.9-0.2,9.7-1.1,14.2-3.1
		c2.5-1.1,4.7-2.5,6.7-4.3c2.7-2.6,4.3-5.6,4.3-9.5c0-1.7,0-3.3-0.4-4.9c-0.4-1.5-1.2-2.8-2-4.1C116.7,84.3,116.5,85.1,116.3,85.9z"
		/>
	<path class="st7" d="M118.6,87.6c0.5,1.6,0.4,3.3,0.4,4.9c0.1,3.8-1.6,6.9-4.3,9.5c-1.9,1.9-4.2,3.3-6.7,4.3
		c-4.5,2-9.3,2.9-14.2,3.1c-2.6,0.1-5.2-0.1-7.7-0.6c-5.4-0.9-10.5-2.7-14.7-6.5c-1.8-1.6-3.1-3.5-4-5.7c-0.7-1.8-0.7-3.7-0.7-5.6
		c0-3.5,1.3-6.5,3.7-9c0.2-0.2,0.3-0.4,0.5-0.6c0-0.1,0-0.2,0-0.4c-1.4,1.1-2.3,2.5-3.2,4c-1.3,2.3-1.4,4.7-1.4,7.3
		c0,4.1,1.6,7.3,4.5,10c3,2.8,6.7,4.6,10.6,5.8c5.2,1.5,10.5,1.9,15.9,1.4c4.9-0.5,9.5-1.8,13.7-4.4c3.1-1.8,5.6-4.2,7.1-7.5
		c1.4-3,1.3-6.2,0.8-9.4c-0.3-2.1-1.2-3.9-2.7-5.4l0,0c0.1,0.2,0.1,0.4,0.2,0.6C117.5,84.8,118.2,86.2,118.6,87.6z"/>
	<path class="st7" d="M70,85.2v0.1c0.1-0.1,0.1-0.2,0.3-0.2l0,0c0.2-1,0.4-1.9,0.9-2.8c0.2-0.4,0.2-0.7-0.1-1c0,0.1-0.1,0.2-0.2,0.2
		c-0.1,0.5-0.2,0.9-0.4,1.3C70.3,83.6,70.1,84.4,70,85.2z"/>
	<path class="st7" d="M116.2,86.2c0-0.1,0.1-0.2,0.1-0.3c0.2-0.8,0.4-1.6,0.3-2.3c-0.1-0.1-0.1-0.2-0.2-0.3
		c-0.1,0.9-0.1,1.8-0.4,2.6C116.1,85.9,116.1,86.1,116.2,86.2z"/>
	<path class="st7" d="M116.6,83.5c0-0.2-0.1-0.4-0.2-0.6c0,0.1,0,0.2,0,0.3C116.5,83.3,116.5,83.4,116.6,83.5z"/>
	<path class="st7" d="M71.2,81.3l-0.1-0.1c0,0.1,0,0.2,0,0.4C71.1,81.5,71.1,81.4,71.2,81.3z"/>
	<path class="st7" d="M116.4,82.8c0-1,0.1-2-0.1-3.1l0,0l0,0C116.4,80.7,116.3,81.8,116.4,82.8z"/>
	<path class="st7" d="M116.4,82.8c-0.1-1,0-2-0.1-3.1l0,0C116.3,80.8,116.1,81.8,116.4,82.8z"/>
	<path class="st8" d="M72.3,76.3c0.4,0.7,0.7,1.5,1.2,2.2c0.8,1.3,1.9,2.3,3.2,3.2c0.2,0.2,0.5,0.3,0.6,0.5l0,0
		c0.8-1.3,0.8-1.3-0.2-2.3c-0.2-0.2-0.3-0.3-0.5-0.5c-1.9-2.1-2.3-5-0.9-7.4c0.6-1.2,1.6-2.1,2.6-2.8c0.2-0.2,0.4-0.4,0.6-0.6
		c0.6-0.9,1.3-1.6,2.3-2.1c2.9-1.4,5.8-1.4,8.7,0c0.4,0.2,0.7,0.3,1.1,0.4c2.4,0.4,4.7,1.3,6.6,2.9c2,1.7,3.2,3.8,2.7,6.5
		c-0.4,2-1.6,3.5-3.2,4.6c-3.1,2.2-6.6,2.8-10.4,2.7c-2.2-0.1-1.6-0.4-2.5,1.3c6.3,1.3,12.3,0.9,18.1-1.9c2.5-1.2,4.6-2.9,5.9-5.5
		c0.1-0.1,0.1-0.3,0.2-0.4c0.1-0.3,0.2-0.7,0.4-1.2c0,0.6,0.1,1.1,0.1,1.5l0,0c0.2-0.6,0.1-1.2,0.1-1.8c0-1.8-0.2-3.6-1.3-5.2
		c-1.8-2.8-4.5-4.4-7.5-5.5c-4.7-1.8-9.5-2-14.4-1.3c-3.3,0.5-6.5,1.6-9.2,3.6c-4.4,3.3-4.6,6.2-4.2,11
		C72.3,77.6,72.3,76.9,72.3,76.3z"/>
	<path class="st9" d="M68.9,92c-0.1,0.4-0.1,0.8-0.1,1.1c0.8,2.5,2.3,4.5,4.3,6.2c2.7,2.2,5.8,3.7,9.2,4.6c3.9,1.1,7.9,1.6,12,1.4
		c5.8-0.2,11.3-1.5,16.3-4.6c2.7-1.7,5-3.9,6.2-7c0.1-0.3,0.2-0.6,0.3-1c0-0.3-0.1-0.6-0.1-0.9c0.2-1.7,0.1-3.4-0.7-5
		c-0.1-0.2-0.1-0.3-0.1-0.5c-0.3,0.8-0.6,1.5-1.1,2.2c-1,1.4-2.2,2.7-3.7,3.7c-0.6,0.4-1,0.9-1.4,1.5c-1.4,2.5-3.5,4.4-6,5.7
		c-3.4,1.9-7.1,2.7-10.9,3.1c-3.1,0.3-6.2,0-9.3-0.6c-3.5-0.8-6.7-2.1-9.5-4.4c-2.1-1.7-3.7-3.8-4.2-6.6c-0.3-1.7-0.1-3.4-0.1-5.1
		v-0.1C69.2,87.8,68.6,89.8,68.9,92z"/>
	<path class="st9" d="M70,85.9c-0.1,1.7-0.2,3.4,0.1,5.1c0.5,2.8,2.1,4.9,4.2,6.6c2.8,2.3,6,3.6,9.5,4.4c3,0.7,6.1,0.9,9.3,0.6
		c3.9-0.3,7.5-1.2,10.9-3.1c2.5-1.4,4.6-3.2,6-5.7c0.3-0.6,0.8-1.1,1.4-1.5c1.4-1,2.7-2.2,3.7-3.7c0.5-0.7,0.8-1.5,1.1-2.2
		c0-0.2,0-0.4-0.1-0.6c-0.8,2.5-2.4,4.4-4.4,5.9c-0.9,0.7-1.6,1.5-2.2,2.4c-1.8,3-4.7,4.9-7.9,6.2c-4.6,1.9-9.3,2.4-14.2,1.9
		c-4.2-0.4-8.2-1.6-11.7-4c-2.6-1.8-4.6-4.1-5.2-7.4c-0.3-1.9-0.1-3.8-0.1-5.7l0,0c-0.1,0.2-0.2,0.5-0.3,0.7
		C70,85.8,70,85.9,70,85.9z"/>
	<path class="st9" d="M68.9,92c-0.3-2.2,0.3-4.2,1.1-6.2c0-0.2,0-0.3,0-0.5c-0.1,0.1-0.1,0.3-0.2,0.4c-1.2,2-1.5,4.1-1.3,6.3
		c0.1,0.4,0.2,0.8,0.3,1.1C68.8,92.8,68.9,92.4,68.9,92z"/>
	<path class="st9" d="M116.2,87c0.8,1.6,0.8,3.3,0.7,5c0,0.3,0.1,0.6,0.1,0.9c0.1-0.3,0.2-0.6,0.2-0.8l0,0l0,0c0-0.5,0.1-1,0-1.5
		c0-1.5-0.3-3-1.1-4.4c0,0.1-0.1,0.2-0.1,0.3C116.1,86.7,116.2,86.8,116.2,87z"/>
	<path class="st9" d="M70,85.3c0,0.2,0,0.3,0,0.5c0.1-0.2,0.2-0.5,0.3-0.7C70.2,85.1,70.1,85.2,70,85.3z"/>
	<path class="st9" d="M116.2,86.2c-0.1-0.1-0.1-0.2-0.2-0.3c0.1,0.2,0.1,0.4,0.1,0.6C116.1,86.4,116.2,86.3,116.2,86.2z"/>
	<path class="st10" d="M83.7,82c0.2-0.4,0.4-0.5,0.9-0.4c2.5,0.4,4.9,0.4,7.3-0.3c2.4-0.7,4.6-1.7,6-3.9c0.6-0.9,0.8-1.8,0.7-2.9
		c-0.4-3.1-3.4-4.6-5.7-5.5c-0.4-0.1-0.5,0-0.3,0.4c0.3,0.7,0.1,1.5,0.2,2.2c0.2,2.3-1.1,3.8-3,4.8c-2.2,1.2-4.6,1.4-7,0.6
		c-2.6-0.8-4.5-2.3-4.6-5.4c-0.4,0.1-0.5,0.3-0.7,0.5c-1.1,1.5-1.2,3.1-0.5,4.8c0.6,1.3,1.7,2.1,2.8,2.8c0.4,0.3,0.5,0.5,0.2,0.9
		c-0.1,0.2-0.3,0.4-0.3,0.6c-0.3,0.7-1,1.3-0.9,2.2c0,2.2,0,4.4,0,6.6c0,1.1,0.7,1.7,1.7,1.7s1.7-0.6,1.7-1.7c0-1.5,0-3,0-4.5
		c0-0.8,0.1-1.4,0.5-2.1C83.1,83.1,83.4,82.6,83.7,82z"/>
	<path class="st11" d="M98.9,89.3c-3.7,1.1-7.4,1.4-11.3,1c1.7,0.6,3.5,0.9,5.3,1.1c4.1,0.4,8.2,0.1,12.1-1.3
		c3.1-1.1,5.8-2.6,7.8-5.3c0.7-1,1.1-2.1,1.5-3.2l0,0c0.3-3.2-1-5.7-3.5-7.8c0,1.1,0,2.1,0,3c0.1,2.8-1,5.2-2.9,7.2
		C105.5,86.7,102.3,88.3,98.9,89.3z"/>
	<path class="st12" d="M81.5,96.1c-3-1-5.7-2.5-7.6-5.1c-0.6-0.8-1.1-1.8-1.5-2.9c-0.2,0.8,0,1.4-0.1,2c0-0.1,0-0.2,0-0.3
		c0,0.1,0,0.2,0,0.3c0.1,1.4,0.7,2.7,1.6,3.8c1.6,2.1,3.7,3.4,6.1,4.5c4.9,2.1,10.1,2.5,15.3,1.7c3.3-0.5,6.5-1.6,9.3-3.6
		c0.7-0.5,1.3-1,1.8-1.7c-2.5,0.8-5,1.3-7.6,1.6c-1.7,0.7-3.5,0.9-5.3,1.1C89.4,97.9,85.4,97.5,81.5,96.1z"/>
	<path class="st12" d="M109.6,88.3c-3.4,2.2-7.2,3.2-11.3,3.5c-3,0.2-5.9,0-8.9-0.6c-0.4-0.1-0.9-0.2-1.3-0.4
		c-0.3-0.1-0.6-0.1-0.6-0.5c-1.1-0.2-2.1-0.3-3.2-0.5c-0.1,0-0.4-0.2-0.4,0c-0.1,0.5-0.2,1.1-0.2,1.6c0,0.3,0.5,0.4,0.8,0.5
		c3.5,1.7,7.2,2.4,11.1,2.4c4.6,0,9-0.8,13-3.1c3.7-2.1,6.1-5.1,5.6-9.7l0,0C114.2,84.8,112,86.7,109.6,88.3z"/>
	<path class="st12" d="M105.1,90.1c-3.9,1.4-8,1.7-12.1,1.3c-1.8-0.2-3.6-0.5-5.3-1.1c0,0.4,0.3,0.5,0.6,0.5
		c0.4,0.1,0.8,0.3,1.3,0.4c2.9,0.6,5.9,0.9,8.9,0.6c4-0.3,7.9-1.3,11.3-3.5c2.4-1.6,4.5-3.5,4.7-6.7c-0.4,1.1-0.8,2.2-1.5,3.2
		C110.9,87.5,108.2,89.1,105.1,90.1z"/>
	<path class="st12" d="M108.6,77c-0.1,0.8-0.9,2-1.6,2.9c-1.8,2-4.1,3.3-6.6,4.3c-2.5,0.9-5,1.4-7.6,1.6c-2.5,0.2-5,0-7.4-0.4
		c-0.4-0.1-1-0.1-1.2-0.6c-0.3,0.7-0.1,1.5-0.1,2.2c-0.1,0.5,0.1,0.6,0.6,0.7c3.8,0.8,7.7,0.8,11.5,0.1c3.2-0.6,6.2-1.7,8.8-3.7
		c2.2-1.7,3.9-3.8,4-6.8l0,0C108.7,77.3,108.6,77.2,108.6,77z"/>
	<path class="st12" d="M108.3,77c0,0.1-0.1,0.3-0.2,0.4c-1.2,2.6-3.4,4.3-5.9,5.5c-5.8,2.8-11.9,3.2-18.1,1.9
		c0.2,0.5,0.7,0.5,1.2,0.6c2.5,0.4,4.9,0.6,7.4,0.4c2.6-0.2,5.2-0.7,7.6-1.6c2.5-1,4.7-2.3,6.6-4.3c0.8-0.8,1.5-2.1,1.6-2.9
		c0,0.2,0.1,0.3,0.2,0.3c0-0.5-0.1-0.9-0.1-1.5C108.6,76.4,108.4,76.7,108.3,77z"/>
	<path class="st11" d="M72.3,88.5c0-0.1-0.1-0.3,0.1-0.4c0.2-0.1,0.3,0.1,0.4,0.2c0.1,0.1,0.1,0.2,0.2,0.3c1,2.6,3,4.4,5.4,5.7
		c3.1,1.8,6.6,2.5,10.2,2.8c3.5,0.3,6.9-0.3,10.3-0.8c-1.9,0.1-3.8,0.2-5.6,0c-3.5-0.3-6.9-1.2-10.1-2.9c-0.4-0.2-0.7-0.2-1.1-0.1
		c-2.4,1.1-4.9-0.5-4.9-3.2c0-0.6,0-1.2,0-1.8c0-0.7-0.3-1.3-0.9-1.7c-1.1-0.8-2.1-1.6-3-2.5c-0.3-0.3-0.5-0.3-0.6,0.2
		c-0.5,1.8-0.5,3.7-0.3,5.6C72.3,89.4,72.3,88.9,72.3,88.5z"/>
	<path class="st11" d="M88.5,97.2c-3.6-0.3-7-1.1-10.2-2.8c-2.4-1.3-4.3-3.1-5.4-5.7c0-0.1-0.1-0.2-0.2-0.3
		c-0.1-0.1-0.2-0.3-0.4-0.2c-0.2,0.1-0.1,0.2-0.1,0.4c0,0.5,0,0.9,0,1.4c0,0.1,0,0.2,0,0.3c0.1-0.6-0.1-1.2,0.1-2
		c0.4,1.1,0.8,2.1,1.5,2.9c2,2.5,4.6,4.1,7.6,5.1c3.9,1.3,7.9,1.7,12,1.3c1.8-0.2,3.6-0.5,5.3-1.1C95.4,96.8,92,97.5,88.5,97.2z"/>
	<path class="st13" d="M82.8,73.8c1.7,0.6,3.4,0.6,5.2,0.1c1.3-0.4,2.4-1.2,3-2.4l0,0c0.2-1.3-0.3-2.3-1.3-3c-2.2-1.6-6.2-1.6-8.4,0
		c-0.9,0.7-1.4,1.5-1.3,2.7C80.5,72.5,81.5,73.3,82.8,73.8z M83.4,70.4c0.2-0.1,0.3-0.3,0.5-0.4c1.7-1.1,2.1-1.1,3.6,0.2
		c0.3,0.2,0.4,0.5,0.2,0.8c-0.2,0.3-1.8,1.2-2.3,1.2c-0.7-0.2-1.4-0.7-2.1-1.3C83.1,70.8,83.2,70.5,83.4,70.4z"/>
	<path class="st14" d="M82.5,75.1c2.1,0.9,4.2,0.8,6.3-0.1c1.5-0.6,2.5-1.7,2.2-3.6l0,0c-0.2,1.5-1.4,2.2-2.6,2.6
		c-2.1,0.7-4.3,0.7-6.3-0.3c-1.1-0.5-1.9-1.3-2-2.6C79.8,73.2,80.5,74.3,82.5,75.1z"/>
	<path class="st14" d="M82,73.8c2.1,0.9,4.2,1,6.3,0.3c1.3-0.4,2.4-1.1,2.6-2.6c-0.6,1.3-1.7,2-3,2.4c-1.7,0.5-3.5,0.5-5.2-0.1
		c-1.3-0.5-2.3-1.2-2.8-2.6C80.1,72.5,80.9,73.3,82,73.8z"/>
	<path class="st12" d="M72.9,78c-0.2-0.4-0.2-0.7-0.3-1c0,0.4,0.4,0.9-0.2,1.3c0.5,2.9,2.3,4.9,4.7,6.5c0.1-0.9-0.1-1.7,0.2-2.5l0,0
		c-0.7,0-1.1-0.5-1.5-0.8C74.6,80.4,73.5,79.4,72.9,78z"/>
	<path class="st12" d="M76.7,81.7c-1.2-0.9-2.3-1.9-3.2-3.2c-0.5-0.7-0.7-1.5-1.2-2.2c0,0.7,0,1.3,0,2c0.6-0.4,0.2-0.9,0.2-1.3
		c0.1,0.3,0.1,0.7,0.3,1c0.7,1.4,1.8,2.4,2.9,3.4c0.4,0.4,0.8,0.8,1.5,0.8C77.1,81.9,76.9,81.8,76.7,81.7z"/>
	<path class="st15" d="M112.9,99.6c-3.8,3.1-8.2,4.7-13,5.6c-2.9,0.5-5.9,0.7-8.8,0.6c-4.1-0.2-8.1-0.9-11.9-2.5
		c-3-1.2-5.8-2.9-8-5.3c-1-1.1-1.9-2.3-2.3-3.7c0.2,2.1,1.3,4,2.8,5.6c3,3.3,6.8,5.1,11,6.3c4.1,1.2,8.4,1.5,12.6,1.3
		c4.5-0.2,8.8-1.2,12.8-3.2c2.9-1.4,5.4-3.3,7.3-6c0.9-1.4,1.3-2.9,1.7-4.4c0-0.1,0-0.2,0-0.2c-0.2,1-0.6,2-1.2,2.8
		C115,97.5,114,98.6,112.9,99.6z"/>
	<path class="st15" d="M117.1,93.8c-0.4,1.5-0.8,3.1-1.7,4.4c-1.8,2.7-4.4,4.6-7.3,6c-4,2-8.3,2.9-12.8,3.2
		c-4.3,0.2-8.5-0.1-12.6-1.3c-4.2-1.2-8-3-11-6.3c-1.5-1.7-2.6-3.5-2.8-5.6c-0.2-0.7-0.3-1.4-0.4-2.1c-0.3,2.7,0.6,5,2.2,7.1
		c2.3,3,5.3,4.9,8.8,6.2c7.9,3,16,3.2,24.1,1c3.9-1.1,7.5-2.9,10.4-5.8c2.3-2.3,3.6-5.1,3.3-8.4c0,0.5-0.1,1-0.2,1.5
		C117.1,93.6,117.1,93.7,117.1,93.8z"/>
	<path class="st15" d="M110.6,100.8c-5,3.1-10.5,4.4-16.3,4.6c-4.1,0.2-8.1-0.3-12-1.4c-3.4-1-6.5-2.4-9.2-4.6
		c-2-1.7-3.5-3.7-4.3-6.2c0,0.3,0,0.7,0.1,1c0.4,1.4,1.3,2.6,2.3,3.7c2.2,2.4,5,4.1,8,5.3c3.8,1.6,7.8,2.3,11.9,2.5
		c3,0.2,5.9,0,8.8-0.6c4.8-0.9,9.2-2.5,13-5.6c1.2-0.9,2.1-2,3-3.2c0.6-0.9,1-1.8,1.2-2.8c0-0.2,0-0.4,0-0.6c-0.1,0.3-0.2,0.7-0.3,1
		C115.6,97,113.3,99.1,110.6,100.8z"/>
	<path class="st15" d="M117.1,92.9c0,0.2,0.1,0.4,0,0.6c0.1-0.5,0.2-1,0.2-1.5l0,0C117.2,92.3,117.2,92.6,117.1,92.9z"/>
	<path class="st15" d="M68.8,93.2c-0.1-0.4-0.2-0.7-0.3-1.1c0,0.8,0.1,1.5,0.4,2.1C68.9,93.8,68.8,93.5,68.8,93.2z"/>
	<path class="st16" d="M85.4,72.2c0.5,0,2.1-0.9,2.3-1.2c0.2-0.3,0.1-0.6-0.2-0.8c-1.5-1.3-1.9-1.3-3.6-0.2
		c-0.2,0.1-0.4,0.2-0.5,0.4c-0.2,0.2-0.2,0.4-0.1,0.6C84,71.5,84.7,72.1,85.4,72.2z"/>
</g>
</svg>
