<?xml version="1.0" encoding="utf-8"?>
<!-- Generator: Adobe Illustrator 25.2.3, SVG Export Plug-In . SVG Version: 6.00 Build 0)  -->
<svg version="1.1" id="Layer_1" xmlns:v="https://vecta.io/nano"
	 xmlns="http://www.w3.org/2000/svg" xmlns:xlink="http://www.w3.org/1999/xlink" x="0px" y="0px" viewBox="0 0 186 171"
	 style="enable-background:new 0 0 186 171;" xml:space="preserve">
<style type="text/css">
	.st0{fill:#FEC803;}
	.st1{fill:#F3BA2F;}
	.st2{opacity:0.1;fill:none;stroke:#191326;stroke-width:3;enable-background:new    ;}
	.st3{fill:#FFFFFF;}
	.st4{opacity:0.16;}
	.st5{fill:#010101;}
	.st6{fill:#838383;}
	.st7{fill:#7D7D7D;}
	.st8{fill:#7E7E7E;}
	.st9{fill:#808080;}
	.st10{fill:#818181;}
	.st11{fill:#787878;}
	.st12{fill:#8E8E8E;}
	.st13{fill:#7A7A7A;}
	.st14{fill:#8C8C8C;}
	.st15{fill:#ED94C8;}
	.st16{fill:#D76FAC;}
	.st17{fill:#D670AD;}
	.st18{fill:#FFE1F3;}
	.st19{fill:#020101;}
	.st20{fill:#7A4764;}
	.st21{fill:#F1868B;}
	.st22{fill:#BF4558;}
</style>
<g>
	<path class="st0" d="M172.4,95c-1-7.8-6.2-14.9-13.3-18.2c-8.6-4-18.7-2.6-27.8-5.3c-11.8-3.5-20.4-13.3-30.9-19.8
		C88,44.1,73.2,41.4,58.8,38.8C49.2,37.1,39.1,35.5,30,39c-12.3,4.9-19.5,20-15.5,32.6c6.8,21.4,37,27.1,46.2,47.6
		c4.8,10.6,3.2,24.1,10.7,32.9c9,10.5,25.5,8.7,38.9,5.5c10.2-2.5,20.3-5.3,30.4-8.2c8.2-2.3,16.8-4.8,22.8-10.8
		c7.5-7.4,4.4-13.1,4.3-21.7C167.9,109.5,173.5,103.3,172.4,95z"/>
</g>
<circle class="st1" cx="70.2" cy="39.8" r="29"/>
<circle class="st2" cx="70.2" cy="39.8" r="27.5"/>
<g>
	<path class="st3" d="M63.9,37.2l6.3-6.3l6.3,6.3l3.7-3.7l-9.9-9.9l-9.9,9.9L63.9,37.2z M54,39.8l3.7-3.7l3.7,3.7l-3.7,3.7L54,39.8z
		 M63.9,42.4l6.3,6.3l6.3-6.3l3.7,3.7l-10,9.9l-9.9-10l0,0L63.9,42.4z M79.1,39.8l3.7-3.7l3.7,3.7l-3.7,3.7L79.1,39.8z M73.9,39.8
		L73.9,39.8L73.9,39.8l-3.7,3.7l-3.7-3.7l0,0l0,0l0.6-0.7l0.3-0.3l2.7-2.7L73.9,39.8L73.9,39.8z"/>
</g>
<path class="st3" d="M120.4,127.4c24.1,0,43.7-19.5,43.7-43.7S144.6,40,120.4,40S76.8,59.7,76.8,83.8S96.3,127.4,120.4,127.4z"/>
<g class="st4">
	<path d="M120.4,127.4c-11.6,0-22.5-4.5-30.7-12.7c-8.3-8.2-12.9-19.1-12.9-30.8S81.3,61.3,89.5,53s19.2-12.8,30.8-12.9l0,0h0.1
		c11.6,0,22.5,4.5,30.7,12.7C159.4,61,163.9,72,164,83.6s-4.5,22.6-12.7,30.9S132.1,127.3,120.4,127.4
		C120.5,127.4,120.4,127.4,120.4,127.4z M120.3,43.2c-10.8,0-21,4.3-28.7,12S79.8,73.1,79.8,83.9s4.3,21,12,28.7
		c7.7,7.6,17.8,11.8,28.6,11.8h0.1c10.8,0,21-4.3,28.7-12S161,94.6,161,83.8s-4.3-21-12-28.7C141.4,47.4,131.2,43.2,120.3,43.2
		L120.3,43.2L120.3,43.2z"/>
</g>
<g>
	<path class="st5" d="M96.5,79.6c-0.4-0.5-0.8-0.9-1.2-1.4c-0.4-0.5-0.8-1.1-1.2-1.7c-0.2-0.4-0.3-0.7-0.5-1.1
		c-0.1-0.4-0.2-0.8-0.2-1.2c0-0.4,0.1-0.7,0.3-1c0.1-0.2,0.2-0.5,0.4-0.7c0.4-0.5,0.8-0.8,1.4-1c0.2-0.1,0.5-0.2,0.7-0.2
		c0.2-0.1,0.4-0.1,0.7-0.1c0.3,0,0.7-0.1,1-0.1c1.4-0.1,2.8,0,4.1-0.1c0.5,0,1.1-0.1,1.6-0.1c0.3,0,0.5,0,0.8-0.1
		c0.2,0,0.4-0.1,0.6-0.3c0.5-0.3,0.8-0.8,1.1-1.3c0.2-0.3,0.3-0.7,0.4-1.1c0.1-0.2,0.1-0.4,0.2-0.6c0-0.1,0-0.1,0.1-0.2
		c0-0.2,0.1-0.3,0.1-0.5c0.1-0.3,0.2-0.6,0.3-0.8c0.1-0.5,0.3-0.9,0.5-1.3c0.2-0.4,0.4-0.9,0.6-1.3c0.3-0.6,0.6-1.1,1-1.6
		c0.4-0.5,0.9-1,1.4-1.5c0,0,0.1-0.1,0.1-0.1c0.4-0.3,0.8-0.6,1.3-0.8c0,0,0.1,0,0.1-0.1c0.3-0.1,0.5-0.2,0.8-0.3
		c0.1,0,0.2-0.1,0.3-0.1c0.2,0,0.4-0.1,0.6-0.1c0.2,0,0.5,0,0.7,0c0.3,0,0.7,0,1,0.1c0.3,0.1,0.6,0.1,0.8,0.2
		c0.3,0.1,0.6,0.2,0.9,0.3c0.1,0,0.2,0.1,0.3,0.1c0,0,0.1,0,0.1,0.1c0.3,0.1,0.7,0.3,1,0.4c0.3,0.1,0.5,0.2,0.8,0.3
		c0.2,0.1,0.5,0.2,0.7,0.3c0.1,0,0.2,0.1,0.3,0.1c0.1,0,0.1,0,0.2,0.1c0.1,0,0.2,0,0.3,0c0.3,0,0.6,0,0.8-0.1
		c0.2-0.1,0.5-0.1,0.7-0.2c0.3-0.1,0.6-0.2,0.9-0.3c0.4-0.2,0.9-0.3,1.3-0.5c0.3-0.1,0.5-0.2,0.8-0.2c0.2-0.1,0.4-0.1,0.6-0.2
		c0.2-0.1,0.5-0.1,0.7-0.1c0.1,0,0.1,0,0.2,0c0.2,0,0.4,0,0.7,0c0.3,0,0.6,0.1,0.8,0.1c0.2,0.1,0.4,0.1,0.6,0.2
		c0.4,0.2,0.8,0.3,1.1,0.6c0.4,0.2,0.7,0.5,1,0.8c0.5,0.5,0.9,1,1.2,1.6c0.5,0.7,0.9,1.5,1.3,2.2c0.3,0.6,0.6,1.1,0.9,1.7
		c0.2,0.4,0.4,0.8,0.6,1.1c0.3,0.5,0.7,0.9,1.2,1.2c0.1,0.1,0.3,0.2,0.4,0.2c0.1,0,0.3,0,0.4,0c0.3,0,0.6,0,0.8,0
		c0.4-0.1,0.8-0.1,1.2-0.2c0.2,0,0.4-0.1,0.6-0.2c0.3-0.1,0.5-0.1,0.8-0.2c0.1,0,0.3-0.1,0.4-0.1c0.1,0,0.2,0,0.3-0.1
		c0.2-0.1,0.5-0.1,0.7-0.1c0.4-0.1,0.7-0.1,1.1-0.1c0.1,0,0.1,0,0.2,0c0.4,0,0.8,0.1,1.2,0.2c0.7,0.2,1.3,0.6,1.8,1.2
		c0.2,0.2,0.3,0.4,0.5,0.7c0.1,0.2,0.3,0.5,0.3,0.8c0.1,0.5,0.1,0.9,0,1.4c0,0.3-0.1,0.6-0.2,0.9c-0.2,0.7-0.6,1.3-1,1.9
		c-0.4,0.6-0.8,1.2-1.3,1.8c-0.5,0.7-1.1,1.3-1.7,1.9c-0.1,0.1-0.3,0.3-0.4,0.4c-0.1,0.1-0.2,0.2-0.2,0.3c-0.6,0.7-1.2,1.3-1.7,2.1
		c-0.3,0.4-0.5,0.8-0.7,1.3c-0.1,0.2-0.1,0.5-0.2,0.8c-0.1,0.7-0.1,1.4,0,2.1c0,0.4,0.1,0.8,0.1,1.1c0.1,0.3,0.1,0.6,0.1,0.9
		c0,0.2,0.1,0.5,0.1,0.7c0,0.2,0.1,0.4,0.1,0.6c0,0.2,0.1,0.5,0.2,0.7c0,0.2,0.1,0.3,0.1,0.5c0.1,0.3,0.1,0.6,0.2,0.8
		c0.1,0.3,0.2,0.7,0.3,1c0.1,0.3,0.2,0.6,0.3,1c0.1,0.3,0.2,0.6,0.2,0.9c0.1,0.3,0.2,0.6,0.3,0.9c0,0,0,0.1,0,0.1
		c0,0.1,0,0.1,0.1,0.2c0,0.2,0.1,0.3,0.1,0.5c0.1,0.2,0.1,0.5,0.2,0.7c0.1,0.4,0.2,0.8,0.3,1.2c0.1,0.3,0.2,0.7,0.2,1
		c0.1,0.3,0.1,0.5,0.2,0.8c0,0.1,0,0.2,0.1,0.4c0.1,0.5,0.2,1,0.1,1.5c0,0.3,0,0.6,0,0.8c0,0.5,0,1-0.1,1.6
		c-0.1,0.6-0.3,1.1-0.6,1.5c-0.3,0.4-0.6,0.6-1.1,0.8c-0.2,0.1-0.4,0.2-0.7,0.2c-0.6,0.2-1.3,0.2-1.9,0.1c-0.1,0-0.3,0-0.4,0
		c-0.4,0-0.7,0-1.1-0.1c-0.3,0-0.6-0.1-0.9-0.1c-0.4-0.1-0.7-0.1-1.1-0.2c-0.2-0.1-0.5-0.1-0.7-0.1c-0.2-0.1-0.5-0.1-0.7-0.1
		c-0.4,0-0.8,0-1.2,0c-0.2,0-0.4,0.1-0.5,0.1c-0.1,0-0.2,0.1-0.3,0.1c-0.1,0-0.2,0-0.2,0.1c-0.2,0-0.3,0.1-0.5,0.1
		c-0.1,0-0.2,0.1-0.3,0.1c-0.1,0-0.1,0-0.2,0.1c-0.2,0.1-0.4,0.1-0.6,0.2c-0.4,0.1-0.9,0.3-1.3,0.4c-0.3,0.1-0.6,0.2-0.9,0.3
		c-0.4,0.1-0.7,0.2-1.1,0.3c-0.2,0.1-0.4,0.1-0.6,0.2c-0.3,0.1-0.6,0.1-0.9,0.1c-0.8,0.1-1.7,0.1-2.5,0.1c-0.5,0-0.9-0.1-1.4-0.1
		c-0.2,0-0.4-0.1-0.6-0.1c-0.2,0-0.4-0.1-0.5-0.1c-0.2,0-0.5-0.1-0.7-0.1c-0.3-0.1-0.6-0.1-0.9-0.2c0,0,0,0,0,0
		c-0.3,0-0.5,0-0.8-0.1c-0.5-0.1-0.9,0-1.4-0.1c-0.5,0-0.9,0-1.4,0c-0.4,0-0.8,0.1-1.1,0.1c-0.4,0.1-0.8,0.1-1.1,0.2
		c-0.2,0.1-0.5,0.1-0.7,0.1c-0.3,0.1-0.6,0.1-0.8,0.2c-0.3,0.1-0.6,0.1-0.8,0.2c-0.2,0-0.4,0.1-0.6,0.1c-0.2,0-0.5,0-0.7,0.1
		c-0.4,0-0.8,0.1-1.3,0.1c0,0-0.1,0-0.1,0c-0.5,0-1.1,0-1.6,0c-0.1,0-0.1,0-0.2,0c-0.4,0-0.8,0-1.2-0.1c-0.3,0-0.5-0.1-0.8-0.1
		c-0.4-0.1-0.7-0.2-1.1-0.3c-0.7-0.2-1.4-0.5-2.1-1c-0.4-0.3-0.8-0.7-1.1-1.2c-0.2-0.3-0.4-0.7-0.5-1.1c-0.1-0.4-0.2-0.9-0.2-1.3
		c0-0.5,0-1.1,0-1.6c0-0.3,0.1-0.6,0.1-0.9c0-0.2,0.1-0.4,0.1-0.6c0-0.2,0.1-0.4,0.1-0.7c0.1-0.4,0.2-0.8,0.3-1.1
		c0.1-0.3,0.2-0.6,0.2-0.8c0.1-0.3,0.2-0.6,0.3-0.9c0.1-0.3,0.2-0.5,0.3-0.8c0.1-0.3,0.2-0.5,0.3-0.8c0.1-0.3,0.2-0.5,0.3-0.8
		c0.1-0.3,0.2-0.5,0.2-0.8c0.1-0.3,0.2-0.6,0.3-0.9c0.1-0.2,0.1-0.5,0.2-0.7c0.1-0.3,0.1-0.5,0.2-0.8c0-0.1,0-0.2,0.1-0.4
		c0.1-0.4,0.1-0.8,0.2-1.1c0-0.2,0-0.4,0.1-0.5c0-0.1,0-0.3,0.1-0.4c0.1-0.4,0.1-0.7,0.1-1.1c0-0.2,0-0.3,0-0.5
		c0-0.6-0.3-1.1-0.6-1.6c-0.3-0.4-0.7-0.8-1-1.2c-0.7-0.7-1.4-1.5-2.1-2.2c0,0,0,0-0.1-0.1l0,0c0,0-0.1-0.1-0.1-0.1l0,0
		c0,0,0,0-0.1-0.1c-0.6-0.6-1.2-1.2-1.8-1.9C96.6,79.7,96.5,79.7,96.5,79.6z"/>
	<path class="st6" d="M142.6,79.5c0-0.1,0.1-0.2,0.2-0.3C142.8,79.4,142.7,79.4,142.6,79.5z"/>
	<path class="st7" d="M131.9,105.9c0.1,0,0.1-0.1,0.2-0.1C132.1,105.9,132,105.9,131.9,105.9z"/>
	<path class="st8" d="M120.9,61c-0.1,0-0.1,0-0.2-0.1C120.7,61,120.8,61,120.9,61z"/>
	<path class="st9" d="M96.5,79.6c0.1,0,0.1,0.1,0.2,0.2C96.6,79.8,96.5,79.7,96.5,79.6z"/>
	<path class="st10" d="M106.8,67.5c0,0.1,0,0.1-0.1,0.2C106.7,67.6,106.7,67.5,106.8,67.5z"/>
	<path class="st11" d="M142.1,95.1c-0.1,0-0.1-0.1-0.1-0.2C142.1,95,142.1,95,142.1,95.1z"/>
	<path class="st12" d="M130.9,106.2c0-0.1,0.1-0.1,0.2-0.1C131,106.2,131,106.2,130.9,106.2z"/>
	<path class="st9" d="M110.6,60.4c0,0.1-0.1,0.1-0.1,0.1C110.5,60.5,110.6,60.4,110.6,60.4z"/>
	<path class="st6" d="M117.8,59.9c-0.1,0-0.1,0-0.1-0.1C117.7,59.9,117.7,59.9,117.8,59.9z"/>
	<path class="st13" d="M112,59.6c0,0.1-0.1,0.1-0.1,0.1C111.9,59.6,112,59.6,112,59.6z"/>
	<path class="st14" d="M98.5,81.7C98.6,81.7,98.6,81.8,98.5,81.7C98.6,81.8,98.5,81.8,98.5,81.7z"/>
	<path class="st14" d="M98.5,81.7C98.5,81.7,98.5,81.7,98.5,81.7C98.5,81.7,98.5,81.7,98.5,81.7z"/>
	<path class="st14" d="M98.6,81.8C98.7,81.8,98.7,81.8,98.6,81.8C98.6,81.9,98.6,81.9,98.6,81.8z"/>
	<path class="st15" d="M99.7,104.5c-0.1-0.4-0.2-0.8-0.2-1.2c0-0.4,0-0.8,0-1.2c0-0.4,0.1-0.7,0.1-1.1c0-0.2,0.1-0.4,0.1-0.7
		c0-0.2,0-0.3,0.1-0.5c0-0.1,0-0.2,0.1-0.3c0.1-0.3,0.1-0.5,0.2-0.8c0.1-0.2,0.1-0.5,0.2-0.7c0.1-0.3,0.2-0.6,0.3-0.9
		c0.1-0.2,0.1-0.4,0.2-0.6c0.1-0.3,0.2-0.5,0.3-0.8c0.1-0.2,0.1-0.4,0.2-0.6c0.1-0.3,0.2-0.5,0.3-0.8c0.1-0.2,0.1-0.4,0.2-0.6
		c0-0.1,0-0.2,0.1-0.3c0.3-0.7,0.5-1.4,0.7-2.1c0.2-0.6,0.4-1.2,0.5-1.8c0.1-0.3,0.2-0.6,0.2-0.9c0.1-0.5,0.2-1,0.3-1.6
		c0.1-0.4,0.1-0.9,0-1.3c0-0.5-0.2-0.9-0.5-1.3c-0.5-0.9-1.2-1.6-1.9-2.3c-0.6-0.6-1.3-1.2-1.9-1.8c-0.3-0.3-0.7-0.7-1-1
		c-0.5-0.5-1.1-1-1.6-1.6c-0.3-0.4-0.7-0.8-1-1.2c-0.5-0.7-0.9-1.4-1.2-2.3c-0.1-0.4-0.2-0.8-0.1-1.2c0,0,0,0,0,0
		c0,0,0.1-0.1,0.1-0.1c0.1-0.2,0.3-0.4,0.5-0.6c0.3-0.3,0.6-0.4,1-0.6c0.3-0.1,0.6-0.2,0.9-0.2c0.2,0,0.3,0,0.5-0.1
		c0.9-0.1,1.8-0.1,2.7-0.1c0.7,0,1.4,0,2.1,0c0.5,0,1,0,1.6-0.1c0.4,0,0.8-0.1,1.2-0.1c0.1,0,0.2-0.1,0.3-0.1
		c0.4-0.3,0.8-0.6,1.1-1.1c0.2-0.4,0.4-0.8,0.6-1.2c0.1-0.3,0.2-0.6,0.2-0.9c0.1-0.2,0.1-0.4,0.2-0.6c0.1-0.3,0.2-0.6,0.3-0.8
		c0.2-0.5,0.3-1,0.5-1.4c0.3-0.7,0.6-1.3,0.9-1.9c0.5-0.8,1-1.5,1.7-2.1c0.5-0.4,1-0.7,1.6-1c0.2-0.1,0.5-0.2,0.7-0.3
		c0.6-0.2,1.2-0.2,1.7-0.2c0.2,0,0.4,0,0.6,0c0.2,0,0.3,0.1,0.5,0.1c0.1,0,0.3,0.1,0.4,0.1c0.2,0,0.3,0.1,0.5,0.1
		c0.4,0.1,0.8,0.2,1.1,0.4c0.2,0.1,0.4,0.1,0.6,0.2c0.9,0.5,1.8,0.9,2.8,1.2c0.6,0.1,1.1,0.2,1.7,0.2c0.5,0,0.9-0.1,1.3-0.2
		c0.6-0.1,1.2-0.4,1.8-0.6c0.8-0.3,1.6-0.7,2.3-1.2c0.1-0.1,0.2,0,0.3,0c0.2,0.1,0.4,0.1,0.6,0.2c0.2,0.1,0.3,0.1,0.4,0.2
		c0.4,0.2,0.8,0.4,1.2,0.7c0.3,0.2,0.5,0.5,0.8,0.7c0.3,0.4,0.6,0.7,0.9,1.1c0.3,0.5,0.6,1,0.9,1.5c0.2,0.4,0.4,0.9,0.7,1.3
		c0.4,0.7,0.7,1.4,1.1,2.1c0.2,0.4,0.5,0.7,0.8,1.1c0.3,0.2,0.5,0.4,0.8,0.6c0.2,0.1,0.4,0.2,0.6,0.2c0.2,0,0.5,0,0.7,0
		c0.2,0,0.4-0.1,0.6-0.1c0.2,0,0.3-0.1,0.5-0.1c0.1,0,0.3-0.1,0.4-0.1c0.2,0,0.4-0.1,0.5-0.1c0.2,0,0.4-0.1,0.6-0.2
		c0.2,0,0.4-0.1,0.6-0.1c0.2,0,0.4-0.1,0.6-0.1c0.3,0,0.5-0.1,0.8-0.1c0.3,0,0.7-0.1,1,0c0.2,0,0.5,0.1,0.7,0.1
		c0.2,0,0.4,0.1,0.6,0.2c0.4,0.1,0.7,0.3,0.9,0.6c0.3,0.3,0.6,0.6,0.8,1c0.2,0.3,0.3,0.6,0.4,0.9c0,0.3,0.1,0.5,0,0.8
		c0,0.2,0,0.4-0.1,0.5c-0.1,0.2-0.1,0.4-0.2,0.6c-0.1,0.3-0.3,0.7-0.4,1c0,0.1,0,0.1-0.1,0.2c-0.1,0.2-0.2,0.3-0.4,0.4
		c-0.8,0.6-1.5,1.2-2.3,1.9c-0.4,0.4-0.8,0.7-1.2,1.1c-0.6,0.6-1.2,1.2-1.8,1.9c-0.5,0.6-0.9,1.2-1.3,1.9c-0.2,0.4-0.3,0.8-0.4,1.2
		c0,0.2-0.1,0.4,0,0.5c0,0.3,0.1,0.5,0.1,0.8c0,0.2,0.1,0.5,0.1,0.7c0.1,0.3,0.1,0.6,0.2,0.9c0.1,0.4,0.2,0.8,0.3,1.1
		c0.1,0.4,0.2,0.9,0.3,1.3c0,0.1,0,0.2,0.1,0.3c0.1,0.2,0.1,0.4,0.1,0.6c0,0.2,0.1,0.4,0.1,0.6c0.1,0.2,0.1,0.4,0.1,0.6
		c0,0.2,0.1,0.4,0.1,0.6c0,0.2,0.1,0.3,0.1,0.5c0.1,0.2,0.1,0.4,0.2,0.6c0.1,0.2,0.1,0.5,0.2,0.7c0.1,0.2,0.1,0.4,0.2,0.7
		c0.1,0.2,0.1,0.5,0.2,0.7c0.1,0.3,0.2,0.6,0.3,0.9c0.1,0.3,0.2,0.6,0.2,0.9c0.1,0.3,0.2,0.6,0.3,1c0.1,0.2,0.1,0.5,0.2,0.7
		c0.1,0.3,0.2,0.6,0.3,1c0,0.1,0.1,0.3,0.1,0.4c0,0.2,0.1,0.4,0.1,0.6c0,0.2,0.1,0.3,0.1,0.5c0,0.1,0,0.3,0.1,0.4
		c0.1,0.2,0.1,0.5,0.1,0.7c0,0.6,0,1.2,0,1.8c0,0.2,0,0.5,0,0.7c0,0,0,0.1,0,0.1c0,0.2-0.1,0.5-0.3,0.6c-0.2,0.3-0.6,0.4-1,0.5
		c-0.5,0.1-1,0-1.5,0c-0.7-0.1-1.4-0.2-2.1-0.4c-0.4-0.1-0.9-0.2-1.3-0.3c-0.6-0.1-1.1-0.3-1.7-0.4c-0.7-0.1-1.3-0.1-2-0.1
		c-0.7,0-1.3,0.2-1.9,0.4c-1.1,0.4-2.1,0.9-3.1,1.3c-0.6,0.3-1.2,0.5-1.8,0.7c-0.3,0.1-0.6,0.1-0.8,0.2c-0.5,0.1-1,0-1.5,0
		c-0.2,0-0.4-0.1-0.6-0.1c-0.9-0.2-1.8-0.4-2.8-0.6c-0.9-0.2-1.8-0.5-2.7-0.7c-0.4-0.1-0.8-0.2-1.2-0.3c-0.3-0.1-0.6-0.1-0.8-0.2
		c-0.3,0-0.7-0.1-1-0.1c-0.4,0-0.9-0.1-1.3-0.1c-0.7,0-1.3,0.1-2,0.1c-0.9,0.1-1.8,0.4-2.7,0.6c-0.8,0.2-1.6,0.4-2.4,0.7
		c-0.8,0.2-1.5,0.4-2.3,0.6c-0.6,0.2-1.3,0.3-1.9,0.2c-0.7-0.1-1.4-0.3-1.9-0.9C100,105.2,99.9,104.9,99.7,104.5
		C99.7,104.5,99.7,104.5,99.7,104.5z"/>
	<path class="st16" d="M99.7,104.5C99.7,104.5,99.8,104.5,99.7,104.5c0.2,0.4,0.3,0.7,0.6,0.9c0.1,0.1,0.3,0.2,0.4,0.4
		c0.2,0.2,0.5,0.3,0.8,0.4c0.1,0,0.3,0.1,0.4,0.1c0,0,0,0,0,0c0.2,0.1,0.4,0,0.6,0.1c0.1,0,0.2,0,0.4,0c0.1,0,0.2,0,0.2,0
		c0,0,0,0,0,0c0.2,0,0.4,0,0.5-0.1c0.1,0,0.3-0.1,0.4-0.1c0.1,0,0.3-0.1,0.4-0.1c0.1,0,0.3-0.1,0.4-0.1c0.1,0,0.2,0,0.3-0.1
		c0.2-0.1,0.5-0.1,0.7-0.2c0.2,0,0.4-0.1,0.6-0.2c0.2-0.1,0.5-0.1,0.7-0.2c0.1,0,0.2,0,0.3-0.1c0.1,0,0.2-0.1,0.3-0.1
		c0.2-0.1,0.4-0.1,0.6-0.2c0.2,0,0.3-0.1,0.5-0.1c0.2,0,0.4-0.1,0.6-0.2c0.2,0,0.3-0.1,0.5-0.1c0.1,0,0.3-0.1,0.4-0.1
		c0.1,0,0.3,0,0.4-0.1c0,0,0.1,0,0.1,0c0.1,0,0.2,0,0.2,0c0,0,0.1,0,0.1,0c0.2,0,0.3,0,0.5,0c0.2-0.1,0.5,0,0.7-0.1
		c0.3-0.1,0.6,0,0.9-0.1c0.3,0,0.6,0,0.9,0c0,0,0.1,0,0.1,0c0.2,0.1,0.4,0.1,0.5,0.1c0.1,0,0.2,0,0.3,0c0.2,0,0.3,0.1,0.5,0.1
		c0.1,0,0.1,0,0.2,0c0,0,0.1,0,0.1,0c0.1,0,0.2,0,0.3,0.1c0,0,0.1,0,0.1,0c0.1,0,0.1,0,0.2,0c0,0,0,0,0,0c0.2,0,0.3,0.1,0.5,0.1
		c0.1,0,0.2,0.1,0.3,0.1c0.2,0,0.3,0.1,0.5,0.1c0.1,0,0.2,0.1,0.4,0.1c0.1,0,0.2,0.1,0.3,0.1c0.2,0,0.3,0.1,0.5,0.1
		c0.1,0,0.3,0.1,0.4,0.1c0.1,0,0.2,0,0.2,0.1c0.1,0,0.3,0,0.4,0.1c0,0,0.1,0,0.2,0c0.2,0,0.4,0.1,0.5,0.1c0.2,0,0.3,0.1,0.5,0.1
		c0.2,0,0.3,0.1,0.5,0.1c0.1,0,0.3,0.1,0.4,0.1c0,0,0,0,0,0c0.2,0,0.3,0.1,0.5,0.1c0,0,0.1,0,0.1,0c0.1,0,0.1,0,0.2,0c0,0,0,0,0.1,0
		c0.3,0,0.5,0.1,0.8,0.1c0.5,0.1,0.9,0,1.4,0.1c0.1,0,0.1,0,0.2,0c0,0,0,0,0.1,0c0.2,0,0.5-0.1,0.7-0.1c0.2,0,0.4-0.2,0.7-0.2
		c0.3-0.1,0.5-0.2,0.8-0.3c0.2-0.1,0.5-0.2,0.7-0.3c0.3-0.1,0.7-0.3,1-0.5c0.3-0.2,0.7-0.3,1-0.4c0.2-0.1,0.4-0.2,0.7-0.3
		c0.1,0,0.3-0.1,0.4-0.1c0.2-0.1,0.4-0.1,0.5-0.2c0.2,0,0.3-0.1,0.5-0.1c0.2,0,0.3-0.1,0.5-0.1c0.3-0.1,0.6,0,0.9-0.1
		c0.2,0,0.5,0,0.7,0c0.1,0,0.2,0,0.3,0.1c0,0,0,0,0,0c0.3,0,0.5,0.1,0.8,0.1c0.1,0.1,0.3,0.1,0.4,0.1c0.1,0,0.2,0.1,0.4,0.1
		c0.1,0,0.2,0.1,0.4,0.1c0.1,0,0.3,0,0.4,0.1c0.1,0,0.3,0,0.4,0.1c0,0,0,0,0,0c0.2,0,0.3,0.1,0.5,0.1c0.2,0,0.4,0.1,0.6,0.1
		c0.2,0,0.3,0,0.5,0.1c0,0,0.1,0,0.1,0c0.1,0,0.2,0,0.2,0c0,0,0.1,0,0.1,0c0.1,0,0.2,0,0.3,0.1c0,0,0,0,0,0c0.3,0,0.6,0.1,0.9,0.1
		c0.2,0,0.3,0,0.5,0c0.2,0,0.3,0,0.5,0c0.4-0.1,0.7-0.2,0.9-0.5c0.1-0.2,0.2-0.3,0.2-0.5c0,0,0-0.1,0-0.1c0,0.3-0.1,0.7-0.3,1
		c-0.1,0.3-0.3,0.5-0.5,0.8c-0.2,0.2-0.5,0.4-0.8,0.5c-0.4,0.2-0.7,0.2-1.1,0.3c-0.5,0.1-1,0.1-1.6,0c-0.3,0-0.6,0-0.9-0.1
		c-0.2,0-0.5,0-0.7-0.1c0,0-0.1,0-0.1,0c-0.2,0-0.4,0-0.6-0.1c-0.3-0.1-0.7-0.1-1-0.2c-0.2-0.1-0.5-0.1-0.7-0.1
		c-0.5-0.1-1-0.1-1.4-0.1c-0.2,0-0.5,0.1-0.7,0.1c-0.2,0-0.4,0.1-0.7,0.1c-0.2,0-0.3,0.1-0.5,0.1c-0.2,0-0.3,0.1-0.5,0.1
		c-0.2,0-0.3,0.1-0.5,0.1c-0.4,0.1-0.8,0.3-1.2,0.4c-0.3,0.1-0.6,0.2-0.9,0.3c-0.2,0.1-0.4,0.1-0.7,0.2c-0.2,0.1-0.4,0.1-0.6,0.2
		c-0.2,0.1-0.4,0.1-0.6,0.1c-0.3,0.1-0.5,0.1-0.8,0.2c0,0,0,0,0,0c-0.3,0-0.6,0.1-0.9,0.1c-0.2,0-0.3,0-0.5,0c-0.1,0-0.1,0-0.2,0
		c-0.2,0-0.4,0-0.6,0c-0.5,0-1,0-1.4-0.1c-0.4,0-0.7-0.1-1.1-0.1c-0.2,0-0.4,0-0.5-0.1c-0.2,0-0.3,0-0.5-0.1c-0.1,0-0.3-0.1-0.4-0.1
		c-0.3,0-0.6-0.1-0.8-0.1c-0.2,0-0.5,0-0.7-0.1c-0.2,0-0.5-0.1-0.7-0.1c-0.6,0-1.1,0-1.7,0c-0.3,0-0.6,0-0.9,0.1
		c-0.4,0-0.9,0.1-1.3,0.2c-0.2,0.1-0.5,0.1-0.7,0.2c-0.2,0.1-0.4,0.1-0.7,0.1c-0.2,0-0.4,0.1-0.6,0.1c-0.1,0-0.3,0.1-0.4,0.1
		c-0.2,0-0.3,0-0.5,0.1c0,0-0.1,0-0.1,0c-0.2,0-0.4,0.1-0.7,0.1c0,0,0,0,0,0c-0.3,0-0.6,0.1-1,0.1c-0.9,0.1-1.8,0-2.7,0
		c-0.3,0-0.6,0-0.9-0.1c-0.2,0-0.5-0.1-0.7-0.1c-0.1,0-0.3,0-0.4-0.1c-0.1,0-0.2,0-0.3-0.1c-0.3-0.1-0.6-0.2-0.9-0.3
		c-0.3-0.1-0.6-0.3-1-0.4c-0.2-0.1-0.5-0.3-0.7-0.4c-0.2-0.2-0.4-0.3-0.6-0.5c-0.3-0.4-0.6-0.8-0.7-1.2
		C99.8,104.6,99.7,104.6,99.7,104.5z"/>
	<path class="st16" d="M94.2,73c0,0.2,0,0.3,0,0.5c0,0.2,0,0.4,0.1,0.5c0,0.2,0.1,0.3,0.2,0.5c0,0.2,0.1,0.3,0.2,0.5
		c0.2,0.3,0.3,0.6,0.5,1c0.3,0.4,0.5,0.8,0.8,1.1c0.1,0.2,0.3,0.3,0.4,0.5c0.1,0.1,0.2,0.2,0.3,0.3c0.2,0.2,0.4,0.4,0.6,0.7
		c0.3,0.3,0.5,0.5,0.8,0.8c0.2,0.2,0.4,0.5,0.7,0.7c0.3,0.3,0.6,0.6,0.9,0.8c0.1,0.1,0.2,0.3,0.4,0.4c0.2,0.2,0.4,0.3,0.5,0.5
		c0.1,0.1,0.3,0.3,0.4,0.4c0.3,0.3,0.6,0.6,0.8,0.9c0.3,0.3,0.6,0.6,0.8,1c0.2,0.3,0.3,0.5,0.4,0.8c0.1,0.2,0.2,0.4,0.2,0.6
		c0.1,0.4,0,0.9,0.1,1.3c0,0,0,0,0,0.1c-0.1,0.2,0,0.5-0.1,0.7c0,0.2-0.1,0.3-0.1,0.5c0,0.2-0.1,0.3-0.1,0.5c0,0.2-0.1,0.4-0.1,0.5
		c-0.1,0.2-0.1,0.5-0.2,0.7c0,0.2-0.1,0.3-0.1,0.5c-0.1,0.2-0.1,0.4-0.2,0.7c0,0.1-0.1,0.2-0.1,0.3c0,0.1-0.1,0.3-0.1,0.4
		c-0.1,0.2-0.1,0.4-0.2,0.5c0,0.2-0.1,0.3-0.2,0.5c-0.1,0.2-0.2,0.5-0.3,0.7c0,0.1,0,0.1-0.1,0.2c0-0.1,0-0.2,0.1-0.3
		c0.1-0.4,0.2-0.7,0.3-1.1c0.1-0.4,0.2-0.7,0.3-1.1c0-0.1,0-0.3,0.1-0.4c0-0.1,0-0.2,0.1-0.3c0-0.2,0-0.3,0.1-0.5
		c0-0.2,0-0.3,0.1-0.5c0,0,0,0,0,0c0-0.4,0.1-0.7,0.2-1c0.1-0.4,0.1-0.8,0.1-1.2c0-0.3-0.1-0.6-0.2-1c-0.2-0.4-0.4-0.8-0.7-1.1
		c-0.5-0.6-1-1.1-1.5-1.7c-0.9-1-1.9-1.9-2.9-2.9c-0.5-0.5-1-1-1.4-1.5c-0.3-0.4-0.6-0.7-0.9-1.1c-0.2-0.3-0.4-0.6-0.6-0.9
		c-0.2-0.4-0.4-0.8-0.6-1.2c-0.2-0.5-0.3-1-0.2-1.5c0-0.3,0.1-0.5,0.2-0.7C94.1,73.2,94.1,73.1,94.2,73z"/>
	<path class="st17" d="M140,88.2c0,0-0.1-0.1-0.1-0.1c0-0.2-0.1-0.3-0.1-0.4c0-0.2-0.1-0.3-0.1-0.5c0-0.1-0.1-0.2-0.1-0.3
		c0-0.1-0.1-0.3-0.1-0.4c0-0.1-0.1-0.3-0.1-0.4c0-0.1,0-0.3-0.1-0.4c0-0.1,0-0.1,0-0.2c0-0.2-0.1-0.3-0.1-0.5c0-0.1,0-0.3-0.1-0.4
		c0-0.1,0-0.3-0.1-0.4c0,0,0-0.1,0-0.1c-0.1-0.2,0-0.3-0.1-0.5c-0.1-0.2,0-0.4-0.1-0.6c0-0.1,0-0.2,0.1-0.3c0,0,0,0,0,0
		c0-0.2,0.1-0.4,0.1-0.6c0.1-0.5,0.4-0.9,0.7-1.3c0.2-0.3,0.3-0.5,0.5-0.8c0.2-0.3,0.5-0.6,0.8-0.9c0.3-0.3,0.6-0.7,1-1
		c0.2-0.2,0.4-0.4,0.6-0.6c0.2-0.2,0.4-0.4,0.6-0.5c0,0,0,0,0,0c0.2-0.2,0.4-0.3,0.5-0.5c0.2-0.2,0.5-0.4,0.7-0.6
		c0.2-0.2,0.4-0.4,0.6-0.5c0.2-0.2,0.5-0.4,0.7-0.5c0.2-0.1,0.3-0.2,0.4-0.4c0,0.1-0.1,0.3-0.2,0.4c-0.3,0.5-0.6,1-1,1.5
		c-0.2,0.3-0.5,0.6-0.7,0.9c-0.8,0.9-1.6,1.8-2.4,2.7c-0.5,0.5-1,1.1-1.4,1.7c-0.3,0.4-0.6,0.9-0.8,1.4c-0.1,0.2-0.1,0.4-0.1,0.6
		c0,0.2,0,0.5-0.1,0.7c0,0.1,0,0.1,0,0.2c0,0.3,0,0.5,0,0.8c0,0.4,0.1,0.8,0.1,1.2c0,0.2,0,0.4,0.1,0.6c0,0.2,0,0.4,0.1,0.6
		c0,0.2,0,0.3,0.1,0.5C140,88,140.1,88.1,140,88.2z"/>
	<path class="st16" d="M128.5,59.8c-0.1,0-0.2,0-0.4,0.1c-0.4,0.2-0.8,0.5-1.2,0.7c-0.3,0.1-0.5,0.2-0.8,0.4
		c-0.2,0.1-0.4,0.2-0.6,0.2c-0.1,0.1-0.3,0.1-0.4,0.1c-0.2,0.1-0.4,0.1-0.7,0.2c-0.1,0-0.3,0.1-0.4,0.1c-0.1,0-0.3,0.1-0.4,0.1
		c-0.2,0-0.4,0-0.5,0.1c-0.3,0.1-0.7,0.1-1,0c-0.1,0-0.2,0-0.3,0c-0.1,0-0.2,0-0.3-0.1c0,0-0.1,0-0.1,0c-0.1,0-0.1,0-0.2,0
		c0,0,0,0,0,0c-0.3-0.1-0.7-0.2-1-0.3c-0.3-0.1-0.6-0.2-0.9-0.4c-0.3-0.1-0.5-0.2-0.7-0.4c-0.1-0.1-0.2-0.1-0.3-0.1
		c0,0-0.1,0-0.1-0.1c0.1,0,0.3,0.1,0.4,0.1c0.3,0.1,0.6,0.2,0.9,0.3c0.3,0.1,0.6,0.2,0.9,0.3c0.4,0.1,0.9,0.2,1.3,0.2
		c0.3,0,0.6-0.1,0.9-0.2c0.4-0.1,0.7-0.3,1.1-0.4c0.3-0.1,0.7-0.3,1-0.4c0.2-0.1,0.5-0.2,0.8-0.3c0.3-0.1,0.5-0.2,0.8-0.2
		c0.3-0.1,0.7-0.2,1-0.2c0.2,0,0.4-0.1,0.6,0C128,59.7,128.3,59.7,128.5,59.8z"/>
	<path class="st16" d="M94.3,72.8c0,0.1,0,0.1-0.1,0.1C94.2,72.9,94.2,72.9,94.3,72.8z"/>
	<path class="st18" d="M136,101.4c-0.1,0-0.2,0-0.4,0c-0.4,0-0.8,0-1.3,0.1c-0.2,0-0.3,0-0.5,0c-0.1,0-0.1,0-0.2,0c0,0-0.1,0-0.1,0
		c-0.2,0-0.4,0-0.6,0c-0.3,0-0.6-0.1-0.8-0.2c-0.2-0.1-0.3-0.3-0.3-0.5c0-0.1-0.1-0.1-0.1-0.2c0.1-0.2,0.1-0.5,0.3-0.7
		c0.1-0.1,0.2-0.2,0.3-0.3c0.2-0.1,0.4-0.3,0.6-0.4c0.2-0.1,0.3-0.2,0.5-0.2c0.3-0.1,0.6-0.2,0.9-0.3c0.2-0.1,0.3-0.1,0.5-0.2
		c0.2-0.1,0.4-0.2,0.7-0.2c0.1,0,0.2-0.1,0.3-0.1c0.2-0.1,0.4-0.2,0.6-0.3c0.3-0.1,0.7-0.3,1-0.5c0.2-0.1,0.4-0.3,0.6-0.4
		c0.2-0.2,0.4-0.4,0.7-0.5c0.2-0.1,0.4-0.2,0.6-0.3c0.4-0.1,0.7-0.2,1.1-0.2c0.3,0,0.6,0.1,0.9,0.3c0.3,0.2,0.5,0.6,0.7,0.9
		c0.1,0.2,0.2,0.4,0.2,0.6c0,0.2,0.1,0.3,0.1,0.5c0,0.2,0,0.3,0.1,0.5c0.1,0.4,0.1,0.9,0.1,1.3c0,0.6-0.3,1.1-0.8,1.4
		c-0.2,0.1-0.4,0.3-0.6,0.4c-0.1,0-0.1,0-0.2,0c0,0-0.1,0-0.1,0c-0.3,0.1-0.5,0-0.8,0.1c-0.2-0.1-0.4,0-0.5-0.1
		c-0.1,0-0.3-0.1-0.4-0.1c-0.2,0-0.4-0.1-0.5-0.1c0,0,0,0,0,0c-0.2,0-0.3-0.1-0.5-0.1c-0.2,0-0.3-0.1-0.5-0.1c0,0-0.1,0-0.1,0
		C136.8,101.3,136.4,101.3,136,101.4z"/>
	<path class="st18" d="M97.3,74.7c-0.1,0-0.2,0-0.4,0c0,0-0.1,0-0.1,0c-0.2,0-0.4-0.1-0.6-0.2c-0.1-0.1-0.3-0.2-0.4-0.2
		c-0.3-0.3-0.5-0.6-0.4-1c0.1-0.2,0.1-0.3,0.3-0.4c0.2-0.3,0.5-0.4,0.8-0.6c0.3-0.1,0.5-0.2,0.8-0.2c0.4,0,0.8,0,1.3,0
		c0.1,0,0.2-0.1,0.3-0.1c0.1,0,0.2,0.1,0.3,0.1c0.7,0,1.4,0,2.1,0c0.1,0,0.1,0,0.2,0c0,0,0.1,0,0.1,0c0.3,0,0.6,0,1,0
		c0.1,0,0.1,0,0.2,0c0.1,0,0.1,0,0.2,0c0.4,0,0.7,0.1,1.1,0.1c0.2,0,0.3,0.1,0.5,0.1c0.2,0,0.4,0.1,0.6,0.3c0.1,0,0.1,0.1,0.1,0.2
		c0,0,0,0.1,0,0.1c0,0,0,0,0,0.1c-0.1,0.2-0.1,0.4-0.3,0.5c-0.2,0.1-0.3,0.2-0.5,0.3c-0.2,0.1-0.3,0.1-0.5,0.1
		c-0.3,0.1-0.6,0.1-0.9,0.2c-0.2,0-0.4,0-0.6,0.1c-0.2,0-0.3,0-0.5,0.1c0,0,0,0,0,0c-0.2,0.1-0.3,0-0.5,0.1c0,0-0.1,0-0.1,0
		c-0.1,0.1-0.3,0.1-0.4,0.1c-0.1,0-0.2,0-0.3,0c-0.4,0-0.8,0.1-1.2,0.1c0,0,0,0,0,0c-0.2,0.1-0.3,0-0.5,0.1c0,0-0.1,0-0.1,0
		c-0.1,0.1-0.3,0-0.4,0.1c-0.1,0-0.2,0-0.3,0c0,0-0.1,0-0.1,0c-0.3,0-0.5,0-0.8,0.1C97.4,74.7,97.3,74.7,97.3,74.7z"/>
	<path class="st18" d="M114.6,60.2c0.1,0,0.3,0,0.4,0c0.1,0,0.2,0,0.3,0.1c0,0,0,0,0.1,0c0.2,0,0.4,0.1,0.6,0.1
		c0.2,0,0.4,0.1,0.6,0.2c0.3,0.1,0.7,0.3,0.9,0.6c0.1,0.2,0.3,0.3,0.4,0.5c0.1,0.2,0.2,0.4,0.2,0.6c0,0.1-0.1,0.2-0.2,0.3
		c-0.1,0.1-0.3,0.2-0.5,0.2c-0.2,0-0.4,0.1-0.5,0.1c-0.3,0.1-0.5,0.1-0.8,0.1c-0.2,0-0.4,0-0.6,0c-0.1,0-0.2,0-0.2,0
		c0,0-0.1,0-0.1,0c-0.2,0-0.3,0-0.5,0c-0.1,0-0.2,0-0.3,0c0,0-0.1,0-0.1,0c-0.2,0-0.3,0-0.5,0c-0.1,0-0.2,0-0.3,0.1
		c-0.2,0-0.4,0-0.6,0c0,0-0.1,0-0.1,0c-0.2,0-0.3,0-0.5-0.1c-0.4-0.1-0.7-0.3-0.9-0.6c-0.2-0.3-0.3-0.5-0.2-0.9
		c0.1-0.3,0.2-0.5,0.4-0.6c0.3-0.3,0.7-0.4,1.1-0.6c0.1,0,0.2,0,0.3-0.1c0,0,0.1,0,0.1,0c0.1,0,0.1,0,0.1,0c0,0,0.1,0,0.1,0
		c0.1,0,0.2,0,0.2,0c0,0,0.1,0,0.1,0C114.2,60.2,114.4,60.2,114.6,60.2C114.6,60.2,114.6,60.2,114.6,60.2z"/>
	<path d="M128.7,72.4c0.2,0,0.5-0.1,0.7-0.1c0.1,0,0.2,0,0.4-0.1c0.3,0,0.5-0.1,0.8-0.1c0.3-0.1,0.5-0.1,0.8-0.2
		c0.2,0,0.3-0.1,0.5-0.1c0.3,0,0.6,0,0.9,0c0.4,0,0.7,0.1,1,0.3c0.2,0.2,0.4,0.4,0.4,0.7c0,0.5-0.3,0.9-0.7,1.2
		c-0.5,0.4-1,0.7-1.6,0.9c-0.5,0.2-1,0.4-1.5,0.6c-0.3,0.1-0.5,0.2-0.8,0.3c-0.2,0.1-0.5,0.1-0.7,0.2c-0.1,0-0.2,0.1-0.4,0.1
		c-0.1,0-0.2,0-0.3,0.1c-0.3,0.1-0.6,0.1-1,0.2c-0.2,0-0.3,0.1-0.5,0.1c-0.2,0-0.4,0.1-0.5,0.1c-0.2,0-0.4,0.1-0.5,0.1
		c-0.5,0-0.9,0.1-1.4,0.1c-0.4,0-0.9,0-1.3,0.1c-0.1,0-0.2,0-0.3,0c-0.7,0-1.3,0-2,0c-0.4,0-0.9,0-1.3-0.1c-0.3,0-0.5-0.1-0.8-0.1
		c-0.2,0-0.4-0.1-0.6-0.1c-0.2,0-0.4-0.1-0.6-0.1c-0.2,0-0.3-0.1-0.5-0.1c-0.1,0-0.3,0-0.4-0.1c-0.2-0.1-0.5-0.1-0.7-0.2
		c-0.2-0.1-0.4-0.1-0.7-0.1c-0.2,0-0.3-0.1-0.5-0.1c-0.3-0.1-0.5-0.1-0.8-0.2c-0.2-0.1-0.4-0.1-0.5-0.2c-0.3-0.1-0.5-0.2-0.8-0.3
		c-0.5-0.2-1-0.4-1.4-0.7c-0.3-0.2-0.5-0.4-0.7-0.7c-0.1-0.2-0.2-0.4-0.2-0.6c0-0.3,0-0.5,0.2-0.8c0.2-0.3,0.4-0.4,0.7-0.4
		c0.3,0,0.7,0,1,0c0.2,0,0.4,0,0.5,0.1c0.1,0,0.3,0,0.4,0.1c0.1,0,0.2,0.1,0.4,0.1c0.3,0.1,0.6,0.1,0.9,0.2c0.2,0,0.5,0.1,0.7,0.1
		c0.3,0,0.6,0,0.9,0.1c0,0,0.1,0,0.1,0c0.4,0,0.9,0.1,1.3,0.1c0.6,0,1.2,0,1.9,0.1c1.2,0.1,2.3,0,3.5,0c0.5,0,1,0,1.5-0.1
		c0.6,0,1.2-0.1,1.8-0.1c0.3,0,0.5,0,0.8-0.1c0.2,0,0.4-0.1,0.7-0.1c0.2,0,0.3-0.1,0.5-0.1c0.2,0,0.4-0.1,0.5-0.1
		C128.5,72.4,128.6,72.4,128.7,72.4z"/>
	<path class="st18" d="M139.1,70.8c0-0.2,0.1-0.3,0.2-0.4c0.1-0.1,0.2-0.3,0.4-0.4c0.1-0.1,0.2-0.2,0.4-0.3c0.2-0.1,0.3-0.2,0.5-0.3
		c0.2-0.1,0.4-0.2,0.6-0.3c0.2-0.1,0.3-0.1,0.5-0.2c0.2-0.1,0.4-0.1,0.5-0.1c0,0,0.1,0,0.1,0c0.1,0,0.2,0,0.3-0.1c0,0,0.1,0,0.1,0
		c0.2,0,0.3,0,0.5,0c0.1,0,0.2,0,0.3,0c0.1,0,0.2,0,0.3,0c0.2,0.1,0.5,0.1,0.7,0.3c0.1,0.1,0.2,0.4,0.1,0.5
		c-0.1,0.2-0.2,0.4-0.4,0.6c-0.4,0.3-0.8,0.6-1.3,0.8c-0.2,0.1-0.4,0.2-0.7,0.2c-0.2,0-0.3,0.1-0.5,0.1c-0.2,0.1-0.4,0-0.5,0.1
		c0,0-0.1,0-0.1,0c-0.2,0-0.3,0-0.5,0c-0.2,0-0.4,0-0.6-0.1c0,0,0,0,0,0c-0.2,0-0.3-0.1-0.5-0.2C139.1,71.1,139.1,71,139.1,70.8z"/>
	<path class="st18" d="M130,71.1c-0.2,0-0.3,0-0.5-0.1c-0.1-0.1-0.2-0.2-0.2-0.3c0-0.1,0.1-0.2,0.2-0.2c0.1-0.1,0.3-0.2,0.5-0.2
		c0.2,0,0.3-0.1,0.5-0.1c0.2,0,0.3,0.1,0.5,0.2c0.1,0.1,0.2,0.2,0,0.4c-0.1,0.2-0.3,0.3-0.6,0.4C130.4,71.1,130.2,71.1,130,71.1z"/>
	<path class="st5" d="M126.1,69.3c0-0.3,0.2-0.5,0.4-0.5c0.3,0,0.5,0.2,0.5,0.5c0,0.2-0.2,0.5-0.4,0.5
		C126.3,69.7,126.1,69.6,126.1,69.3z"/>
	<path class="st19" d="M116.6,69.4c0-0.3,0.2-0.5,0.4-0.5c0.2,0,0.5,0.2,0.4,0.5c0,0.2-0.2,0.5-0.4,0.5
		C116.8,69.8,116.6,69.6,116.6,69.4z"/>
	<path class="st20" d="M128.7,72.4c-0.1,0.1-0.2,0.1-0.3,0.1C128.5,72.4,128.6,72.4,128.7,72.4z"/>
	<path class="st21" d="M131.8,74.8c-0.3,0.2-0.6,0.3-1,0.4c-0.2,0.1-0.4,0.2-0.6,0.3c-0.3,0.1-0.7,0.2-1,0.3c-0.2,0-0.4,0.1-0.5,0.2
		c-0.2,0-0.4,0.1-0.6,0.1c-0.3,0.1-0.5,0.1-0.8,0.2c-0.3,0.1-0.6,0.1-0.8,0.1c-0.2,0-0.3,0-0.5,0.1c-0.2,0-0.3,0-0.5,0.1
		c-0.3,0-0.5,0.1-0.8,0.1c-0.4,0-0.8,0.1-1.2,0.1c0,0,0,0,0,0c-0.8,0-1.7,0.1-2.5,0c-0.4,0-0.8,0-1.2-0.1c-0.2,0-0.4,0-0.6,0
		c-0.3,0-0.5-0.1-0.8-0.1c-0.2,0-0.4,0-0.6-0.1c-0.3-0.1-0.6-0.1-1-0.2c-0.2,0-0.3-0.1-0.5-0.1c-0.1,0-0.2,0-0.3-0.1
		c-0.3-0.1-0.6-0.1-0.9-0.2c-0.4-0.1-0.9-0.2-1.3-0.4c-0.4-0.1-0.7-0.2-1.1-0.3c-0.1,0-0.3-0.1-0.4-0.1c0,0-0.1,0-0.1-0.1
		c0,0,0,0,0,0c0,0-0.1,0-0.2-0.1l0,0c-0.1-0.1,0-0.1,0.1-0.1c0.7-0.1,1.3-0.2,2-0.3c0.4-0.1,0.9-0.1,1.3-0.2c0.3,0,0.6-0.1,0.9-0.1
		c0.3,0,0.5-0.1,0.8-0.1c0.6,0,1.2-0.1,1.9-0.1c1.9-0.1,3.7,0,5.6,0c0.7,0,1.5,0,2.2,0.1c0.4,0,0.8,0,1.2,0.1c0.2,0,0.5,0,0.7,0
		c0.3,0,0.6,0,0.9,0.1c0,0,0,0,0.1,0c0.3,0,0.6,0.1,0.9,0.1c0.3,0,0.6,0,0.9,0.1C131.8,74.7,131.9,74.7,131.8,74.8z"/>
	<path class="st22" d="M131.8,74.8C131.8,74.8,131.9,74.7,131.8,74.8c-0.2-0.1-0.3-0.1-0.4-0.1c-0.3,0-0.6-0.1-0.9-0.1
		c0,0-0.1,0-0.1,0c-0.1,0-0.1,0-0.2,0c-0.2,0-0.3,0-0.5-0.1c-0.1,0-0.2,0-0.4,0c-0.1,0-0.1,0-0.2,0c0,0-0.1,0-0.1,0
		c-0.3,0-0.6,0-1-0.1c-0.2,0-0.5-0.1-0.7,0c-0.3,0-0.5,0-0.8-0.1c-0.1,0-0.2,0-0.4,0c-0.2,0-0.5,0-0.7,0c-0.1,0-0.2,0-0.3,0
		c0,0-0.1,0-0.1,0c-1.8,0-3.6,0-5.4,0c-0.1,0-0.1,0-0.2,0c0,0-0.1,0-0.1,0c-0.2,0-0.4,0-0.6,0c-0.2,0-0.4,0-0.7,0.1c0,0-0.1,0-0.1,0
		c-0.4,0-0.8,0-1.2,0.1c-0.1,0-0.3,0-0.4,0c-0.1,0-0.1,0-0.2,0c0,0-0.1,0-0.1,0c-0.1,0-0.2,0-0.3,0c0,0-0.1,0-0.1,0
		c-0.2,0.1-0.3,0.1-0.5,0.1c0,0-0.1,0-0.1,0c0,0,0,0-0.1,0c-0.3,0-0.5,0.1-0.7,0.1c-0.1,0-0.2,0-0.3,0c-0.1,0-0.3,0.1-0.4,0
		c0,0-0.1,0-0.1,0c-0.1,0-0.1,0-0.2,0c-0.1,0-0.2,0-0.2,0.1c0,0,0,0,0,0c-0.2,0-0.4,0.1-0.5,0.1c-0.1,0-0.1,0-0.1,0.1
		c-0.3-0.1-0.6-0.2-0.8-0.4c-0.2-0.1-0.5-0.3-0.7-0.5c-0.2-0.2-0.3-0.4-0.3-0.6c-0.1-0.3,0-0.7,0.2-1c0.1-0.1,0.1-0.1,0.2-0.1
		c0.3-0.1,0.5-0.1,0.8,0c0.2,0,0.4,0,0.6,0.1c0.2,0,0.3,0,0.5,0.1c0.1,0,0.3,0,0.4,0.1c0.1,0,0.2,0,0.3,0.1c0.2,0,0.3,0.1,0.5,0.1
		c0.2,0,0.3,0,0.5,0.1c0.3,0,0.5,0.1,0.8,0.1c0.1,0,0.3,0,0.4,0c0,0,0,0,0,0c0.3,0,0.7,0.1,1,0.1c0.3,0,0.5,0,0.8,0.1
		c0.1,0,0.2,0,0.3,0c0.5,0,1.1,0,1.6,0.1c0.1,0,0.1,0,0.2,0c0.7,0,1.4,0,2.1,0c0.3,0,0.6,0,0.9,0c0.3,0,0.5,0,0.8,0
		c0.2,0,0.4,0,0.5,0c0,0,0,0,0.1,0c0.5,0,0.9-0.1,1.4-0.1c0.1,0,0.2,0,0.2,0c0,0,0,0,0.1,0c0.3,0,0.5,0,0.8-0.1c0.2,0,0.5,0,0.7-0.1
		c0,0,0,0,0.1,0c0.2,0,0.4,0,0.6-0.1c0.2,0,0.3,0,0.5-0.1c0,0,0,0,0,0c0.3,0,0.6-0.1,0.9-0.1c0.3,0,0.5-0.1,0.8-0.1
		c0.4-0.1,0.7-0.1,1.1-0.1c0.2,0,0.5,0,0.7,0c0.1,0,0.2,0,0.3,0.1c0.3,0.1,0.5,0.2,0.8,0.3c0.3,0.2,0.3,0.5,0.2,0.8
		c-0.1,0.2-0.2,0.4-0.3,0.6c-0.1,0.1-0.2,0.2-0.4,0.3C132.3,74.6,132.1,74.7,131.8,74.8z"/>
	<path class="st22" d="M112.3,75c0.1,0,0.1,0,0.2,0.1C112.4,75.1,112.3,75.1,112.3,75z"/>
	<path class="st22" d="M112.5,75.1c0.1,0,0.1,0,0.1,0.1C112.5,75.2,112.5,75.2,112.5,75.1z"/>
</g>
</svg>
