<?xml version="1.0" encoding="utf-8"?>
<!-- Generator: Adobe Illustrator 25.3.1, SVG Export Plug-In . SVG Version: 6.00 Build 0)  -->
<svg version="1.1" id="Layer_1" xmlns:v="https://vecta.io/nano"
	 xmlns="http://www.w3.org/2000/svg" xmlns:xlink="http://www.w3.org/1999/xlink" x="0px" y="0px" viewBox="0 0 186 171"
	 style="enable-background:new 0 0 186 171;" xml:space="preserve">
<style type="text/css">
	.st0{fill:#FEC803;}
	.st1{fill:#F3BA2F;}
	.st2{opacity:0.1;fill:none;stroke:#191326;stroke-width:3;enable-background:new    ;}
	.st3{fill:#FFFFFF;}
	.st4{fill:#F7C414;}
	.st5{fill:#373737;}
	.st6{opacity:0.16;}
	.st7{fill:#988430;}
	.st8{fill:#7A6A2A;}
	.st9{fill:#BA9F33;}
	.st10{fill-rule:evenodd;clip-rule:evenodd;fill:#CFB66C;}
	.st11{fill-rule:evenodd;clip-rule:evenodd;fill:#E2CC85;}
	.st12{fill-rule:evenodd;clip-rule:evenodd;fill:#F1D789;}
	.st13{fill-rule:evenodd;clip-rule:evenodd;fill:#F4ECB4;}
	.st14{fill-rule:evenodd;clip-rule:evenodd;fill:#F3E19D;}
	.st15{fill-rule:evenodd;clip-rule:evenodd;fill:#F2E8B0;}
	.st16{fill-rule:evenodd;clip-rule:evenodd;fill:#F5EEC0;}
	.st17{fill-rule:evenodd;clip-rule:evenodd;fill:#E6DB9D;}
	.st18{fill-rule:evenodd;clip-rule:evenodd;fill:#E5CB7A;}
	.st19{fill-rule:evenodd;clip-rule:evenodd;fill:#D8C173;}
	.st20{fill-rule:evenodd;clip-rule:evenodd;fill:#E0CD81;}
	.st21{fill-rule:evenodd;clip-rule:evenodd;fill:#DFC57C;}
	.st22{fill-rule:evenodd;clip-rule:evenodd;fill:#E5CC7C;}
	.st23{fill-rule:evenodd;clip-rule:evenodd;fill:#D2C281;}
	.st24{fill-rule:evenodd;clip-rule:evenodd;fill:#E2C270;}
	.st25{fill-rule:evenodd;clip-rule:evenodd;fill:#CCB360;}
	.st26{fill-rule:evenodd;clip-rule:evenodd;fill:#D5B457;}
	.st27{fill-rule:evenodd;clip-rule:evenodd;fill:#D2B257;}
	.st28{fill-rule:evenodd;clip-rule:evenodd;fill:#D2B159;}
	.st29{fill-rule:evenodd;clip-rule:evenodd;fill:#C2A44D;}
	.st30{fill-rule:evenodd;clip-rule:evenodd;fill:#CAA13E;}
	.st31{fill-rule:evenodd;clip-rule:evenodd;fill:#B59544;}
	.st32{fill-rule:evenodd;clip-rule:evenodd;fill:#C89D3A;}
	.st33{fill-rule:evenodd;clip-rule:evenodd;fill:#CEB052;}
	.st34{fill-rule:evenodd;clip-rule:evenodd;fill:#CCA847;}
	.st35{fill-rule:evenodd;clip-rule:evenodd;fill:#C39D3C;}
	.st36{fill-rule:evenodd;clip-rule:evenodd;fill:#D2BA6B;}
	.st37{fill-rule:evenodd;clip-rule:evenodd;fill:#C0993A;}
	.st38{fill-rule:evenodd;clip-rule:evenodd;fill:#A88F33;}
	.st39{fill-rule:evenodd;clip-rule:evenodd;fill:#E3C571;}
	.st40{fill-rule:evenodd;clip-rule:evenodd;fill:#D8B65B;}
	.st41{fill-rule:evenodd;clip-rule:evenodd;fill:#D3AE4D;}
	.st42{fill-rule:evenodd;clip-rule:evenodd;fill:#F4EFC8;}
	.st43{fill-rule:evenodd;clip-rule:evenodd;fill:#EBCC73;}
	.st44{fill-rule:evenodd;clip-rule:evenodd;fill:#E5C66B;}
	.st45{fill-rule:evenodd;clip-rule:evenodd;fill:#E6BD62;}
	.st46{fill-rule:evenodd;clip-rule:evenodd;fill:#B6933F;}
	.st47{fill-rule:evenodd;clip-rule:evenodd;fill:#C49937;}
	.st48{fill-rule:evenodd;clip-rule:evenodd;fill:#DFC068;}
	.st49{fill-rule:evenodd;clip-rule:evenodd;fill:#C99E3D;}
	.st50{fill-rule:evenodd;clip-rule:evenodd;fill:#B58634;}
	.st51{fill-rule:evenodd;clip-rule:evenodd;fill:#E6C367;}
	.st52{fill-rule:evenodd;clip-rule:evenodd;fill:#DCBA5A;}
	.st53{fill-rule:evenodd;clip-rule:evenodd;fill:#E9CE77;}
	.st54{fill-rule:evenodd;clip-rule:evenodd;fill:#CDAE50;}
	.st55{fill-rule:evenodd;clip-rule:evenodd;fill:#D2A83E;}
	.st56{fill-rule:evenodd;clip-rule:evenodd;fill:#C29637;}
	.st57{fill-rule:evenodd;clip-rule:evenodd;fill:#AC8132;}
	.st58{fill-rule:evenodd;clip-rule:evenodd;fill:#A67A2E;}
	.st59{fill-rule:evenodd;clip-rule:evenodd;fill:#8C6228;}
	.st60{fill-rule:evenodd;clip-rule:evenodd;fill:#CBA94C;}
	.st61{fill-rule:evenodd;clip-rule:evenodd;fill:#BE9C44;}
	.st62{fill-rule:evenodd;clip-rule:evenodd;fill:#A17C34;}
	.st63{fill-rule:evenodd;clip-rule:evenodd;fill:#92723A;}
	.st64{fill-rule:evenodd;clip-rule:evenodd;fill:#B18E3E;}
	.st65{fill-rule:evenodd;clip-rule:evenodd;fill:#543E26;}
	.st66{fill-rule:evenodd;clip-rule:evenodd;fill:#806031;}
	.st67{fill-rule:evenodd;clip-rule:evenodd;fill:#B6903C;}
	.st68{fill-rule:evenodd;clip-rule:evenodd;fill:#685026;}
	.st69{fill-rule:evenodd;clip-rule:evenodd;fill:#D4B968;}
	.st70{fill-rule:evenodd;clip-rule:evenodd;fill:#CCA849;}
	.st71{fill-rule:evenodd;clip-rule:evenodd;fill:#585136;}
	.st72{fill-rule:evenodd;clip-rule:evenodd;fill:#252211;}
	.st73{fill-rule:evenodd;clip-rule:evenodd;fill:#C3B378;}
	.st74{fill-rule:evenodd;clip-rule:evenodd;fill:#E6D89C;}
	.st75{fill-rule:evenodd;clip-rule:evenodd;fill:#6F674D;}
	.st76{fill-rule:evenodd;clip-rule:evenodd;fill:#AC924C;}
	.st77{fill-rule:evenodd;clip-rule:evenodd;fill:#9F8E57;}
	.st78{fill-rule:evenodd;clip-rule:evenodd;fill:#EAC970;}
	.st79{fill-rule:evenodd;clip-rule:evenodd;fill:#D7BC6B;}
	.st80{fill-rule:evenodd;clip-rule:evenodd;fill:#453A25;}
	.st81{fill-rule:evenodd;clip-rule:evenodd;fill:#84754B;}
	.st82{fill-rule:evenodd;clip-rule:evenodd;fill:#F7F7E7;}
	.st83{fill-rule:evenodd;clip-rule:evenodd;fill:#F8F6DE;}
	.st84{fill-rule:evenodd;clip-rule:evenodd;fill:#D4C38B;}
	.st85{fill-rule:evenodd;clip-rule:evenodd;fill:#E2D59D;}
	.st86{fill-rule:evenodd;clip-rule:evenodd;fill:#CBAC5A;}
	.st87{fill-rule:evenodd;clip-rule:evenodd;fill:#D6BC6F;}
	.st88{fill-rule:evenodd;clip-rule:evenodd;fill:#DFC677;}
	.st89{fill-rule:evenodd;clip-rule:evenodd;fill:#C4A859;}
	.st90{fill-rule:evenodd;clip-rule:evenodd;fill:#927D49;}
	.st91{fill-rule:evenodd;clip-rule:evenodd;fill:#6E6342;}
	.st92{fill-rule:evenodd;clip-rule:evenodd;fill:#39331F;}
	.st93{fill-rule:evenodd;clip-rule:evenodd;fill:#292311;}
	.st94{fill-rule:evenodd;clip-rule:evenodd;fill:#3F3824;}
	.st95{fill-rule:evenodd;clip-rule:evenodd;fill:#2D2815;}
	.st96{fill-rule:evenodd;clip-rule:evenodd;fill:#82764F;}
	.st97{fill-rule:evenodd;clip-rule:evenodd;fill:#2D2816;}
	.st98{fill-rule:evenodd;clip-rule:evenodd;fill:#574F35;}
	.st99{fill:none;}
	.st100{fill-rule:evenodd;clip-rule:evenodd;fill:#DEC270;}
	.st101{fill-rule:evenodd;clip-rule:evenodd;fill:#CBAF59;}
	.st102{fill-rule:evenodd;clip-rule:evenodd;fill:#E3C677;}
	.st103{fill-rule:evenodd;clip-rule:evenodd;fill:#ECD592;}
	.st104{fill-rule:evenodd;clip-rule:evenodd;fill:#FFFFFF;fill-opacity:0.8;}
	.st105{opacity:0.1;fill:none;stroke:#191326;stroke-width:3.0461;enable-background:new    ;}
</style>
<g>
	<path class="st0" d="M172.4,95c-1-7.8-6.2-14.9-13.3-18.2c-8.6-4-18.7-2.6-27.8-5.3c-11.8-3.5-20.4-13.3-30.9-19.8
		C88,44.1,73.2,41.4,58.8,38.8C49.2,37.1,39.1,35.5,30,39c-12.3,4.9-19.5,20-15.5,32.6c6.8,21.4,37,27.1,46.2,47.6
		c4.8,10.6,3.2,24.1,10.7,32.9c9,10.5,25.5,8.7,38.9,5.5c10.2-2.5,20.3-5.3,30.4-8.2c8.2-2.3,16.8-4.8,22.8-10.8
		c7.5-7.4,4.4-13.1,4.3-21.7C167.9,109.5,173.5,103.3,172.4,95z"/>
</g>
<circle class="st1" cx="70.2" cy="39.8" r="29"/>
<circle class="st2" cx="70.2" cy="39.8" r="27.5"/>
<g>
	<path class="st3" d="M63.9,37.2l6.3-6.3l6.3,6.3l3.7-3.7l-9.9-9.9l-9.9,9.9L63.9,37.2z M54,39.8l3.7-3.7l3.7,3.7l-3.7,3.7L54,39.8z
		 M63.9,42.4l6.3,6.3l6.3-6.3l3.7,3.7l-10,9.9l-9.9-10l0,0L63.9,42.4z M79.1,39.8l3.7-3.7l3.7,3.7l-3.7,3.7L79.1,39.8z M73.9,39.8
		L73.9,39.8L73.9,39.8l-3.7,3.7l-3.7-3.7l0,0l0,0l0.6-0.7l0.3-0.3l2.7-2.7L73.9,39.8L73.9,39.8z"/>
</g>
<path class="st4" d="M120.4,127.4c24.1,0,43.7-19.5,43.7-43.7S144.6,40,120.4,40S76.8,59.7,76.8,83.8S96.3,127.4,120.4,127.4z"/>
<path class="st5" d="M105,75.3c-7.4-0.1-14.8,0-22.2,0c-1.1,0-1.4,0.4-1.3,1.4c0.1,2.8,2.2,5.1,5,5.9h15.6v0.9H89
	c0,0.1,0.1,0.1,0.1,0.3c0.7,3.2,2.5,5.2,5.4,6.2h7.5v0.9h-5.3c0,0,0,0.1,0.1,0.1c0.9,3.4,3.6,5.4,7.2,5.5
	c6.3,0.3,11.5-4.2,11.7-10.3C116,80.6,111.1,75.4,105,75.3z"/>
<path class="st5" d="M158.2,75.3c-7.4,0-14.8-0.1-22.2,0c-6.2,0.1-11.2,5.2-10.8,10.8c0.4,6.2,5.4,10.6,11.7,10.3
	c3.7-0.1,6.2-2.2,7.2-5.5c0,0,0-0.1,0.1-0.1h-5.3V90h7.5c2.9-0.9,4.7-2.9,5.4-6.2c0-0.1,0.1-0.1,0.1-0.3h-13v-0.9h15.6
	c2.9-0.8,4.9-3.2,5-5.9C159.6,75.8,159.2,75.3,158.2,75.3z"/>
<g class="st6">
	<path d="M120.4,127.4c-11.6,0-22.5-4.5-30.7-12.7c-8.3-8.2-12.9-19.1-12.9-30.8S81.3,61.3,89.5,53s19.2-12.8,30.8-12.9l0,0h0.1
		c11.6,0,22.5,4.5,30.7,12.7C159.4,61,163.9,72,164,83.6s-4.5,22.6-12.7,30.9S132.1,127.3,120.4,127.4
		C120.5,127.4,120.4,127.4,120.4,127.4z M120.3,43.2c-10.8,0-21,4.3-28.7,12S79.8,73.1,79.8,83.9s4.3,21,12,28.7
		c7.7,7.6,17.8,11.8,28.6,11.8h0.1c10.8,0,21-4.3,28.7-12S161,94.6,161,83.8s-4.3-21-12-28.7C141.4,47.4,131.2,43.2,120.3,43.2
		L120.3,43.2L120.3,43.2z"/>
</g>
<circle class="st3" cx="120.9" cy="83.8" r="44"/>
<g id="Layer_2_1_">
	<g id="Layer_1-2">
		<g id="Layer_1-3">
			<circle class="st7" cx="121.3" cy="83.8" r="44.9"/>
			<circle class="st8" cx="121.3" cy="83.8" r="43.4"/>
			<circle class="st9" cx="121.3" cy="83.8" r="42.5"/>
			<path class="st10" d="M96,79c-0.3-0.2-0.5-0.5-0.8-0.7c-0.2-0.2-0.5-0.5-0.8-0.7l-0.8-0.7c-0.1-0.1-0.3-0.2-0.4-0.4
				c-0.1-0.1-0.3-0.2-0.4-0.3c-1-1-2-1.9-3-2.9c1,0.9,2,1.9,3,2.8l0.4,0.4c0.1,0.1,0.3,0.2,0.4,0.4l0.8,0.7c0.3,0.2,0.5,0.5,0.8,0.7
				C95.5,78.6,95.8,78.8,96,79L96,79z M82.7,78.9c0,0,3.6,0.4,5.4,0.6c1.6,0.2,6.8,1,6.8,1L82.7,78.9z M82.7,78.9
				c1,0.1,2,0.2,3.1,0.3c0.5,0.1,1,0.1,1.5,0.2l0.8,0.1c0.3,0,0.5,0.1,0.8,0.1l3,0.5l1.5,0.3c0.5,0.1,1,0.2,1.5,0.3
				c-0.5-0.1-1-0.1-1.5-0.2l-1.5-0.2l-3-0.4c-0.3,0-0.5-0.1-0.8-0.1l-0.8-0.1c-0.5-0.1-1-0.1-1.5-0.2C84.8,79.2,83.7,79.1,82.7,78.9
				L82.7,78.9z M94.6,81.5c0,0-3.9,1-5.2,1.4c-1.3,0.4-5.2,1.5-5.2,1.5L94.6,81.5L94.6,81.5z"/>
			<path class="st10" d="M94.6,81.5c-0.9,0.3-1.7,0.5-2.6,0.7l-2.6,0.7c-0.9,0.3-1.7,0.5-2.6,0.8L85.5,84c-0.4,0.1-0.9,0.2-1.3,0.4
				c0.4-0.1,0.9-0.3,1.3-0.4l1.3-0.4c0.9-0.3,1.7-0.5,2.6-0.8c0.9-0.2,1.7-0.5,2.6-0.7C92.8,81.9,93.7,81.7,94.6,81.5L94.6,81.5
				L94.6,81.5z M84.7,86.8c0.4-0.2,5.4-2.5,6.5-3c0.6-0.3,2.2-0.9,2.2-0.9L84.7,86.8z"/>
			<path class="st10" d="M84.7,86.8c0.4-0.1,0.7-0.3,1.1-0.5l1.1-0.5l2.2-1c0.7-0.3,1.4-0.7,2.2-1c0.4-0.2,0.8-0.3,1.1-0.4l0.6-0.2
				c0.2-0.1,0.4-0.1,0.6-0.2c-0.7,0.3-1.5,0.6-2.2,1c-0.7,0.4-1.5,0.6-2.2,1l-2.2,1C86.2,86.2,85.5,86.5,84.7,86.8L84.7,86.8
				L84.7,86.8z M85.2,88.8c0,0,4.5-2.6,6-3.5c0.8-0.4,3.4-1.7,3.4-1.7L85.2,88.8z"/>
			<path class="st10" d="M85.2,88.8c0.8-0.5,1.5-0.9,2.3-1.4l1.1-0.7c0.4-0.2,0.8-0.4,1.2-0.7c0.4-0.2,0.8-0.5,1.2-0.7
				c0.2-0.1,0.4-0.2,0.6-0.3l0.6-0.3c0.8-0.4,1.6-0.8,2.5-1.1c-0.8,0.5-1.6,0.9-2.4,1.3c-0.4,0.2-0.8,0.4-1.2,0.6
				c-0.4,0.2-0.8,0.5-1.2,0.7c-0.4,0.2-0.8,0.4-1.2,0.7l-1.2,0.6L85.2,88.8L85.2,88.8L85.2,88.8z M94.6,84.2c0,0-2.8,2.1-3.7,2.8
				c-0.9,0.7-3.6,2.6-3.6,2.6L94.6,84.2z"/>
			<polygon class="st11" points="110.5,101.4 109.1,98.7 110,95.3 115.9,93.1 113.3,87.9 114.6,82.7 116.9,78 124.1,76.9 
				129.4,71.9 140.8,72.7 143.1,84.9 138.8,100.3 136.3,108.3 126.3,108.7 121.7,105.5 116.3,103.2 			"/>
			<path class="st12" d="M128,101.3c0,0-1.4,0.6-3.7,0.5c-0.7-0.9-5.5-1.3-5.5-1.3s-0.6-0.2-1.6,0.3c-1.1,0.4-2.1,0.4-3,0.6
				c-0.9,0.2-1.9-1-2.6-1.2c-0.7-0.3-1.7-0.9-1.7-0.9l-2-0.2l-4-1.7l-6.4-6.4l-1.7,2.7L95.2,97l1.9,4l5.2,4.8l10.2,2.6l6-1.8
				l7.6-3.2L128,101.3L128,101.3z"/>
			<polygon class="st13" points="91.9,78.7 93.2,74.8 94.7,72.3 99.7,71.9 98.2,76.2 94,83.6 95.8,90.2 92.7,91.7 91.8,90.3 91,87 
				91,83.3 			"/>
			<path class="st14" d="M97.4,101.1l-1-1.3c0,0-0.3-0.6-0.1-1.2c0.1-0.6,0.1-0.6,0.1-0.8c-0.1-0.2-0.7-0.9-0.6-1.6
				c0-0.6-0.1-0.8,0.4-1.3c0.5-0.5,0.3-1.3,0.3-1.3l0.6,0.4l0.1-0.2c0,0,0.2,0.2,0.2,0.5c0.1-0.4-0.2-2.2,0.3-2.6
				c0.5-0.4,1.3,1.9,1.3,1.9L98.7,90l-1.3-3.5l-2.4-3.2l-0.1-3.5v-0.3c0,0-1.1,1.7-1.4,3c-0.2,0.9,0.3,2,0.2,3.3
				c-0.1,1.3-0.2,1.2,0.1,1.7s1.1,1.6,0.8,2.4c-0.3,0.7-1.2,0.2-1.2,0.2s-0.2,0.5-0.4,0.7c-0.1-0.3-0.2-0.5-0.4-0.7
				c0,0.1-0.1,0.3-0.1,0.3s-0.2-0.5-0.3-1.1c-0.2-0.8-0.4-2-0.7-2.5c-0.1,0.3-0.3,1.4-0.3,1.4l0.1,1.6l0.6,2.2l0.6,1.4l0.6,1.8
				l0.5,1.2l0.4,0.9l0.3,2l1.6,1.7l0.9,0.4L97.4,101.1L97.4,101.1L97.4,101.1z"/>
			<path class="st15" d="M92.7,75.5c0,0-1.2,2-1.5,4s-0.6,4.2-0.4,6.9c0.2,2.8,0.6,4.5,1,5.7c0.6,2,2.1,4.8,2.1,4.8l0.1-0.1
				c-0.3-0.5-0.4-1-0.6-1.5c-0.2-0.8-0.3-1.7-0.5-2.1c-0.2-0.4-0.4-0.8-0.6-1.3c-0.1-0.5-0.1-1.3-0.5-1.8c-0.2-0.2-0.4-0.8-0.4-1.5
				c-0.1-0.9,0-1.9-0.1-2.8c-0.2-1.4-0.3-2.4-0.1-3.1c0.1-0.7,0.9-2.8,1.4-4.5c0.3-1.1,0.1-2,0.7-2.9c0.6-0.9,0.9-1.7,1-2.3
				C94.4,72.8,92.7,75.5,92.7,75.5L92.7,75.5L92.7,75.5z"/>
			<path class="st16" d="M98.4,74.7c0,0-0.6,0.2-0.9,0.5c-0.3,0.3-0.4,0.6-0.8,1.1s-0.4,0.9-0.7,1.6c-0.3,0.6-1,1.6-1.1,1.9
				c-0.1,0.3-0.2,1.9-0.4,2.7c-0.2,0.8,0.2,1.7,0.2,1.7l0.4-0.1c0,0,0,0.5,0.4,0.9c0.4,0.4,0.5-1.2,0.5-1.2l1.5-5.2l2.3-1.6l0.3-1.3
				L98.4,74.7L98.4,74.7L98.4,74.7z"/>
			<path class="st17" d="M99.5,77.1c0,0-1.1,0.1-1.6,0.5c-0.2,0.2-0.3,0.3-0.5,0.5c-0.4,0.4-0.9,0.7-1.1,1.1
				c-0.2,0.5-0.5,1.2-0.7,2.5c-0.1,0.6-0.1,1.1-0.1,1.5c-0.1,0.6-0.2,1.1-0.1,1.4c0.1,0.7,0.8,1.1,0.9,1.9l1.5-0.8l1.4-5.5l3-1.9
				l-1.7-1.9L99.5,77.1L99.5,77.1L99.5,77.1z"/>
			<path class="st18" d="M91.6,114.3c0-0.1,0-0.1,0-0.2c0.2-1.9,0.3-3.3,0.4-4.2c0.2-1.3,0.4-1.7,0.4-2.2c-0.1-0.8-0.1-1.3,0-1.9
				c0.1-0.8,0.9-1.7,0.8-2.3c0-0.5-0.3-0.8-0.5-1.1c-0.2-0.3-0.4-0.6-0.4-0.6s1.5-1,1.5-5.1c0,0,0.1,0,0.1,0l0.7,2.1l0.5,0.6
				l1.9,3.6l2.5,2.4l3.7,2.5l2.3,2.5l0.2,6.7l-3,3.9l-0.5,0.9C98.3,119.9,94.8,117.4,91.6,114.3L91.6,114.3z"/>
			<path class="st19" d="M100.8,120.7c0,0,0.1-0.8,0.7-1.4c0.1,0.2,0.2,0.4,0.2,0.5c0.1-0.2,1-1.6,2.9-2c2-0.4,2.4-1.8,2.4-1.8
				l4.1-3.8l4.7-4.4l5.8-2l2.7-0.7c0,0,0.1,0.2-0.1,0.6c0.5,0,1.6-0.3,2.8-0.7c0.5-0.2,0.9-0.3,1.1,0c0.3,0.3,0.4,1.1,0.4,1.5
				c0.6-0.1,1.2-0.7,1.7-0.6c0.8,0.1,1.6,1.1,2.4,1.1c1.1,0,1.6-0.7,2.4-1.2c0.5-0.3,1.1-0.7,1.5-1c0.9-0.7,10.4-3.6,10.4-3.6
				l3.3,0.2l0.5,3.6l-0.3,9.4c0,0-0.1,0.1-0.1,0.1l-15.2,7.9l-21,3.2c-4.7-0.8-9.3-2.3-13.5-4.6L100.8,120.7L100.8,120.7
				L100.8,120.7z"/>
			<path class="st12" d="M92.9,115.5c0.3-0.6,0.6-1.1,0.6-1.3c0,0.4,0.1,1.2,0.2,2.1C93.5,116,93.2,115.8,92.9,115.5L92.9,115.5z"/>
			<path class="st20" d="M108.3,124.3l2.7-0.8l0.2,0.1c0,0,0.1,0.1,0.1,0.3c0.3-0.2,0.6-0.2,0.8-0.3c0.1,0.2,0.2,1,0.7,1.1
				c0.5,0.1,1-0.2,1.6-0.6c0.5-0.4,1.1-1,1.6-1.2c0.2,0.3,0.3,0.6,0.5,1c0.6-0.5,1.7-2.5,3.2-2.4c0.4-1,1.2-1.9,2.1-2.5
				c1.4-1,2.3-1,3.4-0.9c0.4-0.6,1-1,1.6-1.4c0.2,0.1,0.7,0.4,1.3,0.1c0.6-0.3,1.3-1.4,2.3-1.6c0.5-0.1,1,0,1.5,0.3
				c0,0,2.7-2.7,4.6-3.6c-0.1-0.2-0.2-1,2-2.9c0.1,0.1,0,0.4,0.1,0.4c0,0,0.6-0.2,1.3-0.8c0.8-0.6,1.9-1.3,2.5-1.5
				c1.1-0.3,2.4,0.4,2.4,0.4c0.1-0.1,0.2-0.1,0.3-0.2c0.3-0.1,0.5-0.1,0.7-0.1c0,0.4,0.2,1,0,1.6c0.2,0.1,0.5,0.2,0.7,0.3
				c-0.1,0.3-0.4,1-0.8,1.3c0.4,0.2,0.4,0.4,1,0.6c-0.2,0.3-0.6,0.8-0.7,1.1c-0.2,0.3-0.7,1.8-1,2.3c-0.3,0.5-0.6,1.5-0.8,1.7
				c-0.2,0.2-0.8,1-1.3,1.5c0.4-0.2,2.2-0.7,2.9-0.9c-0.2,0.3-1.4,2-2.4,3.6C132.7,126.6,120,128.1,108.3,124.3L108.3,124.3z"/>
			<path class="st21" d="M99.7,76.9c0,0-0.6,0-0.8,0.1c-0.1,0.1,0.6,0.3,0.9,0.4c0.2,0.1,0.7,0.5,0.9,0.8c0.1,0.3,4.5,2.1,4.5,2.1
				l3.1-0.2l1.1-1.5l-2-1.8l1.4-4.2l-1.9,0.3l-4.6,2.7l-2.3,0.9L99.7,76.9L99.7,76.9z"/>
			<path class="st22" d="M106.5,78.3c0.1,0.1,0.3,0.2,0.4,0.2c0.6,0,1.2,0.2,1.5,0.5c0.4,0.5,1.6,2.2,1.6,2.2l2.7,1l0.2-3.2l-3-2.1
				l-3.4,1.3L106.5,78.3L106.5,78.3L106.5,78.3z"/>
			<path class="st23" d="M106,79.5c0,0,0.5,0,1.1-0.2s1.7-0.7,2.1-0.5c0.6,0.3,0.5,1.1,1.2,1.9c0.4,0.5,1.2,0.5,1.6,1
				c0.4,0.5,1.9,0.3,1.9,0.3l0.6,3l-2.2,2.9l-0.7,3.6h-3l-2.8-1.1l-1.4-3.3l0.7-3.3L106,79.5L106,79.5z"/>
			<path class="st24" d="M111.9,79.7c0.1,0,0.2,0,0.2,0c-0.1,0.1-0.3,0.2-0.2,0.6c0.1,0.4,0.3,0.9,0.1,1.3c0.2,0.2,0.3,0.4,0.3,0.6
				c0.1,0.4,0.2,0.7,1,0.7c-0.1,0.1-0.2,0.2-0.3,0.3c0,0,0.6,0.5,0.8,0.9c0.3,0,1.1-0.3,1.1-0.3L115,84l0.3-0.1c0,0-0.3-0.1-0.1-0.9
				c0.2-0.7,0.4-0.6,0.4-0.7c0-0.1,0.2-0.8,0.2-1.1c0.1-0.4,0.2-1.5,0.2-1.5l-0.2-2.5l-1.3-0.8l-1.1-1l-1,1.9l-0.7,0.7l-0.1,1.6
				L111.9,79.7L111.9,79.7z"/>
			<path class="st25" d="M115,77.5c0,0,0.2,0.7,0.3,1.2c0-0.1,0-0.2,0.1-0.3c0,0,0.2,1,0.2,1.4c0.1,0,0.1,0,0.2,0
				c0,0.1,0.2,0.9,0.1,1.3c0.3-0.5,0.7-0.9,1.2-1.2c0.3-0.2,0.6-0.4,1-0.4c0.6,0,1,0.4,1.6,0.4c1.6,0,3.1-1.2,4.1-1.5
				c0.8-0.3,1.5-0.5,2-0.9c0.2-0.2,0.6-0.6,1-1.3c0.5-0.9,1-1.6,1.5-1.7c-0.2,0-0.5,0.1-0.7,0.1c0,0,0.2-0.2,0.4-0.4
				c0.3-0.2,0.6-0.5,1.1-0.5c0.8,0,1.2,0.1,1.7,0.1c0.5,0,0.7-0.1,0.7-0.1s0.5,0.3,1.6,0.3c1.1,0,1.8,0.1,2.4,0.2
				c0.6,0.1,2.5-0.2,3-0.1c0.4,0,0.7,0.1,1,0.3l-1.8-5.2l-6.4-5.6l-3.8,2.7l-5.9,5.9l-5.7,2.1l-1.2,1.3L115,77.5L115,77.5z"/>
			<path class="st26" d="M127.7,74.6c0,0,0.2-0.2,0.4-0.4c0.3-0.2,0.6-0.5,1.1-0.5c0.8,0,1.2,0.1,1.7,0.1c0.5,0,0.7-0.1,0.7-0.1
				s0.5,0.3,1.6,0.3c1.1,0,1.8,0.1,2.4,0.2c0.6,0.1,2.5-0.2,3-0.1c0.4,0,0.7,0.1,1,0.3l-0.8-2.3l-0.9-1.8l-2.7-2.9
				c0,0-3.2-1.9-3.2-1.9c0,0-1.1-0.3-1.1-0.3l-2.9,1.8l-2.6,6.8l-0.1,1.4l1.7,0.8c0.4-0.7,0.9-1.3,1.3-1.4
				C128,74.6,127.7,74.6,127.7,74.6L127.7,74.6L127.7,74.6z"/>
			<path class="st27" d="M127.7,75.1c-0.3,0-0.5,0-0.5-0.2c-0.2-0.6-0.4-0.7-0.6-0.7s-0.4,0.4-0.6,0.4c-0.1,0-0.3-0.4-0.3-0.4
				l-0.2-0.1c0,0-0.9,0.6-1.6,1.3c-0.7,0.7-1.7,1.9-2.2,2.2c-0.5,0.2-2.2,0.3-2.7,0.4c-0.6,0.1-1.2,0.5-1.3,0.6s0.3,0.2,0.3,0.3
				c0.1,0.1-0.6,0.1-0.6,0.1c0,0.1,0.1,0.5,0.2,0.7c0.2-0.1,0.3-0.1,0.5-0.1c0.6,0,1,0.4,1.6,0.4c1.6,0,3.1-1.2,4.1-1.5
				c0.8-0.3,1.5-0.5,2-0.9c0.2-0.2,0.6-0.6,1-1.3C127.1,75.8,127.4,75.4,127.7,75.1L127.7,75.1L127.7,75.1z"/>
			<path class="st28" d="M104.5,111c0,0-0.1-0.5-1.5-1.9c-0.4-0.4-0.6-0.7-0.9-1c-0.6-0.6-1-0.8-1.5-1.1c-1-0.7-2.1-0.7-2.9-1.6
				c-0.8-0.9-1.8-2.6-2.5-4.4c-0.7-1.8-0.8-2.3-0.8-2.4s0.2-0.4,0.4-0.3c0.2,0.1,0.2,0.5,0.3,0.6c0.1,0.2,0.2,0.3,0.4,0.5
				c0.3,0.4,0.8,0.9,1.1,1.6c-0.1-0.6-0.3-1.3-0.3-1.3s1.3,0.8,2.4,1.6c1.1,0.8,1.5,1.1,1.9,1.7c0.3,0.5,1.1,2,1.4,2.4s5.3,2,5.3,2
				l2.4,1.8l1.2,2.6l-0.9,1.4l-1.8,0.4l-2.9-1.3L104.5,111L104.5,111L104.5,111z"/>
			<path class="st29" d="M98.2,102.2c0,0,0.6,1,2,1.9c1.3,0.8,3.4,1.5,5.2,1.9c1.1,0.3,2.1,0.4,3.1,0.5c2.6,0,4.3-0.7,6.5-0.9
				c1.2-0.1,2.6-0.2,4.1-0.6c1.9-0.5,3.1-1,4.6-1.7c1.1-0.5,2.2-0.9,3-1.4c1.2-0.7,2-1.5,3-1.7c-0.1,0.3-0.3,1-1.2,1.6
				c0.5,0,1.2-0.1,1.2-0.1s-0.7,0.4-1.9,1.3c-0.8,0.6-1.8,1.5-2.8,2.2c-0.7,0.4-1.4,0.7-1.9,1c-1.1,0.6-1.6,1-2.4,1.7
				c0.3,0,0.3,0,0.3,0s-1,0.1-1.6,0.5c-0.1,0-0.4-0.1-0.8,0.1c-0.3,0.1-0.8,0.4-1.3,0.5c-0.7,0.2-0.9,0.1-0.9,0.1l0.1,0.2
				c0,0-0.9,0-1.1,0c0.1,0,0,0,0,0c-0.1,0-0.1,0-0.1,0.1c-0.1,0.1-0.3,0.2-0.4,0.2c-0.1,0-0.2,0-0.3,0c0,0.1,0.3,0.6,0.5,0.9
				c-0.1,0.1-1.7,1.3-1.7,1.3c0.1,0.1,0.1,0.2,0.1,0.3c0.1,0.2,0.1,0.4,0.1,0.5c0.1,0.2,0.2,0.3,0.2,0.3s-0.2,0-0.5,0.1
				c-0.3,0.1-0.6,0.2-1.1,0.3c-0.2,0-0.3,0-0.5,0c0.1,0.2,0.4,0.8-0.2,1.5c-0.6,0.7-0.8,0.8-1,1.3c-0.1-0.1-0.2-0.1-0.3-0.2
				c-0.2-0.1-0.5-0.2-0.6-0.4c-0.1,0.2-0.1,0.5-0.2,0.7c-0.2,0.5-0.4,1-0.5,1.3c-0.2-0.2-0.6-0.6-1.1-0.6s-0.9,0.8-1,1
				c0-0.1-0.1-0.2-0.1-0.1c0,0.2-0.3,1.8-1.8,3.2c0-0.3,0-1.1-0.1-1.3c-0.1,0.1-0.3,0.4-1.4,0.8c-1,0.4-0.9,0.9-0.9,0.9
				s-0.1-0.7,0.5-1.5c0.6-0.8,0.9-1.1,0.9-1.2c0-0.1,0-0.1-0.1-0.2c-0.1-0.1-0.2-0.2-0.2-0.2c0.1,0,1-0.4,0.9-1.3
				c-0.1-0.8-0.4-1.2-0.6-1.5c0,0,0.3-0.3,0.3-0.4c0-0.1-0.5-0.4-0.6-0.6c0-0.1,0-0.2,0.1-0.3c0.1-0.2,0.1-0.3,0.1-0.4
				c0-0.2-0.2-0.7-0.3-0.7c0.1,0,0.4,0,0.4,0s-0.3-0.5-0.3-0.7s-0.2-0.8-0.2-0.9c0.1,0,0.4,0,0.4,0c0-0.1-0.3-0.3-0.1-0.4
				c0.1,0,0.3,0.1,0.4,0.3c-0.1-0.2-0.2-0.7-0.5-0.9c0.1-0.1,0.6-0.2,1.1,0.1c0.4,0.3,0.6,0.6,0.6,0.6s0.3,0.2,0.6,0.5
				c0.4,0.4,1,0.9,1.9,1.2c0.2,0.1,0.7,0.1,1.1,0c0.2,0,0.3-0.1,0.4-0.2c0.1,0,0.1-0.1,0.2-0.1c-0.1-0.2-0.2-0.3-0.3-0.5
				c0.1,0,0.3,0,0.3,0s0.1-0.2-0.3-0.6c0.1-0.1,0.2-0.1,0.2-0.3c-0.1,0-0.3-0.2-0.4-0.3c0.1-0.1,0.2-0.2,0.3-0.3
				c-0.1-0.1-0.4-0.5-0.5-0.5c0.1,0,0.2-0.1,0.3-0.2c0,0-0.6-0.2-0.8-0.3c-0.2-0.1-0.5-0.4-0.7-0.5c-0.2-0.1-0.5-0.1-0.6-0.3
				c0.1,0,0.3,0,0.5,0c0.1,0,0.2,0,0.2,0c0-0.1,0-0.2,0.3-0.2c0.1,0,0.3-0.1,0.4-0.1c0,0-0.3,0-0.6-0.3c-0.3-0.3-0.6-0.5-0.7-0.6
				c-0.2,0-0.5,0.1-0.7,0.1c-0.3,0-0.4-0.2-0.4-0.2s-1,0.1-3.1-1.2c-1.9-1.1-2.7-2.1-2.7-2.1c-0.2-0.1-0.3-0.1-0.5-0.2
				C99.2,103.9,98.2,103.1,98.2,102.2L98.2,102.2L98.2,102.2z"/>
			<path class="st30" d="M124.9,58.6c0.2,0.1,0.3,0.2,0.4,0.3c0.3,0.4,0.6,1.1-0.2,1.9c0.3,0.1,0.4,0.1,0.7,0.1
				c-0.3,0.3-0.9,1-0.9,1.6c0,0.5,0.3,0.6,0.3,0.6s-0.5,0.5-0.5,1.4c0.2-0.2,0.5-0.5,0.7-0.7c0.5-0.4,1.3-0.9,1.8-1.2
				c0,0.1,0,0.3,0.1,0.4c0,0,0.9-0.8,1.7-0.4c0.4,0.2,0.2,0.7,0.2,0.7s0.5-0.2,0.8,0.2c0.3,0.3,0.8,1.2,1.1,1.6
				c0.1,0.2,0.4,0.5,0.7,0.9c0.4,0.7,0.7,1.4,1,2.1c0-0.4,0.1-1,1.2-0.6c1.1,0.4,2.3,1.2,3.3,2.7c1,1.6,1.3,3.3,1.8,4
				c0.5,0.6,1.1,1.7,1.1,2.2c0,0.5-0.2,1.9,0.9,5.8c0.3-1.2,0.8-3.9,0.8-3.9l0.3-2.4l0.3-7.4l-7.7-6.4l-6-4.4l-3.9,0.4L124.9,58.6
				L124.9,58.6L124.9,58.6z"/>
			<path class="st31" d="M139.3,69.6c0,0-0.1-0.7-1.9-1.9c-1.8-1.2-3.2-1.2-4.5-2.2c-1-0.8-2-2.7-2.7-3.3c-0.7-0.6-0.8-2.3-0.8-2.3
				l2.2-1.9l3.3-4.8l2.8-3.1l1.3,1.9l1.9,2.2l1,4.4l0.4,6.4L139.3,69.6L139.3,69.6z"/>
			<path class="st32" d="M141.5,77.3c0.1-1-0.1-2-0.4-2.9c-0.5-1.5-1.5-4.1-2-5.1c-0.2-1.1-0.1-1.2,0.2-1.3s1-0.6,1.4-2.2
				c0.4-1.6,1.8-1.6,1.8-1.6l0.8-0.6l1.3,3.1l1.1,2.8l0.3,2.2l0.3,1.9l-0.6,3.9l-2.9,2.7L141.5,77.3L141.5,77.3L141.5,77.3z"/>
			<path class="st33" d="M100.5,120.9L100.5,120.9c0.1-0.1,0.1-0.2,0.2-0.2c0.1-0.1,0.1-0.2,0.1-0.2c0.1,0,0.4-0.1,0.6-0.1
				c0.2,0,0.7,0.2,0.9,0.2c0.5,0,1.1-0.4,2.1-0.2c1.5,0.3,1.8,1.3,2.6,1.8c0.6,0.4,1.2,0.2,1.3,0.2h0.2c0,0,0.3-0.3,0.5-0.3
				c0.3,0,0.3,0.3,0.5,0.3c0.4,0.1,1.3-0.2,1.7-0.1c0.2,0.1,0.4,0.3,0.5,0.5c0.1,0.3,0,0.6-0.2,0.8c-0.4,0.4-0.9,0.8-1,1.1
				c0.1,0.1,0.2,0.2,0.3,0.3C107.2,124.1,103.7,122.7,100.5,120.9L100.5,120.9z"/>
			<path class="st34" d="M139.1,106.4c0,0,1.1-1.5,1.5-2.3c0.4-0.8-1.2-10.5-1.2-10.5l3.3-10.8l-0.1-3.5c0,0,0.2-3.2,0.5-4.6
				c0.5,0.8,1.9,1.8,2.2,2.3c0.1-1,0.6-3.1,0.6-5.3c0.3,0.4,0.9,4.6,0.9,4.6l0.6,2.8l0.8,3l0.9,3.1l0.6,2.2l0.3,0.5l0.3,0.9l0.3,1
				l0.7,2.3l0.4,1.9l0.3,3.4c0.1,0.3,0.1,0.5,0.2,0.8c0,0.4-0.1,0.6-0.1,0.7s0.1,0.8,0.1,1.4c-0.1,0.6-0.1,1-0.5,1.4
				c-0.5,0.4-0.7,2.9-0.7,2.9l-0.8-0.5c0,0,0.2-0.7-0.2-1.4s-1.1-0.8-1.5-0.7c-0.4,0.1-1.2,0.2-1.5,0.4c-0.3,0.2-0.9,1-1.5,1.3
				c-0.7,0.4-1.9,0.5-2.5,0.6c-0.6,0.1-1.3,0.6-2.1,1.1C140.4,105.8,139.8,106.2,139.1,106.4L139.1,106.4L139.1,106.4z"/>
			<path class="st35" d="M139.1,122.3c0,0,0,0,0.1,0.1c5.2-2.4,9.8-5.8,13.6-10.1c0-1.5-0.1-3-0.2-3.5c-0.1-1.2,0-2.4-0.1-3.1
				c0-0.7-0.4-3.5-0.6-4.3c-0.2-0.7-0.6-1.1-0.6-1.1c-0.1,0-0.4,1.4-0.4,1.7s-0.1,1.2-0.1,1.4c-0.1,0-0.1-0.1-0.1-0.2
				c-0.1,0.2-0.2,0.5-0.2,0.5c0,0,0.1-0.3,0-0.4c-0.1-0.1-0.1,0-0.1-0.2c0-0.1,0-0.2,0.1-0.3c0,0-0.2,0.3-0.4,1.1
				c-0.2,0.8-0.2,0.8-0.2,0.9c-0.1,0.1-0.3,0.4-0.4,0.5c0,0.2,0.3,0.4,0.3,0.5c0,0.2-0.3,1-0.3,1.4c-0.1,0.4-0.1,1.2-0.1,1.6
				c-0.1,0.4-0.1,0.6-0.4,0.8c0.2,0,0.4,0.1,0.4,0.1s0.3,1.1-0.4,2c-0.2,0.3-0.3,0.5-0.5,0.8c-0.5,0.5-0.9,1.1-0.9,1.5
				c0-0.1,0-0.2-0.1-0.4c0,0-0.8,0.9-1.1,1.4c-0.4,0.6-1,0.6-1.1,0.8s-0.2,0.4-0.1,0.7c-0.1,0-0.4,0.1-0.6,0.6
				c-0.1,0.3-0.3,0.6-0.6,0.8c-0.3,0.2-0.8,0.3-1,0.3c0.2,0.1,0.3,0.1,0.3,0.1c-0.1,0.2-0.6,0.5-1.2,0.8c-0.6,0.3-0.8,0.8-1,1.2
				c-0.1,0.3-0.4,0.5-0.7,0.5c0.1,0.1,0.4,0.3,0.5,0.4c-0.2,0-0.4,0-0.9,0.5C139.5,122.1,139.4,122.2,139.1,122.3L139.1,122.3
				L139.1,122.3z"/>
			<path class="st36" d="M129,125.6c0.3-0.2,0.6-0.4,0.9-0.5c1.1-0.4,2.3-0.5,2.8-0.7c0.5-0.1,0.8-0.3,1.4-0.5c0,0.1,0,0.2,0,0.4
				C132.4,124.9,130.7,125.3,129,125.6L129,125.6z"/>
			<path class="st37" d="M149.9,95.9c0,0-0.2,1.3-0.6,2c-0.4,0.8-0.9,1.9-0.9,1.9c0-0.2,0-0.5,0.1-0.7c-0.5,0.3-1.8,1-2.2,1.4
				c-0.3,0.3-0.9,0.8-1.1,1.1c0.3-1,0.7-1.9,0.8-2.3c-0.5,0.4-3,2.4-4.2,3.7l-4,3.2c-0.5,0.2-0.9,0.5-1.4,0.7
				c-0.7,0.3-1.5,0.5-2.1,0.8c0.2-0.4,0.4-0.8,0.8-1.2c0.4-0.4,1.5-1.6,1.7-2.2c0.2-0.6,0.2-1,0-1.5c-0.2,0.1-0.6,0.1-1,0.2
				c-0.3,0.1-0.6,0.4-0.6,0.4s0.2-1.3,0.7-2.6c-0.4,0-1,0.1-1,0.1s0.9-1.5,2.4-2.6c-0.5,0.1-0.9,0.2-1.4,0.4
				c-0.9,0.4-1.9,0.9-2.6,1.2c0.4-0.6,3.3-4.7,5-8.6c1.7-3.9,2.4-4.8,2.7-6.9c0.2-1,0.1-2.5,0.2-3.9c0.1-1.3,0.2-2.5,0.1-3.4
				c0.4,0.6,2.1,2.1,2.2,5.7c0.1,3.5-1.6,8.3-3.4,10.8c0.4,0.1,1.5,0.3,2.7-1.7c1.1-2,1.1-2.5,1.5-3.4c0.1,0.4,0,0.6,0,0.6
				s1.7-2,2.5-4.6c0.2,1.1,0.6,2.1-0.1,4.1c-0.7,1.8-1.5,2.3-1.5,2.3s0.4-0.1,1.1-0.5c0.1,0.3,0.1,0.6,0.3,0.7s0.4,0.3,0.5,0.5
				c0.2-0.3,0.5-0.7,0.6-0.9c-0.1,0.6-0.1,3.1,0.1,4.4c0.6-0.1,1.1-0.1,1.5-1.1c-0.3,1-0.3,1.6-0.1,2.4
				C149.7,96.2,149.9,95.9,149.9,95.9L149.9,95.9L149.9,95.9z"/>
			<path class="st38" d="M131.1,55.8c0,0-0.6,0.2-1.5,0.2c-0.8,0-0.6-0.3-1.9-0.3c-2,0-8.9,1.1-10.2,1.1c-0.8,0,2.7,0.3,2.7,0.3
				l8.9,0.1l1.8-0.1l0.7-1.3L131.1,55.8z"/>
			<path class="st39" d="M108.1,73.1c0,0-1.1,0.9-1.6,1.5c-0.5,0.7-0.7,1.1-1.3,1.6c0.1,0,0.3,0,0.4-0.1c0,0,0,0.1-0.1,0.2
				c0.2,0,0.3,0,0.4,0.1c-0.2,0.1-0.6,0.5-0.3,1c0.3,0.4,0.8,0.4,0.8,0.4s-0.1,0.4,0.4,0.3c1.1-0.1,2.4-0.5,2.9-0.4
				c0.6,0.1,0.9,0.2,1.3,0.9c0.4,0.7,0.8,0.8,0.8,0.8s0.3-0.6,0.2-1.6c0.2-0.5,0.3-1.1,0.3-1.6l-0.4-2.8l-1.6-2.1l-2.1,1.2
				L108.1,73.1L108.1,73.1z"/>
			<path class="st40" d="M110.1,72.7c0,0,0.2,0.4,0.8,0.4c-0.1,0.2-0.1,0.2-0.1,0.3c0,0.1,0,0.3,0,0.3c0.1,0,0.1-0.1,0.2-0.1
				c0,0.2,0,0.4,0,0.6c0,0.1,0.1,0.2,0.1,0.3c0,0,0,0,0-0.1c0,0,0.1,0.4,0.5,0.7c0-0.1,0-0.1,0-0.1c0,0.1,0,0.2,0.1,0.3
				c0,0-0.1,0-0.1-0.1c0,0,0,1.1,0.2,1.7c0,0,0.1-0.1,0.1-0.1c0,0,0,0.3-0.1,0.6c-0.1,0.3,0,0.6,0,0.6c0.1-0.1,0.3-0.2,0.4-0.3
				c0.2-0.1,0.6-0.4,0.8-1c0.1-0.3,0.2-0.7,0.3-1c0.1,0.1,0.1,0.3,0.1,0.4c0,0.2,0.4,0.1,0.4,0.1l0.1-0.8l0.4-1.8l0.4-1.1l1.9-2.9
				l3.4-2.6l3,0.7l2.5-3.4l-4.3-2.6l-4.1,0.4l-3.7,5.1l-3,4.7L110.1,72.7L110.1,72.7L110.1,72.7z"/>
			<path class="st41" d="M131.6,65.3c0,0-0.3,0.1-1,0.4s-1.2,0.5-1.5,1.1c-0.3,0.6-0.3,1-0.3,1s0.5-0.2,0.8-0.3
				c0.3-0.1,0.6-0.1,0.6,0.1c0,0.1-0.1,0.2-0.1,0.2c0,0,0.6,0,0.6,0.3c0,0.3-0.1,0.6-0.2,0.7c-0.1,0.1-0.6,0.4-0.6,0.5
				c-0.1,0.3,0.1,0.4,0,0.6c-0.1,0.3-0.3,0.8-1.1,1.7c-0.8,0.9-1.1,1.6-1.1,1.6s-0.4-0.7-0.6-1.4c-0.1,0.1-0.9,0.5-0.9,0.5l-1.8-6.2
				l0-0.4c0,0,0.2-0.2,0.2-0.6c-0.3-0.1-0.3-0.2-0.7-0.5c-0.4-0.3-0.6-0.8-1.2-1c-0.1-0.2-0.2-0.4-0.6-0.5c-0.4-0.1-0.7-0.2-0.7-0.2
				s0.2-0.1,0.3-0.3c-0.3,0-0.5,0.1-1.1,0.1c-0.6,0-0.7,0-1,0s-0.7,0.2-0.9-0.3c-0.2-0.1-0.5,0-0.8,0.4s-0.4,0.8-1,0.9
				c0,0.2-0.1,0.5-0.3,0.7c-0.2,0.3-0.4,0.5-0.8,0.9c-0.5,0.6-0.5,1.7-1.3,2.5c-0.9,0.8,0.1-2.2,0.1-2.2l1.4-3.3l3.9-3.8l6.1-0.4
				l0.6,3.2l3,1L131.6,65.3L131.6,65.3L131.6,65.3z"/>
			<path class="st30" d="M132.5,66l-2.6-3.7l-1.8-1.4c0,0-1.3-2.4-1.4-2.4c-0.1-0.1-1.3-0.2-2-0.2l0.1,0.4c0.2,0.1,0.3,0.2,0.4,0.3
				c0.3,0.4,0.6,1.1-0.2,1.9c0.3,0.1,0.4,0.1,0.7,0.1c-0.3,0.3-0.9,1-0.9,1.6c0,0.5,0.3,0.6,0.3,0.6s-0.5,0.5-0.5,1.4
				c0.2-0.2,0.5-0.5,0.7-0.7c0.5-0.4,1.3-0.9,1.8-1.2c0,0.1,0,0.3,0.1,0.4c0,0,0.9-0.8,1.7-0.4c0.4,0.2,0.2,0.7,0.2,0.7
				s0.5-0.2,0.8,0.2s0.8,1.2,1.1,1.6c0.1,0.2,0.4,0.5,0.7,0.9c0.4,0.7,0.7,1.4,1,2.1c0-0.3,0.1-0.7,0.6-0.7L132.5,66L132.5,66z"/>
			<path class="st42" d="M94.1,76.5c0,0-0.2-0.5,0-1.3c0.2-0.9,0.5-1.3,0.6-2.6s0.9-2.9,0.9-2.9l2.3-1.1l1.6,0.4l0.5,2.2L98,72.4
				c0,0-0.1,0.5-0.7,0.9c-0.6,0.4-1.4,0.7-1.6,1.1c-0.1,0.2-0.2,0.5-0.3,0.8c0,0-0.6-0.1-1,0.3C94.1,75.8,94.1,76.2,94.1,76.5
				L94.1,76.5z"/>
			<path class="st43" d="M98.8,75.9c0,0-0.2,0.1-0.3,0.4c-0.1-0.2-0.5-1.6-0.5-2.9c0-1.2-0.1-1.5,0.2-2s1.4-0.9,1.3-1.6
				c-0.2-0.7-0.8-1-1.6-0.8c-0.6,0.1-1,1.4-1.6,2c-0.5,0.5-1,0.4-1.1,0.6c-0.2,0.3,0,0.7-0.1,0.9c0,0.1-0.2,0.5-0.5,0.9
				c-0.7,1-1.8,2.3-1.9,3.5c0.1-0.7,0-0.7,0.2-1.5l-0.1-0.2l0.7-2.4l0.5-1.9l1-3.2l1.8-3.3l1.8-2l1.9,0.1l0.2,2.8l1.1,5.2l2.2,2.7
				l-3.6,2.4L98.8,75.9L98.8,75.9L98.8,75.9z"/>
			<path class="st44" d="M99.9,76.9c0,0-0.3,0.1-0.4,0c-0.1-0.1-0.2-0.1-0.2-0.2s0.2-0.2,0.2-0.3c0-0.1-0.1-0.2-0.2-0.2
				c-0.2,0-0.2,0.1-0.2,0.1s-0.2-0.1-0.3-0.1c0.1,0,0.2,0,0.2,0c-0.2-0.1-0.4-0.2-0.6-0.2c0.2-0.1,0.5-0.4,0.8-0.4
				c0.2,0,0.4,0,0.3-0.2c0-0.1-0.2-0.3-0.4-0.4c0.1-0.1,0.1-0.2-0.1-0.6c-0.2-0.4-0.1-0.6-0.1-0.7c0.1-0.1,0.2-0.3,0.3-0.4
				s0.2-0.3,0.3-0.4c0.1-0.1,0.3-0.1,0.5-0.2c0.3-0.1,0.5-0.2,0.6-0.1c0.2,0.1,0.1,0.3,0.1,0.3s0.5-0.2,1,0.1
				c0.5,0.2,1.5,0.4,1.5,0.4l0.4,0.8l-2.6,2.2l-1.1,0.5L99.9,76.9L99.9,76.9L99.9,76.9z"/>
			<path class="st45" d="M103.5,73.2c0,0-0.8,0.5-1,0.7c0.1,0,0.3,0.1,0.2,0.2c-0.1,0.1-0.6,0.5-0.9,0.8c-0.3,0.4-0.6,0.8-0.7,1
				c-0.1,0.2-0.9,0.8-1.2,0.8c0.6,0,1.8-0.7,2.2-0.7c0,0.2,0.1,0.5,0.4,0.5c0.3,0,1,0.2,2-0.4c1-0.6,0.7-1,1.1-1.3
				c0.8-0.5,1.1-1,1.5-1.3c0.4-0.3,0.7-0.4,0.7-0.4s0-0.2,0.1-0.2c0.1,0,0.1,0.1,0.2,0.1c0,0,0.8-0.5,1.7-0.7c0,0,0,0-0.1-0.1
				c0,0,0.1,0,0.1-0.1c0,0,0.1-0.1,0.1,0c0,0,0.1,0.3,0.2,0.4c0.2-0.1,0.5-0.8,0.5-0.8l0.7-2.1v-1.9l-0.6,0.1l-4.3,1.8l-2.6,2.7
				L103.5,73.2L103.5,73.2z"/>
			<path class="st46" d="M115.9,63.8c0.2-0.1,0.5-0.1,0.7-0.3c-0.1,0.2-0.1,0.5-0.5,1c-0.4,0.6-0.4,0.6-0.7,1.2
				c-0.3,0.6-0.3,1.5-0.6,1.8c0.1-0.1,0.3-0.1,0.4-0.1c0,0-0.3,0.3-0.4,0.5s-0.3,0.8-0.9,1.2c-0.5,0.3-1.2,0.6-2,1.4
				c-0.7,0.8-1.5,1.8-1.9,2.2c0.2-0.3,0.5-1,0.5-1.5c0.1-0.4,0-1,0.1-1.6c0.1-0.6,0.1-1,0.7-2.1c0.6-1,1.6-4.6,1.6-4.6l2.2-0.7
				L115.9,63.8L115.9,63.8L115.9,63.8z"/>
			<path class="st47" d="M114.4,62.5c0,0-0.7,1-0.8,1.8c-0.2,0.8,0,0.8-0.1,1.2c-0.1,0.3-0.1,0.5,0,0.8c0.2-0.4,0.5-0.7,0.9-0.9
				c0.6-0.4,1.1-0.6,1.4-1c0.3-0.3,0.6-0.9,1.2-1.3c-0.3,0-0.6-0.2-0.7-0.1c0.3-0.3,1.1-0.8,1.9-1.3c0.8-0.6,0.8-0.8,2.1-1.4
				c-0.4,0.1-0.6,0-1,0c0.1-0.3,0.6-0.5,1.1-1c0.5-0.5-0.3-1.2-0.3-1.2l-3.8,2.3L114.4,62.5L114.4,62.5z"/>
			<polygon class="st48" points="104,60.8 104.1,60.1 105.2,58.3 106.3,55.2 106.3,51 106.2,48.6 106.4,47 106.5,46.5 106.7,46.3 
				107.6,46.8 108.9,48.5 109,51.9 107.8,57.3 104.2,61.2 			"/>
			<path class="st38" d="M106.8,46.1c0,0-0.6,0-0.7,2.4c-0.1,2.4-0.2,3.6-0.3,4.8s-0.3,1.9-0.4,2.6c-0.1,0.7-0.2,1.6-0.5,2.2
				c-0.1,0.3-0.5,1.1-1.2,1.7c-0.8,0.7-2,1.2-2.2,1.2c-0.3,0.1-1.9,0.2-2.6,0.6c-0.2,0.1-0.6,0.3-1.1,0.7c-0.9,0.8-2,2.2-2.9,3.9
				c-1.3,2.5-2.6,9.7-2.6,9.7l0.3-0.5c0,0,0-0.6,0.7-1.8c0.6-1.1,0.5-2.4,1.3-4.6c0.3-0.8,0.8-1.9,1.3-2.8c0.8-1.5,1.8-2.8,2.8-3.5
				c1.6-1.1,3.5-1.4,3.5-1.4l2-1.3c0,0,0.3-0.7,0.8-1.4c0.6-1.1,1.4-2.2,1.6-4c0.3-2.5-0.4-4.2-0.3-5.7c0-1.5,0.1-2.6,0.4-2.9
				C107,46,106.8,46.1,106.8,46.1L106.8,46.1L106.8,46.1z"/>
			<path class="st49" d="M106.8,57.5c0,0,0.9-2.1,1.3-4c0.1-0.4,0.2-0.8,0.3-1.1c0.2-1.8,0.2-2.5,0-3.5c-0.2-0.7-0.9-1.4-1.2-1.9
				c-0.4-0.5-0.5-0.7-0.4-0.8c0.1-0.1,0.4-0.3,0.6-0.3c0.6,0,1.2,0.3,1.5,0.7c0.6,0.6,1,2.8,1,2.8l0.5,2.9l1.2,3.6L106.8,57.5
				L106.8,57.5L106.8,57.5z"/>
			<path class="st50" d="M114.9,55.3c0,0-0.2,0.1-0.4,0c0,0.2-0.1,0.5-0.3,0.6c-0.3-0.1-3.2,0.1-3.2,0.1s-1.3-0.2-1.7-2
				c-0.3-1.2,0.2-2.8,0.1-3.8c-0.3-1.6-0.6-1.9-0.6-2.4c0-0.5-0.1-0.6-0.1-0.9c-0.2,0-0.3-0.1-0.4-0.1c0-0.1,0-0.3-0.1-0.5
				c0.1,0,0.7,0.1,1.4,0.8c0.6,0.5,0.6,0.7,0.7,0.8c0.1,0.1,1,0.9,1.4,1.6s1.1,3.1,1.3,3.5c0.1,0.2,0.2,0.3,0.4,0.7
				C113.6,54.3,114.2,55.1,114.9,55.3L114.9,55.3L114.9,55.3z"/>
			<path class="st38" d="M110.2,47.9c0.4,0.7,0.8,1.4,1.2,2.2c0.4,1,0.7,1.8,1.2,2.4c-0.3-0.8-0.8-2.5-1.1-3.1
				C111.2,48.8,110.5,48.2,110.2,47.9L110.2,47.9L110.2,47.9z"/>
			<path class="st51" d="M105.3,59.9c0,0-0.7,0.2-2.1,0.9c-0.5,0.2-0.9,0.4-1.3,0.6c-1.1,0.5-2.2,0.9-3.1,1.2
				c0.1,0.1,0.1,0.1,0.1,0.1s0,0.4,0.2,0.6c-0.1,0.1-1.6,1.1-1.1,4.4c0.3-0.1,0.6-0.3,0.7-0.3c0.1,0,0.1,0.3,0.2,0.3
				s0.5-0.1,0.8-0.6c0,0.2-0.2,2.2,0.9,3.5c0.2-0.3,0.8-1.1,0.8-1.1l0-0.3c0,0,0.1-0.9,0.4-1.8c0.3-0.9,0.9-1.5,0.9-1.5l3.1-4.4
				L105.3,59.9L105.3,59.9L105.3,59.9z"/>
			<path class="st52" d="M102.4,66.4c-0.1,0.1-0.3,0.2-0.5,0.2c-0.1-0.2-0.1-0.8,0.3-1.4c0.5-0.7,1.6-1.7,1.9-2.4
				c0.2-0.5,0.1-1.7,1.9-3.3c1.7-1.6,2.4-2.1,2.4-2.1l2.8-1.4l3.5,1.4l-1.7,6.7l-1.3,3.2l-5.3-1L102.4,66.4L102.4,66.4L102.4,66.4z"
				/>
			<path class="st53" d="M104.4,64.6l0.7-0.8v-0.6c0,0,0.7-0.2,1.5-1c0.8-0.8,1.9-2.4,2.9-2.3c1,0.1,1.1,2.1,1.1,2.7
				c0,0.6,0.2,1.8,0.4,2.5c0.2,0.7-2.4,3.3-2.4,3.3l-1.7,1.3L104.4,64.6L104.4,64.6z"/>
			<path class="st54" d="M106.5,71.5c0,0,0.5-0.8,0.1-1c0.2-0.5,0.7-1.1,0.7-1.1s0.3-0.8,1.3-1.7c1-0.9,1.6-1.5,1.8-2.2
				c0.1-0.4,0.2-0.8,0.2-1.2c0.1,0.1,0.2,0.2,0.3,0.2c0.2,0.1,0.9,0.7,0.8,2s-0.6,1.8-0.6,1.8s-0.4,0.4-0.8,0.7
				c-0.3,0.2-0.5,0.5-1,0.5c0.1,0,0.1-0.1,0.2-0.1c0,0-0.6-0.1-0.9,0.2c-0.3,0.3-1,1.2-1.3,1.5C106.8,71.2,106.5,71.5,106.5,71.5
				L106.5,71.5L106.5,71.5z"/>
			<path class="st55" d="M130.6,57.3c-0.9-0.3-1.8-0.5-2.7-0.5c-1.5-0.1-3.8,0-5.9,0.1c-2.4,0-4.5-0.8-7.4-1
				c-0.5-0.3-1.7-1.6-5.6,1.1c0.2,0,2.8-0.6,3.7,0.5c0.9,1.1,0.6,3,0.5,3.4c-0.2,1-1,2.5-1.3,3.5s-0.2,1.6-0.5,2.3
				c-0.2,0.7-0.7,1.1-0.4,1.9c0.4-0.2,0.6-0.2,1.2-1.6c0.6-1.4,0.5-2.4,1.5-3.6c1-1.2,2.7-2.9,3.4-3.3c0.6-0.4,5.8-3.1,11.2-0.5
				C129.6,59.5,130.6,57.3,130.6,57.3L130.6,57.3L130.6,57.3z"/>
			<path class="st56" d="M111.1,56.3c0-0.1,0-0.1,0-0.2c-0.1-0.1-0.1-0.2-0.2-0.3c0,0-1.3-0.2-1.9-0.2c-1.1,0.1-2.2,1.5-2.6,2.2
				c-0.5,0.7-1.1,1.8-1.7,2.4c0-0.1,0-0.1,0-0.2c0,0,0,0.1,0,0.1c-0.1,0.1-0.1,0.1,0,0.1l0.1,0.1c0,0,1-0.5,2.4-1.7
				c1.5-1.3,2.6-2,3.1-2.2C110.5,56.5,110.8,56.4,111.1,56.3L111.1,56.3L111.1,56.3z"/>
			<path class="st57" d="M135.9,50.9c0,0-0.2,0.3-0.5,0.6c-0.6,0.7-1.5,1.5-2.2,2.2c-0.7,0.8-1.5,1.3-2.3,2.3
				c-0.9,1-1.9,2.1-2.1,2.4c-0.2,0.3-0.4,0.8-0.4,1.1c-0.1-0.1-0.3-0.2-0.3-0.2c0.1,0.1,0.1,0.2,0.2,0.3c0.2,0.3,0.5,0.6,0.6,0.8
				c0.2,0.2,0.3,0.5,0.4,0.8c0.1,0,0.6,0.1,1.3-1c0.7-1.1,1.6-2.4,1.6-2.4l1.5-2.2l0.9-1.8l1.1-2L135.9,50.9L135.9,50.9L135.9,50.9z
				"/>
			<path class="st38" d="M137.4,49.4c0,0-0.9,0.7-1.2,1.1c-0.3,0.4-1.1,1.6-1.1,1.6l0.3,0l1.5-1.3l0.6-1L137.4,49.4L137.4,49.4z"/>
			<path class="st58" d="M137.1,107.1c0,0,0-0.6,0.3-1c0.3-0.4,1.2-0.9,2-2.8c0.8-2,0.9-2.4,0.9-2.4s-1.5,1.3-2.4,1.6
				c0.2-0.5,0.3-0.8,0.5-1c-0.1-0.1-0.6-0.2-0.7-0.3c0.3-0.3,0.4-1,1-1.5c0.8-0.6,2.1-1.6,3.2-2.4c1.1-0.9,3.2-2.9,3.4-3.5
				c0.2,0.2,0.2,0.4,0.2,0.4s-1.1,1.4-1.6,2.3c-0.5,0.8-0.5,1.2-0.5,1.2l1-0.4c0,0,0.3,1.1-1,2.7c0.6-0.2,0.8-0.1,1.1-0.3
				c-0.5,0.3-1.3,0.8-2,2.1c-0.7,1.3-1.6,2.8-3.2,3.7C138,106.4,137.1,107.1,137.1,107.1L137.1,107.1L137.1,107.1z"/>
			<path class="st59" d="M133.2,58.1c0,0-0.6,1.2-0.7,2.2c0,0.2-0.1,0.4-0.1,0.7c0,0.9,0.1,1.8-0.1,2.3c-0.1-0.2-0.1-0.3-0.2-0.4
				c-0.1,0.3-0.3,1.3-0.5,1.6c-0.1-0.2-0.2-1-0.2-2c0-1,0-1.1,0-1.3c0,0.3-0.2,0.7-0.3,0.9c-0.1-0.2-0.2-0.4-0.4-0.7
				c-0.1,0.1-0.2,0.4-0.3,0.5c0-0.1-0.1-0.3-0.1-0.6c0-0.4,0-0.9,0-1c0-0.2,0.3-1,1-1.7c0.8-0.8,1.6-2.5,1.8-3
				c0.2-0.5,1.2-2.6,1.2-2.6h0.8l-1.1,2.5c0,0-0.7,1.4-1,1.9c-0.3,0.5-1.1,1.9-1.4,2.5c0.2-0.3,0.4-0.5,0.7-0.8
				C132.6,59,133.2,58.1,133.2,58.1L133.2,58.1L133.2,58.1z"/>
			<path class="st60" d="M137.4,49.3c-0.1,0.4-0.3,0.7-0.6,1c-0.5,0.5-1.4,1.3-1.9,1.8c-0.4,0.6-1.3,2.1-0.9,3.9
				c0.1-0.4,0.4-1.2,1.1-2s1.5-1.9,1.9-2.7c0.4-0.8,0.4-1.4,0.4-1.4l0.1-0.2l-0.1-0.4L137.4,49.3L137.4,49.3z"/>
			<path class="st38" d="M152.1,97.5c0,0-0.3-0.8-0.4-1.5s0.1-0.9-0.1-1.7c-0.2-0.5-0.4-0.4-0.5-0.5c-0.1-0.1-0.1-0.8-0.1-1.2
				c0-0.4,0-1-0.1-1.2c-0.1-0.1-0.2-0.2-0.3-0.7c-0.2-0.5-0.3-0.8-0.4-1s-0.3-0.3-0.3-0.5c0-0.3,0.3-0.5,0.3-0.6
				c0-0.2-0.2,0-0.3-0.1c-0.1-0.1,0.2-0.6,0.1-0.7c0,0-0.3,0.3-0.4,0.2c-0.1-0.1-0.2-1-0.3-1.5c-0.1-0.6-0.3-1-0.3-1.1
				c0-0.2-1-3-1.2-3.7c-0.2-0.6-0.4-1.2-0.5-1.8c-0.1-0.3-0.1-1-0.2-1s0,0.4-0.1,0.4c-0.1,0-0.2-1.3-0.3-1.5
				c-0.1-0.2-0.4-0.9-0.4-1.3c-0.1-0.5-0.2-1.8-0.3-2.6c-0.1-0.9-0.2-1.2-0.2-1.4c0-0.5,0-1.1-0.1-1.6c-0.1-0.9-0.4-2-0.7-2.7
				c-0.5-1.2-1.8-4.3-2-5.1c0-0.2,0.3-0.1,0.3-0.1s0.6,1.6,1.1,2.8c0.5,1.2,0.9,2.3,1,2.4c0.1,0.1,0.8,1.3,1.1,3.3
				c0.3,2,0.4,3.8,0.6,5c0.1,0.6,0.2,1.2,0.3,1.8c0.2,0.7,0.5,1.3,0.9,2.4c0.3,0.9,0.6,1.6,0.7,2.2c0.2,0.8,0.2,1.4,0.3,1.8
				c0.1,0.3,0.2,1,0.5,2c0.3,1,0.8,2.3,1.1,3c0.6,1.6,0.9,2.9,1,3.6C151.9,94.2,152.2,96.7,152.1,97.5L152.1,97.5L152.1,97.5z"/>
			<path class="st61" d="M137.4,49.2L137.4,49.2c0,0.1,0.1,0.1,0.1,0.3c0,0.2,0,0.4,0,0.6c0,0.3-0.1,0.4-0.1,0.6
				c0,0.3,0.1,0.7-0.4,1.7c-0.1,0.3-0.2,0.5-0.3,0.7c-0.2,0.4-0.2,0.5-0.4,0.6c0.3-0.1,1.2-0.7,1.6-0.6c-0.3,0.2-0.8,0.5-1.1,1
				c0.1,0,0.4,0.1,0.9,0c0.8-0.1,1.7-0.4,2.5-0.4c0.9,0.1,0.5-1,0.5-1l-1-2.2l-1.9-1.3L137.4,49.2L137.4,49.2z"/>
			<path class="st62" d="M142.4,65.7c0,0-0.8-0.8-1.2-3.7c-0.3-2.9-0.3-7.2-0.3-7.2l-0.7-1.7c0,0-0.1-1.1-0.5-1.5s-1.1-1.1-1.4-1.5
				c-0.3-0.3-0.7-0.8-0.9-0.9c0.1-0.2,0.6-1.2,2.5-1.2s2.4,1,2.6,1.4c0.2,0.4,1.1,2,1.4,5.1c0.3,3.1,0.3,3.3,0.3,4.4
				c0,0.6-0.2,2-0.6,3.4C143.3,63.6,143,65,142.4,65.7L142.4,65.7z"/>
			<path class="st59" d="M139.7,68.1c0.3,0,0.6,0,0.8-0.2c0.3,0,1.2,0.1,2-0.8c0.1,0.2,0.2,0.8-0.2,1.3c0.2-0.2,0.5-0.3,0.5-0.3
				c0,0.3,0.3,1.1-0.8,3.1c0.3-0.3,0.6-0.3,0.9-0.3c0,0.4,0.2,1.6-0.3,2.3c-0.4,0.5-0.9,0.3-0.9,0.3c0-0.1,0-0.2,0-0.3
				c0-0.2-0.1-0.4,0-0.5c-0.3-0.1-0.5-0.3-0.8-0.5c-0.6-0.6-1.5-1.6-1.5-2.4c-0.1-0.8,0.7-1,0.7-1c-0.1-0.1-0.1-0.1-0.2-0.2
				C139.9,68.5,139.9,68.3,139.7,68.1L139.7,68.1L139.7,68.1z"/>
			<path class="st63" d="M134.1,59c0,0,0-0.1-0.2,0.2c0-0.2,0.1-0.5,0.1-0.7c0.1-0.2,0.2-0.4,0.4-0.5c-0.1,0.2-0.2,0.4-0.2,0.4
				s0.3-0.5,0.7-0.8c0.3-0.2,0.6-0.3,0.8-0.5c0.2-0.2,0.1-0.3,0.2-0.3c0,0,0.4-0.2,0.9-0.9c0.1-0.1,0.2-0.2,0.3-0.3
				c0.1-0.1,0.4-0.2,0.8-0.4c0.4-0.2,0.8-0.5,1-0.6c0.5-0.2,1-0.2,1.2-0.5c0.2-0.1,0.4-0.6,0.3-1.1c0.3,0.1,1.6,1,2.1,2.8
				c0.3,1.3-0.3,3.4-0.5,4.4c-0.3,1-0.3,1.7-0.6,2.2c-0.5,0.6-1.9,1.4-2.3,1.9c-0.3,0.3-1.2,1.2-1.2,1.8c0,0.5,0.6,0.7,0.7,0.8
				c0.1,0.1,0.1,0.2,0.4,0.1c0.2-0.1,0.3-0.2,0.4-0.2c0.1,0,0.1,0,0.2,0c0,0,0.1,0,0.1,0c0,0,0,0.7-1.6,0.9c-0.1,0-0.2,0.1-0.4,0.1
				c0.2-0.1,0.3-0.1,0.5-0.4c-0.2,0-0.8-0.1-1-0.1c0.1-0.1,0.2-0.3,0.4-0.4c0.1-0.1,0-0.1-0.1-0.1c-0.2,0.1-0.4,0.3-0.5,0.4
				c-0.2,0.2-0.3,0.4-0.6,0.6c-0.1-0.3-0.1-0.8,0.3-1.2c-0.1,0-0.3,0.3-0.4,0.2c0-0.3,0-0.5,0.1-0.8c0.1-0.3,0.6-0.9,0.6-0.9
				l2.3-4.1l0.5-3.1L134.1,59L134.1,59L134.1,59z"/>
			<path class="st64" d="M134,59.2c0,0-0.1,0.1,0.1,0.3c0,0.1-0.1,0.2-0.2,0.4c-0.1,0.1-0.3,0.2-0.3,0.4c-0.1,0.3-0.2,0.4-0.2,0.5
				c0,0.1,0,0.8-0.3,1.3c-0.1,0.2-0.2,0.4-0.3,0.6c-0.2,0.3-0.3,0.6-0.4,0.7c-0.1,0.3-0.1,1-0.1,1s0.2-0.2,0.2-0.3
				c-0.1,0.2-0.2,0.4-0.3,0.5c0.1-0.1,0.3-0.3,0.8-0.6c0.6-0.5,1.5-1.3,2.7-2c-0.3,0.1-0.6,0.1-0.9,0.2c0.2-0.2,1.8-2.1,2.7-2.3
				c0.1-0.1,0.1-0.1,0.1-0.2l-0.7-0.1l-1.5,0.3l-0.2-1.1L134,59.2L134,59.2z"/>
			<path class="st65" d="M136.4,65.7c0,0-0.2,0.2-0.4,0.7c-0.1-0.1-0.3-0.3-0.4-0.5c-0.3-0.4-0.7-1-1.6-0.7c0-0.3,0-0.5,0-0.7
				c0.2,0,0.6-0.4,1.1-1c0.3-0.4,0.7-0.8,0.9-1.4c0.1-0.1,0.4-0.3,0.7-0.5c0.5-0.3,1-0.8,1.1-1.2c-0.2,0.1-0.7,0.3-1.4,0.3
				c0.3-0.1,0.7-0.3,0.6-0.8c0.1-0.1,0.2-0.1,0.2-0.1c-0.1,0-0.2,0-0.3,0c0-0.1,0-0.1-0.2-0.1c-0.1,0-0.1,0-0.2,0.1
				c-0.1,0-0.2,0-0.3,0.1c-0.1,0.1-0.5,0.4-0.6,0.4c0.1-0.1,0.1-0.2,0.1-0.2s-0.4,0-0.6,0.1c-0.5,0.2-1,0.5-1.5,0.7
				c0.1-0.1,0.1-0.1,0.1-0.2c0,0,0.1,0,0.1-0.1c0,0,0-0.1,0-0.2c0.2-0.3,0.4-0.7,0.6-1c0.3-0.3,0.3-0.8,0.3-0.8l1.1-0.6l3.1-0.7
				l2,0.1l-0.3,1.4l-1.2,2.4l-1,2.2l-1.2,1.4L136.4,65.7L136.4,65.7L136.4,65.7z"/>
			<path class="st66" d="M141.4,59.6c0,0-1.2,1.5-1.6,1.7c0.2-0.5,1.6-3.2,2-4c-0.1-0.1-0.3-0.1,0.1-1.4c-0.3,0.7-0.4,1-0.6,1.2
				c-0.2,0.2-0.3,0.1-0.4,0.1c0-0.1,0-0.1,0-0.2c0,0-1-0.1-1.7-0.1c-0.7,0-2.1,0.4-2.9,0.7c-0.6,0.3-1,0.3-1.2,0.4
				c-0.2,0.2-0.3,0.4-0.5,0.4c-0.1,0.1-0.5,0.2-0.6,0.3c-0.1,0.1-0.2,0.3-0.2,0.3c0,0,0,0.1,0.1,0.1c0,0,0.3-0.2,0.6-0.3
				c0.4-0.2,0.9-0.5,1.3-0.7c1-0.4,1.4-0.3,1.8-0.4c0.5-0.1,1.2-0.3,1.6-0.3c0.5,0,1.3,0,1.5,0c-0.1,0.1-0.2,0.2-0.1,0.5
				c0,0.1-0.1,0.2-0.1,0.4c-0.2,0.6-0.6,1.6-0.9,2.1c-0.3,0.7-0.7,1.3-0.9,1.6c-0.2,0.4-0.6,1.3-1,1.8s-0.6,0.8-0.7,0.9
				c-0.1,0.1-1,0.8-0.9,1c0.2-0.1,1.2-0.4,1.9-1.3c0.7-0.8,0.9-1.3,1.5-1.8c0.6-0.5,1-1.2,1.3-1.8C141.2,60.3,141.2,60.2,141.4,59.6
				L141.4,59.6L141.4,59.6z"/>
			<path class="st67" d="M115.1,70.9c0,0-0.2,0.7-0.5,1c-0.4,0.3-1,0.6-1.1,1.1c-0.1,0.5,0.6,0.8,0.6,0.8s-0.4,0.6-0.4,1.1
				c0,0.5,0,0.6,0,1.1c-0.1,0-0.1,0.1-0.1,0.1c0,0,0,0.5,0.4,0.8c0.4,0.3,0.7,0.5,0.8,0.4c0,0.1,0.1,0.1,0.1,0.2
				c0,0,0.3-0.7,0.5-1.3c0.2-0.6,0.3-0.5,0.4-1.3c0.1-0.8,0.9-2.2,0.9-2.2l0.5-1.2l-0.9-0.7L115.1,70.9L115.1,70.9z"/>
			<path class="st68" d="M116.8,72.1c-0.2,0.2-0.3,0.4-0.5,0.6c-0.2,0.3-0.4,0.6-0.8,0.7c-0.3,0.1-0.6,0.1-0.5,0.5
				c0,0.3,0.3,0.5,0.5,0.7c0.2,0.2,0.4,0.5,0.3,0.8c0.1-0.1,0.3-0.1,0.5-0.5s1.5-2.8,1.5-2.8L116.8,72.1L116.8,72.1z"/>
			<path class="st69" d="M121.8,66.6c0,0,0.1-0.3,0-0.5c-0.1-0.2-0.8-0.3-1.1-0.5c-0.3-0.3-0.8-0.4-1.1-0.3c0.1-0.1,0.3-0.4,0.1-0.5
				c-0.2-0.1-0.8,0.2-0.9,0.3s-0.5,0.3-0.6,0.4s-0.2,0.3-0.3,0.2c-0.1-0.1-0.1-0.2-0.2-0.1c-0.1,0.1-0.7,0.6-0.8,0.8
				c-0.1,0.3-0.4,0.9-1.1,1.6c-0.7,0.7-1.1,1.2-0.8,1.5c0.2,0.3,0.3,0.1,0.4,0.3c0,0.2,0,0.5,0,0.7c-0.1,0.4-0.2,0.7,0,0.8
				c0.5,0.2,1-0.1,1.1-0.1c0.2,0.2-0.1,0.9,0.4,1c0.5,0.1,1-0.1,1-0.1l1.9-1l1.8-1l0.9-1.9l-0.5-1.5L121.8,66.6L121.8,66.6z"/>
			<path class="st70" d="M120,71c0,0-0.3-0.5,0.1-0.9c0.4-0.4,1-0.6,1.2-0.9c0-0.1-0.1-0.1-0.2-0.1c0.1-0.3,0.4-0.5,0.6-0.6
				c-0.1-0.1-0.3-0.2-0.4-0.2c-0.4,0-0.6,0.2-0.9,0.2c-0.3,0-0.4-0.2-0.4-0.2s0.5-0.1,0.5-0.3c-0.1-0.3-0.1-0.3-0.1-0.3
				s1-0.4,1.2-0.7c0.2-0.2,0.2-0.5,0.2-0.6c0.1,0,0.8-0.4,1.1-0.2c0.3,0.2,0.1,0.6,0.1,0.6s0.9-0.7,1.3-1.3c0.4,0,0.6-0.3,0.9-0.3
				c0.4,0,0.9,0.5,1,1.5c0.1,0.6,0.2,0.9,0.1,2c-0.1,0.6,0,1.9,0.1,2.5c0.1,0.5,0.4,0.5,0.4,0.5c0,0.2-0.1,0.3-0.3,0.4
				c-0.2,0.2-0.2,0.7-0.2,0.8c0,0.1,0.1,0.3,0.1,0.4c0,0-0.2,0.3-0.3,0.5c-0.1,0.2-0.3,0.3-0.5,0.3c-0.2,0-0.1,0-0.3,0
				c-0.2,0-0.3,0.1-0.5,0c-0.1-0.1-0.3-0.1-0.2-0.6c0.1-0.5-1.8-1.5-1.8-1.5L120,71L120,71L120,71z"/>
			<path class="st71" d="M116.5,75.6c0,0,0.7,0.9,3.4,0.9c1.3,0,1.7-0.1,2-0.2c0.3-0.1,1.4-0.5,2.5-1.8c1-1.2,0.8-1.6,0.8-1.6
				l-0.6-0.1l-1.9,0.3l-5.5,2.4L116.5,75.6L116.5,75.6z"/>
			<path class="st72" d="M118.5,75.8c0,0-2.4,0.5-2.4-1c0-1.5,1.5-3,1.8-3.2c0.4-0.3,1.3-0.6,1.3-0.6h2.2l0.4,1.1l-0.2,2.4
				L118.5,75.8L118.5,75.8z"/>
			<path class="st73" d="M120.7,71.5c0,0-0.4-0.4-1.5,0.1c-1,0.6-1.9,1.7-1.9,2.8c-0.1,0.9,0.8,1.6,2,1.7c1,0,1.5-0.1,1.8-0.1
				c-0.1-0.1-0.5-0.6-0.5-0.6L120.7,71.5L120.7,71.5L120.7,71.5z"/>
			<path class="st74" d="M120.3,71.7c0,0-0.1-0.1-0.4,0.1c-0.3,0.1-0.7,0.5-1,0.8c-0.2,0.2-0.3,0.2-0.4,0.4
				c-0.5,0.5-0.8,1.4-0.6,1.9c0.2,0.4,0.9,0.9,2.8,0.6L120.3,71.7L120.3,71.7L120.3,71.7z"/>
			<path class="st72" d="M119.7,72.6c0,0-0.3,0.5-0.3,1.2c0,0.7,0.4,1.9,1.9,2c1.2,0.1,2-1.7,2.8-2.4c0.6-0.5,1-0.5,1-0.5
				s-0.7-0.7-2.4-1.6c-1.7-0.9-3.7-1.1-4.8,0.4c0.5,0,2.1-0.5,2.1-0.5l0.8,0.3L119.7,72.6L119.7,72.6L119.7,72.6z"/>
			<path class="st75" d="M122,73.6c-0.1-0.1-0.1-0.3,0.1-0.3s0.3,0,0.4,0.1s0.1,0.3,0,0.4C122.4,73.8,122.1,73.8,122,73.6L122,73.6z
				 M121.6,72.5C121.6,72.5,121.5,72.6,121.6,72.5c0-0.2,0.1-0.4,0.3-0.3c0.2,0.1,0.2,0.3,0.1,0.4c0,0.1-0.2,0.2-0.4,0.1
				C121.6,72.7,121.6,72.6,121.6,72.5C121.6,72.6,121.6,72.5,121.6,72.5L121.6,72.5z"/>
			<path class="st76" d="M102,73c0,0,0.6,0.4,1.2,0.4c0.7,0,1.5-0.7,1.9-1.1c0.2-0.3,0.4-0.5,0.6-0.7c0.2-0.2,0.3-0.3,0.4-0.4
				c0.1-0.1,0.3-0.4,0.3-0.5c-0.2,0.1-0.4,0.3-0.6,0.5c-0.2,0.1-0.7,0.4-0.9,0.5c-0.2,0.1-2.2,1.1-2.2,1.1L102,73L102,73z"/>
			<path class="st77" d="M102.8,67.6c0,0,0.3-0.2,0.9-0.4c0.6-0.1,1.8-0.3,1.8-0.3l1,0.4l0.4,1.5l-0.7,1.5l-0.9,0.6l-1-1.7
				L102.8,67.6L102.8,67.6L102.8,67.6z"/>
			<path class="st78" d="M101.6,69l-0.3,0.3c0,0,0.1-0.2,0.2-0.6c0.1-0.5,0.5-1.7,1-2.4c0.6-0.7,0.5-0.6,0.5-0.6
				c-0.1,0-0.2,0-0.3,0.1c0.1-0.2,0.5-0.7,1-1c0.5-0.3,0.6-0.4,1.1-0.1s0.6,0.4,1,0.3c0.4,0,0.7-0.4,0.7-0.4s0.1,0.2-0.2,0.8
				c-0.3,0.5-1.3,1.6-1.3,1.6l-2.2,1.5L101.6,69L101.6,69L101.6,69z"/>
			<path class="st79" d="M103.2,67.5c0,0,1.6,0.2,2.1-0.2c0,0.1,0.1,0.1,0.1,0.1c0,0,0,0.1,0,0.1c0.1,0,0.1,0,0.2,0
				c0.1,0,0.1,0,0.2,0c0.1,0,0.1,0,0.2,0c0,0.1,0,0.1-0.1,0.2c0.1,0,0.1,0,0.1,0.1c0,0.1,0,0.2-0.1,0.3c-0.1,0-0.1,0-0.2,0
				c0,0.1,0,0.3,0.1,0.4c0.1,0.3,0.4,0.6,0.9,0.5c0,0,0.2,0.5-0.7,1.7c-0.1,0.2-0.3,0.4-0.4,0.6c-0.1,0.1-0.1,0.3-0.1,0.4
				c0,0,1.5-0.6,2-2c0.5-1.4,0.5-2.7,0.5-4c0-0.4-0.1-0.6-0.2-0.8c-0.2-0.5-0.8-0.4-1.1-0.1c-0.4,0.4-1,1.2-1.8,1.9
				C103.9,67.1,103.8,67.2,103.2,67.5L103.2,67.5L103.2,67.5z"/>
			<path class="st71" d="M101.3,69.4c0,0-0.3,0.2-0.5,0.9c-0.2,0.7,0.1,1.5,0.3,1.8c0.2,0.3,0.6,1,1.4,1c0.2,0,0.4,0,0.6-0.1
				c0.3-0.1,0.6-0.3,0.8-0.5c0.4-0.3,0.6-0.5,0.6-0.5c-0.1,0-2.2-1.8-2.2-1.8l-0.8-0.9L101.3,69.4L101.3,69.4z"/>
			<path class="st80" d="M103.3,72.3c0,0,0.4,0,0.7-0.2c0.3-0.2-1.5-1.9-1.5-1.9l0.1,1.9L103.3,72.3z"/>
			<path class="st81" d="M101.4,69.3c0,0-0.2,0.4-0.2,0.5c0,0.4,0.1,1.5,0.2,1.8c0.1,0.4,0.6,1,1.2,1c0.4,0,0.9-0.2,0.9-0.3
				c0-0.1-0.5-0.1-0.7-0.4c-0.1-0.1-0.1-0.5-0.1-0.9c0-0.2,0-0.5,0.1-0.6c0.2-0.2,0.2-0.8,0.2-0.8l0.7-1.3h-0.9l-1.1,0.7L101.4,69.3
				z"/>
			<path class="st72" d="M101.1,69.7c0,0,0.7-1,1.4-1.2c0.6-0.2,0.9-0.1,0.9-0.1l-0.4,1l-0.5,0.6l0,0.3c0,0-0.1,0.8,0.4,1.4
				c0.5,0.6,0.9,0.5,1.2,0.5c0.2,0,0.9-0.2,1.2-1c0.3-0.8,0.6-1.7-0.1-2.7c-0.6-1-1.6-1-1.9-1S101.7,67.6,101.1,69.7L101.1,69.7
				L101.1,69.7z"/>
			<path class="st82" d="M119.6,72.9c-0.3-0.1,0-0.9,0.3-1.1c0.3-0.2,0.6-0.5,1.2-0.5c0.2,0,0.4,0.1,0.4,0.3
				c-0.1,0.3-0.4,0.6-0.8,0.9C120.2,72.8,119.9,73,119.6,72.9z"/>
			<path class="st83" d="M105,68.8c0.2,0,0.5,0.1,0.5,0.4c0.1,0.2-0.1,0.7-0.5,0.7c-0.3,0-0.5-0.4-0.5-0.5c0-0.1,0-0.2,0.1-0.3
				C104.7,69.1,104.7,68.8,105,68.8z"/>
			<path class="st84" d="M102.2,69c0,0-0.5,0.2-0.7,0.7c-0.2,0.4-0.2,0.8-0.1,1.1c0,0.2,0.2,0.6,0.3,0.8c0.1,0.2,0.3,0.3,0.4,0.3
				s0.4-0.3,0.4-0.5s0-1,0.3-1.5C102.9,69.4,102.2,69,102.2,69L102.2,69L102.2,69z"/>
			<path class="st85" d="M102.3,68.9c-0.1,0.1-0.2,0.1-0.2,0.2c0,0.1,0.3,0.1,0.5,0.4c0.1,0.2,0.1,0.4,0.1,0.6
				c0.1,0,0.2-0.1,0.3-0.2c0.2-0.2,0.4-0.4,0.5-0.4c0.1,0,0.2,0.1,0.3,0.1c0.2,0,0.3-0.1,0.3-0.2c0-0.2-0.3-0.4-0.5-0.4
				c0-0.1,0.1-0.4-0.1-0.5c-0.2-0.1-0.7,0.1-0.8,0.2C102.6,68.7,102.3,68.9,102.3,68.9L102.3,68.9L102.3,68.9z"/>
			<path class="st86" d="M113.8,84.2l1.1-0.3l0.3,0.2c0,0,0.2,0.5,0.6,0.5c-0.1,0.2-0.4,0.4-0.4,0.6c0,0.2,0.2,0.3,0.2,0.3
				s-1,1.6,0.9,3.2c-0.5,0.2-1,0.4-1.3,0.6c0.2,0.1,0.7,0.1,0.9,0.3c0.2,0.2,0.2,0.2,0.4,0.3s0.3,0.3,0.3,0.3
				c-0.1-0.1-0.5-0.3-0.6-0.1c-0.1,0.2-1.8,0.1-1.8,0.1l-2.9,0.6c0,0,0.1-0.3-0.2-0.6c-0.4-0.3-0.8,0-1.3-0.3
				c-0.6-0.5-0.6-1-0.8-1.2c0.2-0.1,0.6-0.3,1.5-0.4c0-0.1-0.2-0.3-0.1-0.5c0.1-0.3,0.4-0.4,0.3-0.7c0.2,0,0.2,0,0.6-0.5
				c0.4-0.5,0.6-0.6,0.9-0.6c0.3,0,0.5,0,1-0.5c0.4-0.4,0.3-0.7,0.3-0.7S113.9,84.7,113.8,84.2L113.8,84.2L113.8,84.2z"/>
			<path class="st87" d="M110.7,84.3c0-0.1,0.1-0.1,0.5-0.1c0.4,0,2.9-0.2,3.6-0.3c0.7-0.1,3.1,0,4.3,0.2s2.4,0.5,2.9,0.7
				c0.6,0.2,0.8,0.2,0.7,0.3c0,0.1-0.1,0.1-0.2,0.1c-0.1,0-2-0.6-2.6-0.7s-2.6-0.5-3.7-0.4c-1,0-1.5,0-2.3,0.1
				c-0.9,0.1-2.3,0.3-2.8,0.2C110.5,84.4,110.6,84.4,110.7,84.3L110.7,84.3L110.7,84.3z"/>
			<path class="st88" d="M116.5,90c0,0,1.5,0.8,2,1.8c0.4,0.7-0.2,1.1-0.2,1.1s0.8,0,0.7,0.5c-0.1,0.3-1.5,1.1-2.4,1.5
				c-1,0.4-0.9,0.4-1.4,0.5c-0.5,0.1-1.7-0.1-1.9,0.2c-0.3,0.4-0.1,0.7-0.1,0.8c0.1,0.1,0.7,0.1,0.7,0.1s-0.1,0.3-1.3,0.4
				c-1.2,0-1.5,0.1-1.6,0.3c-0.1,0.1,0.2,0.1,0.8,0.1c0.6,0.1,1.3,0.1,1.3,0.1s-0.3,0.2-0.9,0.4c-0.8,0.2-1.9,0.4-2.3,0.6
				c0.2,0.1,0.5,0.3,0.6,0.3c-0.3,0.1-0.7,0.2-0.8,0.3c0.1,0.1,0.3,0.2,0.3,0.2s-0.6,0.7-1,0.9c-0.4,0.2-2.4,1.1-3.1,1
				c-1.8-0.5-2-2.4-2.4-2.5c-0.6-0.2-1,0.2-1.5-0.1c0.3-0.2,0.4-0.3,0.7-0.4c-0.3-0.1-1.8-1.1-1.8-1.1c-0.2-0.3-0.3-0.7-0.5-1
				c-0.3-0.5-0.7-1.2-1-1.8c-0.7-1.3-0.7-1.9-1.4-2.6c0.1-0.1,0.5-0.1,0.5-0.1l5.3,1.7l9.4,0.3l2.4-3.5L116.5,90L116.5,90z"/>
			<path class="st89" d="M102.6,95.3c0.1,0.1,0.1,0.1,0.2,0.2c0.2,0.1,0.5,0.3,0.6,0.5c0.1-0.1,0.3-0.3,0.6,0c0.3,0.3,0.7,0.1,1,0.2
				c0.3,0.1,0.3,0.1,0.3,0.1s0.1-0.1,0.5-0.3c0.2-0.1,0.4-0.1,0.7-0.2c0.2-0.1,0.5-0.1,0.7-0.1c0.2,0.1,0.7,0.7,3-0.2
				c2.2-0.8,2.7-0.9,3-0.8c0-0.1,0.1-0.3,0.6-0.2c0-0.2-0.5-1-0.5-1l-2.6-0.9h-1.4l-4.2,0.8l-2.3,1.3L102.6,95.3L102.6,95.3z"/>
			<path class="st90" d="M101.2,93.9c0,0,0.1,0.4,0.6,0.8c0.6,0.4,0.8,0.7,0.8,0.7s0.1-0.1,0.2-0.3c0.1-0.2,0.2-0.3,0.3-0.4
				c0.3-0.1,1,0.1,1.1,0.1c0.1,0,0.1-0.3,0.2-0.3c0.3,0,0.5,0.2,0.6,0.2c0.1,0,0.4,0,0.4-0.1c0-0.1,0.1-0.7,0.5-1
				c0.5-0.3,1-0.2,1.1-0.1c0,0.1,0,0.4,0.3,0.4c0.3,0,0.3,0,0.6,0.1c0.3,0.1,0.6,0,0.7,0.4c0.1,0,0.4-0.1,0.3-0.5
				c0.1-0.1,0.3-0.2,0.6-0.6c0.1-0.1,0.2-0.2,0.3-0.4c0.3,0,0.6-0.1,1,0.3c-0.1,0.1-0.2,0.1-0.2,0.2c0.1,0.1,0.2,0.2,0.3,0.3
				c0.1,0.1,0.2,0.3,0.3,0.4c0.3,0.1,0.8,0,1.4,0c0.5,0,1,0.2,1.2,0.4c0.1,0,0.1-0.1,0.3,0c0.2,0,0.3,0.1,0.1-0.2
				c0.1,0.1,0.2,0.2,0.3,0.1s0.2-0.3,0.5-0.3s0.4,0,0.5-0.3c0.2-0.4-0.4-0.4-0.4-0.4s0.3-0.2,0.5-0.5c0.3-0.3,0.7-0.7,0.8-1.2
				c0.2-0.9-0.8-1.1-0.8-1.1l-4.4,1.4l-5.4-0.3L101.2,93.9L101.2,93.9L101.2,93.9z"/>
			<path class="st91" d="M97.2,81.1c0,0-0.1,0.2-0.2,0.6c-0.1,0.4-0.1,0.4-0.1,0.7s-1,3.3-0.6,4.4s0.9,1.4,1.3,2.2
				c0.1,0.2,0.1,0.3,0.2,0.5c0.1,0.5,0,1,0.2,1.5c0.1,0.2,0.2,0.4,0.4,0.6c0.4,0.4,1.1,0.9,1.4,1.2c0.4,0.5,1,1.4,1.8,1.5
				c0.4,0.1,1-0.1,1.5-0.4c0.4-0.3,0.7-0.6,1.1-0.9c0.3-0.2,0.7-0.2,1-0.3c0.6-0.1,1.2-0.1,1.5-0.1c0.5,0.1,1.8,0.5,2.4,0.5
				c0.5,0,1.1-0.1,1.6-0.2c1-0.3,2.3-0.8,3.1-1.1c0.5-0.1,0.9-0.2,1.3-0.3c0.7-0.2,1.3-0.4,1.6-0.8c-0.2-0.3-0.5-0.6-1.9-0.6
				c-1.6,0-3.6,1-4.5,1.1s-1.3,0.3-2.4-0.1c-1-0.4-1.1-0.6-1.1-0.6s-1.1-0.8-1.5-2.7c-0.5-1.9,0-3.3,1.2-4.6
				c0.3-0.3,0.2-0.6,0.2-0.6s0.8-1,0.6-2c-0.2-1-1.7-0.8-1.7-0.8L97.2,81.1L97.2,81.1L97.2,81.1z"/>
			<path class="st92" d="M98.5,84.3c-0.1,0.1-0.1,0.3-0.1,0.4c0,0.2,0.1,0.4,0.7,1c0.5,0.5,0.4,1.1,0.4,1.1s0.3,0.1,0.9-0.3
				c0.5-0.3,0.7,0.2,0.7,0.2c0.2-0.1,0.3-0.1,0.5-0.2c0.2,0,0.3-0.1,0.4-0.1c0,0,0.6,0.6,1.2,1c0.5,0.3,0.8,0.5,1,0.3
				c0.2-0.2,0.2-0.5,0.2-0.6c-0.1-0.1-0.1-0.3-0.2-0.4c-0.2-0.2-0.4-0.5-0.4-0.7c0-0.5,0.4-1.1,0.3-1.2c-0.1-0.1-0.4-0.2-1.2,0.1
				C102,85,98.4,84.3,98.5,84.3L98.5,84.3L98.5,84.3z"/>
			<path class="st93" d="M100.4,87.5c0,0-0.4-0.4-0.3-2.3c0.2,0,0.4,0,0.5,0.1C100.6,85.3,100.8,86.8,100.4,87.5z"/>
			<path class="st72" d="M97.4,79.6c0.1,0,0.1-0.1,0.2-0.1c-0.1,0.3-0.8,1.3-0.3,3c0.5,1.7,1.9,2.9,3.6,3c1.7,0.1,2.5-0.8,3.5-2
				c0.4-0.5,0.8-1.1,1.2-1.5c0.6-0.6,1.1-0.8,1.1-1.5c0-1.3-1.3-1.9-3.2-2.4c-1.9-0.6-3.7-0.5-4.6-0.1C98,78.5,97.6,78.9,97.4,79.6
				L97.4,79.6L97.4,79.6z"/>
			<path class="st94" d="M103.6,88.1l0.1-0.1c0,0,0-0.6,0.3-0.6c0.2,0,0.3,0.3,0.3,0.5c0,0.1-0.1,0.3-0.3,0.3
				C103.7,88.2,103.6,88.1,103.6,88.1L103.6,88.1z"/>
			<path class="st95" d="M102.9,85.7c0,0,0.1-0.1,0.3,0.1c0.1,0,0.8-0.1,1,0.1c0.2,0.1,0.3,0.2,0.3,0.2s-0.7,0.2-1.1,0
				C102.9,85.9,102.9,85.7,102.9,85.7z"/>
			<path class="st96" d="M106.2,85.8c0,0-0.4-0.3-0.8-0.4c-0.1,0-0.1,0-0.1,0c0,0-0.1-0.1-0.1-0.1l-0.2,0.1c0,0,0,0.1,0.1,0.1
				c0.1,0.1,0.3,0.2,0.3,0.3c0.1,0.1,0.1,0.2,0.1,0.2c0,0,0.3,0,0.4-0.1C105.9,85.9,106.2,85.8,106.2,85.8L106.2,85.8L106.2,85.8z"
				/>
			<path class="st97" d="M102.5,87.3c0,0,0.1-0.5,0.6-0.5c0.5,0,0.6,0.4,0.6,0.4l-0.3,0.3C103.4,87.5,103.1,87.2,102.5,87.3
				L102.5,87.3z"/>
			<path class="st98" d="M105.7,85.1c0,0-0.3,0.3-0.9,0.4c-0.1-0.1-0.2-0.2,0-0.4c0.2-0.2,0.3-0.3,0.5-0.2
				C105.5,84.8,105.6,84.9,105.7,85.1z"/>
			<path class="st96" d="M106.8,85.5c0-0.1,0-0.1,0-0.1c0,0,0.2-0.1,0.3-0.1c0,0,0,0.1,0,0.1s0,0.1,0,0.2c-0.1,0.1-0.2,0.1-0.3,0.1
				s-0.1-0.1-0.1-0.1C106.7,85.5,106.8,85.5,106.8,85.5z M108,84.7c0,0,0.1-0.1,0.2-0.1c0.1,0,0.1,0.1,0.1,0.1c0,0,0,0,0.1,0.1
				c0,0.1,0.1,0.2,0.1,0.3s-0.2,0.1-0.2,0.1C108.2,85,108,84.7,108,84.7z"/>
			<path class="st91" d="M105.5,85.6c0,0,0.2,0,0.4,0.2c-0.1,0.1-0.2,0.1-0.2,0.1S105.7,85.8,105.5,85.6L105.5,85.6z"/>
			<path class="st71" d="M105.1,84c0,0,0.1-0.1,0.2-0.1c0.1,0,0.1,0.1,0.2,0.1s0.1,0,0.1-0.1c0,0,0.2,0,0.2,0c0,0,0,0,0,0.1
				c0-0.1,0-0.1,0.1-0.1c0.1,0,0.1-0.1,0.2,0c0,0.1,0.1,0.2,0.1,0.3c0,0-0.2,0.1-0.3,0.1c0,0.1,0.2,0.3,0.2,0.3s-0.2,0.1-0.2,0.1
				C105.9,84.5,105.3,84.2,105.1,84L105.1,84z M106.1,82.8C106.1,82.8,106.1,82.7,106.1,82.8c-0.1-0.1-0.3-0.1-0.3,0
				s0.1,0.6,0.3,0.8c0.2,0.3,0.3,0.5,0.4,0.5c0.1,0,0.2,0,0.2-0.1c0,0,0.1-0.3,0-0.9c0-0.6,0-1.2-0.1-1.3c0,0-0.2,0-0.2,0
				C106.4,82,106.1,82.7,106.1,82.8L106.1,82.8L106.1,82.8z"/>
			<path class="st98" d="M105.4,86.5c0,0-0.3-0.2-0.5-0.1c-0.2,0.1-0.2,0.5-0.2,0.5c0.1,0,0.2,0,0.3,0
				C105.2,86.9,105.4,86.7,105.4,86.5L105.4,86.5z"/>
			<path class="st96" d="M105.9,87.1c0-0.1-0.1-0.1-0.1-0.2c0-0.1,0.1-0.1,0.2-0.1c0.1,0,0.1,0.1,0.2,0.1c0.1,0.1,0.2,0.1,0.2,0.3
				c0,0.1-0.1,0.4-0.3,0.4C105.9,87.6,106,87.2,105.9,87.1L105.9,87.1z M107.3,86.9c0,0-0.3,0.1-0.3,0s0.1-0.1,0.2-0.1
				c0-0.1,0.1-0.1,0.2-0.1c0,0,0.1,0,0.1,0c0,0,0.2-0.1,0.3,0c0.1,0.1,0,0.1,0.1,0.1c0,0.1,0.1,0.1,0.1,0.2c0,0.1-0.2,0.2-0.4,0.2
				C107.3,87.2,107.4,86.9,107.3,86.9z M109,86.6c0,0,0.1,0.1,0,0.1c-0.1,0.1-0.3,0.1-0.5,0.2c-0.2,0-0.4,0-0.4,0
				c0-0.1,0.2-0.2,0.3-0.3c0-0.1,0.1-0.1,0.2-0.1c0.1,0,0.4,0,0.5-0.1c0.1,0,0.2,0,0.1,0.1C109.2,86.6,109,86.6,109,86.6L109,86.6z
				 M109.5,84.3c0,0-0.1,0.2-0.2,0.2c-0.1,0-0.1-0.1-0.1-0.1c0-0.1,0.1-0.2,0.1-0.2c0,0-0.1,0-0.1-0.1c0-0.1,0.1-0.2,0.2-0.1
				c0.1-0.1,0.2-0.1,0.3-0.1c0.1,0,0.2,0,0.2,0.1s-0.1,0.2-0.2,0.3C109.7,84.4,109.6,84.4,109.5,84.3L109.5,84.3z M107.9,88.6
				c0,0-0.1,0-0.1,0.1c0,0,0,0,0.1,0C107.8,88.7,107.9,88.7,107.9,88.6c0,0.1,0,0.2,0.2,0.2c0.1,0,0.2,0,0.3-0.1
				c0.1,0,0.2-0.1,0.2-0.1c0-0.1-0.1-0.2-0.2-0.2c-0.1,0-0.1,0-0.2,0c0,0,0-0.1-0.2,0C107.8,88.5,107.8,88.5,107.9,88.6
				C107.9,88.6,107.9,88.6,107.9,88.6L107.9,88.6z M107,89.4c0,0,0.2-0.1,0.2-0.1c0.1,0,0.2,0.3,0.2,0.3c0,0-0.2,0.1-0.3,0.1
				c-0.1,0-0.2-0.1-0.2-0.1c0,0,0.1,0,0.1-0.1C107.1,89.5,107,89.4,107,89.4L107,89.4z M106.5,88.3
				C106.5,88.3,106.5,88.3,106.5,88.3c0.1-0.1,0.2-0.1,0.2-0.1c0,0,0.1-0.1,0.1-0.1c0.1,0,0.2,0,0.1,0c0,0.1,0.1,0.2,0.1,0.3
				s-0.1,0.2-0.2,0.3c-0.2,0.1-0.4,0.1-0.5,0c0,0-0.1-0.2,0-0.2C106.3,88.4,106.4,88.4,106.5,88.3L106.5,88.3L106.5,88.3z"/>
			<path class="st91" d="M106.7,88.4c0,0-0.1,0.1-0.1,0.1c0,0,0,0.1,0,0.1c0,0,0.2,0,0.2,0C106.8,88.5,106.7,88.4,106.7,88.4z"/>
			<path class="st71" d="M105.6,88c0.1,0,0.2,0,0.3,0c0.1,0,0.1,0.1,0.1,0.2s-0.1,0.2-0.3,0.2c-0.2,0-0.4-0.1-0.4-0.2
				c0-0.1,0-0.2,0.1-0.3C105.5,88,105.5,88,105.6,88L105.6,88L105.6,88z"/>
			<path class="st98" d="M105.5,88.1c0,0-0.2,0.2-0.3,0.3c-0.1,0.1-0.4,0.5-0.5,0.6c0-0.1,0.1-0.1,0.1-0.2c-0.1,0.1-0.3,0.2-0.3,0.4
				c-0.1,0.3,0.5,0.4,0.9,0.5c0.4,0.1,0.5,0.1,0.5,0.1c-0.1-0.2-0.3-0.4-0.4-0.7c-0.1-0.3-0.2-0.4-0.1-0.5c0.1-0.2,0.2-0.3,0.2-0.4
				C105.6,88.2,105.5,88.1,105.5,88.1z"/>
			<path class="st72" d="M97.3,88.7c0.1,0,0.1,0,0.2,0c0.1,0,1.2-0.4,2.4-0.4c0.9,0.1,1.8,0.2,2.6,0.4c1.5,0.4,3.3,1.2,4.5,1.6
				c0.3,0.1,0.6,0.3,0.9,0.4c0.9,0.4,1,0.4,1.5,0.5c0.6,0.1,1.3-0.1,2-0.3c0.8-0.2,2.2-0.3,3.5-0.5c0.4-0.1,0.8-0.1,1.2-0.3
				c0,0-1,1-3.4,1.3c-1,0.1-1.9,0.2-2.9,0c-0.8-0.1-1.3-0.2-1.6-0.3c-0.4-0.1-1.3-0.5-2.4-0.7c-0.8-0.2-1.6-0.3-2.6-0.5
				C100.8,89.7,98.2,89.2,97.3,88.7L97.3,88.7z"/>
			<line class="st99" x1="96" y1="79.5" x2="90" y2="73.8"/>
			<path class="st10" d="M94.6,84.2c-0.6,0.5-1.2,1-1.8,1.4L91,87c-0.6,0.4-1.2,0.9-1.8,1.4c-0.6,0.5-1.2,0.9-1.9,1.3
				c0.6-0.5,1.2-0.9,1.8-1.4c0.6-0.4,1.2-0.9,1.8-1.3l1.8-1.4C93.4,85.1,94,84.6,94.6,84.2L94.6,84.2z M91.4,89.3
				c0,0,0.6-0.5,1.5-1.3c1-0.9,2.2-2.1,2.6-2.4L91.4,89.3L91.4,89.3z"/>
			<path class="st10" d="M91.4,89.3c0.3-0.3,0.7-0.6,1-0.9l0.5-0.4c0.2-0.1,0.3-0.3,0.5-0.5c0.3-0.3,0.6-0.7,1-1
				c0.2-0.2,0.3-0.3,0.5-0.5c0.1-0.1,0.2-0.1,0.3-0.2c0.1-0.1,0.2-0.1,0.3-0.2c-0.1,0.1-0.2,0.2-0.2,0.3c-0.1,0.1-0.2,0.2-0.2,0.2
				c-0.2,0.2-0.3,0.3-0.5,0.5c-0.3,0.3-0.7,0.6-1,0.9c-0.3,0.3-0.7,0.6-1,0.9C92.1,88.7,91.8,89,91.4,89.3L91.4,89.3z M95.8,86.4
				c0,0-2.4,2.3-2.9,2.7L95.8,86.4z"/>
			<path class="st10" d="M95.8,86.4c-0.2,0.2-0.4,0.5-0.7,0.7l-0.7,0.7c-0.2,0.2-0.5,0.5-0.7,0.7c-0.3,0.2-0.5,0.4-0.8,0.6l0.7-0.7
				c0.2-0.2,0.5-0.4,0.7-0.7l0.7-0.7C95.3,86.8,95.5,86.6,95.8,86.4z M95.9,87.6c-0.2,0.6-0.5,1.2-0.8,1.8c-0.6,1.2-1.5,2.7-1.9,3.5
				L95.9,87.6L95.9,87.6z"/>
			<path class="st10" d="M95.9,87.6c0,0.3-0.1,0.5-0.2,0.7c-0.1,0.2-0.2,0.5-0.3,0.7c-0.1,0.2-0.2,0.5-0.4,0.7
				c-0.1,0.2-0.3,0.4-0.4,0.6l-0.7,1.3c-0.3,0.4-0.5,0.9-0.8,1.3c0.2-0.5,0.4-0.9,0.7-1.3c0.3-0.4,0.5-0.9,0.7-1.3
				c0.1-0.2,0.2-0.4,0.3-0.7c0.1-0.2,0.2-0.5,0.3-0.7c0.1-0.2,0.2-0.5,0.3-0.7C95.6,88.1,95.7,87.8,95.9,87.6L95.9,87.6z"/>
			<path class="st100" d="M98.5,93.6c0,0-0.7,1-0.6,2.2C98,95.1,98.2,94.1,98.5,93.6z M99.1,94.5c0,0-0.3,2.6-0.5,3.9
				C99,96.9,99,97,99.1,94.5z M103.9,98.5c0,0-1.1,3.2-1.1,4C103,101.7,103.5,99.8,103.9,98.5L103.9,98.5z"/>
			<path class="st101" d="M106.4,93.4c0,0,1.7,2.9,3,5.3C109.1,97.5,108.3,95.2,106.4,93.4z"/>
			<path class="st102" d="M111.1,97.6c1,1.7,1.8,3.4,2.6,5.2C113.5,101.6,113.1,99.5,111.1,97.6z"/>
			<path class="st103" d="M124.8,101.9c0.3-0.2,0.9-1.2,1.4-1.4c0.5-0.3,0.9-0.3,1.3-0.8c0.4-0.5,0.6-0.8,1.6-1.3
				c1.4-0.6,0.4-1.4,0.4-1.4c0.2-0.1,0.3-0.3,0.5-0.4c0.4-0.3,0.8-0.6,0.7-1.2c-0.1-1-0.2-2.4-1-3.2c0.8-0.2,2.2-0.3,3.2-0.5
				c1.1-0.3,1.5-0.6,1.5-0.6s-0.6-1,0.4-2.1c1-1,1.8-1.7,2.4-2.8c-0.7-0.1-1.7-0.4-4.4,0.6c0.1,0.1,0.3,0.1,0.4,0.2
				c0,0-1.6,0.5-2.2,1c-1,0.9-1.2,1.6-2.3,2.1c-1.1,0.5-2.3,0.4-3.2,0.8c-0.9,0.4-1.1,0.8-1.4,1c0.1,0.1,0,0.2,0.1,0.4
				c-0.1,0.1-0.6,1-1.1,1c0.1,0.2,0.5,0.3,0.5,0.3s-0.3,0.2-1.1,0.3c0.4,0.4,0.8,0.9,1.9,1.6c-0.1,0.2-0.5,0.5-0.3,0.8
				c0.2,0.3,0.6,0.8,2.2,1.2c-0.8,0-1.8,0.2-3.2,0.1c-1.3-0.2-1.5-0.3-2.4-0.1c0.1,0.1,0.3,0.1,0.5,0.3c-0.2,0-1.6-0.2-2,0.5
				c-0.5,0.6-0.7,1.7-0.7,2.4c-0.3,0.1-0.5,0.3-0.4,0.8c0.1,0.5,0.8,0.6,1.2,0.9c0.4,0.3,0.4,0.4,0.8,0.3c0.4-0.1,1-0.5,1.4-0.5
				c0.4,0,0.6,0.3,0.6,0.3s1-0.5,1.1-0.4c0.1,0.1,0,0.6,0.1,0.7C123.5,102.7,124.6,102,124.8,101.9L124.8,101.9z"/>
			<path class="st104" d="M146,72.8c-4.5-11.7-15.8-13.9-15.8-13.9h-32l0.1,11.9h6.4v26.7h-6.5v11.9h31.1c7.5,0,13.5-7.5,13.5-7.5
				C152.5,88.2,146,72.8,146,72.8L146,72.8z M129.5,93.9c0,0-2.4,3.5-5.1,3.5h-5.3l-0.1-26.5h6.8c0,0,3.2,0.7,5.4,6.9
				C131.1,77.8,134.1,86.7,129.5,93.9z"/>
		</g>
	</g>
</g>
<circle class="st105" cx="120.9" cy="83.8" r="42.7"/>
</svg>
