<?xml version="1.0" encoding="utf-8"?>
<!-- Generator: Adobe Illustrator 25.2.1, SVG Export Plug-In . SVG Version: 6.00 Build 0)  -->
<svg version="1.1" id="Layer_1" xmlns:v="https://vecta.io/nano"
	 xmlns="http://www.w3.org/2000/svg" xmlns:xlink="http://www.w3.org/1999/xlink" x="0px" y="0px" viewBox="0 0 186 171"
	 style="enable-background:new 0 0 186 171;" xml:space="preserve">
<style type="text/css">
	.st0{fill:#FEC803;}
	.st1{fill:#F0B90B;}
	.st2{opacity:0.1;fill:none;stroke:#191326;stroke-width:3;enable-background:new    ;}
	.st3{fill:#FFFFFF;}
	.st4{opacity:0.4;fill:none;stroke:#565656;stroke-width:2.837;enable-background:new    ;}
	.st5{fill:#1E1E1E;}
	.st6{fill:#E6007A;}
</style>
<g>
	<path class="st0" d="M172.4,95c-1-7.8-6.2-14.9-13.3-18.2c-8.6-4-18.7-2.6-27.8-5.3c-11.8-3.5-20.4-13.3-30.9-19.8
		C88,44.1,73.2,41.4,58.8,38.8C49.2,37.1,39.1,35.5,30,39c-12.3,4.9-19.5,20-15.5,32.6c6.8,21.4,37,27.1,46.2,47.6
		c4.8,10.6,3.2,24.1,10.7,32.9c9,10.5,25.5,8.7,38.9,5.5c10.2-2.5,20.3-5.3,30.4-8.2c8.2-2.3,16.8-4.8,22.8-10.8
		c7.5-7.4,4.4-13.1,4.3-21.7C167.9,109.5,173.5,103.3,172.4,95z"/>
</g>
<circle class="st1" cx="70.2" cy="39.8" r="29"/>
<circle class="st2" cx="70.2" cy="39.8" r="27.5"/>
<circle class="st3" cx="119.7" cy="83.3" r="43.5"/>
<circle class="st4" cx="119.7" cy="83.3" r="42.1"/>
<g>
	<path class="st3" d="M63.2,36.8c-0.1-0.1-0.2-0.1-0.2-0.2c-1.2-1.2-2.4-2.4-3.7-3.6c-0.2-0.2-0.2-0.3,0-0.5
		c3.6-3.5,7.1-7.1,10.6-10.6c0.2-0.2,0.3-0.2,0.5,0c3.5,3.5,7.1,7.1,10.6,10.6c0.2,0.2,0.2,0.3,0,0.5c-1.2,1.2-2.4,2.4-3.6,3.6
		c-0.3,0.3-0.4,0.1-0.6-0.1c-2.1-2.1-4.2-4.2-6.3-6.4c-0.3-0.3-0.4-0.3-0.7,0c-2.1,2.1-4.2,4.2-6.3,6.3
		C63.5,36.6,63.3,36.7,63.2,36.8z"/>
	<path class="st3" d="M70.2,57.9c-0.1-0.1-0.1-0.1-0.2-0.2c-3.6-3.5-7.1-7.1-10.7-10.6c-0.2-0.2-0.2-0.3,0-0.5
		c1.2-1.2,2.4-2.4,3.6-3.6c0.3-0.3,0.4-0.1,0.6,0.1c2.1,2.1,4.2,4.2,6.3,6.3c0.3,0.3,0.5,0.3,0.8,0c2.1-2.1,4.2-4.2,6.3-6.3
		c0.3-0.3,0.4-0.3,0.7,0c1.1,1.2,2.3,2.3,3.5,3.5c0.2,0.2,0.2,0.3,0,0.6c-3.5,3.5-7.1,7-10.6,10.6C70.4,57.8,70.4,57.9,70.2,57.9z"
		/>
	<path class="st3" d="M56.2,35.7c0.1,0.1,0.2,0.1,0.2,0.2c1.2,1.2,2.4,2.4,3.6,3.6c0.2,0.2,0.2,0.3,0,0.5c-1.2,1.2-2.4,2.4-3.6,3.6
		c-0.2,0.2-0.3,0.2-0.5,0c-1.2-1.2-2.4-2.4-3.6-3.6c-0.1-0.1-0.3-0.2,0-0.5c1.2-1.2,2.5-2.5,3.7-3.7C56,35.8,56.1,35.8,56.2,35.7z"
		/>
	<path class="st3" d="M84.3,43.9c-0.1-0.1-0.2-0.1-0.2-0.2c-1.2-1.2-2.4-2.4-3.6-3.6c-0.2-0.2-0.2-0.3,0-0.5
		c1.2-1.2,2.4-2.4,3.6-3.6c0.2-0.2,0.3-0.2,0.5,0c1.2,1.2,2.4,2.4,3.6,3.6c0.2,0.2,0.2,0.3,0,0.5c-1.2,1.2-2.4,2.4-3.6,3.6
		C84.5,43.7,84.4,43.8,84.3,43.9z"/>
	<path class="st3" d="M70.2,35.7c0.2,0,0.2,0.1,0.3,0.2c1.2,1.2,2.4,2.4,3.6,3.6c0.2,0.2,0.2,0.3,0,0.5c-1.2,1.2-2.4,2.4-3.6,3.6
		c-0.2,0.2-0.3,0.2-0.5,0c-1.2-1.2-2.4-2.4-3.6-3.6c-0.2-0.2-0.2-0.3,0-0.5c1.2-1.2,2.4-2.4,3.6-3.6C70.1,35.9,70.1,35.8,70.2,35.7z
		"/>
</g>
<g>
	<path class="st5" d="M120,54.3c-12.1,0-21.9,9.8-21.9,21.9c0,2.4,0.4,4.8,1.2,7.1c0.6,1.6,2.3,2.4,3.9,1.9c1.5-0.6,2.4-2.3,1.9-3.8
		c-0.7-1.8-0.9-3.7-0.9-5.6c0.3-8.7,7.6-15.6,16.3-15.3c8.7,0.3,15.6,7.6,15.3,16.3c-0.2,8.2-6.7,14.8-14.9,15.3
		c0,0-3.1,0.2-4.6,0.4c-0.6,0.1-1.1,0.2-1.7,0.3c-0.1,0.1-0.2,0.1-0.3,0l0,0c-0.1-0.1-0.1-0.2,0-0.2l0.5-2.6l2.9-13
		c0.3-1.6-0.7-3.2-2.3-3.6s-3.2,0.7-3.6,2.3c0,0-6.9,31.8-6.9,32.1c-0.4,1.5,0.5,3.1,2.1,3.5c0,0,0,0,0.1,0h0.2
		c1.5,0.4,3.1-0.5,3.5-2.1c0,0,0-0.1,0-0.1c0,0,0-0.1,0-0.1c0.1-0.4,1-4.6,1-4.6c0.7-3.2,3.2-5.6,6.5-6.1c0.7-0.1,3.5-0.3,3.5-0.3
		c12.1-1.2,20.8-11.9,19.6-24C140.1,63.1,131,54.6,120,54.3z"/>
	<path class="st6" d="M121.3,104.9c-2-0.4-3.9,0.9-4.3,2.8c0,0,0,0,0,0.1c-0.4,2,0.8,3.9,2.8,4.3c0,0,0,0,0,0h0.1
		c1.9,0.5,3.9-0.7,4.3-2.6c0,0,0,0,0,0v-0.2C124.6,107.3,123.3,105.4,121.3,104.9z"/>
</g>
</svg>
