<?xml version="1.0" encoding="utf-8"?>
<!-- Generator: Adobe Illustrator 25.2.3, SVG Export Plug-In . SVG Version: 6.00 Build 0)  -->
<svg version="1.1" id="Layer_1" xmlns:v="https://vecta.io/nano"
	 xmlns="http://www.w3.org/2000/svg" xmlns:xlink="http://www.w3.org/1999/xlink" x="0px" y="0px" viewBox="0 0 186 171"
	 style="enable-background:new 0 0 186 171;" xml:space="preserve">
<style type="text/css">
	.st0{fill:#FEC803;}
	.st1{fill:#F3BA2F;}
	.st2{opacity:0.1;fill:none;stroke:#191326;stroke-width:3;enable-background:new    ;}
	.st3{fill:#FFFFFF;}
	.st4{fill:#020102;}
	.st5{opacity:0.16;}
	.st6{fill:#FE8F00;}
	.st7{fill:#FEA501;}
	.st8{fill:#FD7A02;}
	.st9{fill:#FC7B03;}
	.st10{fill:#F77D08;}
	.st11{fill:#EFB953;}
	.st12{fill:#DA831D;}
	.st13{fill:#FEFEFE;}
	.st14{fill:#DBDBDC;}
</style>
<g>
	<path class="st0" d="M172.4,95c-1-7.8-6.2-14.9-13.3-18.2c-8.6-4-18.7-2.6-27.8-5.3c-11.8-3.5-20.4-13.3-30.9-19.8
		C88,44.1,73.2,41.4,58.8,38.8C49.2,37.1,39.1,35.5,30,39c-12.3,4.9-19.5,20-15.5,32.6c6.8,21.4,37,27.1,46.2,47.6
		c4.8,10.6,3.2,24.1,10.7,32.9c9,10.5,25.5,8.7,38.9,5.5c10.2-2.5,20.3-5.3,30.4-8.2c8.2-2.3,16.8-4.8,22.8-10.8
		c7.5-7.4,4.4-13.1,4.3-21.7C167.9,109.5,173.5,103.3,172.4,95z"/>
</g>
<circle class="st1" cx="70.2" cy="39.8" r="29"/>
<circle class="st2" cx="70.2" cy="39.8" r="27.5"/>
<g>
	<path class="st3" d="M63.9,37.2l6.3-6.3l6.3,6.3l3.7-3.7l-9.9-9.9l-9.9,9.9L63.9,37.2z M54,39.8l3.7-3.7l3.7,3.7l-3.7,3.7L54,39.8z
		 M63.9,42.4l6.3,6.3l6.3-6.3l3.7,3.7l-10,9.9l-9.9-10l0,0L63.9,42.4z M79.1,39.8l3.7-3.7l3.7,3.7l-3.7,3.7L79.1,39.8z M73.9,39.8
		L73.9,39.8L73.9,39.8l-3.7,3.7l-3.7-3.7l0,0l0,0l0.6-0.7l0.3-0.3l2.7-2.7L73.9,39.8L73.9,39.8z"/>
</g>
<path class="st4" d="M120.4,127.4c24.1,0,43.7-19.5,43.7-43.7S144.6,40,120.4,40S76.8,59.7,76.8,83.8S96.3,127.4,120.4,127.4z"/>
<g class="st5">
	<path d="M120.4,127.4c-11.6,0-22.5-4.5-30.7-12.7c-8.3-8.2-12.9-19.1-12.9-30.8S81.3,61.3,89.5,53s19.2-12.8,30.8-12.9l0,0h0.1
		c11.6,0,22.5,4.5,30.7,12.7C159.4,61,163.9,72,164,83.6s-4.5,22.6-12.7,30.9S132.1,127.3,120.4,127.4
		C120.5,127.4,120.4,127.4,120.4,127.4z M120.3,43.2c-10.8,0-21,4.3-28.7,12S79.8,73.1,79.8,83.9s4.3,21,12,28.7
		c7.7,7.6,17.8,11.8,28.6,11.8h0.1c10.8,0,21-4.3,28.7-12S161,94.6,161,83.8s-4.3-21-12-28.7C141.4,47.4,131.2,43.2,120.3,43.2
		L120.3,43.2L120.3,43.2z"/>
</g>
<g>
	<path class="st6" d="M127.1,81.2c0,0.1,0.1,0.3,0.2,0.4C127.3,81.5,127.2,81.3,127.1,81.2z"/>
	<path class="st6" d="M112.6,82.4c0.5-1.4,1.4-2.4,2.4-3.4c0,0,0,0,0,0c0,0,0,0,0,0c0.6-1.3,1.9-1.5,3.1-1.8c3-0.8,5.6,0,7.9,2
		c0.5,0.4,0.9,0.9,0.9,1.6c0.1,0.1,0.2,0.3,0.3,0.4c0,0,0,0,0,0c0,0,0.1,0,0.1,0.1c0.7,1.7,2.2,1.4,3.6,1.4c2.9,0,5.9,0,8.8,0
		c0.8,0,1.2,0,0.8-1.1c-0.9-2.5-1.8-5-3.2-7.2c-0.4-0.7-0.1-1.2,0.6-1c1.1,0.2,1.9-0.2,2.9-0.4c0,0,0,0,0,0
		c-0.1-0.1-0.2-0.3-0.3-0.4c-0.4,0.4-0.9,0.5-1.5,0.5c-2.9-0.2-5.6,0.6-8.2,1.8c-0.3,0.1-0.6,0.5-0.8,0.1c-0.2-0.3-0.1-0.7,0.1-1.1
		c1.1-1.7,2.4-3.2,3.8-4.6c-0.2-0.1-0.4-0.1-0.5-0.2c-1.4-1.9-3.2-3.2-5.2-4.3c-0.6-0.4-1.2-0.8-1.8-1.2c0,0,0,0,0,0c0,0,0,0,0,0
		c-0.7-0.5-1.8-0.1-2.2-1.1c-0.6,3.4-2.4,6.3-3.7,9.3c-0.1,0.3-0.2,0.8-0.7,0.8c-0.5,0-0.5-0.5-0.7-0.9c-1-2-2-4.1-3.1-6.1
		c-0.3-0.6-0.6-1.3-0.6-2v0c-0.3,0-0.7,0-1,0c0.1,0,0.1,0,0.2-0.1c-0.1,0-0.1,0-0.2,0.1c-3.4,0.8-6.4,2.2-9.1,4.4
		c0.3,1.2,1.5,1.7,2.2,2.5c0.9,1.1,1.6,2.3,2.5,3.5c0.2,0.2,0.5,0.6,0.2,0.8c-0.3,0.3-0.7,0.1-1-0.1c-2.5-1.3-5.2-1.8-8-1.7
		c-0.5,0-1,0-1.3,0.5l0,0c-2.1,2.9-3.9,6-4.8,9.5c0,0,0,0,0,0c5.6,0,11.2,0,16.7,0.1C112.1,82.9,112.4,82.8,112.6,82.4z"/>
	<path class="st6" d="M144.9,94.5c-1-0.7-2.4-1-2.5-2.6c0-0.8-0.2-1.6-0.2-2.3c0-0.8-0.4-1-1.1-1c-4.1,0-8.2,0.1-12.2,0
		c-1.1,0-1.3,0.8-2,1.2c-1.8,2.2-4,3.6-6.9,3.5c-3-0.1-5.3-1.5-6.8-4c-0.4-0.8-0.9-0.9-1.7-0.9c-5.5,0-11,0-16.5,0
		c-0.4,0-1,0.3-1.2-0.4c0,0,0,0,0,0c-0.2,1.2-0.4,2.3-0.4,3.5c0,0.4,0,0.9-0.4,1.2c-1.1,0.8-1.3,1.9-0.8,3.1
		c0.5,1.2,1.5,1.7,2.8,1.7c17,0,33.9,0,50.9,0c0.5,0,1,0.1,1.5-0.2c0,0,0,0,0,0c-0.4,0-0.8,0-1.2,0
		C146.5,95.5,146.4,95.4,144.9,94.5z"/>
	<path class="st4" d="M111,88c1,0,1.8,0.2,2.4,1.2c2.9,4.7,9.3,5.1,12.7,0.8c0.1-0.2,0.3-0.3,0.5-0.5c0.2-0.2,0.3-0.4,0.5-0.6
		c0.3-0.4,0.7-0.5,1.3-0.6c0.4-0.1,0.8-0.1,1.3-0.1c3.6,0.1,7.2,0,10.8,0c0.6,0,1,0,1.2,0.1c1.8,0,3.6,0,5.5,0
		c-0.1-2-0.5-3.8-1.4-5.6c-1.8,0-3.7,0-5.5,0c-0.2,0.1-0.6,0.1-1,0.1c-3.4,0-6.8,0-10.2,0c-0.3,0-0.5,0-0.7-0.1
		c-0.7,0-0.9-0.4-1.1-0.9c-0.1-0.2-0.3-0.3-0.4-0.5c-0.2-0.2-0.3-0.4-0.4-0.6c-0.1-0.3-0.2-0.5-0.3-0.8c-1.4-1.5-3-2.5-5.2-2.8
		c-2-0.2-3.7,0.3-5.4,1.2c-0.2,0.2-0.4,0.5-0.6,0.7c-0.8,0.9-1.6,1.8-2.1,3c-0.3,0.7-0.9,1-1.6,1c-5.1,0-10.2,0-15.3,0
		c-0.4,0-0.8,0-1.1-0.4c0,0,0,0,0,0c-0.8,1.6-1,3.4-1.4,5.1c0,0,0,0,0,0C99.5,88.1,105.2,88,111,88z M114.8,83.5
		c0.8-2.3,3-3.9,5.4-3.8c1.7,0.1,3.1,0.6,4.1,2c1.5,1.5,1.8,4.2,0.7,5.8c-0.6,0.7-0.8,1.6-1.7,2.2c-1.9,1.3-4.7,1.4-6.6-0.1
		C114.8,88.3,114,85.8,114.8,83.5z"/>
	<path class="st4" d="M128.5,82.9c0.2,0.1,0.5,0.1,0.7,0.1c3.4-0.1,6.8,0,10.2,0c0.5,0,0.8,0,1-0.1c-4,0-7.9,0-11.9,0.1
		C128.6,82.9,128.5,82.9,128.5,82.9z"/>
	<path class="st4" d="M96.1,83.2c5.1,0,10.2,0,15.3,0c0.7,0,1.3-0.3,1.6-1c0.5-1.1,1.3-2.1,2.1-3c0.2-0.3,0.4-0.5,0.6-0.7
		c-0.2,0.1-0.5,0.3-0.7,0.4c0,0,0,0,0,0c-1,1-2,2-2.4,3.4c-0.1,0.4-0.4,0.5-0.8,0.5c-5.6,0-11.2,0-16.7-0.1
		C95.3,83.2,95.7,83.2,96.1,83.2z"/>
	<path class="st4" d="M127.1,81.2C127.1,81.2,127.1,81.2,127.1,81.2c-0.1-0.1-0.2-0.3-0.3-0.4c-0.2-0.2-0.4-0.5-0.6-0.7
		c0.1,0.2,0.3,0.5,0.3,0.8c0.1,0.2,0.2,0.5,0.4,0.6c0.1,0.2,0.3,0.3,0.4,0.5c0-0.1-0.1-0.2-0.1-0.4
		C127.3,81.5,127.2,81.4,127.1,81.2z"/>
	<path class="st4" d="M94.9,88.3c5.5,0,11,0,16.5,0c0.8,0,1.3,0.2,1.7,0.9c1.5,2.6,3.8,4,6.8,4c3,0.1,5.1-1.3,6.9-3.5
		c0.1-0.3,0.2-0.6,0.4-0.8c-0.2,0.2-0.4,0.3-0.5,0.6c-0.2,0.1-0.4,0.3-0.5,0.5c-3.4,4.3-9.8,3.9-12.7-0.8c-0.6-0.9-1.4-1.2-2.4-1.2
		c-5.8,0-11.6,0.1-17.4,0C93.9,88.6,94.5,88.3,94.9,88.3z"/>
	<path class="st4" d="M141.9,88.4c-0.3-0.1-0.6-0.1-1.2-0.1c-3.6,0-7.2,0-10.8,0c-0.5,0-0.9,0-1.3,0.1c0.2,0,0.3,0,0.5,0
		C133.3,88.4,137.6,88.4,141.9,88.4z"/>
	<path class="st7" d="M115.2,63.3c0.5,0.5,0.6,1.2,0.8,1.8c1,2,2.2,4,3,6c0.1,0.2,0.2,0.6,0.5,0.6c0.3,0,0.4-0.3,0.5-0.6
		c1.2-2.8,2.8-5.3,3.4-8.3c0.1-0.3,0-0.7,0.5-0.7c-0.8-1.6-2.2-2.4-4-2.4c-1.9,0-3.5,0.6-4.4,2.4C115.9,62.7,115.4,63,115.2,63.3z"
		/>
	<path class="st7" d="M123.5,62.9c-0.6,3-2.2,5.6-3.4,8.3c-0.1,0.2-0.2,0.6-0.5,0.6c-0.3,0-0.4-0.3-0.5-0.6c-0.9-2.1-2.1-4-3-6
		c-0.3-0.6-0.3-1.3-0.8-1.8c0,0,0,0,0,0c0,0.7,0.3,1.4,0.6,2c1,2,2,4.1,3.1,6.1c0.2,0.3,0.1,0.9,0.7,0.9c0.5,0,0.6-0.5,0.7-0.8
		c1.4-3.1,3.1-6,3.7-9.3C123.5,62.2,123.6,62.6,123.5,62.9z"/>
	<path class="st8" d="M138.7,73.7c-1.3,0.1-1.3,0.1-0.7,1.3c1.1,2,2,4.1,2.7,6.3c0.2,0.7,0.2,1.1,0,1.4c1.2-0.1,2.5-0.3,3.8-0.2
		c0.5,0,1,0,1.5,0.3c0.1-0.8-0.3-1.4-0.6-2c-1.2-2.9-2.6-5.6-4.6-7.9c0,0,0,0,0,0C140.2,73.6,139.5,73.6,138.7,73.7z"/>
	<path class="st8" d="M137.8,73.3c-0.7-0.1-1,0.3-0.6,1c1.4,2.3,2.3,4.7,3.2,7.2c0.4,1.1,0,1.1-0.8,1.1c-2.9,0-5.9,0-8.8,0
		c-1.4,0-2.9,0.4-3.6-1.4c0,0-0.1,0-0.1-0.1c0,0,0,0,0,0s0,0,0,0s0,0,0,0c0.1,0.1,0.1,0.3,0.2,0.4c0.5,1.1,1.5,1.2,2.7,1.2
		c3.1-0.1,6.3,0,9.4,0c0.4,0,0.9,0,1.3-0.1c0.2-0.2,0.2-0.7,0-1.4c-0.6-2.2-1.6-4.3-2.7-6.3c-0.6-1.2-0.6-1.2,0.7-1.3
		c0.8-0.1,1.5-0.1,2-0.8C139.8,73.1,138.9,73.5,137.8,73.3z"/>
	<path class="st8" d="M140.7,82.7c-0.1,0.1-0.1,0.1-0.2,0.2c1.8,0,3.7,0,5.5,0c-0.4-0.3-1-0.3-1.5-0.3
		C143.2,82.4,142,82.6,140.7,82.7z"/>
	<path class="st8" d="M127.4,82c0.2,0.5,0.4,0.9,1.1,0.9C128,82.7,127.7,82.4,127.4,82z"/>
	<path class="st8" d="M140.7,82.7c-0.4,0-0.9,0.1-1.3,0.1c-3.1,0.1-6.3,0-9.4,0c-1.2,0-2.2-0.1-2.7-1.2c0,0.1,0.1,0.2,0.1,0.4
		c0.3,0.4,0.6,0.7,1.1,0.9c0,0,0.1,0,0.1,0c4,0,7.9,0,11.9-0.1C140.6,82.8,140.7,82.7,140.7,82.7z"/>
	<polygon class="st8" points="127.1,81.2 127.1,81.2 127.1,81.2 	"/>
	<path class="st9" d="M147.8,92c0.1-1.2-0.5-2.4-0.5-3.6c0,0,0,0,0,0c0,0,0,0,0,0c-1.6,0.6-3.2,0.3-4.8,0.2c-0.1,0-0.2,0-0.4,0
		c0.2,0.2,0.3,0.7,0.4,1.4c0,0.1,0,0.2,0,0.2c-0.1,2,0.8,3.3,2.6,4.1c0.8,0.3,1.3,0.9,1.2,1.8c0,0.5,0.4,0.8,0.6,1.1c0,0,0,0,0,0
		c2-0.7,2.6-2.7,1.3-4.2C148.1,92.6,147.8,92.4,147.8,92z"/>
	<path class="st9" d="M146.5,96.1c0.1-0.9-0.5-1.5-1.2-1.8c-1.8-0.8-2.7-2.1-2.6-4.1c0-0.1,0-0.2,0-0.2c-0.1-0.7-0.2-1.2-0.4-1.4
		c-0.4,0-0.9-0.1-1.3-0.1c-3.8,0-7.7,0-11.5,0c-1.2,0-2,0.2-2.5,1.3c0.7-0.4,0.9-1.2,2-1.2c4.1,0.1,8.2,0.1,12.2,0
		c0.7,0,1.1,0.1,1.1,1c0,0.8,0.2,1.5,0.2,2.3c0.1,1.5,1.5,1.9,2.5,2.6c1.4,0.9,1.5,1,1,2.7c0.4,0,0.8,0,1.2,0
		C146.8,96.9,146.4,96.6,146.5,96.1z"/>
	<path class="st9" d="M127.2,88.9c0.4-0.3,0.8-0.5,1.3-0.6C128,88.4,127.5,88.5,127.2,88.9z"/>
	<path class="st9" d="M142.2,88.6c0.1,0,0.2,0,0.4,0c1.6,0.1,3.2,0.4,4.8-0.2c0,0,0,0,0,0c-1.8,0-3.6,0-5.5,0
		C142,88.4,142.1,88.5,142.2,88.6z"/>
	<path class="st9" d="M141.9,88.4c-4.3,0-8.6,0-12.9-0.1c-0.2,0-0.3,0-0.5,0c-0.5,0.1-0.9,0.3-1.3,0.6c-0.2,0.2-0.3,0.5-0.4,0.8
		c0.5-1.1,1.3-1.3,2.5-1.3c3.8,0.1,7.7,0,11.5,0c0.4,0,0.9,0.1,1.3,0.1C142.1,88.5,142,88.4,141.9,88.4z"/>
	<path class="st7" d="M133.9,69.1c-0.1,0.7-0.6,1.1-1.1,1.5c-1.1,1.1-1.9,2.3-2.7,3.7c0.6,0.2,0.9-0.1,1.3-0.3
		c2.3-1,4.7-1.6,7.3-1.4c0.6,0,1.2-0.2,1.8-0.2c0.1-3-1.4-5-4.7-4.7C135,68.1,134.4,68.5,133.9,69.1
		C133.8,69.1,133.9,69.1,133.9,69.1z"/>
	<path class="st7" d="M138.7,72.6c-2.5-0.1-4.9,0.4-7.3,1.4c-0.4,0.2-0.7,0.4-1.3,0.3c0.8-1.4,1.6-2.6,2.7-3.7
		c0.4-0.4,1-0.8,1.1-1.5c0,0,0,0-0.1-0.1c0,0,0,0,0,0c0,0,0,0,0,0c-1.4,1.5-2.7,2.9-3.8,4.6c-0.2,0.4-0.4,0.8-0.1,1.1
		c0.3,0.4,0.6,0,0.8-0.1c2.6-1.2,5.3-2,8.2-1.8c0.6,0,1.1,0,1.5-0.5C139.8,72.4,139.3,72.6,138.7,72.6z"/>
	<path class="st7" d="M101,72.6c2.5-0.1,5,0.3,7.3,1.3c0.4,0.2,0.7,0.5,1.3,0.3c-1.1-1.9-2.3-3.6-3.9-5c-0.4-0.4-0.9-0.7-0.6-1.4
		c-0.5,0-0.9-0.1-1.4-0.1c-2.5-0.1-4.1,1.4-4.1,4c0,0.5,0.1,1.1,0.1,1.6c0,0,0,0,0,0C99.9,72.6,100.5,72.6,101,72.6z"/>
	<path class="st7" d="M101,72.9c2.8-0.1,5.5,0.4,8,1.7c0.3,0.2,0.7,0.4,1,0.1c0.3-0.3-0.1-0.6-0.2-0.8c-0.8-1.1-1.6-2.3-2.5-3.5
		c-0.7-0.9-1.9-1.4-2.2-2.5c-0.3,0.7,0.2,1,0.6,1.4c1.6,1.5,2.8,3.2,3.9,5c-0.6,0.1-1-0.2-1.3-0.3c-2.3-1-4.8-1.4-7.3-1.3
		c-0.6,0-1.1,0-1.3,0.8c0,0,0,0,0,0l0,0C100.1,72.9,100.6,72.9,101,72.9z"/>
	<path class="st10" d="M133.8,69c0.3-0.9,1-1.3,1.9-1.3c-2.8-2.3-5.9-3.9-9.5-4.4C129.2,64.6,131.9,66.4,133.8,69z"/>
	<path class="st10" d="M128,64.5c2,1.1,3.9,2.4,5.2,4.3c0.1,0.1,0.3,0.2,0.5,0.2l0,0c0,0,0,0,0,0c-2-2.7-4.6-4.4-7.6-5.7
		c0,0,0,0,0,0C126.8,63.7,127.4,64.2,128,64.5z"/>
	<path class="st10" d="M133.8,69C133.8,69,133.8,69.1,133.8,69c0.6-0.5,1.2-0.9,1.9-1.3C134.8,67.8,134.1,68.2,133.8,69z"/>
	<path class="st10" d="M133.8,69.1C133.8,69.1,133.8,69,133.8,69.1C133.8,69.1,133.8,69.1,133.8,69.1L133.8,69.1
		C133.8,69.1,133.8,69.1,133.8,69.1C133.8,69.1,133.8,69.1,133.8,69.1z"/>
	<path class="st11" d="M115.1,63.3C115.2,63.3,115.2,63.3,115.1,63.3c0-0.4,0.5-0.7,0.5-1.1c-0.3,0.5-0.7,0.9-1.3,1.1
		C114.6,63.2,114.9,63.3,115.1,63.3z"/>
	<path class="st11" d="M115.2,63.4L115.2,63.4C115.2,63.4,115.2,63.4,115.2,63.4C115.2,63.3,115.2,63.3,115.2,63.4
		c0-0.1,0-0.1-0.1-0.1c-0.3,0-0.5,0-0.8,0c-0.1,0-0.1,0-0.2,0.1C114.6,63.4,114.9,63.4,115.2,63.4z"/>
	<path class="st11" d="M115.2,63.3C115.2,63.3,115.2,63.3,115.2,63.3c0.2-0.4,0.6-0.7,0.5-1.2C115.7,62.6,115.2,62.9,115.2,63.3z"/>
	<path class="st11" d="M115.2,63.3C115.2,63.3,115.2,63.3,115.2,63.3C115.2,63.4,115.2,63.4,115.2,63.3
		C115.2,63.4,115.2,63.3,115.2,63.3C115.2,63.3,115.2,63.3,115.2,63.3z"/>
	<path class="st12" d="M124.1,78.1c1.2,0.7,2.1,1.5,2.7,2.7c0-0.7-0.5-1.2-0.9-1.6c-2.3-2-4.9-2.8-7.9-2c-1.1,0.3-2.4,0.5-3.1,1.8
		c0,0,0,0,0,0C117.2,76.8,121.1,76.4,124.1,78.1z"/>
	<path class="st12" d="M123.5,78c-2.3-1.1-4.7-1-7,0c-0.3,0.1-0.6,0.3-0.8,0.5c1.6-0.9,3.4-1.4,5.4-1.2c2.2,0.2,3.8,1.3,5.2,2.8
		C125.6,79.1,124.6,78.5,123.5,78z"/>
	<path class="st12" d="M124.1,78.1c-3-1.7-6.9-1.3-9.1,0.8c0.2-0.1,0.5-0.3,0.7-0.4c0.2-0.2,0.5-0.4,0.8-0.5c2.3-1,4.7-1.2,7,0
		c1.1,0.5,2.2,1.1,2.8,2.1c0.2,0.2,0.4,0.5,0.6,0.7C126.3,79.6,125.3,78.8,124.1,78.1z"/>
	<path class="st13" d="M116.8,89.7c1.9,1.4,4.7,1.4,6.6,0.1c0.8-0.6,1-1.5,1.7-2.2c-0.1-0.2-0.3-0.5-0.2-0.7
		c0.6-1.8-0.1-3.5-0.5-5.2c-1-1.4-2.4-2-4.1-2c-2.5-0.1-4.7,1.5-5.4,3.8C114,85.8,114.8,88.3,116.8,89.7z"/>
	<path class="st14" d="M125,87.6c1.1-1.7,0.8-4.4-0.7-5.8C125.4,83.6,125.4,85.6,125,87.6z"/>
	<path class="st14" d="M124.8,86.9c-0.1,0.2,0.1,0.4,0.2,0.7c0.5-2,0.4-4-0.7-5.8C124.7,83.4,125.3,85.1,124.8,86.9z"/>
</g>
</svg>
