<?xml version="1.0" encoding="utf-8"?>
<!-- Generator: Adobe Illustrator 25.3.1, SVG Export Plug-In . SVG Version: 6.00 Build 0)  -->
<svg version="1.1" id="Layer_1" xmlns:v="https://vecta.io/nano"
	 xmlns="http://www.w3.org/2000/svg" xmlns:xlink="http://www.w3.org/1999/xlink" x="0px" y="0px" viewBox="0 0 186 171"
	 style="enable-background:new 0 0 186 171;" xml:space="preserve">
<style type="text/css">
	.st0{fill:#FEC803;}
	.st1{fill:#F3BA2F;}
	.st2{opacity:0.1;fill:none;stroke:#191326;stroke-width:3;enable-background:new    ;}
	.st3{fill:#9D7022;}
	.st4{fill:#262B2D;}
	.st5{fill:#475558;}
	.st6{fill:#A27323;}
	.st7{fill:#AF7B25;}
	.st8{fill:#404B4E;}
	.st9{fill:#30363A;}
	.st10{fill:#3F4A4C;}
	.st11{fill:#333C3F;}
	.st12{fill:#A47F41;}
	.st13{fill:#EFC14A;}
	.st14{fill:#E1B542;}
	.st15{fill:#AE7B24;}
	.st16{fill:#D5AB3B;}
	.st17{fill:#D3A839;}
	.st18{fill:#C89D32;}
	.st19{fill:#1B474A;}
	.st20{fill:#255559;}
	.st21{fill:#252B2E;}
	.st22{fill:#D9AD3D;}
	.st23{fill:#DDA833;}
	.st24{fill:#E2AF38;}
	.st25{fill:#D8A02C;}
	.st26{fill:#DBA630;}
	.st27{fill:#CFA030;}
	.st28{fill:#E2B03A;}
	.st29{fill:#A7873B;}
	.st30{fill:#37666A;}
	.st31{fill:#2E5A5D;}
	.st32{fill:#E8BC47;}
	.st33{fill:#E5B23B;}
	.st34{fill:#262A2C;}
	.st35{fill:#142C2C;}
	.st36{fill:#49767A;}
	.st37{fill:#BDD3D1;}
	.st38{fill:#A5C1C2;}
	.st39{fill:#DEE9E8;}
	.st40{fill:#141714;}
	.st41{fill:#27292B;}
	.st42{fill:#FFFFFF;}
	.st43{opacity:0.16;}
</style>
<g>
	<path class="st0" d="M172.4,95c-1-7.8-6.2-14.9-13.3-18.2c-8.6-4-18.7-2.6-27.8-5.3c-11.8-3.5-20.4-13.3-30.9-19.8
		C88,44.1,73.2,41.4,58.8,38.8C49.2,37.1,39.1,35.5,30,39c-12.3,4.9-19.5,20-15.5,32.6c6.8,21.4,37,27.1,46.2,47.6
		c4.8,10.6,3.2,24.1,10.7,32.9c9,10.5,25.5,8.7,38.9,5.5c10.2-2.5,20.3-5.3,30.4-8.2c8.2-2.3,16.8-4.8,22.8-10.8
		c7.5-7.4,4.4-13.1,4.3-21.7C167.9,109.5,173.5,103.3,172.4,95z"/>
</g>
<circle class="st1" cx="70.2" cy="39.8" r="29"/>
<circle class="st2" cx="70.2" cy="39.8" r="27.5"/>
<g id="gnmW5u_1_">
	<g>
		<path class="st3" d="M91.6,116.9c-1.5-0.9-2.5-2.2-3.6-3.5c-6-6.8-9.8-14.7-10.9-23.6C74.2,66.3,89.8,45.7,111.7,41
			c4.1-0.9,8.3-1.2,12.5-0.7c0.6,0.1,1.2,0.2,1.8,0.2c0.1,0.2,0,0.4-0.1,0.5c-1.2,0.7-2.2,1.7-3.7,1.6c-1.8-0.1-3.7,0.2-5.5,0.2
			c-2.8,0.2-5.6,0.9-8.3,1.7c-2.7,0.7-5.1,1.8-7.5,3.1c-2.2,1.2-4.3,2.7-6.3,4.2c-4.1,3.3-7.4,7.2-10,11.8c-1.7,3-2.9,6.1-3.9,9.4
			c-0.9,3.2-1.2,6.5-0.6,9.8c0.1,0.5,0.2,0.9,0.3,1.4c-0.1,0.8,0,1.7,0.2,2.5c0.1,0.6,0.3,1.3-0.3,1.7c-0.3,0.1-0.6-0.1-0.8-0.4
			c0.6,5.2,1.8,10.1,4.7,14.5c0.3,0.5,0.7,1,0.9,1.7c0,0.6,0.1,1.2,0.5,1.7c1.3,2.2,2.6,4.4,4,6.5c0.8,1.1,1.7,2.3,2.2,3.6
			C91.9,116.5,92.2,116.8,91.6,116.9z"/>
		<path class="st4" d="M142,122.5c-3.4,2-7.1,3.5-11,4.3c-2.7,0.3-5.4,0-8-1c-2-0.9-3.7-2.3-5-4.1c-1.9-3.6-2.2-7.4-1.7-11.3
			c0.1-0.4,0-0.9,0.1-1.3c0-0.1,0.1-0.2,0.2-0.3c0.5-0.1,0.8,0.3,1.2,0.5c0.5,0.5,0.9,0.9,1.4,1.4c0,0,0.1,0.1,0.2,0.1
			c0.2,0,0.1-0.1,0.1-0.2c-0.1-0.2-0.2-0.4-0.3-0.6c-0.7-3.3-1.3-6.6-0.9-10c0.4-3.1,1.5-5.9,3.2-8.5c0.4-0.8,1.1-1.4,1.8-1.9
			c0.7-0.5,0.9-1.1,0.8-1.9c-0.1-1.2,0.3-2.4-0.1-3.5c-0.1-0.8-0.1-1.6,0-2.4c0.2-0.5,0.2-1.1,0.2-1.6c-0.1-1.9,0.2-3.8,0.7-5.7
			c0.2-0.9,0.4-1.8,0.7-2.6c0.4-1.1,0.4-2.3,1.1-3.3c0.3-0.6,0.6-1.1,0.7-1.7c0.1-0.5,0.4-1,0.6-1.5c2.4-3.5,4.8-7,8.2-9.6
			c3.5-2.7,7.4-3.8,11.8-2.8c1.7,0.2,3.2,1.1,4.6,2c0.3,0.2,0.7,0.4,0.9,0.7c-0.4,0.7-1.4,1.2-2.1,0.9c-0.8-0.3-1.7-0.5-2.5-1
			c-1.1-0.7-2.3-0.8-3.5-0.9c-0.8-0.1-1.6,0.2-2.4-0.2c-0.3-0.1-0.6,0.1-0.8,0.3c-0.9,0.8-2,1.3-3.1,1.8c-1.9,0.8-3.4,2.4-4.7,3.9
			c-1.8,1.9-3.4,4.1-4.4,6.6c-0.7,1.7-1.6,3.3-2.2,5.1c-0.1,0.3-0.2,0.6-0.4,0.8c-0.6,0.6-0.6,1.3-0.4,2.1c0.1,0.6,0,1.2-0.2,1.8
			c-0.4,0.9-0.3,2-0.5,2.9c-0.5,2.1,0.1,4.2,0.1,6.2c0,1.8,0.4,3.5,0.5,5.3c0.2,2.2,0.7,4.4,1,6.6c0.1,1.6,0.8,3,1,4.6
			c0,0.2,0.1,0.4,0.2,0.7c0.1,0.6,0.1,1.2-0.6,1.3c-0.8,0.1-0.9-0.5-1-1.1c-0.4-2.4-0.7-4.7-1.2-7c-0.3-1.2-0.1-2.4-0.5-3.5
			c-0.2-0.8-0.5-1.4-1.5-0.8c-0.2,0.1-0.5,0.1-0.8,0.2c-0.4,0.2-1,0.2-0.5,0.9c0.1,0.2,0,0.5-0.2,0.7c-1.7,2.8-2.6,5.8-2.3,9
			c0.3,3.6,0.6,7.3,2.6,10.5c0.7,1.2,2.2,1.3,3.1,0.2c1-1.3,1.5-2.9,1.6-4.6c0-0.9-0.1-1.8,0-2.7c0-0.4,0.2-0.8,0.6-0.9
			c0.4,0,0.6,0.4,0.7,0.7c0.1,0.1,0.1,0.3,0.1,0.4c0.8,2.8-0.8,6.9-3.2,8.4c-1.5,1-2.8,1-4.2-0.1c-0.7-0.5-1.5-0.9-2.2-1.3
			c-0.7-0.4-1.1-0.1-1.1,0.5c-0.1,1.9,0.1,3.8,1.1,5.5c0.6,0.9,1.3,1.8,2,2.6c1.2,1.5,2.9,2.2,4.8,2.3c0.5,0,1,0,1.5,0
			c4.4,0.1,8.5-0.9,12.4-3c0.3-0.2,0.6-0.3,0.9-0.3C141.9,121.1,142.2,121.6,142,122.5z"/>
		<path class="st5" d="M159.3,63c2.3,3.9,3.8,8.2,4.6,12.6c1.7,9.3,0.7,18.4-3.3,27c-1.4,3.1-3.1,6-5.3,8.6c-1,1.3-1.9,2.7-3.3,3.7
			c-0.4-0.6-0.2-1.2,0.3-1.7c0.4-0.4,0.7-0.9,1.3-1.5c-0.6,0.2-0.9,0.6-1.2,0.7c-0.3,0.1-0.6,0.6-0.9,0.1c0.3-1.2,1.4-2,2.1-3
			c4.1-5.5,6.8-11.6,8.1-18.3c0.4-1.8,0.3-3.6,0.5-5.5c0.2-1.3,0.1-2.6-0.1-3.8c-0.1-0.6,0-1.3,0-1.9c-0.2-2.9-0.9-5.7-1.8-8.5
			c-0.9-2.8-2-5.5-3.5-8.1c-0.1-0.5-0.5-0.9-0.4-1.5c0.5-0.3,0.7,0.2,0.9,0.5c0.7,0.8,1.1,1.8,1.8,2.6
			C159.3,64.3,158.5,63.6,159.3,63z"/>
		<path class="st6" d="M122.9,125.5c2.6,1.1,5.4,1,8.1,1.3c-4,1.1-8.1,1.4-12.3,1.3c-5.1-0.2-10-1.3-14.8-3.3
			c-4.5-1.9-8.7-4.4-12.3-7.8c0.2-0.6-0.3-1.2-0.5-1.4c-1-1-1.3-2.3-2.2-3.3c-0.9-1.1-1.8-2.4-2.4-3.7c-0.5-1-1.2-1.9-1.6-2.9
			c-0.1-0.4-0.3-0.7,0-1c0.5-0.1,0.7,0.2,0.9,0.5c0.5,0.7,1.2,1.3,1.9,1.8c0.3,0.3,0.5,0.5,0.8,0.8c0.6,0.6,0.8,1.5,1.2,2.2
			c0.2,0.3,0.2,0.6-0.2,0.9c-0.3,0.1-0.4,0.2-0.1,0.5c2.4,2.8,5.1,5.1,8.1,7.2c2.7,1.9,5.6,3.2,8.5,4.4
			C111.5,124.8,117.1,125.7,122.9,125.5z"/>
		<path class="st7" d="M152.6,55.1c-1.5-0.8-2.8-1.7-4.5-2c0,0,0-0.1,0.1-0.1c0,0,0.1,0,0.1,0c-0.9-0.6-1.5-1.4-2.4-1.9
			c-0.4-0.2-0.7-0.5-1-0.7c-0.3-0.3-0.6-0.5-1-0.7c-0.7-0.3-1.2-0.9-1.9-1.2c-3.1-1.8-6.4-3.3-9.9-4.2c-2.7-0.8-5.4-1.3-8.3-1.4
			c-0.5,0-1.2,0.2-1.4-0.5c1.5-0.1,2.5-1,3.6-1.8c4.1,0.3,7.9,1.4,11.6,2.9c5.3,2.2,10,5.2,14,9.4c0.3,0.5,0.8,1,1.3,1.4l0,0
			c0.1,0.3,0.4,0.6,0.2,0.9C153,55.3,152.8,55.2,152.6,55.1z"/>
		<path class="st8" d="M151.7,112.6c0.5-0.4,1-0.8,1.6-1.2c0.2-0.2,0.5-0.2,0.7,0c0.3,0.3-0.1,0.4-0.2,0.6c-0.3,0.4-0.7,0.8-1,1.1
			c-0.5,0.5-0.6,1-0.6,1.7c-1.1,1.2-2.2,2.3-3.6,3.2c-0.8-0.1-0.3-0.7-0.2-1.1c-1,0.2-1.4,1.5-2.5,1.1c-0.1-0.4,0.2-0.7,0.5-0.9
			c1.6-1.2,2.9-2.6,4.4-4C150.9,112.9,151.2,112.5,151.7,112.6z"/>
		<path class="st9" d="M145.8,118c0.8-0.1,1.3-0.8,2-1.2c0.3-0.2,0.6-0.6,0.9-0.2c0.3,0.3-0.1,0.5-0.3,0.7c-0.4,0.3-0.1,0.5,0.1,0.7
			c-2,1.7-4.1,3.4-6.5,4.5c-0.3-0.5-0.2-1.3-1.1-1.1c-0.1-0.4,0.2-0.6,0.4-0.7C142.8,119.8,144.3,118.9,145.8,118z"/>
		<path class="st10" d="M159.3,63c-0.1,0.5-0.2,0.9,0.1,1.4c0.2,0.4,0.3,0.9,0,1.4c-1-1.2-1.6-2.8-2.8-3.9c-0.1,0-0.3-0.1-0.4-0.2
			c-1.1-1.6-2.6-2.7-4-3.9c-0.1-0.2-0.2-0.4-0.1-0.6c0.4-0.2,0.7,0.1,1,0.3c0.5,0.3,1,0.7,1.4,1.1c0.7,0.6,1.3,0.7,2.1,0.2
			C157.8,59.9,158.4,61.6,159.3,63z"/>
		<path class="st11" d="M156.6,58.7c-0.5,0.9-1.2,0.8-1.9,0.3c-0.9-0.6-1.6-1.4-2.6-1.8c-0.9,0.3-1.7-0.2-2.4-0.7
			c-0.3-0.3-0.8-0.4-1.1-0.6c-0.2-0.1-0.7-0.2-0.4-0.6c0.4-0.2,0.7,0,1,0.1c0.8,0.3,1.6,0.7,2.5,1c0.7,0.2,1.2-0.4,1.8-0.7
			c1-0.2,1.2,0.8,1.8,1.2C155.7,57.5,156.2,58.1,156.6,58.7z"/>
		<path class="st12" d="M155.3,56.9c-0.6-0.4-1.1-1-1.8-1.2c-0.3-0.2-0.6-0.4-0.9-0.5c0.9,0.1,0.3-0.6,0.4-0.9
			C153.9,55,154.7,55.9,155.3,56.9z"/>
		<path class="st12" d="M153,54.2c-0.7-0.2-1.2-0.6-1.3-1.4C152.2,53.2,152.6,53.7,153,54.2z"/>
		<path class="st13" d="M122.4,42.3c1.3,0.4,2.7,0.2,4.1,0.4c5.6,0.9,10.9,2.6,15.7,5.6c0.4,0.3,0.4,0.6,0.1,0.9
			c-0.3,0.3-0.7,0.5-1.1,0.6c-2.9,0.5-5.4,2-7.8,3.6c-2.6,1.7-4.5,4.3-6,7c-1.6,3-3,6.1-4.4,9.2c-1.3,3.2-2.2,6.5-2.1,10
			c0.1,1.8,0,3.6,0.1,5.4c0.1,1.4-0.4,2.9-1.4,4c-1.1,1.1-2.1,2.4-3,3.7c-2,3-2.5,6.3-2,9.7c0.4,2.5,0.7,5,0.3,7.5
			c-0.3,1.5-0.7,2.9-1.1,4.4c-0.2,1-0.3,1.9-0.2,2.9c0.4,2.3-0.6,3.6-2.9,3.8c-1.5,0.1-3,0-4.4-0.7c-1.5-0.7-3.2-1.1-4.7-1.9
			c-3.4-1.9-6.5-4.2-9.4-6.8c-0.3-0.3-0.6-0.6-0.4-1.1c1.6-1.2,1.5-2.7,0.7-4.3c-1-2-2.2-4-3.1-6.1c-1.7-3.9-2.5-7.8-2.1-12
			c0.1-0.9,0.3-1.7,0.6-2.5c0.2-0.6,0.5-1.2-0.3-1.5c-0.8-0.3-1.2,0.4-1.4,1c-0.5,1.6-0.8,3.3-0.8,5c0,0.5,0,1,0,1.5
			c0,0.1,0,0.2,0,0.3c-0.1,0.3,0,0.8-0.5,0.8c-0.4,0-0.6-0.3-0.7-0.7c-0.4-0.9-0.5-1.9-0.7-2.8c1.4-2.3,1.3-4.9,1.7-7.5
			c0.7-4.1,1.8-7.9,4.2-11.4c0.9-1.4,2-2.7,3.4-3.7c0.5-0.3,1-0.7,0.6-1.4c-0.4-0.7-1.1-0.4-1.6,0c-1.4,1-2.6,2.2-3.6,3.5
			c-1.5,2.1-2.7,4.4-3.5,6.8c-0.1,0.2-0.1,0.4-0.3,0.6c-0.8-0.1-0.5-0.7-0.5-1.1c0.1-1.3,0.6-2.5,1-3.8c1.2-3.3,2.5-6.6,4.4-9.7
			c2.1-3.5,4.7-6.5,8.2-8.9c4.6-3.1,9.4-5.6,14.2-8.3c1.5-0.8,3.2-1.2,4.7-1.9C118.6,42.5,120.5,42.2,122.4,42.3z"/>
		<path class="st14" d="M116.6,42.6c-3.9,2-7.8,3.7-11.5,5.9c-3.5,2.1-7.1,3.9-10.1,6.7c-2.3,2.2-4.2,4.6-5.8,7.4
			c-1.8,3.3-3.2,6.9-4.5,10.5c-0.3,1-0.8,2-0.3,3.1c0.3,0.3,0.2,0.6,0.1,1c-0.7,2.7-1.1,5.4-1.4,8.2c0,0.1,0,0.2-0.1,0.3
			c-0.2,0.6-0.1,1.6-0.9,1.6c-0.9,0-1.4-0.8-1.5-1.7c0.8-2.2,0.8-4.6,1-6.9c0.2-2.7,1-5.1,1.9-7.6c1.3-3.5,2.8-7,4.8-10.2
			c2-3.2,4.4-6,7.4-8.4c2.8-2.3,6.1-4,9.2-6c1.1-0.7,2.4-1.2,3.4-2.2C111,43.4,113.8,42.8,116.6,42.6z"/>
		<path class="st15" d="M80.9,85.5c0,0.1,0,0.2,0,0.3c0.2,0.6,0.7,1.3,1.2,1.3c0.6,0,0.5-0.9,0.6-1.4c0.4-3.2,0.8-6.4,1.7-9.5
			c1.2-4.5,3.5-8.3,7.3-11.2c0.2-0.1,0.4-0.3,0.6-0.3c0.6-0.3,1.2-0.2,1.6,0.4c0.4,0.6,0.2,1.2-0.4,1.5c-4.5,3.1-6.2,7.8-7.4,12.8
			c-0.5,2.2-0.7,4.6-1,6.8c-0.1,1-0.5,1.9-1.2,2.7c-0.2,0.4-0.5,0.7-1,0.7c-0.6,0-1.3,0.1-1.9-0.2c-0.4-0.2-0.8-0.4-0.7-1
			c0.4-0.4,0.3-1,0.2-1.5c-0.2-0.9-0.3-1.9-0.2-2.8C81,84.4,80.7,85.1,80.9,85.5z"/>
		<path class="st16" d="M80.9,85.5c-0.4-0.3-0.3-0.8-0.7-1.1c-0.1-0.4-0.3-0.9-0.2-1.3c0.5-4.4,0.9-8.8,2.7-12.9
			c1.2-2.7,2.3-5.4,3.7-7.9c2-3.6,4.3-6.9,7.4-9.6c0.3-0.2,0.5-0.5,0.8-0.8c2.8-2.5,6-4.4,9.4-5.8c1.4-0.6,2.7-1.4,4.3-1.6
			c-0.5,1.4-2,1.6-3.1,2.3c-2.6,1.7-5.5,3.2-8,5c-2.3,1.7-4.4,3.7-6.2,5.9c-3.3,4.1-5.4,8.9-7.3,13.8c-1.2,3.1-1.9,6.4-2,9.8
			C81.7,82.5,81.9,84.1,80.9,85.5z"/>
		<path class="st17" d="M80.2,88.6c0.6,1.1,1.7,0.9,2.7,0.9c-0.9,0.6-0.7,1.4-0.5,2.3c1.3,4.5,2.7,8.9,4.6,13.1
			c0.3,0.6,0.9,1.2,0.5,2.1c-1.2-0.5-1.7-1.7-2.7-2.5c-1.5-2.4-3-4.7-3.8-7.4c-0.9-2.9-1.7-5.9-1.8-9C79.8,88.1,79.9,88.5,80.2,88.6
			z"/>
		<path class="st18" d="M94.6,51.8c0,0.3,0,0.6-0.3,0.8c-3.3,2.6-5.7,6-7.6,9.6c-2.4,4.6-4.6,9.3-5.7,14.4c-0.3,1.6-0.4,3.2-0.5,4.9
			c0,0.6-0.4,1-0.5,1.6c-0.3-1.2-0.5-2.5-0.4-3.7c0.2-3.6,1.1-7.1,2.4-10.4c1.4-3.5,3.1-6.7,5.4-9.7c2-2.7,4.3-5,6.8-7.2
			C94.3,51.8,94.5,51.8,94.6,51.8z"/>
		<path class="st19" d="M148.1,55.4c0.5,0.5,1.3,0.3,1.8,0.9c-1.5,0.5-2.1,1.7-2.4,3.1c-0.6,2.5,0.2,4.9,1,7.2
			c1,2.6,2.1,5.2,3.1,7.8c1,2.5,1.6,5.1,2.3,7.7c0.6,2,1.7,3.6,3.7,4.4c1.4,0.6,2.1,1.7,2,3.3c-0.1,1-0.3,1.9-0.7,2.8
			c-0.4,1-0.9,2.1-1.4,3.1c-1.3,2.5-2.4,5-4.1,7.2c-0.5,0.7-0.8,1.5-1.3,2.2c-1.8,2.7-3.9,5.1-6.2,7.5c-2.9,3.1-6.5,5.1-10.4,6.8
			c-2.7,1.2-5.3,2.4-7.8,3.9c-0.1,0.1-0.2,0.1-0.2,0.3c0.1,0.2,0.2,0.2,0.4,0.2c3.2,0.1,6.4,0,9.3-1.5c0.7-0.3,1.4-0.6,2.1-0.9
			c0.3-0.1,0.7-0.4,0.9,0.2c-0.8,0.8-1.9,1-2.9,1.4c-3.1,1.3-6.3,1.7-9.6,1.7c-2-0.2-3.9-0.8-5.6-2.1c-1.9-1.5-3-3.6-3.5-5.9
			c-0.1-0.6-0.2-1.2-0.2-1.8c0-1.1,0.5-1.4,1.4-0.9c0.8,0.4,1.6,0.8,2.4,1.2c2.5,1.1,4.6,0.4,5.9-2.1c1.5-3,1.5-6.2,1-9.4
			c-0.5-3.4-1.1-6.8-1.8-10.2c-0.5-2.5-0.8-5.1-0.9-7.7c-0.1-3.4-0.1-6.9,0.6-10.3c0.5-2.4,1.2-4.7,2.2-7c1-2.4,2.3-4.6,3.9-6.6
			c2.5-3.3,5.5-5.9,9.6-7c1.4-0.4,2.9-0.3,4.3-0.1C147.4,54.9,147.8,55,148.1,55.4z"/>
		<path class="st20" d="M140.2,121.6c-1-0.2-1.9,0.4-2.6,0.8c-2.2,1.2-4.6,1.5-7,1.7c-0.9,0.1-1.8,0-2.7,0c-0.3,0-0.7-0.1-0.8-0.4
			c-0.2-0.5,0.3-0.5,0.6-0.7c3-1.6,6-3.1,9.2-4.4c1.9-0.8,3.6-2,5.4-3.1c2.1-1.3,3.7-3.1,5.3-4.9c2-2.2,4.1-4.5,5.4-7.4
			c0.3-0.7,0.8-1.2,1.2-1.8c1.5-2.4,2.7-4.9,3.8-7.4c0.6-1.4,1.3-2.8,1.4-4.4c0-1.6-0.3-2.2-1.8-2.8c-2.1-0.8-3.1-2.4-3.7-4.4
			c-0.7-2.3-1.2-4.7-2.1-7c-1.1-2.8-2.2-5.6-3.3-8.4c-1-2.5-1.8-5.1-1.1-7.9c0.2-1.1,1-1.8,1.5-2.7c0.2-0.4,0.8,0.1,1.1,0
			c0.6,0.6,1.5,0.6,2.3,0.9c0.1,0.1,0.1,0.3,0.2,0.4c-0.6,0.3-1.4,0-2,0.5c-1.4,1-2.3,3-1.8,4.7c0.5,1.8,1.2,3.6,1.9,5.4
			c1.8,4.1,3.4,8.2,4.3,12.6c0.1,0.5,0.3,0.9,0.5,1.4c1.1,2.6,3,3.5,5.7,2.7c1.2-0.4,1.4-0.2,1.5,1.1c0.1,5.1-1.3,9.8-3.1,14.4
			c-1.5,3.8-3.9,7.2-6.2,10.5c-0.4,0.6-1.3,0.9-1.4,1.8c-1.9,1.8-3.9,3.6-5.8,5.4c-1.1,1.3-2.8,1.8-4.2,2.8
			c-0.3,0.2-0.6,0.3-0.8,0.6C140.6,121.4,140.4,121.5,140.2,121.6z"/>
		<path class="st21" d="M148.1,55.4c-2.6-0.4-5.1-0.4-7.6,0.7c-2.2,1-4.1,2.6-5.7,4.4c-4,4.3-6.4,9.4-7.5,15.1
			c-0.8,4.2-0.8,8.4-0.4,12.6c0.6,5.8,2,11.5,2.7,17.4c0.4,3.1-0.2,6-1.8,8.7c-1,1.7-2.9,2.2-5,1.6c-1.1-0.4-2.2-0.9-3.2-1.5
			c-0.6-0.4-1-0.4-0.9,0.4c0.2,3.6,1.9,7.6,6.1,9c1,0.3,2,0.6,2.9,1c-1.1-0.1-2.2,0-3.2-0.2c-0.9-0.2-1.8-0.7-2.5-1.4
			c-1.5-1.6-3-3.2-3.6-5.3c-0.3-1.3-0.5-2.6-0.4-3.9c0-0.5,0.4-0.8,0.8-1c0.4-0.2,0.6,0.2,0.8,0.3c1.2,0.4,2.1,1.5,3.3,2
			c1.6,0.7,2.7-0.3,3.8-1.2c1.6-1.2,2.8-6.1,1.9-8c-0.1-0.2-0.1-0.4-0.5-0.5c-0.5,1.2-0.1,2.5-0.2,3.8c-0.1,1.9-0.7,3.6-2.1,4.9
			c-0.8,0.7-2.4,0.3-3-0.6c-1.5-2.3-2-4.9-2.3-7.6c-0.2-1.4-0.5-2.9-0.4-4.3c0.1-1.9,0.2-3.8,1.2-5.5c0.5-0.9,0.4-2.1,1.4-2.8
			c0.1-0.1,0.1-0.4,0-0.5c-0.2-0.6,0-1,0.6-1.1c0.3-0.1,0.7,0,0.9-0.1c1.3-1,1.5-0.1,1.7,0.9c0.1,0.5,0.4,1.1,0.4,1.6
			c-0.2,1.9,0.8,3.7,0.8,5.6c0,1.2,0.7,2.5,0.6,3.8c0,0.3,0.1,0.7,0.6,0.7c0.6-0.1,0.5-0.6,0.5-1c-0.3-1.3-0.5-2.7-1-4
			c-0.5-1.2-0.2-2.5-0.6-3.7c-0.8-2.5-0.6-5.1-1.1-7.6c-0.4-1.8,0.2-3.6-0.5-5.4c-0.2-0.5,0.1-1,0.2-1.5c0.2-1.7-0.1-3.4,0.8-5
			c0.1-0.1,0.1-0.3,0.1-0.4c-0.7-1.9,0.7-3.3,1.3-4.9c0.7-1.8,1.4-3.7,2.4-5.4c0.9-1.5,1.9-3,3.1-4.4c0.9-1.1,2-1.9,2.9-2.9
			c0.8-0.8,1.7-1.5,2.8-1.8c1.2-0.4,2.1-1.1,3-1.9c0.3-0.3,0.7-0.9,1.2,0c0.2,0.4,0.8,0.2,1.3,0.1c1.6-0.1,3.1,0.1,4.4,0.9
			C148.8,55.4,148.4,55.4,148.1,55.4z"/>
		<path class="st22" d="M105.8,123c-4.2-1.5-7.9-3.7-11.4-6.5c-2.1-1.7-4-3.6-5.8-5.7c0.2-0.2,0.5-0.1,0.8-0.1c0.5,0,1-0.2,1.5,0.1
			c3,4.2,7.4,6.5,11.6,9c0.6,0.4,1.2,0.5,1.9,0.6c2.6,0.8,5.1,1.7,7.9,1.4c0.9,0.1,1.8,0.3,2.8,0.2c1.3-0.1,1.8-0.7,1.5-2
			c-0.3-1.2-0.6-2.4-0.8-3.6c-0.3-1.6-0.2-3.1,0-4.7c0.1-1,0.1-1.9,0.5-2.8c0.1-0.1,0.2-0.1,0.3,0c-0.2,2.8-0.6,5.6,0,8.5
			c0.3,1.6,1.2,3,1.6,4.5c-0.3,0.1-0.7,0-0.8,0.5c-0.2,0.8-0.9,1.1-1.7,1.2c-2.4,0.3-4.8,0.3-7.2-0.2
			C107.6,123.2,106.7,123,105.8,123z"/>
		<path class="st23" d="M144.9,50.2c0.3,0.2,0.6,0.5,0.9,0.7c0.2,0.6-0.3,0.7-0.6,0.7c-3.8,0.5-7.3,1.8-10.4,4
			c-2.1,1.5-3.8,3.4-5,5.8c-0.4,0.9-0.7,1.8-1.3,2.6c-0.8,1.2-1.1,2.5-1.6,3.8c-0.9,2-1.7,4.1-2.3,6.3c-0.7,2.8-1,5.6-0.8,8.5
			c0.2,2.5,0.5,5-0.4,7.4c-0.5,0.5-1,1.1-1.6,1.6c-1.1,0.4-1.9,1.2-2.5,2.1c-2.2,3.1-2.8,6.4-1.9,10.1c0.3,1.3,0.5,2.6,0.5,3.9
			c0,0.4,0,0.8-0.2,1.2c-0.4,0.2-0.5-0.1-0.7-0.3c-0.3-2.1-0.5-4.2-0.8-6.3c-0.4-2.6-0.1-5,1.1-7.3c0.9-1.7,2-3.3,3.5-4.5
			c1.7-1.4,2.2-3.1,2-5.2c-0.2-3-0.2-6,0.2-9.1c0.4-3.3,1.8-6.3,3-9.3c1-2.5,1.9-5.1,3.4-7.4c1.5-2.2,3.4-4,5.6-5.5
			C138,51.8,141.4,50.8,144.9,50.2z"/>
		<path class="st24" d="M144.9,50.2c-0.2,0.8-0.9,0.6-1.4,0.6c-5.3,0.8-9.6,3.4-13,7.5c-1.3,1.5-2.3,3.4-3,5.4
			c-1.1,2.8-2.3,5.6-3.3,8.4c-0.9,2.5-1.2,5.1-1.3,7.8c0,2-0.1,4.1,0.1,6.1c0.2,1.7-0.5,3.2-2,4.4c-2.5,2-4.2,4.7-4.7,8
			c-0.4,2.7,0.3,5.3,0.6,8c0.1,0.6-0.2,1.3,0.1,1.9c-0.1,0.1,0,0.4-0.2,0.5l-0.1,0c0,0-0.1,0-0.1,0c-0.1,0-0.2,0-0.3,0
			c-0.4-0.2-0.5-0.5-0.5-0.9c0.1-2-0.5-4-0.5-6c0-0.9,0-1.9,0-2.8c0-1.1,0.1-2.2,0.6-3.3c0.6-0.7,0.9-1.5,1.2-2.3
			c0.6-1.3,1.6-2.2,2.6-3.2c0.7-0.8,1.5-1.6,2-2.5c0.5-1.3,0.3-2.6,0.1-3.9c-0.1-1.1-0.1-2.1,0-3.2c0.2-1.7,0.2-3.3,0.4-5
			c0.1-2.1,0.9-4,1.7-5.9c1.1-2.6,2-5.1,3.2-7.6c1.9-4.2,4.8-7.4,8.8-9.7c2.2-1.2,4.5-2,6.9-2.6c0.4-0.1,0.8-0.1,1.1-0.5
			C144.5,49.5,144.7,49.8,144.9,50.2z"/>
		<path class="st25" d="M128.3,63.7c0.5-1.1,1-2.1,1.6-3.2c2.1-4,5.7-6.3,9.7-7.8c1.7-0.7,3.6-1.5,5.6-1.3c0.3,0,0.6,0,0.6-0.4
			c1.1,0.4,1.7,1.5,2.9,2.2c-0.4,0.1-0.5,0.1-0.7,0.1c-7.1-1.4-12,2.2-16.2,7.3c-1.3,1.6-2.4,3.3-3.6,5c-0.7,0.3-0.6-0.2-0.5-0.6
			C127.9,64.4,128.1,64.1,128.3,63.7z"/>
		<path class="st26" d="M117.5,108.8c0.2-2.6-0.5-5.2-0.9-7.7c-0.3-2.5,0.6-4.6,1.7-6.7c0.5-1,1.2-2,2.2-2.7
			c0.4-0.3,0.7-0.5,1.2-0.2c-0.9,1.6-1.9,3.2-2.4,5c-1.2,3.7-1.1,7.5-0.3,11.3c0.2,0.8,0.4,1.7,0.5,2.5c0.2,0.5,0.2,0.8-0.5,0.7
			c-0.5-0.4-0.9-0.9-1.4-1.3C117.8,109.2,117.3,109.1,117.5,108.8z"/>
		<path class="st27" d="M105.8,123c1.4-0.6,2.7,0.3,4,0.3c2.2,0.1,4.3,0.3,6.4-0.2c1-0.2,1-1.2,1-2c0.5,0,0.5,0.7,0.9,0.7
			c0.4,0,0.5,0.3,0.7,0.6c1.1,1.3,2.4,2.3,3.9,3.1c-0.1,0.5-0.5,0.4-0.8,0.4c-5.2,0.1-10.3-0.8-15.3-2.4
			C106.4,123.4,106.2,123.1,105.8,123z"/>
		<path class="st26" d="M128.3,63.7c0,0.4-0.2,0.8-0.3,1.1c-0.2,0.4-0.1,0.6,0.3,0.7c-0.2,0.5-0.4,0.9-0.6,1.4
			c-0.4,0.5-0.7,1.1-0.8,1.8c-0.6,1-0.5,2.2-1.1,3.1c-0.5,0.8-0.6,1.8-0.7,2.7c-0.4,1.4-0.3,2.8-0.8,4.2c-0.2,0.5,0,1.2,0,1.8
			c0,0.4,0.1,0.8-0.2,1.2c0,0-0.1-0.1-0.1-0.1c0-0.1,0-0.1,0-0.1c0,1.5,0,3.1,0,4.7c0.1-0.6-0.1-1.3,0.1-1.9
			c0.3,0.8,0.2,1.7,0.2,2.5c0,0.4-0.1,0.8,0,1.3c0.3,1-0.5,1.4-1.1,1.8c-0.2-0.2-0.5-0.3-0.3-0.7c1.1-2.1,0.4-4.4,0.4-6.6
			c0-1.2,0-2.3,0-3.5c0-1.4,0.3-2.7,0.5-4c0.2-1.4,0.7-2.6,1.2-3.9c0.8-2.1,1.6-4.2,2.4-6.3C127.8,64.3,127.9,63.9,128.3,63.7z"/>
		<path class="st23" d="M124.3,84.3c0,0.7,0,1.5,0,2.2c-0.1,0-0.1,0-0.2,0c0-1.9,0-3.8,0-5.8c0.3,0.3,0.1,0.6,0.2,0.9
			C124.3,82.5,124.3,83.4,124.3,84.3z"/>
		<path class="st23" d="M125.1,74.4c-0.1-1-0.1-1.9,0.7-2.7C125.6,72.6,125.4,73.5,125.1,74.4z"/>
		<path class="st23" d="M126.9,68.6c-0.1-0.8,0.1-1.4,0.8-1.8C127.6,67.5,127.2,68,126.9,68.6z"/>
		<path class="st28" d="M117.5,108.8c0,0.3,0.5,0.4,0.2,0.7c-0.3-0.2-0.6-0.5-0.8-0.7c0-0.2,0-0.4,0.2-0.5
			C117.2,108.6,117.3,108.7,117.5,108.8z"/>
		<path class="st29" d="M119.1,110.9c0.4,0,0.5-0.3,0.5-0.7c0.3,0.3,0.3,0.8,0.4,1.2C119.4,111.5,119.3,111.1,119.1,110.9z"/>
		<path class="st30" d="M157,63.2c1.5,2.3,2.4,4.7,3.3,7.3c1.1,3,1.9,6.1,2.1,9.4c-0.4,0.6-0.4,1.3-0.6,1.9
			c-0.6,1.7-1.6,2.5-3.2,2.6c-1.3,0-2.5-0.9-3.1-2.4c-0.8-2.1-1.2-4.4-2-6.5c-0.9-2.6-2-5.2-3.1-7.8c-0.8-1.9-1.7-3.8-1.6-6
			c0-1.3,0.5-2.2,1.7-2.7c1.1-0.5,2.3-0.4,3.4,0.4C155.3,60.3,156.1,61.9,157,63.2z"/>
		<path class="st31" d="M157,63.2c-0.5-0.3-1-0.7-1.2-1.3c-0.5-1.2-1.6-2-2.6-2.7c-0.8-0.5-1.8-0.4-2.7,0c-0.8,0.4-1.4,1.1-1.4,2.1
			c-0.2,2.3,0.8,4.2,1.6,6.2c1.8,4.1,3.5,8.3,4.5,12.7c0.2,1,0.5,2.2,1.3,2.9c1.6,1.6,4.2,1,4.9-1.2c0.2-0.7,0.1-1.6,0.9-2.1
			c-0.1,1.7,0.3,3.3,0.2,5c0,0.4,0.1,0.8-0.2,1.1c-0.2-0.8-0.5-1.2-1.5-0.8c-2.3,1-4.9-0.2-5.9-2.6c-0.7-1.7-0.9-3.5-1.5-5.3
			c-1.1-3.4-2.3-6.7-3.8-9.9c-0.7-1.5-1.2-3.1-1.7-4.7c-0.5-1.8,0.8-4.3,2.6-5.1c0.6-0.3,1.1,0,1.6,0.1c1.7,1.2,3.2,2.4,4.3,4.3
			C156.7,62.3,156.9,62.8,157,63.2z"/>
		<path class="st15" d="M91,110.8c-0.5-0.1-1.1,0.2-1.6-0.2c0.2-0.1,0.3-0.3,0.2-0.5c-0.4-0.8-0.9-1.6-1.3-2.4
			c0.6-0.4,1,0.2,1.4,0.3c0.2,0.1,0.5,0.2,0.7,0c0.2-0.2,0-0.4,0-0.6c-0.1-0.3-0.3-0.6-0.5-0.9c-2.1-4-4-8-4.8-12.5
			c-0.1-0.8,0.3-1.6,0-2.4c-0.1-2.2,0.1-4.5,0.8-6.6c0.1-0.4,0.3-0.8,0.6-1c0.5-0.4,1-0.4,1.5-0.1c0.5,0.3,0.6,0.8,0.4,1.3
			c-1.9,5.2-0.7,10.1,1.3,15c0.8,2,1.9,3.9,2.9,5.8c0.5,1,1,2,0.7,3.2c-0.2,0.8-0.6,1.3-1.4,1.6C91.7,111,91.4,111.1,91,110.8z"/>
		<path class="st32" d="M85.2,91.5c0.4,1.5,0.4,3,0.8,4.5c0.9,3.6,2.5,7,4.3,10.3c0.4,0.7,1.1,1.5,0.6,2.1c-0.5,0.5-1.3-0.2-2-0.5
			c-0.2-0.1-0.4-0.1-0.5-0.2c-0.2-0.2-0.5-0.4-0.7-0.7c-0.3-1.1-0.9-2.1-1.3-3.2c-1.7-4.1-3.1-8.3-4.3-12.6c-0.3-1-0.3-1.6,0.9-1.8
			c0.4,0,0.6-0.3,0.9-0.5c0.6,1.1,0.3,2.5,1.2,3.5C85.3,92.2,85.1,91.8,85.2,91.5z"/>
		<path class="st33" d="M91,110.8c0.3-0.1,0.6-0.1,0.9-0.2c0.3,1,1.3,1.6,2,2.1c1.9,1.5,3.8,3.1,5.9,4.3c2.6,1.6,5.5,2.7,8.4,3.5
			c1.3,0.4,2.6,0.1,3.9-0.2c0.8-0.2,1.6-1.5,1.3-2.6c-0.5-2,0-3.9,0.6-5.7c1-3.1,0.9-6.2,0.3-9.3c-0.3-1.7-0.2-3.3,0-5
			c0.4-2.8,1.7-5,3.5-7.1c1.2-1.4,2.8-2.7,2.9-4.9c0-0.5,0-0.9,0-1.4c0-2.8-0.2-5.6,0.2-8.4c0.3-2.1,1.1-4,1.6-6
			c0.4-1.4,1.2-2.5,1.8-3.8c1.4-3,2.6-6.1,4.6-8.8c2.2-3,5-5,8.3-6.5c1.3-0.6,2.5-1.2,4-1.4c0.5-0.1,1.3-0.2,0.9-1.1
			c0.7,0.2,1.2,0.8,1.8,1.2c0.2,0.4,0.2,0.6-0.3,0.7c-1.1,0.2-2.3,0.4-3.4,0.7c-2.7,0.9-5.1,2.3-7.4,4.1c-3.9,3.1-5.6,7.4-7.3,11.8
			c-0.9,2.4-2,4.7-2.7,7.1c-0.2,0.5-0.3,1.1-0.3,1.6c-0.4,1.7-0.2,3.4-0.4,5.2c0,1.1,0,2.2,0,3.4c0.1,1.4,0.3,2.7-0.2,4
			c-1,1.7-2.7,2.8-3.8,4.4c-0.2,0.3-0.5,0.6-0.7,1c-0.5,0.7-0.8,1.5-1.1,2.2c-0.6,1-0.7,2-0.7,3.1c-0.2,1-0.2,1.9,0,2.9
			c0.2,2.3,0.4,4.6,0.7,7c0.1,1-0.2,1.9-0.2,2.9c-1,2.2-1.1,4.4-0.7,6.7c0.1,0.6,0.1,1.2,0,1.8c-0.3,1.3-0.9,1.8-2.3,1.7
			c-0.3,0-0.5-0.1-0.7,0.1c-2.8,0.2-5.5-0.6-8.1-1.6c-0.6-0.2-1.3-0.3-1.8-0.7c-1.7-0.6-3.2-1.6-4.7-2.6c-2-1.4-4-2.7-5.7-4.4
			C91.6,112.2,91.2,111.6,91,110.8z"/>
		<path class="st34" d="M102.2,67.6c-0.1-7.3,5.7-12.1,12.3-13.7c3.6-0.8,6.3,1.4,6.4,5c0.1,2.2-0.5,4.4-1.2,6.5
			c-1.3,4-3.1,7.9-5.6,11.3c-1.2,1.7-2.8,2.7-5,2.7c-1.7,0-3-0.7-4.1-2C103,75,102.3,72.1,102.2,67.6z"/>
		<path class="st35" d="M127.4,106.8c0.1,1.9-0.1,3.7-1,5.4c-0.3,0.6-0.7,1-1.2,1.3c-0.8,0.6-1.8,0.4-2.2-0.5
			c-1.2-2.5-1.8-5.1-2.2-7.9c-0.3-2.6-0.1-5.1,0.5-7.6c0.5-1.9,1.5-3.6,2.6-5.1c0.2-0.3,0.5-0.5,0.9-0.4c0.4,0.1,0.5,0.5,0.5,0.8
			c0.2,2.8,1.1,5.5,1.4,8.3C127,103.1,127.6,104.9,127.4,106.8z"/>
		<path class="st28" d="M112.4,122c0.1-0.2,0.4-0.2,0.6-0.2c1.8-0.1,2.5-1.1,2.2-2.8c-0.2-1.6-0.5-3.1-0.1-4.7
			c0.2-0.9,0.5-1.8,1.1-2.5c-0.6,2.6,0,5.2,0.7,7.7c0.1,0.5,0.3,1,0.2,1.5c-0.1,0.8-0.5,1.3-1.5,1.3
			C114.5,122.3,113.4,122.2,112.4,122z"/>
		<path class="st28" d="M102.5,119.8c0.6,0.2,1.3,0.3,1.8,0.7C103.6,120.5,102.9,120.4,102.5,119.8z"/>
		<path class="st28" d="M122.2,80.7c0-1.7-0.2-3.5,0.4-5.2C122.5,77.3,122.6,79,122.2,80.7z"/>
		<path class="st28" d="M122,88.1c0.3-1.3,0.2-2.7,0.2-4C122.5,85.5,122.8,86.8,122,88.1z"/>
		<path class="st28" d="M116.4,95.8c0.1-0.9,0.4-1.6,1.1-2.2C117.3,94.3,116.9,95.1,116.4,95.8z"/>
		<path class="st28" d="M115.7,101.8c-0.4-1-0.4-1.9,0-2.9C115.7,99.9,115.7,100.9,115.7,101.8z"/>
		<path class="st36" d="M150.8,63.3c0-0.9,0-1.5,0.6-1.8c0.6-0.3,1.1,0,1.7,0.3c1.7,1.1,2.5,2.9,3.3,4.6c1.2,2.8,2.5,5.5,3.1,8.5
			c0.4,1.8,0.6,3.6,0.4,5.5c-0.1,0.8-0.5,1.4-1.3,1.5c-0.9,0.1-1.2-0.5-1.6-1.2c-0.6-1.3-0.9-2.8-1.3-4.2c-1.2-3.9-2.9-7.6-4.4-11.4
			C151,64.4,150.8,63.8,150.8,63.3z"/>
		<path class="st37" d="M118,56.2c1.3,1.1,1.5,2.6,1.2,4.1c-0.9,5.7-3.1,10.9-6.5,15.5c-1.5,2.1-3,2.5-4.7,1.7
			c-1.4-0.7-2.3-1.8-3.1-3.2c-0.3-0.5-0.5-1.1-0.5-1.7c1.5-0.2,2-1.8,3-2.6c1.3-1,2-2.4,3.2-3.6c0.1-0.1,0.2-0.3,0.4-0.4
			c1.5-0.8,2.2-2.1,2.8-3.6c0.8-0.4,1.1-0.9,0.7-1.8c-0.1-0.2-0.1-0.4,0.1-0.5c0.8-0.4,1.1-1.1,1.4-1.8c0.3-0.6,0.5-1.2,1-1.8
			C117.3,56.3,117.6,56,118,56.2z"/>
		<path class="st38" d="M113.9,62.5c-0.2,1.6-0.9,2.8-2.4,3.6c-0.6,0.3-1.2,0.9-1.5,1.4c-1.1,2-3.2,3-4.2,4.9
			c-0.4,0.7-0.9,0.2-1.4,0.2c-1.2-3.8-0.7-10.7,4.2-14.1c2.1-1.5,4.2-2.8,6.8-3c1-0.1,1.9,0.1,2.6,0.7c-0.8,0.2-1.1,0.9-1.4,1.5
			c-0.3,0.6-0.6,1.2-0.9,1.9c-0.2,0.5-0.6,0.7-1.1,0.6c-0.3,0.3-0.6,0.3-1,0.2c-1.3-0.3-2.7,0.4-3.4,1.8c-0.4,0.8-0.5,1.6-0.5,2.5
			c0,1,0.5,1.3,1.5,0.9c0.9-0.4,1.3-1.1,1.8-1.9c0.2-0.4,0.3-0.8,0.7-1.1C113.7,62.5,113.8,62.5,113.9,62.5z"/>
		<path class="st39" d="M113.9,62.5c-0.1,0-0.2,0-0.3,0c-0.4,0.1-0.6-0.1-0.9-0.4c-0.2-0.3-0.3-0.6-0.2-1c0.2-0.4,0.2-0.9,0.9-0.8
			c0.4,0,0.7,0,1.1,0C115.3,61.8,115.2,62.3,113.9,62.5z"/>
		<path class="st40" d="M113,62.1c0.2,0.2,0.5,0.3,0.7,0.5c-0.3,1.5-1.1,2.7-2.5,3.4c-1.2,0.5-1.8,0.1-1.8-1.1
			c-0.1-2,0.9-3.8,2.6-4.5c0.5-0.2,1-0.5,1.5,0c-0.4,0.2-0.6,0.5-0.7,0.9c-0.7,0.8-1.7,1.2-1.8,2.4c0,0.3-0.3,0.6,0.1,0.8
			c0.3,0.2,0.5-0.2,0.7-0.4c0.3-0.4,0.5-0.9,0.6-1.4C112.4,62.3,112.4,61.8,113,62.1z"/>
		<path class="st41" d="M113,62.1c-0.5,0.5-0.3,1.4-0.9,1.9c-0.2,0.2-0.3,0.5-0.5,0.6c-0.3,0.2-0.6,0.5-0.9,0.3
			c-0.3-0.2-0.2-0.6-0.1-0.9c0.2-1.3,0.8-2.3,2.2-2.8C112.9,61.5,112.9,61.8,113,62.1z"/>
	</g>
</g>
<g>
	<path class="st42" d="M63.9,37.2l6.3-6.3l6.3,6.3l3.7-3.7l-9.9-9.9l-9.9,9.9L63.9,37.2z M54,39.8l3.7-3.7l3.7,3.7l-3.7,3.7L54,39.8
		z M63.9,42.4l6.3,6.3l6.3-6.3l3.7,3.7l-10,9.9l-9.9-10l0,0L63.9,42.4z M79.1,39.8l3.7-3.7l3.7,3.7l-3.7,3.7L79.1,39.8z M73.9,39.8
		L73.9,39.8L73.9,39.8l-3.7,3.7l-3.7-3.7l0,0l0,0l0.6-0.7l0.3-0.3l2.7-2.7L73.9,39.8L73.9,39.8z"/>
</g>
<g class="st43">
	<path d="M120.4,127.4c-11.6,0-22.5-4.5-30.7-12.7c-8.3-8.2-12.9-19.1-12.9-30.8S81.3,61.3,89.5,53s19.2-12.8,30.8-12.9l0,0h0.1
		c11.6,0,22.5,4.5,30.7,12.7C159.4,61,163.9,72,164,83.6s-4.5,22.6-12.7,30.9S132.1,127.3,120.4,127.4
		C120.5,127.4,120.4,127.4,120.4,127.4z M120.3,43.2c-10.8,0-21,4.3-28.7,12S79.8,73.1,79.8,83.9s4.3,21,12,28.7
		c7.7,7.6,17.8,11.8,28.6,11.8h0.1c10.8,0,21-4.3,28.7-12S161,94.6,161,83.8s-4.3-21-12-28.7C141.4,47.4,131.2,43.2,120.3,43.2
		L120.3,43.2L120.3,43.2z"/>
</g>
</svg>
