<?xml version="1.0" encoding="utf-8"?>
<!-- Generator: Adobe Illustrator 25.2.1, SVG Export Plug-In . SVG Version: 6.00 Build 0)  -->
<svg version="1.1" id="Layer_1" xmlns:v="https://vecta.io/nano"
	 xmlns="http://www.w3.org/2000/svg" xmlns:xlink="http://www.w3.org/1999/xlink" x="0px" y="0px" viewBox="0 0 186 171"
	 style="enable-background:new 0 0 186 171;" xml:space="preserve">
<style type="text/css">
	.st0{fill:#FEC803;}
	.st1{fill:#F0B90B;}
	.st2{opacity:0.1;fill:none;stroke:#191326;stroke-width:3;enable-background:new    ;}
	.st3{fill:#FFFFFF;}
	.st4{opacity:0.4;fill:none;stroke:#565656;stroke-width:2.837;enable-background:new    ;}
	.st5{fill:#FF007A;}
	.st6{fill-rule:evenodd;clip-rule:evenodd;fill:#FF007A;}
</style>
<g>
	<path class="st0" d="M172.4,95c-1-7.8-6.2-14.9-13.3-18.2c-8.6-4-18.7-2.6-27.8-5.3c-11.8-3.5-20.4-13.3-30.9-19.8
		C88,44.1,73.2,41.4,58.8,38.8C49.2,37.1,39.1,35.5,30,39c-12.3,4.9-19.5,20-15.5,32.6c6.8,21.4,37,27.1,46.2,47.6
		c4.8,10.6,3.2,24.1,10.7,32.9c9,10.5,25.5,8.7,38.9,5.5c10.2-2.5,20.3-5.3,30.4-8.2c8.2-2.3,16.8-4.8,22.8-10.8
		c7.5-7.4,4.4-13.1,4.3-21.7C167.9,109.5,173.5,103.3,172.4,95z"/>
</g>
<circle class="st1" cx="70.2" cy="39.8" r="29"/>
<circle class="st2" cx="70.2" cy="39.8" r="27.5"/>
<circle class="st3" cx="119.7" cy="83.3" r="43.5"/>
<circle class="st4" cx="119.7" cy="83.3" r="42.1"/>
<g>
	<path class="st3" d="M63.2,36.8c-0.1-0.1-0.2-0.1-0.2-0.2c-1.2-1.2-2.4-2.4-3.7-3.6c-0.2-0.2-0.2-0.3,0-0.5
		c3.6-3.5,7.1-7.1,10.6-10.6c0.2-0.2,0.3-0.2,0.5,0c3.5,3.5,7.1,7.1,10.6,10.6c0.2,0.2,0.2,0.3,0,0.5c-1.2,1.2-2.4,2.4-3.6,3.6
		c-0.3,0.3-0.4,0.1-0.6-0.1c-2.1-2.1-4.2-4.2-6.3-6.4c-0.3-0.3-0.4-0.3-0.7,0c-2.1,2.1-4.2,4.2-6.3,6.3
		C63.5,36.6,63.3,36.7,63.2,36.8z"/>
	<path class="st3" d="M70.2,57.9c-0.1-0.1-0.1-0.1-0.2-0.2c-3.6-3.5-7.1-7.1-10.7-10.6c-0.2-0.2-0.2-0.3,0-0.5
		c1.2-1.2,2.4-2.4,3.6-3.6c0.3-0.3,0.4-0.1,0.6,0.1c2.1,2.1,4.2,4.2,6.3,6.3c0.3,0.3,0.5,0.3,0.8,0c2.1-2.1,4.2-4.2,6.3-6.3
		c0.3-0.3,0.4-0.3,0.7,0c1.1,1.2,2.3,2.3,3.5,3.5c0.2,0.2,0.2,0.3,0,0.6c-3.5,3.5-7.1,7-10.6,10.6C70.4,57.8,70.4,57.9,70.2,57.9z"
		/>
	<path class="st3" d="M56.2,35.7c0.1,0.1,0.2,0.1,0.2,0.2c1.2,1.2,2.4,2.4,3.6,3.6c0.2,0.2,0.2,0.3,0,0.5c-1.2,1.2-2.4,2.4-3.6,3.6
		c-0.2,0.2-0.3,0.2-0.5,0c-1.2-1.2-2.4-2.4-3.6-3.6c-0.1-0.1-0.3-0.2,0-0.5c1.2-1.2,2.5-2.5,3.7-3.7C56,35.8,56.1,35.8,56.2,35.7z"
		/>
	<path class="st3" d="M84.3,43.9c-0.1-0.1-0.2-0.1-0.2-0.2c-1.2-1.2-2.4-2.4-3.6-3.6c-0.2-0.2-0.2-0.3,0-0.5
		c1.2-1.2,2.4-2.4,3.6-3.6c0.2-0.2,0.3-0.2,0.5,0c1.2,1.2,2.4,2.4,3.6,3.6c0.2,0.2,0.2,0.3,0,0.5c-1.2,1.2-2.4,2.4-3.6,3.6
		C84.5,43.7,84.4,43.8,84.3,43.9z"/>
	<path class="st3" d="M70.2,35.7c0.2,0,0.2,0.1,0.3,0.2c1.2,1.2,2.4,2.4,3.6,3.6c0.2,0.2,0.2,0.3,0,0.5c-1.2,1.2-2.4,2.4-3.6,3.6
		c-0.2,0.2-0.3,0.2-0.5,0c-1.2-1.2-2.4-2.4-3.6-3.6c-0.2-0.2-0.2-0.3,0-0.5c1.2-1.2,2.4-2.4,3.6-3.6C70.1,35.9,70.1,35.8,70.2,35.7z
		"/>
</g>
<path class="st5" d="M114.9,69.2c-0.6-0.1-0.6-0.1-0.3-0.1c0.5-0.1,1.7,0,2.5,0.2c1.9,0.5,3.6,1.6,5.5,3.7l0.5,0.6l0.7-0.1
	c3-0.5,6-0.1,8.5,1.1c0.7,0.3,1.8,1,1.9,1.1c0.1,0.1,0.1,0.4,0.2,0.7c0.2,1.3,0.1,2.2-0.3,2.9c-0.2,0.4-0.2,0.5-0.1,0.9
	c0.1,0.3,0.4,0.5,0.7,0.5c0.6,0,1.3-1,1.6-2.4l0.1-0.6l0.2,0.3c1.4,1.5,2.4,3.6,2.6,5.1l0.1,0.4l-0.2-0.3c-0.4-0.6-0.8-1-1.3-1.4
	c-0.9-0.6-1.9-0.8-4.4-0.9c-2.3-0.1-3.6-0.3-4.9-0.7c-2.2-0.7-3.3-1.7-5.9-5.1c-1.1-1.5-1.9-2.3-2.6-3
	C118.5,70.3,116.9,69.5,114.9,69.2z"/>
<path class="st5" d="M134.7,72.6c0.1-1,0.2-1.7,0.5-2.3c0.1-0.2,0.2-0.5,0.2-0.5s0,0.2-0.1,0.4c-0.2,0.6-0.2,1.4-0.1,2.3
	c0.2,1.2,0.3,1.4,1.5,2.7c0.6,0.6,1.3,1.4,1.5,1.7l0.5,0.6l-0.5-0.4c-0.6-0.5-1.8-1.5-2.1-1.7c-0.2-0.1-0.2-0.1-0.3,0
	c-0.1,0.1-0.1,0.3-0.1,1c0,1.2-0.2,1.9-0.6,2.7c-0.2,0.4-0.2,0.3-0.1-0.1c0.1-0.3,0.2-0.5,0.2-1.7c0-2.3-0.3-2.9-1.9-3.8
	c-0.4-0.2-1.1-0.6-1.5-0.8c-0.4-0.2-0.7-0.3-0.7-0.3c0.1-0.1,1.6,0.4,2.2,0.7c0.9,0.4,1.1,0.4,1.2,0.4
	C134.6,73.5,134.7,73.3,134.7,72.6z"/>
<path class="st5" d="M116,76.6c-1.1-1.5-1.8-3.9-1.7-5.7l0.1-0.6l0.3,0.1c0.5,0.1,1.3,0.4,1.7,0.6c1.1,0.6,1.5,1.5,2,3.7
	c0.1,0.6,0.3,1.4,0.4,1.6c0.1,0.4,0.6,1.3,1.1,1.9c0.3,0.4,0.1,0.6-0.6,0.6C118.2,78.7,116.8,77.8,116,76.6z"/>
<path class="st5" d="M133.3,88.2c-5.3-2.1-7.1-4-7.1-7.1c0-0.5,0-0.8,0-0.8c0,0,0.2,0.2,0.5,0.3c1.1,0.9,2.3,1.2,5.6,1.7
	c1.9,0.3,3.1,0.5,4.1,0.9c3.2,1.1,5.2,3.2,5.7,6.2c0.1,0.9,0.1,2.5-0.2,3.3c-0.2,0.7-0.7,1.9-0.9,1.9c0,0-0.1-0.1-0.1-0.3
	c-0.1-1.1-0.6-2.2-1.5-3C138.3,90.3,136.9,89.6,133.3,88.2z"/>
<path class="st5" d="M129.6,89c-0.1-0.4-0.2-0.9-0.3-1.1l-0.1-0.4l0.2,0.3c0.3,0.4,0.6,0.9,0.9,1.5c0.2,0.5,0.2,0.7,0.2,1.5
	c0,0.8,0,1-0.2,1.4c-0.3,0.7-0.6,1.2-1.1,1.8c-1,1-2.2,1.5-4,1.8c-0.3,0-1.2,0.1-2,0.2c-2,0.1-3.3,0.3-4.5,0.7
	c-0.2,0.1-0.3,0.1-0.3,0.1c-0.1-0.1,0.8-0.5,1.4-0.9c0.9-0.5,1.9-0.7,4-1.1c1-0.2,2.1-0.4,2.4-0.5C128.7,93.6,130,91.5,129.6,89z"/>
<path class="st5" d="M132,93.3c-0.7-1.5-0.9-3-0.5-4.3c0.1-0.1,0.1-0.3,0.2-0.3s0.2,0.1,0.4,0.2c0.3,0.2,1,0.6,2.7,1.5
	c2.2,1.2,3.4,2.1,4.2,3.1c0.7,0.9,1.2,1.9,1.4,3.2c0.1,0.7,0.1,2.4-0.1,3.2c-0.6,2.3-1.9,4.1-3.9,5.1c-0.3,0.2-0.5,0.3-0.6,0.3
	s0.1-0.3,0.2-0.6c0.6-1.4,0.7-2.7,0.2-4.1c-0.3-0.9-0.9-2-2.1-3.8C132.8,94.7,132.4,94.1,132,93.3z"/>
<path class="st5" d="M112.2,101.5c2-1.7,4.4-2.8,6.6-3.2c1-0.2,2.6-0.1,3.4,0.1c1.4,0.4,2.7,1.2,3.4,2.2c0.6,1,0.9,1.8,1.2,3.6
	c0.1,0.7,0.2,1.5,0.3,1.6c0.2,1,0.6,1.7,1.2,2.1c0.8,0.6,2.3,0.6,3.7,0.1c0.2-0.1,0.5-0.2,0.5-0.1c0.1,0.1-0.7,0.5-1.1,0.8
	c-0.7,0.3-1.2,0.5-1.9,0.5c-1.3,0-2.4-0.7-3.2-2c-0.2-0.3-0.6-1-0.9-1.8c-0.9-2.2-1.4-2.8-2.5-3.5c-1-0.6-2.2-0.7-3.1-0.3
	c-1.2,0.6-1.5,2.2-0.7,3.1c0.3,0.4,1,0.7,1.5,0.8c1,0.1,1.8-0.6,1.8-1.6c0-0.6-0.2-1-0.9-1.3c-0.9-0.4-1.8,0.1-1.8,0.9
	c0,0.3,0.2,0.6,0.5,0.7c0.2,0.1,0.2,0.1,0.1,0.1c-0.8-0.2-1-1.1-0.3-1.7c0.7-0.7,2.3-0.4,2.8,0.6c0.2,0.4,0.2,1.3,0.1,1.8
	c-0.5,1.2-1.7,1.8-3,1.4c-0.9-0.2-1.3-0.5-2.3-1.6c-1.9-1.9-2.6-2.3-5.2-2.7l-0.5-0.1L112.2,101.5z"/>
<path class="st6" d="M98.2,58.6c6.2,7.5,15.8,19.3,16.2,19.9c0.4,0.5,0.2,1-0.4,1.4c-0.4,0.2-1.1,0.4-1.5,0.4
	c-0.4,0-0.9-0.2-1.3-0.6c-0.2-0.2-1.3-1.8-3.6-5.4c-1.8-2.8-3.3-5.1-3.3-5.1c-0.1-0.1-0.1-0.1,3.1,5.8c2.1,3.6,2.7,5,2.7,5.1
	c0,0.3-0.1,0.5-0.5,1c-0.7,0.8-1,1.7-1.3,3.6c-0.3,2.1-1,3.6-3,6.1c-1.2,1.5-1.4,1.8-1.7,2.4c-0.4,0.7-0.5,1.2-0.5,2.1
	c-0.1,1,0.1,1.7,0.3,2.6c0.3,0.9,0.6,1.4,1.3,2.5c0.6,1,1,1.7,1,1.9c0,0.2,0.1,0.2,1,0c2.3-0.5,4.2-1.4,5.2-2.6
	c0.6-0.7,0.8-1.1,0.8-2c0-0.6,0-0.7-0.2-1.1c-0.3-0.6-0.8-1.1-1.9-1.8c-1.4-1-2.1-1.8-2.2-2.8c-0.1-0.9,0-1.5,0.8-3.2
	c0.8-1.7,1-2.4,1.2-4.2c0.1-1.1,0.2-1.6,0.5-1.9c0.3-0.4,0.6-0.5,1.5-0.6c1.4-0.2,2.2-0.5,2.9-1.2c0.6-0.6,0.9-1.1,0.9-1.9l0-0.6
	L116,78c-1.3-1.4-18.6-20.5-18.7-20.5C97.3,57.5,97.7,58,98.2,58.6z M106.4,96.5c0.3-0.5,0.1-1.1-0.3-1.5c-0.5-0.3-1.1-0.2-1.1,0.2
	c0,0.1,0.1,0.2,0.2,0.3c0.2,0.1,0.3,0.3,0.1,0.6s-0.2,0.6,0.1,0.7C105.6,97.1,106.1,97,106.4,96.5z"/>
<path class="st6" d="M117.2,82.5c-0.6,0.2-1.3,0.9-1.4,1.6c-0.1,0.4-0.1,1.2,0.1,1.4c0.3,0.4,0.6,0.5,1.3,0.5c1.5,0,2.7-0.6,2.8-1.4
	c0.1-0.6-0.4-1.5-1.2-1.9C118.4,82.4,117.6,82.4,117.2,82.5z M118.9,83.8c0.2-0.3,0.1-0.7-0.3-0.9c-0.7-0.5-1.8-0.1-1.8,0.6
	c0,0.3,0.6,0.7,1.1,0.7C118.2,84.2,118.7,84,118.9,83.8z"/>
</svg>
