<?xml version="1.0" encoding="utf-8"?>
<!-- Generator: Adobe Illustrator 25.2.3, SVG Export Plug-In . SVG Version: 6.00 Build 0)  -->
<svg version="1.1" id="Layer_1" xmlns:v="https://vecta.io/nano"
	 xmlns="http://www.w3.org/2000/svg" xmlns:xlink="http://www.w3.org/1999/xlink" x="0px" y="0px" viewBox="0 0 186 171"
	 style="enable-background:new 0 0 186 171;" xml:space="preserve">
<style type="text/css">
	.st0{fill:#FEC803;}
	.st1{fill:#F0B90B;}
	.st2{fill-rule:evenodd;clip-rule:evenodd;fill:#FFFFFF;}
	.st3{opacity:0.1;fill:none;stroke:#191326;stroke-width:3;enable-background:new    ;}
	.st4{fill:#FFFFFF;}
	.st5{opacity:0.16;}
	.st6{fill:#5493F7;}
	.st7{fill:#0D3CA3;}
	.st8{fill:#0524A2;}
	.st9{fill:#0B2AA9;}
	.st10{fill:#7C0000;}
	.st11{fill:#C71918;}
	.st12{fill:#020202;}
	.st13{fill:#660102;}
	.st14{fill:#DFDFDF;}
	.st15{fill:#E1E1E1;}
	.st16{fill:#BB1111;}
	.st17{fill:#C11B1B;}
	.st18{fill:#A70707;}
	.st19{fill:#970C0C;}
	.st20{fill:#A60706;}
	.st21{fill:#C62121;}
	.st22{fill:#C72121;}
	.st23{fill:#CB2525;}
	.st24{fill:#E3E2E2;}
	.st25{fill:#7F8080;}
	.st26{fill:#808080;}
	.st27{fill:#D2D3D3;}
	.st28{fill:#2B2B2B;}
	.st29{fill:#1B3AB9;}
	.st30{fill:#1534B3;}
	.st31{fill:#1130AE;}
	.st32{fill:#DD2F2E;}
	.st33{fill:#C71A19;}
	.st34{fill:#DFDFE0;}
	.st35{fill:#EDEEEE;}
	.st36{fill:#DEE1E8;}
	.st37{fill:#DCDFE7;}
	.st38{fill:#D9DBE4;}
	.st39{fill:#DCDFE8;}
	.st40{fill:#DADCE5;}
	.st41{fill:#DBDDE5;}
	.st42{fill:#D9DCE5;}
	.st43{fill:#D9DCE4;}
	.st44{fill:#DFE2EB;}
	.st45{fill:#E1E4EE;}
	.st46{fill:#E1E3EE;}
	.st47{fill:#DEE2EB;}
	.st48{fill:#E3E5EE;}
	.st49{fill:#E0E3EB;}
	.st50{fill:#E2E4EE;}
	.st51{fill:#DEE2EA;}
	.st52{fill:#6E0000;}
	.st53{fill:#D22524;}
	.st54{fill:#F2F2F2;}
	.st55{fill:#E7E6E6;}
	.st56{fill:#E6E5E5;}
	.st57{fill:#E8E7E7;}
	.st58{fill:#C92323;}
	.st59{fill:#C52021;}
	.st60{fill:#C92424;}
	.st61{fill:#EEEDED;}
	.st62{fill:#FAFCFC;}
	.st63{fill:#F0F0F0;}
	.st64{fill:#DC2F2E;}
	.st65{fill:#CA2121;}
	.st66{fill:#D7D6D6;}
	.st67{fill:#EBEBEB;}
	.st68{fill:#C4C3C3;}
	.st69{fill:#DBDBDB;}
	.st70{fill:#C5C5C5;}
	.st71{fill:#A60606;}
	.st72{fill:#FDFDFD;}
	.st73{fill:#FEFEFE;}
	.st74{fill:#F5F5F5;}
	.st75{fill:#EBEFF6;}
	.st76{fill:#EDF0F7;}
	.st77{fill:#EDF0F6;}
	.st78{fill:#F1F4F9;}
	.st79{fill:#ECEFF6;}
	.st80{fill:#F0F4F9;}
	.st81{fill:#F1F3F8;}
	.st82{fill:#F0F3F9;}
	.st83{fill:#F2F5F9;}
	.st84{fill:#EDF0F8;}
	.st85{fill:#EDF1F7;}
	.st86{fill:#F3F5FA;}
	.st87{fill:#E7EAF2;}
	.st88{fill:#EAEDF4;}
	.st89{fill:#E8EBF2;}
	.st90{fill:#E9ECF4;}
	.st91{fill:#E7EAF3;}
	.st92{fill:#E7EBF2;}
	.st93{fill:#EAEDF5;}
	.st94{fill:#EBEEF4;}
	.st95{fill:#ECEEF5;}
	.st96{fill:#E6E9F0;}
	.st97{fill:#E5E7F0;}
	.st98{fill:#E7E9F1;}
	.st99{fill:#E3E7F0;}
	.st100{fill:#E4E8F0;}
	.st101{fill:#F8F8F8;}
	.st102{fill:#D42625;}
	.st103{fill:#C6C6C6;}
	.st104{fill:#A40505;}
	.st105{fill:#DBDADA;}
	.st106{fill:#E9E9E9;}
	.st107{fill:#C7201F;}
	.st108{fill:#BF1919;}
	.st109{fill:#C31C1C;}
	.st110{fill:#DEDDDD;}
	.st111{fill:#C11B1A;}
	.st112{fill:#D9D9D9;}
	.st113{fill:#E3E3E3;}
	.st114{fill:#C71F1F;}
	.st115{fill:#D5D5D4;}
	.st116{fill:#ECECEC;}
</style>
<g>
	<path class="st0" d="M172.4,95c-1-7.8-6.2-14.9-13.3-18.2c-8.6-4-18.7-2.6-27.8-5.3c-11.8-3.5-20.4-13.3-30.9-19.8
		C88,44.1,73.2,41.4,58.8,38.8C49.2,37.1,39.1,35.5,30,39c-12.3,4.9-19.5,20-15.5,32.6c6.8,21.4,37,27.1,46.2,47.6
		c4.8,10.6,3.2,24.1,10.7,32.9c9,10.5,25.5,8.7,38.9,5.5c10.2-2.5,20.3-5.3,30.4-8.2c8.2-2.3,16.8-4.8,22.8-10.8
		c7.5-7.4,4.4-13.1,4.3-21.7C167.9,109.5,173.5,103.3,172.4,95z"/>
</g>
<circle class="st1" cx="70.2" cy="39.8" r="29"/>
<path class="st2" d="M57.9,32.4l12.4-12.4l4.9,4.9L62.8,37.4L57.9,32.4z M57.9,47.2l19.7-19.7l4.9,4.9L62.8,52.1L57.9,47.2z
	 M85,34.9L65.3,54.6l4.9,4.9l19.7-19.7L85,34.9z M50.5,39.8l4.9-4.9l4.9,4.9l-4.9,4.9L50.5,39.8z"/>
<circle class="st3" cx="70.2" cy="39.8" r="27.5"/>
<path class="st4" d="M120.4,127.4c24.1,0,43.7-19.5,43.7-43.7s-19.5-43.7-43.7-43.7S76.8,59.7,76.8,83.8S96.3,127.4,120.4,127.4z"/>
<g class="st5">
	<path d="M120.4,127.4c-11.6,0-22.5-4.5-30.7-12.7c-8.3-8.2-12.9-19.1-12.9-30.8S81.3,61.3,89.5,53s19.2-12.8,30.8-12.9l0,0h0.1
		c11.6,0,22.5,4.5,30.7,12.7C159.4,61,163.9,72,164,83.6s-4.5,22.6-12.7,30.9S132.1,127.3,120.4,127.4
		C120.5,127.4,120.4,127.4,120.4,127.4z M120.3,43.2c-10.8,0-21,4.3-28.7,12S79.8,73.1,79.8,83.9s4.3,21,12,28.7
		c7.7,7.6,17.8,11.8,28.6,11.8h0.1c10.8,0,21-4.3,28.7-12S161,94.6,161,83.8s-4.3-21-12-28.7C141.4,47.4,131.2,43.2,120.3,43.2
		L120.3,43.2L120.3,43.2z"/>
</g>
<g>
	<path class="st6" d="M106.9,80.3c-0.2-0.5-0.7-0.8-1-1.2c-1.3-1.6-2.2-3.3-2.3-5.4c-0.1-1.3,0.2-2.5,0.7-3.7
		c0.1-0.2,0.2-0.3,0.2-0.5c0.6-1.2,1.5-2.3,2.6-3.3c2.3-2.1,4.9-3.7,7.7-5c2.7-1.3,5.5-2.3,8.4-3.1c2.1-0.6,4.2-1,6.3-1.3
		c2.2-0.3,4.5-0.3,6.7,0.5c0.4,0.1,0.8,0.4,1.2,0.6c3.4,2.7,6,6.1,8,10c1.1,2.2,1.9,4.5,2.4,6.9c0,0,0,0.1,0.1,0.1
		c0,0.1-0.1,0.1-0.1,0.1c-1.9,0.3-3.9,0.6-5.8,0.9c-3.7,0.6-7.4,1.3-11.1,1.9c-1.5,0.3-3.1,0.5-4.6,0.7c-2.6,0.4-5.2,0.7-7.8,1
		c-0.1,0-0.1,0-0.2,0c-1.9,0.2-3.8,0.4-5.8,0.5c-0.1,0-0.2,0-0.3,0.1c-1.3,0.2-2.7,0.2-4,0.2c-0.2,0-0.5,0-0.7,0.1
		C107.2,80.4,107,80.5,106.9,80.3z"/>
	<path class="st6" d="M100.4,107c-2-1.4-3.8-2.9-5.4-4.7c-1.6-1.7-3-3.6-4.1-5.7c-1-1.8-1.9-3.7-2.5-5.7c-0.7-2.4-1.4-4.9-1.3-7.5
		c0.1-2.9,0.7-5.7,1.6-8.4c0.3-0.9,0.6-1.8,1-2.7c0-0.1,0.1-0.2,0.1-0.2c3.9,4.4,7.5,9,10.5,14.1c0.2-0.1,0.1-0.2,0.1-0.4
		c0-1.1,0-2.1,0-3.2c0-0.2-0.1-0.3,0.1-0.5c0.3,0.2,0.2,0.6,0.2,0.9c0,5,0,10.1,0,15.1c0,1.1,0,1,1,1c0.6,0,1.2-0.1,1.8,0
		c0.1,0,0.1,0.1,0.2,0.1c-0.1,0.3-0.3,0.2-0.5,0.3c-0.6,0-1.3,0-1.9,0c-0.4,0-0.5,0.2-0.5,0.5c0,0.6,0,1.3,0,1.9
		c-0.1,0.9,0,1.8,0,2.7c0,0.6,0,1.1,0,1.7C100.7,106.7,100.7,106.9,100.4,107z"/>
	<path class="st7" d="M137.3,57.9c-0.7-0.2-1.4-0.6-2.1-0.7c-1.9-0.4-3.8-0.5-5.7-0.2c-3.3,0.4-6.5,1.2-9.7,2.3
		c-4.1,1.4-7.9,3.2-11.3,5.8c-1.5,1.1-2.8,2.4-3.7,4c-0.1,0.1-0.1,0.3-0.3,0.3c-1.7-1.1-3.1-2.5-4.2-4.2c0-0.2,0.2-0.3,0.3-0.3
		c2.2-1.1,4.3-2.3,6.2-3.9c1.1-1,2.1-2,2.6-3.4c0.1-0.2,0.1-0.4,0.2-0.6c0.3-1.3-0.2-2.1-1.4-2.6c-0.3-0.1-0.7,0-0.8-0.4
		c1-0.5,2.1-0.9,3.3-1.2c1.9-0.6,3.8-1,5.8-1.1c1-0.1,1.9-0.2,2.9-0.2c2.8,0.1,5.6,0.5,8.3,1.3c3.3,1,6.3,2.6,9.1,4.7
		C136.9,57.6,137.1,57.7,137.3,57.9z"/>
	<path class="st6" d="M107.3,54c0.3,0.1,0.7,0.2,1,0.3c1.1,0.4,1.6,1.4,1.4,2.6c-0.4,1.8-1.6,3-2.8,4.2c-1.9,1.7-4.1,2.9-6.3,4
		c-0.1,0-0.2,0.1-0.3,0.2c-1.5,0.6-3,1.3-4.6,1.8c-1.1,0.4-2.3,0.7-3.5,0.9c-0.1,0-0.1,0-0.2,0c0.4-0.8,0.9-1.5,1.3-2.2
		c3.3-4.9,7.6-8.7,12.8-11.6C106.4,53.9,106.9,54,107.3,54z"/>
	<path class="st8" d="M103.6,99.3c-0.9,0-1.7,0-2.6,0c-0.4,0-0.5-0.1-0.5-0.5c0-2.6,0-5.2,0-7.8c0-3,0-5.9,0-8.9
		c0.2-1.1,0.9-1.8,2-1.8c1.3,0,2.6-0.2,3.9-0.1c-0.1,0.3-0.4,0.2-0.6,0.2c-0.3,0-0.6-0.1-0.8,0.1c-0.2,0.2-0.1,0.5-0.2,0.7
		c-0.1,0.4-0.3,0.9,0.1,1.2c0,0,0,0.1,0,0.1c-0.2,0.4,0,0.7,0.2,1c0.1,0.1,0,0.2-0.2,0.2c-0.2,0-0.4,0-0.5-0.1
		c-0.1-0.1-0.1-0.2-0.2-0.3c-0.1,0.4-0.3,0.5-0.7,0.5c0.4,0.3,0.5,0.5,0.3,0.8c0.5-0.2,0.7-0.2,1.1,0.3c-0.1,0.5-0.3,0.9-0.2,1.4
		c0.1,0.2,0.1,0.4,0.2,0.6c0.1,0.1,0.2,0.3,0.1,0.4c-0.1,0.2-0.3,0.1-0.5,0c-0.1-0.1-0.2-0.2-0.3-0.3c0,0.3-0.3,0.5-0.6,0.5
		c0.3,0.2,0.4,0.5,0.2,0.8c0.2-0.1,0.4-0.2,0.6-0.1c0.2,0.1,0.4,0.2,0.4,0.4c-0.1,0.5-0.3,1.1,0,1.6c0.1,0.2,0.1,0.4,0.3,0.5
		c0.1,0.1,0.3,0.2,0.2,0.3c-0.1,0.2-0.2,0.2-0.4,0.2c-0.1,0-0.3,0-0.4-0.1c-0.1-0.1-0.1-0.1-0.2-0.3c-0.1,0.3-0.3,0.5-0.8,0.4
		c0.3,0.3,0.5,0.5,0.3,0.9c0.3-0.1,0.6-0.3,0.8,0.1c0.1,0.7,0,1.3,0.3,2c0,0.1,0.1,0.2,0.1,0.3c0.1,0.1,0.2,0.2,0.1,0.4
		c-0.1,0.1-0.3,0.1-0.4,0.1c-0.1,0-0.2,0-0.2-0.1c-0.1-0.1-0.2-0.2-0.2-0.5c0,0.5-0.2,0.7-0.7,0.7c0.3,0.2,0.4,0.5,0.2,0.9
		c0.3-0.2,0.6-0.2,0.9,0c-0.1-0.6-0.1-0.6,0.4-0.7c0.3,0.4,0.3,0.9,0,1.2c-0.4,0.6-0.5,1.3-0.4,1.9c0,0.2,0.2,0.2,0.4,0.2
		c0.5,0.1,1.1,0.1,1.6,0.1c0.2,0,0.4,0,0.5,0.1c0.1,0.1,0.1,0.1,0,0.2c-0.4,0.1-0.8,0.1-1.2,0.1C105.2,99.3,104.4,99.4,103.6,99.3z"
		/>
	<path class="st9" d="M107.3,99.2c-0.2-0.1-0.3-0.1-0.5-0.1c-0.6,0-1.2,0-1.8-0.1c-0.3-0.1-0.4-0.1-0.4-0.5c0-0.6,0.4-1,0.2-1.6
		c0-0.1,0.1-0.2,0.2-0.2c0.3-0.2,0.4-0.9,0.1-1.2c0-0.2-0.1-0.2-0.2-0.2c-0.1,0-0.3-0.1-0.2-0.3c0.2,0.1,0.4,0.1,0.6,0
		c-0.6-0.8-0.5-1.8-0.6-2.7c0.1,0,0.2-0.1,0.1-0.2c-0.1-0.2,0-0.4,0.2-0.5c-0.1-0.2-0.5,0-0.3-0.4c0.1,0,0.2,0.1,0.3,0.1
		c0.1,0,0.3,0.1,0.4-0.1c0.1-0.2-0.1-0.2-0.3-0.2c-0.1,0-0.2-0.1-0.2-0.2c-0.2-0.7-0.3-1.3,0.1-2c-0.1-0.4-0.4-0.7,0.1-1
		c-0.2-0.1-0.5,0-0.4-0.3c0.2,0,0.3,0.2,0.4,0c0.1-0.1-0.1-0.3-0.2-0.4c-0.3-0.4-0.3-1.3,0-1.8c0-0.1,0-0.2,0-0.2
		c-0.1-0.4-0.4-0.7,0.1-1c-0.1-0.1-0.5,0-0.4-0.4c0.2,0.1,0.4,0.1,0.6,0.1c0-0.2-0.2-0.3-0.3-0.4c-0.2-0.2-0.3-0.3,0-0.5
		c0.1-0.1,0.2-0.2,0-0.3c-0.5-0.2-0.2-0.6-0.2-1c0-0.3,0.2-0.6,0.1-1c-0.1-0.2,0.1-0.2,0.3-0.2c0.5,0,1,0.1,1.4-0.1
		c0.2,0,0.3,0,0.5,0c0.1,0,0.3,0,0.4,0c0.2-0.1,0.5,0,0.7,0c0.6,0,0.8,0.3,0.9,0.9c0.1,0.5-0.1,1,0.1,1.5c0.1,0.1,0,0.3-0.1,0.4
		c-0.1,0.4-0.3,0.7-0.7,0.8c0.1,0.1,0.2,0.2,0.3,0.3c0.1,0.1,0,0.3,0,0.5c0.3-0.2,0.6-0.2,0.8,0.1c-0.2,0.5-0.5,1-0.6,1.6
		c0,0.2,0,0.4,0.1,0.5c0,0.5-0.1,0.6-0.6,0.8c0.3,0.3,0.3,0.3,0.3,0.7c0.2-0.1,0.5-0.3,0.6,0.1c0,0.1,0,0.2,0,0.2
		c-0.4,0.5-0.3,1-0.2,1.5c0,0.1,0,0.3,0,0.4c-0.1,0.4-0.1,0.8-0.7,0.7c0.2,0.2,0.4,0.4,0.2,0.8c0.4-0.2,0.7-0.3,0.9,0.1
		c-0.3,0.5-0.5,1-0.3,1.7c0.1,0.2,0,0.3-0.1,0.5c-0.1,0.4-0.2,0.7-0.8,0.6c0.4,0.2,0.5,0.5,0.3,0.8c0.4-0.2,0.7-0.3,0.7,0.2
		c-0.4,0.8-0.2,1.6-0.3,2.5c0,0.2,0.1,0.4-0.1,0.6C108.4,99.3,107.8,99.5,107.3,99.2z"/>
	<path d="M146.3,114.2c-2.2,1.9-4.7,3.4-7.3,4.7c-0.5,0.3-1.1,0-1.6-0.1c-2.4-0.3-4.8-0.6-7.2-0.9c-2-0.2-4-0.5-6-0.7
		c-1.6-0.2-3.2-0.2-4.8-0.4c-1.4-0.2-2.7-0.2-4.1-0.4c-1.3-0.1-2.6-0.2-3.9-0.2c-1.5-0.1-3-0.1-4.6-0.2c0.1-0.3,0.4-0.2,0.6-0.2
		c0.7,0,1.5,0,2.2,0c2.9,0,5.8,0,8.7,0c1.9,0,3.8,0,5.7-0.1c1.2,0,2.5,0,3.7-0.1c0.2,0,0.3,0,0.5-0.1c1.1-0.1,2.2-0.1,3.3-0.1
		c1-0.1,2-0.1,3-0.1c0.1,0,0.1,0,0.2,0c0.5-0.1,1,0,1.5-0.1c2-0.2,4-0.3,6.1-0.5c1.1-0.1,2.2-0.2,3.3-0.4
		C145.7,114.1,146,114,146.3,114.2z"/>
	<path class="st10" d="M150.4,110.4c-1,1.2-2.1,2.3-3.4,3.3c-0.4,0.2-0.7,0.3-1.2,0.3c-2.3,0.4-4.6,0.6-7,0.8c-0.3,0-0.7,0.1-1,0
		c-0.2-0.1-0.1-0.2,0-0.3c0.1-0.1,0.3-0.1,0.4-0.2c0.4-0.1,0.6-0.5,0.5-0.9c-0.1-0.4-0.1-0.8,0.3-1.2c-0.5,0-0.9,0-1.3,0.1
		c-0.4,0.1-0.8,0.2-1-0.2c0.1-0.1,0.3-0.2,0.5-0.2c3.9-0.7,7.9-1.4,11.8-1.8c0.3,0,0.6,0,1,0C150.1,110.2,150.3,110.1,150.4,110.4z"
		/>
	<path class="st11" d="M102.1,115.6c-0.4-0.3-0.8-0.6-1.2-0.9c-0.3-0.2-0.3-0.5-0.4-0.8c-0.1-1.2-0.1-1.2,1.1-1.2
		c1.8,0,3.6-0.1,5.4-0.1c0.7,0,1.4,0,2.1-0.1c0.5-0.1,0.9-0.1,1.4,0c0.3,0.1,0.2,0.3,0,0.4c-0.2,0.2-0.4,0.4-0.1,0.6
		c0.1,0.1,0.1,0.1,0.1,0.2c0,0.5,0,1.1,0.3,1.6c-0.5,0.2-1,0.2-1.6,0.2c-2,0.1-4.1,0.1-6.1,0.2C102.8,115.8,102.4,115.7,102.1,115.6
		z"/>
	<path class="st12" d="M153.4,83.2c0.2,0.1,0.4,0.1,0.6,0.2c0.2,0.1,0.4,0,0.6,0.3c0.1,0.2,0.6,0.2,0.9,0.3c0.5,0.2,1,0.7,1,1.2
		c0,0.1,0.1,0.3-0.2,0.2c-0.2-0.1-0.1,0.1-0.1,0.2c0,0.2-0.1,0.4-0.1,0.6c-0.1,0-0.2-0.1-0.3-0.1c0,0.1,0,0.3,0,0.4
		c-0.1-0.1-0.2-0.2-0.3-0.3c0,0.2,0,0.4,0,0.5c-0.2,0-0.1-0.3-0.3-0.3c0,0.1,0,0.3,0,0.4c0,0-0.1,0-0.1,0c-0.1-0.1-0.1-0.2-0.2-0.2
		c-0.1,0-0.1,0.1-0.1,0.2c0,0.1,0,0.3,0,0.4c0,5.6,0,11.1,0,16.7c0,0.2,0,0.4,0,0.5c-0.1-0.2-0.1-0.3-0.1-0.5c0-4.8,0-9.7,0-14.5
		c0-0.2,0-0.4,0-0.5c0.2-0.7,0.2-1.3-0.1-2c-0.2,0.2-0.1,0.4-0.1,0.6c0,5.7,0,11.4,0,17.1c0,0.3,0.1,0.5-0.2,0.7
		c-0.3-0.1-0.1-0.3-0.1-0.5c0-4.7,0-9.4,0-14.1c0-1,0-2.1,0-3.1c0-0.1,0-0.1,0-0.2c0.1,0.1,0,0.3,0,0.4c0,5.9,0,11.7,0,17.6
		c0,0.1,0,0.2-0.1,0.3c-0.1,0.1-0.2,0.2-0.3,0.4c-0.1-0.2-0.1-0.3-0.1-0.5c0-5.4,0-10.7,0-16.1c0.1-0.6,0-1.3,0-1.9c0-0.1,0,0.1,0,0
		c-0.1,0.6,0.1,1.3,0,1.9c0,5.4,0,10.7,0,16.1c0,0.2,0,0.4,0,0.5c0,0.1-0.1,0.3-0.1,0.4c-0.2,0-0.1-0.2-0.1-0.3c0-0.3,0-0.5,0-0.8
		c-0.2-0.8-0.1-1.7-0.1-2.5c0-0.9,0-1.9,0-2.8c0-0.9,0-1.7,0-2.6c0-0.9,0-1.9,0-2.8c0-0.9,0-1.7,0-2.6c0-0.9,0-1.9,0-2.8
		c0-0.8,0-1.7,0-2.5c0-1,0-1.9,0-2.9C153.3,83.6,153.2,83.4,153.4,83.2z"/>
	<path class="st13" d="M102.1,115.6c0.2-0.2,0.5,0,0.7,0c2.1-0.1,4.3-0.1,6.4-0.2c0.5,0,1.1,0,1.6-0.2c0.5-0.3,1-0.2,1.5-0.2
		c0.6-0.1,1.1-0.1,1.7-0.1c1.3,0.1,2.5-0.1,3.8-0.2c1.1-0.1,2.1-0.2,3.2-0.4c1.2-0.1,2.4-0.3,3.6-0.4c0.2,0,0.4-0.1,0.7,0
		c0.8,0,1.5,0.1,2.3-0.2c0.3-0.1,0.7,0.2,0.8,0.6c0.1,0.5-0.1,0.9-0.7,1.1c-0.3,0.1-0.6,0.1-0.9,0.1c-1.6,0-3.1,0.3-4.3,0.2
		c1.4,0,3.2-0.2,5.1-0.2c0.2,0,0.5-0.1,0.7,0.1c-0.1,0.1-0.2,0.1-0.4,0.1c-2.4,0-4.7,0-7.1,0.1c-4.5,0.2-9.1,0-13.6,0.1
		c-0.1,0-0.3,0-0.4,0.1c-1.3,0-2.6,0-3.9,0C102.6,116,102.3,115.9,102.1,115.6z"/>
	<path class="st14" d="M109.2,112.6c-0.7,0.2-1.4,0.1-2.1,0.1c-2,0.1-4,0.2-6,0.1c-0.4,0-0.6,0.1-0.5,0.6c0,0.2,0,0.4,0,0.5
		c-0.1-0.1-0.1-0.2-0.1-0.4c0-2,0-4.1,0-6.1c0.1,0,0.1,0,0.2,0c0.2,0.6,0.1,1.1,0.1,1.7c0,0.8,0,0.8,0.8,0.8
		c1.6,0.1,3.1-0.2,4.7-0.1c0.2,0,0.5,0,0.7,0.1c0.2,0.2,0.2,0.4,0.2,0.6c0,0.4,0,0.8,0,1.2c0,0.6,0,0.6,0.6,0.6c0.3,0,0.6,0,1,0
		C108.8,112.5,109,112.4,109.2,112.6z"/>
	<path class="st15" d="M100.6,107.5c0,0-0.1,0-0.1,0c0-0.2,0-0.3,0-0.5c0.2-0.3,0.1-0.7,0.1-1c0-0.4,0-0.8,0-1.2
		c0.1-0.2,0.3-0.2,0.5-0.2c1.8,0.1,3.6-0.1,5.4-0.1c0.2,0,0.5,0,0.7,0.1c0.1,0,0.2,0.1,0.1,0.2c-0.3,0.4-0.2,0.8-0.2,1.2
		c0,0.5-0.1,1.1,0.4,1.4c-0.1,0.2-0.3,0.2-0.5,0.2c-1.9,0-3.8,0.2-5.7,0.1C101,107.6,100.8,107.7,100.6,107.5z"/>
	<path class="st16" d="M125.3,114c-1,0.1-1.9,0.2-2.9,0.3c-1.3,0.2-2.7,0.3-4,0.4c-1.2,0.1-2.4,0.3-3.5,0.3c-0.3,0-0.5-0.1-0.8,0
		c0-0.3,0.2-0.2,0.4-0.2c2.5-0.2,5-0.5,7.5-0.8c0.1,0,0.2,0,0.2,0c4.7-0.6,9.4-1.4,14-2.2c3.3-0.6,6.7-1.2,10-1.7
		c0.2,0,0.3-0.1,0.5-0.1c0.5,0,1.1-0.1,1.6-0.2c0.3,0,0.5-0.2,0.5-0.6c0-0.5,0-0.9,0-1.4c0-0.2,0-0.5,0.2-0.7
		c0.1-0.1,0.2-0.1,0.2-0.1c0.4,0,0.8-0.1,1.1,0.1c0.2,0.3,0.1,0.6,0.1,1c0,0.6-0.1,1.2,0.3,1.7c-0.1,0.2-0.2,0.4-0.4,0.5
		c-0.4-0.2-0.9-0.1-1.3-0.1c-1.8,0.2-3.5,0.4-5.3,0.7c-1.9,0.3-3.9,0.6-5.8,0.9c-0.5,0.1-0.9,0.1-1.4,0.3c-0.2,0.2-0.4,0.2-0.6,0.2
		c-2.6,0.4-5.2,0.9-7.9,1.2C127.2,113.8,126.2,113.9,125.3,114z"/>
	<path class="st17" d="M147.6,74.9c0,0,0.1-0.1,0.1-0.1c1.2-0.1,2.4-0.3,3.6-0.2c-0.2,0.2-0.6,0.1-0.8,0.1c-0.3,0-0.4,0.1-0.4,0.4
		c0,0.5,0,0.9,0,1.4c0,0.4,0.1,0.6,0.5,0.5c0.2,0,0.4,0,0.4,0.2c-0.2,0.1-0.4,0.1-0.6,0.1c-0.9,0-1.7,0.1-2.6,0.1
		c-0.2,0-0.4,0.1-0.6,0c-0.1,0-0.2-0.1-0.2-0.3c0-0.7-0.1-1.3,0-2C147.1,75.1,147.3,74.9,147.6,74.9z"/>
	<path class="st18" d="M151,77.4c-0.1-0.1-0.2-0.1-0.3-0.1c-0.7,0-0.7,0-0.7-0.8c0-0.5,0-1.1,0-1.6c0-0.2,0.1-0.2,0.2-0.2
		c0.4,0,0.8,0,1.2,0c0.3,0,0.7,0,1,0.2c0.3,0.8,0.2,1.6,0.1,2.4c0,0.4-0.5,0.3-0.7,0.3C151.4,77.6,151.2,77.6,151,77.4z"/>
	<path class="st19" d="M137.8,114.7c1.4,0,2.8-0.2,4.2-0.4c1.7-0.2,3.4-0.4,5.1-0.7c-0.2,0.2-0.4,0.4-0.6,0.6
		c-1.2,0-2.4,0.3-3.6,0.4c-1.3,0.1-2.7,0.3-4,0.4c-0.9,0.1-1.8,0.1-2.6,0.2c-0.5,0.1-1-0.1-1.5,0.1l0,0c-0.7,0.1-1.3,0-2,0
		c-0.1,0-0.2,0-0.2-0.2c0-0.1,0.1-0.2,0.2-0.2c0.4-0.1,0.8-0.1,1.1-0.1c1.2,0,2.4-0.2,3.7-0.2C137.5,114.7,137.6,114.6,137.8,114.7z
		"/>
	<path class="st20" d="M150.8,109.9c-0.3-0.2-0.4-0.4-0.4-0.7c0-0.6,0-1.2,0-1.9c0.1-0.1,0.1-0.1,0.2-0.1c0.4,0,0.7,0,1.1,0
		c0.1,0,0.3,0,0.4,0c0.2,0.1,0.6,0,0.6,0.4C152.1,108.4,151.5,109.2,150.8,109.9z"/>
	<path class="st21" d="M153.3,102.9c0,0.8,0.1,1.7,0,2.5c0,0,0,0.1-0.1,0c0-0.1-0.1-0.1-0.1-0.2c-0.3-0.3-0.6-0.4-0.9-0.5
		c-0.2-0.1-0.5,0.1-0.5-0.3c0.3-0.1,0.3-0.4,0.3-0.6c0-0.6-0.1-1.2,0.1-1.8c0-0.1,0.1-0.1,0.2-0.1C153,102,153.2,102.2,153.3,102.9z
		"/>
	<path class="st22" d="M153.4,83.2c0,0.2,0,0.4,0,0.7c-0.3-0.3-0.7-0.6-1.1-0.8c-0.1-0.1-0.1-0.1-0.1-0.2c0-0.8-0.1-1.6,0-2.5
		c0.3-0.3,0.5-0.1,0.7,0.2c0.3,0.3,0.5,0.7,0.5,1.2C153.3,82.2,153.4,82.7,153.4,83.2z"/>
	<path class="st23" d="M151.6,77.4c0.7,0,0.7,0,0.7-0.7c0-0.6,0-1.2,0-1.8c0.7,0.1,1,0.5,1,1.2c0,0.7,0,1.5,0,2.2
		c-0.2,0-0.2-0.1-0.3-0.2c-0.3-0.2-0.6-0.4-0.9-0.4C152,77.6,151.7,77.7,151.6,77.4z"/>
	<path class="st24" d="M152.2,77.6c0.3,0.1,0.7,0.1,0.9,0.5c-0.3,0-0.2,0.3-0.2,0.4c0,0.7,0,1.3,0,2c-0.2,0-0.4-0.3-0.7-0.2
		c-0.1,0.1-0.2,0.1-0.2,0c0-0.8,0-1.6,0-2.4C152,77.8,152,77.6,152.2,77.6z"/>
	<path class="st24" d="M152.3,104.7c0.4,0.1,0.7,0.2,0.9,0.6c-0.3-0.1-0.3,0.2-0.3,0.4c0,0.4,0,0.9,0,1.3c0,0.2,0,0.5-0.2,0.7
		c-0.1-0.2-0.4-0.2-0.6-0.3c-0.1-0.1-0.1-0.3-0.1-0.4c0-0.6,0-1.2,0-1.7C152,104.9,151.9,104.6,152.3,104.7z"/>
	<path class="st25" d="M153.9,105.7c0-6.1,0-12.2,0-18.5c0.2,0.3,0.1,0.5,0.1,0.7c0,5.7,0,11.3,0,17c0,0.2-0.1,0.4,0.1,0.6
		C154.1,105.5,154,105.6,153.9,105.7z"/>
	<path class="st26" d="M154.8,86.9C154.9,86.9,154.9,86.9,154.8,86.9c0.1,0.1,0.1,0.3,0.1,0.4c0,5.4,0,10.9,0,16.3
		c0,0.2,0,0.3,0,0.5c0,0-0.1,0-0.1,0C154.8,98.4,154.8,92.6,154.8,86.9z"/>
	<path class="st27" d="M153.7,89.4c0,5.3,0,10.7,0,16c0,0.2,0,0.5,0,0.7c0,0-0.1,0-0.1,0c0-1,0-2.1,0-3.1c0-4.4,0-8.7,0-13.1
		C153.6,89.8,153.6,89.6,153.7,89.4C153.6,89.4,153.6,89.4,153.7,89.4z"/>
	<path d="M154.5,89c0.1,0.2,0.1,0.4,0.1,0.6c0,4.8,0,9.6,0,14.3c0,0.2,0,0.4,0,0.6c0,0.1,0,0.2-0.1,0.3c0-0.1,0-0.2,0-0.3
		c0-5.1,0-10.2,0-15.3C154.4,89.1,154.5,89.1,154.5,89z"/>
	<ellipse class="st28" cx="155.3" cy="95.9" rx="0" ry="10.6"/>
	<path class="st24" d="M153.3,105.5C153.3,105.5,153.3,105.4,153.3,105.5c0.2,0.3,0,0.7,0.2,1c-0.1,0.2-0.2,0.1-0.2,0
		C153.3,106.1,153.3,105.8,153.3,105.5z"/>
	<path class="st29" d="M118.2,79.4c0.6-0.2,1.3-0.2,1.9-0.3c1.9-0.3,3.9-0.5,5.8-0.8c0.1,0,0.2,0,0.2,0c0.2,0.1,0.2,0.3,0.2,0.5
		c0,0.7,0,1.4,0,2.2c0,0.9,0,1.8,0,2.7c0,0.9,0,1.8,0,2.7c0,0.9,0,1.8,0,2.7c0,0.9,0,1.7,0,2.6c0,0.9,0,1.9,0,2.8
		c0,0.9,0.1,1.7,0,2.6c-0.1,0.3-0.4,0.3-0.7,0.3c-1,0.2-2.1,0.3-3.1,0.4c-0.9,0.1-1.9,0.2-2.8,0.3c-0.2,0-0.4,0.1-0.6,0
		c-0.1,0-0.1,0-0.2-0.1c-0.7-0.2-0.7-0.2-0.7-0.9c0-0.7,0-1.3,0-2c0-0.1,0.2,0,0.1-0.2c-0.2-0.4-0.1-0.6,0.2-0.9
		c0.1,0,0.1-0.1,0-0.2c-0.2-0.2-0.3-0.5-0.4-0.8c-0.1-0.1-0.1-0.3-0.1-0.4c0.3-0.4,0.2-0.9,0.2-1.4c0,0,0-0.1,0-0.1
		c-0.2-0.4,0-0.8,0.3-1.1c-0.4-0.2-0.5-0.5-0.3-0.9c0.1-0.3-0.1-0.6,0.2-0.9c0,0,0-0.1,0-0.1c-0.3-0.2-0.1-0.5-0.1-0.7
		c-0.2-0.5,0-0.9,0.4-1.2c-0.1-0.1-0.2-0.1-0.3-0.2c-0.1-0.1-0.2-0.1-0.2-0.3c0.1-0.7-0.2-1.4,0.2-2c0-0.1,0-0.3,0-0.4
		c0.1-0.2,0.3-0.4,0.5-0.5c0.1-0.1,0.3-0.2,0.1-0.3c-0.1-0.1-0.3-0.1-0.4,0.1c-0.1,0.1-0.3,0.1-0.4,0c-0.2-0.2-0.2-0.4-0.1-0.6
		c0.2-0.4,0.1-0.7,0-1.1C118.1,80.7,118.1,80.1,118.2,79.4z"/>
	<path class="st30" d="M118.5,84.1c-0.2,0.5-0.3,1.1-0.1,1.6c0,0,0,0.1,0,0.1c-0.3,0.5,0.1,0.6,0.5,0.6c0.1,0,0.2,0,0.2,0.1
		c0,0-0.1,0.1-0.2,0.1c-0.5,0.3-0.6,0.3-1-0.2c-0.1,0.3-0.3,0.5-0.8,0.4c0.4,0.3,0.4,0.5,0.3,0.8c0.4-0.3,0.7-0.1,1,0.2
		c-0.1,0.3-0.5,0.7,0.3,0.7c-0.5,0.4-0.3,1-0.5,1.5c-0.1,0.4,0.4,0.2,0.6,0.4c-0.4,0.2-0.7,0.3-1-0.3c-0.2,0.4-0.4,0.5-0.8,0.5
		c0.4,0.2,0.5,0.4,0.4,0.8c0.5-0.2,0.6-0.2,0.9,0.2c0,0.2-0.1,0.5,0.2,0.6c0.1,0,0.1,0.1,0,0.2c-0.4,0.7-0.4,1,0.2,1.7
		c-0.4,0.3-0.6,0.2-0.9-0.2c-0.2,0.3-0.4,0.5-0.9,0.5c0.3,0.3,0.6,0.4,0.3,0.9c0.4-0.3,0.7-0.3,1,0c0.1,0.7,0.1,1.4,0,2.1
		c0,0.5,0.2,0.7,0.7,0.8c-0.2,0.2-0.4,0.2-0.6,0.2c-1.3,0.1-2.6,0.3-3.8,0.4c-0.5-0.1-0.9,0.2-1.4,0c-0.4-0.6-0.3-1.4-0.3-2.1
		c0-0.4,0.2-0.8,0.4-1.2c0.2-0.5,0.4,0,0.6,0c-0.1-0.4-0.1-0.4,0.2-0.9c-0.5,0.1-0.5-0.5-0.8-0.6c-0.4-0.2-0.4-0.6-0.3-1
		c0.1-0.4,0.2-0.9,0.3-1.3c0.2-0.3,0.4,0,0.6,0.1c-0.2-0.4-0.1-0.7,0.2-0.9c-0.2-0.1-0.5,0-0.5-0.2c-0.1-0.4-0.2,0-0.4,0
		c-0.3-0.4-0.3-0.9-0.3-1.3c0-0.3,0-0.5-0.1-0.8c-0.1-0.1-0.2-0.3,0-0.4c0.1,0,0.1,0,0.2,0c0.3,0.2,0.5-0.1,0.8-0.2
		c0.2-0.3-0.1-0.7,0.3-0.8c-0.5,0-0.6-0.4-0.8-0.8c-0.4-0.6-0.5-1.3-0.2-2c0.1-0.5,0.5-0.3,0.8-0.2c-0.1-0.3-0.1-0.6,0.2-0.8
		c-0.5,0.1-0.6-0.4-0.8-0.6c-0.4-0.1-0.5-0.2-0.4-0.7c0.1-0.5,0-1,0-1.5c0-0.2-0.1-0.3-0.3-0.4c-0.2-0.1-0.4-0.1-0.5-0.3
		c0.4-0.2,0.8-0.1,1.2-0.1c1.6-0.2,3.3-0.3,4.9-0.4c0.2,0.4,0.1,0.9,0.1,1.4c0,0.3,0,0.6,0.2,0.8c0.1,0.1,0,0.2,0,0.3
		c-0.1,0.3-0.4,0.6-0.2,0.9c-0.3,0.2-0.2-0.2-0.4-0.2c-0.1,0.2-0.3,0.4-0.7,0.4c0.3,0.2,0.4,0.5,0.3,0.8
		C117.9,83.6,118.2,83.7,118.5,84.1z"/>
	<path class="st31" d="M113.3,95.6c0.2,0,0.2,0.2,0.1,0.3c-0.5,0.3-0.4,0.8-0.4,1.2c0,0.5-0.1,1,0.1,1.5c0,0,0,0.1-0.1,0.2
		c-0.1,0.2-0.3,0.2-0.5,0.2c-1,0.1-2,0.1-3.1,0.2c-0.2,0-0.4,0-0.6-0.2c-0.1-0.9-0.2-1.9,0.1-2.8c0-0.1,0.1-0.2,0.2-0.3
		c0-0.1,0.2-0.1,0.1-0.2c-0.1-0.3,0-0.5,0.2-0.7c-0.5-0.1-0.5-0.4-0.7-0.7c0.1-0.2,0.1-0.4,0-0.6c-0.2-0.5,0.1-1.3,0.4-1.5
		c0.1-0.3-0.2-0.7,0.3-1c-0.2,0-0.4,0-0.5-0.1c0-0.1,0.1-0.2-0.1-0.2c-0.2,0-0.1-0.2-0.2-0.3c0-0.2,0-0.4,0-0.6
		c0-0.4-0.3-0.9,0.2-1.3c0.1,0,0-0.2,0-0.3c0.1-0.1,0.3,0,0.2-0.2c-0.1-0.3,0-0.5,0.3-0.7c-0.6,0.1-0.7-0.3-0.8-0.6
		c-0.2-0.1-0.4-0.2-0.2-0.5c0.2-0.3,0.2-0.6,0.2-0.9c0.1-0.3,0.3-0.5,0.4-0.8c0.1-0.3-0.2-0.7,0.3-1c-0.5,0-0.6-0.4-0.8-0.7
		c0.2-0.3,0.3-0.5,0-0.8c-0.1-0.1-0.1-0.1-0.1-0.2c0.3-0.4,0-0.9,0-1.3c0-0.4-0.5-0.5-0.8-0.5c-0.2,0-0.4,0-0.6,0
		c0.7-0.2,1.4-0.1,2.1-0.2c0.9-0.1,1.8-0.1,2.7-0.1c0.3,0,0.5,0.2,0.8,0.2c0.1,0,0.1,0.2,0.1,0.3c-0.1,0.6,0.1,1.3-0.1,1.9
		c-0.1,0.4,0.3,0.2,0.5,0.3c0,0.4-0.1,0.8-0.7,0.9c0.3,0.2,0.4,0.5,0.3,0.8c0,0.1,0.1,0.1,0.1,0.1c0.1,0.1,0.1,0.2,0.1,0.2
		c-0.4,0.6,0,1.2,0.2,1.8c0,0.4-0.1,0.8-0.6,0.9c0.4,0.4,0.4,0.6,0.1,1c-0.1,0.2,0.1,0.3,0.2,0.4c0.1,0.2,0.2,0.4,0.1,0.7
		c-0.1,0.1-0.1,0.2-0.1,0.3c0.3,0.3,0.1,0.7,0.2,1.1c0.1,0.3-0.2,0.2-0.4,0.3c0.2,0.2,0.4,0.5,0.2,0.8c0.1-0.1,0.3-0.2,0.4-0.2
		c0,0.5-0.1,0.9-0.3,1.4c-0.1,0.3,0,0.5,0.1,0.8c0,0.2,0.2,0,0.3,0c0,0.6-0.1,0.8-0.7,0.9c0.3,0.2,0.4,0.4,0.3,0.7
		C113.1,95.7,113.2,95.5,113.3,95.6z"/>
	<path class="st32" d="M126.2,81.1c0-0.9,0-1.8,0-2.7c1.1-0.2,2.3-0.4,3.4-0.5c3.6-0.6,7.2-1.2,10.9-1.8c2.2-0.4,4.5-0.7,6.7-1
		c0.2,0,0.4-0.1,0.6,0c-0.4,0-0.4,0.4-0.5,0.7c0,0.7,0,1.3,0.1,2c0,0.2-0.2,0.2-0.4,0.2c-0.4,0.1-0.8,0.1-1.1,0.2
		c-5.1,0.8-10.2,1.8-15.4,2.6c-1.2,0.2-2.5,0.4-3.7,0.6C126.5,81.2,126.3,81.3,126.2,81.1z"/>
	<path class="st33" d="M107.2,104.6c-1.7,0-3.4,0.1-5.1,0.1c-0.5,0-1,0-1.5,0c0-0.9-0.1-1.8,0-2.7c0.2-0.2,0.5-0.2,0.7-0.2
		c1.3,0,2.7,0,4,0c0.2,0,0.3,0,0.5-0.1c1.3,0,2.5-0.2,3.8-0.1c0.3,0,0.5,0,0.8,0c0.3,0,0.4,0.2,0.4,0.5c-0.1,0.5,0,1,0,1.5
		c0,0.3,0.3,0.5,0.2,0.8c-0.1,0.1-0.3,0.2-0.5,0.2c-1,0-2,0.1-3.1,0.2C107.4,104.8,107.3,104.7,107.2,104.6z"/>
	<path class="st34" d="M105.9,102c-1.4,0.1-2.7,0.1-4.1,0.1c-0.4,0-0.8,0-1.2,0c-0.2-0.8,0-1.6-0.1-2.4c0-0.2,0.2-0.2,0.4-0.2
		c0.8,0,1.5,0,2.3,0c0.2,0,0.3,0,0.5-0.1c0.4-0.1,0.8,0,1.2-0.1c0.5,0.2,0.7,0.4,0.7,1C105.6,100.8,105.4,101.5,105.9,102z"/>
	<path class="st9" d="M105,99.3c-0.5,0-0.9,0-1.4,0c0,0-0.1,0-0.1,0c0.8-0.2,1.7,0,2.5-0.1C105.8,99.6,105.4,99.5,105,99.3z"/>
	<path class="st35" d="M105,99.3c0.4-0.1,0.7,0,1.1-0.1c0.4,0,0.8,0,1.2,0c0.5,0,1-0.1,1.6-0.1c1.4,0,2.8-0.1,4.2-0.3
		c0.5,0,1,0,1.5-0.1c-0.5,0.2-0.4,0.9-0.9,1.1c-0.1,0-0.1,0.1,0,0.2c0.2,0.3,0.1,0.5,0.1,0.8c-0.1,0.4,0.3,0.3,0.5,0.4
		c0.2,0.1,0.5-0.1,0.6,0.2c-0.5,0.3-1.1,0.2-1.7,0.2c-1.1,0.2-2.3,0.1-3.4,0.1c-1.3,0-2.6,0.2-3.8,0.1c-0.5-0.1-0.5-0.5-0.4-0.7
		c0.1-0.5-0.2-0.9,0-1.3c0-0.1-0.1-0.2-0.2-0.2C105.1,99.6,105,99.5,105,99.3z"/>
	<path class="st36" d="M104.6,95.1c0.1,0.4,0.5,0,0.6,0.2c0,0.1-0.2,0.1-0.2,0.2c-0.6,0.2,0,0.6-0.1,1c-0.4-0.4-0.8-0.5-1.2,0
		c0.2-0.5,0.4-0.9-0.3-1.2c0.6,0,0.9-0.2,0.9-0.8C104.5,94.7,104.5,94.9,104.6,95.1z"/>
	<path class="st37" d="M104.6,83.7c0.1,0.4,0.5,0.1,0.7,0.2c0,0.1,0,0.1-0.1,0.2c-0.3,0.2-0.4,0.4-0.2,0.7c0,0.1,0.1,0.2,0,0.3
		c-0.7-0.4-0.4-0.4-1.2,0.1c0.3-0.5,0.3-0.9-0.3-1.2c0.5-0.1,0.9,0,0.8-0.6c0-0.1,0.1-0.1,0.2,0C104.5,83.5,104.5,83.6,104.6,83.7z"
		/>
	<path class="st38" d="M102.8,83.3c-0.4-0.4-0.8-0.4-1.2,0c0.2-0.5,0.2-0.9-0.4-1.1c0.6,0.1,0.9-0.1,1-0.8c0.1,0.6,0.4,0.8,1,0.7
		C102.7,82.4,102.3,82.7,102.8,83.3z"/>
	<path class="st39" d="M104.6,87.5c0.1,0.4,0.5,0.1,0.7,0.3c-0.7,0.2-0.3,0.7-0.4,1.1c-0.3-0.5-0.7-0.4-1.1,0
		c0.2-0.5,0.2-0.9-0.4-1.1c0.6,0,0.9-0.1,0.8-0.7C104.6,87.1,104.4,87.4,104.6,87.5z"/>
	<path class="st39" d="M104.6,91.3c0.1,0.4,0.5,0.1,0.7,0.3c-0.5,0.2-0.6,0.6-0.3,1c-0.3,0.1-0.2-0.2-0.4-0.1
		c-0.2-0.1-0.2-0.1-0.8,0.2c0.1-0.6,0.1-0.6-0.3-1.1c0.5,0.1,0.9-0.1,0.8-0.7C104.6,90.9,104.5,91.2,104.6,91.3z"/>
	<path class="st40" d="M101.2,85.9c0.6,0.1,0.9-0.2,1-0.7c0.1,0.5,0.3,0.9,0.9,0.7c-0.6,0.3-0.6,0.7-0.3,1.2c-0.4-0.4-0.8-0.5-1.2,0
		C101.8,86.5,101.7,86.1,101.2,85.9z"/>
	<path class="st41" d="M102.8,98.5c-0.4-0.3-0.7-0.7-1.2-0.2c0.1-0.5,0.1-0.9-0.5-1.1c0.6,0.1,0.9-0.2,1-0.7
		c0.1,0.5,0.3,0.9,0.9,0.7C102.4,97.5,102.6,98,102.8,98.5z"/>
	<path class="st42" d="M102.1,88.9c0.1,0.6,0.4,0.8,0.9,0.7c-0.5,0.3-0.6,0.6-0.3,1.2c-0.4-0.4-0.8-0.5-1.2,0
		c0.2-0.5,0.2-0.9-0.4-1.2C101.8,89.8,102.1,89.5,102.1,88.9z"/>
	<path class="st43" d="M101.2,93.5c0.7-0.1,0.7-0.1,1-0.8c0.1,0.5,0.3,0.9,0.9,0.7c-0.5,0.3-0.6,0.7-0.3,1.2
		c-0.7-0.3-0.7-0.3-1.2-0.1C101.7,94.1,101.8,93.6,101.2,93.5z"/>
	<path class="st44" d="M107.2,90.7c-0.4-0.4-0.8-0.4-1.2,0c0.2-0.5,0.1-0.8-0.5-1.1c0.6,0,1-0.1,1-0.7c0.2,0.4,0.3,0.9,1,0.6
		C107.1,89.8,107,90.1,107.2,90.7z"/>
	<path class="st45" d="M108.8,86.9c0.1,0,0.1-0.1,0.2,0c0.1,0.5,0.4,0.6,0.9,0.6c-0.4,0.3-0.6,0.6-0.4,1.1c-0.1-0.1-0.2-0.1-0.4-0.2
		c-0.4-0.3-0.5,0.2-0.8,0.2c0.1-0.4,0.3-0.9-0.4-1C108.4,87.5,108.8,87.5,108.8,86.9z"/>
	<path class="st46" d="M108.8,83.2c0,0,0.1,0,0.1,0c0.1,0.5,0.3,0.7,0.9,0.5c-0.4,0.3-0.6,0.6-0.4,1c0.1,0.2-0.1,0.1-0.2,0.1
		c-0.4-0.5-0.7,0-1.1,0.1c0.4-0.5,0.2-0.8-0.4-1C108.4,83.8,108.8,83.7,108.8,83.2z"/>
	<path class="st47" d="M106.1,86.9c0.3-0.5,0.1-0.9-0.4-1.1c0.5,0,0.9-0.1,0.9-0.7c0.2,0.5,0.4,0.8,1,0.6c-0.5,0.3-0.7,0.6-0.3,1.2
		C106.8,86.5,106.5,86.5,106.1,86.9z"/>
	<path class="st48" d="M108.8,90.7c0.3-0.1,0.1,0.2,0.3,0.3c0.1,0,0.1,0.1,0.1,0.2c0.2,0.2,0.4,0,0.6,0.1c0,0.1-0.1,0.2-0.1,0.2
		c-0.3,0.2-0.4,0.4-0.2,0.7c0.1,0.1,0.1,0.3-0.2,0.2c-0.3-0.3-0.3-0.3-1,0.1c0.3-0.5,0.2-0.9-0.3-1.1
		C108.4,91.3,108.8,91.3,108.8,90.7z"/>
	<path class="st49" d="M105.7,82c0.4-0.1,0.9,0,0.8-0.6c0-0.1,0.2-0.1,0.2,0c0.1,0.5,0.4,0.6,0.8,0.4c-0.1,0.3-0.4,0.3-0.5,0.6
		c0,0.2,0.1,0.4,0.2,0.7c-0.6-0.3-0.6-0.3-1.2,0.1C106.2,82.7,106.2,82.3,105.7,82z"/>
	<path class="st50" d="M108.8,94.5c0.1,0,0.1-0.1,0.2,0.1c0.1,0.4,0.3,0.6,0.8,0.5c-0.4,0.3-0.6,0.7-0.2,1.2
		c-0.3-0.1-0.4-0.2-0.5-0.2c-0.4-0.5-0.5,0.2-0.9,0.1c0.3-0.5,0.2-0.8-0.4-1.1C108.4,95.1,108.8,95.1,108.8,94.5z"/>
	<path class="st51" d="M107.2,98.2c-0.4-0.4-0.8-0.3-1.2,0.2c0.2-0.6,0.3-1-0.3-1.2c0.5-0.1,1-0.1,0.9-0.8c0.2,0.5,0.4,0.8,1,0.6
		C107.2,97.3,106.9,97.6,107.2,98.2z"/>
	<path class="st47" d="M107.2,94.4c-0.4-0.4-0.8-0.3-1.2,0.1c0.2-0.5,0.2-0.9-0.4-1.1c0.5,0,0.9-0.2,0.9-0.7c0.2,0.5,0.4,0.8,1,0.6
		C107.2,93.6,106.9,93.9,107.2,94.4z"/>
	<path class="st52" d="M137.8,114.7c-0.6,0.2-1.1,0.1-1.7,0.2c-1.2,0.1-2.3,0.1-3.5,0.2c-0.1,0-0.1,0-0.2,0.2c0.7,0,1.5,0,2.2,0
		c-0.1,0-0.1,0.1-0.2,0.1c-2.1,0-4.1,0.3-6.2,0.2c-2.2-0.1-4.5,0.1-6.7,0.1c0-0.2,0.1-0.2,0.2-0.2c0.9,0,1.9,0.1,2.8-0.1
		c1.1-0.2,2.1,0,3.2-0.3c0.3-0.1,0.4-0.3,0.4-0.5c0.1-0.3,0.1-0.6-0.2-0.7c-0.2-0.1-0.3-0.2-0.6-0.1c-0.5,0.2-1,0.2-1.5,0.2
		c-0.2,0-0.4,0-0.6,0c0.8-0.1,1.6-0.3,2.4-0.4c1.8-0.3,3.6-0.6,5.5-0.8c1.2-0.2,2.4-0.4,3.6-0.5c0.4,0.1,0.8,0.1,1.3,0
		c0.3-0.1,0.7-0.1,1,0c0.1,0,0.2,0,0.2,0.1c0,0.1,0,0.1-0.1,0.2c-0.6,0.3-0.4,0.8-0.2,1.2c0.1,0.2,0,0.3-0.1,0.4
		C138.7,114.6,138,114.4,137.8,114.7z"/>
	<path class="st52" d="M134.6,115.3c0.5-0.2,1-0.1,1.5-0.1C135.5,115.4,135.1,115.3,134.6,115.3z"/>
	<path class="st53" d="M122.2,114.1c-0.6,0.2-1.3,0.2-2,0.3c-1.8,0.2-3.5,0.4-5.3,0.6c-0.3,0-0.6-0.1-0.9,0.1
		c-1.1,0.1-2.1,0.2-3.2,0.2c-0.4,0-0.3-0.3-0.4-0.5c0-0.3,0-0.5,0-0.8c0-0.1,0-0.2,0-0.3c-0.7-0.5,0.1-0.7,0.2-1.1
		c0.1-0.2,0.2-0.2,0.4-0.2c1.6-0.1,3.3-0.3,4.9-0.4c1.1-0.1,2.3-0.2,3.4-0.4c0.2,0,0.4,0,0.6,0c0.6-0.1,1,0.3,1.5,0.5
		c0.2,0.1,0.2,0.2,0,0.4c-0.1,0.1-0.3,0.2-0.3,0.3c-0.2,0.5,0,0.8,0.6,0.9C121.9,113.7,122.2,113.7,122.2,114.1z"/>
	<path class="st54" d="M119.3,111.7c-1.5,0.2-3.1,0.4-4.6,0.5c-1.4,0.1-2.8,0.2-4.1,0.4c-0.5,0-0.9,0-1.4,0c-0.7,0-1.3-0.1-2,0
		c-0.3,0-0.3-0.2-0.3-0.4c0-0.7,0-1.4,0-2.1c0,0,0,0,0.1-0.1c0.3-0.1,0.7,0,1-0.1c0.5,0,1-0.1,1.5-0.1c1.2,0,2.4-0.2,3.5-0.3
		c1.5-0.1,3-0.3,4.5-0.4c0.2,0,0.4,0,0.6,0.1c0.1,0.1,0.1,0.2,0,0.2c-0.1,0.1-0.3,0-0.5,0.1c0.3,0.3,0.4,0.5-0.1,0.7
		c-0.3,0.2-0.2,0.5-0.2,0.8c0,0.2,0.2,0.3,0.4,0.4c0.4,0.1,0.8,0.1,1.2,0.1C119.1,111.6,119.3,111.5,119.3,111.7z"/>
	<path class="st55" d="M153.3,94.6c0.1,1,0,1.9,0,2.9c-0.4-0.4-0.7-0.8-1.2-1c-0.1-0.1-0.2-0.3-0.2-0.5c0-0.5,0-1.1,0-1.6
		c0-0.3,0-0.5,0.4-0.6C153,93.9,153.2,94,153.3,94.6z"/>
	<path class="st56" d="M152.3,83c0.5,0.1,0.8,0.3,1,0.8c0.1,1,0,1.9,0,2.9c0,0,0,0,0,0c-0.3-0.5-0.8-0.8-1.2-1.1
		c-0.2-0.8-0.1-1.5-0.1-2.3C152,83.2,152.1,83,152.3,83z"/>
	<path class="st57" d="M153.3,102.9c-0.2-0.5-0.5-0.8-0.9-1c-0.2-0.1-0.4-0.1-0.4-0.4c0.1-0.7,0-1.3,0-2c0-0.1,0-0.3,0.1-0.4
		c0.5-0.2,1.1,0.2,1.2,0.8C153.4,101,153.4,102,153.3,102.9z"/>
	<path class="st58" d="M152.2,85.7c0.6,0.2,1,0.5,1.1,1.1c0,0.8,0,1.7,0,2.5c-0.3-0.1-0.4-0.5-0.8-0.6c-0.1,0-0.2-0.1-0.3-0.1
		c-0.1-0.1-0.4,0-0.4-0.3c0.3-0.7,0.1-1.5,0.1-2.3c0-0.1-0.1-0.2,0-0.3C152.1,85.6,152.1,85.6,152.2,85.7z"/>
	<path class="st59" d="M153.3,94.6c-0.2-0.4-0.4-0.7-0.8-0.7c-0.1-0.1-0.4,0.1-0.4-0.3c0-0.8-0.1-1.6,0.1-2.5
		c0.1-0.2,0.3-0.1,0.4-0.1c0.5,0.2,0.7,0.5,0.8,1C153.4,92.9,153.4,93.8,153.3,94.6z"/>
	<path class="st60" d="M153.3,100.1c-0.2-0.5-0.6-0.8-1.1-0.8c0,0-0.1-0.1-0.1-0.1c0-0.8,0.1-1.7-0.1-2.5c0.1-0.1,0.1-0.1,0.2,0
		c0.5,0.2,0.9,0.5,1.1,1C153.4,98.4,153.4,99.2,153.3,100.1z"/>
	<path class="st61" d="M153.3,92.1c-0.2-0.4-0.4-0.7-0.8-0.9c-0.1-0.1-0.2-0.2-0.2-0.4c0.1-0.6,0-1.2,0-1.9c0-0.2-0.1-0.4,0.2-0.4
		c0.4,0.1,0.5,0.4,0.7,0.7C153.3,90.2,153.3,91.1,153.3,92.1z"/>
	<path class="st62" d="M153.7,89.4L153.7,89.4L153.7,89.4c-0.1-0.7-0.1-1.3-0.1-2C153.7,88.1,153.8,88.8,153.7,89.4z"/>
	<path class="st33" d="M109.5,109.9c-0.5,0-1,0.1-1.6,0.1c-0.3,0.1-0.7,0-1,0.1c0,0,0,0,0,0c-1.9,0-3.8,0.1-5.7,0.1
		c-0.2,0-0.3,0-0.5,0c-0.2,0-0.3-0.1-0.3-0.3c0-0.8-0.1-1.6,0.1-2.5c2.3,0,4.5-0.1,6.8-0.1c0.1,0,0.1,0,0.2-0.1
		c0.1-0.1,0.3-0.2,0.4-0.2c1,0,2-0.2,2.9-0.1c0.6,0.1,0.6,0.1,0.4,0.6c-0.1,0.3,0,0.7,0,1.1c0,0.5-0.4,1.1-1,1.1
		C110.1,109.9,109.8,109.8,109.5,109.9z"/>
	<path class="st63" d="M111,107.2c-1.1,0-2.3,0.1-3.4,0.1c-0.5,0-0.6-0.2-0.6-0.6c0-0.5,0.1-0.9-0.1-1.4c-0.1-0.4,0.3-0.4,0.4-0.6
		c1.1-0.1,2.2-0.1,3.4-0.2c0.2,0,0.3,0,0.5-0.1c0.5-0.3,1-0.2,1.6-0.2c1.3-0.1,2.6-0.2,3.8-0.4c0.2,0,0.5-0.1,0.7,0
		c0.1,0.1,0.1,0.2,0.1,0.3c-0.3,0.6-0.1,1.3-0.2,1.9c0,0.3,0.2,0.4,0.5,0.3c0.3,0,0.6-0.1,0.7,0.2c-0.3,0.2-0.6,0.2-1,0.2
		c-1.8,0.2-3.6,0.3-5.4,0.5C111.7,107.3,111.3,107,111,107.2z"/>
	<path class="st64" d="M122.2,114.1c-0.1-0.3-0.3-0.3-0.6-0.3c-0.3,0-0.6,0.1-0.6-0.3c0-0.4-0.3-0.9,0.3-1.1c0,0,0.1,0,0.1-0.1
		c0,0,0-0.1,0.1-0.1c-0.6,0-0.9-0.6-1.5-0.4c0.1-0.2,0.3-0.2,0.4-0.2c2.4-0.3,4.8-0.6,7.2-1c0.5-0.1,1-0.1,1.5-0.2
		c3.7-0.6,7.4-1.2,11.1-1.9c2-0.3,4-0.7,6-1c0.2,0,0.4,0,0.6,0.1c0.2,0.2,0.1,0.4,0.2,0.6c0.1,0.5,0,1,0,1.5c0,0.2-0.1,0.3-0.2,0.5
		c-1.5,0.2-3.1,0.5-4.6,0.7c-1.5,0.2-2.9,0.5-4.4,0.7c-1.6,0.3-3.2,0.6-4.8,0.8c-1.7,0.3-3.4,0.6-5.2,0.8c-1.5,0.2-2.9,0.4-4.4,0.6
		C123,114,122.6,114,122.2,114.1z"/>
	<path class="st65" d="M146.7,110.2c0.2-0.9,0-1.8,0-2.6c0.1-0.2,0.3-0.2,0.4-0.2c0.4-0.1,0.9-0.1,1.3-0.2c0.2,0,0.4,0,0.6,0.1
		c-0.2,0.6-0.1,1.3-0.1,2c0,0.6,0,0.7-0.7,0.8C147.7,110.1,147.2,110.2,146.7,110.2z"/>
	<path class="st66" d="M149,107.3c-0.2,0-0.4,0-0.6,0c0,0,0,0,0,0c0.6-0.2,0.5-0.8,0.5-1.3c0-0.5,0-0.9,0-1.4
		c0.1-0.2,0.3-0.2,0.5-0.2c0.1,0,0.3,0,0.4,0c0.2,0,0.5,0,0.7,0.1c0.1,0.8,0,1.6,0.1,2.4c0,0.2-0.1,0.3-0.3,0.3c-0.2,0-0.3,0-0.5,0
		c-0.2,0.1-0.4,0-0.7,0.1C149.1,107.3,149.1,107.3,149,107.3z"/>
	<path class="st65" d="M149.2,107.3c0.2,0,0.4-0.1,0.6-0.1c0.2-0.1,0.5,0,0.7,0c0.1,0,0.1,0.1,0,0.1c-0.1,0-0.1,0-0.2,0
		C150,107.3,149.6,107.3,149.2,107.3z"/>
	<path class="st67" d="M145.8,77.9c0.5-0.1,1-0.2,1.5-0.3c0.2,0,0.4,0,0.6,0c0,0,0.1,0,0.1,0c0.9-0.1,0.9,0,0.9,0.8
		c0,0.4,0,0.8,0,1.2c0,0.3-0.1,0.5-0.3,0.6c-0.5,0.2-1,0.2-1.4,0.3c-0.3,0-0.6,0.2-1,0c0,0,0,0,0,0c0.5-0.6,0.1-1.4,0.3-2.1
		c0-0.2-0.1-0.3-0.2-0.3C146,78,145.9,78,145.8,77.9z"/>
	<path class="st68" d="M152.2,77.6c-0.2,0.2-0.1,0.4-0.1,0.5c0,0.7,0.1,1.4-0.1,2.2c-0.1,0.1-0.3,0-0.4,0c-0.5-0.1-0.9,0-1.4,0
		c-0.2,0-0.4,0-0.5-0.1c0-0.1,0-0.1,0.1-0.2c0.5-0.1,0.5-0.5,0.5-0.9c0-0.4,0-0.8,0-1.2c0-0.2,0-0.4,0.2-0.5c0.2,0,0.4,0,0.6,0
		c0.2,0,0.4,0,0.6,0C151.8,77.5,152,77.5,152.2,77.6z"/>
	<path class="st69" d="M150.5,77.4c-0.2,0.5-0.1,1.1-0.1,1.7c0,0.8,0,0.8-0.7,1c-0.4,0.3-0.8,0.4-1.3,0.1c0.2-0.1,0.3-0.3,0.3-0.5
		c0-0.5,0-1,0-1.5c0-0.4-0.1-0.6-0.5-0.5c-0.1,0-0.2,0-0.3,0C148.7,77.5,149.6,77.4,150.5,77.4z"/>
	<path class="st70" d="M150.6,107.2c-0.3,0-0.5,0-0.8,0c0.2-0.2,0.6,0.1,0.7-0.2c0.1-0.2,0-0.5,0-0.8c0-0.6-0.1-1.2,0.1-1.7
		c0.2-0.2,0.4-0.1,0.6-0.2c0.2,0,0.4,0,0.6,0.2c0.2,0.1,0.4,0,0.6,0.2c-0.3,0.1-0.2,0.3-0.2,0.4c0,0.7,0,1.5,0,2.2
		c-0.1,0-0.2,0-0.4,0C151.3,107.2,150.9,107.3,150.6,107.2z"/>
	<path class="st16" d="M150.6,107.2c0.4,0,0.8-0.1,1.2,0.1C151.3,107.3,150.9,107.3,150.6,107.2
		C150.6,107.2,150.6,107.2,150.6,107.2z"/>
	<path class="st20" d="M151.7,104.5c-0.2,0-0.4,0-0.6,0c-0.4-0.1-0.8,0-1.2,0c-0.1,0-0.3,0-0.4,0c0.2-0.7,0.1-1.4,0.1-2.1
		c0-0.6,0-0.6,0.7-0.6c0.4,0,0.9,0,1.3,0c0.2,0,0.5,0,0.6,0.2c0,0.7,0,1.3,0,2C152.2,104.3,152.1,104.5,151.7,104.5z"/>
	<path class="st70" d="M152.2,102c-0.2-0.1-0.4-0.1-0.6-0.1c-0.5-0.1-1.1,0-1.6-0.1c0.2-0.6,0.1-1.3,0.1-1.9c0-0.6,0-0.6-0.6-0.6
		c-0.2,0-0.4,0-0.5-0.2c0.1-0.3,0.4-0.2,0.6-0.2c0.4,0,0.8,0,1.2,0c0.4,0.1,0.9,0,1.3,0.2c0,0,0,0.1,0,0.1c0,0.7,0,1.5,0,2.2
		c0,0.3,0,0.4,0.2,0.5C152.3,101.9,152.3,102,152.2,102z"/>
	<path class="st71" d="M151.7,80.2c0.1,0,0.2,0.1,0.3,0.1c0.1,0,0.1,0,0.2,0c0,0.9,0,1.7,0,2.6c-0.3,0.2-0.6,0-0.9,0
		c-0.3-0.1-0.6,0-0.9-0.1c-0.4,0-0.5-0.2-0.6-0.5c0-0.6,0-1.2,0-1.8c0-0.2,0.1-0.4,0.4-0.4C150.8,80.2,151.3,80.1,151.7,80.2z"/>
	<path class="st70" d="M151.4,82.8c0.3,0,0.5,0.2,0.8,0.1c0,0,0.1,0.1,0.1,0.1c-0.1,0.1-0.2,0.2-0.2,0.2c0,0.8-0.1,1.6,0,2.4
		c-0.1,0-0.1,0-0.2,0c-0.7,0.1-1.4,0-2.1,0c-0.1,0-0.2,0-0.2-0.1c0-0.2,0.1-0.2,0.3-0.2c0.3,0,0.4-0.3,0.4-0.5c0-0.5,0-1-0.1-1.4
		c0-0.2-0.1-0.4,0-0.6C150.7,82.8,151,82.8,151.4,82.8z"/>
	<path class="st72" d="M122.4,97.9c1.1-0.2,2.2-0.3,3.4-0.5c0.1,0,0.2-0.1,0.3-0.1c0.2-0.2,0.5-0.2,0.7-0.2
		c5.3-0.8,10.6-1.8,15.9-2.7c1.2-0.2,2.4-0.4,3.5-0.5c0.2,0,0.4,0,0.5,0c0.2,0.1,0.3,0.2,0.3,0.4c0,0.8,0.1,1.5,0,2.3
		c-0.1,0.2-0.2,0.2-0.4,0.3c-2.2,0.3-4.5,0.7-6.7,1.1c-5.1,0.9-10.2,1.8-15.3,2.5c-0.2,0-0.4,0-0.5,0c-0.5-0.3-1,0.1-1.5-0.1
		c-0.3-0.1-0.5-0.2-0.4-0.6c0.1-0.5-0.1-1,0-1.5C122.2,98.1,122.2,97.9,122.4,97.9z"/>
	<path class="st64" d="M146.1,80.5c0.3,0,0.6,0,1-0.1c0.4,0,0.6,0.3,0.5,0.6c-0.1,0.5,0,1,0,1.4c0,0.3,0.3,0.3,0.4,0.5
		c-0.3,0.4-0.7,0.2-1,0.3c-0.2,0.1-0.4,0-0.6,0.1c-5,0.7-9.9,1.7-14.9,2.5c-1.6,0.3-3.2,0.5-4.7,0.7c-0.2,0-0.4,0.1-0.6-0.1
		c-0.1-0.9-0.1-1.8,0-2.7c0.1-0.2,0.3-0.2,0.5-0.2c5.4-0.8,10.8-1.8,16.1-2.7c0.9-0.1,1.8-0.3,2.7-0.4
		C145.7,80.5,145.9,80.4,146.1,80.5z"/>
	<path class="st73" d="M126.1,94.7c0-0.9-0.1-1.8,0-2.8c0.1-0.2,0.2-0.2,0.4-0.2c5.7-0.9,11.4-1.9,17.1-2.9c0.8-0.1,1.7-0.3,2.5-0.3
		c1,0,1,0,1,1.1c0,0.3,0,0.5,0,0.8c0,0.7,0,0.8-0.7,1c-1.1,0.3-2.3,0.4-3.4,0.6c-2.5,0.4-5,0.9-7.5,1.3c-3,0.5-6,1-8.9,1.4
		C126.5,94.7,126.3,94.8,126.1,94.7z"/>
	<path class="st64" d="M146.2,88.7c-1.6,0.2-3.2,0.5-4.7,0.7c-3.9,0.7-7.8,1.3-11.8,2c-1.2,0.2-2.4,0.4-3.5,0.5
		c-0.1-0.9-0.1-1.8,0-2.7c0.1-0.2,0.3-0.2,0.5-0.2c5.7-0.8,11.4-1.9,17.1-2.8c0.9-0.1,1.8-0.3,2.7-0.4c0.1,0,0.2,0,0.3,0
		c0.5,0.1,0.6,0.3,0.6,0.8c0,0.3,0,0.6,0,1c0,0.3,0.1,0.6,0.3,0.9c-0.1,0.3-0.3,0.2-0.5,0.2C146.9,88.6,146.5,88.6,146.2,88.7z"/>
	<path class="st73" d="M146.5,85.9c-1.5,0.2-3,0.5-4.6,0.8c-3.1,0.5-6.2,1.1-9.2,1.6c-2.2,0.4-4.4,0.7-6.5,1c0-0.9-0.1-1.8,0-2.7
		c5.1-0.8,10.2-1.7,15.3-2.5c1.6-0.3,3.3-0.6,4.9-0.7c0.3-0.1,0.4,0,0.4,0.3c0,0.7,0.1,1.3,0,2C146.8,85.6,146.6,85.8,146.5,85.9z"
		/>
	<path class="st32" d="M126.1,94.7c2.4-0.4,4.8-0.7,7.1-1.1c3.1-0.5,6.2-1.1,9.3-1.6c1.3-0.2,2.6-0.4,4-0.6c0.2-0.1,0.3-0.1,0.5,0
		c-0.1,0.9,0,1.7-0.1,2.6c0,0.1,0,0.1-0.1,0.1c-2,0.2-4,0.6-6,0.9c-4.3,0.8-8.7,1.5-13,2.2c-0.5,0.1-1.1,0.1-1.6,0.2
		C126.1,96.4,126.1,95.5,126.1,94.7z"/>
	<path class="st72" d="M146.1,80.5c-1.7,0.3-3.5,0.6-5.2,0.9c-3.7,0.6-7.4,1.3-11.2,1.9c-1.2,0.2-2.4,0.4-3.6,0.6
		c-0.1-0.9-0.1-1.8,0-2.7c2.3-0.4,4.7-0.7,7-1.1c3.7-0.6,7.5-1.3,11.2-1.9c0.5-0.1,0.9-0.2,1.4-0.2c0.7,0,0.7,0.1,0.7,0.7
		c0,0.4-0.1,0.9,0,1.3C146.6,80.3,146.3,80.4,146.1,80.5z"/>
	<path class="st74" d="M122.4,97.9c-0.2,0.3-0.2,0.7-0.1,1c0,0.3,0.1,0.7,0,1c-0.1,0.3,0,0.3,0.3,0.3c0.3,0,0.6,0.2,0.9-0.1
		c0.2-0.2,0.4,0.2,0.7,0.2c-0.1,0.2-0.3,0.2-0.4,0.2c-0.6,0.1-1.2,0.1-1.8,0.3c-1.5,0.3-3,0.3-4.5,0.5c-0.5,0.1-1,0.1-1.5,0.2
		c-0.3,0-0.7,0.1-1-0.1c-0.4-0.1-0.8,0.1-1.2-0.2c-0.2-0.1-0.3-0.2-0.1-0.4c0.2-0.3,0.2-0.5-0.1-0.7c-0.2-0.2-0.1-0.4,0.1-0.4
		c0.3,0,0.4-0.2,0.3-0.4c-0.1-0.5,0.4-0.3,0.6-0.4c1.5-0.2,3-0.2,4.5-0.5c1,0,1.9-0.2,2.9-0.3C122.1,97.9,122.3,97.9,122.4,97.9z"/>
	<path class="st75" d="M118.3,95.4c-0.4-0.4-0.7-0.1-1,0.2c-0.1-0.1-0.1-0.2-0.1-0.3c0.1-0.3,0.2-0.5-0.2-0.6
		c-0.1,0-0.1-0.1-0.2-0.2c0.1-0.1,0.1-0.2,0.2-0.1c0.5,0.1,0.6-0.3,0.8-0.8c0.1,0.7,0.4,0.8,0.9,0.6c0.1,0.1,0,0.1,0,0.2
		c-0.3,0.2-0.5,0.5-0.3,0.9C118.6,95.4,118.4,95.4,118.3,95.4z"/>
	<path class="st76" d="M118.4,91.7c-0.4-0.3-0.8-0.4-1.1,0.1c-0.1-0.1-0.1-0.2,0-0.3c0.2-0.2,0.2-0.5-0.1-0.6
		c-0.1,0-0.2-0.1-0.2-0.2c0-0.1,0.1-0.1,0.2-0.1c0.3,0,0.5-0.1,0.5-0.4c0-0.1,0.2-0.2,0.2-0.1c0.1,0.6,0.5,0.5,0.9,0.4
		c-0.1,0.1-0.1,0.2-0.2,0.2c-0.3,0.2-0.5,0.4-0.2,0.8C118.5,91.5,118.5,91.6,118.4,91.7z"/>
	<path class="st77" d="M118.5,87.9c-0.1,0-0.1,0-0.2,0c-0.3-0.3-0.6-0.2-0.9,0.1c0,0-0.1,0.1-0.2,0c0.3-0.4,0.4-0.8-0.3-1
		c0.6,0.1,0.9-0.3,1-0.8c0.1,0.7,0.5,0.7,1,0.5c0,0,0,0,0,0C118.4,87,118.2,87.4,118.5,87.9z"/>
	<path class="st76" d="M119.6,80.9c0.5,0,0.2-0.5,0.5-0.7c0.1,0.5,0.4,0.7,0.9,0.5c-0.4,0.3-0.7,0.6-0.3,1.2c-0.2,0-0.2,0-0.2,0
		c-0.3-0.3-0.6-0.2-0.8,0.1c0,0.1-0.1,0.1-0.2,0c0-0.3,0-0.6-0.3-0.9c0-0.1,0-0.1,0-0.2C119.4,80.8,119.5,80.9,119.6,80.9z"/>
	<path class="st78" d="M124.6,87.1c0.1,0.5,0.4,0.7,1,0.6c-0.4,0.3-0.6,0.7-0.3,1.2c-0.7-0.2-0.7-0.2-1.3,0.2
		c0.2-0.5,0.3-0.9-0.3-1.1C124.2,87.9,124.6,87.8,124.6,87.1z"/>
	<path class="st79" d="M119.3,84.9c0-0.1,0-0.2,0-0.2c0.6,0.1,0.8-0.3,0.8-0.8c0.1,0.6,0.4,0.8,1,0.6c-0.5,0.3-0.7,0.7-0.4,1.2
		c-0.4-0.4-0.8-0.3-1.1,0.1c-0.1,0.1-0.1,0-0.1,0C119.6,85.4,119.5,85.1,119.3,84.9z"/>
	<path class="st80" d="M124.6,94.6c0.2,0.6,0.3,0.9,1,0.7c-0.4,0.4-0.6,0.7-0.3,1.2c-0.6-0.2-0.6-0.2-1.3,0.2
		c0.1-0.4,0.3-0.9-0.3-1.1C124.3,95.6,124.5,95.2,124.6,94.6z"/>
	<path class="st78" d="M124,92.8c0.2-0.5,0.2-0.8-0.4-1.1c0.6,0,0.8-0.3,0.9-0.8c0.1,0.5,0.3,0.8,0.9,0.6c-0.4,0.3-0.6,0.7-0.3,1.2
		C124.7,92.2,124.4,92.5,124,92.8z"/>
	<path class="st81" d="M121.3,86.4c0.7,0.1,0.9-0.3,1-0.8c0.1,0.6,0.4,0.7,0.9,0.6c-0.4,0.3-0.7,0.6-0.3,1.2
		c-0.5-0.5-0.9-0.2-1.2,0.1C122,87,122.1,86.5,121.3,86.4z"/>
	<path class="st76" d="M119.2,96.1c0.6,0.1,0.8-0.3,0.9-0.8c0.1,0.5,0.4,0.8,1,0.6c-0.4,0.3-0.7,0.7-0.3,1.2
		c-0.5-0.5-0.8-0.2-1.2,0.1C119.8,96.7,119.7,96.3,119.2,96.1z"/>
	<path class="st82" d="M123,91.1c-0.5-0.4-0.8-0.2-1.1,0.2c-0.1-0.3,0.1-0.5,0.1-0.7c0-0.2-0.4-0.2-0.5-0.5c0.5,0,0.9-0.1,0.9-0.8
		c0.2,0.5,0.4,0.8,1,0.6C122.9,90.2,122.7,90.5,123,91.1z"/>
	<path class="st78" d="M123,83.5c-0.5-0.4-0.8-0.3-1.2,0.2c0.2-0.5,0.3-0.9-0.4-1.1c0.6,0,0.9-0.2,1-0.8c0.1,0.5,0.4,0.8,0.9,0.6
		C122.9,82.7,122.7,83,123,83.5z"/>
	<path class="st83" d="M123,95c-0.5-0.6-0.8-0.2-1.2,0.1c0.2-0.5,0.3-0.9-0.4-1.1c0.6,0,0.9-0.2,1-0.9c0.1,0.6,0.4,0.7,1,0.6
		c-0.2,0.2-0.4,0.4-0.5,0.6C122.8,94.4,122.9,94.6,123,95z"/>
	<path class="st83" d="M123.6,84.3c0.7-0.2,0.7-0.2,1-0.9c0.1,0.6,0.4,0.7,0.9,0.6c-0.4,0.3-0.6,0.7-0.3,1.2
		c-0.5-0.4-0.8-0.3-1.2,0.2C124.1,84.9,124.4,84.4,123.6,84.3z"/>
	<path class="st84" d="M121,88.3c-0.4,0.3-0.6,0.7-0.3,1.2c-0.5-0.4-0.8-0.3-1.2,0.1c0-0.2,0.1-0.4,0.1-0.6c0-0.2-0.3-0.2-0.5-0.5
		c0.6,0.1,0.9-0.2,0.9-0.8c0.3,0.2,0.2,0.5,0.4,0.6C120.6,88.4,120.8,88.3,121,88.3z"/>
	<path class="st77" d="M118.5,84.1c-0.4-0.3-0.8-0.4-1.2,0.1c0.1-0.5,0.2-0.9-0.4-1.1c0.5-0.1,0.9-0.1,0.9-0.6
		c0.3,0,0.2,0.5,0.5,0.4c0.1,0,0.3,0,0.4-0.1c0.4-0.1,0.2,0.1,0.1,0.2c-0.1,0.2-0.3,0.4-0.4,0.6C118.4,83.8,118.5,84,118.5,84.1z"/>
	<path class="st85" d="M120.1,91.5c0.1,0.6,0.4,0.7,0.9,0.5c-0.3,0.3-0.7,0.6-0.3,1.1c-0.3,0-0.5-0.3-0.7-0.2
		c-0.2,0.1-0.3,0.2-0.6,0.5c0.2-0.5,0.3-0.9-0.3-1.2C119.7,92.3,120.1,92.1,120.1,91.5z"/>
	<path class="st86" d="M125.2,81.4c-0.5-0.4-0.8-0.3-1.2,0.1c0.1-0.5,0.2-0.9-0.4-1.1c0.5-0.1,0.9-0.2,0.9-0.8
		c0.1,0.5,0.4,0.7,1,0.6C125.1,80.5,124.9,80.8,125.2,81.4z"/>
	<path class="st30" d="M118.4,83.7c-0.2-0.3,0.1-0.4,0.2-0.6c0-0.1,0.4-0.1,0.1-0.3c0.1-0.2,0.2-0.2,0.4-0.2c0.1,0,0.2,0.2,0.2,0.3
		c0,0.2-0.1,0.3-0.2,0.3C118.7,83.3,118.6,83.6,118.4,83.7z"/>
	<path class="st30" d="M119.3,84.9c0.6,0.1,0.4,0.5,0.3,0.9c-0.1-0.5-0.4-0.5-0.8-0.6C118.9,85.1,119.1,85,119.3,84.9z"/>
	<path class="st30" d="M119.2,81.1c0.5,0.1,0.5,0.5,0.3,0.9C119.3,81.7,119,81.5,119.2,81.1z"/>
	<path class="st30" d="M119.6,80.9c-0.1,0-0.2,0-0.4,0c-0.1,0-0.3,0-0.3-0.2c0,0,0-0.1,0.1-0.1c0.1-0.1,0.2,0,0.3,0.1
		C119.4,80.8,119.5,80.8,119.6,80.9z"/>
	<path class="st87" d="M113,84.5c-0.1,0-0.2,0.1-0.3,0.2c0.1-0.4,0.2-0.9-0.4-1.1c0.6,0,0.9-0.4,1-0.9c0,0,0.1,0.1,0.1,0.1
		c0.2,0.5,0.2,0.5,0.9,0.5c-0.5,0.3-0.7,0.7-0.3,1.2C113.7,84.4,113.4,84,113,84.5z"/>
	<path class="st88" d="M115.1,97.7c0-0.8,0-0.8-0.5-1.1c0.6,0.1,0.9-0.2,0.9-0.8c0.2,0.5,0.4,0.9,1.1,0.6c-0.6,0.3-0.7,0.7-0.4,1.2
		C115.8,97.4,115.5,97,115.1,97.7z"/>
	<path class="st89" d="M112.8,88.4c0.3-0.7,0.3-0.7-0.5-1.1c0.8,0.1,0.9-0.3,1.1-0.7c0,0,0.1,0.1,0.1,0.1c0.1,0.4,0.3,0.6,0.9,0.5
		c-0.4,0.3-0.7,0.7-0.3,1.1c-0.1,0.1-0.2,0-0.3,0c-0.3,0-0.5,0.1-0.8,0.2C112.9,88.4,112.8,88.4,112.8,88.4z"/>
	<path class="st90" d="M115.6,92c0.3,0.6,0.3,0.6,1.1,0.5c-0.6,0.3-0.8,0.7-0.5,1.3c-0.4-0.5-0.8-0.3-1.3,0c0.1-0.4,0-0.6-0.2-1.1
		C115.3,92.6,115.3,92.6,115.6,92z"/>
	<path class="st91" d="M113.3,95.6c-0.1,0.1-0.3,0.2-0.4,0.3c0.2-0.5,0.1-0.9-0.5-1.1c0.7,0.1,0.9-0.3,1-0.8
		c0.1,0.2,0.2,0.3,0.3,0.5c0.1,0.3,0.4,0,0.6,0.2c-0.4,0.3-0.6,0.6-0.2,1.1C113.7,95.9,113.6,95.4,113.3,95.6z"/>
	<path class="st92" d="M113.3,91.8c-0.2,0.1-0.3,0.2-0.5,0.3c0.2-0.5,0.1-0.8-0.4-1c0.2-0.3,0.6,0,0.7-0.3c0.1-0.2,0.1-0.3,0.2-0.6
		c0.1,0.5,0.3,0.9,0.9,0.6c-0.3,0.4-0.7,0.6-0.3,1.1C113.7,92.3,113.6,91.7,113.3,91.8z"/>
	<path class="st93" d="M115.6,84.4c0.1,0.5,0.4,0.8,1,0.6c-0.3,0.4-0.8,0.6-0.3,1.2c-0.5-0.4-0.8-0.3-1.2,0.1
		c0.1-0.5,0.2-0.9-0.4-1.1C115.3,85.2,115.6,85,115.6,84.4z"/>
	<path class="st94" d="M114.6,89c0.7,0,0.9-0.3,1-0.9c0.2,0.6,0.4,1,1,0.7c-0.5,0.3-0.7,0.7-0.4,1.2c-0.4-0.3-0.8-0.4-1.1,0.1
		C115.1,89.6,115.4,89.1,114.6,89z"/>
	<path class="st95" d="M115.1,82.5c0.2-0.5,0.2-0.9-0.4-1.1c0.6,0,0.9-0.2,1-0.8c0.1,0.6,0.4,0.8,1,0.6c-0.4,0.3-0.7,0.6-0.3,1.2
		C115.8,82,115.4,82.2,115.1,82.5z"/>
	<path class="st31" d="M112.9,88.4c0.2-0.3,0.5-0.3,0.8-0.2c-0.1,0.1-0.3,0.2-0.4,0.3C113.1,88.6,113,88.6,112.9,88.4z"/>
	<path class="st96" d="M111.7,90.4c-0.5-0.5-0.8-0.3-1.2,0.1c0.1-0.5,0.3-0.9-0.4-1.1c0.6,0,0.9-0.2,1-0.8c0.1,0.5,0.3,0.8,0.9,0.7
		C111.6,89.5,111.5,89.9,111.7,90.4z"/>
	<path class="st97" d="M111.8,98c-0.5-0.5-0.9-0.3-1.2,0.1c0.2-0.5,0.3-0.9-0.4-1.1c0.6,0,0.9-0.2,1-0.8c0.1,0.5,0.3,0.8,0.9,0.6
		C111.7,97.1,111.3,97.4,111.8,98z"/>
	<path class="st98" d="M112.1,85.6c-0.5,0.3-0.5,0.3-0.4,1.1c-0.4-0.6-0.8-0.3-1.2,0c0.2-0.5,0.3-0.9-0.4-1.1c0.5,0,1-0.2,1-0.8
		c0.1,0.2,0.2,0.4,0.2,0.5c0.2,0.1,0.3,0,0.5,0C112,85.4,112.1,85.4,112.1,85.6z"/>
	<path class="st99" d="M112.1,93c-0.4,0.3-0.7,0.6-0.4,1.1c-0.5-0.5-0.8-0.3-1.2,0.1c0.2-0.5,0.2-0.9-0.4-1.1c0.6,0,0.9-0.2,0.9-0.9
		C111.4,93,111.4,93,112.1,93z"/>
	<path class="st100" d="M111.7,82.9c-0.5-0.5-0.8-0.2-1.2,0.2c0.3-0.6,0.4-1-0.3-1.2c0.6,0.1,0.9-0.3,1-0.8c0,0.6,0.4,0.8,0.9,0.7
		C111.5,82,111.5,82.4,111.7,82.9z"/>
	<path class="st30" d="M112.1,85.6c-0.2-0.3-0.5,0-0.7-0.2c0.3,0,0.7,0,1,0C112.3,85.5,112.2,85.5,112.1,85.6z"/>
	<path class="st9" d="M109.2,91.2c-0.1,0-0.1-0.1-0.1-0.2c0.2-0.2,0.3,0,0.3,0.1C109.4,91.2,109.3,91.2,109.2,91.2z"/>
	<path class="st53" d="M114.8,101.4c1.3,0,2.6-0.3,3.8-0.3c1.1-0.1,2.1-0.2,3.2-0.4c0.2,0,0.2,0.1,0.2,0.2c0,0.6,0.3,1.3,0,1.9
		c-0.1,0.2,0.1,0.3,0.1,0.5c-0.1,0.1-0.2,0.1-0.3,0.1c-0.2,0-0.3,0-0.5-0.1c-0.2-0.1-0.4,0-0.5,0.1c-1.1,0.2-2.3,0.5-3.4,0.4
		c-1.7,0.1-3.4,0.3-5,0.4c-0.4,0-0.8,0-1.2,0c-0.2-0.1-0.3-0.3-0.3-0.6c0-0.6-0.1-1.1,0-1.7c0-0.1-0.1-0.2-0.2-0.2
		c-0.3,0-0.5,0-0.8,0c0.7-0.1,1.4-0.1,2.1-0.2C112.8,101.6,113.8,101.5,114.8,101.4z"/>
	<path class="st74" d="M113.6,99.1c0,0.1-0.1,0.2-0.2,0.2c-0.1,0-0.2-0.1-0.3-0.2c0-0.1,0.1-0.2,0.2-0.2
		C113.5,98.9,113.6,99,113.6,99.1z"/>
	<path class="st101" d="M129.1,110.4c-1.6,0.3-3.2,0.5-4.9,0.8c-1.4,0.2-2.7,0.3-4.1,0.5c-0.1,0-0.1,0-0.2,0.1c-0.2,0-0.4,0-0.6,0
		c-0.1-0.1-0.1-0.1-0.2-0.1c-0.3,0.1-0.6,0.1-0.9,0.1c-0.9,0-1.3-0.5-1.1-1.4c0-0.2,0.2-0.2,0.3-0.2c0.1,0,0.2,0,0.2-0.2
		c0-0.1-0.1-0.2-0.2-0.2c-0.1,0-0.3-0.1-0.2-0.2c0-0.2,0.2-0.1,0.3-0.2c0.2,0,0.4,0.1,0.6-0.1c0.3-0.3,0.7-0.3,1-0.3
		c1-0.1,2-0.2,2.9-0.4c1.8-0.2,3.6-0.5,5.4-0.7c0.2,0,0.4-0.1,0.7,0c0.1,0.3-0.1,0.3-0.2,0.3c-0.2,0.1-0.4,0.2-0.4,0.6
		c0,0.3-0.2,0.3-0.4,0.3c-0.3,0-0.6-0.1-0.8-0.2c-0.1,0-0.2-0.1-0.4,0c-0.1,0.1-0.2,1-0.1,1.2c0.2,0.3,0.4,0.2,0.7,0.2
		c0.8,0,1.5,0.1,2.3,0.1C128.9,110.3,129,110.3,129.1,110.4z"/>
	<path class="st102" d="M122.2,108.6c-0.7,0.2-1.4,0.2-2.1,0.3c-0.6,0.1-1.2,0.1-1.8,0.3c-1,0-1.9,0.2-2.9,0.2
		c-1.9,0.2-3.9,0.4-5.8,0.4c0.1-0.1,0.2-0.1,0.4-0.1c0.6,0.2,1-0.3,1.4-0.6c0.1-0.1,0.1-0.2,0.1-0.3c-0.1-0.6-0.2-1.2,0.2-1.8
		c-0.2,0-0.3,0-0.5,0c0.9-0.2,1.9-0.2,2.8-0.3c1.5-0.1,2.9-0.3,4.4-0.4c0.1,0,0.2,0,0.2-0.1c0.1-0.2,0.3-0.1,0.5-0.2
		c0.9-0.1,1.8-0.2,2.7-0.3c0.7,0,0.9,0.3,0.9,1.1c0,0.3-0.1,0.7,0,1C122.5,108.4,122.3,108.5,122.2,108.6z"/>
	<path class="st14" d="M106.9,110.1c0.3-0.1,0.6-0.1,1-0.1C107.6,110.2,107.3,110.1,106.9,110.1z"/>
	<path class="st68" d="M152.3,96.5c-0.1,0-0.1,0-0.2,0c-0.3,0.1-0.6,0-0.9,0c-0.2-0.1-0.5,0-0.6-0.2c-0.2-0.5-0.1-1-0.1-1.5
		c0-0.8,0-0.8-0.8-0.9c-0.1,0-0.2,0-0.2-0.1c-0.1-0.1,0-0.2,0.1-0.2c0.7-0.1,1.5-0.1,2.2,0c0.1,0,0.2,0.1,0.3,0.2
		c0.1,0.1,0.3,0.1,0.4,0.2c-0.3,0-0.4,0.1-0.4,0.4c0,0.6,0,1.2,0,1.8C152.1,96.3,152.2,96.4,152.3,96.5z"/>
	<path class="st103" d="M151.9,88.3c0.2,0.1,0.4,0,0.5,0.2c-0.2,0.2-0.3,0.5-0.3,0.8c0,0.4,0,0.8,0,1.2c0,0.2,0,0.5-0.2,0.6
		c-0.7,0.2-1.4,0.1-2.1,0.1c-0.2,0-0.5,0-0.7-0.1c-0.1-0.3,0.2-0.2,0.4-0.3c0.3,0,0.3-0.1,0.3-0.4c0-0.7-0.1-1.4,0.1-2.1
		c0-0.1,0.1-0.1,0.1-0.1C150.7,88,151.3,88,151.9,88.3z"/>
	<path class="st104" d="M151.9,88.3c-0.6,0-1.3-0.1-1.9-0.1c-0.1-0.4,0-0.8,0-1.1c0-0.5,0-1-0.1-1.5c0.7,0,1.4-0.1,2.1,0.1
		c0.1,0.1,0.2,0.1,0.2,0.2c0,0.8,0,1.5,0,2.3C152.2,88.3,152,88.3,151.9,88.3z"/>
	<path class="st105" d="M151.9,91c0.2-0.7,0.1-1.4,0.1-2.1c0-0.3,0.1-0.4,0.4-0.4c0.1,0,0.2,0,0.2,0.1c-0.3,0.2-0.1,0.5-0.1,0.8
		c0,0.5,0.1,1.1-0.1,1.6c0,0.1,0.1,0.2,0.1,0.3c-0.1,0-0.3-0.1-0.4-0.1C152.1,91.2,152,91.2,151.9,91z"/>
	<path class="st71" d="M151.9,91c0.1,0.1,0.2,0,0.3,0.1c0,0.7,0,1.4,0,2.1c0,0.2,0.1,0.4-0.1,0.5c-0.8-0.1-1.7-0.1-2.5-0.1
		c0.1-0.7,0-1.4,0-2.1c0-0.2,0-0.4,0.1-0.5C150.5,90.9,151.2,90.9,151.9,91z"/>
	<path class="st18" d="M151.3,96.4c0.3,0,0.6,0,0.8,0.1c0.1,0.1,0.2,0.1,0.2,0.2c0,0.8,0.1,1.6-0.1,2.4c-0.4,0-0.8,0-1.3-0.1
		c-0.2-0.1-0.4-0.1-0.7,0c-0.4,0-0.5-0.2-0.5-0.5c0-0.7,0-1.3,0-2c0-0.1,0-0.1,0.1-0.1C150.3,96.2,150.8,96.4,151.3,96.4z"/>
	<path class="st101" d="M121.7,106.1c-1.1,0.1-2.2,0.2-3.2,0.3c-0.3,0-0.6-0.1-0.9,0c-0.3,0.1-0.6-0.3-0.5-0.6
		c0.1-0.4,0.1-0.9,0-1.3c-0.1-0.3,0.3-0.4,0.4-0.6c1-0.1,2-0.2,3-0.4c0.2,0,0.3,0,0.5-0.1c0.3-0.3,0.6,0.1,0.9-0.1
		c0.1,0,0.2,0,0.4,0c0.1-0.1,0.3-0.2,0.5-0.2c1.6-0.2,3.1-0.4,4.7-0.7c0.2,0,0.4,0,0.6,0c0.2,0.2,0.1,0.3-0.1,0.3
		c-0.5,0.2-0.9,0.4-1.4,0.4c-0.2,0-0.3,0.1-0.4,0.3c-0.1,0.4,0,0.8-0.1,1.3c0,0.1,0.1,0.2,0.2,0.2c0.2,0,0.4,0.1,0.6,0
		c0.6-0.2,1.1,0.1,1.7,0c0.1,0,0.2,0,0.2,0.2c-0.1,0.2-0.4,0.2-0.6,0.2c-1.7,0.3-3.4,0.5-5.1,0.7C122.5,106.1,122.1,106,121.7,106.1
		z"/>
	<path class="st73" d="M129.1,110.4c-0.9,0.1-1.8-0.2-2.7,0c-0.4,0.1-0.6-0.1-0.6-0.6c0-0.3,0-0.6,0.1-1c0.1-0.3,0.2-0.4,0.5-0.2
		c0.3,0.2,0.6,0.2,0.9,0.3c0.2,0,0.5,0,0.3-0.3c-0.2-0.2-0.1-0.3,0.1-0.4c0.2-0.1,0.4-0.2,0.7-0.4c0.1-0.3,0.4-0.2,0.7-0.3
		c2.8-0.4,5.5-0.9,8.3-1.4c2.6-0.4,5.2-0.9,7.8-1.3c0.3,0,0.5-0.1,0.8-0.1c0.1,0,0.3,0,0.4,0c0.4,0,0.5,0.2,0.5,0.5c0,0.5,0,1,0,1.5
		c0,0.5-0.2,0.6-0.7,0.7c-1.7,0.3-3.5,0.6-5.2,0.9c-3.7,0.6-7.4,1.3-11.2,1.9C129.5,110.4,129.3,110.4,129.1,110.4z"/>
	<path class="st106" d="M146.1,107.6c0.5-0.1,0.6-0.4,0.6-0.9c0-0.4,0-0.7,0-1.1c0-0.5-0.1-0.7-0.6-0.6c-0.1,0-0.2,0-0.3,0
		c0.1-0.2,0.3-0.2,0.4-0.2c0.4-0.1,0.7-0.1,1.1-0.2c0.4,0,0.8-0.1,1.2-0.1c0.2,0,0.4,0,0.5,0.1c0.2,0.7,0.1,1.5,0.1,2.3
		c0,0.5-0.5,0.3-0.7,0.5c-0.6,0.1-1.2,0.1-1.7,0.3C146.5,107.6,146.3,107.6,146.1,107.6z"/>
	<path class="st107" d="M149,104.5c-0.6,0-1.2,0.1-1.7,0.1c-0.6,0.1-0.6,0.1-0.6-0.5c0-0.4,0-0.8,0-1.1c0-0.3-0.2-0.6-0.3-0.9
		c0.7-0.3,1.5-0.4,2.2-0.4c0.4,0.1,0.8-0.2,1.3,0c0.5,0.1,1.1-0.1,1.6,0.1c-0.5,0-1,0-1.4,0c-0.3,0-0.4,0-0.4,0.4c0,0.6,0,1.2,0,1.7
		c0,0.2-0.1,0.4-0.3,0.5C149.3,104.5,149.2,104.5,149,104.5z"/>
	<path class="st107" d="M149.9,104.4c0.4-0.1,0.8-0.1,1.2,0c-0.2,0-0.4,0-0.6,0C150.3,104.5,150.1,104.5,149.9,104.4z"/>
	<path class="st108" d="M148,83c-0.4,0-0.6,0-0.5-0.6c0.1-0.5-0.1-1,0-1.5c0.1-0.3-0.2-0.3-0.4-0.4c0.5-0.1,0.9-0.1,1.4-0.2
		c0.4,0,0.8,0,1.3-0.1c0.7,0.1,1.4-0.1,2.1,0.1c-0.5,0-0.9,0-1.4,0c-0.2,0-0.3,0.1-0.3,0.3c0,0.6,0,1.3,0,1.9c0,0.3,0.1,0.3,0.4,0.3
		c0.3,0,0.7-0.1,1,0.1c-0.4,0-0.8,0-1.2,0c-0.2,0.2-0.5,0.1-0.8,0.1c-0.2,0-0.5,0-0.7,0.1C148.5,83.1,148.2,83.1,148,83z"/>
	<path class="st109" d="M149.8,96.4c0.2,0.6,0.1,1.1,0.1,1.7c0,0.8,0,0.8,0.8,0.8c0.1,0,0.2,0,0.3,0.1c-0.6,0.1-1.2,0-1.9,0.1
		c-0.3,0.3-0.7,0.1-1,0.2c-0.2,0-0.4,0-0.7,0c-0.3,0-0.5-0.1-0.5-0.5c0-0.5-0.1-1.1,0-1.6c0.1-0.3-0.3-0.4-0.3-0.6
		c0.1,0,0.2-0.1,0.3-0.1c0.6-0.3,1.2-0.2,1.8-0.3C149.1,96.3,149.4,96.2,149.8,96.4z"/>
	<path class="st110" d="M148.1,99.2c0.3-0.1,0.6-0.1,1-0.1c0.1,0,0.3,0,0.4,0c0.8,0,0.8,0,0.8,0.8c0,0.4,0,0.9,0,1.3
		c0,0.3-0.1,0.4-0.3,0.5c-0.4,0-0.8,0.1-1.3,0.1c-0.2-0.1-0.3-0.3-0.3-0.5c0-0.5-0.1-1,0-1.5C148.4,99.6,148.4,99.4,148.1,99.2z"/>
	<path class="st111" d="M149.9,85.6c0.1,0.1,0.2,0.1,0.2,0.2c0,0.8,0.1,1.6-0.1,2.4c0,0,0,0.1,0,0.1c-0.1,0.1-0.2,0.1-0.3,0.1
		c-0.5,0-1.1,0.1-1.6,0.1c-0.1,0-0.3,0-0.4-0.1c-0.3,0-0.4-0.2-0.4-0.5c0-0.4,0-0.9,0-1.3c0-0.4-0.1-0.6-0.5-0.7
		c0.2-0.2,0.5-0.2,0.8-0.2c0.5-0.1,1-0.1,1.5-0.2c0.2,0,0.5-0.1,0.7,0.1C149.8,85.6,149.8,85.6,149.9,85.6z"/>
	<path class="st112" d="M149.7,85.5c-0.2,0-0.5,0-0.7,0c-0.4-0.5-0.2-1.1-0.2-1.7c0-0.3,0-0.6-0.1-0.9c0.5-0.1,1-0.1,1.6-0.1
		c0.3,0.8,0.2,1.6,0.2,2.4c0,0.2-0.1,0.2-0.3,0.3C150,85.5,149.8,85.4,149.7,85.5z"/>
	<path class="st64" d="M146.7,96.7c0.5,0.1,0.6,0.4,0.4,0.8c-0.2,0.5,0.1,1,0.1,1.6c0,0.2,0.2,0.1,0.3,0.1c0,0.2-0.3,0.2-0.4,0.2
		c-0.4,0.1-0.8,0.1-1.1,0.2c-5,0.7-9.9,1.7-14.8,2.5c-0.9,0.1-1.7,0.3-2.6,0.4c-0.2,0-0.4,0.1-0.6,0c-1.6,0.2-3.1,0.4-4.7,0.6
		c-0.4,0.1-0.8,0.1-1.1,0.1c-0.2-0.2-0.3-0.3-0.1-0.6c0.1-0.2,0.2-0.5,0.1-0.8c-0.1-0.4-0.1-0.8-0.2-1.2c0.6-0.1,1.3-0.2,1.9-0.3
		c0.1,0,0.2-0.1,0.4-0.1c1.9-0.2,3.9-0.5,5.8-0.8c5.4-0.9,10.8-1.8,16.2-2.7C146.3,96.7,146.5,96.7,146.7,96.7z"/>
	<path class="st56" d="M148.7,96.4c-0.6,0.1-1.2,0.2-1.7,0.2c0-0.7,0-1.5,0-2.2c0-0.2,0-0.4-0.2-0.4c0,0,0-0.1,0-0.1
		c0.1-0.1,0.2-0.1,0.4-0.2c0.6-0.1,1.1-0.1,1.7-0.2c0.2,0,0.4,0,0.5,0.1c0.2,0.8,0.1,1.6,0.1,2.4c0,0.2-0.1,0.3-0.3,0.3
		C149,96.4,148.8,96.3,148.7,96.4z"/>
	<path class="st106" d="M148.7,82.9c0.3,0.1,0.3,0.3,0.3,0.5c-0.2,0.7-0.1,1.4,0,2.1c-0.7,0.1-1.5,0.2-2.2,0.3c-0.1,0-0.2,0-0.3,0
		c0.4-0.8,0.1-1.6,0.2-2.5c0-0.2-0.2-0.1-0.3-0.2c0.5-0.2,1.1-0.1,1.6-0.3C148.2,82.9,148.4,82.9,148.7,82.9z"/>
	<path class="st113" d="M147.7,88.4c0.8,0,1.5-0.2,2.3-0.1c0.1,0.8-0.1,1.6,0.1,2.4c0,0.2-0.1,0.2-0.2,0.2c-0.2,0-0.5-0.1-0.7,0.1
		c-0.7,0.3-1.4,0.4-2.1,0.3c-0.2,0-0.3,0-0.5,0c0.5-0.1,0.7-0.4,0.6-0.9c-0.1-0.4-0.1-0.8,0-1.2c0.1-0.4-0.1-0.5-0.4-0.5
		c-0.2,0-0.3,0-0.5,0C146.7,88.6,147.2,88.5,147.7,88.4z"/>
	<path class="st114" d="M147,91.3c0.7-0.1,1.4-0.2,2.1-0.3c0.2,0,0.5,0,0.7,0c0,0.7,0,1.4,0,2.1c0,0.2,0,0.4-0.2,0.5
		c0,0-0.1,0.1-0.1,0.1c0,0.1-0.1,0.1-0.2,0c-0.8,0-1.7,0.2-2.5,0.2c0-0.7,0-1.5,0-2.2C146.8,91.5,146.9,91.4,147,91.3z"/>
	<path class="st64" d="M121.7,103.3c-0.3,0.1-0.6,0.1-0.9,0.1c0-0.2,0.1-0.4,0.3-0.2C121.3,103.3,121.5,103.3,121.7,103.3z"/>
	<path class="st64" d="M146.5,102.2c0.3,0.1,0.4,0.3,0.4,0.6c0,0.5,0,1.1-0.1,1.6c-0.1,0.4,0.3,0.2,0.4,0.3c-0.5,0.1-1,0.2-1.5,0.3
		c-1.6,0.2-3.1,0.4-4.6,0.7c-4,0.7-7.9,1.4-11.9,2c-0.3,0.1-0.7,0.1-1,0.2c-1.3,0.2-2.5,0.4-3.8,0.5c-0.8,0.1-1.5,0.3-2.3,0.3
		c0.2-0.7,0.1-1.4,0.1-2.1c-0.1-0.5-0.3-0.4-0.6-0.4c1.5-0.2,3.1-0.4,4.6-0.7c0.8-0.1,1.5-0.3,2.3-0.4c0.1-0.2,0.3-0.2,0.5-0.2
		c5.6-0.8,11.2-2,16.9-2.8c0.1,0,0.1,0,0.2,0C146.3,102,146.4,102,146.5,102.2z"/>
	<path class="st115" d="M149.3,93.7c0.1,0,0.1,0,0.2,0c0.3,0,0.5,0,0.8,0c0.4,0,0.4,0.1,0.4,0.4c0,0.7,0,1.4,0,2.2
		c-0.3,0.2-0.6,0-0.9,0.1c0,0,0,0,0,0c-0.4,0-0.7,0-1.1,0c0.6-0.1,0.6-0.4,0.6-0.9C149.3,94.9,149.3,94.3,149.3,93.7z"/>
	<path class="st109" d="M149.8,96.4c0.3-0.1,0.6,0,0.9-0.1c0.2,0.1,0.4,0,0.6,0.1C150.8,96.4,150.3,96.4,149.8,96.4z"/>
	<path class="st72" d="M146.2,102.1c-1.5,0.3-3.1,0.5-4.6,0.8c-3.1,0.5-6.2,1.1-9.4,1.6c-1.2,0.2-2.5,0.4-3.7,0.6
		c-0.5-0.1-0.9,0-1.4-0.1c-0.4-0.1-0.8,0.2-1.2,0.1c-0.2-0.1-0.4-0.1-0.3-0.3c0.1-0.4,0-0.7,0.1-1.1c0-0.4,0.2-0.6,0.6-0.5
		c0.3,0,0.7-0.1,0.9-0.3c0.2-0.2,0.5,0,0.6-0.3c1.3-0.2,2.7-0.4,4-0.7c4.1-0.7,8.1-1.4,12.2-2.1c0.6-0.1,1.2-0.2,1.8-0.2
		c0.7-0.1,0.8,0,0.7,0.7c0,0.4,0,0.8,0,1.2C146.6,101.7,146.5,102,146.2,102.1z"/>
	<path class="st116" d="M146.2,102.1c0.4-0.4,0.2-1,0.2-1.5c0-0.2,0-0.3,0-0.5c0.1-0.7,0.1-0.7-0.5-0.7c0.5-0.2,1.1-0.1,1.6-0.3
		c0.2,0,0.4,0,0.7,0c0.4,0,0.5,0.1,0.4,0.5c-0.1,0.7-0.1,1.4,0.2,2.1c-0.7,0.1-1.5,0.2-2.2,0.3C146.4,102.1,146.3,102.1,146.2,102.1
		z"/>
</g>
</svg>
