<?xml version="1.0" encoding="utf-8"?>
<!-- Generator: Adobe Illustrator 25.2.3, SVG Export Plug-In . SVG Version: 6.00 Build 0)  -->
<svg version="1.1" id="Layer_1" xmlns="http://www.w3.org/2000/svg" xmlns:xlink="http://www.w3.org/1999/xlink" x="0px" y="0px"
	 viewBox="0 0 194.7 172.1" style="enable-background:new 0 0 194.7 172.1;" xml:space="preserve">
<style type="text/css">
	.st0{fill:#FEC909;}
	.st1{fill:#F2BA2B;}
	.st2{opacity:0.1;fill:none;stroke:#1A1427;stroke-width:3;enable-background:new    ;}
	.st3{fill:#FFFFFF;}
	.st4{fill:#D0DDF2;}
	.st5{fill:#80D2ED;}
	.st6{fill:#7BD1ED;}
	.st7{fill:#345CAA;}
	.st8{fill:#335AA9;}
	.st9{fill:#3761AD;}
	.st10{fill:#74CEED;}
	.st11{fill:#3357A7;}
	.st12{fill:#345EAB;}
	.st13{fill:#3560AD;}
	.st14{fill:#3863AF;}
	.st15{fill:#70C9EB;}
	.st16{fill:#70C9EC;}
	.st17{fill:#71CBEC;}
	.st18{fill:#65BCE9;}
	.st19{fill:#4C92CE;}
	.st20{fill:#4B92CE;}
	.st21{fill:#3A65B0;}
	.st22{fill:#6AC1E9;}
	.st23{fill:#6CC5EB;}
	.st24{fill:#63B9E8;}
	.st25{fill:#549FD7;}
	.st26{fill:#427ABD;}
	.st27{fill:#69C0E9;}
	.st28{fill:#4175BA;}
	.st29{fill:#3C6DB5;}
	.st30{fill:#3A6AB3;}
	.st31{fill:#67BEE9;}
	.st32{fill:#3A6BB4;}
	.st33{fill:#3967B1;}
	.st34{fill:#427ABE;}
	.st35{fill:#4E95D0;}
	.st36{fill:#437DC0;}
	.st37{fill:#6BC2E9;}
	.st38{fill:#3C6FB6;}
	.st39{fill:#3B6CB5;}
	.st40{fill:#498CCB;}
	.st41{fill:#6CC4EA;}
	.st42{fill:#498FCC;}
	.st43{fill:#3E70B7;}
	.st44{fill:#4072B9;}
	.st45{fill:#4787C7;}
	.st46{fill:#498DCB;}
	.st47{fill:#3D70B7;}
	.st48{fill:#4177BC;}
	.st49{fill:#56A3DA;}
	.st50{fill:#6EC7EB;}
	.st51{fill:#498AC9;}
	.st52{fill:#3C6EB6;}
	.st53{fill:#5CACE0;}
	.st54{fill:#5DAFE1;}
	.st55{fill:#61B5E5;}
	.st56{fill:#62B5E5;}
	.st57{fill:#66BDE9;}
	.st58{fill:#4788C8;}
	.st59{fill:#529CD5;}
	.st60{fill:#4582C3;}
	.st61{fill:#5CACDF;}
	.st62{fill:#58A5DB;}
	.st63{fill:#55A1D8;}
	.st64{fill:#4685C6;}
	.st65{fill:#59A8DD;}
	.st66{fill:#5099D3;}
	.st67{fill:#4F97D1;}
	.st68{fill:#6FC7EB;}
	.st69{fill:#FEFEFF;}
	.st70{fill:#76CFED;}
	.st71{fill:#3255A6;}
	.st72{fill:#3963AF;}
	.st73{fill:#FEFFFF;}
	.st74{fill:#6EC6EB;}
	.st75{fill:#62B6E6;}
	.st76{fill:#509AD3;}
	.st77{fill:#6CC2E9;}
	.st78{fill:#3969B2;}
	.st79{fill:#447FC2;}
	.st80{fill:#4480C2;}
	.st81{fill:#488AC9;}
	.st82{fill:#4F97D2;}
	.st83{fill:#4685C5;}
	.st84{fill:#5AAADE;}
	.st85{fill:#60B2E4;}
	.st86{fill:#60B3E4;}
	.st87{fill:#6DC5EB;}
	.st88{fill:#71C9EC;}
	.st89{fill:#58A7DC;}
	.st90{fill:#57A4DA;}
	.st91{fill:#5AA9DE;}
	.st92{fill:#55A2D9;}
	.st93{fill:#4A8FCC;}
	.st94{fill:#4D93CF;}
	.st95{fill:#61B3E4;}
	.st96{fill:#5DAEE1;}
	.st97{fill:#5FB1E3;}
	.st98{fill:#5DADE0;}
	.st99{fill:#519BD4;}
	.st100{fill:#5FB0E2;}
	.st101{fill:#549ED7;}
	.st102{fill:#4C8FCC;}
	.st103{fill:#56A2D9;}
	.st104{fill:#4B91CD;}
	.st105{fill:#5DABDF;}
	.st106{fill:#3D6AB3;}
	.st107{fill:#4E93CF;}
	.st108{fill:#74A9DB;}
	.st109{fill:#65B3E3;}
	.st110{fill:#529DD5;}
	.st111{fill:#529BD5;}
	.st112{fill:none;stroke:#FFFFFF;stroke-width:3;stroke-miterlimit:10;}
</style>
<g>
	<path class="st0" d="M178.1,93.9c-1-7.8-6.2-14.9-13.3-18.2c-8.6-4-18.7-2.6-27.8-5.3c-11.8-3.5-20.4-13.3-30.9-19.8
		C93.7,43,78.9,40.3,64.5,37.7c-9.6-1.7-19.7-3.3-28.8,0.2c-12.3,4.9-19.5,20-15.5,32.6c6.8,21.4,37,27.1,46.2,47.6
		c4.8,10.6,3.2,24.1,10.7,32.9c9,10.5,25.5,8.7,38.9,5.5c10.2-2.5,20.3-5.3,30.4-8.2c8.2-2.3,16.8-4.8,22.8-10.8
		c7.5-7.4,4.4-13.1,4.3-21.7C173.6,108.4,179.2,102.2,178.1,93.9z"/>
</g>
<circle class="st1" cx="75.9" cy="38.7" r="29"/>
<circle class="st2" cx="75.9" cy="38.7" r="27.5"/>
<g>
	<path class="st3" d="M69.6,36.1l6.3-6.3l6.3,6.3l3.7-3.7L76,22.5l-9.9,9.9L69.6,36.1z M59.7,38.7l3.7-3.7l3.7,3.7l-3.7,3.7
		L59.7,38.7z M69.6,41.3l6.3,6.3l6.3-6.3l3.7,3.7l-10,9.9l-9.9-10l0,0L69.6,41.3z M84.8,38.7l3.7-3.7l3.7,3.7l-3.7,3.7L84.8,38.7z
		 M79.6,38.7L79.6,38.7L79.6,38.7l-3.7,3.7l-3.7-3.7l0,0l0,0l0.6-0.7l0.3-0.3l2.7-2.7L79.6,38.7L79.6,38.7z"/>
</g>
<g>
	<path class="st4" d="M79.6,81c0.1,0,0.1,0,0.2,0c0.1,0.1,0.1,0.1,0.2,0.2C80,81.6,80,82,80,82.4c0,0.3,0,0.6,0,0.9
		c0,0.2-0.1,0.3-0.2,0.4l-0.1,0l-0.1,0C79.6,82.8,79.6,81.9,79.6,81z"/>
	<path class="st5" d="M101.1,43.5c1.3-1.1,2.8-1.8,4.3-2.5c4.7-2.4,9.7-3.9,14.9-4.5c4.7-0.5,9.4-0.4,14,0.4
		c5.6,1,10.9,3.1,15.8,6.1c0.3,0.2,0.5,0.4,0.7,0.5c-0.2,0.4-0.6,0.4-1,0.5c-0.4,0-0.8,0-1.3,0c-12.2,0-24.3,0-36.5,0
		c-0.6,0-1.2,0-1.8,0.1c-0.5,0-1,0.4-1.5,0.1c-0.4-0.3-0.8-0.2-1.2-0.3c-1.7,0-3.4,0-5.1,0C101.9,43.9,101.3,44,101.1,43.5z"/>
	<path class="st6" d="M109.8,44c0.3-0.6,0.8-0.4,1.2-0.4c12.7,0,25.5,0,38.2,0c0.5,0,1,0,1.5-0.2c1.7,1,3.3,2.1,4.7,3.4
		c-0.2,0.2-0.5,0.1-0.7,0.1c-4.4-0.1-8.8,0-13.2,0c-7.3,0-14.5,0-21.8,0c-0.3,0-0.5,0-0.8,0c-1.1,0-1.2,0.1-1.2,1.2c0,0.3,0,0.7,0,1
		c0,0.8,0,1.7,0,2.5c-0.1,0.3,0,0.7-0.4,0.8c-0.4-0.3-0.3-0.8-0.3-1.2c0-2,0-3.9,0-5.9c0-0.7-0.2-0.9-0.9-0.7
		c-0.7,0.2-1.5,0.4-2.2,0.5c-0.8,0.1-1.3,0.5-1.1,1.3c-0.1,0.3-0.4,0.2-0.6,0.1c-0.5-0.2-1-0.1-1.5,0C110,46,109.6,45.1,109.8,44z"
		/>
	<path class="st7" d="M102.9,122.5c-0.8-0.4-1.6-0.9-2.3-1.5c-0.2-0.3-0.6-0.4-0.5-0.8c0.1-0.3,0.5-0.4,0.9-0.4c0.4-0.1,0.8,0,1.2,0
		c15.9,0,31.8,0,47.7,0c0.5,0,1,0,1.5,0.1c0.2,0.1,0.5,0.2,0.5,0.4c0,0.2-0.2,0.3-0.4,0.4c-0.2,0.1-0.3,0.3-0.5,0.4
		c-0.6,0.5-1.3,0.9-2,1.2c-0.4-0.2-0.8,0-1.2,0c-14.3,0-28.6,0-42.9,0C104.1,122.4,103.5,122.3,102.9,122.5z"/>
	<path class="st8" d="M102.9,122.5c0.2-0.6,0.7-0.4,1.2-0.4c13.7,0,27.4,0,41.1,0c1,0,1.9,0,2.9,0c0.3,0,0.7,0,0.9,0.4
		c-1.7,1-3.4,2-5.2,2.6c0-0.3,0-0.6-0.4-0.5c-0.2,0-0.4,0-0.5,0c-11.3,0-22.6,0-33.9,0c-0.4,0-0.9-0.2-1.2,0.3
		C106,124.2,104.4,123.4,102.9,122.5z"/>
	<path class="st9" d="M156.5,116.9c-0.4,0.5-0.9,0.9-1.4,1.2c-0.2-0.3-0.5-0.5-0.8-0.5c-0.3,0-0.6,0-0.9,0c-18.4,0-36.9,0-55.3,0
		c-0.6,0-1.3,0-1.9,0.1c-0.6-0.4-1.1-0.9-1.6-1.5c0-0.5,0.3-0.6,0.7-0.7c0.4-0.1,0.8-0.1,1.3-0.1c13.6,0,27.3,0,40.9,0
		c5.9,0,11.7,0,17.6,0c0.4,0,0.7,0,1.1,0c0.4,0,0.8,0,1,0.4C157.2,116.5,156.7,116.6,156.5,116.9z"/>
	<path class="st10" d="M117.4,49.3c0-2.5,0-2.5,2.5-2.5c5.8,0,11.6,0,17.4,0c5.6,0,11.1,0,16.7,0c0.5,0,1,0,1.4,0.2
		c0.6,0.5,1.3,0.9,1.8,1.6c-0.2,0.3-0.6,0.4-0.9,0.4c-5.5,0-11,0.1-16.5,0c-0.4-0.1-0.5-0.3-0.6-0.7c0-0.2,0.1-0.5-0.3-0.4
		c-0.8,0.6-1.6,1.3-2.5,1.8c-0.3,0.2-0.7,0.4-1.1,0.1c-0.5-0.2-1-0.2-1.5-0.2c-5,0-10.1,0-15.1,0C118.4,49.5,117.8,49.6,117.4,49.3z
		"/>
	<path class="st11" d="M107.6,124.9c-0.1-0.2-0.2-0.3-0.4-0.6c12.4,0,24.8,0,37.2,0c-0.1,0.4-0.6,0.3-0.7,0.7
		c-2.8,1.4-5.9,2.2-8.9,2.8c-7.2,1.4-14.4,1.1-21.5-0.9c-0.3-0.1-0.5-0.2-0.8-0.3c-1.5-0.5-3-1.1-4.6-1.7
		C107.8,125,107.7,125,107.6,124.9z"/>
	<path class="st12" d="M150.9,121.2c0.1-0.4,0.5-0.5,0.8-0.8c-0.4-0.3-0.8-0.3-1.2-0.3c-16.4,0-32.7,0-49.1,0
		c-0.4,0-0.8,0.1-1.2,0.3c0.1,0.2,0.3,0.5,0.4,0.7c-0.7-0.3-1.3-0.8-1.8-1.3c-0.2-0.3-0.6-0.5-0.7-0.9c0-0.1,0.1-0.2,0.2-0.3
		c0.4-0.3,0.9-0.2,1.3-0.2c17.6,0,35.2,0,52.8,0c0.5,0,0.9,0,1.3,0.2c0.4,0.2,0.3,0.5,0,0.7c-0.3,0.2-0.6,0.4-0.9,0.7
		C152.2,120.5,151.6,120.9,150.9,121.2z"/>
	<path class="st13" d="M153.8,118.8c-0.5-0.1-0.9-0.2-1.4-0.2c-17.7,0-35.4,0-53.1,0c-0.4,0-0.9-0.2-1.2,0.4c-0.6-0.1-1-0.6-1.5-0.9
		c-0.2,0-0.3-0.2-0.4-0.3c0-0.2,0.1-0.4,0.4-0.4c0.2,0,0.4,0,0.5,0c19.1,0,38.3,0,57.4,0c0.6,0,1.1,0,0.6,0.8c0,0,0,0,0,0
		C154.6,118.2,154.5,119,153.8,118.8z"/>
	<path class="st14" d="M156.5,116.9c0-0.3,0.6-0.5,0.3-0.8c-0.2-0.3-0.6-0.1-0.9-0.1c-20.1,0-40.1,0-60.2,0c-0.4,0-0.9-0.1-1.2,0.4
		c-0.2-0.2-0.4-0.4-0.5-0.5c-0.1-0.2-0.3-0.3-0.4-0.4c-0.2-0.2-0.2-0.4,0.1-0.5c0.3-0.1,0.7-0.1,1.1-0.1c6.2,0,12.4,0,18.6,0
		c0.3,0,0.7,0,1-0.1c0.9-0.1,1.8,0.2,2.8,0.3c3.1,0.3,6.1,0.1,9.2-0.5c0.4-0.1,0.7-0.1,1.1,0c0.3,0.1,0.7,0.1,1.1,0.1
		c3.1,0,6.1,0,9.2,0c0.2,0,0.4,0.1,0.6,0.2c0.2,0.1,0.3,0.2,0.5,0.2c0.4-0.2,0.8-0.3,1.2-0.3c5.8,0,11.6,0,17.3,0
		c0.4,0,0.9-0.1,1,0.4C157.8,115.8,157.2,116.4,156.5,116.9z"/>
	<path class="st15" d="M160.7,52.2c0.7,0.6,1.2,1.2,1.6,2c-0.1,0.1-0.3,0.1-0.3,0c-0.9-0.8-1.9-0.6-2.9-0.6c-3.7,0-7.4,0-11.1,0
		c-0.7,0-1.3,0-2,0.1c-0.4-0.3-0.8-0.3-1.3-0.2c-1.5,0.4-3.1,0.5-4.7,0.7c-1.4,0.1-1.6-0.1-1.2-1.5c0.1-0.2,0.1-0.4,0.2-0.6
		c0.2-0.9,0.8-1.2,1.7-1.2c6,0,12,0,18,0C159.6,51,160.2,51.5,160.7,52.2z"/>
	<path class="st16" d="M90.4,52.9c0.3-0.6,0.8-1,1.3-1.5c1-1.3,2.1-1.9,3.9-1.8c3.1,0.2,6.2,0.2,9.3-0.1c0.4,0,0.7,0.2,0.9,0.5
		c0.6,0.7,1.2,1.3,1.8,2c0.2,0.2,0.5,0.5,0.2,0.9c-0.9,0.3-1.9,0.1-2.8,0.2c-0.6,0-1-0.5-1.4-0.9c-0.4-0.3-0.6-0.3-1,0.1
		c-0.3,0.4-0.6,0.9-1.3,0.7c-3.3-0.2-6.7,0-10-0.1C91,53,90.7,53.1,90.4,52.9z"/>
	<path class="st17" d="M160.7,52.2c-0.8-1-1.8-0.9-2.9-0.9c-5.6,0-11.3,0-16.9,0c-0.9,0-1.6,0.1-1.8,1.1c-0.4-0.5-0.1-0.9,0-1.4
		c0.3-0.6-0.1-1.3,0.5-1.8c0.4-0.2,0.8-0.1,1.2-0.1c5.3,0,10.6,0,15.9,0c0.4,0,0.8,0.1,1.2,0.3C159,50.2,160,51,160.7,52.2z"/>
	<path class="st18" d="M85,61c0.2-0.6,0.5-1.1,0.9-1.6c0.4-0.3,0.8-0.3,1.2-0.3c7.1,0,14.2,0,21.3,0c0.4,0,0.7,0,1.1,0.2
		c0.1,0.1,0.2,0.1,0.2,0.2c-0.1,0.7-1.6,1.9-2.4,1.9c-0.6-0.1-1.1-0.1-1.7-0.1c-6.3,0-12.6,0-19,0C86,61.3,85.4,61.4,85,61z"/>
	<path class="st19" d="M171.7,86.8c0,0.5,0.1,1.1-0.2,1.6c-0.4-0.3-0.3-0.7-0.3-1.1c-0.1-1.1-0.1-1.2-1.3-1.2c-4.9,0-9.9,0-14.8,0
		c-0.8-0.4-1.3-1.3-1.1-2.3c0.3-0.4,0.8-0.4,1.2-0.4c5.1,0,10.2,0,15.3,0c1.2,0,1.2,0.2,1.2,1.3C171.8,85.4,171.9,86.1,171.7,86.8z"
		/>
	<path class="st20" d="M80.1,87.9c-0.3-0.6-0.2-1.3-0.2-2c-0.3-2.1-0.3-2.2,1.9-2.2c5.1,0,10.2,0,15.4,0c0.5,0,1.1-0.1,1.5,0.4
		c0,1-0.6,2.1-1.3,2.3c-0.5-0.1-1-0.1-1.5-0.1c-4.6,0-9.2,0-13.8,0c-1.4,0-1.4,0-1.7,1.3C80.2,87.7,80.2,87.8,80.1,87.9z"/>
	<path class="st21" d="M160.3,113.1c-0.4,0.6-0.9,1.1-1.5,1.5c-0.5,0.1-0.9,0.1-1.4,0.1c-6,0-12,0-18.1,0c-0.3,0-0.4-0.3-0.3-0.5
		c0.5-0.8,1-1.7,2.1-2c4.3,0.2,8.5,0,12.8,0.1c1.8,0,3.6,0,5.4,0C159.8,112.4,160.5,112.2,160.3,113.1z"/>
	<path class="st22" d="M86.6,58.1c0.3-0.7,0.8-1.4,1.3-2c0.4-0.3,0.9-0.3,1.4-0.3c2.9,0,5.8,0,8.6,0c0.6,0,1.3,0,1.9-0.2
		c0.3-0.1,0.6-0.1,0.9,0.1c1.5,0.6,3,1.1,4.4,1.7c0.3,0.1,0.8,0.2,0.4,0.7c-0.5,0.4-1,0.4-1.6,0.4c-5.3,0-10.5,0-15.8,0
		C87.6,58.6,87,58.6,86.6,58.1z"/>
	<path class="st23" d="M145.8,53.6c0.2-0.3,0.6-0.4,0.9-0.4c4.6,0,9.3,0,13.9,0c0.8,0,1.1,0.7,1.7,0.9c0.5,0.4,0.8,0.9,1.1,1.5
		c-0.5,0.2-1,0.1-1.5,0.1c-5.3,0-10.7,0-16,0c-0.1,0-0.2,0-0.4,0C145.2,55,145.3,54.3,145.8,53.6z"/>
	<path class="st21" d="M93.5,115c0.1,0.3,0.5,0.4,0.5,0.8c-1-0.7-1.8-1.7-2.5-2.6c-0.3-0.4-0.2-0.7,0.3-0.8c0.4-0.1,0.8,0,1.2,0
		c4.8,0,9.7,0,14.5,0c0.3,0,0.6,0,0.9-0.1c1.5,0.2,2.7,0.9,4.1,1.5c0.2,0.1,0.3,0.2,0.3,0.4c0,0.1,0,0.2-0.1,0.3
		c-0.4,0.3-0.9,0.2-1.4,0.2c-5.6,0-11.2,0-16.8,0C94.2,114.7,93.7,114.5,93.5,115z"/>
	<path class="st24" d="M85,61c7.2,0,14.3,0,21.5,0c0.3,0,0.8-0.2,1,0.4c-0.3,0.9-0.8,1.4-1.5,1.4c-0.4-0.1-0.7-0.1-1.1-0.1
		c-4.7,0-9.5,0-14.2,0c-0.4,0-0.9-0.1-1.1,0.5c-0.3,0.4-0.6,0.2-0.7-0.1c-0.3-0.5-0.5-0.3-0.8-0.1c-1,0.1-2.1,0-3.1,0
		c-0.3,0-0.6,0-0.8-0.3C84.3,62.2,84.6,61.6,85,61z"/>
	<path class="st25" d="M171.7,77.9c0.3,0.7,0.2,1.4,0.2,2.2c-0.1,0.1-0.2,0-0.3-0.1c-0.1-0.1-0.1-0.3-0.2-0.5
		c-0.2-1.1-0.3-1.2-1.3-1.2c-5.7,0-11.4,0-17.1,0c-0.5,0-0.9,0.1-1.3,0.2c-0.7-0.3-1-0.9-1-1.9c0.2-0.4,0.6-0.4,0.9-0.4
		c6.5,0,12.9-0.1,19.4,0c0.4,0,0.5,0.3,0.5,0.7C171.7,77.2,171.5,77.6,171.7,77.9z"/>
	<path class="st26" d="M168.7,99.6c-0.1,0.1-0.1,0.2-0.2,0.4c-0.3,0.1-0.7,0.1-1,0.1c-4,0-8.1,0-12.1,0c-0.5,0-1.1,0-1.6-0.3
		c-0.4-0.9,0.1-1.6,0.6-2.3c0.4-0.2,0.8-0.1,1.2-0.1c3.9,0,7.8,0,11.8,0c0.2,0,0.4,0,0.6,0c1.1,0.1,1.2,0.3,0.9,1.3
		C168.9,99,168.8,99.3,168.7,99.6z"/>
	<path class="st27" d="M164.3,56.9c0.4,0.6,0.9,1.1,1.1,1.8c-0.5,0.4-1.1,0.4-1.7,0.4c-0.7,0-1.3,0-2,0.1c-0.6,0-1-0.4-1.5-0.5
		c-0.4-0.2-0.8-0.2-1.1-0.2c-4.4,0-8.8,0-13.3,0c0.4,0.1,0.7,0.2,0.9,0.5c-0.6,0.4-2.1,0.1-2.4-0.4c-0.2-0.4,0.1-0.7,0.2-1.1
		c0.1-0.3,0.3-0.6,0.6-0.8c0.4-0.3,0.9-0.2,1.4-0.2c5.4,0,10.9,0,16.3,0C163.4,56.6,163.9,56.6,164.3,56.9z"/>
	<path class="st28" d="M167.8,101.7c-0.2,0.8-0.6,1.6-1.1,2.3c-0.3-0.6-0.8-0.6-1.4-0.6c-4,0-8.1,0-12.1,0c-0.6,0-1.2,0-1.8-0.3
		c-0.4-0.3-0.1-0.6,0.1-0.8c0.3-0.4,0.7-0.7,1.1-1c0.4-0.3,0.8-0.5,1.2-0.5c4.3,0,8.6,0,12.9,0C167.3,100.8,167.9,100.8,167.8,101.7
		z"/>
	<path class="st29" d="M164.6,107.3c-0.4,0.8-0.8,1.5-1.4,2.1c-0.4-0.5-1-0.5-1.6-0.5c-4.9,0-9.9,0-14.8,0c-0.6,0-1.2,0.1-1.7-0.3
		c-0.3-0.7,0.3-0.9,0.6-1.2c0.7-0.7,1.6-0.8,2.6-0.8c4.9,0,9.9,0,14.8,0C163.7,106.8,164.4,106.6,164.6,107.3z"/>
	<path class="st30" d="M90.6,112.2c-0.6-0.5-1.1-1.1-1.4-1.8c-0.1-0.4-0.8-0.8-0.5-1.3c0.3-0.5,1-0.3,1.5-0.3
		c3.8,0,7.6,0.1,11.5-0.1c0.2,0,0.3,0,0.4,0.1c1.1,0.3,2.1,1.1,3.1,1.7c0.2,0.1,0.4,0.3,0.1,0.6c-0.5,0.3-1,0.3-1.6,0.3
		c-3.9,0-7.9,0-11.8,0C91.1,111.3,90.6,111.4,90.6,112.2z"/>
	<path class="st31" d="M86.6,58.1c0.9,0.2,1.8,0.2,2.7,0.2c4.8,0,9.7,0,14.5,0c0.6,0,1.3-0.1,1.8-0.4c0.7,0,1.3-0.5,2-0.6
		c1,0.2,2,0.1,3,0.1c0.4,0,0.9-0.1,1.1,0.4c-0.2,0.8-1.1,1.5-2.1,1.6c-0.3-0.3-0.7-0.1-1-0.1c-7.6,0-15.1,0-22.7,0
		C86,58.9,86.3,58.5,86.6,58.1z"/>
	<path class="st10" d="M105.1,49.8c-3.5,0.4-7,0.2-10.6,0.1c-1,0-1.6,0.3-2.2,0.9c-0.2,0.2-0.4,0.5-0.7,0.6c0.6-1.1,1.6-1.8,2.5-2.7
		c0.7-0.7,1.6-1.4,2.4-2c1.9-0.2,3.8-0.1,5.6,0c0.4,0,0.7,0.2,1,0.6c0.5,0.6,1.1,1.2,1.6,1.8C104.9,49.3,105.2,49.5,105.1,49.8z"/>
	<path class="st32" d="M145,108.5c0.5,0.2,1.1,0.2,1.6,0.2c5.3,0,10.6,0,15.9,0c0.7,0,0.8,0.2,0.7,0.8c-0.7,1.2-1.6,2.3-2.6,3.2
		c-0.3-0.7,0.5-1,0.7-1.5c0.4-0.8,0.4-0.8-0.6-0.8c-5.2,0-10.4,0-15.6,0c-0.7,0-1.3,0-2,0.2c-0.3,0-0.4-0.2-0.3-0.4
		C143.5,109.5,144,108.6,145,108.5z"/>
	<path class="st33" d="M161.4,111.4c0,0.6-0.8,0.7-0.7,1.3c-0.1,0.1-0.2,0.3-0.3,0.4c-0.1-0.7-0.7-0.4-1-0.4c-5.5,0-11,0-16.4,0
		c-0.7,0-1.3-0.1-2-0.2c0.3-0.9,0.9-1.5,1.8-1.6c2.5,0.1,4.9,0,7.4,0.1c3.3,0,6.7,0,10,0C160.6,110.9,161.2,110.8,161.4,111.4z"/>
	<path class="st34" d="M83.7,101.1c-0.4-0.7-0.7-1.4-0.9-2.2c-0.4-1.4-0.3-1.6,1.2-1.6c3.5,0,7,0,10.5,0c1.5,0,1.8-0.1,1.4,1.9
		c0,0.2-0.1,0.4-0.2,0.6c-0.4,0.3-0.9,0.3-1.4,0.3c-2.9,0-5.9,0-8.8,0C84.5,100,83.8,100.1,83.7,101.1z"/>
	<path class="st35" d="M98.6,84.4c-0.1-0.4-0.4-0.4-0.7-0.4c-5.7,0-11.5,0-17.2,0c-0.6,0-0.8,0.2-0.8,0.8c0,0.4,0,0.7,0,1.1
		c-0.3-0.7-0.1-1.5-0.2-2.2c0-0.1,0-0.3,0.1-0.4c0-0.7,0.4-1,1.1-1c5.9,0,11.8,0,17.6,0c0.2,0,0.4,0,0.6,0.1
		C99.5,83,99.3,83.9,98.6,84.4z"/>
	<path class="st6" d="M103.1,47.6c-0.3-0.6-0.7-0.8-1.3-0.7c-1.4,0.1-2.8,0-4.2,0c-0.4,0-0.7,0-1-0.2c1.4-1.3,2.8-2.4,4.5-3.3
		c0.3,0.2,0.7,0.2,1.1,0.2c2,0,4,0,6,0c0.3,0,0.8-0.1,0.5,0.5c-0.1,0.5-0.5,0.7-0.9,0.9C106.2,45.8,104.7,46.7,103.1,47.6z"/>
	<path class="st33" d="M90.6,112.2c0.1-0.4-0.6-0.7-0.4-1c0.3-0.4,0.9-0.1,1.4-0.1c4.1,0,8.1,0,12.2,0c0.5,0,1.1,0,1.6-0.2
		c0.2-0.2,0.5,0,0.7,0.1c0.8,0.4,1.6,0.8,2.4,1.1c0.2,0.1,0.4,0.2,0.4,0.5c-0.5,0.2-1,0.2-1.5,0.2c-5,0-10.1,0-15.1,0
		c-0.4,0-0.8-0.1-0.6,0.6C91.1,112.9,90.8,112.6,90.6,112.2z"/>
	<path class="st36" d="M168.7,99.6c0.1-0.3,0.1-0.5,0.2-0.8c0.4-1.2,0.4-1.2-1-1.2c-1.9,0-3.8,0-5.7,0c-2.6,0-5.2,0-7.8,0
		c-0.3-0.4-0.1-0.9,0-1.3c0.1-0.3,0.2-0.5,0.5-0.7c0.3-0.1,0.6-0.1,1-0.1c4.2,0,8.5,0,12.7,0c0.4,0,0.8,0,1.1,0.2
		c0.1,0.1,0.1,0.2,0.1,0.3C169.6,97.3,169.3,98.5,168.7,99.6z"/>
	<path class="st37" d="M164.3,56.9c-6,0-12,0-18.1,0c-0.4,0-0.8,0-1.1,0.2c-0.3-0.6-0.1-1,0.4-1.4c0.4-0.2,0.7-0.2,1.1-0.2
		c5.4,0,10.8,0,16.2-0.1c0.3,0,0.4,0.2,0.6,0.2C163.8,56,164.1,56.4,164.3,56.9z"/>
	<path class="st36" d="M95.5,99.8c0.1-0.5,0.1-1,0.2-1.5c0.2-0.7-0.1-0.7-0.6-0.7c-3.7,0-7.3,0-11,0c-1.4,0-1.4,0-1.3,1.3
		c-0.3-0.4-0.5-0.9-0.5-1.5c-0.1-0.4-0.2-0.8-0.3-1.2c-0.1-0.2-0.2-0.5,0.1-0.6c0.3-0.2,0.7-0.1,1.1-0.1c4,0,7.9,0,11.9,0
		c0.5,0,1.2-0.1,1.4,0.6c0,1.5-0.3,3-0.7,4.5c-0.1,0.1-0.2,0.1-0.3,0.1C95.2,100.4,95.3,100.1,95.5,99.8z"/>
	<path class="st38" d="M164.6,107.3c-0.3-0.4-0.7-0.3-1.1-0.3c-4.5,0-9.1,0-13.6,0c-1.4,0-2.9-0.4-4.1,0.7c0.4-1.2,1.5-1.7,2.5-2.3
		c0.4-0.1,0.8-0.2,1.2-0.2c4.9,0,9.9,0,14.8,0c0.5,0,1.1-0.1,1.4,0.5C165.3,106.3,165.1,106.9,164.6,107.3z"/>
	<path class="st39" d="M102.2,109c-0.6-0.2-1.2,0-1.8,0c-3.6,0-7.2,0-10.9,0c-1.1,0-1.1,0-0.5,1c0.1,0.1,0,0.2,0.1,0.3
		c-0.8-0.9-1.4-1.9-2-2.9c0.1-0.7,0.7-0.5,1.1-0.5c2.3,0,4.6,0,6.8,0c1.3,0,2.7,0,4,0c0.1,0,0.3-0.1,0.4,0
		C100.6,107.5,101.6,108,102.2,109z"/>
	<path class="st40" d="M80.6,91.3c-0.2-0.7-0.4-1.3-0.3-2c0-0.1-0.1-0.1-0.1-0.2C80,87,80.1,87,82.2,87c4.4,0,8.7,0,13.1,0
		c0.5,0,1.1-0.1,1.5,0.4c0,1-0.5,1.8-1.3,1.9c-0.4-0.2-0.8-0.3-1.2-0.3c-4.2,0-8.3,0-12.5,0c-1,0-1.1,0.1-1,1.2
		C80.9,90.6,81,91,80.6,91.3z"/>
	<path class="st35" d="M171.7,86.8c0-0.8,0-1.6,0-2.4c0-0.5-0.1-0.7-0.7-0.7c-5.4,0-10.8,0-16.2,0c-0.3,0-0.6,0.1-0.7,0.4
		c-0.8-0.5-1-1.2-0.5-1.8c0.4-0.1,0.8-0.1,1.3-0.1c5.2,0,10.4,0,15.6,0c0.5,0,1-0.1,1.4,0.2c0.2,0.7,0.1,1.5,0,2.3
		C171.9,85.3,172,86.1,171.7,86.8z"/>
	<path class="st41" d="M100,55.8c-0.5,0.3-1,0.4-1.6,0.4c-3.5,0-7,0-10.5,0c0.3-0.6,0.6-1,1.1-1.5c0.4-0.6,1-0.8,1.7-0.8
		c2.8,0,5.5,0,8.3,0c0.5,0,1.1,0,1.5,0.4C100.7,54.9,100.2,55.3,100,55.8z"/>
	<path class="st42" d="M96.8,87.7c-0.1-0.4-0.4-0.4-0.7-0.4c-5,0-10,0-15,0c-0.6,0-0.8,0.2-0.8,0.8c0,0.4,0,0.8,0,1.3
		c-0.2-0.5-0.2-1-0.2-1.4C80.1,86,80.1,86,82,86c4.8,0,9.7,0,14.5,0c0.3,0,0.8-0.2,1,0.4C97.6,87,97.4,87.5,96.8,87.7z"/>
	<path class="st43" d="M165.6,105.8c-0.4-0.2-0.7-0.2-1.1-0.2c-5.1,0-10.1,0-15.2,0c-0.5,0-0.9,0.1-1.3,0.2c0.3-1,1.2-1.5,2.1-1.8
		c3.3,0.2,6.6,0,10,0.1c1.7,0,3.4,0,5.1,0c0.4,0,0.9-0.1,1.1,0.5C166.1,104.9,166,105.5,165.6,105.8z"/>
	<path class="st28" d="M84.8,103.4c-0.3-0.3-0.5-0.7-0.5-1.1c-0.5-1.3-0.5-1.4,0.9-1.4c3.1,0,6.2,0,9.3,0c0.3,0,0.7,0,1,0.1
		c0.3,0.1,0.4,0.4,0.6,0.6c0.2,0.5,0.8,1,0.2,1.6c-0.5,0.2-1,0.1-1.5,0.1C91.4,103.4,88.1,103.2,84.8,103.4z"/>
	<path class="st44" d="M166.3,104.5c-0.3-0.3-0.7-0.2-1-0.2c-4.7,0-9.3,0-14,0c-0.5,0-1,0-1.5-0.2c0.1-0.8,0.7-1.1,1.4-1.3
		c0.9,0.3,1.8,0.2,2.7,0.2c4,0,8,0,11.9,0c0.8,0,1.1,0.2,0.8,0.9C166.6,104.2,166.5,104.4,166.3,104.5z"/>
	<path class="st45" d="M80.6,91.3c0-0.4,0-0.8,0-1.1c0.2-0.4,0.6-0.4,0.9-0.4c4.1,0,8.1,0,12.2,0c0.5,0,1.1,0.1,1.1,0.8
		c-0.1,0.6-0.4,1.1-1.1,1.1c-3.9,0-7.7,0-11.6,0c-0.9,0-1,0.1-0.9,1c0.1,0.6,0.3,1.2,0.4,1.7c0,0.1,0,0.3,0,0.4
		c0,0.1-0.1,0.2-0.2,0.2C81,93.9,80.8,92.6,80.6,91.3z"/>
	<path class="st46" d="M171.5,87.3c0,0.4,0,0.8,0,1.1c0,0.4,0.1,0.9-0.2,1.3c-0.4-0.8-1-0.9-1.8-0.9c-3.9,0-7.8,0-11.7,0
		c-0.5,0-1,0-1.4-0.1c-0.3-0.2-0.5-0.4-0.6-0.8c-0.1-0.5,0-0.8,0.5-0.9c0.3-0.1,0.5-0.1,0.8-0.1c4.4,0,8.8,0,13.2,0
		C170.8,87,171.2,87,171.5,87.3z"/>
	<path class="st47" d="M86.2,106c-0.3-0.4-0.6-0.8-0.7-1.2c-0.1-0.3,0-0.5,0.2-0.6c0.2-0.1,0.4-0.1,0.6-0.1c3.5,0,7-0.1,10.5,0
		c1,0.5,1.4,1.1,1.2,1.9c-0.4,0.3-0.8,0.3-1.2,0.3c-3.2,0-6.4,0-9.5,0C86.9,106.2,86.5,106.2,86.2,106z"/>
	<path class="st48" d="M167.8,101.7c0-0.5-0.4-0.6-0.8-0.6c-4.4,0-8.8,0-13.3,0c-0.5,0-0.8,0.4-1.2,0.5c0.1-0.9,0.6-1.5,1.3-2
		c0.5,0.2,1.1,0.2,1.6,0.2c4,0,8.1,0,12.1,0c0.3,0,0.7-0.1,1,0.2c0,0,0,0,0,0c-0.2,0.4-0.4,0.8-0.6,1.3
		C167.9,101.4,167.9,101.6,167.8,101.7z"/>
	<path class="st49" d="M171.7,77.9c-0.4-0.4-0.1-1-0.4-1.5c-0.3-1.3-1.2-1.4-2.3-1.4c-4.2,0.1-8.4,0-12.7,0c-0.5,0-1.1,0.1-1.6-0.3
		c-0.3-0.2-0.2-0.4,0.1-0.6c0.6-0.4,1.2-0.9,2-0.9c0.6,0.1,1.2,0.1,1.8,0.1c3.6,0,7.2,0,10.8,0c0.4,0,0.9,0,1.3,0.1
		c0.3,0.1,0.2,0.4,0.4,0.5C171.6,75.3,171.7,76.6,171.7,77.9z"/>
	<path class="st48" d="M95.7,101.2c-3.9,0-7.7,0-11.6,0c0,0.4,0.3,0.7,0.2,1.1c-0.3-0.4-0.5-0.8-0.6-1.2c0.2-0.5-0.5-1-0.1-1.2
		c0.4-0.2,1-0.1,1.5-0.1c3.5,0,7,0,10.4,0c0,0.3,0,0.6,0,0.9C95.6,100.9,95.8,101,95.7,101.2z"/>
	<path class="st50" d="M100.4,54.7c-0.1-0.6-0.6-0.5-1-0.5c-3.1,0-6.2,0-9.3,0c-0.5,0-0.8,0.4-1.2,0.6c0.4-0.7,0.8-1.3,1.4-1.8
		c0.3-0.2,0.7-0.2,1.1-0.2c3.1,0,6.1,0,9.2,0c0.4,0,0.8-0.1,1,0.4C101.4,53.8,101.3,54.5,100.4,54.7z"/>
	<path class="st51" d="M156.5,88.6c4.5,0,9.1,0,13.6,0c0.9,0,1.4,0.2,1.2,1.2c0,0.7-0.1,1.4-0.4,2c-0.1-0.1-0.2-0.2-0.2-0.3
		c0-0.1-0.1-0.2-0.1-0.3c0-1.1,0-1.2-1.1-1.2c-3.7,0-7.4,0-11.1,0c-0.5,0-0.9,0-1.4-0.1C156.6,89.6,156.3,89.2,156.5,88.6z"/>
	<path class="st52" d="M86.2,106c3.5,0,7,0,10.5,0c0.5,0,1.1,0,1.6-0.2c0.7,0.2,1.1,0.6,1.3,1.3c-0.4,0.2-0.8,0.2-1.2,0.2
		c-3.4,0-6.8,0-10.2,0c-0.3,0-0.7-0.1-1,0.2C86.7,107,86.3,106.6,86.2,106z"/>
	<path class="st53" d="M171.2,74.1c-0.2,0-0.2-0.2-0.2-0.4c-0.4-0.4-0.4-1-0.5-1.5c-0.1-0.5-0.2-1-0.4-1.5c-0.2-0.6-0.5-0.7-1.1-0.7
		c-2.2,0-4.3,0-6.5,0c-0.5,0-0.9,0.2-1.3,0.3c-0.3,0-0.3-0.2-0.2-0.4c0.5-0.8,0.8-1.7,1.7-2.2c2-0.2,4.1,0,6.1-0.1
		c0.8,0,0.9,0.6,1.1,1.2C170.6,70.5,171,72.3,171.2,74.1z"/>
	<path class="st44" d="M97.1,104.3c-3.6,0-7.1,0-10.7,0c-0.4,0-0.8-0.2-0.9,0.4c-0.3-0.4-0.6-0.8-0.7-1.3c0.1-0.6,0.5-0.4,0.9-0.4
		c3.6,0,7.1,0,10.7,0C96.8,103.3,97.2,103.7,97.1,104.3z"/>
	<path class="st54" d="M81.2,71c0.3-1.6,0.8-3.2,1.5-4.7c0.1-0.2,0.2-0.3,0.3-0.3c1.7-0.2,3.3-0.1,5,0c0.1,0,0.2,0.1,0.3,0.1
		c0.3,0.7,0.6,1.5,0.4,2.3c-1.5,0.1-2.9,0-4.4,0c-2,0-1.8-0.2-2.5,1.8c-0.1,0.3-0.2,0.6-0.4,0.8C81.3,71.1,81.3,71.1,81.2,71z"/>
	<path class="st54" d="M169.9,68.8c-0.3-0.8-0.9-1-1.7-0.9c-1.9,0.1-3.9,0-5.8,0c-0.2-0.8-0.1-1.5,0.6-2c1.9-0.1,3.7-0.2,5.6,0
		c0.1,0,0.2,0.1,0.3,0.2C169.4,67,169.8,67.9,169.9,68.8z"/>
	<path class="st55" d="M169,66.1c-0.1,0-0.1,0-0.2,0c-0.5-0.8-1.2-0.9-2-0.8c-1.2,0.1-2.5-0.1-3.7,0.2c-0.1,0-0.2-0.1-0.2-0.1
		c-0.2-0.8-0.3-1.7,0.1-2.5c1.4-0.5,2.8-0.2,4.2-0.2c0.5,0,0.5,0.6,0.7,0.9C168.5,64.4,168.8,65.2,169,66.1z"/>
	<path class="st14" d="M139.1,114.6c0.3-0.1,0.6-0.2,1-0.2c6,0,12.1,0,18.1,0c0.2,0,0.5-0.1,0.7,0.1c-0.2,0.2-0.2,0.5-0.5,0.6
		c-0.3-0.3-0.6-0.2-0.9-0.2c-5.8,0-11.6,0-17.4,0c-0.6,0-1,0.5-1.6,0.4C138.5,115,138.6,114.7,139.1,114.6z"/>
	<path class="st56" d="M82.8,66.1c-0.1,0.1-0.1,0.1-0.2,0.2c0.3-1.2,0.8-2.3,1.4-3.4c1.4,0,2.8,0,4.2,0c0.4,1.1,0.5,2.2,0,3.3
		c0,0-0.1,0-0.1,0c-0.2-0.7-0.7-0.9-1.5-0.8c-0.5,0.1-1,0-1.4,0C84.3,65.2,83.4,65.2,82.8,66.1z"/>
	<path class="st10" d="M158,49.3c-6.2,0-12.3,0-18.5,0c-0.2-0.2-0.2-0.4,0-0.5c5.4,0,10.8,0,16.2,0c0.5,0,1,0,1.5-0.2
		C157.5,48.7,157.8,49,158,49.3z"/>
	<path class="st24" d="M168,63.6c-0.4-0.7-0.9-0.8-1.6-0.7c-1.1,0.1-2.2,0-3.3,0c-0.7-0.6-0.8-1.3-0.5-2.1c1.1-0.5,3.4-0.5,4.2,0.1
		C167.2,61.7,167.7,62.6,168,63.6z"/>
	<path class="st57" d="M166.7,60.9c-1.4-0.3-2.8-0.3-4.2,0c-0.6-0.4-0.9-0.9-0.9-1.6c0-0.4,0.3-0.4,0.6-0.4c1.1,0,2.2,0,3.2-0.2
		C165.9,59.3,166.3,60.1,166.7,60.9z"/>
	<path class="st8" d="M107.9,125c1.6,0.3,3.1,1,4.6,1.7C110.9,126.3,109.4,125.7,107.9,125z"/>
	<path class="st58" d="M171,91.5c0,0.1,0,0.2,0,0.2c-0.1,1.1-0.3,2.1-0.7,3.1c-0.1-0.1-0.1-0.1-0.2-0.2c-0.1-0.6,0.1-1.2,0.3-1.7
		C170.6,92.4,170.4,91.7,171,91.5z"/>
	<path class="st9" d="M153.8,118.8c0.6,0,0.7-0.8,1.3-0.7c-0.7,0.7-1.5,1.3-2.4,1.8C152.8,119.4,153.5,119.3,153.8,118.8z"/>
	<path class="st59" d="M171.9,84.6c0-0.7,0-1.5,0-2.2c-0.2-0.4-0.5-0.8-0.1-1.2c0,0,0.1,0,0.1,0C172.2,82.3,172.1,83.4,171.9,84.6z"
		/>
	<path class="st60" d="M81.5,95.1c0-0.1,0-0.2,0-0.2c0.5,0.1,0.4,0.5,0.4,0.9c0.1,0.6,0.5,1.1,0.3,1.7C81.9,96.7,81.6,96,81.5,95.1z
		"/>
	<path class="st61" d="M81.2,71c0.1,0,0.1,0,0.2,0c0.2,0.5-0.1,1-0.2,1.5c-0.1,0.3-0.1,0.6-0.3,0.9c-0.1,0.1-0.2,0.1-0.3,0
		C80.7,72.5,80.9,71.8,81.2,71z"/>
	<path class="st62" d="M80.1,76.6c0-0.7,0.1-1.5,0.3-2.2c0.1-0.1,0.1-0.1,0.2,0c0,0.1,0.1,0.2,0.1,0.2c0,0.6-0.1,1.2-0.3,1.7
		c0,0.1-0.1,0.2-0.1,0.2C80.3,76.7,80.2,76.7,80.1,76.6z"/>
	<path class="st63" d="M80.1,76.6c0.1,0,0.1,0,0.2,0c0.4,0.5,0.1,1,0,1.6c0,0.1-0.1,0.3-0.2,0.4c-0.1,0.1-0.2,0.1-0.3,0
		C79.9,77.9,79.9,77.3,80.1,76.6z"/>
	<path class="st9" d="M96.5,118.1c0.6,0.1,1,0.6,1.5,0.9c0,0,0,0,0,0c0.1,0.1,0.1,0.2,0,0.2C97.5,118.9,97,118.5,96.5,118.1z"/>
	<path class="st64" d="M170.3,94.5c0,0.1,0,0.2,0,0.2c-0.1,0.5,0,1-0.5,1.3c0-0.1,0-0.2,0-0.2c0-0.4,0.1-0.9,0.3-1.3
		C170.1,94.5,170.2,94.5,170.3,94.5z"/>
	<path class="st26" d="M167.9,101.3c0-0.5,0.2-1,0.6-1.3C168.4,100.5,168.2,100.9,167.9,101.3z"/>
	<path class="st25" d="M79.9,78.6c0.1,0,0.1,0,0.2,0c0.3,0.5,0.1,0.9-0.1,1.4c0,0-0.1,0.1-0.1,0.1c0,0-0.1,0-0.1,0
		C79.7,79.6,79.8,79.1,79.9,78.6z"/>
	<path class="st65" d="M80.6,74.4c-0.1,0-0.1,0-0.2,0c0.1-0.4,0-0.8,0.2-1.1c0.1,0,0.1,0,0.2,0C81,73.8,80.9,74.1,80.6,74.4z"/>
	<path class="st13" d="M98,119.2c0-0.1,0-0.2,0-0.2c0.3,0.2,0.6,0.4,0.7,0.8C98.4,119.7,98.2,119.5,98,119.2z"/>
	<path class="st59" d="M171.7,80.1c0.1,0,0.1,0,0.2,0c0,0.4,0,0.7,0,1.1c0,0,0,0,0,0c-0.1,0-0.2,0-0.3-0.1
		C171.5,80.7,171.4,80.4,171.7,80.1z"/>
	<path class="st59" d="M79.8,80.1c0,0,0.1,0,0.1,0c0.3,0.4,0.4,0.8-0.1,1.1c0-0.1,0-0.1-0.1-0.2C79.7,80.7,79.8,80.4,79.8,80.1z"/>
	<path class="st66" d="M79.8,81.1c0.3-0.3,0.1-0.7,0.1-1.1c0,0,0,0,0,0c0.2-0.4,0.7-0.5,1.1-0.5c6,0,12,0,18,0c0.5,0,1,0,1.1,0.6
		c-0.1,0.5,0.1,1.2-0.6,1.5c-0.8-0.1-1.6-0.2-2.4-0.2c-5,0-10,0-15,0c-0.9,0-1.8-0.1-2.5,0.8C79.8,82,79.8,81.6,79.8,81.1z"/>
	<path class="st67" d="M79.8,82.4c0-1.1,0.7-1.1,1.6-1.1c5.7,0,11.4,0,17.1,0c0.5,0,0.9,0,1.3,0.3c0,0.4,0.2,0.8-0.3,0.9
		c-6.2,0-12.4,0-18.6,0c-0.6,0-0.8,0.2-1,0.7C79.8,83,79.8,82.7,79.8,82.4z"/>
	<path class="st3" d="M103.1,47.6c0-0.3,0.2-0.4,0.4-0.5c1.3-0.7,2.6-1.4,3.9-2.1c0.5-0.2,0.9-0.5,1.3-0.8c0.4,0.1,0.7-0.5,1.1-0.2
		c0.2,0.9,0.5,1.8,0.9,2.7c0.7,0.9,0.8,2,1.2,3c0.3,0.9,0.6,1.8,0.9,2.7c0.1,0.5,0.4,1,0.5,1.5c0,0.3-0.3,0.5-0.6,0.6
		c-0.8,0.4-1.5,0.9-2.3,1.1c-0.3-0.1-0.5-0.3-0.7-0.6c-0.3-0.6-0.9-1-1.3-1.5c-0.2-0.2-0.5-0.4-0.5-0.8c-0.8-1.1-1.8-2.1-2.8-3.1
		C104.5,49.1,103.9,48.3,103.1,47.6z"/>
	<path class="st17" d="M117.4,49.3c5.8,0,11.7,0,17.5,0c0.3,0,1-0.3,0.8,0.5c-0.5,1.1-1.7,1.4-2.6,2c-0.4,0.3-0.9,0.6-1.5,0.4
		c-3.4-0.1-6.9,0-10.3-0.1c-0.9,0-1.9,0-2.8,0c-0.4,0-0.8,0-1.1-0.3C117.4,51,117.4,50.1,117.4,49.3z"/>
	<path class="st68" d="M117.4,51.8c4.5,0,9,0,13.4,0c0.4,0,0.8-0.1,1,0.3c-0.2,0.5-0.6,0.6-1,0.8c-1.8,0.7-3.7,1.3-5.6,1.3
		c-1.2,0-2.4,0.4-3.6,0c-0.5-0.3-1-0.2-1.5-0.2c-2.3,0-4.6,0.1-7,0c-0.3-0.5-0.5-0.9-0.5-1.5c0.6-0.4,1.3-0.3,2-0.2
		c0.2,0.1,0.3,0.2,0.5,0.3c0.2,0.4,0.5,0.3,0.8,0.2c0.4-0.1,0.7-0.3,1.1-0.4c0,0,0.1,0,0.1,0C117.5,52.3,117.4,52.1,117.4,51.8z"/>
	<path class="st69" d="M115.1,52.9c-0.1-0.1-0.1-0.2-0.2-0.3c-0.6-0.9-0.8-2-1.3-3c-0.1-1-0.9-1.8-0.9-2.8c-0.3-1.3-0.3-1.3,1.1-1.7
		c0.9-0.2,1.9-0.4,2.8-0.7c0.4-0.1,0.6,0,0.6,0.5c0,2.6,0,5.1,0,7.7c0,0,0,0,0,0c-0.5,0.2-1,0.3-1.5,0.5
		C115.4,53.2,115.2,53.2,115.1,52.9z"/>
	<path class="st70" d="M112.7,46.7c0.4,0.9,0.8,1.8,1.1,2.7c-0.6,0.6-1.3,0.4-2,0.4c-0.4-1-0.8-2-1.1-3.1
		C111.4,45.9,112,46.6,112.7,46.7z"/>
	<path class="st3" d="M121.7,54.2c3.4,0,6.7-0.2,9.7-1.8c0.1-0.1,0.3-0.1,0.4-0.2c1.4-0.6,2.7-1.3,3.8-2.3c1.2-0.6,2.3-1.4,3.3-2.3
		c0.3-0.1,0.4,0.2,0.4,0.4c0,1.1,0.1,2.1-0.1,3.2c-0.1,0.4-0.2,0.8-0.2,1.3c-0.7,1.8-0.6,1.8,1.3,1.6c1.7-0.2,3.4-0.4,5-0.9
		c0.6-0.2,0.3,0.4,0.4,0.6c-0.1,0.7-0.2,1.3-0.4,2c-0.1,0.5-0.2,1-0.4,1.4c-0.8,1.7-0.8,1.7,1,2.1c0.2,0,0.4,0,0.6,0.1
		c0.5-0.2,1,0.1,1.6,0.1c1.3,0.3,2.6,0.5,4,0.5c0.3,0.1,0.5,0.1,0.5,0.4c-0.1,0.4-0.4,0.6-0.6,1c-0.6,0.6-1,1.5-1.9,1.9
		c2.9,0.4,5.6,0.1,7.9-1.9c0.7-0.4,1.1-1,1.5-1.7c0.3-0.2,0.2-0.7,0.7-0.8c0.7-0.7,0.8,0.2,1.1,0.4c0.3,0.5,0.6,1.1,0.9,1.6
		c0.2,0.7,0.4,1.3,0.6,2c0,0.8,0,1.7,0.1,2.5c0.2,0.3,0.2,0.5-0.1,0.7c-0.2,0.6-0.3,1.2-0.5,1.8c-0.5,0.8-1,1.6-1.5,2.3
		c0,0.3-0.3,0.5-0.5,0.7c-0.6,0.6-1.3,1.1-2,1.6c-0.6,0.4-1.1,0.8-1.8,1c-0.7,0.4-1.4,0.7-2,1.1c-0.9,0.8-2.1,1-3.2,1.5
		c-0.3,0.1-0.8,0.2-0.6,0.8c0.2,0.6,0.4,1.1,0.7,1.6c0.5,0.4,0.5,1.1,0.9,1.5c0.3,0.5,0.4,1.1,0.7,1.6c0.1,0.3,0.3,0.5,0.2,0.8
		c0.2,0.6,0.4,1.2,0.8,1.7c0.2,0.7,0.5,1.4,0.9,2c0.4,0.2,0.5,0.5,0.6,0.9c0.4,1.1,0.8,2.2,1.5,3.1c0.1,0.1,0.1,0.3,0.1,0.4
		c-0.5,0.5-1.1,0.2-1.7,0.3c-0.4,0-0.8,0-1.2,0c-0.4,0-0.3,0.2-0.3,0.5c0.2,0.8,0.4,1.5,0.6,2.3c0.1,0.9,0,1.8-0.2,2.7
		c-0.1,0.4-0.1,0.9-0.2,1.3c-0.2,0.7-0.4,1.3-0.6,2c-0.4,0.7-0.8,1.3-1.3,2c-0.4,0.4-0.9,0.8-1.3,1.3c-0.5,0.4-1,0.8-1.4,1.3
		c-0.7,0.5-1.3,1-1.8,1.6c-0.8,0.6-1.5,1.2-2.2,2c-0.3,0.2-0.6,0.4-0.8,0.7c-0.8,0.6-1.5,1.3-2.1,2c0,0.3-0.3,0.4-0.5,0.5
		c-0.5,0.4-1,0.9-1.5,1.4c-0.7,0.6-1.4,1.3-1.8,2.2c-0.3,0.2-0.3,0.6-0.7,0.8c-0.1-0.1-0.1-0.2-0.2-0.4c-0.3-0.4-0.6-0.9-0.9-1.5
		c-0.2-0.6-0.4-1.1-0.4-1.7c-0.1-0.8-0.1-0.8-0.8-0.5c-0.2,0.1-0.3,0.2-0.5,0.3c-2.2,1.1-4.5,2-6.9,2.5c-3.9,0.9-7.9,1.4-11.9,0.9
		c-1-0.1-1.9-0.4-2.9-0.5c-0.4-0.1-0.8-0.1-1.1-0.5c-1.3-0.5-2.7-1.1-4-1.6c-1.1-0.5-2.3-1.1-3.4-1.6c-1-0.6-2.1-1.2-3.1-1.8
		c-0.9-0.7-1.8-1.3-2.7-2c-0.4-0.4-0.9-0.8-1.3-1.3c-0.4-0.5-0.8-1-1.1-1.4c-0.2-0.4-0.5-0.8-0.7-1.3c-0.2-0.4-0.3-0.9-0.5-1.3
		c-0.2-0.3-0.1-0.7-0.2-1.1c0-1.5,0.4-2.9,0.5-4.3c0.2-0.6-0.3-1.2,0.1-1.8c0.1-0.3,0.2-0.6,0.2-0.9c0.2-0.8,0.2-1.5,0.5-2.4
		c0,0-0.2,0.1-0.1,0.1c-0.2,0.5-0.7,0.6-1,0.8c-0.6,0.2-1.2,0.3-1.8,0.2c-0.4-0.1-0.6-0.2-0.4-0.6c0,0,0.1-0.1,0.1-0.1
		c0.3-0.2,0.6-0.5,0.7-0.9c0.4-0.5,0.5-1.2,1.1-1.5c0.4-0.5,0.8-1,1.1-1.6c0.3-0.4,0.6-0.8,0.7-1.2c0.5-0.6,0.8-1.3,1.1-2
		c0.5-0.5,0.4-1.3,0.8-1.8c0.3-0.2,0-0.7,0.3-0.9c0.4-0.3,0-0.9,0.4-1.2c0.2-0.6,0-1.2,0.2-1.8c0.2-1.2,0.2-1.2-1-1.2
		c-1.8,0.1-3.5,0-5.1-0.7c-1.1-0.5-2-1.1-2.8-1.9c-0.6-0.8-1.2-1.6-1.6-2.5c-0.3-0.7-0.6-1.3-0.8-2c-0.1-0.7-0.6-1.3-0.4-2
		c-0.1-0.7-0.2-1.4-0.4-2.2c0-1.1,0-2.2,0-3.3c0.2-0.1,0.3-0.4,0.5-0.1c0.2,0.2,0.4,0.4,0.6,0.6c0.9,0.6,1.5,1.6,2.4,2.2
		c0.4,0.3,0.9,0.7,1.4,0.9c1.9,1.3,3.8,0.8,5.7,0.2c1.8-0.5,3.5-1,5-2.1c0.7-0.3,1.2-0.7,1.6-1.3c0.2-0.3,0.3-0.6,0.7-0.6
		c0.5-0.4,0.9-0.9,1.3-1.4c0.7-0.6,1.4-1.2,2.2-1.9c0.7-0.4,1.4-0.9,2-1.4c0.8-0.9,1.9-1.2,2.9-1.8c1.8-0.9,3.7-1.9,5.8-2.2
		c0.4,0,0.7,0,1.1-0.1C121.5,54,121.6,54.1,121.7,54.2z"/>
	<path class="st6" d="M139.3,51.1c0-0.9,0-1.8,0-2.8c0-0.3,0.1-0.7-0.3-0.8c0.4-0.3,0.5,0,0.5,0.3c0,0.3,0,0.6,0,1
		c0,0.2,0,0.4,0,0.5C139.4,49.9,139.7,50.5,139.3,51.1z"/>
	<path class="st71" d="M114.2,126.9c4.3-0.4,21.8-0.4,23.4,0C129.6,128.9,121.9,128.9,114.2,126.9z"/>
	<path class="st21" d="M112.7,114c2.9,0.8,5.8,1.3,8.8,1.1c4.6-0.3,8.9-1.5,13.1-3.4c0.3-0.1,0.7-0.3,1-0.4c1.2-0.3,1.2-0.3,1.5,0.9
		c0.1,0.4,0.1,0.9,0.5,1.2c0.3,0.5,0.5,0.9,0.7,1.5c-0.1-0.1-0.2-0.1-0.3-0.2c-0.3-0.3-0.7-0.3-1.1-0.3c-3.1,0-6.3-0.1-9.4,0.1
		c-1.6,0.2-3.1,0.5-4.7,0.6c-1.7,0.2-3.4,0.2-5,0c-1-0.1-2.1-0.3-3.1-0.5c-0.6-0.1-1.3,0-1.8-0.5C112.7,114.2,112.7,114.1,112.7,114
		z"/>
	<path class="st14" d="M112.7,114.3c0.6,0.2,1.3,0.2,1.8,0.5c-0.4,0.2-0.8,0.2-1.2,0.2c-6.6,0-13.2,0-19.8,0
		c-0.2-0.1-0.4-0.2-0.4-0.5c0.3,0,0.6,0,0.9,0c5.9,0,11.8,0,17.7,0C112,114.5,112.4,114.6,112.7,114.3z"/>
	<path class="st72" d="M127.4,114.6c0.7-0.4,1.5-0.4,2.2-0.4c2.4,0,4.9,0,7.3,0c0.4,0,0.9-0.1,1,0.5c-3.2,0-6.4,0-9.6,0
		C128,114.8,127.6,114.9,127.4,114.6z"/>
	<path class="st73" d="M100.4,54.7c0.6-0.4,0.8-1.1,1.3-1.6c0.1-0.1,0.2-0.1,0.3-0.2c0.5-0.3,0.6-1.2,1.2-1.1c0.5,0.1,0.9,0.7,1.3,1
		c0.1,0.1,0.3,0.2,0.4,0.3c0.8,0.4,1.4,1.1,2.1,1.7c0.3,0.3,0.6,0.6,1,0.9c0.1,0.1,0.2,0.2,0.3,0.2c0.2,0.2,0.4,0.4,0.3,0.8
		c-0.3,0.4-0.7,0.7-1.2,0.9c-0.5,0.3-1.1,0.8-1.8,0.4c-1.8-0.8-3.7-1.6-5.6-2.2C99.7,55.3,100.3,55.1,100.4,54.7z"/>
	<path class="st74" d="M108,55.8c-1.1-0.8-2.1-1.7-3.1-2.7c1-0.4,2-0.1,3-0.2c0.7,0.7,1.5,1.3,2,2.2c-0.3,0.3-0.8,0.2-1.2,0.2
		C108.2,55.3,108.1,55.5,108,55.8z"/>
	<path class="st42" d="M157.2,90.4c-1-1.3-1.6-2.8-2.2-4.3c0.3-0.3,0.7-0.2,1-0.2c4.7,0,9.4,0,14.1,0c1.4,0,1.4,0,1.4,1.4
		c-4.8,0-9.6,0-14.4,0c-0.4,0-0.9-0.2-1.1,0.2c-0.2,0.4,0.2,0.8,0.4,1.1c0.1,0.4,0.2,0.8,0.5,1.1C157.3,89.9,157.5,90.1,157.2,90.4z
		"/>
	<path class="st75" d="M106.2,62.8c-0.6,0.8-1.1,1.7-2.2,2c-1.8-0.2-3.6-0.1-5.3-0.1c-2,0-4,0-6,0c-1.2,0-1.2,0-1,1
		c-1-0.6-1.7-1.4-2.4-2.4c-0.4-0.8-0.1-1,0.7-1c5.1,0,10.2,0,15.2,0C105.6,62.5,106,62.3,106.2,62.8z"/>
	<path class="st59" d="M152.3,80.1c-0.4-0.5-0.6-1-0.7-1.6c0.3-0.4,0.7-0.4,1.1-0.4c6,0,12,0,18,0c1,0,1,0.1,1,1.6
		c-0.4,0.4-1,0.3-1.5,0.3c-5,0-10,0-15,0C154.3,80,153.3,80,152.3,80.1z"/>
	<path class="st63" d="M150.9,76.8c-0.3-0.4-0.4-0.7,0.2-0.9c1.2-0.4,2.4-0.9,3.6-1.4c0.5,0.2,1,0.2,1.6,0.2c4.5,0,9,0,13.5,0
		c1.6,0,1.6,0,1.6,1.6c-6.5,0-13,0-19.5,0C151.5,76.4,151,76.2,150.9,76.8z"/>
	<path class="st76" d="M152.3,80.1c0.3-0.5,0.8-0.4,1.3-0.4c6,0,12,0,18.1,0c0,0.1,0,0.2,0,0.4c0,0.4,0,0.7,0,1.1
		c-0.4,0.4-1,0.3-1.5,0.3c-5.1,0-10.3,0-15.4,0c-0.6,0-1.2,0-1.8,0.3C152.7,81.2,152.5,80.7,152.3,80.1z"/>
	<path class="st31" d="M148.2,59.6c-0.5,0-1-0.1-1.5-0.3c-0.5-0.4-1.3-0.4-1.9-0.7c0.2-0.3,0.4-0.2,0.6-0.2c4.7,0,9.4,0,14.2,0
		c0.4,0,0.9-0.2,0.9,0.5c-0.3,0.2-0.1,0.8-0.5,0.9c-2.5-0.2-5-0.1-7.6-0.1C151,59.7,149.6,59.6,148.2,59.6z"/>
	<path class="st77" d="M108,55.8c-0.3-0.5-0.3-0.8,0.4-0.8c0.5,0,1,0,1.4,0c0.2,0.2,0.3,0.3,0.5,0.5c1.3-0.6,2.7-0.4,4-0.4
		c0.2,0,0.4,0,0.6,0c0.3,0,0.7,0.1,0.7,0.4c0.1,0.3-0.3,0.3-0.5,0.5c-0.2,0.1-0.5,0.2-0.7,0.4c-0.9,0.6-1.9,1.2-2.9,1.7
		c-0.1-0.5-0.4-0.4-0.8-0.4c-1.2,0-2.3,0.1-3.5-0.2c0.3-0.4,0.7-0.7,1.1-0.9c0.3-0.5-0.1-0.5-0.4-0.7C108.1,55.9,108,55.9,108,55.8z
		"/>
	<path class="st78" d="M142.4,111c0.1-0.2,0.3-0.4,0.5-0.5c0.7-0.5,1.5-0.4,2.2-0.4c5.3,0,10.6,0,15.9,0c0.4,0,1-0.2,1.1,0.2
		c0.1,0.4-0.3,0.8-0.8,1.1c-0.3-0.3-0.7-0.2-1-0.2c-5.5,0-11,0-16.5,0C143.4,111.2,142.9,111.2,142.4,111z"/>
	<path class="st60" d="M154.6,96.3c0-0.9,0-1.9-0.1-2.8c-0.2-0.5,0-0.7,0.5-0.8c0.3-0.1,0.6-0.1,0.9-0.1c4.5,0,8.9,0,13.4,0
		c0.5,0,1-0.1,1.4,0.3c-0.2,0.5-0.4,1.1-0.4,1.6c-0.1,0-0.1,0-0.2,0c-0.4,0.4-1,0.3-1.5,0.3c-4.1,0-8.1,0-12.2,0
		c-0.8,0-1.5,0.1-1.7,1C154.7,96,154.7,96.2,154.6,96.3z"/>
	<path class="st79" d="M154.7,95.8c0-1.3,0-1.3,1.2-1.3c4.7,0,9.4,0,14.1,0c0,0.5,0,0.9-0.4,1.3C164.7,95.8,159.7,95.8,154.7,95.8z"
		/>
	<path class="st80" d="M96.6,94.5c-0.3,0.6,0,1.3-0.4,1.8c0-0.7-0.4-0.6-0.9-0.6c-4.1,0-8.2,0-12.3,0c-0.4,0-0.8,0-1.2,0
		c-0.1-0.3-0.2-0.6-0.4-0.9c0-0.1,0-0.2,0-0.4c0.3-0.3,0.8-0.3,1.2-0.3c4.2,0,8.4,0,12.7,0C95.8,94.3,96.2,94.2,96.6,94.5z"/>
	<path class="st34" d="M95.7,100.7c0.2,0.3,0.1,0.7,0.2,1.1c-0.3-0.1-0.2-0.3-0.2-0.5c-0.1-0.2-0.1-0.4-0.2-0.5
		C95.6,100.7,95.6,100.7,95.7,100.7z"/>
	<path class="st81" d="M95.7,89.3c-0.3,0.5-0.6,1.1-1.1,1.5c0.2-0.7-0.2-0.8-0.7-0.8c-1.2,0-2.4,0-3.6,0c-2.8,0-5.6,0-8.5,0
		c-0.4,0-0.8,0-1.1,0.2c-0.4-1.3-0.3-1.4,0.9-1.4c4.4,0,8.7,0,13.1,0C95.1,88.8,95.6,88.6,95.7,89.3z"/>
	<path class="st82" d="M153.1,81.7c0-0.7,0.5-0.6,0.9-0.6c3.2,0,6.3,0,9.5,0c2.8,0,5.5,0,8.3,0c0.1,0,0.1,0,0.2,0
		c-0.3,0.4,0.1,0.8,0,1.3c-6.2,0-12.3,0-18.5,0C153.2,82.2,153,82,153.1,81.7z"/>
	<path class="st60" d="M96.6,94.5c-5,0-10,0-15,0c-0.2-0.5-0.4-1.1-0.4-1.6c0.3-0.3,0.7-0.3,1.1-0.3c4.5,0,9,0,13.5,0
		c0.9,0,1.1,0.2,1,1C96.8,94,96.8,94.3,96.6,94.5z"/>
	<path class="st83" d="M96.8,93.7c0.1-0.7-0.3-0.8-0.9-0.8c-4.9,0-9.8,0-14.7,0c0,0-0.1-0.1-0.1-0.1c-0.3-1.3-0.3-1.3,1-1.3
		c3.6,0,7.2,0,10.8,0c0.3,0,0.7-0.1,1,0.2c0,0,0,0,0,0c-0.3,0.3-0.4,0.6,0.2,0.7c0.7,0.1,1.3,0,1.9-0.4c0.4-0.2,0.7-0.5,1.2-0.8
		C97.1,92.1,97.1,92.9,96.8,93.7z"/>
	<path class="st62" d="M156.7,73.5c0.6-0.4,1.2-0.7,1.8-1.1c0.6-0.4,1.2-0.5,1.9-0.5c3,0,5.9,0,8.9,0c0.5,0,1-0.1,1.4,0.3
		c0.3,0.4,0.3,1,0.4,1.4c-4.3,0-8.5,0-12.8,0C157.7,73.7,157.2,73.7,156.7,73.5z"/>
	<path class="st64" d="M170.6,92.9c-5.1,0-10.1,0-15.2,0c-0.4,0-1-0.1-0.9,0.6c-0.2-0.7-0.4-1.5-0.5-2.2c0.1-0.5,0.5-0.4,0.8-0.5
		c5,0,10,0,15,0c0.5,0,0.9,0.1,1.2,0.5c0,0.1,0,0.1,0,0.2C170.7,91.9,170.7,92.4,170.6,92.9z"/>
	<path class="st58" d="M171,91.3c-0.4-0.1-0.9-0.2-1.3-0.2c-4.9,0-9.8,0-14.8,0c-0.3,0-0.7-0.1-0.9,0.2c-0.4-0.6-0.2-0.7,0.4-0.7
		c0.9,0,1.9,0.2,2.8-0.1c-0.1-0.2-0.1-0.5-0.2-0.7c4.3,0,8.6,0,12.9,0c1.3,0,1.3,0,1,1.3C171,91,171,91.2,171,91.3z"/>
	<path class="st65" d="M170.6,72.3c-3.5,0-7,0-10.5,0c-0.6,0-1.1,0-1.7,0.2c0.7-0.5,1.3-1.1,2-1.6c0.4-0.2,0.8-0.3,1.3-0.3
		c2.4,0,4.9,0,7.3,0c0.4,0,0.8,0,1.2,0.3C170.5,71.3,170.6,71.8,170.6,72.3z"/>
	<path class="st84" d="M170.3,70.8c-3.3,0-6.5,0-9.8,0c0.1-0.2,0.3-0.4,0.5-0.5c0.5-0.5,1.1-0.6,1.8-0.5c2.1,0,4.2,0.1,6.2,0
		C169.9,69.7,170.3,70,170.3,70.8z"/>
	<path class="st65" d="M89.1,70.3c0.3,0.7,0.5,1.3,0.8,2c-0.3,0.4-0.8,0.5-1.3,0.5c-2.2,0-4.4,0-6.7,0c-0.3,0-0.7,0-0.9-0.3
		c0.1-0.5,0.2-1,0.4-1.4c0-0.3,0.1-0.5,0.2-0.7c0.3-0.3,0.7-0.3,1-0.3c1.9,0,3.9,0,5.8,0C88.6,70,89,70,89.1,70.3z"/>
	<path class="st61" d="M89.1,70.3c-2.5,0-5.1,0-7.6,0c0.3-2.1,0.4-2.2,2.5-2.2c1.2,0,2.4,0,3.6,0c0.3,0,0.7,0,1,0.2
		C88.8,68.9,89,69.6,89.1,70.3z"/>
	<path class="st85" d="M82.8,66.1c0.2-1,0.8-1.2,1.8-1.1c0.8,0.1,1.6,0.1,2.4,0c0.9-0.1,1.2,0.3,1.1,1.1
		C86.3,66.1,84.6,66.1,82.8,66.1z"/>
	<path class="st86" d="M163,66.1c0-0.2,0-0.5,0.1-0.7c0.2-0.2,0.4-0.4,0.8-0.4c1.4,0,2.9,0,4.3,0c0.6,0,0.5,0.7,0.7,1.1
		C166.9,66.1,164.9,66.1,163,66.1z"/>
	<path class="st62" d="M81,72.5c2.2,0,4.3,0,6.5,0c0.8,0,1.6,0,2.4-0.2c0.5,0.8,1,1.6,1.5,2.3c-0.2,0.2-0.5,0.1-0.7,0.1
		c-2.9,0-5.8,0-8.8,0c-0.4,0-0.9,0.1-1.3-0.3c0,0,0,0,0,0c-0.1-0.4,0.1-0.7,0.2-1.1C80.8,73,80.8,72.7,81,72.5z"/>
	<path class="st25" d="M80.1,78.2c0.1-0.5,0.1-1.1,0.2-1.6c0-0.1,0-0.1,0-0.2c0.3-0.3,0.8-0.3,1.2-0.3c3.6,0,7.2,0,10.8,0
		c0.4,0,0.8,0,1.2,0.2c2,0.9,4,1,6.1,0.9c1,0,1,0,0.8,1c-0.4,0.3-0.8,0.2-1.2,0.2c-5.9,0-11.8,0-17.8,0
		C80.9,78.5,80.5,78.6,80.1,78.2z"/>
	<path class="st63" d="M100.4,78.2c0.1-0.7-0.1-1-0.9-0.9c-2,0.1-4,0-5.8-0.8c-0.3-0.1-0.6-0.1-1-0.1c-4.1,0-8.3,0-12.4,0
		c0.2-0.6,0.1-1.4,0.4-2c3.2,0,6.3,0,9.5,0c0.4,0,0.8,0,1.2,0.2c2.2,2.1,4.9,2.8,7.9,2.6c1.4-0.1,1.5,0.1,1.1,1.5
		C100.3,78.5,100.3,78.4,100.4,78.2z"/>
	<path class="st59" d="M100.4,78.2c0,0.1,0,0.3,0,0.4c0,0.6,0,1.2-0.4,1.8c0-0.7-0.5-0.5-0.9-0.5c-6.1,0-12.2,0-18.2,0
		c-0.3,0-0.7,0-1,0.2c-0.1-0.5,0.2-1,0.2-1.4c0-0.1,0-0.2,0-0.4C86.9,78.2,93.6,78.2,100.4,78.2z"/>
	<path class="st87" d="M114.5,56.5c0.2-0.5,0.8-0.4,1.1-0.8c-0.3-0.3-0.6-0.3-0.9-0.3c-1.4,0.2-2.8-0.4-4.2,0.3c0,0-0.1-0.1-0.2-0.2
		c1-0.5,2-0.8,2.8-1.5c0.2-0.3,0.5-0.2,0.8-0.2c2.3,0,4.6,0,6.9,0c0.3,0,0.7-0.1,0.8,0.4c-0.1,0-0.2,0-0.3,0
		c-0.3,0.2-0.8-0.1-1.1,0.2C118.2,54.7,116.4,55.7,114.5,56.5z"/>
	<path class="st88" d="M111.8,49.8c0.6-0.4,1.4,0,2-0.4c0.4,1,0.9,2,1.1,3.1c-0.7,0-1.5,0-2.2,0C112.3,51.7,111.9,50.8,111.8,49.8z"
		/>
	<path class="st88" d="M115.1,52.9c0.8,0.3,1.4-0.4,2.2-0.4c-0.5,0.5-1.1,0.5-1.7,0.7C115.3,53.3,115.1,53.2,115.1,52.9z"/>
	<path class="st89" d="M107.8,76.1c0.1-1.5,0.2-2.9,1.1-4.2c0.3-0.4,0.7-0.6,1.2-0.6c8.5,0,17-0.1,25.5,0c0.2,0,0.4,0.1,0.5,0.3
		c0.3,0.4,0.5,0.2,0.7-0.1c0.2-0.3,0.5-0.6,0.7-0.9c0.8-0.1,1.6-0.2,2.3,0c0.5,0.8,1.1,1.6,1.3,2.5c-0.3,0.3-0.8,0.3-1.2,0.3
		c-8.5,0-16.9,0-25.4,0c-1.6,0-3.2,0-4.8,0c-0.7,0-1.2,0.2-1.3,1c-0.2,0.5-0.1,1.1-0.4,1.6C108,76.1,107.9,76.1,107.8,76.1z"/>
	<path class="st90" d="M108.2,74.6c0.1-1.4,0.1-1.4,1.5-1.4c10.5,0,21,0,31.5,0c0.3,0.6,0.5,1.2,0.5,1.8c-8-0.2-16,0-23.9-0.1
		c-0.3,0-0.6-0.1-0.9,0.1c-0.7,0.2-1.3-0.2-1.9-0.5c-0.1-0.1-0.2-0.2-0.2-0.3c-0.2-0.3-0.4-0.5-0.7-0.1c-0.2,0.3-0.3,0.8-0.8,0.8
		c-1.3-0.1-2.6,0-3.8,0C108.9,74.9,108.5,75,108.2,74.6z"/>
	<path class="st91" d="M135.9,71.5c-8.6,0-17.1,0-25.7,0c-0.5,0-1,0.1-1.4,0.4c0.4-0.9,1-1.5,1.8-2c0.5-0.3,1-0.5,1.6-0.5
		c5.2,0,10.5,0,15.7,0c0.2,0,0.5,0,0.7,0.1c0.1,0,0.2,0.1,0.3,0.2c0.1,0,0.2,0,0.3,0c0.3-0.2,0.7-0.3,1-0.3c1.3,0,2.5,0,3.8,0
		C135.3,69.5,135.9,70.3,135.9,71.5z"/>
	<path class="st35" d="M108.5,85c-0.3-0.4-0.3-0.8-0.4-1.3c-0.2-0.3,0-0.7-0.3-1c0-0.3-0.1-0.7,0.2-0.9c0.3-0.2,0.6-0.2,1-0.2
		c2,0,4,0,6,0c1,0.2,2,0.7,3,0.9c1.6,0.3,3,0,4.5-0.4c2.6-0.1,5.2,0,7.8-0.1c1.7,0.7,3.5,0.8,5.2,0c0,0,0.1,0,0.2,0
		c1.6,0.1,3.1,0,4.7,0.1c0.4,0,0.9-0.1,1.3,0.2c0.1,0.4,0.1,0.9,0,1.3l0,0c-0.4,0.3-0.8,0.3-1.2,0.3c-8.7,0-17.4,0-26.1,0
		c-1.4,0-2.9,0.1-4.3,0C109.4,83.9,108.8,84.1,108.5,85z"/>
	<path class="st19" d="M139,84.6c-0.2,0.8-0.4,1.5-0.7,2.2c-0.5-0.6-1.1-0.7-1.8-0.7c-6.6,0-13.2,0-19.8,0c-0.5,0-1,0.1-1.5-0.1
		c-0.5-0.5-0.6-1.1-0.4-1.7c0.4-0.2,0.9-0.2,1.3-0.2c7.1,0,14.2,0,21.2,0C137.9,84.1,138.6,83.9,139,84.6z"/>
	<path class="st92" d="M116.7,75c0-0.1-0.1-0.3,0.1-0.4c0.2,0,0.4,0,0.6,0c7.7,0,15.4,0,23.2,0c0.4,0,0.9,0,1.1,0.4c0,0,0,0.1,0,0.1
		c-0.1,0.5-0.5,0.4-0.8,0.5c-0.7,0-1.5,0.1-2.2,0c-1.2,0-2.2,0.6-3.4,0.9c-0.5,0.1-1,0.4-1.6,0.2c-0.3-0.2-0.6-0.2-1-0.2
		c-3.7,0-7.4,0-11.1,0c-0.3,0-0.6,0-0.9,0.1C119.2,76.5,117.9,76,116.7,75z"/>
	<path class="st93" d="M115,85.9c7.4,0,14.7,0,22.1,0c0.7,0,1.2,0.1,1.1,1c0,0.3-0.1,0.7-0.4,0.9c-0.7-0.1-1.4-0.1-2.1-0.1
		c-6.2,0-12.3,0-18.5,0c-0.5,0-1,0-1.5-0.1C115.2,87.1,115,86.5,115,85.9z"/>
	<path class="st94" d="M139,84.6c-0.4-0.2-0.8-0.2-1.2-0.2c-7.7,0-15.4,0-23.1,0c-0.2-0.2-0.3-0.4-0.5-0.2c-1.1,0.8-1.9,1.9-2.5,3.1
		c-0.1-0.1-0.1-0.1-0.2-0.2c0-0.4,0.2-0.8,0.4-1.2c0.1-0.3,0.2-0.5-0.2-0.6c-0.8-0.1-1.7,0-2.5,0c-0.4,0,0.1,0.5-0.3,0.5
		c-0.2-0.3-0.3-0.6-0.4-0.9c-0.1-1.3-0.1-1.3,1.3-1.3c10.7,0,21.4,0,32,0c0,0.2,0,0.5,0,0.7c-0.2,0.5,0,1.1-0.2,1.7
		c0,0.3,0,0.6,0,0.9c-0.2,0.2,0,0.5-0.2,0.8c-0.5-0.1-0.3-0.7-0.6-0.9l0,0c-0.2-0.6-0.5-1.3-0.9-1.8l0,0c-0.1-0.3-0.3-0.5-0.6-0.7
		C139.1,84.2,139.1,84.5,139,84.6z"/>
	<path class="st81" d="M137.3,88.9c-0.3,1.2-1.1,1.5-2.2,1.6c-0.2-0.4-0.6-0.2-0.9-0.2c-5.2,0-10.5,0-15.7,0c-0.5,0-0.9,0.1-1.3,0.1
		c-0.4-0.4-0.7-0.9-0.9-1.5c0-0.5,0.4-0.5,0.7-0.6c0.4-0.1,0.8-0.1,1.2-0.1c5.8,0,11.6,0,17.4,0C136.2,88.3,136.9,88.1,137.3,88.9z"
		/>
	<path class="st45" d="M117.2,90.4c0.2-0.4,0.5-0.4,0.8-0.4c5.6,0,11.2,0,16.8,0c0.3,0,0.9-0.1,0.4,0.5c-4.4,1.4-8.9,1.9-13.4,1.4
		c-1-0.1-2.1-0.3-3.1-0.4C117.9,91.4,117.4,91.1,117.2,90.4z"/>
	<path class="st46" d="M137.3,88.9c-0.4-0.3-0.9-0.4-1.4-0.4c-6.1,0-12.2,0-18.3,0c-0.5,0-1,0-1.4,0.4c-0.2-0.2-0.3-0.3-0.3-0.6
		c-0.1-0.4-0.4-0.7-0.4-1.1c7.1,0,14.2,0,21.3,0c0.4,0,0.9-0.2,1,0.4C137.8,88.2,137.7,88.6,137.3,88.9z"/>
	<path class="st61" d="M128.8,69.7c-5.5,0-11,0-16.5,0c-0.5,0-1.1,0-1.6,0.2c1-0.8,2.2-1.3,3.4-1.6c0.6-0.3,1.3-0.3,2-0.3
		c3.8,0,7.5,0,11.3,0c0.5,0,1-0.1,1.4,0.2C129,68.7,128.9,69.2,128.8,69.7z"/>
	<path class="st95" d="M91.7,65.8c0-0.1,0-0.1-0.1-0.2c-0.2-0.4-0.9-0.6-0.7-1c0.2-0.4,0.9-0.2,1.3-0.2c3.6,0,7.2,0,10.7,0
		c0.4,0,0.8-0.1,1,0.4c-1.5,1.2-3.3,1.6-5.1,2.1c0.1-0.8,0.8-0.6,1.1-0.7c-2,0.1-4.1,0-6.3,0.1c-0.3,0-0.6-0.1-0.7,0.3
		C92.4,66.5,92,66.2,91.7,65.8z"/>
	<path class="st96" d="M128.8,68.3c-4.1,0-8.2,0-12.3,0c-0.8,0-1.6-0.2-2.4,0c1.4-0.7,2.8-1.1,4.3-1.4c1.1-0.2,2.2-0.1,3.3-0.1
		c1.8,0,3.6,0,5.4,0C129,66.7,128.6,66.8,128.8,68.3z"/>
	<path class="st97" d="M128.8,68.3c0-1.3-0.8-1.3-1.8-1.3c-1.9,0.1-3.7,0-5.6,0c-1,0-2,0-2.9-0.2c2.7-0.9,5.5-1.7,8.4-1.8
		c1,0,1.5,0.5,1.7,1.3c0.3,1.1,0.4,2.2,0.4,3.4c-0.1,0-0.2,0-0.2,0C128.8,69.3,128.8,68.8,128.8,68.3z"/>
	<path class="st24" d="M158.5,61.4c-2.4,2.2-5.2,2.4-8.4,2.1c0.8-0.8,1.4-1.5,2.1-2.2c0.2-0.3,0.6-0.5,1-0.5c1.5,0,3,0,4.5,0
		C158,60.8,158.6,60.6,158.5,61.4z"/>
	<path class="st18" d="M158.5,61.4c-0.1-0.4-0.4-0.3-0.6-0.3c-1.7,0-3.5,0.1-5.2-0.1c-0.2,0-0.4,0.2-0.6,0.2
		c0.1-0.3,0.3-0.5,0.5-0.7c0.1-0.1,0.2-0.2,0.1-0.4c-0.1-0.1-0.3-0.1-0.4,0c-1.4,0.1-2.8-0.2-4.2-0.5c0.2-0.3,0.6-0.2,0.9-0.2
		c3.3,0,6.7,0,10,0c0.3,0,0.8-0.2,0.9,0.3C159.6,60.4,159.2,61,158.5,61.4z"/>
	<path class="st98" d="M135.9,71.5c-0.3-1.5-0.6-1.8-2.1-1.8c-1.5,0-3,0-4.5,0c0.7-0.6,1.4-1.2,2.1-1.8c0.2-0.2,0.4-0.5,0.6-0.7
		c0.1-0.2,0.2-0.4,0.3-0.5c0.2-0.1,0.2-0.6,0.6-0.3c1.2,1.6,2.5,3.1,3.2,5c0.1,0.4,0.4,0.2,0.6,0.1
		C136.5,72.2,136.2,71.9,135.9,71.5z"/>
	<path class="st99" d="M141.9,83.7c0-0.4,0-0.9,0-1.3c0-0.1,0,0-0.1-0.1c-0.5-1.3-0.5-1.3-2-1.3c-0.8,0-1.6,0.2-2.3-0.3
		c0.1-1,0.4-1.9,1.2-2.5c1.1,0,2.2-0.3,3.3,0.2C142,80.2,142.2,81.9,141.9,83.7z"/>
	<path class="st100" d="M93,66.7c-0.1-0.2-0.6-0.6,0.2-0.6c2.5,0,4.9,0,7.5,0c-0.5,0.5-1.3,0.3-1.7,0.9C96.9,67.7,94.9,68.1,93,66.7
		z"/>
	<path class="st101" d="M142,78.4c-1.2,0-2.3,0-3.5,0c-0.1-0.2-0.1-0.4-0.1-0.6c0.2-0.5-0.1-1.3,0.6-1.5c0.8-0.3,1.7-0.3,2.6,0
		c0.6,0.2,0.1,0.8,0.4,1.2C142,77.8,142,78.1,142,78.4z"/>
	<path class="st102" d="M112,86c-0.1,0.4-0.2,0.7-0.4,1.1c-0.2,0.8-0.5,1.5-0.5,2.3c0,0.2-0.1,0.3-0.3,0.2c-0.7-0.9-1.3-1.8-1.6-2.9
		c-0.3-0.6,0-1,0.7-1C110.6,85.8,111.3,85.6,112,86z"/>
	<path class="st103" d="M142,77.5c-0.4-0.2,0.1-1-0.5-1c-0.8-0.1-1.7-0.1-2.5,0c-0.2,0-0.3,0.3-0.3,0.5c0,0.3,0.1,0.6-0.2,0.9
		c-0.5-0.8-0.3-1.7-0.2-2.5c0.8,0,1.6,0,2.4,0c0.3,0,0.6,0.1,0.8-0.2C142,75.9,142.1,76.7,142,77.5z"/>
	<path class="st104" d="M112,86c-0.7,0-1.3,0-2,0c-0.6,0-0.8,0.2-0.8,0.8c-0.2-0.3-0.4-0.6-0.4-0.9c-0.1-0.5,0-0.9,0.7-0.8
		c0.7,0.1,1.4,0,2.1,0c0.3,0,0.6-0.1,0.7,0.2C112.5,85.6,112.3,85.9,112,86z"/>
	<path class="st105" d="M139.8,70.6c-0.8,0.3-1.6,0.2-2.3,0c0.4-0.5,0.6-1.1,0.9-1.8C139,69.4,139.5,69.9,139.8,70.6z"/>
	<path class="st90" d="M108,81.9c0,0.3,0,0.6,0,0.9c0.1,0.1,0.1,0.2,0,0.2c-0.7-2.3-0.5-4.6-0.2-6.9c0.1,0,0.1,0,0.2,0
		c0.2,0.4,0,0.8,0.1,1.2c0,0.8,0,1.6,0,2.4C108,80.4,108.2,81.1,108,81.9z"/>
	<path class="st106" d="M137.6,113.5c-0.5-0.2-0.6-0.7-0.5-1.1c0-1.1-0.6-1.2-1.4-1.1c0.4-0.2,0.9-0.5,1.4-0.8
		C137,111.7,137.3,112.6,137.6,113.5z"/>
	<path class="st35" d="M115.6,87.3c0.2,0.4,0.4,0.7,0.4,1.1c-0.8-1.1-1.2-2.3-1.4-3.6c0-0.2,0.1-0.6-0.4-0.5
		c0.3-0.3,0.5-0.2,0.5,0.2c0.1,0.5,0.2,1,0.4,1.4C115.1,86.4,115.3,86.8,115.6,87.3z"/>
	<path class="st45" d="M96,92c-0.6,0.6-1.3,0.7-2.1,0.5c-0.6-0.2-0.5-0.5,0-0.7c-0.1,0.3-0.2,0.5,0.3,0.6C94.8,92.3,95.4,92.1,96,92
		z"/>
	<path class="st104" d="M110.9,89.7c0.4-0.8,0.2-1.8,0.7-2.5c0,0.1,0,0.1,0,0.2c-0.1,0.8-0.4,1.5-0.4,2.3
		C111.2,90,111,89.9,110.9,89.7z"/>
	<path class="st107" d="M140,85c0.6,0.5,0.8,1.1,0.9,1.8C140.6,86.2,140.3,85.6,140,85z"/>
	<path class="st107" d="M141.7,86.1c0.1-0.6-0.2-1.1,0.2-1.7C141.8,85,141.9,85.5,141.7,86.1z"/>
	<path class="st108" d="M141.5,87.7c0-0.2-0.1-0.5,0.2-0.7c0,0.4,0,0.8-0.1,1.2c-0.1,0.3-0.2,0-0.2-0.1
		C141.4,87.9,141.3,87.7,141.5,87.7z"/>
	<path class="st107" d="M141.5,87.7c0,0.1,0,0.3-0.2,0.4c-0.1-0.4-0.3-0.8-0.4-1.3C141.3,86.9,141.2,87.4,141.5,87.7z"/>
	<path class="st109" d="M133,66.3c-0.3,0-0.4,0.3-0.6,0.3c0.1-0.3,0.1-0.6,0.4-0.7C132.9,65.9,133,66.1,133,66.3z"/>
	<path class="st68" d="M120.3,54.3c0.3-0.3,0.7-0.1,1.1-0.2C121.1,54.4,120.7,54.3,120.3,54.3z"/>
	<path class="st109" d="M132.1,67.2c0,0.4-0.2,0.6-0.6,0.7C131.6,67.6,131.8,67.4,132.1,67.2z"/>
	<path class="st31" d="M152.4,60.1c0.2-0.2,0.4-0.3,0.5-0.1c0.2,0.2,0,0.4-0.2,0.5C152.7,60.2,152.6,60.1,152.4,60.1z"/>
	<path class="st35" d="M139.4,84.2c0.4,0.1,0.6,0.3,0.6,0.7C139.7,84.8,139.6,84.5,139.4,84.2z"/>
	<path class="st66" d="M108,83c0-0.1,0-0.1,0-0.2c0.3,0.3,0.1,0.6,0.2,0.9C108,83.5,108,83.2,108,83z"/>
	<path class="st74" d="M108.1,56c0.5,0,0.8,0.2,0.4,0.7C108.6,56.4,108.3,56.2,108.1,56z"/>
	<path class="st63" d="M107.8,77.2c0-0.4,0-0.8,0.2-1.1c0-0.5-0.1-1,0.2-1.4c1.4,0,2.8,0,4.2,0c0.4,0,0.7,0,1,0.2
		c0.1,0.1,0.1,0.1,0.1,0.2c0,1.3-0.2,2.5-0.3,3.8c-0.4,0-0.5-0.4-0.5-0.6c-0.1-0.6-0.5-0.8-1.1-0.8c-0.9,0-1.8,0-2.7,0
		C108.5,77.4,108.1,77.4,107.8,77.2z"/>
	<path class="st3" d="M113.2,78.8c-0.3-1.3,0.1-2.6,0.2-4c0.2-0.3,0.3-0.6,0.5-0.9c0.1-0.1,0.1-0.1,0.2-0.1c0.3,0.1,0.6,0.3,0.8,0.5
		c0.5,0.2,1.1,0.5,1.6,0.7c1.3,0.5,2.5,1,3.8,1.6c0.7-0.1,1.3,0.4,1.9,0.6c0.7,0.3,1.3,0.6,2,0.8c1,0.4,1.2,0.8,0.7,1.8
		c-0.1,0.2-0.2,0.4-0.3,0.6c-0.1,0.2-0.3,0.4-0.4,0.7c-0.5,0.6-1.1,1.2-2,1.4c-2.5,0.9-4.8,0.5-7.2-0.5c-1.1-0.3-1.5-1.3-2-2.2
		C113.2,79.4,113,79.1,113.2,78.8z"/>
	<path class="st90" d="M114.1,73.9L114.1,73.9c-0.1,0-0.1,0-0.1,0c0.4-0.5,0.6-0.5,0.9,0.2C114.6,74.1,114.4,74,114.1,73.9z"/>
	<path class="st89" d="M114.1,73.9c0.3-0.1,0.5,0,0.8,0.2c0.1,0.1,0.1,0.1,0.2,0.2C114.7,74.3,114.4,74.1,114.1,73.9z"/>
	<path class="st3" d="M138.4,75.3c0.3,0.8,0.1,1.7,0.2,2.5c0,0.2,0,0.4-0.1,0.5c-0.3,0.7-0.5,1.5-1.1,2.2c-0.2,1-1,1.3-1.8,1.6
		c-1.7,0.9-3.4,1.1-5,0c-0.5-0.1-0.9-0.5-1.2-0.9c-0.3-0.5-0.7-0.9-1-1.4c-0.8-1.5-0.7-1.6,0.9-2.1c1.2-0.4,2.5-0.8,3.7-1.2
		c0.3-0.1,0.6-0.2,0.9-0.1c1.4-0.2,2.7-0.8,4-1.2C138,75.3,138.2,75.1,138.4,75.3z"/>
	<path class="st66" d="M113.4,79.7c0.5,0.9,1,1.6,1.8,2.2c-2.4,0-4.9,0-7.3,0c-0.4-0.7-0.1-1.5-0.2-2.2c0.2-0.2,0.4-0.3,0.7-0.3
		c1.4,0,2.9,0,4.3,0C113,79.4,113.2,79.5,113.4,79.7z"/>
	<path class="st82" d="M129.6,81.3c0.3,0.3,0.7,0.6,1,0.9c-0.3,0.2-0.6,0.2-0.9,0.2c-2.4,0-4.9,0-7.3,0c0.7-0.4,1.3-0.9,1.8-1.4
		c0.3-0.3,0.6-0.5,1-0.5c0.8,0,1.6,0.1,2.4,0C128.4,80.5,129.1,80.6,129.6,81.3z"/>
	<path class="st82" d="M135.7,82.2c0.6-0.5,1.3-1,1.8-1.6c0.9,0.4,1.8,0.1,2.8,0.2c1.8,0.1,1.6-0.3,1.6,1.6c-1.7,0-3.4,0-5.1,0
		C136.3,82.4,136,82.4,135.7,82.2z"/>
	<path class="st25" d="M133.9,76.6c-1.6,0.7-3.2,1.1-4.8,1.6c-1.1,0.3-1.1,0.3-0.6,1.3c0.1,0.2,0.1,0.3,0.2,0.5
		c-0.6,0.1-0.7-0.5-0.9-0.8c-0.4-0.7-1.1-1-1.8-0.7c-0.4,0.1-0.3,0.5-0.4,0.7c-0.2,0.5-0.2,1.2-1,1.2c0.7-1.8,0.7-1.8-1.1-2.5
		c-1-0.4-2-0.9-3-1.3c0.3-0.3,0.7-0.3,1.2-0.3c3.7,0,7.4,0,11,0C133.1,76.3,133.6,76.2,133.9,76.6z"/>
	<path class="st110" d="M113.4,79.7c-1.9,0-3.8,0-5.6,0c0-0.8,0-1.7,0-2.5c1.3,0,2.6,0,4,0c0.7,0,1.2,0,1.1,0.9
		c0,0.2,0.2,0.5,0.3,0.7C113.3,79.1,113.4,79.4,113.4,79.7z"/>
	<path class="st111" d="M124.6,80.4c0.6-0.4,0.8-1.1,0.8-1.7c0-0.4,0.1-0.5,0.5-0.5c0.3,0,0.7,0,1,0c0.5-0.1,0.8,0.1,1,0.7
		c0.2,0.4,0.3,0.9,0.8,1.2c0.3,0.4,0.6,0.8,0.9,1.3c-1.7-1-3.5-0.5-5.4-0.4C124.3,80.7,124.4,80.5,124.6,80.4z"/>
</g>
<circle class="st112" cx="125.7" cy="82.4" r="47.7"/>
</svg>
