<?xml version="1.0" encoding="utf-8"?>
<!-- Generator: Adobe Illustrator 25.2.1, SVG Export Plug-In . SVG Version: 6.00 Build 0)  -->
<svg version="1.1" id="Layer_1" xmlns:v="https://vecta.io/nano"
	 xmlns="http://www.w3.org/2000/svg" xmlns:xlink="http://www.w3.org/1999/xlink" x="0px" y="0px" viewBox="0 0 186 171"
	 style="enable-background:new 0 0 186 171;" xml:space="preserve">
<style type="text/css">
	.st0{fill:#FEC803;}
	.st1{fill:#F0B90B;}
	.st2{opacity:0.1;fill:none;stroke:#191326;stroke-width:3;enable-background:new    ;}
	.st3{fill:#FFFFFF;}
	.st4{opacity:0.4;fill:none;stroke:#565656;stroke-width:2.837;enable-background:new    ;}
	.st5{fill:#23292F;}
</style>
<g>
	<path class="st0" d="M172.4,95c-1-7.8-6.2-14.9-13.3-18.2c-8.6-4-18.7-2.6-27.8-5.3c-11.8-3.5-20.4-13.3-30.9-19.8
		C88,44.1,73.2,41.4,58.8,38.8C49.2,37.1,39.1,35.5,30,39c-12.3,4.9-19.5,20-15.5,32.6c6.8,21.4,37,27.1,46.2,47.6
		c4.8,10.6,3.2,24.1,10.7,32.9c9,10.5,25.5,8.7,38.9,5.5c10.2-2.5,20.3-5.3,30.4-8.2c8.2-2.3,16.8-4.8,22.8-10.8
		c7.5-7.4,4.4-13.1,4.3-21.7C167.9,109.5,173.5,103.3,172.4,95z"/>
</g>
<circle class="st1" cx="70.2" cy="39.8" r="29"/>
<circle class="st2" cx="70.2" cy="39.8" r="27.5"/>
<circle class="st3" cx="119.7" cy="83.3" r="43.5"/>
<circle class="st4" cx="119.7" cy="83.3" r="42.1"/>
<g>
	<path class="st3" d="M63.2,36.8c-0.1-0.1-0.2-0.1-0.2-0.2c-1.2-1.2-2.4-2.4-3.7-3.6c-0.2-0.2-0.2-0.3,0-0.5
		c3.6-3.5,7.1-7.1,10.6-10.6c0.2-0.2,0.3-0.2,0.5,0c3.5,3.5,7.1,7.1,10.6,10.6c0.2,0.2,0.2,0.3,0,0.5c-1.2,1.2-2.4,2.4-3.6,3.6
		c-0.3,0.3-0.4,0.1-0.6-0.1c-2.1-2.1-4.2-4.2-6.3-6.4c-0.3-0.3-0.4-0.3-0.7,0c-2.1,2.1-4.2,4.2-6.3,6.3
		C63.5,36.6,63.3,36.7,63.2,36.8z"/>
	<path class="st3" d="M70.2,57.9c-0.1-0.1-0.1-0.1-0.2-0.2c-3.6-3.5-7.1-7.1-10.7-10.6c-0.2-0.2-0.2-0.3,0-0.5
		c1.2-1.2,2.4-2.4,3.6-3.6c0.3-0.3,0.4-0.1,0.6,0.1c2.1,2.1,4.2,4.2,6.3,6.3c0.3,0.3,0.5,0.3,0.8,0c2.1-2.1,4.2-4.2,6.3-6.3
		c0.3-0.3,0.4-0.3,0.7,0c1.1,1.2,2.3,2.3,3.5,3.5c0.2,0.2,0.2,0.3,0,0.6c-3.5,3.5-7.1,7-10.6,10.6C70.4,57.8,70.4,57.9,70.2,57.9z"
		/>
	<path class="st3" d="M56.2,35.7c0.1,0.1,0.2,0.1,0.2,0.2c1.2,1.2,2.4,2.4,3.6,3.6c0.2,0.2,0.2,0.3,0,0.5c-1.2,1.2-2.4,2.4-3.6,3.6
		c-0.2,0.2-0.3,0.2-0.5,0c-1.2-1.2-2.4-2.4-3.6-3.6c-0.1-0.1-0.3-0.2,0-0.5c1.2-1.2,2.5-2.5,3.7-3.7C56,35.8,56.1,35.8,56.2,35.7z"
		/>
	<path class="st3" d="M84.3,43.9c-0.1-0.1-0.2-0.1-0.2-0.2c-1.2-1.2-2.4-2.4-3.6-3.6c-0.2-0.2-0.2-0.3,0-0.5
		c1.2-1.2,2.4-2.4,3.6-3.6c0.2-0.2,0.3-0.2,0.5,0c1.2,1.2,2.4,2.4,3.6,3.6c0.2,0.2,0.2,0.3,0,0.5c-1.2,1.2-2.4,2.4-3.6,3.6
		C84.5,43.7,84.4,43.8,84.3,43.9z"/>
	<path class="st3" d="M70.2,35.7c0.2,0,0.2,0.1,0.3,0.2c1.2,1.2,2.4,2.4,3.6,3.6c0.2,0.2,0.2,0.3,0,0.5c-1.2,1.2-2.4,2.4-3.6,3.6
		c-0.2,0.2-0.3,0.2-0.5,0c-1.2-1.2-2.4-2.4-3.6-3.6c-0.2-0.2-0.2-0.3,0-0.5c1.2-1.2,2.4-2.4,3.6-3.6C70.1,35.9,70.1,35.8,70.2,35.7z
		"/>
</g>
<g id="Layer_2_1_">
	<g id="Layer_1-2">
		<path class="st5" d="M137.7,62.2h7.4l-15.3,15.2c-5.6,5.5-14.6,5.5-20.1,0L94.3,62.2h7.4l11.7,11.5c3.5,3.5,9.2,3.5,12.7,0
			L137.7,62.2z"/>
		<path class="st5" d="M101.6,104.4h-7.4l15.4-15.3c5.6-5.5,14.6-5.5,20.1,0l15.4,15.3h-7.4l-11.8-11.6c-3.5-3.5-9.2-3.5-12.7,0
			L101.6,104.4z"/>
	</g>
</g>
</svg>
