<svg width="489" height="211" viewBox="0 0 489 211" fill="none" xmlns="http://www.w3.org/2000/svg">
<mask id="mask0" mask-type="alpha" maskUnits="userSpaceOnUse" x="0" y="0" width="489" height="211">
<rect width="488.684" height="211" rx="20" fill="white"/>
</mask>
<g mask="url(#mask0)">
<path d="M545.342 44.4886C518.988 21.9111 480.927 13.879 447.722 23.855C407.572 35.8917 378.378 70.5992 340.549 88.6793C291.466 112.108 233.905 105.215 180.458 114.947C116.757 126.54 60.0528 161.496 5.11525 195.773C-31.3802 218.535 -69.6656 243.181 -88.8788 281.666C-115.105 334.209 -93.9957 405.314 -43.4254 435.005C42.3844 485.387 158.525 414.458 249.488 454.828C296.612 475.742 331.083 524.69 382.238 531.353C442.822 539.207 491.878 484.738 526.364 434.296C552.616 395.917 577.516 356.636 602.442 317.382C622.594 285.573 643.383 251.967 645.758 214.37C648.688 167.963 621.648 158.139 595.838 130.147C573.114 105.419 573.475 68.579 545.342 44.4886Z" fill="#FEC803"/>
</g>
</svg>
