<svg width="64" height="64" viewBox="0 0 64 64" fill="none" xmlns="http://www.w3.org/2000/svg">
<path d="M32 64C49.6731 64 64 49.6731 64 32C64 14.3269 49.6731 0 32 0C14.3269 0 0 14.3269 0 32C0 49.6731 14.3269 64 32 64Z" fill="white"/>
<circle cx="32" cy="32" r="29" fill="#2A2A2A"/>
<path d="M53.9268 31.5307H38.1559M16.377 45.0487C16.377 45.0487 24.2054 41.2937 32.5234 41.2937C40.8415 41.2937 48.6698 45.0487 48.6698 45.0487H16.377ZM38.1559 28.1512C38.1559 32.2472 35.4936 35.2857 32.5234 35.2857C29.5532 35.2857 26.8909 32.2472 26.8909 28.1512C26.8909 24.0553 29.5532 21.0167 32.5234 21.0167C35.4936 21.0167 38.1559 24.0553 38.1559 28.1512ZM26.8909 31.5307H11.12H26.8909ZM28.3929 23.2697H21.634H28.3929ZM35.9029 26.2737H29.1439H35.9029ZM43.4129 23.2697H36.6539H43.4129ZM32.5234 21.0167V15.7598V21.0167Z" stroke="white" stroke-width="1.5" stroke-linecap="round" stroke-linejoin="round"/>
<path d="M43.0373 36.7863C44.489 36.7863 45.6658 35.6095 45.6658 34.1578C45.6658 32.7061 44.489 31.5293 43.0373 31.5293C41.5856 31.5293 40.4088 32.7061 40.4088 34.1578C40.4088 35.6095 41.5856 36.7863 43.0373 36.7863Z" stroke="white" stroke-width="1.5" stroke-linecap="round" stroke-linejoin="round"/>
<path d="M22.0095 36.7863C23.4611 36.7863 24.638 35.6095 24.638 34.1578C24.638 32.7061 23.4611 31.5293 22.0095 31.5293C20.5578 31.5293 19.381 32.7061 19.381 34.1578C19.381 35.6095 20.5578 36.7863 22.0095 36.7863Z" stroke="white" stroke-width="1.5" stroke-linecap="round" stroke-linejoin="round"/>
</svg>
