<svg width="64" height="64" viewBox="0 0 64 64" fill="none" xmlns="http://www.w3.org/2000/svg">
<path d="M32 64C49.6731 64 64 49.6731 64 32C64 14.3269 49.6731 0 32 0C14.3269 0 0 14.3269 0 32C0 49.6731 14.3269 64 32 64Z" fill="white"/>
<circle cx="32" cy="32" r="29" fill="#2A2A2A"/>
<path d="M46.2436 28.4146C44.9551 28.4146 43.6653 28.4328 42.3768 28.4041C41.95 28.395 41.79 28.5517 41.7099 28.933C41.4325 30.2716 41.1457 31.6101 40.8336 32.9408C40.7282 33.3901 40.8616 33.5011 41.3111 33.4972C43.2225 33.4776 45.1339 33.4998 47.0452 33.4815C47.4854 33.4776 47.6041 33.5533 47.4921 34.0208C47.0666 35.7956 46.6651 37.5768 46.3183 39.3672C46.2249 39.8465 46.0102 39.8896 45.6087 39.887C43.72 39.8726 41.83 39.8935 39.9413 39.8713C39.4918 39.8661 39.2824 39.9601 39.181 40.4342C38.5448 43.4064 37.8539 46.3682 37.2243 49.3431C37.1149 49.8576 36.9228 50.0026 36.404 50C29.0039 49.9647 21.6039 49.9503 14.2039 49.9229C13.605 49.9203 13.0074 49.8537 12.4085 49.8341C12.0444 49.8224 11.9497 49.6461 12.0231 49.3274C12.4472 47.4848 12.6686 45.6095 12.9714 43.7473C13.0328 43.3672 13.1995 43.2575 13.585 43.2654C14.7627 43.2876 15.9405 43.2719 17.1183 43.2628C21.76 43.2262 26.4017 43.1753 31.0434 43.1622C31.5902 43.1609 31.7703 42.9533 31.8703 42.491C32.9761 37.3522 34.0925 32.2148 35.2036 27.0773C35.5157 25.633 35.8291 24.1886 36.1159 22.7404C36.2159 22.2311 36.384 21.9712 37.0055 22.0025C38.7995 22.0913 40.6055 22.1096 42.3942 22.0731C45.3913 22.0117 48.3884 22.094 51.3841 22.0065C52.0244 21.9882 52.0644 22.2232 51.9497 22.7234C51.5469 24.4812 51.1534 26.2415 50.7879 28.0058C50.7079 28.3911 50.4972 28.4211 50.1784 28.4198C48.8659 28.4093 47.5547 28.4146 46.2436 28.4146Z" fill="#FEC803"/>
<path d="M29.9299 22.0254C30.8153 21.9641 31.6431 22.1011 32.4721 22.0959C33.0012 22.092 33.0576 22.2707 32.9615 22.7431C32.3747 25.6292 31.8173 28.5218 31.2446 31.4105C30.6629 34.3449 30.067 37.2753 29.4943 40.211C29.3982 40.7055 29.2291 40.9234 28.6704 40.9143C27.2648 40.8921 25.8579 40.9652 24.4511 40.9978C24.2589 41.0017 24.0667 41.0017 23.8745 40.9873C22.9263 40.9169 22.9058 40.9104 23.0929 39.9488C23.9578 35.527 24.8342 31.1091 25.7068 26.6886C25.9707 25.3486 26.2526 24.0126 26.4871 22.6674C26.5575 22.2616 26.719 22.1168 27.1098 22.1181C28.0669 22.1233 29.0202 21.9328 29.9299 22.0254Z" fill="#FEC803"/>
<path d="M19.8266 27.0165C20.7081 27.0165 21.5921 27.0517 22.4711 27.003C22.9932 26.9732 23.0575 27.1653 22.9642 27.6522C22.3236 30.9972 21.7006 34.3449 21.0701 37.6925C20.9011 38.5934 20.7195 39.4915 20.558 40.395C20.5013 40.7142 20.4193 40.9036 20.0473 40.9077C18.3915 40.9198 16.7357 40.9888 15.0786 40.9996C13.955 41.0078 13.873 40.886 14.1051 39.7431C14.9311 35.6623 15.7685 31.5829 16.5882 27.5007C16.6651 27.1152 16.8202 26.9976 17.1809 27.0097C18.0624 27.0354 18.9451 27.0165 19.8266 27.0165Z" fill="#FEC803"/>
<path d="M40.9082 15.0072C41.8227 15.0072 42.7372 15.0162 43.6516 15.002C43.9708 14.9968 44.0449 15.0733 43.9768 15.443C43.7353 16.7518 43.5273 18.0696 43.3337 19.3875C43.2643 19.857 43.0778 20.0075 42.632 19.9997C40.9429 19.9686 39.2526 19.9725 37.5635 19.9971C37.1044 20.0036 36.9204 19.9141 37.0315 19.3576C37.2885 18.0761 37.5216 16.7881 37.7069 15.4923C37.7703 15.0474 37.9436 14.9929 38.2867 15.0007C39.1593 15.0201 40.0332 15.0072 40.9082 15.0072Z" fill="#FEC803"/>
</svg>
