<?xml version="1.0" encoding="utf-8"?>
<!-- Generator: Adobe Illustrator 25.2.3, SVG Export Plug-In . SVG Version: 6.00 Build 0)  -->
<svg version="1.1" id="Layer_1" xmlns:v="https://vecta.io/nano"
	 xmlns="http://www.w3.org/2000/svg" xmlns:xlink="http://www.w3.org/1999/xlink" x="0px" y="0px" viewBox="0 0 186 171"
	 style="enable-background:new 0 0 186 171;" xml:space="preserve">
<style type="text/css">
	.st0{fill:#FEC803;}
	.st1{fill-rule:evenodd;clip-rule:evenodd;fill:#FAF4E6;}
	.st2{fill:#FFECB3;}
	.st3{fill:#FFE082;}
	.st4{fill:#FFD54F;}
	.st5{fill:#FFCA28;}
	.st6{fill:#FFB300;}
	.st7{fill:none;stroke:#FFB300;stroke-width:4;stroke-miterlimit:10;}
</style>
<g>
	<path class="st0" d="M172.4,95c-1-7.8-6.2-14.9-13.3-18.2c-8.6-4-18.7-2.6-27.8-5.3c-11.8-3.5-20.4-13.3-30.9-19.8
		C88,44.1,73.2,41.4,58.8,38.8C49.2,37.1,39.1,35.5,30,39c-12.3,4.9-19.5,20-15.5,32.6c6.8,21.4,37,27.1,46.2,47.6
		c4.8,10.6,3.2,24.1,10.7,32.9c9,10.5,25.5,8.7,38.9,5.5c10.2-2.5,20.3-5.3,30.4-8.2c8.2-2.3,16.8-4.8,22.8-10.8
		c7.5-7.4,4.4-13.1,4.3-21.7C167.9,109.5,173.5,103.3,172.4,95z"/>
</g>
<path class="st1" d="M48.1,86c0-24.5,19.8-44.3,44.3-44.3s44.3,19.8,44.3,44.3s-19.8,44.3-44.3,44.3S48.1,110.5,48.1,86z"/>
<path class="st2" d="M108,97.5c0,0-4-2.1-7.9-7.1c-2.4-3.1-4.3-6.7-5.5-10.5C93,74.2,94.2,66,93.2,61.4c-1.1-4.9-4.5-5.8-5.6-5.9
	c-3-0.1-6.1,2.5-6.7,8c-2.6,22.9,7.4,37,21.9,44.8c2.8,1.4,6.6,0.3,8.1-2.7C112.2,102.5,111,98.9,108,97.5z"/>
<path class="st3" d="M108,97.5c0,0-4-2.1-7.9-7.1c-2.4-3.1-4.3-6.7-5.5-10.5C93,74.2,94.2,66,93.2,61.4c-1.1-4.9-4.5-5.8-5.6-5.9
	c-0.7,0-1.4,0.1-2,0.4c1.4,0.6,3.3,2,4.2,5.5c1,4.6-0.2,12.8,1.5,18.4c1.2,3.9,3,7.5,5.5,10.5c3.8,5,7.8,7.1,7.9,7.1
	c2.9,1.5,4.2,5.1,2.7,8.1c-0.7,1.5-2.1,2.6-3.6,3c2.7,0.8,5.9-0.4,7.2-3C112.2,102.5,111,98.9,108,97.5z"/>
<path class="st4" d="M90.4,85.9c0,0-6.8-8.7-15.9-9.1c-9.1-0.4-8.9,13.9-11.8,15.4c-3,1.5-2.8,3-2.8,3s0.1,1.4,2.6,0.5
	c2.4-0.9,2.9-1.5,3.8-2.7c0.9-1.1,3-13.2,8.2-12.8c5.2,0.3,6.4,11.3,12.3,17.9c5.8,6.6,12.5,11.6,19.4,11.1c6.3-0.4,8.5,1.4,10,2.2
	c0.3,0.1,0.6,0,0.7-0.2l1.5-2.9c0.1-0.3,0-0.6-0.3-0.7c-1.2-0.5-4.3-2-5.7-4.7c-1.8-3.3-0.2-2.5-5.8-7.2c-5.6-4.7-8.5-11.6-8.4-14.4
	c0.1-2.7-0.4-8.7,4.7-8.6c5.1,0.1,6,8.7,8.5,11.5c2.3,2.5,3.6,0.3,3.6,0.3s0.5-1.5-1.8-3.2c-1.6-1.2-3.2-12-10.2-11.8
	C96.1,69.6,90.1,75.2,90.4,85.9z"/>
<path class="st5" d="M118.1,107.6c-1.2-0.5-4.3-2-5.7-4.7c-1.8-3.3-0.2-2.5-5.8-7.2c-5.6-4.7-8.5-11.6-8.4-14.4
	c0.1-2.7-0.4-8.7,4.7-8.6c5.1,0.1,6,8.7,8.5,11.5c2.3,2.5,3.6,0.3,3.6,0.3s0.5-1.5-1.8-3.2c-1.6-1.2-3.2-12-10.2-11.8
	c-5.9,0.1-11,4.2-12.4,11.6c-0.2,2.8-0.3,4.8-0.3,4.8s1.4,10.8,10.8,15.2c9.5,4.4,6.4,5.9,11.4,8.8l0,0c1.6,0.5,2.6,1.2,3.4,1.6
	c0.3,0.1,0.6,0,0.7-0.2l1.5-2.9C118.5,108.1,118.4,107.7,118.1,107.6z"/>
<path class="st6" d="M118.1,107.6c-1.2-0.5-4.3-2-5.7-4.7c-1.8-3.3-0.2-2.5-5.8-7.2c-5.6-4.7-8.5-11.6-8.4-14.4
	c0.1-2.3-0.2-7,2.7-8.3c-3.5,1.2-6.3,3.8-6.3,8.3c0,4.4,2.8,9.7,8.4,14.4s3.7,3.9,5.8,7.2c2.5,4.3,6.6,4,6.9,8.4
	c0.1,0.1,0.2,0.1,0.3,0.2c0.3,0.1,0.6,0,0.7-0.2l1.5-2.9C118.5,108.1,118.4,107.7,118.1,107.6z"/>
<path class="st7" d="M48.1,86c0-24.5,19.8-44.3,44.3-44.3s44.3,19.8,44.3,44.3s-19.8,44.3-44.3,44.3S48.1,110.5,48.1,86z"/>
</svg>
