<?xml version="1.0" encoding="utf-8"?>
<!-- Generator: Adobe Illustrator 25.3.1, SVG Export Plug-In . SVG Version: 6.00 Build 0)  -->
<svg version="1.1" id="Layer_1" xmlns:v="https://vecta.io/nano"
	 xmlns="http://www.w3.org/2000/svg" xmlns:xlink="http://www.w3.org/1999/xlink" x="0px" y="0px" viewBox="0 0 186 171"
	 style="enable-background:new 0 0 186 171;" xml:space="preserve">
<style type="text/css">
	.st0{fill:#FEC803;}
	.st1{fill:url(#SVGID_1_);}
	.st2{fill:#FFFFFF;}
	.st3{fill:#E84B21;}
	.st4{opacity:0.1;fill:none;stroke:#191326;stroke-width:3;enable-background:new    ;}
</style>
<g>
	<path class="st0" d="M172.4,95c-1-7.8-6.2-14.9-13.3-18.2c-8.6-4-18.7-2.6-27.8-5.3c-11.8-3.5-20.4-13.3-30.9-19.8
		C88,44.1,73.2,41.4,58.8,38.8C49.2,37.1,39.1,35.5,30,39c-12.3,4.9-19.5,20-15.5,32.6c6.8,21.4,37,27.1,46.2,47.6
		c4.8,10.6,3.2,24.1,10.7,32.9c9,10.5,25.5,8.7,38.9,5.5c10.2-2.5,20.3-5.3,30.4-8.2c8.2-2.3,16.8-4.8,22.8-10.8
		c7.5-7.4,4.4-13.1,4.3-21.7C167.9,109.5,173.5,103.3,172.4,95z"/>
</g>
<g>
	
		<linearGradient id="SVGID_1_" gradientUnits="userSpaceOnUse" x1="93" y1="45.4488" x2="93" y2="132.1118" gradientTransform="matrix(1 0 0 -1 0 171.2756)">
		<stop  offset="0" style="stop-color:#E83F1B"/>
		<stop  offset="0.5216" style="stop-color:#F96E39"/>
		<stop  offset="1" style="stop-color:#FF713E"/>
	</linearGradient>
	<circle class="st1" cx="93" cy="82.5" r="43.3"/>
</g>
<g>
	<g>
		<g>
			<path class="st2" d="M77.6,59.1c1.5-2.2,3.6-3.5,5.8-3.5s4.4,1.3,5.8,3.5c1.4,2,2.1,4.7,2.1,7.5S90.6,72,89.3,74
				c-1.5,2.2-3.6,3.5-5.8,3.5s-4.4-1.3-5.8-3.5c-1.4-2-2.1-4.7-2.1-7.5C75.5,63.8,76.2,61.1,77.6,59.1z"/>
		</g>
		<g>
			<path class="st2" d="M96.7,59.1c1.5-2.2,3.6-3.5,5.8-3.5c2.2,0,4.4,1.3,5.8,3.5c1.4,2,2.1,4.7,2.1,7.5s-0.8,5.4-2.1,7.5
				c-1.5,2.2-3.6,3.5-5.8,3.5c-2.2,0-4.4-1.3-5.8-3.5c-1.4-2-2.1-4.7-2.1-7.5C94.6,63.8,95.4,61.1,96.7,59.1z"/>
		</g>
		<g>
			<path class="st2" d="M70.4,88.2c-0.9,0-1.7-0.2-2.6-0.6c-2-0.9-3.7-2.9-4.5-5.4l0,0c-0.7-2-0.8-4.1-0.2-6c0.6-2,1.9-3.5,3.6-4.2
				c1.4-0.5,3-0.4,4.4,0.2c2,0.9,3.7,2.9,4.5,5.4c0.7,2,0.8,4.1,0.2,6c-0.6,2-1.9,3.5-3.6,4.2C71.7,88.1,71.1,88.2,70.4,88.2z"/>
		</g>
		<g>
			<path class="st2" d="M115.5,88.2c0.9,0,1.7-0.2,2.6-0.6c2-0.9,3.7-2.9,4.5-5.4l0,0c0.7-2,0.8-4.1,0.2-6c-0.6-2-1.9-3.5-3.6-4.2
				c-1.4-0.5-3-0.4-4.4,0.2c-2,0.9-3.7,2.9-4.5,5.4c-0.7,2-0.8,4.1-0.2,6c0.6,2,1.9,3.5,3.6,4.2C114.3,88.1,114.9,88.2,115.5,88.2z"
				/>
		</g>
		<g>
			<path class="st2" d="M111.1,106c-3,2.5-8.3,1.5-13,0.7c-2-0.4-3.9-0.7-5.2-0.7c-1.5,0-3.5,0.4-5.7,0.8c-2.4,0.4-4.9,0.9-7.1,0.9
				c-2.1,0-4-0.4-5.4-1.6c-1.4-1.2-2.2-3-2.2-5.4c0-4.9,2.2-10.5,5.8-14.9c4.1-4.9,9.2-7.6,14.5-7.6s10.4,2.7,14.5,7.6
				c3.7,4.4,5.8,10,5.8,14.9C113.3,103,112.6,104.8,111.1,106z"/>
		</g>
	</g>
	<polygon class="st3" points="93,84.1 95.4,91.4 103.1,91.4 96.9,96 99.2,103.3 93,98.8 86.7,103.3 89.1,96 82.9,91.4 90.6,91.4 	
		"/>
</g>
<circle class="st4" cx="93" cy="83.3" r="42.1"/>
</svg>
