<?xml version="1.0" encoding="utf-8"?>
<!-- Generator: Adobe Illustrator 25.2.3, SVG Export Plug-In . SVG Version: 6.00 Build 0)  -->
<svg version="1.1" id="Layer_1" xmlns:v="https://vecta.io/nano"
	 xmlns="http://www.w3.org/2000/svg" xmlns:xlink="http://www.w3.org/1999/xlink" x="0px" y="0px" viewBox="0 0 186 171"
	 style="enable-background:new 0 0 186 171;" xml:space="preserve">
<style type="text/css">
	.st0{fill:#FEC803;}
	.st1{fill:#FFFFFF;}
	.st2{fill:#FE8B00;}
	.st3{fill:#FEBA6B;}
	.st4{fill:#FEB55C;}
	.st5{fill:#FEB153;}
	.st6{fill:#FEBD6F;}
	.st7{fill:#100F0C;}
</style>
<g>
	<path class="st0" d="M172.4,95c-1-7.8-6.2-14.9-13.3-18.2c-8.6-4-18.7-2.6-27.8-5.3c-11.8-3.5-20.4-13.3-30.9-19.8
		C88,44.1,73.2,41.4,58.8,38.8C49.2,37.1,39.1,35.5,30,39c-12.3,4.9-19.5,20-15.5,32.6c6.8,21.4,37,27.1,46.2,47.6
		c4.8,10.6,3.2,24.1,10.7,32.9c9,10.5,25.5,8.7,38.9,5.5c10.2-2.5,20.3-5.3,30.4-8.2c8.2-2.3,16.8-4.8,22.8-10.8
		c7.5-7.4,4.4-13.1,4.3-21.7C167.9,109.5,173.5,103.3,172.4,95z"/>
</g>
<path class="st1" d="M91.5,122.5c-19-0.7-35.1-16.5-35-36.5c-0.1-20.5,17-36.5,36.5-36.5c19.6,0,37.1,16.4,36.5,37.6
	C129,106.7,112.3,123.3,91.5,122.5z"/>
<g>
	<path class="st2" d="M96,128.8c7.7-0.5,14.7-2.9,21.1-7.2c9.9-6.7,16-16,18.3-27.8c3.3-17-4.1-34.4-18.8-44
		c-7.8-5.1-16.4-7.4-25.6-7C72,43.7,55.8,57,51.2,75.5c-0.6,2.3-1,4.7-1.1,7.1l0,0h0c0,0.8,0.2,1.6-0.2,2.4c0,0.5,0,0.9,0,1.4
		c0.3,0.8,0.2,1.6,0.1,2.4c0.6,8.5,3.4,16.1,8.5,22.9c6.7,8.8,15.5,14.2,26.3,16.5c1.7,0.3,3.3,0.6,5,0.6l0,0v0
		c0.7,0,1.4-0.2,2.1,0.1c0.6,0,1.1,0,1.7,0C94.4,128.7,95.2,128.9,96,128.8z M91.5,122.5c-19-0.7-35.1-16.5-35-36.5
		c-0.1-20.5,17-36.5,36.5-36.5c19.6,0,37.1,16.4,36.5,37.6C129,106.7,112.3,123.3,91.5,122.5z"/>
	<path class="st3" d="M50,82.7C50,82.7,50,82.7,50,82.7c0-0.1-0.1-0.1-0.1-0.1c0,0.8,0,1.6,0,2.4C50.1,84.3,49.9,83.5,50,82.7z"/>
	<path class="st3" d="M50.1,82.6L50.1,82.6C50,82.7,50,82.7,50.1,82.6C50,82.7,50,82.7,50,82.7c-0.1,0.8,0.1,1.5-0.1,2.3
		C50.2,84.2,50.1,83.4,50.1,82.6z"/>
	<path class="st3" d="M50,82.7C50,82.7,50,82.6,50,82.7C50,82.6,49.9,82.6,50,82.7C49.9,82.7,50,82.7,50,82.7z"/>
	<path class="st3" d="M50.1,82.6C50,82.6,50,82.6,50.1,82.6C50,82.6,50,82.7,50.1,82.6C50,82.7,50,82.7,50.1,82.6z"/>
	<path class="st4" d="M50,88.8C50,88.8,50,88.7,50,88.8c0-0.8,0.1-1.6-0.1-2.4C49.9,87.2,49.9,88,50,88.8C49.9,88.8,50,88.8,50,88.8
		z"/>
	<path class="st4" d="M50,88.7C50,88.7,50,88.8,50,88.7c0,0.1,0,0.1,0.1,0.2c0-0.8,0.2-1.6-0.1-2.4C50.1,87.2,49.9,87.9,50,88.7z"/>
	<path class="st4" d="M50,88.8C50,88.8,49.9,88.8,50,88.8C49.9,88.9,50,88.9,50,88.8C50,88.8,50,88.8,50,88.8z"/>
	<path class="st4" d="M50,88.8C50,88.8,50,88.8,50,88.8C50,88.9,50,88.9,50,88.8C50,88.8,50,88.8,50,88.8z"/>
	<path class="st5" d="M95.9,128.9C95.8,128.9,95.8,128.9,95.9,128.9c-0.8,0-1.5-0.1-2.2,0.1C94.4,129,95.2,129,95.9,128.9
		C95.9,129,95.9,128.9,95.9,128.9z"/>
	<path class="st5" d="M95.8,128.9C95.8,128.9,95.8,128.9,95.8,128.9C95.9,128.9,95.9,128.9,95.8,128.9c0.1,0,0.1-0.1,0.1-0.1
		c-0.8,0-1.5-0.2-2.3,0.1C94.4,128.8,95.1,128.9,95.8,128.9z"/>
	<path class="st5" d="M95.9,128.9C95.9,128.9,95.9,129,95.9,128.9C95.9,129,95.9,128.9,95.9,128.9C95.9,128.9,95.9,128.9,95.9,128.9
		z"/>
	<path class="st5" d="M95.9,128.9C95.9,128.9,95.9,128.9,95.9,128.9C95.9,128.9,95.9,128.9,95.9,128.9
		C95.9,128.9,95.9,128.9,95.9,128.9C95.9,128.8,95.9,128.9,95.9,128.9z"/>
	<path class="st6" d="M90,128.9C90,128.9,90,128.9,90,128.9C89.9,128.9,89.9,128.9,90,128.9c-0.1,0.1-0.1,0.1-0.1,0.1
		c0.7,0,1.4,0,2.1,0C91.3,128.8,90.6,129,90,128.9z"/>
	<path class="st6" d="M89.9,128.8L89.9,128.8C89.9,128.9,89.9,128.9,89.9,128.8c0.1,0.1,0.1,0.1,0.1,0.1c0.7,0.1,1.3-0.1,2,0.1
		C91.3,128.7,90.6,128.9,89.9,128.8z"/>
	<path class="st6" d="M89.9,128.9C89.9,128.9,89.9,128.9,89.9,128.9C89.9,128.9,89.9,128.9,89.9,128.9
		C89.9,128.9,89.9,129,89.9,128.9C89.9,129,89.9,129,89.9,128.9z"/>
	<path class="st6" d="M89.9,128.9C89.9,128.9,89.9,128.9,89.9,128.9C89.9,128.9,89.9,128.9,89.9,128.9
		C89.9,128.9,89.9,128.9,89.9,128.9z"/>
	<path class="st7" d="M104.5,79.7c-0.3,0-0.6,0-0.6,0.4c-0.3,1.5-0.5,3-0.8,4.6c2.5-0.9,3.6-0.8,5.6,0.2c3.1,1.6,4.2,5.8,2.3,8.7
		c-1.5,2.3-4,3.3-6.6,2.7c-0.6-0.1-0.9-0.1-0.9,0.7c0.1,0.7,0,1.3,0,2c0,1.9,0.1,2.1,2.1,2c4.4-0.1,7.9-2.1,9.8-6.1
		c1.9-4,1.3-7.9-1.4-11.4C111.6,80.4,108.4,79.3,104.5,79.7z"/>
	<path d="M102.3,100.3c0-4.5,0-9.1,0-13.6c0-0.7-0.2-0.6-0.7-0.4c-1,0.5-2.1,0.9-3.2,1c-0.7,0.1-0.9,0.4-0.9,1.1c0,8.3,0,16.6,0,25
		c0,0.3,0,0.5,0,0.9c1.4-0.9,2.6-1.7,3.9-2.4c0.6-0.4,0.9-0.8,0.9-1.5C102.2,107,102.3,103.7,102.3,100.3z"/>
	<path class="st7" d="M79.9,67.5c1.7-0.5,2.2-1.3,2-2.9c0-0.6,0-1.2,0-1.8c0-0.5-0.2-0.6-0.6-0.5c-0.8,0.1-1.5,0.3-2.3,0.5
		c-5.2,1.5-8.5,6.7-7.7,12.1c0.8,5.1,4.7,9,9.7,9.5c0.6,0.1,0.8,0,0.7-0.6c-0.2-1.2-0.3-2.4-0.5-3.7c0-0.4-0.3-0.5-0.6-0.5
		c-2.6-0.7-4.6-3-4.8-5.7C75.7,71,77.3,68.2,79.9,67.5z"/>
	<path d="M101.5,84.3c0.2-1.2,0.4-2.3,0.6-3.5c0.1-0.4,0-0.5-0.4-0.4c-2.9,0.8-5.8,1.2-8.8,1.2c-3.4,0-6.7-0.1-9.9-1.8
		c0.2,1.7,0.4,3.2,0.6,4.7c0,0.3,0.2,0.4,0.4,0.5c0.7,0.3,1.3,0.5,2,0.6c2.8,0.5,5.7,0.6,8.5,0.5c2.1-0.1,4.3-0.3,6.3-1.2
		C101.1,84.9,101.5,84.8,101.5,84.3z"/>
	<path d="M87.3,87.5c-1-0.1-2-0.2-2.9-0.6c-0.7-0.3-0.9-0.2-0.9,0.6c0,5.7,0,11.5,0,17.2c0,0.2,0,0.5,0,0.9c1.5-0.9,2.8-1.8,4.2-2.6
		c0.3-0.2,0.3-0.5,0.3-0.7c0-4.7,0-9.4,0-14C87.9,87.7,87.8,87.5,87.3,87.5z"/>
	<path d="M98.1,79.4c1.3-0.2,2.5-0.5,3.6-1.1c0.4-0.2,0.6-0.4,0.6-0.9c0-5.1,0-10.3,0-15.4c0-0.1,0-0.3,0-0.5
		c-1.5,0.9-3,1.8-4.4,2.7c-0.2,0.1-0.2,0.4-0.2,0.6c0,4.7,0,9.5,0,14.2C97.6,79.4,97.7,79.5,98.1,79.4z"/>
	<path d="M86.4,79.6c0.1,0,0.3,0.1,0.4,0.1c0.6,0.2,0.8,0,0.8-0.7c0-5.3,0-10.7,0-16c0-0.2,0-0.4,0-0.8c-1.3,0.7-2.5,1.4-3.7,2
		c-0.5,0.3-0.7,0.6-0.7,1.1c0,3.4,0,6.8,0,10.2C83.2,78.8,83.2,78.8,86.4,79.6z"/>
</g>
</svg>
