<?xml version="1.0" encoding="utf-8"?>
<!-- Generator: Adobe Illustrator 25.2.3, SVG Export Plug-In . SVG Version: 6.00 Build 0)  -->
<svg version="1.1" id="Layer_1" xmlns:v="https://vecta.io/nano"
	 xmlns="http://www.w3.org/2000/svg" xmlns:xlink="http://www.w3.org/1999/xlink" x="0px" y="0px" viewBox="0 0 186 171"
	 style="enable-background:new 0 0 186 171;" xml:space="preserve">
<style type="text/css">
	.st0{fill:#FEC803;}
	.st1{fill:#3C3D3F;}
	.st2{fill:#1E1E1E;}
	.st3{fill:#1F1F1F;}
	.st4{fill:#1E1E1D;}
	.st5{fill:#1F1F1E;}
	.st6{fill:#2D2C24;}
	.st7{fill:#1C1C1C;}
	.st8{fill:#3D3C40;}
	.st9{fill:#414337;}
	.st10{fill:#434334;}
	.st11{fill:#40412B;}
	.st12{fill:#434336;}
	.st13{fill:#0F0E11;}
	.st14{fill:#161617;}
	.st15{fill:#535032;}
	.st16{fill:#0E0E12;}
	.st17{fill:#1F1F20;}
	.st18{fill:#181917;}
	.st19{fill:#0F0E12;}
	.st20{fill:#3C3C3B;}
	.st21{fill:#444333;}
	.st22{fill:#3B3B3B;}
	.st23{fill:#8F873B;}
	.st24{fill:#848247;}
	.st25{fill:#5A5633;}
	.st26{fill:#7B733A;}
	.st27{fill:#6D6637;}
	.st28{fill:#4F4D30;}
	.st29{fill:#605C3C;}
	.st30{fill:#6E6A3A;}
	.st31{fill:#5E5C2C;}
	.st32{fill:#1A1A16;}
	.st33{fill:#535135;}
	.st34{fill:#191812;}
	.st35{fill:#6D6832;}
	.st36{fill:#A19D45;}
	.st37{fill:#A0953F;}
	.st38{fill:#A29E45;}
	.st39{fill:#857B38;}
	.st40{fill:#686225;}
	.st41{fill:#928F4A;}
	.st42{fill:#9A903E;}
	.st43{fill:#807A3D;}
	.st44{opacity:0.1;fill:none;stroke:#191326;stroke-width:3;enable-background:new    ;}
</style>
<g>
	<path class="st0" d="M172.4,95c-1-7.8-6.2-14.9-13.3-18.2c-8.6-4-18.7-2.6-27.8-5.3c-11.8-3.5-20.4-13.3-30.9-19.8
		C88,44.1,73.2,41.4,58.8,38.8C49.2,37.1,39.1,35.5,30,39c-12.3,4.9-19.5,20-15.5,32.6c6.8,21.4,37,27.1,46.2,47.6
		c4.8,10.6,3.2,24.1,10.7,32.9c9,10.5,25.5,8.7,38.9,5.5c10.2-2.5,20.3-5.3,30.4-8.2c8.2-2.3,16.8-4.8,22.8-10.8
		c7.5-7.4,4.4-13.1,4.3-21.7C167.9,109.5,173.5,103.3,172.4,95z"/>
</g>
<g id="Qk9tCS_1_">
	<g>
		<path d="M93.2,125.4c-10.8-0.2-20.4-3.7-28.5-11.1c-7.7-7-12.4-15.9-13.5-26.5c-1.2-10.6,1.5-20.1,7.5-28.7
			c4.6-6.6,10.8-11.3,17.9-14.4c5.5-2.4,11.3-3.5,17.3-3.5c9.5,0.1,18.2,3,25.9,8.8c6,4.5,10.6,10.3,13.4,17.4
			c4.6,11.6,4.3,23.1-1.2,34.3c-4.3,8.8-10.9,15.2-19.5,19.3c-4.5,2.2-9.2,3.6-14.1,4.1C96.6,125.3,94.9,125.4,93.2,125.4z"/>
		<g>
			<path class="st1" d="M67,100.7c-1.4-0.1-2.8,0-4.2-0.1c-0.9,0-1.9-0.1-2.8-0.1c-0.4-0.3-0.5-0.7-0.2-1.1c0.1-0.2,0.3-0.4,0.4-0.6
				c0.9-1.2,1.9-2.5,2.8-3.7c0.8-1.1,1.7-2.3,2.5-3.4c0.3-0.3,0.5-0.6,0.9-0.9c0.5-0.2,1-0.2,1.5-0.2c0.5,0,1.1,0,1.6,0
				c2.4,0,4.8,0.1,7.2,0.2c2.1,0.1,4.2,0.1,6.2,0.2c2.1,0.1,4.1,0.2,6.2,0.1c0.4,0,0.9,0,1.2-0.2c0.1,0,0.2-0.1,0.2-0.2
				c0.5-0.5,0.5-1.2,0.4-1.8c-0.1-0.5-0.5-0.7-0.9-0.8c-0.5-0.2-1.1-0.2-1.6-0.2c-1,0-2.1-0.1-3.1-0.1c-1.9-0.1-3.8-0.1-5.7-0.2
				c-0.8-0.1-1.5,0-2.3-0.1c-2.1-0.2-4.1-0.1-6.2-0.4c-3-0.4-5.7-1.5-7.7-3.8c-1-1.1-1.7-2.5-2-4c-0.4-1.8-0.4-3.5-0.1-5.3
				c0.2-1.4,0.6-2.8,1.4-3.9c1-1.6,2.5-2.8,4.2-3.5c1.2-0.5,2.4-0.8,3.7-1c1.4-0.2,2.8-0.2,4.2-0.1c1.5,0.1,3.1,0.3,4.6,0.4
				c1.2,0.1,2.3,0.1,3.5,0.4c0.2,0,0.5-0.1,0.7,0.1c-0.3,0.3-0.7,0.2-1.1,0.2c-0.2,0-0.5,0-0.7,0c-0.3,0-0.5,0-0.8-0.1
				c-0.4-0.1-0.9-0.1-1.3,0c-0.3,0.1-0.5,0.1-0.8,0.2c-0.2,0-0.3,0-0.5,0.2c0.5-0.1,0.7,0.2,0.7,0.7c0,0.1,0.1,0.3,0.2,0.3
				c0.3,0.1,0.3,0.3,0.4,0.5c0,0.3,0.1,0.6,0.2,0.9c0.1,0.2,0.1,0.3,0.1,0.5c0,1,0,1.9,0.2,2.8c0.1,0.2,0.1,0.4,0.1,0.7
				c-0.1,0.4,0.1,0.6,0.4,0.7c0.4,0.2,0.8,0.4,1.3,0.3c0.1,0,0.2,0,0.4,0.1c0.4,0.2,0.7,0.2,1.1,0.2c0.6,0,1.1,0.1,1.6,0.3
				c0.1,0.1,0.3,0.2,0.4,0.3c0.1,0.1,0.2,0.2,0.1,0.3c-0.7,0.2-1.3,0-2-0.1c-1.3-0.1-2.6-0.2-4-0.3c-1.4-0.1-2.7-0.2-4.1-0.3
				c-0.7,0-1.3-0.1-2,0c1.1-0.2,2.1,0.1,3.2,0.2c1.9,0.1,3.9,0.2,5.8,0.4c0.6,0.1,1.3,0,1.9,0.1c1.1,0.2,2.2,0.1,3.3,0.2
				c1.4,0.1,2.8,0.2,4.2,0.3c0.7,0,1.4,0.1,2.1,0.1c1.2,0.1,2.5,0.2,3.7,0.3c0.4,0,0.8,0.1,1.2,0.1c0.3,0,0.6,0.2,0.8,0.5
				c0.1,0.2,0.1,0.4,0.1,0.6c0,1.1,0,2.2-0.1,3.3c0,0.5,0.1,0.9,0.4,1.3c0.7,0.9,1.3,2,1.7,3.1c0.4,1.2,0.7,2.5,0.8,3.8
				c0.2,2.6-0.3,5-1.3,7.3c-0.5,1-1.1,1.9-1.9,2.8c-0.3,0.3-0.3,0.3,0.1,0.5c0.4,0.2,0.7,0.2,1.1,0.2c1.9,0,3.8,0,5.6,0
				c0.2,0,0.3,0,0.4-0.1c0.1-0.1,0.3-0.2,0.5-0.1c0,0,0.1,0,0.1,0c0.1,0.1,0.2,0.2,0.1,0.4c-0.3,0.5-0.7,0.8-1.3,0.8
				c-2.1,0-4.2,0-6.2,0c-0.8,0-1.2-0.3-1.3-1c0,0,0-0.1,0-0.1c0.3-0.6,0.8-1.1,1.2-1.7c0.5-0.8,1-1.6,1.3-2.4c0.1-0.1,0-0.3,0.1-0.4
				c0,0,0-0.1,0-0.1c0.2-0.5,0.4-1,0.4-1.6c0,0,0-0.1,0-0.1c0.1-0.3,0.1-0.6,0.2-0.9c0,0,0-0.1,0-0.1c0.2-1.9,0.1-3.7-0.4-5.5
				c-0.1-0.4-0.2-0.9-0.5-1.3c0,0,0-0.1,0-0.1c-0.3-0.8-0.7-1.6-1.2-2.3C99.2,82.7,99,82,99,81.2c0-0.9,0.1-1.9,0.1-2.8
				c0-0.6,0-0.7-0.6-0.7c-0.8-0.1-1.5-0.2-2.3-0.2c-1.1,0-2.2-0.2-3.3-0.3C92,77.1,91,77.1,90,77c-1.3-0.1-2.7-0.2-4-0.3
				c-1-0.1-2-0.1-3.1-0.2c-0.9,0-1.8-0.2-2.7-0.2c-1.2-0.1-2.5-0.3-3.7-0.2c-0.9-0.1-1.7-0.2-2.6-0.2c-0.2,0-0.5,0-0.7,0.1
				c-1,0.2-1.3,0.8-1.1,1.8c0.1,0.8,0.7,1.1,1.4,1.2c0.7,0.2,1.4,0.3,2.2,0.3c1.8,0,3.6,0.2,5.4,0.3c0.5,0,1,0.1,1.4,0.1
				c0.8,0,1.5,0.1,2.3,0.1c1.4,0.1,2.8,0.1,4.2,0.2c0.4,0,0.8,0.1,1.2,0.1c0.1,0,0.3-0.1,0.4,0.1c-0.1,0.3-0.4,0.2-0.7,0.2
				c-1.3,0.1-2.5,0-3.7-0.1c-0.4,0-0.8,0-1.1,0.2c-0.2,0.1-0.4,0.1-0.6,0c-0.2,0-0.3-0.1-0.4,0c0,0.1,0,0.1,0.1,0.1
				c0.6,0.4,0.8,0.9,0.6,1.6c-0.1,0.2-0.2,0.3-0.5,0.3c-0.5,0.1-0.7,0.7-0.4,1.1c0.1,0.1,0.2,0.1,0.4,0.2c0.5,0.1,0.6,0.1,0.6,0.6
				c0,0.2,0,0.5,0,0.7c0,0.2-0.2,0.2-0.3,0.3c0,0.1,0,0.1,0,0.1c0.1,0,0.1,0,0.1-0.1c0-0.1,0-0.3,0.1-0.4c0.1-0.1,0.3-0.1,0.4,0
				c0.4,0.4,0.9,0.5,1.4,0.6c0.6,0.1,1.2,0.2,1.8,0.3c0.9,0.1,1.9,0.1,2.8,0.6c0.2,0.1,0.4,0.1,0.4,0.4c-0.2,0.1-0.3,0.1-0.5,0
				C90.1,87,89.3,87,88.4,87c-1.8-0.1-3.5-0.1-5.3-0.2c-0.8-0.1-1.6-0.1-2.4-0.1c-1.8,0-3.5-0.2-5.3-0.2c-1.5,0-3-0.1-4.4-0.4
				c-0.7-0.1-1.4-0.4-2.1-0.6c-0.7-0.3-1.4-0.6-2-1c-1.2-0.7-2.2-1.7-3-2.9c-0.7-1.2-1.1-2.4-1.3-3.8c-0.1-0.7-0.2-1.5-0.1-2.2
				c0.2-2.2,0.6-4.3,2-6.1c0.7-0.9,1.6-1.7,2.6-2.2c0.8-0.4,1.6-0.7,2.4-0.9c0,0,0-0.1,0,0c-0.7,0.2-1.4,0.4-2,0.7
				c-2.8,1.2-4.5,3.3-5.2,6.2c-0.2,1-0.4,1.9-0.4,2.9c0,1.7,0.3,3.4,1.1,5c0.6,1.1,1.4,2.1,2.3,2.9c1.7,1.4,3.7,2,5.9,2.3
				c1.2,0.2,2.5,0.2,3.8,0.3c1.6,0.1,3.3,0.2,4.9,0.2c1.2,0,2.4,0.2,3.6,0.1c0.4,0,0.7,0,1.1,0.1c0.8,0.1,1.7,0,2.5,0.1
				c0.9,0.1,1.8,0,2.7,0.2c0.8,0.2,1.6,0.4,1.9,1.3c0.3,0.9,0.2,1.8-0.4,2.5c-0.2,0.2-0.5,0.2-0.5,0.5c-0.1,0.2-0.3,0.1-0.5,0.1
				c-0.4,0-0.8,0-1.2,0.2c-0.5,0.2-1.1,0.2-1.7,0.2c-0.1,0-0.2,0-0.3,0c-0.7,0-1,0.3-0.8,1c0.2,0.6,0.1,1.3,0.3,1.9
				c0.1,0.4,0.1,0.8,0.3,1.2c0.1,0.2,0.1,0.5,0.1,0.7c0,0.3,0.1,0.4,0.4,0.4c0.6-0.1,1,0.2,1.2,0.8c0.2,0.9,0.5,1.1,1.4,1.2
				c1.3,0.2,2.5,0,3.8-0.2c1.2-0.2,2.4-0.6,3.5-1.3c0.3-0.2,0.5-0.6,0.8-0.8c0.1-0.1,0.2-0.3,0.5-0.1c0,0.2-0.2,0.4-0.3,0.5
				c-1.1,1.3-2.5,2.2-4,2.8c-1.5,0.6-3.1,0.9-4.7,0.9c-3.1,0.1-6.3,0-9.4,0c-1.3,0-2.6,0-3.8,0c-2.1,0-4.2,0-6.3,0
				C68.9,100.8,68,100.8,67,100.7z"/>
			<path class="st2" d="M83.7,66.5c-0.3-0.2-0.7-0.1-1-0.1c-1.6-0.2-3.3-0.3-4.9-0.5c-1-0.1-2.1-0.2-3.1-0.3
				c-0.5-0.1-1.1-0.1-1.6-0.1c-1.7,0-3.3,0.2-4.9,0.8c-1.8,0.6-3.4,1.5-4.6,3c-0.7,0.9-1.3,1.9-1.6,3c-0.5,1.6-0.7,3.3-0.6,5
				c0,1,0.2,1.9,0.5,2.9c0.5,1.7,1.5,3,2.8,4.2c0.9,0.8,2,1.4,3.1,1.9c1.2,0.5,2.5,0.8,3.8,1c0.5,0.1,1,0,1.5,0.1
				c0.8,0.1,1.5,0.1,2.3,0.1c1.4,0,2.9,0.2,4.3,0.2c1.5,0,2.9,0.1,4.4,0.2c1.5,0,3,0.1,4.5,0.2c0.6,0,1.1,0.1,1.7,0.3
				c0.8,0.3,1.2,0.9,1,1.8c-0.2,1-0.6,1.4-1.7,1.4c-1.4,0-2.8,0.1-4.2,0c-1.8-0.1-3.5-0.1-5.3-0.2c-0.8,0-1.6,0-2.4-0.1
				c-2.1-0.1-4.2-0.1-6.3-0.2c-1.2,0-2.4,0-3.6-0.1c-0.5,0-0.9,0.1-1.4,0.2c0,0,0,0,0-0.1c0-0.2,0.2-0.1,0.3-0.2
				c0.3-0.1,0.7-0.2,1-0.1c1.5,0.1,2.9,0,4.4,0.1c1,0.1,1.9,0,2.9,0.1c1.8,0.1,3.6,0.1,5.4,0.2c1.1,0,2.2,0,3.3,0.1
				c1.7,0.1,3.5,0.1,5.2,0.2c0.4,0,0.8-0.1,1.2-0.1c0.5-0.1,0.9-0.6,1-1.1c0-0.3,0-0.5,0-0.8c0-0.3-0.2-0.6-0.5-0.7
				c-0.4-0.2-0.8-0.3-1.1-0.3c-1.1,0-2.1,0-3.2-0.1c-1.1-0.1-2.2,0-3.3-0.1c-1.6-0.2-3.2-0.2-4.9-0.2c-1.2-0.1-2.5-0.1-3.7-0.2
				c-1.4-0.1-2.8-0.2-4.2-0.5c-1.6-0.3-3.2-0.9-4.6-1.9c-1.3-0.9-2.3-2-3.1-3.4c-0.5-1-0.8-2.1-1-3.2C61.1,77.8,61,77,61,76.2
				c0-1.4,0.3-2.7,0.7-4c0.1-0.4,0.3-0.8,0.5-1.3c0.5-1.1,1.3-2.1,2.2-2.9c0.8-0.7,1.7-1.2,2.7-1.6c0.9-0.4,1.9-0.7,2.8-0.8
				c1.8-0.3,3.6-0.4,5.3-0.1c0.7,0.1,1.5,0.1,2.2,0.2c1.6,0.2,3.3,0.3,4.9,0.5c1.3,0.2,2.7,0.3,4,0.4c0.7,0.1,1.5,0.1,2.2,0.2
				c0.6,0.1,1.2,0.1,1.7,0.1c1,0.1,2,0.2,3,0.3c1.5,0.1,2.9,0.3,4.4,0.5c0.7,0.1,1.5,0.2,2.2,0.2c0.2,0,0.3,0,0.4,0.2
				c-0.3,0.2-0.7,0.1-1,0.1c-0.5-0.1-1-0.2-1.5-0.1c-0.1,0-0.2,0-0.3,0c-0.6-0.1-1.2-0.2-1.8-0.2c-0.5-0.1-1-0.1-1.5-0.1
				c-0.2,0-0.4,0-0.6,0c-0.3-0.1-0.5-0.1-0.8-0.1c-0.3,0-0.7-0.1-1-0.1c-0.3-0.1-0.7-0.2-1-0.1c-0.7,0-1.4,0-2-0.2
				C88.3,67,87.8,67,87.2,67c-0.1,0-0.1,0-0.2,0c-0.5-0.2-1-0.1-1.6-0.2c0,0-0.1,0-0.1,0C84.8,66.6,84.3,66.7,83.7,66.5
				C83.7,66.6,83.7,66.5,83.7,66.5z"/>
			<path class="st3" d="M67,100.7c0.8,0,1.5,0.1,2.3,0c0.8,0,1.6-0.1,2.4,0c0.9,0,1.7,0,2.6,0c0.7,0,1.3-0.1,2,0
				c0.7,0.1,1.4-0.1,2.1,0c0.5,0.1,1.1,0,1.6,0c3.2,0,6.4,0.1,9.5,0c2.3-0.1,4.4-0.6,6.4-1.8c0.9-0.6,1.7-1.3,2.4-2.2
				c0-0.1,0.1-0.1,0.1-0.2c0-0.1,0.1-0.3,0.2-0.4c0.9-1.2,1.2-2.5,1.5-3.9c0.1-0.5,0.3-0.9,0.3-1.4c0.1-1.3,0.1-2.6-0.1-3.9
				c0-0.1,0-0.2,0-0.3c0.1-0.1,0.2,0,0.2,0c0.2,0.7,0.2,1.4,0.2,2c0,1,0,1.9-0.2,2.9c-0.1,0.7-0.2,1.3-0.4,2c-0.2,0.8-0.6,1.6-1,2.3
				c-0.4,0.7-0.9,1.3-1.5,1.9c-0.8,0.9-1.8,1.5-2.9,1.9c-1.7,0.7-3.4,1.1-5.2,1.1c-5.6,0.1-11.2,0-16.7,0c-1.1,0-2.2,0.1-3.3-0.1
				c-0.8-0.1-1.6,0-2.3-0.2C67.2,100.8,67.1,100.7,67,100.7z"/>
			<path class="st4" d="M127.6,72.1c-0.1,0.5-0.5,0.9-0.8,1.3c-0.3,0.6-0.7,1.1-1.1,1.6c-0.7,1.2-1.5,2.3-2.3,3.5
				c-0.6,0.9-1.4,1.1-2.4,1c-0.7-0.1-1.4-0.1-2.1-0.2c-1.1-0.1-2.2-0.2-3.2-0.3c-1-0.1-2-0.1-3-0.2c-1.1-0.1-2.3-0.2-3.4-0.2
				c-0.4,0-0.6,0.1-0.6,0.5c0,0.4,0,0.8,0,1.2c0,0.3,0.1,0.5,0.4,0.5c0.1,0,0.2,0,0.3,0c0.9,0,1.8,0,2.6,0.1c1.3,0.2,2.5,0,3.8,0.3
				c0.2,0,0.4,0,0.7,0c1.8,0,3.7,0.2,5.5,0.3c0.6,0,1.2,0.1,1.8,0.1c0.1,0,0.3,0,0.4,0.1c-0.2,0.2-0.5,0.1-0.8,0.1
				c-0.2,0-0.5,0-0.7,0c-1.4,0-2.7-0.1-4.1-0.2c-0.5,0-1-0.1-1.5-0.1c-1.1,0-2.3-0.2-3.4-0.2c-1.3,0-2.6-0.1-3.9-0.2
				c-0.3,0-0.6,0-0.9-0.1c-0.2-0.1-0.5-0.1-0.5-0.4c0-0.8-0.1-1.5,0.1-2.3c0.2-0.3,0.5-0.3,0.7-0.3c1.3,0.1,2.7,0.2,4,0.3
				c1.6,0.1,3.3,0.3,4.9,0.4c1.1,0.1,2.3,0.2,3.4,0.2c0.4,0,0.8-0.1,1.2-0.4c0.4-0.2,0.6-0.5,0.8-0.8c0,0,0-0.1,0-0.1
				c0.3-0.5,0.7-0.9,0.9-1.4c0,0,0-0.1,0.1-0.1c0.3-0.4,0.6-0.8,0.9-1.2c0.6-0.9,1.3-1.7,1.8-2.7C127.3,72.1,127.4,72,127.6,72.1z"
				/>
			<path class="st2" d="M100.5,86.8c-0.1,0-0.1-0.1-0.2-0.1c-0.2-0.1-0.2-0.3-0.2-0.4c-0.6-2.3-2.2-3.8-4.3-4.8
				c-1.6-0.7-3.3-1.1-5-1.2c-0.1,0-0.3,0-0.3-0.1c-0.1-0.1-0.3-0.1-0.5-0.1c-1.7-0.1-3.3-0.2-5-0.3c-0.5-0.1-1,0-1.6-0.1
				c-1.2-0.1-2.3-0.1-3.5-0.2c-1.6-0.1-3.2-0.2-4.9-0.3c-0.7,0-1.4-0.1-2.1-0.4c-0.9-0.4-1.1-1.1-1-2.1c0.1-0.6,0.8-1,1.6-1.1
				c1,0,2,0.1,3,0.2c0.2,0.1,0.5,0.1,0.7,0.1c2,0,4,0.4,6,0.4c0.1,0,0.3,0,0.3,0.2c-0.5,0-1,0.1-1.5,0c-1.1-0.2-2.2-0.1-3.2-0.3
				c-0.6-0.1-1.2-0.1-1.8-0.2c-1.2,0-2.4-0.3-3.7-0.1c-0.9,0.2-1.2,0.8-1.1,1.5c0.1,0.8,0.5,1.2,1.4,1.3c0.9,0.2,1.8,0.2,2.7,0.3
				c1.6,0.1,3.3,0.1,4.9,0.3c0.4,0.1,0.9,0,1.4,0.1c1.2,0.1,2.4,0.1,3.5,0.2c1.7,0.1,3.3,0.2,5,0.3c0.8,0,1.6,0.3,2.4,0.4
				c1.3,0.3,2.5,0.7,3.6,1.4c0.9,0.5,1.6,1.2,2.2,2.1c0.4,0.6,0.7,1.1,0.9,1.8C100.4,86.1,100.5,86.4,100.5,86.8z"/>
			<path class="st5" d="M122.7,81.8c0.5,0,1,0,1.5,0c0.5,0,1,0,1.5,0.2c0.4,0.1,0.6,0.4,0.4,0.8c-0.4,0.9-1,1.7-1.5,2.5
				c-0.3,0.5-0.7,1-1,1.6c-0.7,1-1.2,2-1.9,2.9c-0.4,0.5-0.9,0.7-1.6,0.7c-1.4,0-2.8-0.1-4.2-0.1c-1.3,0-2.6,0-4-0.2
				c-1-0.1-2,0-3-0.1c-0.5-0.1-0.6,0-0.7,0.5c0,0.1-0.1,0.2,0,0.3c0.1,1.1-0.1,2.1-0.1,3.2c0,1.5-0.1,2.9-0.2,4.4
				c0,0.5,0,0.9-0.1,1.4c0,0-0.1,0-0.1,0c-0.1-0.2-0.1-0.4-0.1-0.6c0-0.1,0-0.2,0-0.3c0-0.6,0.1-1.2,0.1-1.8c-0.1-1.7,0.1-3.3,0.2-5
				c0-0.5,0.1-1.1,0.1-1.6c0-0.2,0-0.4,0.1-0.6c0.1-0.2,0.3-0.2,0.5-0.2c0.5,0,0.9,0,1.4,0.1c0.4,0.1,0.8,0.1,1.2,0.1
				c1.1,0,2.2-0.1,3.3,0.1c1.8,0.2,3.5,0,5.3,0.2c0.9,0.1,1.6-0.4,2.1-1.1c0.5-0.8,1-1.7,1.6-2.4c0.1-0.1,0.1-0.2,0.2-0.3
				c0.1-0.3,0.2-0.5,0.4-0.7c0.2-0.2,0.3-0.5,0.6-0.7c0.2-0.2,0.3-0.4,0.5-0.7c0.2-0.4,0.6-0.8,0.8-1.3c0.1-0.4,0.1-0.5-0.3-0.6
				c-0.8-0.2-1.6-0.1-2.3-0.2C123,82,122.8,82.1,122.7,81.8z"/>
			<path class="st6" d="M127.6,72.1c-0.1,0-0.2,0.1-0.3,0.2c-0.7,1.3-1.6,2.4-2.4,3.6c-0.1,0.1-0.1,0.4-0.3,0.4
				c-0.1,0-0.1-0.1-0.1-0.2c0-0.2,0.1-0.3,0.2-0.5c0.8-1.2,1.7-2.5,2.6-3.7c0.1-0.1,0.2-0.2,0.2-0.3c0.2-0.4,0.1-0.5-0.3-0.7
				c-1-0.3-2-0.2-2.9-0.4c-1-0.1-1.9-0.2-2.9-0.3c-1-0.1-1.9-0.2-2.9-0.3c-1.3-0.1-2.6-0.3-3.9-0.4c-1-0.1-2-0.2-3-0.3
				c-1.2-0.1-2.4-0.2-3.6-0.4c-0.7-0.1-1.5-0.2-2.2-0.2c-1-0.1-2-0.2-3-0.3c-1.4-0.1-2.7-0.3-4.1-0.4c-0.3,0-0.6,0-0.8-0.2
				c0.5-0.2,0.9,0,1.4,0c0.4,0.1,0.8,0,1.1,0.1c1.2,0,2.4,0.2,3.6,0.3c0.9,0.1,1.8,0.2,2.7,0.3c1.3,0.1,2.6,0.3,4,0.4
				c1.3,0.1,2.6,0.3,3.9,0.4c0.8,0.1,1.7,0.2,2.5,0.3c0.7,0.1,1.3,0.2,2,0.2c0.9,0,1.8,0.2,2.7,0.2c0.8,0.1,1.5,0.2,2.3,0.2
				c0.7,0.1,1.4,0.2,2.2,0.2c0.5,0,1,0.2,1.4,0.3c0.3,0.1,0.5,0.2,0.3,0.6C127.8,71.6,127.7,71.9,127.6,72.1z"/>
			<path class="st2" d="M107.8,99.8C107.8,99.8,107.8,99.8,107.8,99.8c-0.1,0.8-0.9,1.5-1.6,1.4c-0.9-0.1-1.8-0.1-2.7-0.1
				c-1.1,0-2.1,0-3.2,0.1c-0.4,0-0.9-0.1-1.3-0.2c-0.7-0.2-0.9-1.1-0.3-1.7c0.8-0.8,1.4-1.8,1.9-2.8c0.5-1.1,0.8-2.1,1-3.3
				c0.2-1.1,0.2-2.2,0.2-3.3c0-1.1-0.3-2.2-0.6-3.2c-0.3-1-0.8-2-1.4-2.9c0,0,0-0.1,0-0.2c0.3,0,0.4,0.3,0.5,0.6
				c0.3,0.5,0.6,1,0.8,1.6c0,0,0,0.1,0,0.1c0.4,1,0.6,2,0.8,3c0.2,1.3,0.1,2.5,0.1,3.8c0,0,0,0.1,0,0.1l0,0
				c-0.1,0.3-0.1,0.6-0.2,0.9c0,0,0,0.1,0,0.1c-0.2,0.6-0.2,1.1-0.5,1.7l0,0c-0.4,1.4-1.2,2.7-2.1,3.8c-0.2,0.2-0.3,0.5-0.5,0.8l0,0
				c-0.1,0.6,0.2,1,0.7,1.1c0.2,0,0.3,0,0.5,0c1.4,0,2.8,0,4.2,0c0.6,0,1.2,0,1.8,0c0.7,0,1.2-0.2,1.5-0.8
				C107.5,100,107.5,99.8,107.8,99.8z"/>
			<path class="st5" d="M101,85.6c-0.3-0.5-0.6-1-0.8-1.5c-0.1-0.3-0.3-0.5-0.5-0.7c0,0,0,0,0,0c-0.8-0.8-0.9-1.7-0.8-2.7
				c0.1-0.8,0-1.6,0.1-2.5c0-0.3-0.2-0.5-0.5-0.5c-0.9-0.1-1.7-0.2-2.6-0.2c-1-0.1-2-0.1-3-0.2c-0.1,0-0.1,0-0.2,0
				c-0.8-0.1-1.6-0.1-2.5-0.2c-1.5-0.1-3-0.2-4.4-0.4c-0.6-0.1-1.3,0-1.9-0.1c-0.1,0-0.3,0-0.4,0c-0.1-0.2-0.3-0.2-0.4-0.2
				c-1.6,0-3.1-0.2-4.7-0.3c-0.5,0-1,0-1.6-0.1c-0.1,0-0.2,0-0.3-0.1c1.7,0,3.3,0.2,5,0.3c1,0.1,2.1,0.1,3.1,0.2
				c1.1,0.1,2.1,0.1,3.2,0.3c0.1,0,0.3,0,0.5,0c1.6,0.1,3.3,0.2,4.9,0.3c0.9,0.1,1.8,0.2,2.7,0.2c0.9,0,1.8,0.2,2.7,0.2
				c0.4,0,0.6,0.3,0.6,0.7c0,0.9,0,1.8-0.1,2.8c-0.1,1,0.3,1.8,0.9,2.5c0.5,0.5,0.7,1.2,1,1.8C101.1,85.4,101,85.5,101,85.6z"/>
			<path class="st2" d="M66.3,90.9c-0.9,0.9-1.6,2-2.4,3c-1.1,1.4-2.2,2.9-3.2,4.4c-0.2,0.2-0.3,0.4-0.5,0.6
				c-0.4,0.5-0.7,0.8-0.2,1.5c-0.1,0-0.2,0-0.3,0c-0.4-0.3-0.4-0.6-0.2-1c0.2-0.5,0.6-0.9,0.9-1.3c0.4-0.5,0.8-1.1,1.2-1.6l0,0
				c1-1.3,1.9-2.6,2.9-3.9c0.4-0.5,0.7-1.1,1.2-1.5C65.9,91.1,66,90.8,66.3,90.9L66.3,90.9z"/>
			<path class="st2" d="M92.9,77.3c1.4,0,2.7,0.1,4.1,0.2c0.5,0,1,0.1,1.5,0.1c0.5,0,0.6,0.2,0.6,0.6c0,0.5,0,0.9,0,1.3
				c0,0.5,0,1-0.1,1.5c-0.1,0.7,0.1,1.4,0.6,2c0.1,0.1,0.2,0.2,0.2,0.3c-0.7-0.6-0.9-1.3-0.9-2.2c0.1-0.7,0-1.5,0-2.2
				c0-0.2,0-0.4,0-0.6c0.1-0.4,0-0.6-0.4-0.7c-0.9-0.1-1.8-0.2-2.7-0.2c-0.9-0.1-1.9-0.1-2.8-0.2C93,77.4,93,77.3,92.9,77.3z"/>
			<path class="st2" d="M84,76.7c1.3-0.1,2.6,0.2,3.9,0.2c1,0,2,0.2,3,0.2c0.6,0,1.3-0.1,1.9,0.2c-1.2,0.1-2.3-0.1-3.4-0.2
				c-0.6-0.1-1.2,0-1.9-0.1c-1.1-0.1-2.2-0.2-3.4-0.3C84.1,76.7,84,76.7,84,76.7z"/>
			<path class="st7" d="M66.3,90.9c-0.5,0.2-0.8,0.6-1.1,1c-1,1.4-2.1,2.9-3.1,4.3c-0.1,0.1-0.2,0.2-0.4,0.3
				c0.2-0.7,0.8-1.1,1.2-1.7c0.5-0.8,1.1-1.5,1.7-2.2c0.5-0.6,0.9-1.3,1.5-1.8c0.2-0.1,0.4-0.2,0.6-0.2
				C66.5,90.7,66.4,90.8,66.3,90.9z"/>
			<path class="st7" d="M61.7,96.5c-0.2,0.5-0.6,1-1,1.4c-0.4,0.5-0.7,1-1.1,1.5c-0.2,0.3,0,0.6,0.2,0.9c-0.4,0-0.4-0.2-0.4-0.5
				c0-0.3,0.2-0.7,0.4-0.9c0.6-0.7,1.1-1.5,1.7-2.2C61.5,96.7,61.6,96.6,61.7,96.5z"/>
			<path class="st8" d="M80.6,94.1c-0.4,0.6-0.3,1.2-0.2,1.7c0,0.2,0.1,0.3,0.3,0.3c0.3,0,0.3,0.2,0.3,0.4c0,0.1,0,0.2,0,0.2
				c0,0.7,0,0.7,0.7,0.6c0.5-0.1,0.7,0,0.7,0.6c0,0.4,0.2,0.7,0.4,1c0.2,0.2,0.1,0.3-0.1,0.4c-0.3,0.1-0.9-0.2-1-0.5
				c-0.1-0.2-0.1-0.3-0.3-0.3c-0.2,0-0.1,0.2-0.1,0.3c0,0.3-0.2,0.4-0.4,0.4c-1.3,0.1-2.7,0-4,0c-0.9,0-1.7,0-2.5,0
				c-1.3-0.1-2.7,0-4-0.1c-0.8-0.1-1.7,0-2.5,0c-0.8,0.1-1.7,0.1-2.5,0c-0.2,0-0.4,0-0.5,0c-0.6,0-1.3-0.1-1.9-0.1
				c-0.1,0-0.2,0-0.2-0.1c0-0.1,0-0.2,0.1-0.2c0.3-0.2,0.3-0.7,0.7-0.8c0,0,0.1-0.1,0.1-0.1c-0.1-0.8,0.6-1.3,1-1.8
				c0.5-0.7,0.8-1.4,1.3-2c0.4-0.5,0.7-0.8,1.3-1c0.2-0.1,0.3-0.3,0.3-0.5c0-0.2,0-0.5,0-0.7c0-0.4,0.1-0.5,0.5-0.4
				c0.1,0,0.2,0,0.3,0c1.1,0,2.3,0,3.4,0c0.8,0,1.7-0.3,2.5-0.2c0.9,0.1,1.8,0,2.7,0c0.7,0,1.3,0.1,2,0.2c0.6,0.1,1.1,0.1,1.7,0
				c0.6-0.1,0.7,0,0.6,0.6c-0.1,0.4-0.1,0.7,0,1.1c0.1,0.3,0.1,0.6,0.1,0.9c0,0.1,0,0.3-0.2,0.4C80.7,94.4,80.7,94.2,80.6,94.1z"/>
			<path class="st9" d="M97.9,67.9c1.1,0.1,2.2,0.2,3.2,0.3c0.7,0.1,1.4,0.1,2.1,0.2c1.2,0.2,2.4,0.2,3.6,0.4
				c0.8,0.1,1.6,0.1,2.3,0.2c1,0.1,2,0.3,3.1,0.3c0.7,0,1.4,0.2,2.1,0.2c1,0.1,1.9,0.2,2.9,0.3c0.6,0.1,1.3,0.1,1.9,0.2
				c1.3,0.2,2.7,0.2,4,0.4c0.6,0.1,1.3,0.1,1.9,0.2c0.8,0.1,1.7,0.1,2.5,0.4c0.2,0.1,0.2,0.6,0,0.8c-0.1,0.1-0.2,0.2-0.3,0.3
				c-0.1-0.2,0-0.3,0-0.4c0.1-0.3,0-0.5-0.3-0.5c-1.6-0.2-3.1-0.3-4.7-0.4c-0.6,0-1.1-0.2-1.7-0.2c-0.6-0.2-1.2-0.1-1.8-0.2
				c-1-0.1-2.1-0.2-3.1-0.3c-1.3-0.1-2.5-0.3-3.8-0.4c-1-0.1-2.1-0.2-3.1-0.3c-1-0.1-1.9-0.2-2.9-0.3c-1.4-0.2-2.7-0.2-4.1-0.3
				c-1.2-0.1-2.3-0.3-3.5-0.3c-0.2,0-0.5-0.1-0.7-0.1c-0.6-0.1-1.2-0.1-1.9-0.2c0,0-0.1,0-0.1,0c-0.1,0-0.2-0.1-0.3-0.1
				c-0.8,0-1.6-0.1-2.5-0.2c-0.2,0-0.4,0-0.6,0c-0.5-0.1-0.9,0-1.2,0.5c-0.3,0-0.4-0.2-0.6-0.3c-0.4-0.2-0.8-0.3-1.3-0.2
				c-0.2,0-0.3,0-0.5,0c-0.5-0.1-1,0.1-1.4,0.4c-0.3,0.2-0.2,0.5-0.2,0.7c0.2,0.6,0.1,1.3,0.3,1.9c0.1,0.5,0.1,1-0.1,1.5
				c-0.1,0.4-0.2,0.9,0.2,1.3c0.1,0.1,0.1,0.3,0,0.5c-0.1,0.2-0.1,0.4,0,0.6c0.1,0.3,0.1,0.4-0.3,0.5c-0.6,0.1-1.3,0.1-1.9,0.1
				c-0.6-0.2-1.1-0.3-1.8-0.3c-0.2,0-0.4,0-0.6-0.1c-0.8-0.3-1.7-0.2-2.5-0.7c-0.2-0.1-0.3-0.3-0.1-0.5c0.2-0.2,0-0.5,0-0.7
				c-0.3-1-0.2-2-0.2-3.1c0-0.3-0.3-0.5-0.3-0.8c0-0.1,0-0.2,0-0.3c0-0.3,0-0.5-0.4-0.5c-0.2,0-0.2-0.2-0.2-0.4
				c0-0.5-0.1-0.6-0.6-0.5c-0.1,0-0.1,0-0.2-0.1c0-0.1-0.1-0.1,0-0.2c0.1-0.1,0.2-0.2,0.3-0.2c0.7,0,1.3-0.4,2-0.3
				c0.3,0,0.6,0.2,1,0.2c0.7-0.1,1.3,0,2-0.1c0,0,0,0,0,0c0.5,0.2,1.1,0,1.6,0.2l0,0c0.5,0.2,1.1,0,1.7,0.2c0.1,0,0.1,0,0.2,0
				c0.6,0.1,1.2,0.1,1.8,0.2c0.7,0.1,1.4,0.2,2.1,0.2c0.3,0.1,0.7,0.1,1,0.2c0.4,0,0.7,0.1,1.1,0.1c0.2,0.1,0.4,0,0.7,0.1
				c0.2,0,0.4,0,0.6,0c0.4,0.1,0.9,0.1,1.3,0.1c0.7,0.1,1.4,0.2,2.1,0.2C97.8,67.9,97.8,67.9,97.9,67.9z"/>
			<path class="st10" d="M90.5,80.2c1,0,2,0.2,3,0.4c1.5,0.3,2.9,0.9,4.1,1.8c1.3,0.9,2.2,2.2,2.6,3.7c0.1,0.2,0.1,0.4,0.2,0.6
				c0.3,1.1,0.3,2.2,0.2,3.3c0,0.8-0.2,1.5-0.4,2.2c-0.1,0.5-0.2,1.1-0.4,1.6c-0.3,1-0.7,2-1.4,2.7c-0.1,0.1-0.2,0.2-0.3,0.2
				c-0.2-0.2,0-0.3,0.1-0.5c0.4-0.4,0.7-0.8,1-1.4c0-0.3,0.3-0.6,0.3-0.9c0-0.2,0.1-0.3,0.2-0.5c0.2-0.6,0.4-1.2,0.4-1.8
				c0.2-1.6,0.2-3.3-0.1-4.9c-0.1-0.8-0.5-1.6-0.9-2.3c-0.5-0.7-1.1-1.3-1.8-1.8c-0.5-0.4-1.1-0.8-1.7-1c-0.7-0.2-1.4-0.3-2-0.5
				c-0.5-0.1-1.1,0.6-0.9,1.2c0.1,0.3,0.2,0.6,0.2,0.9c0,0.2,0.1,0.4,0.3,0.5c0.2,0.1,0.3,0.3,0.3,0.5c0,0.6,0.1,1.2-0.1,1.7
				c0,0.1,0,0.2,0,0.3c0.3,0.2,0.3,0.7,0.6,1c0.2,0.2,0.2,0.4-0.1,0.5c-0.3,0.1-0.3,0.3,0,0.5c0.2,0.1,0.3,0.2,0.3,0.4
				c0.1,0.4-0.1,0.6-0.5,0.5c-0.2-0.1-0.3,0-0.4,0.1c-0.1,0.2-0.3,0.4-0.4,0.5c-0.1,0.1-0.1,0.2-0.3,0.1c-0.1-0.2,0-0.4,0-0.6
				c0.2-0.8-0.2-1.4-0.8-1.9c-0.1-0.1-0.3-0.1-0.3-0.3c-0.6-0.5-1.4-0.6-2.1-0.7c-1.3-0.1-2.6-0.2-3.9-0.7c-0.1,0-0.2-0.1-0.3-0.2
				c-0.1-0.3-0.3-0.3-0.6-0.2l0,0c-0.1-0.3-0.1-0.6-0.1-0.9c0-0.3-0.1-0.4-0.4-0.4c-0.4,0-0.6,0-0.6-0.5c0-0.9,0-1,0.6-1
				c0.3,0,0.4-0.1,0.4-0.4c0-0.2,0-0.4,0-0.5c0.1-0.4-0.1-0.7-0.5-0.8c-0.1,0-0.3-0.1-0.3-0.3c0-0.2,0.2-0.2,0.4-0.2
				c0.1,0,0.3,0.1,0.4,0.1c0.2,0.1,0.4,0.1,0.5-0.1c0.2-0.2,0.4-0.2,0.7-0.2c0.6,0,1.2,0.1,1.7,0.1c0.6,0,1.2,0.1,1.8,0
				C89.6,80.2,90.1,80.4,90.5,80.2z"/>
			<path class="st11" d="M85.3,75.2c0.1-0.2,0.3-0.2,0.5-0.2c0.5,0,1,0,1.5-0.1c0.2,0,0.3-0.1,0.1-0.3c-0.2-0.2-0.1-0.5,0-0.7
				c0.1-0.1,0.1-0.3,0-0.4c-0.6-0.3-0.4-0.9-0.3-1.3c0.2-0.7,0-1.4,0-2c0-0.6-0.2-1.2-0.2-1.7c0-0.2,0-0.4,0.2-0.4
				c0.5-0.2,1-0.5,1.7-0.4c0.4,0.1,0.8-0.1,1.2,0c0.4,0.2,0.8,0.3,1,0.7c0.2,0.2,0.1,0.4,0.1,0.5c0,0.8,0,1.6,0.1,2.4
				c-0.1,0.4-0.2,0.7-0.1,1.1c0,0.2,0.1,0.4,0.3,0.5c0.6,0.4,1.2,0.7,1.8,1c0.7,0.3,1.5,0.7,2.1,1.3c0.1,0.2,0.3,0.2,0.5,0.3
				c1.5,0.2,2.9,0.4,4.4,0.6c0.8,0.1,1.1,0.5,1.1,1.3c0,1.2-0.2,2.3-0.2,3.5c0,0.6,0.2,1,0.5,1.4c0.9,1.1,1.4,2.5,1.8,3.8
				c0.2,0.7,0.3,1.5,0.5,2.2c0,0.8,0.1,1.6,0.1,2.4c0,0.5-0.1,1.1-0.3,1.6c-0.3,1.1-0.5,2.2-0.7,3.3c-0.1,0.7-0.5,1.3-0.8,1.9
				c-0.2,0.4-0.5,0.8-0.8,1.2c-0.1,0.1-0.3,0.3-0.2,0.4c0.1,0.2,0.3,0.1,0.5,0.1c1.3,0.1,2.6,0.1,4,0.1c0.5,0,0.8,0.2,1.2,0.4
				c0.1,0,0.1,0.1,0.1,0.2c-0.2,0-0.3,0-0.5,0.2c-0.1,0.1-0.2,0.2-0.4,0.1c-0.1-0.2-0.3-0.1-0.5-0.1c-1.8,0-3.5,0-5.3,0
				c-0.3,0-0.6,0.1-0.7-0.2c-0.1-0.3,0.2-0.4,0.3-0.6c0.6-0.7,1.2-1.5,1.7-2.3c0.7-1.3,1-2.8,1.3-4.3c0.5-2.2,0.3-4.3-0.3-6.4
				c-0.4-1.5-1.1-2.8-2-3.9c-0.3-0.3-0.4-0.7-0.4-1.1c0-1.2,0.1-2.5,0.2-3.7c0-0.7,0-0.7-0.7-0.7c-0.1,0-0.3,0-0.4,0
				c-0.9-0.1-1.8-0.1-2.7-0.2c-1.3-0.1-2.7-0.2-4-0.3c-1.3-0.1-2.6-0.2-3.9-0.3c-0.9-0.1-1.8-0.1-2.7-0.2c-0.2,0-0.3,0-0.4-0.2
				C85.7,75.3,85.4,75.4,85.3,75.2z"/>
			<path class="st12" d="M92.6,90c0.2-0.3,0.5-0.5,0.7-0.8c0.1-0.1,0.2-0.2,0.3,0c-0.2,0.4-0.3,0.9-0.4,1.3C93,91,92.7,91.5,92,91.7
				c-0.2,0.1-0.3,0.2-0.4,0.4c0,0.1-0.1,0.2-0.1,0.2c-0.4,0.2-0.3,0.4-0.1,0.7c0.3,0.4,0.7,0.6,1.2,0.7c0.7,0.1,1.3,0.3,1.9,0.6
				c0.6,0.4,1,0.8,1.4,1.4c0.1,0.1,0.1,0.2,0.2,0.2c0.3,0.2,0.4,0.4,0.4,0.7c0,0.4,0.1,0.4,0.5,0.3c0.6-0.2,1.1-0.6,1.5-1
				c0.2-0.2,0.4-0.5,0.6-0.7c0.1-0.1,0.2-0.2,0.3-0.2c-0.2,0.6-0.6,1-1,1.4c-0.1,0.1-0.2,0.2-0.2,0.4c-0.7,1.1-1.8,1.5-3,1.8
				c-0.1,0-0.2,0-0.2,0.1c-0.7,0.4-1.5,0.4-2.3,0.4c-0.5,0-0.9,0.1-1.3,0.2c-0.6,0.1-1.2-0.1-1.9-0.1c-0.4,0-0.9-0.6-1-1
				c0-0.5-0.3-0.9-0.8-1.1c-0.1-0.1-0.2,0-0.3,0.1c-0.4,0.1-0.6,0-0.6-0.4c0.1-0.6-0.3-1-0.3-1.5c0-0.4-0.1-0.8-0.1-1.2
				c0-0.3,0-0.7-0.2-1c-0.3-0.6,0.1-1.3,0.8-1.2c1,0,1.9-0.2,2.9-0.4c0.3-0.1,0.6,0.2,0.9,0c0.2-0.2,0.4-0.2,0.6-0.3
				c0.5-0.2,0.9-0.4,1-1C92.4,90.1,92.5,90,92.6,90z"/>
			<path class="st13" d="M99.6,76.6c0.1,0,0.1,0,0.2,0c1.1,0,1-0.2,0.9,0.9c0,1.2-0.1,2.4-0.2,3.5c0,0.5,0.1,0.9,0.4,1.2
				c0.9,1.1,1.5,2.4,1.9,3.7c0.4,1.5,0.7,3,0.6,4.6c-0.1,1.3-0.3,2.6-0.7,3.8c-0.3,1-0.6,1.9-1.1,2.7c-0.5,0.8-1.1,1.6-1.7,2.3
				c-0.1,0.1-0.2,0.1-0.2,0.3c0.1,0.1,0.2,0.1,0.3,0.1c1.9,0,3.8,0,5.7,0c0.1,0,0.2,0,0.4,0c0.3,0,0.1,0.2,0,0.2c-1.8,0-3.5,0-5.3,0
				c-0.7,0-1.4-0.2-2.1-0.4c0.7-0.6,1.2-1.4,1.7-2.1c0.7-1.1,1.1-2.4,1.5-3.7c0.3-1.1,0.4-2.3,0.5-3.5c0.1-1.3-0.2-2.6-0.5-3.9
				c-0.4-1.6-1.1-3-2.1-4.2c-0.2-0.3-0.4-0.6-0.4-1.1c0.1-1.3,0.1-2.7,0.1-4.1c-0.1-0.3-0.4-0.4-0.6-0.5c-0.1,0-0.2-0.1-0.1-0.2
				c0-0.1,0.1-0.1,0.2-0.1C99.3,76.6,99.4,76.6,99.6,76.6z"/>
			<path class="st14" d="M92.6,90c-0.2,0.9-1,1.3-1.8,1.4c-0.1,0-0.1,0-0.2,0c0,0,0,0-0.1,0c0.3-0.2,0.7-0.4,0.9-0.7
				c0.8-1.1,0.4-2.7-0.9-3.2c-0.5-0.2-1.1-0.3-1.6-0.3C87.9,87.1,87,87,86,87.1c-1,0.1-2-0.2-3.1-0.1c-0.8,0.1-1.6-0.1-2.4-0.1
				c-1.1,0-2.2,0-3.2-0.1c-1.5-0.1-2.9-0.1-4.4-0.2c-1.1-0.1-2.1-0.2-3.2-0.4c-1.8-0.4-3.5-1.2-5-2.5c-0.8-0.7-1.3-1.5-1.8-2.4
				c0-0.1,0-0.1,0-0.2c0.3,0,0.3,0.2,0.4,0.4c0.8,1.4,2,2.4,3.3,3.2c0.6,0.3,1.3,0.6,1.9,0.9c-1.1-0.5-2.2-1.1-3.2-1.9
				c-1-0.9-1.8-1.9-2.3-3.2c-0.1-0.3-0.3-0.6-0.4-1c-0.6-1.8-0.6-3.6-0.3-5.4c0.2-1.4,0.6-2.7,1.3-3.9c0.8-1.4,1.9-2.5,3.4-3.1
				c0.1,0,0.1-0.1,0.2-0.1c0.8-0.4,1.6-0.6,2.4-0.8c0,0,0,0.1,0,0.1c-0.4,0.1-0.9,0.2-1.3,0.4c-1,0.3-2,0.8-2.7,1.6
				c-0.2,0.2-0.4,0.3-0.6,0.5c-1,0.9-1.6,2-2,3.3c-0.4,1.3-0.7,2.7-0.6,4.1c0,1.7,0.3,3.3,1.1,4.8c0.6,1.1,1.4,2,2.4,2.8
				c1.2,1,2.6,1.6,4.1,2c1.4,0.4,2.9,0.6,4.4,0.6c1.5,0,3,0.1,4.5,0.2c1.2,0.1,2.4,0.1,3.6,0.2c1.6,0,3.2,0.1,4.7,0.2
				c1.3,0.1,2.7,0,4,0.3c0.7,0.3,1.2,0.8,1.3,1.6C92.8,89.1,92.6,89.6,92.6,90z"/>
			<path class="st15" d="M107.2,99.9c-0.5-0.3-1-0.5-1.6-0.5c-0.8,0-1.6,0-2.4,0c-0.6,0-1.1-0.1-1.7-0.1c-0.4,0-0.5-0.2-0.2-0.5
				c0.6-0.9,1.1-1.8,1.6-2.9c0.2-0.5,0.1-1,0.3-1.4c0.3-1.1,0.5-2.2,0.7-3.2c0.1-0.7,0.1-1.5,0-2.2c0-0.3,0-0.6-0.1-0.9
				c0.3,0.2,0.3,0.5,0.3,0.7c0,1.1,0.1,2.2-0.2,3.3c0,0,0,0.1,0,0.1c-0.1,0.3-0.1,0.7-0.2,1c-0.1,0.4-0.2,0.8-0.3,1.3
				c-0.2,0.6-0.1,1.3-0.4,1.9c-0.2,0.5-0.4,1-0.7,1.5c-0.3,0.4-0.1,0.9,0.4,0.9c0.9,0.1,1.7,0.2,2.6,0.1c0.5,0,1,0.1,1.4,0.1
				c0.2,0,0.4,0.1,0.6,0.1c-0.1-0.3-0.2-0.6,0-1c0.1-0.5,0.1-1.1,0-1.6c0-0.5,0.1-1,0.1-1.4c0-0.8,0-1.6,0.1-2.4
				c0.1-1.2,0-2.4,0.2-3.7c0-0.4,0.2-0.7,0.4-1c0.2-0.2,0.4-0.3,0.7-0.2c0.8,0.1,1.5,0.1,2.3,0.1c1.6,0.1,3.2,0.2,4.9,0.2
				c1.1,0,2.1,0.1,3.2,0.2c0.8,0,1.6,0,2.5,0.2c0,0,0.1,0,0.1,0.1c-0.1,0.4-0.4,0.4-0.6,0.5c-0.2,0.1-0.4,0-0.5,0
				c-1.9-0.1-3.7-0.1-5.6-0.2c-1.1,0-2.1-0.1-3.2-0.1c-1,0-2.1,0-3.1-0.1c-0.1,0-0.2,0-0.3,0c-0.2,0.1-0.2,0.3-0.2,0.5
				c0,0.2,0,0.3-0.1,0.5c-0.1,0.7-0.1,1.4-0.1,2.1c-0.1,2.2-0.2,4.3-0.3,6.5c0,0.1,0.1,0.3,0,0.4c0,0.1,0,0.2,0,0.2
				C107.8,99.8,107.7,99.9,107.2,99.9C107.2,99.9,107.2,99.9,107.2,99.9z"/>
			<path class="st16" d="M67.4,66.9c0,0.2-0.1,0.2-0.2,0.2c-1.8,1-3.2,2.4-3.9,4.4c-0.7,1.8-0.9,3.7-0.8,5.6
				c0.1,1.9,0.8,3.6,1.9,5.1c0.5,0.6,1,1.1,1.6,1.6c0.8,0.6,1.7,1.1,2.6,1.5c0.1,0,0.1,0,0.1,0.1c0.1,0,0.2,0.1,0.2,0.2
				c0,0.1-0.2,0.1-0.2,0c-0.8-0.3-1.7-0.7-2.4-1.2c-1.1-0.7-2-1.5-2.7-2.5c-0.2-0.3-0.3-0.6-0.6-0.9c-0.5-0.7-0.6-1.5-0.8-2.3
				c-0.3-1.1-0.3-2.3-0.2-3.4c0.2-2,0.6-4,1.9-5.7C64.7,68.3,65.9,67.4,67.4,66.9z"/>
			<path class="st17" d="M67,91c0.2,0,0.2,0.2,0.1,0.3c-0.2,0.3-0.3,0.5-0.5,0.8c-0.5,0.6-1,1.3-1.5,1.9c-0.9,1.1-1.7,2.4-2.6,3.5
				c-0.5,0.6-1,1.2-1.4,1.9c-0.1,0.1-0.2,0.2-0.1,0.4c0.1,0.2,0.3,0.1,0.4,0.1c8.6,0,17.2,0,25.9,0c1.1,0,2.1,0,3.2,0
				c0.4,0,0.8-0.1,1.3-0.1c-0.3,0.3-0.7,0.2-1,0.3c-1.3,0.1-2.6,0.1-3.9,0.1c-0.9,0-1.8,0-2.7,0c-0.9,0-1.9,0-2.8,0
				c-1.3,0-2.6,0.1-3.9,0.1c-5.4-0.2-10.8,0-16.2-0.1c-0.5,0-0.8-0.3-1.2-0.4c0,0,0-0.1,0-0.1c0.3,0,0.6-0.1,0.8-0.4
				c1.2-1.6,2.4-3.2,3.6-4.8C65.3,93.3,66.2,92.1,67,91z"/>
			<path class="st18" d="M99.6,76.6c-0.2,0-0.4,0-0.6,0.1c0.2,0.3,0.8,0.1,0.7,0.6c-0.5-0.6-1.1-0.4-1.7-0.5
				c-1.4-0.1-2.8-0.2-4.1-0.3c-0.5-0.1-1.1-0.1-1.6-0.1c-1.5-0.1-3-0.2-4.5-0.3c-0.5,0-1.1-0.1-1.6-0.1c-1.3-0.1-2.7-0.2-4-0.3
				c-0.9,0-1.8-0.2-2.7-0.2c-0.4,0-0.9,0-1.3-0.1c-0.4-0.1-0.7,0.1-1.1,0c-0.8-0.1-1.7-0.2-2.5-0.3c-0.3,0-0.5,0.1-0.8,0.1
				c-0.1,0-0.3,0-0.4-0.1c0.4-0.2,0.9-0.3,1.3-0.2c1,0,1.9,0.1,2.9,0.2c1.3,0.1,2.7,0.2,4,0.3c0.8,0.1,1.7,0.1,2.5,0.2
				c0.6,0,1.2,0.1,1.8,0.1c0.4,0.2,0.9,0.1,1.3,0.1c0.9,0.1,1.8,0.1,2.8,0.2c1.7,0.2,3.5,0.2,5.3,0.4c0.9,0.1,1.8,0.1,2.7,0.2
				C98.5,76.5,99,76.5,99.6,76.6z"/>
			<path class="st19" d="M67,91c-0.1,0.5-0.5,0.9-0.8,1.3c-0.5,0.7-1.1,1.3-1.6,2c-1,1.3-1.9,2.6-2.9,3.9c-0.3,0.4-0.6,0.8-0.9,1.2
				c-0.2,0.3-0.4,0.4-0.7,0.2c0.6-0.9,1.3-1.7,1.9-2.6c0.6-0.8,1.3-1.7,1.9-2.5c0.8-1.1,1.7-2.2,2.5-3.3C66.5,91,66.8,91,67,91z"/>
			<path class="st5" d="M107.5,100.1c-0.2,0.5-0.7,0.9-1.3,0.9c-0.5,0-1.1,0-1.6-0.1c-0.3-0.1-0.7,0-1,0c-0.5,0.1-1,0-1.4,0
				c-1,0-1.9,0-2.9,0c-0.6,0-1-0.6-0.7-1.2c0.1,0.8,0.5,1.1,1.3,1.1c1.9,0,3.8,0,5.7,0C106.4,100.9,107,100.8,107.5,100.1
				C107.5,100.1,107.5,100.1,107.5,100.1z"/>
			<path class="st5" d="M101.9,92.6c0-1,0-2,0-3c0-1-0.3-2-0.6-3c-0.1-0.3-0.2-0.6-0.3-0.9c0.2,0.2,0.3,0.5,0.4,0.7
				c0.3,1.3,0.6,2.5,0.6,3.8c0,0.7,0,1.4-0.1,2.1C101.9,92.4,102,92.5,101.9,92.6z"/>
			<path class="st5" d="M98.6,99.8c0.1-0.3,0.2-0.6,0.4-0.8c0.9-1,1.5-2.1,2-3.4c0-0.1,0.1-0.3,0.2-0.4c0.1,0.5-0.2,0.9-0.4,1.4
				C100.2,97.8,99.5,98.8,98.6,99.8z"/>
			<path class="st10" d="M84.6,85.4C84.6,85.4,84.6,85.4,84.6,85.4c0.1,0.2,0.1,0.5-0.1,0.5c-0.1,0-0.2-0.1-0.3-0.2
				C84.2,85.4,84.4,85.4,84.6,85.4L84.6,85.4z"/>
			<path class="st5" d="M101.2,95.2c0.1-0.5,0.3-1,0.4-1.5c0,0,0.1-0.1,0.1-0.1C101.7,94.2,101.5,94.7,101.2,95.2z"/>
			<path class="st11" d="M107.5,100.1L107.5,100.1C107.5,100.1,107.4,100.1,107.5,100.1c-0.1-0.1-0.2-0.2-0.2-0.2
				c0.5,0,0.4-0.4,0.4-0.7c0.2,0.2,0,0.4,0.1,0.6C107.7,99.9,107.6,100,107.5,100.1z"/>
			<path class="st5" d="M101.7,93.5c0-0.3,0-0.6,0.2-0.9C101.9,92.9,101.9,93.2,101.7,93.5z"/>
			<path class="st6" d="M97.7,67.9c-1.1,0-2.2-0.2-3.3-0.3c0,0-0.1,0-0.1-0.1C95.4,67.5,96.5,67.8,97.7,67.9
				C97.7,67.8,97.7,67.8,97.7,67.9z"/>
			<path class="st1" d="M87,66.9c-0.4,0-0.8,0-1.3,0c-0.1,0-0.3,0-0.4-0.2C85.8,66.7,86.4,66.6,87,66.9z"/>
			<path class="st1" d="M85.3,66.7c-0.5-0.1-1.1,0.1-1.6-0.2C84.2,66.5,84.8,66.5,85.3,66.7z"/>
			<path class="st1" d="M88.9,67c-0.6,0-1.2,0-1.8-0.2C87.7,66.9,88.3,66.9,88.9,67z"/>
			<path class="st1" d="M92,67.4c-0.3,0-0.7,0-1-0.2C91.4,67.2,91.7,67.2,92,67.4z"/>
			<path class="st1" d="M93.7,67.5c-0.2,0-0.5,0.1-0.7-0.1C93.3,67.4,93.5,67.4,93.7,67.5z"/>
			<path class="st20" d="M124.6,76.1c0,0.1,0,0.1,0,0.2c0,0,0,0.1,0,0.1c-0.2,0.4-0.5,0.7-0.7,1.1c-0.1,0.1-0.2,0.2-0.2,0.4
				c0,0,0,0.1,0,0.1c-0.3,0.3-0.5,0.6-0.7,0.8c-0.3,0.3-0.6,0.5-1.1,0.5c-1.6,0-3.1-0.1-4.6-0.2c-0.5,0-1.1,0-1.6-0.1
				c-1.1-0.2-2.3-0.1-3.4-0.3c-0.5-0.1-0.9,0-1.4-0.1c-0.5,0-1.1-0.1-1.6-0.1c-0.2,0-0.4,0-0.5,0.2c-0.1-0.3,0-0.7,0.1-1
				c0.1-0.1,0.2-0.1,0.3,0c1.8,0.2,3.6,0.3,5.5,0.4c1.8,0.1,3.6,0.2,5.4,0.4c0.6,0.1,1.2,0.1,1.8,0.1c0.1,0,0.3,0,0.3-0.1
				c0.2-0.2,0.4-0.1,0.7-0.1c0.4,0,0.8-0.2,0.9-0.6c0.2-0.5,0.5-0.9,0.8-1.3C124.4,76.1,124.5,76,124.6,76.1z"/>
			<path class="st21" d="M108.7,77.6c0.1,0.3-0.1,0.6-0.1,0.9c-0.2,0.7-0.1,1.4-0.1,2.1c0,0.2,0.1,0.3,0.3,0.4
				c0.5,0,1.1,0.2,1.6,0.1c1.4,0,2.9,0.2,4.3,0.2c1.2,0,2.5,0.1,3.7,0.2c1.4,0.1,2.8,0.3,4.2,0.2c0.5,0.1,1.1,0.1,1.6,0.1
				c0.5,0,0.9,0.1,1.4,0.2c0.3,0.1,0.4,0.4,0.3,0.7c-0.3,0.5-0.5,0.9-0.8,1.3c-0.2,0.3-0.2,0.6-0.5,0.7c-0.1-0.1-0.1-0.2-0.1-0.3
				c0.1-0.4,0.4-0.7,0.6-1c0.1-0.1,0.1-0.2,0.2-0.2c0.6-1,0.2-0.9-0.5-1c-1.8-0.1-3.5-0.2-5.3-0.3c-0.1,0-0.2,0-0.2,0
				c-0.1,0-0.2-0.1-0.3-0.1c-1.1,0.1-2.3-0.1-3.4-0.1c-1.5-0.1-3-0.2-4.5-0.3c-0.8-0.1-1.6-0.2-2.3-0.1c-0.4,0.1-0.8-0.3-0.7-0.7
				c0.1-0.5,0.1-1,0.2-1.5c0-0.1,0-0.3,0-0.4c-0.1-0.5,0-1,0.3-1.4c0,0,0.1,0,0.1,0C108.8,77.4,108.7,77.5,108.7,77.6z"/>
			<path class="st6" d="M123.7,77.7c0.1-0.4,0.4-0.7,0.6-1.1c0.1-0.1,0.2-0.2,0.3-0.3c-0.1,0.4-0.4,0.7-0.6,1.1
				C123.9,77.5,123.8,77.6,123.7,77.7z"/>
			<path class="st6" d="M122.9,78.6c0.2-0.3,0.4-0.6,0.7-0.8C123.5,78.1,123.3,78.5,122.9,78.6z"/>
			<path class="st22" d="M120.8,89.3c0.4,0,0.8,0,1.1-0.4c0,0,0.1,0,0.1,0c-0.1,0.6-1,1.3-1.7,1.3c-1.7-0.1-3.5,0-5.2-0.1
				c-1.4-0.1-2.9-0.1-4.3-0.1c-0.7,0-1.4-0.2-2.1-0.2c-0.2,0-0.3,0-0.5,0.1c0,0-0.1,0-0.1,0c0-0.3-0.1-0.7,0.2-1
				c0.1,0.1,0.2,0.1,0.3,0.1c1.2,0,2.4,0.1,3.6,0.1c0.9,0,1.9,0.1,2.8,0.1c1.9,0.1,3.7,0.2,5.6,0.1
				C120.7,89.3,120.7,89.3,120.8,89.3z"/>
			<path class="st23" d="M119.3,82c1.7,0.1,3.3,0.1,5,0.3c0.4,0,0.8,0,1.2,0.1c0.2,0.1,0.2,0.1,0.2,0.3c-0.1,0.3-0.2,0.6-0.4,0.8
				c-0.2,0.4-0.5,0.8-0.7,1.1c-0.1,0.3-0.4,0.5-0.5,0.9c-0.2,0.2-0.3,0.4-0.4,0.7c-0.4,0.4-0.7,1-1,1.4c-0.3,0.4-0.5,0.9-0.9,1.2
				c-0.2,0-0.5,0.1-0.7-0.1c0.1-0.2,0.5-0.1,0.6-0.4c0.3-0.6,1-0.8,1.1-1.4c0.1-0.4,0.5-0.7,0.5-1.2c0-0.1,0.1-0.2,0.2-0.3
				c0.6-0.2,0.8-0.8,1-1.3c0.1-0.1,0.1-0.3,0.2-0.4c0.2-0.3,0.3-0.7,0.2-1.1c-0.8,0.3-1.6,0.2-2.3-0.1c-0.2-0.1-0.3-0.1-0.5,0
				c-0.3,0.2-0.7,0.2-1-0.1c-0.2-0.1-0.3,0-0.5,0c-0.7,0.2-1.4,0.3-2.1-0.2c-0.2-0.1-0.2-0.1-0.1-0.3C118.7,82,119,81.8,119.3,82z"
				/>
			<path class="st11" d="M108.1,89.8C108.1,89.8,108.1,89.8,108.1,89.8c-0.1,0.8,0,1.7-0.1,2.5c-0.1,1.8-0.2,3.6-0.2,5.4
				c0,0.4,0,0.8-0.1,1.3c0-1.5,0-2.9,0.1-4.4c0.1-1.1,0.1-2.2,0.1-3.3C108,90.7,108,90.3,108.1,89.8z"/>
			<path class="st15" d="M121.9,88.8c0.5-0.8,1-1.6,1.5-2.3c0.1-0.1,0.2-0.2,0.3-0.2c-0.4,0.6-0.8,1.3-1.2,1.9
				C122.3,88.3,122.3,88.7,121.9,88.8C121.9,88.8,121.9,88.8,121.9,88.8C121.9,88.8,121.9,88.8,121.9,88.8
				C121.8,88.8,121.8,88.8,121.9,88.8C121.8,88.8,121.8,88.8,121.9,88.8z"/>
			<path class="st15" d="M124.1,85.5c-0.1-0.4,0.3-0.6,0.5-0.9c0,0.1,0,0.2,0,0.2C124.4,85.1,124.3,85.3,124.1,85.5z"/>
			<path class="st24" d="M124.6,76.1c-0.4,0.4-0.7,0.9-1,1.4c-0.1,0.4-0.4,0.5-0.8,0.4c-0.4-0.1-0.9,0-1.3-0.2
				c-0.3-0.1-0.6-0.1-0.8-0.1c-0.5,0-1-0.1-1.5-0.1c-0.6-0.1-1.3-0.2-1.9-0.1c-0.1,0-0.1,0-0.2,0c-0.6-0.1-1.1-0.1-1.7-0.1
				c0,0-0.1,0-0.1,0c-0.2-0.1-0.5,0-0.7-0.1c-0.2,0-0.3,0-0.5-0.1c0.1-0.2,0.3-0.2,0.4-0.2c0.6-0.1,1.1,0.1,1.7,0.1
				c0.2,0,0.4,0,0.7,0c0.3,0,0.5,0,0.6-0.3c0.1-0.2,0.3-0.3,0.5-0.4c0.2-0.1,0.4-0.1,0.5,0.1c0.2,0.2,0,0.3-0.2,0.5
				c0.9-0.2,1.6,0.3,2.3,0.3c0.2,0,0.3,0,0.5,0.1c0.3,0.1,0.6,0.1,0.9,0c0.2-0.1,0.5-0.1,0.7-0.1c0.5,0.1,0.9-0.1,1.1-0.6
				c0.3-0.4,0.4-0.9,0.8-1.3c0.6-0.7,1-1.5,1.6-2.2c0.3-0.4,0.5-0.8,0.7-1.1c0.2-0.3-0.2-0.4-0.2-0.6c0-0.1-0.1-0.1-0.2,0
				c-0.4,0.2-0.8,0.1-1.3,0c-0.3-0.1-0.6-0.1-0.9-0.1c-0.6,0.1-1.1,0-1.6-0.3c-0.2-0.2-0.5-0.2-0.7-0.1c-0.5,0.1-0.9-0.1-1.3-0.2
				c-0.1,0-0.2-0.1-0.2-0.2c0.1,0,0.1,0,0.2,0c1.4,0.1,2.8,0.3,4.2,0.4c0.7,0,1.4,0.2,2.1,0.2c0.2,0,0.4,0,0.5,0.2
				c0,0.2,0.2,0.5-0.1,0.6c-0.1,0.1-0.1,0.2-0.1,0.3c-0.5,0.7-1,1.4-1.5,2.2c-0.4,0.5-0.7,1.1-1.1,1.6
				C124.6,75.9,124.6,76,124.6,76.1z"/>
			<path class="st25" d="M103.9,92.4c0.2-1.1,0.2-2.3,0.2-3.4c0-0.3,0-0.6-0.2-0.8c-0.2-0.7-0.2-1.4-0.5-2.2c-0.5-1.4-1-2.8-2-4
				c-0.2-0.3-0.3-0.6-0.3-1c0-1.3,0.1-2.5,0.2-3.8c0-0.8-0.4-1.1-1.1-1.2c-1.3-0.2-2.6-0.3-3.9-0.5c-0.1,0-0.2,0-0.4,0
				c-0.3,0-0.5-0.1-0.7-0.4c-0.3-0.3-0.7-0.6-1.1-0.8c-0.9-0.5-1.9-0.7-2.7-1.5c-0.4-0.3-0.3-0.7-0.3-1c0-0.1,0.1-0.3,0-0.4
				c-0.1-1-0.1-2-0.1-3.1c0-0.5,0.3-0.7,1-0.7c1,0.1,2.1,0.3,3.1,0.3c0.1,0,0.1,0.1,0.2,0.1c-0.5,0.2-1,0.1-1.5,0.1
				c-0.4,0-0.9-0.1-1.3-0.1c-0.3,0-0.4,0.1-0.3,0.4c0.1,0.2,0,0.4,0,0.5c0,0.3,0.1,0.6,0.4,0.7c0.1,0,0.1,0.1,0.2,0.2
				c0.4,0.8,1.2,1.3,1.6,2.1c0.1,0.2,0.3,0.3,0.5,0.3c0.5,0.2,0.9,0.6,1.3,0.9c0.2,0.2,0.4,0.4,0.5,0.7c0.1,0.3,0.3,0.4,0.5,0.5
				c0.4,0.2,0.7,0.3,1,0.6c0.1,0.1,0.2,0.1,0.4,0.2c0.3,0.1,0.7,0.2,0.9,0.4c0.3,0.2,0.7,0.2,1,0.3c0.4,0.1,0.8,0.3,0.9,0.8
				c0.1,0.3,0.2,0.6,0.2,0.9c0,0.6,0,1.2,0,1.9c0,0.2,0,0.4,0.3,0.6c0.2,0.1,0.2,0.3,0.2,0.4c0,0.5,0.2,1,0.2,1.6
				c0,0.3,0.3,0.5,0.4,0.7c0.4,0.8,0.8,1.7,1.3,2.5c0,0.1,0.1,0.2,0.1,0.3c0,1,0.3,2,0.3,3c0,0.5,0.3,1,0.2,1.5c0,0.2,0,0.3,0,0.5
				c-0.1,0.3-0.2,0.6,0.3,0.7c0.2,0.1,0.1,0.3,0,0.4c-0.1,0.1-0.3,0.1-0.4,0.2c-0.1,0.1-0.2,0.2-0.2,0.4
				C104,92.2,104.1,92.4,103.9,92.4z"/>
			<path class="st26" d="M120.6,70.4c-0.1,0-0.1,0-0.2,0c-0.3,0.2-0.6,0.1-0.9,0.1c-1.1-0.1-2.1-0.2-3.2-0.3
				c-1.1-0.1-2.2-0.2-3.4-0.4c-0.2,0-0.3,0-0.4,0.1c-0.1,0-0.3,0.1-0.4,0c-1.1-0.4-2.2-0.3-3.3-0.5c-1.3-0.1-2.6-0.2-3.9-0.4
				c-0.3,0-0.7,0.1-1,0.2c-0.2,0.1-0.5,0.2-0.7,0c-0.1-0.1-0.2-0.1-0.4-0.1c-1,0.2-1.9,0-2.9-0.1c-0.2,0-0.3,0-0.5-0.1
				c-0.2-0.1-0.5-0.1-0.6-0.4c0-0.1-0.1-0.1-0.2-0.2c-0.2-0.1-1.2,0.1-1.3,0.3c-0.2,0.2-0.1,0.5,0.3,0.7c0.4,0.2,0.7,0.4,1,0.7
				c0.2,0.2,0.3,0.3,0.4,0.6c0.1,0.3,0.3,0.6,0.6,0.7c0.3,0.1,0.4,0.3,0.4,0.7c0,0.3,0.1,0.5,0.3,0.6c0.1,0.1,0.3,0.2,0.3,0.4
				c0.2,0.7,0.8,1.1,1.2,1.5c0.7,0.7,1.6,1,2.3,1.7c0.1,0.1,0.3,0.2,0.5,0.1c0.3-0.1,0.4,0.1,0.5,0.4c0,0.4,0.3,0.5,0.7,0.4
				c0.6-0.2,0.7-0.2,1.1,0.3c0.4,0.4,0.7,0.4,1-0.1c0.2-0.3,0.5-0.5,0.6-0.9c0.2-0.3,0.5-0.2,0.8-0.2c0.2,0,0.5,0.1,0.7,0.1
				c0.1,0,0.2,0,0.3,0.1c0,0,0,0.1,0,0.1c-0.4,0.2-0.7,0.1-1.1,0.1c-0.3,0-0.5,0.1-0.6,0.3c-0.4,0.3-0.5,0.7-0.6,1.2
				c0,0.1,0,0.3-0.1,0.4c-0.1,0.3-0.3,0.4-0.6,0.2c-1.1-0.6-2.3-1-3.4-1.6c-0.5-0.3-1-0.4-1.2-1c0,0-0.1-0.1-0.1-0.1
				c-0.5-0.1-0.8-0.5-1.2-0.9c-0.5-0.5-1.1-0.8-1.7-1.2c-0.1-0.1-0.3-0.1-0.4-0.3c-0.5-0.5-1.1-0.9-1.6-1.3
				c-0.2-0.2-0.4-0.4-0.4-0.6c-0.1-0.3-0.2-0.6-0.3-0.9c-0.1-0.3-0.5-0.4-0.7-0.6c-0.6-0.5-1.2-0.9-1.8-1.4
				c-0.1-0.2-0.2-0.3-0.1-0.5c0.2-0.3,0.6-0.6,1-0.5c0,0,0.1,0,0.1,0c0.4,0.2,0.9,0.1,1.3,0.1c0.2,0,0.4,0,0.6,0
				c1.1,0.1,2.2,0.2,3.4,0.3c0.6,0.1,1.2,0.1,1.8,0.2c1.8,0.1,3.6,0.3,5.4,0.5c1.4,0.1,2.7,0.2,4.1,0.4c0.8,0.1,1.7,0.2,2.5,0.3
				c0.7,0.1,1.4,0.1,2,0.2c1.2,0.1,2.5,0.2,3.7,0.3C120.6,70.4,120.6,70.4,120.6,70.4z"/>
			<path class="st27" d="M95.6,68c-0.4,0.1-0.6,0.2-0.9,0.5c-0.2,0.2-0.2,0.4,0.1,0.5c0.2,0.1,0.3,0.2,0.4,0.4
				c0,0.1,0.1,0.2,0.2,0.2c0.4,0.2,0.8,0.4,1.1,0.8c0.1,0.1,0,0.2-0.1,0.2c-0.3,0.1-0.2,0.4-0.2,0.6c0,0.1,0,0.3,0.2,0.4
				c0.2,0,0.2-0.2,0.3-0.3c0.1-0.1,0.1-0.2,0.2-0.2c0.1,0,0.2,0.1,0.2,0.2c0,0.2,0,0.3,0,0.5c0,0.4,0,0.9,0.1,1.3
				c0,0.1,0.1,0.2,0,0.2c-0.2,0.3,0,0.5,0.2,0.6c0.3,0.1,0.5,0.3,0.6,0.6c0.1,0.2,0.2,0.2,0.3,0.2c0.4-0.2,0.7,0.1,1,0.3
				c0.2,0.1,0.3,0.3,0.6,0.3c0.2,0,0.4,0.1,0.3,0.4c-0.4-0.1-0.9-0.1-1.2-0.4c0,0-0.1-0.1-0.1-0.1c-0.8-0.1-1.4-0.8-2.1-1
				c-0.3-0.1-0.4-0.3-0.5-0.5c-0.2-0.7-0.8-1.1-1.4-1.4c-0.4-0.3-0.9-0.4-1.1-0.9c-0.2-0.4-0.6-0.7-0.9-1c-0.2-0.2-0.4-0.4-0.5-0.7
				c0-0.1-0.1-0.2-0.2-0.2c-0.4-0.1-0.4-0.4-0.5-0.8c0-0.2,0-0.5-0.1-0.7c-0.1-0.3,0-0.3,0.2-0.3c0.4,0,0.9,0,1.3,0.1
				c0.6,0.1,1.2,0,1.8,0.1C95.4,67.9,95.5,67.9,95.6,68z"/>
			<path class="st27" d="M97.6,68.2c-0.5,0-1,0-1.5,0c-0.2,0-0.3,0-0.4-0.2C96.3,68,96.9,68.1,97.6,68.2z"/>
			<path class="st28" d="M99.3,95c-0.3,0.2-0.5,0.5-0.7,0.8c-0.5,0.6-1.1,1.1-1.9,1.3c-0.3,0.1-0.5-0.1-0.5-0.4c0-0.4,0-0.7-0.4-0.8
				c0,0-0.1-0.1-0.1-0.1c0-0.4-0.4-0.5-0.6-0.8c-0.7-0.9-1.6-1.2-2.6-1.3c-0.7-0.1-1.2-0.5-1.6-1.1c-0.1-0.2,0-0.3,0.2-0.3
				c0.2-0.1,0.3-0.1,0.3-0.4c0-0.2,0.2-0.3,0.4-0.3c0.8-0.2,1.1-0.9,1.2-1.6c0.1-0.3,0.1-0.7,0.4-0.9c0.2,0,0.5,0.2,0.5-0.2
				c0-0.2,0.1-0.5-0.3-0.6c-0.2,0-0.3-0.2-0.2-0.4c0-0.1,0.1-0.3,0.1-0.4c0.1-0.1,0.2,0.3,0.3,0.1c0.1-0.2-0.1-0.3-0.2-0.4
				c-0.1,0-0.2-0.1-0.2-0.1c0-0.4-0.2-0.6-0.4-0.8c-0.1-0.1-0.1-0.2-0.1-0.3c0.3-0.6,0.1-1.3,0.1-1.9c0-0.2-0.1-0.3-0.2-0.3
				c-0.3-0.1-0.4-0.3-0.4-0.6c0-0.3,0-0.6-0.2-1c-0.2-0.3,0-0.6,0.2-0.9c0.5-0.7,1.1-0.4,1.7-0.2c0.2,0.1,0.3,0.1,0.5,0.1
				c0.6,0.1,1.1,0.2,1.5,0.7c0,0.1,0.1,0.1,0.2,0.1c0.9,0.2,1.4,0.8,1.9,1.4c0.8,0.8,1.3,1.7,1.5,2.8c0.3,1.1,0.3,2.2,0.3,3.4
				c0,0.4,0.1,0.9,0,1.2c-0.1,0.5-0.1,1.1-0.3,1.6c-0.1,0.3-0.1,0.7-0.3,1c-0.2-0.4,0-0.7,0.1-1c0.1-0.4,0.1-0.8,0-1.2
				c0-0.3-0.2-0.5-0.5-0.5c-0.4,0-0.7-0.2-1-0.3c-0.9-0.2-1.9-0.3-2.8-0.2c-0.3,0-0.5,0-0.8-0.1c-0.1,0-0.2,0-0.2,0.2
				c-0.1,0.4,0.1,0.6,0.3,0.8c0.2,0.2,0.3,0.5,0.1,0.8c-0.2,0.4,0,0.9,0.5,1c1,0.2,2,0.9,3,1c0.3,0,0.6,0.1,0.9-0.2
				c0.1-0.1,0.1-0.1,0.2-0.1C99.6,94.4,99.3,94.7,99.3,95z"/>
			<path class="st29" d="M99.6,94.1c-0.4,0.5-0.8,0.5-1.3,0.3c-0.3-0.1-0.6-0.1-1-0.2c-0.1,0-0.2,0-0.2-0.1
				c-0.5-0.4-1.2-0.5-1.8-0.7c-0.4-0.1-0.7-0.9-0.4-1.2c0.2-0.2,0.1-0.4,0-0.5c-0.1-0.2-0.2-0.3-0.4-0.5c-0.2-0.1-0.3-0.3,0-0.4
				c0.2-0.1,0-0.1,0-0.1c-0.1-0.1-0.2-0.1-0.1-0.2c0-0.1,0.1-0.1,0.2-0.1c1.3,0.1,2.7-0.1,4,0.3c0.4,0.1,0.7,0.2,1.1,0.2
				c0.3,0,0.3,0.4,0.3,0.6c0.1,0.6-0.1,1.2-0.2,1.8c0,0.1,0,0.2,0,0.3C99.7,93.8,99.6,93.9,99.6,94.1z"/>
			<path class="st9" d="M91.1,71.3c0.1,0.1,0.1,0.3,0.1,0.4c-0.1,0.4,0,0.7,0.2,1.1c-0.2,0-0.3-0.1-0.3-0.3
				C91,72.1,90.8,71.7,91.1,71.3z"/>
			<path class="st9" d="M87.9,70.4c0,0.1,0,0.4-0.2,0.3c-0.2,0-0.2-0.2-0.2-0.4c0-0.2,0-0.3,0.2-0.3C87.9,70.1,87.8,70.3,87.9,70.4z
				"/>
			<path class="st9" d="M89.7,74.8c0,0.1-0.1,0.1-0.1,0.1c-0.1,0-0.2,0-0.3-0.1c-0.1-0.1-0.1-0.2-0.1-0.3c0-0.1-0.1-0.1,0-0.2
				c0.1-0.1,0.2,0,0.2,0.1C89.4,74.7,89.7,74.6,89.7,74.8z"/>
			<path class="st9" d="M87.9,74.8c0.2,0,0.4-0.2,0.5,0c0,0,0,0.1,0,0.1C88.2,75,88.1,74.9,87.9,74.8z"/>
			<path class="st30" d="M103.9,92.4c0.1-0.1,0.1-0.2,0.2-0.3c0.2-0.1,0.3-0.1,0.5-0.1c0.8,0.1,1.5,0.4,2.3,0.5
				c0,0.3-0.2,0.3-0.4,0.3c-0.3,0-0.5-0.1-0.8-0.1c-0.3-0.1-0.7-0.2-1.1-0.2c-0.3,0-0.4,0.1-0.5,0.3c-0.1,0.5-0.2,1.1-0.3,1.6
				c-0.1,0.3,0,0.4,0.3,0.5c0.4,0.1,0.8,0.3,1.2,0.4c0.7,0.2,1.3,0.4,1.8,0.9c0.1-0.3,0.1-0.6,0.2-0.9c0.1-1,0.1-1.9,0.1-2.9
				c0-0.2-0.1-0.3-0.2-0.4c-0.1-0.2-0.1-0.4-0.1-0.5c0-1,0.1-2,0.1-3c0-1.1,0.3-2.3,0.3-3.4c0-0.2-0.1-0.4,0.2-0.5
				c0.1,0.1,0.1,0.2,0.1,0.3c0,0.7,0.1,1.4-0.1,2.1c-0.1,0.4-0.1,0.8-0.1,1.1c0.1,0.3,0.2,0.4,0.4,0.2c0.2-0.1,0.4-0.2,0.7-0.2
				c0.9,0,1.8,0.1,2.8,0.2c0.6,0.1,1.3,0,1.9,0.1c1,0,2,0.2,3.1,0.1c0.2,0,0.5,0,0.7,0c0.1,0,0.2,0.1,0.3,0.1c1,0,2.1,0.1,3.1,0.1
				c0.2,0,0.4,0,0.6,0.1c0.2,0.2,0.5,0.1,0.7,0.2c0,0,0,0.1,0,0.1c-1.4-0.1-2.8-0.2-4.2-0.2c-0.7,0-1.3-0.1-2-0.1
				c-1.6,0-3.2-0.2-4.7-0.2c-0.7,0-1.4,0-2.1-0.1c-0.4-0.1-0.9,0.4-0.9,1c-0.1,1.3-0.1,2.6-0.2,3.9c0,0.5-0.2,0.9-0.1,1.3
				c0.1,0.5-0.1,1.1-0.1,1.6c0,0.3-0.1,0.5-0.1,0.8c-0.1,0.4,0,0.8,0,1.2c0,0.1,0,0.3,0,0.4c-0.1,0.2-0.1,0.5,0,0.7
				c0,0.1,0.2,0.2,0.1,0.3c-0.1,0.1-0.2,0-0.3-0.1c-0.1,0-0.3-0.1-0.4-0.1c-0.5-0.1-0.6-0.2-0.5-0.7c0-0.5,0-1,0.1-1.5
				c0.1-0.4-0.1-0.6-0.4-0.8c-0.6-0.3-1.3-0.4-2-0.6c-0.2-0.1-0.5-0.1-0.7-0.2c-0.1-0.3,0-0.5,0-0.8c0-0.4,0.2-0.8,0.3-1.2
				C103.8,93.1,103.8,92.7,103.9,92.4L103.9,92.4z"/>
			<path class="st31" d="M103.4,95.4c0.6,0.1,1.3,0.3,1.9,0.4c0.4,0.1,0.7,0.3,1,0.4c0.4,0.2,0.3,0.6,0.2,1c-0.1,0.5,0,1-0.1,1.5
				c-0.1,0.3,0.2,0.4,0.5,0.5c-0.5,0-1-0.1-1.6-0.1c-0.4-0.1-0.9-0.1-1.3-0.2c-0.3-0.1-0.5-0.4-0.4-0.7c0.1-0.2,0.2-0.2,0.4-0.2
				c0.2,0.1,0.4,0,0.5-0.2c0.1-0.3-0.2-0.4-0.4-0.4c-0.3,0-0.5-0.2-0.7-0.4c-0.1-0.1-0.2-0.2-0.1-0.4
				C103.3,96.3,103.3,95.8,103.4,95.4z"/>
			<path class="st25" d="M103.4,95.4c0.1,0.4,0.1,0.8-0.1,1.2c-0.2,0.4,0.1,0.8,0.5,0.8c0.2,0,0.3,0,0.5,0.1
				c0.2,0.1,0.3,0.3,0.2,0.6c-0.1,0.2-0.3,0.4-0.5,0.3c-0.1,0-0.4-0.2-0.4,0c0,0.2-0.1,0.5,0.3,0.6c0.4,0.1,0.8,0,1.2,0.2
				c0.1,0,0.1,0.1,0.2,0.1c-0.9,0-1.9-0.1-2.8-0.2c-0.4,0-0.6-0.7-0.3-1c0.5-0.5,0.7-1.2,0.9-1.8c0.2-0.4,0.1-0.9,0.2-1.3
				c0-0.1,0-0.2,0.1-0.2C103.4,94.9,103.4,95.1,103.4,95.4z"/>
			<path class="st32" d="M120.8,89.3c-0.2,0.3-0.5,0.2-0.8,0.2c-1.6,0-3.2-0.1-4.8-0.1c-0.8,0-1.6-0.1-2.4-0.1c-0.8,0-1.5,0-2.3-0.1
				c-0.7-0.1-1.4-0.1-2-0.1c-0.3,0-0.1-0.2-0.2-0.3c0.1-0.1,0.3-0.1,0.4-0.1c1.5,0.1,3,0.1,4.5,0.2c2.1,0.1,4.2,0.2,6.3,0.2
				C120,89.2,120.4,89.2,120.8,89.3z"/>
			<path class="st31" d="M107.4,98.5c0-0.6-0.1-1.1,0.1-1.7C107.6,97.4,107.6,97.9,107.4,98.5z"/>
			<path class="st25" d="M103.9,92.4c0,0.3,0,0.7-0.2,1C103.7,93.1,103.7,92.7,103.9,92.4z"/>
			<path class="st33" d="M108.6,77.2c0.1-0.3,0.3-0.4,0.6-0.4c0.4,0,0.8,0,1.2,0c0.3-0.2,0.7,0,1,0c0.5,0.1,1.1,0.1,1.6,0.1
				c0.7,0.1,1.4,0.2,2.1,0.2c0,0,0.1,0,0.1,0c0.6,0.1,1.2,0.1,1.7,0.2c0.1,0,0.1,0,0.2,0c0.6,0.1,1.3,0.1,1.9,0.2
				c0.5,0,1,0.1,1.6,0.1c0.3,0.1,0.6,0,0.8,0.1c0.4,0.1,0.8,0.1,1.3,0.2c0.3,0,0.6,0,0.8-0.3c-0.1,0.4-0.5,0.7-0.9,0.7
				c-0.2,0-0.5,0-0.7,0c-0.2,0.2-0.4,0.1-0.6,0.1c-1.7-0.1-3.4-0.2-5-0.4c-1.3-0.1-2.5-0.2-3.8-0.3c-1.2-0.1-2.4-0.2-3.5-0.3
				C108.9,77.4,108.8,77.4,108.6,77.2C108.7,77.3,108.6,77.3,108.6,77.2C108.6,77.3,108.6,77.3,108.6,77.2
				C108.6,77.2,108.6,77.2,108.6,77.2z"/>
			<path class="st34" d="M108.7,77.3c1.3,0,2.6,0.2,4,0.3c1.3,0.1,2.6,0.2,3.9,0.3c0.8,0.1,1.6,0.1,2.4,0.2c1,0.1,2,0.1,3.1,0.2
				c0.1,0.1,0.2,0.1,0.4,0.2c-0.5,0-0.8,0.1-1.2,0.1c-0.9-0.1-1.9-0.1-2.8-0.2c-1.3-0.2-2.7-0.1-4.1-0.3c-0.6-0.1-1.2-0.1-1.9-0.1
				c-0.6,0-1.2,0-1.7-0.1c-0.7-0.1-1.4-0.1-2.1-0.2C108.7,77.5,108.7,77.4,108.7,77.3z"/>
			<path class="st35" d="M108.6,77.2C108.6,77.3,108.6,77.3,108.6,77.2c-0.2,0.6-0.3,1.1-0.2,1.8c0.1,0.5,0,1.1-0.2,1.6
				c-0.2,0.5,0.1,0.8,0.6,0.7c0.8-0.1,1.5,0,2.3,0.1c0.6,0,1.2,0.1,1.8,0.1c1.2,0.1,2.4,0.2,3.6,0.2c0.6,0,1.2,0,1.8,0.1
				c0.3,0.1,0.7-0.2,1,0.1c-0.3,0-0.7,0-1,0c-0.1,0.1-0.3,0.1-0.4,0.1c-0.5-0.1-1-0.1-1.6-0.1c-2.2-0.1-4.3-0.3-6.5-0.4
				c-0.4,0-0.8,0.1-1.2,0.2c-0.6,0.1-0.7,0.4-0.7,0.9c0,0.3,0,0.6-0.1,0.9c0,0.3,0,0.6-0.2,0.8c-0.2,0.4-0.1,0.9-0.1,1.3
				c-0.2,2.1-0.4,4.1-0.4,6.2c0.1,0.3-0.1,0.4-0.3,0.5c-0.8,0.1-1.5-0.3-2.2-0.4c-0.2,0-0.4,0-0.6,0c0-0.2,0.1-0.3,0.2-0.4
				c0.2-0.1,0.4-0.1,0.6,0c0.4,0.1,0.9,0.1,1.3,0.3c0.2,0.1,0.4,0,0.5-0.3c0-0.1,0-0.1,0-0.2c-0.2-1.1,0-2.2,0.1-3.2
				c0.2-1.5,0.1-2.9,0.3-4.4c0.1-0.8,0.2-1.6,0.2-2.3c0-0.5,0.2-0.9,0.2-1.4c0.1-0.6,0-0.9-0.7-1.1c-0.6-0.1-1.2-0.4-1.8-0.7
				c-1.2-0.5-2.4-1.1-3.6-1.6c-0.1,0-0.1-0.1-0.1-0.1c-0.2-0.4-0.5-0.5-0.8-0.7c-0.1-0.2-0.3-0.3-0.6-0.3c-0.3,0-0.5-0.4-0.8-0.6
				c-0.2-0.1-0.3-0.1-0.5-0.1c-0.2,0.1-0.4,0.1-0.5-0.3c-0.1-0.3-0.4-0.5-0.7-0.6c-0.3-0.1-0.4-0.3-0.2-0.6c0-0.1,0.1-0.1,0.1-0.2
				c-0.2-0.5-0.2-1.1-0.2-1.6c0-0.2,0-0.3-0.2-0.5c-0.1,0.2-0.1,0.3-0.2,0.5c-0.1,0.2-0.2,0.2-0.4,0c-0.1-0.2-0.1-0.5-0.2-0.7
				c0-0.1,0-0.2,0.1-0.2c0.1,0,0.2-0.1,0.3-0.2c0.6,0.3,0.8,0.8,1,1.4c0.1,0.4,0.4,0.7,0.7,1c0.4,0.3,0.9,0.5,1.2,1
				c0.4,0.5,0.9,0.7,1.4,1.1c0.5,0.4,0.9,0.7,1.3,1.1c0.1,0.1,0.2,0.1,0.3,0.2c0.4,0.2,0.4,0.2,0.7,0.5c0.3,0.3,0.6,0.5,1,0.7
				c0.4,0.2,0.8,0.4,1.2,0.6c0.7,0.4,1.6,0.5,2.3,1c0.2,0.2,0.5,0,0.4-0.4c0-0.4,0.1-0.8,0.4-1.2C108.4,77.3,108.5,77.3,108.6,77.2z
				"/>
			<path class="st36" d="M121.1,88.6c-0.2,0-0.4,0-0.6,0c-0.1-0.1-0.2-0.1-0.3-0.1c-0.9,0-1.8-0.1-2.8-0.1c-0.1,0-0.2,0-0.3,0
				c-0.2,0-0.4,0-0.7,0c-0.2-0.1-0.3,0-0.5-0.1c-0.2-0.1-0.3-0.3-0.4-0.5c-0.3-0.4-0.2-0.7,0.2-1.1c0.3-0.2,0.4-0.4,0.4-0.8
				c0-0.2,0.1-0.4,0.3-0.5c0.6-0.2,0.7-0.4,0.7-1.1c0-0.1,0-0.2,0-0.2c0-0.3,0.2-0.4,0.5-0.3c0,0,0,0,0-0.1c0-0.8,0.3-1,1.1-1
				c0.5,0,0.9,0,1.3-0.2c0.1,0,0.2-0.1,0.3,0c0.4,0.1,0.8,0.1,1.2,0c0.3-0.1,0.5,0.1,0.5,0.4c0,0.1,0,0.3,0.1,0.4
				c0.1,0,0.1-0.2,0.1-0.3c0.1-0.3,0.3-0.4,0.5-0.4c0.6,0,1.1,0,1.7,0.1c0.4,0.1,0.4,0.1,0.3,0.5c-0.1,0.5-0.5,0.9-0.6,1.3
				c0,0,0,0,0,0c-0.5,0.1-0.5,0.5-0.8,0.8c-0.1,0.1-0.2,0.2-0.2,0.4c0,0.4-0.2,0.7-0.4,1.1c-0.2,0.4-0.3,0.8-0.8,1
				c-0.2,0-0.2,0.4-0.3,0.5C121.5,88.7,121.3,88.6,121.1,88.6z"/>
			<path class="st37" d="M122.9,86.8c0-0.4,0.2-0.7,0.3-1.1c0-0.1,0.1-0.3,0.2-0.4c0.2-0.1,0.3-0.3,0.2-0.5c0-0.2,0.1-0.4,0.3-0.3
				c0.1,0,0.3,0,0.3-0.1c0.1-0.5,0.5-0.9,0.6-1.4c0.1-0.2,0-0.3-0.2-0.3c-0.6,0-1.2-0.1-1.8-0.1c-0.2,0-0.4,0.1-0.4,0.3
				c0,0.1,0,0.2,0,0.3c0,0.1-0.1,0.2-0.2,0.2c-0.1,0-0.1-0.1-0.2-0.2c-0.1-0.7-0.1-0.7-0.9-0.5c-0.1,0-0.1,0-0.2,0
				c-0.6-0.3-1.2,0.1-1.7,0.1c-0.3,0-0.6-0.1-0.9,0c-0.5,0.1-0.6,0.3-0.6,0.8c0,0.1,0.1,0.2,0,0.4c-0.2,0.1-0.2-0.4-0.5-0.2
				c-0.2,0.2-0.2,0.4-0.1,0.6c0.1,0.5-0.2,0.9-0.7,1c-0.3,0.1-0.4,0.2-0.3,0.5c0.1,0.3-0.1,0.5-0.3,0.7c-0.5,0.4-0.6,0.6-0.2,1.2
				c0.1,0.1,0.2,0.2,0.2,0.4c-0.2,0.1-0.5,0.1-0.7,0c-1.1-0.1-2.2-0.1-3.3-0.2c-0.4,0-0.6-0.2-0.8-0.5c0-0.1-0.1-0.2-0.2-0.3
				c-0.2-0.2-0.2-0.4,0.1-0.6c0.3-0.2,0.4-0.5,0.4-0.9c0.1-0.7,0.1-1.4-0.2-2c-0.2-0.6,0-0.9,0.5-1.3c0.4-0.3,0.8-0.5,1.4-0.4
				c0.4,0.1,0.8,0,1.2-0.1c0.3-0.1,0.6-0.1,1,0c0.7,0.1,1.4,0.1,2.1,0.1c0.3,0,0.3-0.3,0.5-0.3c0.1,0,0.3,0,0.4,0
				c0.5,0.6,1.3,0.5,2,0.5c0.1,0,0.2-0.1,0.3-0.1c0.2-0.2,0.3-0.2,0.6,0c0.2,0.2,0.6,0.2,0.9,0c0.2-0.1,0.3-0.2,0.4-0.1
				c0.5,0.3,1.1,0.3,1.8,0.3c0.2,0,0.4,0.1,0.5-0.2c0.1-0.1,0.2-0.1,0.3,0c0.1,0.1,0,0.2,0,0.2c0.1,0.9-0.4,1.5-0.8,2.2
				c-0.2,0.3-0.3,0.6-0.7,0.6c-0.1,0-0.2,0.1-0.1,0.2C123.5,86.2,123,86.5,122.9,86.8z"/>
			<path class="st38" d="M108.8,69.4c0.9,0.1,1.9,0.2,2.8,0.3c0.3,0,0.5,0.3,0.8,0.2c0.2-0.1,0.5-0.1,0.8-0.1
				c0.9,0.1,1.9,0.3,2.8,0.3c0.8,0,1.6,0.2,2.4,0.2c0.7,0.1,1.4,0.2,2.1,0.1c0.5,0.2,0.9,0.4,1.4,0.3c0.3-0.1,0.5,0,0.8,0.2
				c0.4,0.3,1,0.4,1.5,0.3c0.3-0.1,0.6,0,0.9,0.1c0.4,0.1,0.9,0.3,1.3-0.1c0.1-0.1,0.2,0,0.2,0.1c0,0.1,0,0.1,0,0.2
				c0,0.2,0.7,0.4,0.1,0.8c-0.2,0.1-0.3,0.6-0.5,0.8c-0.3,0.5-0.8,1-1,1.6c-0.2,0.4-0.6,0.6-0.8,1c-0.2,0.4-0.5,0.8-0.7,1.2
				c-0.1,0.2-0.7,0.5-1,0.4c-0.3-0.1-0.6-0.1-0.9,0.1c-0.2,0.1-0.4,0.1-0.7,0c-0.6-0.1-1.1-0.2-1.6-0.4c-0.4-0.1-0.8-0.2-1.2-0.1
				c-0.1,0-0.3,0-0.3-0.1c0-0.1,0.1-0.2,0.2-0.2c0.1,0,0.2-0.1,0.1-0.2c-0.1-0.1-0.2-0.2-0.3-0.2c-0.2,0.2-0.7,0.1-0.6,0.6
				c0,0.2-0.2,0.1-0.3,0.1c-0.7,0.1-1.5,0-2.2-0.1c-0.3,0-0.6,0-0.9,0c-1.2,0-2.4-0.1-3.6-0.2c-0.1,0-0.2,0-0.3,0
				c-0.1-0.2-0.3-0.3-0.6-0.2c-0.2,0-0.4,0-0.5-0.1c-0.3-0.1-0.4-0.3-0.2-0.6c0.1-0.2,0-0.3,0-0.4c-0.2-0.3-0.6-0.6-0.5-1.1
				c0-0.1,0-0.1-0.1-0.2c-0.5-0.3-0.8-0.7-1.3-1c-0.3-0.1-0.6-0.3-0.5-0.8c0.2-0.4,0.7-0.5,1.1-0.6c0.2-0.1,0.3,0,0.4,0.1
				c0.1,0.1,0.2,0.2,0.2,0.3c0.1,0.2,0.1,0.5,0.5,0.3c0.2-0.1,0.3-0.6,0.1-0.8c-0.5-0.3-0.9-0.7-1.3-1.1c-0.2-0.2-0.6-0.3-1-0.4
				c-0.2,0-0.3-0.1-0.3-0.3c0-0.2,0.1-0.3,0.2-0.4c0.5-0.3,1-0.4,1.6-0.2C108.2,69.6,108.5,69.6,108.8,69.4z"/>
			<path class="st39" d="M110.4,76.7c1.2,0.1,2.4,0.1,3.6,0.2c0.2,0.2,0.5,0,0.7,0.1c0.2,0,0.3-0.1,0.5,0.1c-1.5,0-3-0.1-4.4-0.3
				C110.7,76.8,110.5,76.8,110.4,76.7C110.4,76.8,110.4,76.8,110.4,76.7z"/>
			<path class="st39" d="M119.1,77.5c-0.6,0-1.3,0.1-1.9-0.2C117.9,77.3,118.5,77.3,119.1,77.5z"/>
			<path class="st39" d="M117,77.3c-0.6,0-1.2,0-1.7-0.2C115.9,77.1,116.5,77.2,117,77.3z"/>
			<path class="st39" d="M121.5,77.6c-0.3,0-0.6,0.1-0.8-0.1C121,77.6,121.3,77.5,121.5,77.6z"/>
			<path class="st40" d="M101.3,76.6c0.9,0.2,1.6,0.8,2.5,1.1c0.9,0.4,1.8,0.8,2.8,1.2c0.1,0,0.2,0.1,0.3,0.1
				c0.8,0.2,0.9,0.4,0.8,1.2c-0.2,1.2-0.3,2.4-0.4,3.6c-0.2,1.3-0.1,2.5-0.3,3.8c-0.1,1.1-0.2,2.2-0.3,3.2c0,0.3,0.1,0.6,0.1,0.9
				c0,0.5-0.3,0.7-0.8,0.5c-0.6-0.2-1.2-0.3-1.7-0.4c0.1-0.1,0.3-0.2,0.4-0.2c0.1,0,0.2-0.1,0.2-0.2c0-0.1-0.1-0.1-0.2-0.1
				c-0.4,0.1-0.4-0.2-0.3-0.4c0.3-0.6,0.1-1.2,0-1.9c-0.1-0.6-0.2-1.1-0.2-1.7c0-0.2,0-0.4-0.1-0.6c-0.2-0.3-0.2-0.6-0.1-0.8
				c0.1-0.3,0-0.5-0.2-0.7c-0.1-0.1-0.2-0.3-0.3-0.4c-0.2-0.8-0.6-1.4-1-2c-0.4-0.7-0.4-1.5-0.5-2.3c0-0.1,0.1-0.3-0.2-0.3
				c-0.2,0-0.2-0.3-0.2-0.5c0-0.6,0-1.2,0-1.7C101.5,77.4,101.4,77,101.3,76.6z"/>
			<path class="st39" d="M108.6,76.8c0,0.2-0.1,0.3-0.2,0.4c-0.1,0.1-0.3,0.3-0.4,0.5c-0.4,0.5-0.8,0.6-1.2,0
				c-0.2-0.3-0.6-0.4-0.9-0.2c-0.3,0.2-0.5,0-0.7,0c-0.2-0.1-0.1-0.3-0.1-0.5c0-0.2-0.1-0.3-0.3-0.3c-0.3,0.2-0.5,0-0.7-0.2
				c-0.3-0.3-0.7-0.5-1-0.7c-0.7-0.4-1.2-0.9-1.8-1.4c-0.4-0.3-0.6-0.6-0.7-1.1c0-0.2-0.2-0.2-0.3-0.3c-0.3-0.2-0.4-0.5-0.4-0.8
				c0.1-0.2-0.1-0.4-0.3-0.4c-0.4-0.2-0.6-0.5-0.8-0.9c-0.2-0.5-0.6-0.8-1.1-1c-0.1-0.1-0.3-0.1-0.4-0.2c-0.3-0.3-0.3-0.7,0.1-0.9
				c0.3-0.1,0.6-0.2,1-0.2c0.3-0.1,0.5,0,0.6,0.3c0,0.2,0.3,0.1,0.3,0.2c-0.3,0.2-0.6,0-0.9,0.2c0.9,0.1,1.5,0.7,2.2,1.2
				c0.5,0.3,1,0.6,1.5,0.8c0.6,0.3,0.9,0.7,0.9,1.4c0,0.3,0.1,0.6,0.1,0.9c0,0.2,0.1,0.3,0.3,0.4c0.5,0.2,0.9,0.5,0.9,1.1
				c0,0.2,0.1,0.3,0.3,0.3c0.3,0.2,0.6,0.4,0.9,0.7c0.2,0.2,0.5,0.3,0.7,0.5c0.4,0.2,0.9,0.4,1.2,0.7c0.2,0.2,0.4,0.1,0.6,0
				C108.2,77,108.4,76.8,108.6,76.8z"/>
			<path class="st41" d="M102.1,71.3c-0.2,0-0.3-0.1-0.5-0.2c-0.8-0.4-1.6-1-2.3-1.5c-0.3-0.2-0.7-0.2-1.1-0.4
				c0.3-0.4,0.7-0.3,1.1-0.3c0.9,0.1,1.8,0.2,2.7,0.2c0.2,0,0.4-0.1,0.6-0.1c0.2,0,0.5-0.2,0.6,0.2c0.1,0.2,0.2,0.1,0.4,0
				c0.7-0.5,1.4-0.3,2.2-0.2c0.8,0.1,1.7,0.2,2.5,0.2c0.1,0,0.3,0,0.3,0.1c0,0.2-0.1,0.3-0.3,0.3c-0.2,0-0.4,0-0.6,0
				c-0.6-0.2-1.1-0.1-1.6,0.2c-0.1,0.1-0.2,0.2-0.2,0.3c0,0.2,0.1,0.1,0.2,0.2c0.5,0.2,1.2,0.2,1.5,0.8c0.1,0.2,0.3,0.3,0.6,0.4
				c0.3,0.1,0.5,0.3,0.5,0.5c0,0.3-0.1,0.5-0.3,0.7c-0.1,0.1-0.3,0-0.4-0.1c-0.1-0.2-0.2-0.4-0.3-0.6c-0.1-0.2-0.3-0.3-0.5-0.1
				c-0.3,0.2-0.7,0.2-0.9,0.6c-0.2,0.1-0.3,0-0.4-0.1c-0.5-0.4-1-0.6-1.7-0.5c-0.4,0-0.7-0.1-1-0.3c-0.1-0.1-0.3-0.2-0.4-0.3
				c-0.2-0.2-0.4-0.3-0.6-0.1C102.3,71.3,102.2,71.3,102.1,71.3z"/>
			<path class="st42" d="M102.1,71.3c0.1,0,0.2,0,0.3-0.1c0.2-0.4,0.4-0.2,0.6,0c0.5,0.4,0.9,0.9,1.7,0.6c0.5,0.2,1.1,0.1,1.5,0.6
				c0.1,0.1,0.2,0.2,0.3,0.2c-0.1,0.2,0,0.4,0.2,0.5c0.6,0.3,1,0.8,1.6,1.1c0.1,0,0.2,0.1,0.1,0.2c-0.3,0.5,0.2,0.7,0.4,1
				c0.2,0.2,0.3,0.3,0,0.6c-0.1,0.1-0.1,0.2,0.1,0.3c0.2,0.2,0.5,0.1,0.8,0.1c0.3,0,0.4,0.1,0.4,0.3c-0.4,0-0.7-0.1-1.1-0.1
				c-0.2,0-0.3,0-0.4,0.2c-0.2,0.1-0.3,0.2-0.5,0.3c-0.3,0.2-0.5,0.2-0.8,0c-0.2-0.3-0.5-0.3-0.8-0.5c-0.5-0.2-1-0.4-1.3-0.9
				c-0.2-0.2-0.5-0.3-0.7-0.5c-0.1-0.1-0.2-0.2-0.2-0.4c0-0.5-0.3-0.8-0.7-0.9c-0.4-0.1-0.6-0.3-0.6-0.7c0-0.5,0-1.1-0.4-1.6
				C102.5,71.5,102.3,71.4,102.1,71.3z"/>
			<path class="st23" d="M117.9,82c-0.1,0.3-0.3,0.4-0.7,0.4c-0.5,0-1.1-0.2-1.6,0c-0.2,0.1-0.5-0.2-0.8-0.2c-0.5,0.1-1,0.2-1.5,0.2
				c-0.1,0-0.1,0.1-0.2,0c-0.7-0.4-1.1,0.2-1.6,0.4c-0.2,0.1-0.4,0.8-0.2,1.1c0.5,0.8,0.2,1.6,0.2,2.4c0,0.3-0.2,0.5-0.4,0.6
				c-0.1,0-0.2,0.1-0.1,0.2c0.3,0.2,0.2,0.6,0.5,0.8c0.3,0.2,0.6,0.3,1,0.3c1.2,0,2.4,0.1,3.6,0.2c0.2,0,0.4-0.1,0.5,0.1
				c-1.7,0-3.3-0.2-5-0.2c-1,0-1.9-0.1-2.9-0.1c-0.2,0-0.4,0-0.5,0.2c-0.1,0.1-0.2,0.3-0.4,0.2c-0.2-0.1-0.2-0.2-0.2-0.4
				c-0.1-0.4-0.1-0.8,0-1.1c0.2-0.8,0.1-1.7,0.1-2.6c0.1-0.8,0.1-1.6,0.2-2.4c0-0.3,0.1-0.4,0.4-0.3c0.1,0,0.3,0.1,0.3,0
				c0.2-0.3,0.5-0.2,0.8-0.3c1.8,0,3.7,0.2,5.5,0.3c0.9,0,1.7,0.1,2.6,0.1C117.7,81.9,117.8,81.9,117.9,82z"/>
			<path class="st43" d="M106.8,92.5c0.1-0.2,0.3-0.3,0.3-0.5c0.2-0.1,0.3,0,0.2,0.2c0,0.8,0.1,1.5,0,2.3c-0.1,0.5-0.2,1-0.1,1.5
				c0,0.1,0,0.3-0.1,0.4c-0.2,0.1-0.2-0.1-0.3-0.2c-0.4-0.4-1-0.6-1.5-0.8c-0.5-0.2-1-0.3-1.5-0.5c-0.2-0.1-0.3-0.2-0.2-0.5
				c0.2-0.6,0.3-1.1,0.4-1.7c0-0.4,0.2-0.5,0.6-0.4c0.6,0.1,1.2,0.2,1.7,0.3C106.5,92.7,106.7,92.6,106.8,92.5z"/>
			<path class="st23" d="M117.1,88.4c1.1,0,2.1,0,3.2,0c0.1,0,0.2,0,0.2,0.2c-1.1,0.1-2.1-0.1-3.2-0.1
				C117.3,88.5,117.2,88.5,117.1,88.4z"/>
			<path class="st26" d="M98.5,68.8c-0.1,0.1-0.3,0.1-0.4,0C98.2,68.7,98.3,68.7,98.5,68.8z"/>
			<path class="st37" d="M110.2,87.5c0.1,0,0.2,0.1,0.2,0.2c0,0.1-0.1,0.1-0.2,0.1c-0.1,0-0.2,0-0.2-0.2
				C110,87.6,110.1,87.5,110.2,87.5z"/>
		</g>
	</g>
</g>
<circle class="st44" cx="93" cy="83.3" r="42.1"/>
</svg>
