<?xml version="1.0" encoding="utf-8"?>
<!-- Generator: Adobe Illustrator 25.2.3, SVG Export Plug-In . SVG Version: 6.00 Build 0)  -->
<svg version="1.1" id="Layer_1" xmlns:v="https://vecta.io/nano"
	 xmlns="http://www.w3.org/2000/svg" xmlns:xlink="http://www.w3.org/1999/xlink" x="0px" y="0px" viewBox="0 0 186 171"
	 style="enable-background:new 0 0 186 171;" xml:space="preserve">
<style type="text/css">
	.st0{fill:#FEC803;}
	.st1{fill:#EFE149;}
	.st2{fill:#FB2C0D;}
	.st3{fill:#F0C03E;}
	.st4{fill:#F84616;}
	.st5{fill:#F29D33;}
	.st6{fill:#F84415;}
	.st7{fill:#F1BC3D;}
	.st8{fill:#F57C28;}
	.st9{fill:#F46F24;}
	.st10{fill:#F4611F;}
	.st11{fill:#F48C2D;}
	.st12{fill:#F2A636;}
	.st13{fill:#F6561B;}
	.st14{fill:#FEFD52;}
	.st15{fill:#F1CF43;}
	.st16{fill:#EEDD47;}
	.st17{fill:#EEDB47;}
	.st18{fill:#EFC941;}
	.st19{fill:#F0BB3C;}
	.st20{fill:#EFCF43;}
	.st21{fill:#EFD244;}
	.st22{fill:#EFBD3D;}
	.st23{fill:#EED846;}
	.st24{fill:#F2902F;}
	.st25{fill:#F1AC37;}
	.st26{fill:#F19E33;}
	.st27{fill:#F49C32;}
	.st28{fill:#F1A836;}
	.st29{fill:#F0B73B;}
	.st30{fill:#F2892C;}
</style>
<g>
	<path class="st0" d="M172.4,95c-1-7.8-6.2-14.9-13.3-18.2c-8.6-4-18.7-2.6-27.8-5.3c-11.8-3.5-20.4-13.3-30.9-19.8
		C88,44.1,73.2,41.4,58.8,38.8C49.2,37.1,39.1,35.5,30,39c-12.3,4.9-19.5,20-15.5,32.6c6.8,21.4,37,27.1,46.2,47.6
		c4.8,10.6,3.2,24.1,10.7,32.9c9,10.5,25.5,8.7,38.9,5.5c10.2-2.5,20.3-5.3,30.4-8.2c8.2-2.3,16.8-4.8,22.8-10.8
		c7.5-7.4,4.4-13.1,4.3-21.7C167.9,109.5,173.5,103.3,172.4,95z"/>
</g>
<g>
	<path d="M93,42.4c23.8,0,43.1,19.3,43.1,43.1c0,23.8-19.3,43.1-43.1,43.1c-23.8,0-43.1-19.3-43.1-43.1C49.9,61.7,69.2,42.4,93,42.4
		z"/>
	<path class="st1" d="M53.4,89.2c-2.3-15.1,6.9-32,21.5-39.3c4.5-2.3,9.2-3.8,14.3-4c2.5,0.3,5,0,7.5,0c9.7,0.7,17.9,4.7,24.6,11.6
		c8.5,8.7,12.3,19.1,11.3,31.3c-0.4,0.1-0.6-0.1-0.8-0.4c-0.6-2.2,0.1-4.5-0.5-6.9c-0.6,0.3-0.5,1.3-1.3,1.2c-0.8-0.7-0.9-1.6-1-2.6
		c-2.5-17.7-18.4-31.6-37-30.9c-9.1,0.3-17,3.6-23.7,9.9C61.8,65.2,58,72.5,57,81.2c-0.1,1-0.3,2-0.5,3c0,1.3-1.8,0.4-2,1.5
		c-0.2,1,0.1,2-0.2,3C54.1,89.1,53.9,89.4,53.4,89.2z"/>
	<path class="st2" d="M109.7,121.6c-9.8,4.7-19.8,4.9-29.9,1.5c-1.2-0.4-2.4-0.7-3.4-1.5c1.1-1.4,2.9-1,4.3-1.7
		c2.3,0.1,4.4,1.1,6.7,1.4c5.4,0.9,10.7,0.5,15.9-1c0.7-0.2,1.4-0.4,2.2-0.4C106.9,120.2,108.7,119.8,109.7,121.6z"/>
	<path class="st3" d="M53.4,89.2c1-1.7,0-3.5,0.6-5.3c0.8-0.6,1,1.9,2,0.5c0.9,0.8,0.6,1.9,0.7,2.9c0.2,2.1,0.6,4.2,0.8,6.3
		c0.2,2-1.6,2-2.8,2.8C53.9,94,53.4,91.7,53.4,89.2z"/>
	<path class="st4" d="M109.7,121.6c-1.2-1-2.8-0.7-4.1-1.3c0-0.1,0-0.3,0.2-0.4c3-1.6,5.9-3.5,9.1-4.8c1.1,0.2,2.2,0.4,2.8,1.6
		C115.2,118.8,112.6,120.5,109.7,121.6z"/>
	<path class="st5" d="M130.7,98.1c-0.8,2.7-1.8,5.3-3.5,7.5c-0.8-0.5-2.1-0.4-2.5-1.6c0.9-2.9,2.1-5.6,3.6-8.2
		C129.9,95.7,130.9,96.3,130.7,98.1z"/>
	<path class="st6" d="M80.4,120.3c-1.1,1.1-2.8,0.7-4.1,1.3c-2.3-0.8-4.3-2-6.2-3.5c0.3-1.8,1.9-1.3,3.1-1.6
		C75.8,117.4,78.3,118.4,80.4,120.3z"/>
	<path class="st7" d="M130.7,98.1c-0.1-1.3-1.4-1.6-2.2-2.2c-0.6-2.4,0-4.6,1.1-6.7c0.6,0.1,0.5,0.5,0.5,0.6c0.1-0.9,0.1-2.3,2-1.4
		c0.1,0.1,0.3,0.3,0.4,0.4C132.7,92,131.7,95.1,130.7,98.1z"/>
	<path class="st8" d="M125,104.2c0.8,0.3,2,0.2,2.2,1.4c-1.1,2.6-2.9,4.7-4.8,6.6c-0.9-0.6-1.6-1.3-2-2.3
		C121.8,107.9,122.7,105.5,125,104.2z"/>
	<path class="st9" d="M65.3,114c-1.7-1.4-3.2-3-4.3-4.9c-0.2-1.8,0.6-2.4,2.3-2c2,1.8,4.2,3.4,5.4,6C67.7,114.1,66.5,113.9,65.3,114
		z"/>
	<path class="st10" d="M120.6,110.1c0.7,0.6,1.8,0.9,1.8,2.1c-1.4,1.7-2.9,3.2-4.8,4.5c-0.9-0.5-1.8-0.9-2.8-1.4
		C116.5,113.2,117.9,110.9,120.6,110.1z"/>
	<path class="st11" d="M63.2,107.4c-1.4-0.2-1.8,0.7-2.1,1.8c-1.7-2-3-4.2-4-6.6c-0.1-1.5,0.9-1.9,2.1-1.9
		C61.1,102.5,62.5,104.7,63.2,107.4z"/>
	<path class="st12" d="M59.2,100.6c-0.6,0.7-2,0.6-2.2,1.9c-1.2-1.9-1.8-4-2.3-6.2c0.7-0.3,0.1-2.7,2-1.3c0.1-0.3,0.2-0.7,0.3-1
		C58.8,95.9,59.2,98.2,59.2,100.6z"/>
	<path class="st13" d="M65.3,114c0.9-0.9,2-0.9,3.1-0.9c2.2,0.4,3.7,1.9,4.9,3.6c-1,0.6-2.5-0.1-3.2,1.2
		C68.3,117,66.7,115.7,65.3,114z"/>
	<path class="st14" d="M96.8,45.9c-2.5,0.7-5,0.7-7.5,0C91.8,45.5,94.3,45.5,96.8,45.9z"/>
	<path d="M73.3,116.8c-1.6-1.2-3.2-2.4-4.9-3.6c-1.8-1.9-3.5-3.9-5.3-5.8c-1.3-2.2-2.6-4.5-3.9-6.7c-0.7-2.2-1.5-4.4-2.2-6.6
		c-0.5-3.2-0.9-6.4-1-9.7c1.1-14.7,7.9-25.7,21.3-32.2c22.2-10.8,49,3.8,52.2,28.3c0.1,0.7,0.2,1.4,0.4,2.2c1,2.2,1.1,4.4-0.1,6.5
		c-0.4,2.2-0.9,4.5-1.3,6.7c-1.2,2.8-2.4,5.5-3.6,8.3c-1.4,2-2.9,4-4.3,5.9c-1.9,1.7-3.9,3.5-5.8,5.2c-2.9,2-6,3.6-9.3,5
		c-8.4,2.8-16.8,2.8-25.2,0C78,119.1,75.7,118,73.3,116.8z"/>
	<path class="st15" d="M129.9,89.1c0-2.2,0-4.3,0.1-6.5c0.1-0.2,0.3-0.3,0.4-0.5c0.3-0.7-0.4-2,0.7-1.9c1,0.1,1,1.4,1.1,2.3
		c0.1,2,0,3.9,0,5.9c-1.7-0.2-1.9,1-2.1,2.2C130,90.1,129.9,89.6,129.9,89.1z"/>
	<path class="st16" d="M105.5,82c1.4-3.4,2.1-6.9,5.3-9.6c1.6-1.3,2.5-3.8,4.1-5.6c0.8-0.9,1.7-1.9,2.8-2.5c0.6-0.4,1.3-1.4,2.1-0.7
		c0.8,0.7,0.7,1.9,0.3,2.9c-0.1,0.3-0.4,0.6-0.6,0.9c-3.4,3.6-5.7,7.8-7.3,12.4c-0.6,1.7-1.8,3.2-2.1,5c-1.1-1.2-2.2-2.5-4.2-2.1
		C105.5,82.7,105.4,82.3,105.5,82z"/>
	<path class="st17" d="M76.5,79.3c0.5,0.1,1-0.1,1-0.5c0.3-2,1.8-3.5,2.4-5.4c1-3.1,3.4-4.4,6.3-5.1c0.7-0.2,2-0.5,2-0.1
		c0,1.2,1.5,1.9,0.8,3.4c-2.2,4-4.2,8.2-6.8,12c-0.7-1.2-0.7-1.2,0.7-2.2c-1.9,0.3-3.8,0.3-5.6-0.5C76.7,80.4,76,80.1,76.5,79.3z"/>
	<path class="st18" d="M105.5,82c0.2,0.1,0.4,0.4,0.5,0.3c2.3-0.7,3.6,0.1,3.9,2.5c0,0.1,0,0.2,0,0.2c-1,2.4-2,4.7-3,7.1
		c-0.9-1.9-2.5-2.3-4.5-2.2c-1.7,0.1-3.5,0.1-5.2,0c-0.8-0.1-1.8,0.1-1.9-1.2c0.4-1.9,1.4-3.6,2.2-5.2c2.2-0.7,4.5-0.9,6.7,0
		C105.2,83.4,105,82.4,105.5,82z"/>
	<path class="st19" d="M95.4,88.7c0.6,0.8,1.4,0.5,2.2,0.5c2.1,0,4.2,0.1,6.3,0c2.2-0.2,3.3,0.5,3.1,2.9c-0.3,1.1-0.7,2.2-1,3.3
		c-0.3,0.1-0.6-0.1-0.7-0.4c-0.8-2.4-1-2.5-3.5-1.6c-0.5,0.2-1.1,0.6-1.5-0.2c-0.1-0.7-0.2-1.4-0.3-2.4c-1.7,1.3-1.3,3.4-2.4,4.6
		c-2.4-0.8-4.8-1.2-7.2,0c-0.3,0.2-0.5-0.2-0.3-0.5c-0.4-0.8-0.5-1.7-0.4-2.5c0.5-0.8,0-1.7,0-2.6c0-1.2-0.2-2.6,1.6-2.9
		c1.6-0.2,2.9,0,3.3,1.9C94.9,88.8,95.1,88.7,95.4,88.7z"/>
	<path class="st20" d="M77.3,80.4c1.8,0.4,3.6,0.5,5.3,0.5c0.7,1.1-1.3,1.5-0.4,2.6c-1.1,1.9-1.9,4-2.2,6.2
		c-1.5-1.1-2.8-2.2-4.7-0.6c-0.9,0.7-0.4-0.8-0.9-1.1c-1.6-1.4-0.8-3.7-1.8-5.3c-0.6-1.6,0-2.3,1.6-2.4
		C75.2,80.2,76.3,79.8,77.3,80.4z"/>
	<path class="st21" d="M94.6,88.8c-0.8-1.6-2.2-1.4-3.5-1.3c-0.9,0.1-0.9,0.8-0.9,1.4c-0.1,1.1,0.4,2.4-0.4,3.4
		c-0.5-4.7,0.3-9.5-0.1-14.2c-0.1-0.9,0.4-1.4,1.3-1.4c1.8,0,4.4,2.5,4.1,4.2C94.5,83.6,95,86.2,94.6,88.8z"/>
	<path class="st17" d="M77.3,80.4c-1.3,0.2-2.6,0.4-3.9,0.4c-1.5,0-0.1,1.4-0.9,1.8c-1.2-2.3-3.4-3.9-4.1-6.6c-0.5-2.1,1-2.3,2-3
		c1.1-0.7,2.2-0.7,2.9,0.7c1,1.9,2.1,3.8,3.1,5.6C76.5,79.9,77.1,80,77.3,80.4z"/>
	<path class="st22" d="M74.3,87.9c0.5-0.2-0.1,1.3,0.9,0.5c1.9-1.6,3.7-1,4.7,1.2c-0.4,1.6-0.8,3.1-1.2,4.7c0.2,0.8,0.3,1.6,0,2.3
		c-0.5,0.2-0.7-0.1-0.9-0.4c-0.6-0.9-1.4-1.2-2.4-1c-1.1,0.2-0.8,1.2-1,1.9c-0.2,0.7,0.1,1.7-1.1,1.8c-1-2.6,0-5.1,0.4-7.6
		C73.9,90.2,74.5,89.2,74.3,87.9z"/>
	<path class="st23" d="M104.3,83.5c-2.2,0-4.5,0-6.7,0c0.8-2,1.5-4.1,2.4-6.1c0.3-0.8,0.9-1.5,1.8-1.8c0.7-0.2,1.5-0.3,1.7,0.5
		c0.4,1.6,1,3.4,0.7,4.9C103.9,81.9,104.4,82.6,104.3,83.5z"/>
	<path class="st24" d="M77.7,101.6c0,0.9,0.1,1.8,0,2.6c-0.2,0.7,0.7,2.9-1.7,1.4c-1-0.6-1.5,0.8-1.7,1.7c-0.1,0.5-0.2,1.2-0.8,1.2
		c-0.8,0-0.7-0.8-0.8-1.3c-0.4-2.7-0.7-5.4,0.6-7.9c0.6,0.6,1.2,0.6,2,0.5C76.5,99.7,77.5,100.2,77.7,101.6z"/>
	<path class="st25" d="M90.1,94.9c2.1-1.3,6.1-1,7.6,0.6c-0.3,1.5-1.1,2.7-1.8,4c-2-0.6-4.1-1.6-5.9,0.6c-0.8-0.7-0.2-1.6-0.6-2.3
		C88.5,96.5,89.1,95.6,90.1,94.9z"/>
	<path class="st26" d="M104.6,99.4c-0.4,1.3-0.9,2.4-1.6,3.6c-0.5,0.8-1.1,1.1-2,0.9c-0.8-0.2-1.1-0.7-1.3-1.5
		c-0.4-2.1-0.4-4.2,0.5-6.2c0.4,0.1,0.9,0,1.3-0.1c2.4-0.4,3,0.1,3,2.5C104.5,98.9,104.5,99.1,104.6,99.4z"/>
	<path class="st27" d="M89.3,97.7c0.6,0.5,0.2,1.3,0.5,1.9c1.3-2.1,3.9-2.1,6-0.1c-0.6,1.6-1.2,3.2-1.8,4.9c-0.4,0.1-0.7-0.1-1-0.3
		c-1.8-1-2.1-0.9-2.9,0.9c-0.2,0.4-0.2,1.1-1,0.8c-1-1.9,0.2-3.7,0.1-5.6C89.2,99.3,89.3,98.5,89.3,97.7z"/>
	<path class="st28" d="M77.7,101.6c-0.7-1.4-1.9-1.5-3.1-1.3c-1,0.2-1.3-0.2-1.3-1c-0.1-0.1-0.1-0.2,0-0.3c0.7-0.5,0.4-1.3,0.5-2
		c0.2-0.9-0.6-2.4,1.1-2.3c1.3,0,3.5-1.2,3.7,1.7c0-0.6,0.1-1.3,0.1-1.9C79.7,96.9,78.7,99.3,77.7,101.6z"/>
	<path class="st29" d="M104.6,99.4c-0.4-0.3-0.4-0.8-0.4-1.2c0-1.8-1.1-2-2.5-1.7c-0.6,0.1-1.3,1.1-1.6-0.3c0-1,0.1-1.9,0.1-2.9
		c1.3,0.2,2-1.2,3.4-1c1.3,0.2,2.4,0.1,1.9,1.9c-0.1,0.4,0,0.9,0.3,1.2C105.8,96.9,104.5,97.9,104.6,99.4z"/>
	<path class="st30" d="M89.1,105.7c0.1-0.2,0.4-0.3,0.4-0.5c0.1-1.2,0.1-2.3,1.7-2.6c1.4-0.2,2.1,0.7,2.8,1.6
		c-0.1,2.2-2.5,2.8-3.2,4.8C89.7,108.2,89.6,106.8,89.1,105.7z"/>
</g>
</svg>
