<?xml version="1.0" encoding="utf-8"?>
<!-- Generator: Adobe Illustrator 25.2.3, SVG Export Plug-In . SVG Version: 6.00 Build 0)  -->
<svg version="1.1" id="Layer_1" xmlns="http://www.w3.org/2000/svg" xmlns:xlink="http://www.w3.org/1999/xlink" x="0px" y="0px"
	 viewBox="0 0 180.7 154.1" style="enable-background:new 0 0 180.7 154.1;" xml:space="preserve">
<style type="text/css">
	.st0{fill:#FEC909;}
	.st1{fill:#D0DDF2;}
	.st2{fill:#80D2ED;}
	.st3{fill:#7BD1ED;}
	.st4{fill:#345CAA;}
	.st5{fill:#335AA9;}
	.st6{fill:#3761AD;}
	.st7{fill:#74CEED;}
	.st8{fill:#3357A7;}
	.st9{fill:#345EAB;}
	.st10{fill:#3560AD;}
	.st11{fill:#3863AF;}
	.st12{fill:#70C9EB;}
	.st13{fill:#70C9EC;}
	.st14{fill:#71CBEC;}
	.st15{fill:#65BCE9;}
	.st16{fill:#4C92CE;}
	.st17{fill:#4B92CE;}
	.st18{fill:#3A65B0;}
	.st19{fill:#6AC1E9;}
	.st20{fill:#6CC5EB;}
	.st21{fill:#63B9E8;}
	.st22{fill:#549FD7;}
	.st23{fill:#427ABD;}
	.st24{fill:#69C0E9;}
	.st25{fill:#4175BA;}
	.st26{fill:#3C6DB5;}
	.st27{fill:#3A6AB3;}
	.st28{fill:#67BEE9;}
	.st29{fill:#3A6BB4;}
	.st30{fill:#3967B1;}
	.st31{fill:#427ABE;}
	.st32{fill:#4E95D0;}
	.st33{fill:#437DC0;}
	.st34{fill:#6BC2E9;}
	.st35{fill:#3C6FB6;}
	.st36{fill:#3B6CB5;}
	.st37{fill:#498CCB;}
	.st38{fill:#6CC4EA;}
	.st39{fill:#498FCC;}
	.st40{fill:#3E70B7;}
	.st41{fill:#4072B9;}
	.st42{fill:#4787C7;}
	.st43{fill:#498DCB;}
	.st44{fill:#3D70B7;}
	.st45{fill:#4177BC;}
	.st46{fill:#56A3DA;}
	.st47{fill:#6EC7EB;}
	.st48{fill:#498AC9;}
	.st49{fill:#3C6EB6;}
	.st50{fill:#5CACE0;}
	.st51{fill:#5DAFE1;}
	.st52{fill:#61B5E5;}
	.st53{fill:#62B5E5;}
	.st54{fill:#66BDE9;}
	.st55{fill:#4788C8;}
	.st56{fill:#529CD5;}
	.st57{fill:#4582C3;}
	.st58{fill:#5CACDF;}
	.st59{fill:#58A5DB;}
	.st60{fill:#55A1D8;}
	.st61{fill:#4685C6;}
	.st62{fill:#59A8DD;}
	.st63{fill:#5099D3;}
	.st64{fill:#4F97D1;}
	.st65{fill:#FFFFFF;}
	.st66{fill:#6FC7EB;}
	.st67{fill:#FEFEFF;}
	.st68{fill:#76CFED;}
	.st69{fill:#3255A6;}
	.st70{fill:#3963AF;}
	.st71{fill:#FEFFFF;}
	.st72{fill:#6EC6EB;}
	.st73{fill:#62B6E6;}
	.st74{fill:#509AD3;}
	.st75{fill:#6CC2E9;}
	.st76{fill:#3969B2;}
	.st77{fill:#447FC2;}
	.st78{fill:#4480C2;}
	.st79{fill:#488AC9;}
	.st80{fill:#4F97D2;}
	.st81{fill:#4685C5;}
	.st82{fill:#5AAADE;}
	.st83{fill:#60B2E4;}
	.st84{fill:#60B3E4;}
	.st85{fill:#6DC5EB;}
	.st86{fill:#71C9EC;}
	.st87{fill:#58A7DC;}
	.st88{fill:#57A4DA;}
	.st89{fill:#5AA9DE;}
	.st90{fill:#55A2D9;}
	.st91{fill:#4A8FCC;}
	.st92{fill:#4D93CF;}
	.st93{fill:#61B3E4;}
	.st94{fill:#5DAEE1;}
	.st95{fill:#5FB1E3;}
	.st96{fill:#5DADE0;}
	.st97{fill:#519BD4;}
	.st98{fill:#5FB0E2;}
	.st99{fill:#549ED7;}
	.st100{fill:#4C8FCC;}
	.st101{fill:#56A2D9;}
	.st102{fill:#4B91CD;}
	.st103{fill:#5DABDF;}
	.st104{fill:#3D6AB3;}
	.st105{fill:#4E93CF;}
	.st106{fill:#74A9DB;}
	.st107{fill:#65B3E3;}
	.st108{fill:#529DD5;}
	.st109{fill:#529BD5;}
	.st110{fill:none;stroke:#FFFFFF;stroke-width:3;stroke-miterlimit:10;}
</style>
<g>
	<path class="st0" d="M171.1,72.6c-1-7.8-6.2-14.9-13.3-18.2c-8.6-4-18.7-2.6-27.8-5.3c-11.8-3.5-20.4-13.3-30.9-19.8
		C86.7,21.7,71.9,19,57.5,16.4c-9.6-1.7-19.7-3.3-28.8,0.2c-12.3,4.9-19.5,20-15.5,32.6c6.8,21.4,37,27.1,46.2,47.6
		c4.8,10.6,3.2,24.1,10.7,32.9c9,10.5,25.5,8.7,38.9,5.5c10.2-2.5,20.3-5.3,30.4-8.2c8.2-2.3,16.8-4.8,22.8-10.8
		c7.5-7.4,4.4-13.1,4.3-21.7C166.6,87.1,172.2,80.9,171.1,72.6z"/>
</g>
<g>
	<path class="st1" d="M48.2,61.5c0,0,0.1,0,0.1,0c0.1,0.1,0.1,0.1,0.2,0.2c0.1,0.4,0.1,0.8,0.1,1.1c0,0.3,0,0.6,0,0.9
		c0,0.1-0.1,0.3-0.2,0.4l-0.1,0l-0.1,0C48.2,63.2,48.2,62.4,48.2,61.5z"/>
	<path class="st2" d="M68.5,26.2c1.2-1,2.6-1.7,4-2.4c4.4-2.2,9.1-3.7,14-4.2c4.4-0.5,8.8-0.4,13.2,0.4c5.3,1,10.2,2.9,14.8,5.7
		c0.2,0.1,0.5,0.3,0.7,0.5c-0.2,0.4-0.6,0.4-1,0.4c-0.4,0-0.8,0-1.2,0c-11.5,0-22.9,0-34.4,0c-0.6,0-1.1,0-1.7,0.1
		c-0.5,0-0.9,0.4-1.4,0.1c-0.3-0.3-0.7-0.2-1.1-0.2c-1.6,0-3.2,0-4.8,0C69.2,26.7,68.7,26.7,68.5,26.2z"/>
	<path class="st3" d="M76.7,26.8c0.2-0.5,0.7-0.4,1.1-0.4c12,0,24,0,36,0c0.5,0,1,0,1.4-0.2c1.6,0.9,3.1,2,4.4,3.2
		c-0.2,0.2-0.4,0.1-0.7,0.1c-4.1-0.1-8.3,0-12.4,0c-6.8,0-13.7,0-20.5,0c-0.3,0-0.5,0-0.8,0c-1,0-1.1,0.1-1.1,1.1c0,0.3,0,0.6,0,0.9
		c0,0.8,0,1.6,0,2.4c-0.1,0.3,0,0.6-0.4,0.7c-0.4-0.3-0.3-0.7-0.3-1.1c0-1.8,0-3.7,0-5.5c0-0.7-0.2-0.9-0.8-0.7
		c-0.7,0.2-1.4,0.4-2.1,0.5c-0.8,0.1-1.2,0.4-1,1.3c-0.1,0.3-0.4,0.2-0.6,0.1c-0.5-0.2-1-0.1-1.4,0C76.9,28.6,76.5,27.8,76.7,26.8z"
		/>
	<path class="st4" d="M70.2,100.6c-0.8-0.4-1.5-0.8-2.2-1.4c-0.2-0.2-0.6-0.3-0.5-0.7c0.1-0.3,0.5-0.4,0.8-0.4c0.4-0.1,0.7,0,1.1,0
		c14.9,0,29.9,0,44.8,0c0.5,0,1,0,1.4,0.1c0.2,0.1,0.5,0.2,0.5,0.4c0,0.2-0.2,0.3-0.4,0.4c-0.2,0.1-0.3,0.3-0.5,0.4
		c-0.6,0.5-1.2,0.8-1.9,1.2c-0.4-0.2-0.8,0-1.2,0c-13.5,0-26.9,0-40.4,0C71.4,100.5,70.8,100.4,70.2,100.6z"/>
	<path class="st5" d="M70.2,100.6c0.2-0.5,0.7-0.4,1.1-0.4c12.9,0,25.8,0,38.7,0c0.9,0,1.8,0,2.7,0c0.3,0,0.6,0,0.8,0.3
		c-1.6,1-3.2,1.8-4.9,2.4c0-0.2,0-0.5-0.4-0.5c-0.2,0-0.3,0-0.5,0c-10.6,0-21.2,0-31.9,0c-0.4,0-0.9-0.1-1.1,0.3
		C73.1,102.2,71.6,101.5,70.2,100.6z"/>
	<path class="st6" d="M120.7,95.3c-0.4,0.5-0.8,0.9-1.3,1.2c-0.2-0.3-0.4-0.4-0.8-0.4c-0.3,0-0.6,0-0.9,0c-17.3,0-34.7,0-52,0
		c-0.6,0-1.2,0-1.8,0.1c-0.6-0.4-1.1-0.9-1.5-1.4c0-0.5,0.3-0.6,0.6-0.6c0.4-0.1,0.8,0,1.2,0c12.8,0,25.7,0,38.5,0
		c5.5,0,11,0,16.5,0c0.3,0,0.7,0,1,0c0.3,0,0.7,0,0.9,0.4C121.3,94.9,120.8,95,120.7,95.3z"/>
	<path class="st7" d="M83.9,31.7c0-2.4,0-2.4,2.4-2.4c5.5,0,10.9,0,16.4,0c5.2,0,10.5,0,15.7,0c0.5,0,0.9,0,1.3,0.2
		c0.6,0.5,1.3,0.9,1.7,1.5c-0.2,0.3-0.5,0.4-0.9,0.4c-5.2,0-10.3,0.1-15.5,0c-0.4-0.1-0.5-0.3-0.5-0.7c0-0.2,0.1-0.4-0.3-0.4
		c-0.8,0.6-1.5,1.2-2.3,1.7c-0.3,0.2-0.6,0.4-1,0.1c-0.5-0.2-0.9-0.2-1.4-0.2c-4.7,0-9.5,0-14.2,0C84.8,32,84.3,32,83.9,31.7z"/>
	<path class="st8" d="M74.6,102.8c-0.1-0.2-0.2-0.3-0.4-0.5c11.7,0,23.4,0,35,0c-0.1,0.4-0.6,0.3-0.7,0.7c-2.7,1.3-5.5,2.1-8.4,2.6
		c-6.8,1.3-13.5,1-20.2-0.8c-0.2-0.1-0.5-0.2-0.7-0.3c-1.4-0.5-2.8-1.1-4.3-1.6C74.8,103,74.7,103,74.6,102.8z"/>
	<path class="st9" d="M115.4,99.4c0.1-0.4,0.5-0.5,0.7-0.7c-0.3-0.3-0.7-0.3-1.2-0.3c-15.4,0-30.8,0-46.2,0c-0.4,0-0.8,0.1-1.2,0.3
		c0.1,0.2,0.3,0.4,0.4,0.6c-0.6-0.3-1.2-0.7-1.7-1.2c-0.2-0.3-0.6-0.5-0.7-0.9c0-0.1,0.1-0.2,0.2-0.3c0.4-0.3,0.8-0.2,1.2-0.2
		c16.6,0,33.1,0,49.7,0c0.4,0,0.9,0,1.2,0.2c0.3,0.2,0.3,0.4,0,0.6c-0.3,0.2-0.6,0.4-0.8,0.7C116.6,98.7,116,99.1,115.4,99.4z"/>
	<path class="st10" d="M118.1,97.1c-0.4-0.1-0.9-0.2-1.3-0.2c-16.7,0-33.3,0-50,0c-0.4,0-0.9-0.2-1.1,0.3c-0.6-0.1-0.9-0.6-1.4-0.8
		c-0.2,0-0.3-0.1-0.3-0.3c0-0.2,0.1-0.4,0.4-0.4c0.2,0,0.3,0,0.5,0c18,0,36,0,54,0c0.6,0,1,0,0.5,0.7c0,0,0,0,0,0
		C118.8,96.5,118.7,97.3,118.1,97.1z"/>
	<path class="st11" d="M120.7,95.3c0-0.3,0.6-0.4,0.3-0.8c-0.2-0.3-0.6-0.1-0.9-0.1c-18.9,0-37.8,0-56.6,0c-0.4,0-0.9-0.1-1.1,0.4
		c-0.2-0.2-0.3-0.3-0.5-0.5c-0.1-0.2-0.3-0.3-0.4-0.4c-0.2-0.2-0.2-0.4,0.1-0.5c0.3-0.1,0.7-0.1,1-0.1c5.8,0,11.7,0,17.5,0
		c0.3,0,0.6,0,0.9-0.1c0.9-0.1,1.7,0.2,2.6,0.3c2.9,0.3,5.8,0.1,8.6-0.4c0.3-0.1,0.7-0.1,1,0c0.3,0.1,0.7,0.1,1,0.1
		c2.9,0,5.7,0,8.6,0c0.2,0,0.4,0.1,0.5,0.2c0.1,0.1,0.3,0.2,0.5,0.2c0.4-0.2,0.7-0.3,1.1-0.3c5.4,0,10.9,0,16.3,0
		c0.4,0,0.8-0.1,1,0.4C121.9,94.3,121.3,94.9,120.7,95.3z"/>
	<path class="st12" d="M124.6,34.4c0.6,0.5,1.2,1.1,1.5,1.9c-0.1,0-0.2,0.1-0.3,0c-0.8-0.7-1.8-0.6-2.8-0.6c-3.5,0-7,0-10.5,0
		c-0.6,0-1.2,0-1.9,0.1c-0.4-0.3-0.8-0.3-1.3-0.2c-1.4,0.4-2.9,0.5-4.4,0.7c-1.3,0.1-1.5-0.1-1.1-1.4c0.1-0.2,0.1-0.4,0.2-0.6
		c0.2-0.8,0.8-1.1,1.6-1.1c5.6,0,11.3,0,16.9,0C123.6,33.3,124.1,33.8,124.6,34.4z"/>
	<path class="st13" d="M58.4,35.1c0.2-0.6,0.7-1,1.2-1.4c0.9-1.2,2-1.8,3.7-1.7c2.9,0.2,5.8,0.2,8.8-0.1c0.4,0,0.6,0.2,0.9,0.5
		c0.5,0.6,1.1,1.3,1.7,1.9c0.2,0.2,0.5,0.5,0.2,0.8c-0.9,0.3-1.7,0.1-2.6,0.2c-0.6,0-1-0.5-1.3-0.8c-0.4-0.3-0.6-0.3-0.9,0.1
		c-0.3,0.4-0.6,0.9-1.2,0.6c-3.1-0.2-6.3,0-9.4-0.1C59,35.2,58.7,35.3,58.4,35.1z"/>
	<path class="st14" d="M124.6,34.4c-0.7-0.9-1.7-0.9-2.8-0.9c-5.3,0-10.6,0-15.9,0c-0.9,0-1.5,0.1-1.6,1c-0.4-0.4-0.1-0.9,0-1.3
		c0.3-0.5-0.1-1.3,0.4-1.7c0.4-0.2,0.8-0.1,1.2-0.1c5,0,10,0,15,0c0.4,0,0.8,0.1,1.1,0.3C123,32.5,123.9,33.3,124.6,34.4z"/>
	<path class="st15" d="M53.3,42.8c0.2-0.6,0.5-1.1,0.8-1.5c0.3-0.3,0.7-0.3,1.1-0.3c6.7,0,13.4,0,20.1,0c0.3,0,0.7,0,1,0.1
		c0.1,0.1,0.2,0.1,0.2,0.2c-0.1,0.7-1.5,1.8-2.3,1.8C73.7,43,73.2,43,72.6,43c-5.9,0-11.9,0-17.8,0C54.3,43,53.8,43.2,53.3,42.8z"/>
	<path class="st16" d="M135,67c0,0.5,0.1,1-0.2,1.5c-0.3-0.3-0.3-0.7-0.3-1.1c-0.1-1.1-0.1-1.1-1.2-1.1c-4.6,0-9.3,0-13.9,0
		c-0.8-0.4-1.2-1.2-1-2.2c0.3-0.4,0.7-0.4,1.2-0.4c4.8,0,9.6,0,14.4,0c1.1,0,1.2,0.1,1.1,1.3C135,65.7,135.1,66.4,135,67z"/>
	<path class="st17" d="M48.7,68c-0.2-0.6-0.2-1.2-0.2-1.9c-0.3-2-0.2-2,1.7-2c4.8,0,9.6,0,14.5,0c0.5,0,1-0.1,1.4,0.3
		c0,1-0.5,2-1.2,2.2c-0.5-0.1-1-0.1-1.4-0.1c-4.3,0-8.7,0-13,0c-1.3,0-1.3,0-1.6,1.2C48.9,67.9,48.8,68,48.7,68z"/>
	<path class="st18" d="M124.3,91.7c-0.4,0.5-0.8,1.1-1.4,1.4c-0.4,0.1-0.9,0.1-1.3,0.1c-5.7,0-11.3,0-17,0c-0.3,0-0.4-0.3-0.3-0.5
		c0.5-0.8,1-1.6,2-1.8c4,0.2,8,0,12,0.1c1.7,0,3.4,0,5.1,0C123.8,91.1,124.4,91,124.3,91.7z"/>
	<path class="st19" d="M54.9,40c0.3-0.7,0.7-1.3,1.2-1.9c0.4-0.3,0.8-0.3,1.3-0.3c2.7,0,5.4,0,8.1,0c0.6,0,1.2,0,1.8-0.2
		c0.3-0.1,0.6-0.1,0.8,0c1.4,0.5,2.8,1,4.2,1.6c0.3,0.1,0.8,0.2,0.4,0.7c-0.4,0.4-1,0.4-1.5,0.4c-5,0-9.9,0-14.9,0
		C55.8,40.5,55.3,40.5,54.9,40z"/>
	<path class="st20" d="M110.6,35.8c0.2-0.3,0.5-0.3,0.9-0.3c4.4,0,8.7,0,13.1,0c0.8,0,1,0.7,1.6,0.9c0.4,0.4,0.8,0.8,1,1.4
		c-0.5,0.2-1,0.1-1.4,0.1c-5,0-10,0-15,0c-0.1,0-0.2,0-0.3,0C110,37.1,110.1,36.5,110.6,35.8z"/>
	<path class="st18" d="M61.4,93.6c0.1,0.3,0.5,0.4,0.5,0.8c-0.9-0.7-1.7-1.6-2.4-2.4c-0.3-0.4-0.2-0.7,0.3-0.8c0.4-0.1,0.7,0,1.1,0
		c4.6,0,9.1,0,13.7,0c0.3,0,0.6,0,0.8-0.1c1.4,0.2,2.6,0.9,3.8,1.4c0.2,0.1,0.2,0.2,0.3,0.4c0,0.1,0,0.2-0.1,0.3
		c-0.4,0.3-0.9,0.2-1.3,0.2c-5.3,0-10.5,0-15.8,0C62,93.3,61.6,93.1,61.4,93.6z"/>
	<path class="st21" d="M53.3,42.8c6.7,0,13.5,0,20.2,0c0.3,0,0.8-0.2,0.9,0.4c-0.3,0.8-0.8,1.3-1.4,1.3c-0.3-0.1-0.7-0.1-1-0.1
		c-4.5,0-8.9,0-13.4,0c-0.4,0-0.9-0.1-1.1,0.4c-0.3,0.4-0.5,0.1-0.6-0.1c-0.2-0.4-0.5-0.3-0.7-0.1c-1,0.1-2,0-2.9,0
		c-0.3,0-0.6,0-0.8-0.3C52.7,43.9,53,43.3,53.3,42.8z"/>
	<path class="st22" d="M135,58.6c0.2,0.7,0.2,1.4,0.1,2c-0.1,0.1-0.2,0-0.3-0.1c-0.1-0.1-0.1-0.3-0.1-0.4c-0.2-1-0.2-1.1-1.2-1.1
		c-5.3,0-10.7,0-16,0c-0.4,0-0.8,0.1-1.3,0.2c-0.7-0.3-1-0.8-0.9-1.8c0.2-0.4,0.5-0.4,0.9-0.4c6.1,0,12.2-0.1,18.2,0
		c0.4,0,0.5,0.3,0.5,0.6C134.9,58,134.8,58.3,135,58.6z"/>
	<path class="st23" d="M132.1,79.1c0,0.1-0.1,0.2-0.1,0.3c-0.3,0.1-0.6,0.1-0.9,0.1c-3.8,0-7.6,0-11.4,0c-0.5,0-1,0-1.5-0.3
		c-0.4-0.9,0.1-1.5,0.5-2.2c0.4-0.2,0.8-0.1,1.2-0.1c3.7,0,7.4,0,11.1,0c0.2,0,0.4,0,0.6,0c1,0.1,1.2,0.3,0.8,1.3
		C132.3,78.5,132.2,78.8,132.1,79.1z"/>
	<path class="st24" d="M128,38.8c0.4,0.5,0.8,1.1,1,1.7c-0.5,0.4-1,0.4-1.6,0.4c-0.6,0-1.2,0-1.8,0.1c-0.5,0-0.9-0.4-1.4-0.4
		c-0.3-0.2-0.7-0.2-1.1-0.2c-4.2,0-8.3,0-12.5,0c0.3,0.1,0.7,0.2,0.9,0.5c-0.5,0.4-2,0.1-2.2-0.4c-0.2-0.4,0.1-0.7,0.2-1
		c0.1-0.3,0.3-0.6,0.5-0.7c0.4-0.2,0.9-0.2,1.3-0.2c5.1,0,10.2,0,15.4,0C127.1,38.6,127.6,38.6,128,38.8z"/>
	<path class="st25" d="M131.2,81c-0.2,0.8-0.6,1.5-1,2.2c-0.3-0.5-0.7-0.6-1.3-0.6c-3.8,0-7.6,0-11.4,0c-0.6,0-1.1,0-1.7-0.3
		c-0.4-0.3-0.1-0.5,0.1-0.8c0.3-0.4,0.6-0.7,1-0.9c0.3-0.3,0.7-0.4,1.2-0.4c4.1,0,8.1,0,12.2,0C130.8,80.2,131.4,80.2,131.2,81z"/>
	<path class="st26" d="M128.3,86.3c-0.4,0.7-0.8,1.4-1.3,2c-0.4-0.5-0.9-0.5-1.5-0.5c-4.6,0-9.3,0-13.9,0c-0.5,0-1.1,0.1-1.6-0.3
		c-0.3-0.7,0.3-0.8,0.6-1.1c0.7-0.7,1.5-0.7,2.4-0.7c4.6,0,9.3,0,13.9,0C127.5,85.8,128.1,85.6,128.3,86.3z"/>
	<path class="st27" d="M58.6,90.9c-0.5-0.5-1-1.1-1.4-1.7c-0.1-0.4-0.7-0.7-0.5-1.2c0.3-0.5,0.9-0.3,1.4-0.3c3.6,0,7.2,0.1,10.8-0.1
		c0.1,0,0.3,0,0.4,0.1c1.1,0.3,1.9,1,2.9,1.6c0.2,0.1,0.3,0.3,0.1,0.5c-0.5,0.3-1,0.3-1.5,0.3c-3.7,0-7.4,0-11.1,0
		C59.1,90,58.7,90.2,58.6,90.9z"/>
	<path class="st28" d="M54.9,40c0.8,0.2,1.7,0.2,2.5,0.2c4.6,0,9.1,0,13.7,0c0.6,0,1.2-0.1,1.7-0.4c0.7,0,1.2-0.4,1.9-0.5
		c0.9,0.1,1.9,0.1,2.8,0.1c0.4,0,0.8-0.1,1.1,0.4c-0.1,0.7-1,1.4-2,1.5c-0.3-0.2-0.7-0.1-1-0.1c-7.1,0-14.2,0-21.4,0
		C54.3,40.8,54.6,40.4,54.9,40z"/>
	<path class="st7" d="M72.3,32.2c-3.3,0.4-6.6,0.2-9.9,0.1c-1,0-1.5,0.3-2.1,0.9c-0.2,0.2-0.4,0.4-0.7,0.5c0.6-1,1.5-1.7,2.4-2.5
		c0.7-0.7,1.5-1.3,2.2-1.9c1.8-0.1,3.5-0.1,5.3,0c0.4,0,0.7,0.2,0.9,0.5c0.5,0.6,1,1.1,1.5,1.7C72.1,31.7,72.4,31.9,72.3,32.2z"/>
	<path class="st29" d="M109.9,87.4c0.5,0.2,1,0.2,1.5,0.2c5,0,10,0,15,0c0.6,0,0.8,0.2,0.6,0.8c-0.7,1.1-1.5,2.1-2.4,3
		c-0.3-0.7,0.5-0.9,0.6-1.4c0.4-0.7,0.4-0.7-0.5-0.7c-4.9,0-9.8,0-14.7,0c-0.6,0-1.2,0-1.8,0.2c-0.3,0-0.4-0.1-0.2-0.4
		C108.4,88.4,108.9,87.5,109.9,87.4z"/>
	<path class="st30" d="M125.3,90.1c0,0.5-0.7,0.7-0.7,1.2c-0.1,0.1-0.2,0.2-0.3,0.4c-0.1-0.6-0.6-0.4-1-0.4c-5.2,0-10.3,0-15.5,0
		c-0.6,0-1.2-0.1-1.8-0.2c0.3-0.8,0.8-1.4,1.7-1.5c2.3,0.1,4.7,0,7,0.1c3.2,0,6.3,0,9.5,0C124.5,89.7,125,89.6,125.3,90.1z"/>
	<path class="st31" d="M52.1,80.5c-0.4-0.6-0.7-1.3-0.8-2c-0.4-1.3-0.2-1.5,1.1-1.5c3.3,0,6.6,0,9.8,0c1.4,0,1.7-0.1,1.3,1.8
		c0,0.2-0.1,0.4-0.2,0.5c-0.4,0.3-0.9,0.3-1.3,0.3c-2.8,0-5.5,0-8.3,0C52.9,79.5,52.2,79.5,52.1,80.5z"/>
	<path class="st32" d="M66.1,64.7c-0.1-0.4-0.4-0.3-0.7-0.3c-5.4,0-10.8,0-16.2,0c-0.6,0-0.8,0.2-0.7,0.7c0,0.3,0,0.7,0,1
		c-0.3-0.7-0.1-1.4-0.2-2.1c0-0.1,0-0.2,0.1-0.4c0-0.7,0.3-0.9,1-0.9c5.5,0,11.1,0,16.6,0c0.2,0,0.4,0,0.6,0.1
		C67,63.5,66.8,64.3,66.1,64.7z"/>
	<path class="st3" d="M70.4,30.2c-0.3-0.5-0.6-0.7-1.3-0.7c-1.3,0.1-2.6,0-4,0c-0.3,0-0.7,0-1-0.2c1.3-1.2,2.7-2.3,4.3-3.1
		c0.3,0.2,0.7,0.2,1.1,0.2c1.9,0,3.8,0,5.7,0c0.3,0,0.8-0.1,0.5,0.5c-0.1,0.4-0.5,0.6-0.8,0.8C73.3,28.5,71.9,29.3,70.4,30.2z"/>
	<path class="st30" d="M58.6,90.9c0.1-0.4-0.6-0.7-0.4-0.9c0.3-0.3,0.8-0.1,1.3-0.1c3.8,0,7.6,0,11.4,0c0.5,0,1,0,1.5-0.2
		c0.2-0.1,0.4,0,0.6,0.1c0.7,0.3,1.5,0.7,2.2,1.1c0.2,0.1,0.4,0.2,0.3,0.4c-0.5,0.1-0.9,0.2-1.4,0.2c-4.7,0-9.5,0-14.2,0
		c-0.4,0-0.8-0.1-0.6,0.5C59.1,91.6,58.8,91.3,58.6,90.9z"/>
	<path class="st33" d="M132.1,79.1c0.1-0.2,0.1-0.5,0.2-0.7c0.4-1.2,0.4-1.2-0.9-1.2c-1.8,0-3.6,0-5.4,0c-2.4,0-4.9,0-7.3,0
		c-0.3-0.4-0.1-0.8,0-1.2c0.1-0.2,0.2-0.5,0.4-0.6c0.3-0.1,0.6-0.1,0.9-0.1c4,0,8,0,12,0c0.4,0,0.7,0,1.1,0.2
		c0.1,0.1,0.1,0.2,0.1,0.3C133,76.9,132.7,78,132.1,79.1z"/>
	<path class="st34" d="M128,38.8c-5.7,0-11.3,0-17,0c-0.4,0-0.7,0-1.1,0.2c-0.3-0.6-0.1-1,0.4-1.4c0.3-0.2,0.7-0.2,1.1-0.2
		c5.1,0,10.1,0,15.2-0.1c0.3,0,0.4,0.2,0.6,0.2C127.5,38,127.8,38.4,128,38.8z"/>
	<path class="st33" d="M63.2,79.2c0.1-0.5,0.1-1,0.2-1.4c0.2-0.6-0.1-0.6-0.6-0.6c-3.5,0-6.9,0-10.4,0c-1.3,0-1.3,0-1.2,1.2
		c-0.3-0.4-0.4-0.9-0.5-1.4c-0.1-0.4-0.2-0.8-0.3-1.1c-0.1-0.2-0.2-0.4,0.1-0.6c0.3-0.1,0.7-0.1,1-0.1c3.7,0,7.5,0,11.2,0
		c0.5,0,1.1-0.1,1.3,0.6c0,1.4-0.3,2.8-0.6,4.2c-0.1,0.1-0.2,0.1-0.3,0.1C63,79.8,63,79.5,63.2,79.2z"/>
	<path class="st35" d="M128.3,86.3c-0.2-0.4-0.6-0.3-1-0.3c-4.3,0-8.6,0-12.8,0c-1.3,0-2.7-0.4-3.9,0.7c0.4-1.1,1.4-1.6,2.3-2.2
		c0.4-0.1,0.7-0.1,1.1-0.1c4.7,0,9.3,0,14,0c0.5,0,1-0.1,1.3,0.5C128.9,85.4,128.8,85.9,128.3,86.3z"/>
	<path class="st36" d="M69.6,87.9c-0.6-0.2-1.1,0-1.7,0c-3.4,0-6.8,0-10.2,0c-1,0-1,0-0.5,0.9c0,0.1,0,0.2,0.1,0.3
		c-0.7-0.8-1.4-1.7-1.9-2.7c0.1-0.6,0.7-0.5,1.1-0.5c2.1,0,4.3,0,6.4,0c1.3,0,2.5,0,3.8,0c0.1,0,0.3-0.1,0.4,0
		C68,86.5,69,86.9,69.6,87.9z"/>
	<path class="st37" d="M49.2,71.3c-0.2-0.6-0.3-1.2-0.3-1.9c0-0.1-0.1-0.1-0.1-0.2c-0.1-2-0.1-2,1.9-2c4.1,0,8.2,0,12.3,0
		c0.5,0,1-0.1,1.4,0.3c0,0.9-0.5,1.7-1.2,1.8c-0.4-0.2-0.7-0.3-1.1-0.3c-3.9,0-7.8,0-11.7,0c-1,0-1,0.1-0.9,1.1
		C49.5,70.6,49.6,71,49.2,71.3z"/>
	<path class="st32" d="M135,67c0-0.8,0-1.5,0-2.3c0-0.5-0.1-0.7-0.6-0.7c-5.1,0-10.2,0-15.2,0c-0.3,0-0.6,0.1-0.7,0.4
		c-0.8-0.5-0.9-1.1-0.5-1.7c0.4-0.1,0.8-0.1,1.2-0.1c4.9,0,9.8,0,14.7,0c0.4,0,0.9-0.1,1.3,0.2c0.2,0.7,0.1,1.4,0,2.1
		C135.1,65.6,135.2,66.3,135,67z"/>
	<path class="st38" d="M67.5,37.8c-0.5,0.3-1,0.4-1.5,0.4c-3.3,0-6.6,0-9.9,0c0.2-0.5,0.6-1,1-1.4c0.4-0.6,0.9-0.8,1.6-0.8
		c2.6,0,5.2,0,7.8,0c0.5,0,1,0,1.4,0.4C68.1,37,67.7,37.4,67.5,37.8z"/>
	<path class="st39" d="M64.4,67.8c-0.1-0.4-0.4-0.3-0.7-0.3c-4.7,0-9.4,0-14.1,0c-0.6,0-0.8,0.2-0.7,0.7c0,0.4,0,0.8,0,1.2
		c-0.2-0.4-0.2-0.9-0.2-1.4c0.1-1.7,0.1-1.7,1.8-1.7c4.6,0,9.1,0,13.7,0c0.3,0,0.8-0.2,0.9,0.4C65.2,67.2,65,67.6,64.4,67.8z"/>
	<path class="st40" d="M129.2,84.9c-0.3-0.2-0.7-0.2-1.1-0.2c-4.8,0-9.5,0-14.3,0c-0.4,0-0.8,0.1-1.3,0.2c0.3-1,1.1-1.4,2-1.7
		c3.1,0.1,6.2,0,9.4,0.1c1.6,0,3.2,0,4.8,0c0.4,0,0.9-0.1,1.1,0.4C129.7,84.1,129.6,84.6,129.2,84.9z"/>
	<path class="st25" d="M53.2,82.7c-0.3-0.3-0.4-0.6-0.5-1c-0.5-1.2-0.4-1.3,0.9-1.3c2.9,0,5.8,0,8.8,0c0.3,0,0.6,0,0.9,0.1
		c0.3,0.1,0.4,0.4,0.5,0.5c0.2,0.5,0.7,0.9,0.2,1.5c-0.5,0.2-1,0.1-1.4,0.1C59.4,82.6,56.3,82.5,53.2,82.7z"/>
	<path class="st41" d="M129.9,83.7c-0.3-0.3-0.6-0.2-1-0.2c-4.4,0-8.8,0-13.1,0c-0.5,0-1,0-1.4-0.2c0.1-0.7,0.7-1,1.3-1.2
		c0.8,0.2,1.7,0.2,2.5,0.2c3.7,0,7.5,0,11.2,0c0.7,0,1,0.1,0.8,0.9C130.1,83.4,130.1,83.6,129.9,83.7z"/>
	<path class="st42" d="M49.2,71.3c0-0.4,0-0.7,0-1.1c0.2-0.4,0.5-0.4,0.9-0.4c3.8,0,7.7,0,11.5,0c0.5,0,1,0.1,1,0.8
		c-0.1,0.6-0.4,1-1,1.1c-3.6,0-7.3,0-10.9,0c-0.9,0-0.9,0-0.8,0.9c0.1,0.6,0.2,1.1,0.4,1.6c0,0.1,0,0.3,0,0.4c0,0.1-0.1,0.2-0.2,0.2
		C49.6,73.7,49.4,72.5,49.2,71.3z"/>
	<path class="st43" d="M134.8,67.5c0,0.4,0,0.7,0,1.1c0,0.4,0.1,0.8-0.2,1.2c-0.3-0.7-1-0.8-1.7-0.8c-3.7,0-7.3,0-11,0
		c-0.5,0-0.9,0-1.4-0.1c-0.3-0.1-0.5-0.4-0.6-0.7c-0.1-0.4,0-0.7,0.5-0.8c0.2-0.1,0.5-0.1,0.8-0.1c4.1,0,8.3,0,12.4,0
		C134.1,67.2,134.5,67.2,134.8,67.5z"/>
	<path class="st44" d="M54.5,85c-0.3-0.3-0.5-0.7-0.6-1.2c-0.1-0.3,0-0.4,0.2-0.5c0.2-0.1,0.4-0.1,0.6-0.1c3.3,0,6.6-0.1,9.9,0
		c0.9,0.4,1.3,1.1,1.1,1.8c-0.3,0.2-0.7,0.3-1.1,0.3c-3,0-6,0-9,0C55.2,85.3,54.8,85.3,54.5,85z"/>
	<path class="st45" d="M131.2,81c0-0.5-0.4-0.6-0.8-0.6c-4.2,0-8.3,0-12.5,0c-0.5,0-0.7,0.4-1.1,0.5c0.1-0.8,0.6-1.4,1.2-1.9
		c0.5,0.2,1,0.2,1.5,0.2c3.8,0,7.6,0,11.4,0c0.3,0,0.7-0.1,1,0.2c0,0,0,0,0,0c-0.2,0.4-0.4,0.8-0.5,1.2
		C131.4,80.8,131.4,80.9,131.2,81z"/>
	<path class="st46" d="M135,58.6c-0.4-0.4-0.1-1-0.4-1.4c-0.3-1.2-1.1-1.3-2.2-1.3c-4,0.1-7.9,0-11.9,0c-0.5,0-1,0.1-1.5-0.3
		c-0.2-0.2-0.1-0.4,0.1-0.5c0.6-0.4,1.1-0.8,1.9-0.8c0.6,0.1,1.1,0.1,1.7,0.1c3.4,0,6.8,0,10.2,0c0.4,0,0.8,0,1.3,0.1
		c0.3,0.1,0.2,0.4,0.4,0.5C134.8,56.2,135,57.4,135,58.6z"/>
	<path class="st45" d="M63.4,80.6c-3.6,0-7.3,0-10.9,0c0,0.4,0.3,0.7,0.2,1c-0.3-0.3-0.5-0.7-0.5-1.2c0.2-0.4-0.5-0.9-0.1-1.1
		c0.3-0.2,0.9-0.1,1.4-0.1c3.3,0,6.6,0,9.8,0c0,0.3,0,0.6,0,0.9C63.4,80.2,63.5,80.4,63.4,80.6z"/>
	<path class="st47" d="M67.8,36.8c-0.1-0.5-0.5-0.5-0.9-0.5c-2.9,0-5.8,0-8.7,0c-0.5,0-0.7,0.4-1.1,0.5c0.4-0.6,0.8-1.2,1.4-1.7
		c0.3-0.2,0.6-0.2,1-0.2c2.9,0,5.8,0,8.6,0c0.4,0,0.8-0.1,1,0.3C68.8,36,68.7,36.6,67.8,36.8z"/>
	<path class="st48" d="M120.7,68.7c4.3,0,8.6,0,12.8,0c0.8,0,1.3,0.1,1.2,1.1c0,0.6-0.1,1.3-0.3,1.9c-0.1-0.1-0.2-0.2-0.2-0.3
		c0-0.1,0-0.2-0.1-0.3c0-1.1,0-1.1-1-1.1c-3.5,0-7,0-10.5,0c-0.4,0-0.9,0-1.3-0.1C120.8,69.7,120.4,69.3,120.7,68.7z"/>
	<path class="st49" d="M54.5,85c3.3,0,6.6,0,9.8,0c0.5,0,1,0,1.5-0.2c0.6,0.2,1,0.6,1.2,1.2c-0.4,0.2-0.8,0.2-1.2,0.2
		c-3.2,0-6.4,0-9.6,0c-0.3,0-0.7-0.1-0.9,0.2C55,86,54.6,85.6,54.5,85z"/>
	<path class="st50" d="M134.5,55c-0.2,0-0.2-0.2-0.2-0.3c-0.4-0.4-0.4-0.9-0.5-1.4c-0.1-0.5-0.2-1-0.4-1.4c-0.1-0.5-0.5-0.7-1-0.7
		c-2,0-4.1,0-6.1,0c-0.4,0-0.8,0.2-1.2,0.3c-0.2,0-0.3-0.2-0.2-0.4c0.5-0.7,0.8-1.6,1.6-2.1c1.9-0.2,3.9,0,5.8-0.1
		c0.8,0,0.9,0.6,1.1,1.1C133.9,51.7,134.3,53.3,134.5,55z"/>
	<path class="st41" d="M64.8,83.5c-3.3,0-6.7,0-10,0c-0.3,0-0.8-0.2-0.9,0.4c-0.3-0.4-0.5-0.8-0.7-1.2c0.1-0.5,0.5-0.4,0.8-0.4
		c3.4,0,6.7,0,10.1,0C64.5,82.6,64.9,82.9,64.8,83.5z"/>
	<path class="st51" d="M49.8,52.1c0.3-1.5,0.7-3,1.4-4.4c0.1-0.2,0.2-0.3,0.3-0.3c1.6-0.2,3.1-0.1,4.7,0c0.1,0,0.2,0.1,0.3,0.1
		c0.3,0.7,0.6,1.4,0.4,2.1c-1.4,0.1-2.8,0-4.1,0c-1.9,0-1.7-0.2-2.3,1.7c-0.1,0.3-0.1,0.5-0.3,0.8C49.9,52.2,49.8,52.2,49.8,52.1z"
		/>
	<path class="st51" d="M133.3,50.1c-0.3-0.7-0.8-0.9-1.6-0.9c-1.8,0.1-3.6,0-5.4,0c-0.1-0.7-0.1-1.4,0.6-1.9c1.8-0.1,3.5-0.1,5.3,0
		c0.1,0,0.2,0.1,0.3,0.2C132.8,48.4,133.2,49.2,133.3,50.1z"/>
	<path class="st52" d="M132.4,47.5c-0.1,0-0.1,0-0.2,0c-0.4-0.7-1.1-0.9-1.9-0.8c-1.2,0.1-2.3-0.1-3.5,0.1c-0.1,0-0.1-0.1-0.2-0.1
		c-0.2-0.8-0.3-1.6,0.1-2.3c1.3-0.4,2.6-0.2,4-0.1c0.5,0,0.5,0.6,0.7,0.9C131.9,45.9,132.2,46.7,132.4,47.5z"/>
	<path class="st11" d="M104.2,93.2c0.3-0.1,0.6-0.2,0.9-0.2c5.7,0,11.4,0,17.1,0c0.2,0,0.5,0,0.6,0.1c-0.2,0.2-0.2,0.5-0.5,0.5
		c-0.3-0.3-0.6-0.2-0.9-0.2c-5.5,0-10.9,0-16.4,0c-0.6,0-0.9,0.5-1.5,0.4C103.7,93.6,103.8,93.2,104.2,93.2z"/>
	<path class="st53" d="M51.3,47.5c-0.1,0.1-0.1,0.1-0.2,0.2c0.2-1.2,0.8-2.2,1.3-3.2c1.3,0,2.6,0,3.9,0c0.4,1,0.4,2.1,0,3.1
		c0,0-0.1,0-0.1,0c-0.2-0.6-0.7-0.9-1.4-0.8c-0.4,0.1-0.9,0-1.4,0C52.7,46.7,51.8,46.7,51.3,47.5z"/>
	<path class="st7" d="M122,31.7c-5.8,0-11.6,0-17.4,0c-0.1-0.2-0.1-0.3,0-0.5c5.1,0,10.2,0,15.3,0c0.5,0,1,0,1.4-0.2
		C121.6,31.2,121.9,31.4,122,31.7z"/>
	<path class="st21" d="M131.4,45.1c-0.3-0.6-0.9-0.7-1.5-0.7c-1,0-2.1,0-3.1,0c-0.6-0.5-0.7-1.2-0.5-2c1-0.5,3.2-0.4,3.9,0.1
		C130.7,43.4,131.2,44.2,131.4,45.1z"/>
	<path class="st54" d="M130.2,42.6c-1.3-0.3-2.6-0.2-4,0c-0.6-0.3-0.8-0.9-0.8-1.5c0-0.4,0.3-0.4,0.6-0.3c1,0,2,0,3-0.2
		C129.5,41.2,129.9,41.9,130.2,42.6z"/>
	<path class="st5" d="M74.9,102.9c1.5,0.3,2.9,0.9,4.3,1.6C77.8,104.1,76.3,103.6,74.9,102.9z"/>
	<path class="st55" d="M134.3,71.4c0,0.1,0,0.1,0,0.2c-0.1,1-0.3,2-0.7,2.9c-0.1-0.1-0.1-0.1-0.2-0.2c-0.1-0.6,0.1-1.1,0.2-1.6
		C133.9,72.3,133.7,71.6,134.3,71.4z"/>
	<path class="st6" d="M118.1,97.1c0.5,0,0.7-0.7,1.2-0.7c-0.7,0.7-1.4,1.2-2.2,1.7C117.2,97.6,117.9,97.6,118.1,97.1z"/>
	<path class="st56" d="M135.2,64.9c0-0.7,0-1.4,0-2.1c-0.2-0.4-0.4-0.8-0.1-1.2c0,0,0.1,0,0.1,0C135.4,62.8,135.3,63.8,135.2,64.9z"
		/>
	<path class="st57" d="M50.1,74.9c0-0.1,0-0.1,0-0.2c0.5,0.1,0.4,0.5,0.3,0.8c0.1,0.5,0.4,1,0.3,1.6C50.4,76.4,50.2,75.6,50.1,74.9z
		"/>
	<path class="st58" d="M49.8,52.1c0.1,0,0.1,0,0.2,0c0.2,0.5-0.1,0.9-0.2,1.4c-0.1,0.3-0.1,0.6-0.3,0.8c-0.1,0.1-0.2,0.1-0.2,0
		C49.3,53.6,49.5,52.8,49.8,52.1z"/>
	<path class="st59" d="M48.8,57.4c0-0.7,0.1-1.4,0.3-2.1c0.1-0.1,0.1-0.1,0.2,0c0,0.1,0.1,0.1,0.1,0.2c0,0.6-0.1,1.1-0.2,1.6
		c0,0.1-0.1,0.1-0.1,0.2C48.9,57.5,48.8,57.5,48.8,57.4z"/>
	<path class="st60" d="M48.8,57.4c0.1,0,0.1,0,0.2,0c0.4,0.5,0.1,1,0,1.5c0,0.1-0.1,0.3-0.2,0.4c-0.1,0.1-0.2,0.1-0.2,0
		C48.6,58.7,48.6,58,48.8,57.4z"/>
	<path class="st6" d="M64.2,96.5c0.6,0.1,0.9,0.6,1.4,0.8c0,0,0,0,0,0c0.1,0.1,0.1,0.2,0,0.2C65.1,97.2,64.6,96.9,64.2,96.5z"/>
	<path class="st61" d="M133.6,74.3c0,0.1,0,0.1,0,0.2c-0.1,0.4,0,0.9-0.5,1.2c0-0.1,0-0.1,0-0.2c0-0.4,0.1-0.8,0.3-1.2
		C133.4,74.3,133.5,74.2,133.6,74.3z"/>
	<path class="st23" d="M131.4,80.6c0-0.5,0.2-0.9,0.5-1.2C131.9,79.9,131.7,80.3,131.4,80.6z"/>
	<path class="st22" d="M48.6,59.3c0.1,0,0.1,0,0.2,0c0.3,0.5,0.1,0.9-0.1,1.3c0,0-0.1,0.1-0.1,0.1c0,0-0.1,0-0.1,0
		C48.4,60.2,48.4,59.7,48.6,59.3z"/>
	<path class="st62" d="M49.3,55.4c-0.1,0-0.1,0-0.2,0c0.1-0.3,0-0.7,0.2-1c0.1,0,0.1,0,0.2,0C49.6,54.7,49.5,55.1,49.3,55.4z"/>
	<path class="st10" d="M65.6,97.5c0-0.1,0-0.2,0-0.2c0.3,0.2,0.6,0.4,0.7,0.7C66,97.9,65.8,97.8,65.6,97.5z"/>
	<path class="st56" d="M135,60.7c0.1,0,0.1,0,0.2,0c0,0.3,0,0.7,0,1c0,0,0,0,0,0c-0.1,0-0.2,0-0.2-0.1C134.7,61.3,134.7,61,135,60.7
		z"/>
	<path class="st56" d="M48.4,60.7c0,0,0.1,0,0.1,0c0.2,0.4,0.4,0.7-0.1,1c0-0.1,0-0.1-0.1-0.2C48.4,61.2,48.4,60.9,48.4,60.7z"/>
	<path class="st63" d="M48.4,61.7c0.3-0.3,0.1-0.7,0.1-1c0,0,0,0,0,0c0.2-0.4,0.6-0.4,1-0.4c5.7,0,11.3,0,17,0c0.4,0,1,0,1,0.6
		c-0.1,0.5,0.1,1.1-0.5,1.4c-0.8-0.1-1.5-0.1-2.3-0.1c-4.7,0-9.4,0-14.1,0c-0.9,0-1.7-0.1-2.3,0.8C48.4,62.5,48.4,62.1,48.4,61.7z"
		/>
	<path class="st64" d="M48.4,62.9c0-1,0.6-1,1.5-1c5.4,0,10.7,0,16.1,0c0.4,0,0.9,0,1.2,0.3c0,0.3,0.1,0.7-0.3,0.9
		c-5.8,0-11.7,0-17.5,0c-0.6,0-0.8,0.2-0.9,0.7C48.4,63.4,48.4,63.2,48.4,62.9z"/>
	<path class="st65" d="M70.4,30.2c0-0.3,0.2-0.4,0.4-0.5c1.2-0.7,2.4-1.3,3.6-2c0.4-0.2,0.8-0.5,1.2-0.8c0.4,0.1,0.6-0.4,1-0.1
		c0.2,0.9,0.5,1.7,0.9,2.5c0.7,0.8,0.8,1.9,1.2,2.9c0.3,0.9,0.6,1.7,0.8,2.5c0.1,0.5,0.3,0.9,0.5,1.4c0,0.3-0.3,0.5-0.5,0.6
		c-0.7,0.3-1.4,0.8-2.2,1c-0.3-0.1-0.5-0.3-0.7-0.5c-0.3-0.5-0.8-0.9-1.2-1.4c-0.2-0.2-0.5-0.4-0.5-0.7c-0.8-1.1-1.7-2-2.6-2.9
		C71.7,31.5,71.1,30.7,70.4,30.2z"/>
	<path class="st14" d="M83.9,31.7c5.5,0,11,0,16.5,0c0.3,0,0.9-0.3,0.7,0.5c-0.5,1-1.6,1.3-2.4,1.9c-0.4,0.3-0.9,0.6-1.4,0.3
		c-3.2-0.1-6.4,0-9.7-0.1c-0.9,0-1.8,0-2.6,0c-0.4,0-0.7,0-1-0.3C83.9,33.3,83.9,32.5,83.9,31.7z"/>
	<path class="st66" d="M83.9,34.1c4.2,0,8.4,0,12.6,0c0.4,0,0.8-0.1,1,0.3c-0.2,0.5-0.6,0.6-1,0.7c-1.7,0.7-3.4,1.2-5.3,1.2
		c-1.1,0-2.2,0.4-3.4,0c-0.4-0.3-0.9-0.2-1.4-0.2c-2.2,0-4.4,0.1-6.5,0c-0.3-0.4-0.5-0.9-0.5-1.4c0.6-0.4,1.2-0.2,1.9-0.2
		c0.2,0.1,0.3,0.2,0.4,0.3c0.2,0.4,0.5,0.3,0.8,0.2c0.3-0.1,0.7-0.2,1-0.3c0,0,0.1,0,0.1,0C84,34.6,83.8,34.3,83.9,34.1z"/>
	<path class="st67" d="M81.6,35.1c-0.1-0.1-0.1-0.2-0.2-0.3c-0.6-0.9-0.8-1.9-1.2-2.8c-0.1-0.9-0.8-1.7-0.8-2.6
		c-0.3-1.2-0.3-1.2,1.1-1.6c0.9-0.2,1.8-0.4,2.6-0.6c0.4-0.1,0.6,0,0.6,0.4c0,2.4,0,4.8,0,7.2c0,0,0,0,0,0c-0.4,0.2-0.9,0.3-1.4,0.5
		C82,35.4,81.8,35.4,81.6,35.1z"/>
	<path class="st68" d="M79.4,29.3c0.4,0.8,0.8,1.7,1,2.6c-0.5,0.6-1.2,0.4-1.9,0.4c-0.4-0.9-0.8-1.9-1-2.9
		C78.2,28.5,78.8,29.2,79.4,29.3z"/>
	<path class="st65" d="M87.9,36.3c3.2,0,6.3-0.2,9.2-1.7c0.1-0.1,0.2-0.1,0.4-0.2c1.3-0.6,2.5-1.3,3.6-2.2c1.2-0.5,2.1-1.3,3.1-2.2
		c0.3,0,0.4,0.1,0.4,0.4c0,1,0.1,2-0.1,3c-0.1,0.4-0.2,0.8-0.2,1.2c-0.6,1.7-0.6,1.7,1.2,1.5c1.6-0.2,3.2-0.3,4.7-0.8
		c0.6-0.2,0.3,0.3,0.4,0.6c-0.1,0.6-0.2,1.2-0.3,1.9c-0.1,0.5-0.2,0.9-0.4,1.4c-0.7,1.6-0.7,1.6,0.9,2c0.2,0,0.4,0,0.6,0.1
		c0.5-0.2,1,0.1,1.5,0.1c1.2,0.3,2.5,0.5,3.8,0.5c0.2,0.1,0.5,0.1,0.5,0.4c-0.1,0.4-0.4,0.6-0.5,0.9c-0.6,0.6-0.9,1.4-1.8,1.8
		c2.7,0.3,5.3,0.1,7.5-1.8c0.6-0.4,1-0.9,1.4-1.6c0.3-0.2,0.2-0.7,0.6-0.7c0.6-0.7,0.7,0.1,1,0.4c0.3,0.5,0.5,1,0.8,1.5
		c0.2,0.6,0.4,1.2,0.5,1.9c0,0.8,0,1.6,0.1,2.4c0.2,0.2,0.1,0.5,0,0.7c-0.2,0.6-0.3,1.1-0.5,1.7c-0.5,0.7-0.9,1.5-1.4,2.2
		c0,0.3-0.3,0.5-0.4,0.7c-0.6,0.5-1.2,1-1.9,1.5c-0.6,0.3-1.1,0.8-1.7,0.9c-0.6,0.3-1.3,0.7-1.9,1c-0.9,0.7-2,0.9-3,1.4
		c-0.3,0.1-0.8,0.2-0.5,0.7c0.1,0.5,0.3,1.1,0.7,1.5c0.5,0.4,0.5,1,0.8,1.5c0.3,0.5,0.4,1,0.7,1.5c0.1,0.3,0.3,0.5,0.2,0.8
		c0.2,0.5,0.4,1.1,0.7,1.6c0.2,0.7,0.5,1.3,0.9,1.9c0.3,0.2,0.4,0.5,0.5,0.8c0.3,1.1,0.8,2.1,1.5,3c0.1,0.1,0.1,0.2,0.1,0.4
		c-0.5,0.5-1.1,0.2-1.6,0.3c-0.4,0-0.7,0-1.1,0c-0.4,0-0.3,0.2-0.2,0.5c0.2,0.7,0.3,1.4,0.5,2.2c0.1,0.9,0,1.7-0.2,2.6
		c-0.1,0.4-0.1,0.8-0.2,1.2c-0.2,0.6-0.4,1.2-0.6,1.9c-0.4,0.6-0.8,1.2-1.2,1.9c-0.4,0.4-0.8,0.8-1.2,1.2c-0.5,0.4-1,0.7-1.3,1.2
		c-0.6,0.5-1.2,0.9-1.7,1.5c-0.7,0.6-1.4,1.2-2.1,1.9c-0.3,0.2-0.5,0.4-0.7,0.7c-0.7,0.5-1.4,1.2-2,1.9c0,0.3-0.3,0.4-0.5,0.5
		c-0.5,0.4-1,0.8-1.4,1.4c-0.7,0.6-1.3,1.2-1.7,2c-0.3,0.2-0.3,0.6-0.6,0.7c-0.1-0.1-0.1-0.2-0.2-0.3c-0.3-0.4-0.6-0.9-0.8-1.4
		c-0.2-0.5-0.3-1.1-0.4-1.6c-0.1-0.8-0.1-0.8-0.8-0.4c-0.1,0.1-0.3,0.2-0.4,0.3c-2.1,1-4.3,1.9-6.5,2.4c-3.7,0.9-7.4,1.4-11.2,0.9
		c-0.9-0.1-1.8-0.3-2.7-0.5c-0.4-0.1-0.8-0.1-1.1-0.5c-1.2-0.5-2.5-1-3.7-1.5c-1.1-0.5-2.1-1-3.2-1.5c-1-0.6-1.9-1.1-2.9-1.7
		c-0.8-0.6-1.7-1.3-2.5-1.9c-0.4-0.4-0.8-0.8-1.2-1.2c-0.4-0.4-0.7-0.9-1.1-1.3c-0.2-0.4-0.5-0.8-0.7-1.2c-0.1-0.4-0.3-0.8-0.4-1.2
		c-0.2-0.3-0.1-0.7-0.2-1c0-1.4,0.4-2.7,0.5-4c0.2-0.6-0.2-1.2,0.1-1.7c0.1-0.3,0.2-0.6,0.2-0.9c0.2-0.7,0.2-1.4,0.5-2.2
		c0,0-0.2,0.1-0.1,0.1c-0.2,0.4-0.6,0.5-1,0.7c-0.6,0.2-1.1,0.3-1.7,0.2c-0.3-0.1-0.6-0.2-0.3-0.6c0,0,0.1-0.1,0.1-0.1
		c0.3-0.2,0.5-0.5,0.7-0.8c0.3-0.5,0.4-1.1,1-1.4c0.4-0.5,0.7-1,1-1.5c0.3-0.3,0.5-0.7,0.7-1.2c0.4-0.6,0.7-1.2,1-1.9
		c0.4-0.5,0.3-1.2,0.7-1.7c0.3-0.2,0-0.7,0.3-0.9c0.4-0.3,0-0.8,0.3-1.2c0.1-0.6,0-1.1,0.2-1.7c0.2-1.1,0.2-1.2-0.9-1.1
		c-1.6,0-3.3,0-4.8-0.7c-1-0.4-1.9-1-2.7-1.8c-0.6-0.7-1.1-1.5-1.5-2.3c-0.3-0.6-0.5-1.2-0.7-1.9c-0.1-0.6-0.6-1.2-0.3-1.9
		c-0.1-0.7-0.2-1.4-0.3-2c0-1,0-2,0-3.1c0.1-0.1,0.2-0.4,0.5-0.1c0.1,0.2,0.4,0.4,0.5,0.6c0.9,0.6,1.4,1.5,2.3,2.1
		c0.4,0.3,0.8,0.6,1.3,0.9c1.8,1.2,3.6,0.8,5.4,0.2c1.6-0.5,3.3-0.9,4.7-2c0.6-0.3,1.1-0.7,1.5-1.2c0.2-0.2,0.3-0.6,0.7-0.6
		c0.5-0.4,0.8-0.8,1.2-1.3c0.7-0.6,1.4-1.2,2-1.8c0.7-0.4,1.3-0.8,1.9-1.3c0.8-0.8,1.8-1.1,2.7-1.7c1.7-0.9,3.5-1.8,5.4-2.1
		c0.3,0,0.7,0,1-0.1C87.7,36.2,87.8,36.2,87.9,36.3z"/>
	<path class="st3" d="M104.5,33.4c0-0.9,0-1.7,0-2.6c0-0.3,0.1-0.6-0.3-0.8c0.4-0.3,0.5,0,0.5,0.3c0,0.3,0,0.6,0,0.9
		c0,0.2,0,0.3,0,0.5C104.6,32.3,104.8,32.9,104.5,33.4z"/>
	<path class="st69" d="M80.8,104.7c4-0.4,20.5-0.4,22,0C95.3,106.6,88.1,106.6,80.8,104.7z"/>
	<path class="st18" d="M79.4,92.7c2.7,0.8,5.5,1.2,8.3,1c4.3-0.3,8.4-1.4,12.3-3.2c0.3-0.1,0.6-0.2,0.9-0.4c1.1-0.3,1.1-0.3,1.4,0.9
		c0.1,0.4,0.1,0.8,0.4,1.2c0.2,0.4,0.5,0.9,0.6,1.4c-0.1-0.1-0.2-0.1-0.3-0.2c-0.3-0.3-0.7-0.3-1-0.3c-2.9,0-5.9-0.1-8.8,0.1
		c-1.5,0.2-3,0.4-4.4,0.6c-1.6,0.2-3.2,0.2-4.7,0c-1-0.1-1.9-0.3-2.9-0.4c-0.6-0.1-1.2,0-1.7-0.5C79.4,92.8,79.4,92.7,79.4,92.7z"/>
	<path class="st11" d="M79.4,92.9c0.6,0.2,1.2,0.2,1.7,0.5c-0.4,0.2-0.8,0.2-1.2,0.2c-6.2,0-12.4,0-18.6,0C61.2,93.5,61,93.4,61,93
		c0.3,0,0.5,0,0.8,0c5.6,0,11.1,0,16.7,0C78.8,93,79.1,93.2,79.4,92.9z"/>
	<path class="st70" d="M93.2,93.2c0.7-0.4,1.4-0.4,2.1-0.4c2.3,0,4.6,0,6.9,0c0.4,0,0.8-0.1,0.9,0.5c-3,0-6,0-9,0
		C93.8,93.4,93.5,93.5,93.2,93.2z"/>
	<path class="st71" d="M67.8,36.8c0.6-0.4,0.8-1,1.2-1.5c0.1-0.1,0.2-0.1,0.3-0.2c0.5-0.3,0.6-1.2,1.2-1.1c0.4,0.1,0.8,0.6,1.2,1
		c0.1,0.1,0.3,0.2,0.4,0.3c0.8,0.4,1.3,1,2,1.6c0.3,0.3,0.6,0.6,1,0.8c0.1,0.1,0.2,0.1,0.3,0.2c0.2,0.2,0.4,0.4,0.3,0.7
		c-0.3,0.4-0.7,0.6-1.1,0.8c-0.5,0.3-1,0.8-1.6,0.4c-1.7-0.8-3.5-1.5-5.3-2.1C67.2,37.3,67.7,37.1,67.8,36.8z"/>
	<path class="st72" d="M75,37.9c-1-0.8-2-1.6-2.9-2.6c0.9-0.4,1.9-0.1,2.8-0.2c0.7,0.6,1.4,1.2,1.9,2c-0.3,0.3-0.7,0.2-1.1,0.2
		C75.2,37.4,75.1,37.5,75,37.9z"/>
	<path class="st39" d="M121.3,70.4c-0.9-1.2-1.5-2.7-2.1-4.1c0.3-0.3,0.6-0.2,1-0.2c4.4,0,8.8,0,13.2,0c1.3,0,1.3,0,1.3,1.4
		c-4.5,0-9,0-13.5,0c-0.4,0-0.8-0.2-1,0.2c-0.2,0.4,0.2,0.7,0.4,1c0.1,0.4,0.2,0.7,0.5,1C121.4,69.9,121.6,70.1,121.3,70.4z"/>
	<path class="st73" d="M73.3,44.4c-0.6,0.7-1,1.6-2,1.9c-1.7-0.2-3.3-0.1-5-0.1c-1.9,0-3.7,0-5.6,0c-1.1,0-1.1,0-1,1
		c-0.9-0.6-1.6-1.3-2.2-2.2c-0.4-0.8-0.1-0.9,0.7-0.9c4.8,0,9.6,0,14.3,0C72.7,44.1,73.1,43.9,73.3,44.4z"/>
	<path class="st56" d="M116.7,60.7c-0.3-0.5-0.5-1-0.7-1.5c0.3-0.4,0.7-0.4,1.1-0.4c5.6,0,11.3,0,16.9,0c0.9,0,1,0.1,1,1.5
		c-0.4,0.3-0.9,0.3-1.4,0.3c-4.7,0-9.4,0-14.1,0C118.6,60.6,117.7,60.6,116.7,60.7z"/>
	<path class="st60" d="M115.4,57.6c-0.3-0.4-0.4-0.6,0.2-0.8c1.1-0.4,2.2-0.8,3.4-1.3c0.5,0.2,1,0.2,1.5,0.2c4.2,0,8.5,0,12.7,0
		c1.5,0,1.5,0,1.5,1.5c-6.1,0-12.2,0-18.4,0C115.9,57.3,115.5,57.1,115.4,57.6z"/>
	<path class="st74" d="M116.7,60.7c0.3-0.4,0.8-0.4,1.2-0.4c5.7,0,11.3,0,17,0c0,0.1,0,0.2,0,0.3c0,0.3,0,0.7,0,1
		c-0.4,0.4-0.9,0.3-1.4,0.3c-4.8,0-9.7,0-14.5,0c-0.6,0-1.1,0-1.7,0.3C117.1,61.8,116.9,61.2,116.7,60.7z"/>
	<path class="st28" d="M112.8,41.4c-0.5,0-0.9-0.1-1.4-0.3c-0.5-0.4-1.2-0.4-1.8-0.7c0.2-0.3,0.4-0.2,0.6-0.2c4.4,0,8.9,0,13.3,0
		c0.4,0,0.9-0.2,0.8,0.5c-0.3,0.2-0.1,0.7-0.5,0.9c-2.4-0.2-4.7-0.1-7.1-0.1C115.5,41.5,114.1,41.4,112.8,41.4z"/>
	<path class="st75" d="M75,37.9c-0.3-0.5-0.3-0.8,0.4-0.7c0.5,0,0.9,0,1.4,0c0.2,0.2,0.3,0.3,0.5,0.5c1.2-0.5,2.5-0.4,3.8-0.4
		c0.2,0,0.4,0,0.6,0c0.3,0,0.6,0.1,0.7,0.4c0.1,0.3-0.3,0.3-0.5,0.5c-0.2,0.1-0.5,0.2-0.7,0.4c-0.9,0.6-1.8,1.1-2.7,1.6
		c-0.1-0.5-0.4-0.4-0.7-0.4c-1.1,0-2.2,0.1-3.3-0.2c0.3-0.4,0.6-0.6,1-0.8c0.3-0.4-0.1-0.5-0.3-0.7C75.1,38,75,37.9,75,37.9z"/>
	<path class="st76" d="M107.4,89.8c0.1-0.2,0.3-0.4,0.5-0.5c0.6-0.4,1.4-0.3,2.1-0.3c5,0,10,0,15,0c0.4,0,1-0.2,1.1,0.1
		c0.1,0.4-0.3,0.8-0.7,1c-0.3-0.3-0.6-0.2-1-0.2c-5.2,0-10.4,0-15.5,0C108.3,90,107.8,89.9,107.4,89.8z"/>
	<path class="st57" d="M118.8,76c0-0.9,0-1.8-0.1-2.7c-0.2-0.5,0-0.7,0.5-0.8c0.3-0.1,0.6-0.1,0.8-0.1c4.2,0,8.4,0,12.6,0
		c0.4,0,0.9-0.1,1.3,0.3c-0.2,0.5-0.3,1-0.3,1.5c-0.1,0-0.1,0-0.2,0c-0.4,0.3-0.9,0.3-1.4,0.3c-3.8,0-7.6,0-11.4,0
		c-0.8,0-1.4,0.1-1.6,0.9C119,75.7,119,75.9,118.8,76z"/>
	<path class="st77" d="M119,75.5c0-1.2,0-1.2,1.2-1.2c4.4,0,8.9,0,13.3,0c0,0.4,0,0.9-0.3,1.2C128.4,75.5,123.7,75.5,119,75.5z"/>
	<path class="st78" d="M64.3,74.3c-0.3,0.5,0,1.2-0.3,1.7c0-0.6-0.4-0.5-0.8-0.5c-3.9,0-7.7,0-11.6,0c-0.4,0-0.7,0-1.1,0
		c-0.1-0.3-0.2-0.6-0.3-0.8c0-0.1,0-0.2,0-0.3c0.3-0.3,0.7-0.3,1.1-0.3c4,0,7.9,0,11.9,0C63.5,74,64,74,64.3,74.3z"/>
	<path class="st31" d="M63.4,80.1c0.2,0.3,0.1,0.7,0.2,1c-0.2-0.1-0.2-0.3-0.2-0.5c-0.1-0.2-0.1-0.3-0.2-0.5
		C63.3,80.1,63.4,80.1,63.4,80.1z"/>
	<path class="st79" d="M63.4,69.4c-0.3,0.5-0.6,1-1,1.4c0.2-0.6-0.2-0.7-0.7-0.7c-1.1,0-2.3,0-3.4,0c-2.7,0-5.3,0-8,0
		c-0.4,0-0.7,0-1.1,0.2c-0.4-1.2-0.3-1.4,0.9-1.4c4.1,0,8.2,0,12.3,0C62.8,68.8,63.3,68.7,63.4,69.4z"/>
	<path class="st80" d="M117.4,62.2c0-0.6,0.4-0.5,0.8-0.5c3,0,6,0,8.9,0c2.6,0,5.2,0,7.8,0c0.1,0,0.1,0,0.2,0
		c-0.3,0.4,0.1,0.8,0,1.2c-5.8,0-11.6,0-17.4,0C117.6,62.7,117.4,62.5,117.4,62.2z"/>
	<path class="st57" d="M64.3,74.3c-4.7,0-9.4,0-14.2,0c-0.2-0.5-0.3-1-0.3-1.5c0.3-0.3,0.7-0.3,1-0.3c4.2,0,8.5,0,12.7,0
		c0.9,0,1,0.2,0.9,1C64.4,73.8,64.5,74,64.3,74.3z"/>
	<path class="st81" d="M64.4,73.5c0.1-0.7-0.3-0.7-0.8-0.7c-4.6,0-9.2,0-13.8,0c0,0-0.1-0.1-0.1-0.1c-0.3-1.2-0.3-1.2,0.9-1.2
		c3.4,0,6.8,0,10.2,0c0.3,0,0.7-0.1,1,0.2c0,0,0,0,0,0c-0.3,0.3-0.4,0.6,0.2,0.6c0.6,0.1,1.3,0,1.8-0.4c0.4-0.2,0.7-0.5,1.2-0.8
		C64.8,72,64.7,72.7,64.4,73.5z"/>
	<path class="st59" d="M120.8,54.5c0.6-0.3,1.1-0.7,1.7-1c0.5-0.3,1.1-0.4,1.8-0.4c2.8,0,5.6,0,8.4,0c0.4,0,0.9-0.1,1.3,0.3
		c0.3,0.4,0.2,0.9,0.3,1.4c-4,0-8,0-12,0C121.8,54.7,121.3,54.7,120.8,54.5z"/>
	<path class="st61" d="M133.9,72.8c-4.8,0-9.5,0-14.3,0c-0.4,0-0.9-0.1-0.9,0.6c-0.2-0.7-0.3-1.4-0.5-2.1c0.1-0.5,0.5-0.4,0.8-0.4
		c4.7,0,9.4,0,14.1,0c0.4,0,0.9,0.1,1.1,0.4c0,0.1,0,0.1,0,0.2C134,71.8,134,72.3,133.9,72.8z"/>
	<path class="st55" d="M134.3,71.2c-0.4-0.1-0.8-0.2-1.2-0.2c-4.6,0-9.3,0-13.9,0c-0.3,0-0.6-0.1-0.9,0.2c-0.4-0.5-0.2-0.7,0.4-0.7
		c0.9,0,1.8,0.2,2.7-0.1c-0.1-0.2-0.1-0.5-0.2-0.7c4,0,8.1,0,12.1,0c1.2,0,1.2,0,1,1.2C134.3,71,134.3,71.1,134.3,71.2z"/>
	<path class="st62" d="M134,53.3c-3.3,0-6.6,0-9.9,0c-0.5,0-1.1,0-1.6,0.2c0.6-0.5,1.3-1,1.9-1.5c0.4-0.2,0.8-0.3,1.2-0.3
		c2.3,0,4.6,0,6.9,0c0.4,0,0.8,0,1.1,0.3C133.9,52.4,134,52.9,134,53.3z"/>
	<path class="st82" d="M133.6,52c-3.1,0-6.2,0-9.2,0c0.1-0.2,0.3-0.4,0.5-0.5c0.5-0.5,1.1-0.5,1.7-0.5c2,0,3.9,0.1,5.9,0
		C133.3,50.9,133.6,51.2,133.6,52z"/>
	<path class="st62" d="M57.3,51.5c0.2,0.6,0.5,1.2,0.7,1.9c-0.3,0.4-0.8,0.4-1.2,0.4c-2.1,0-4.2,0-6.3,0c-0.3,0-0.6,0-0.9-0.3
		c0.1-0.5,0.2-0.9,0.3-1.4c0-0.2,0.1-0.5,0.2-0.7c0.3-0.2,0.6-0.3,1-0.3c1.8,0,3.6,0,5.4,0C56.8,51.2,57.1,51.2,57.3,51.5z"/>
	<path class="st58" d="M57.3,51.5c-2.4,0-4.8,0-7.1,0c0.3-2,0.4-2,2.3-2c1.1,0,2.3,0,3.4,0c0.3,0,0.6,0,0.9,0.2
		C56.9,50.2,57.1,50.8,57.3,51.5z"/>
	<path class="st83" d="M51.3,47.5c0.2-0.9,0.8-1.2,1.7-1c0.7,0.1,1.5,0.1,2.3,0c0.8-0.1,1.1,0.2,1,1C54.6,47.5,53,47.5,51.3,47.5z"
		/>
	<path class="st84" d="M126.8,47.5c0-0.2,0-0.5,0-0.7c0.2-0.2,0.4-0.3,0.7-0.3c1.3,0,2.7,0,4,0c0.5,0,0.5,0.7,0.7,1.1
		C130.4,47.5,128.6,47.5,126.8,47.5z"/>
	<path class="st59" d="M49.6,53.5c2,0,4.1,0,6.1,0c0.8,0,1.5,0,2.3-0.2c0.5,0.7,0.9,1.5,1.4,2.2c-0.2,0.1-0.4,0.1-0.7,0.1
		c-2.7,0-5.5,0-8.2,0c-0.4,0-0.9,0.1-1.2-0.3c0,0,0,0,0,0c-0.1-0.4,0.1-0.7,0.2-1C49.4,54.1,49.4,53.8,49.6,53.5z"/>
	<path class="st22" d="M48.8,59c0.1-0.5,0.1-1,0.2-1.5c0-0.1,0-0.1,0-0.2c0.3-0.3,0.7-0.3,1.1-0.3c3.4,0,6.8,0,10.2,0
		c0.4,0,0.8,0,1.1,0.2c1.8,0.9,3.8,0.9,5.8,0.9c0.9,0,0.9,0,0.7,1c-0.3,0.3-0.8,0.2-1.1,0.2c-5.6,0-11.2,0-16.7,0
		C49.5,59.2,49.1,59.3,48.8,59z"/>
	<path class="st60" d="M67.8,59c0.1-0.7-0.1-0.9-0.8-0.9c-1.9,0.1-3.7,0-5.5-0.7c-0.3-0.1-0.6-0.1-0.9-0.1c-3.9,0-7.8,0-11.7,0
		c0.2-0.6,0.1-1.3,0.3-1.9c3,0,6,0,8.9,0c0.4,0,0.8,0,1.2,0.2c2.1,2,4.6,2.6,7.4,2.4c1.3-0.1,1.4,0.1,1,1.4
		C67.7,59.2,67.7,59.1,67.8,59z"/>
	<path class="st56" d="M67.8,59c0,0.1,0,0.2,0,0.4c0,0.6,0,1.2-0.4,1.7c0-0.7-0.5-0.5-0.8-0.5c-5.7,0-11.4,0-17.2,0
		c-0.3,0-0.6,0-0.9,0.2c-0.1-0.5,0.2-0.9,0.2-1.4c0-0.1,0-0.2,0-0.3C55.1,59,61.5,59,67.8,59z"/>
	<path class="st85" d="M81.1,38.5c0.2-0.5,0.8-0.4,1.1-0.8c-0.2-0.3-0.6-0.3-0.9-0.2c-1.3,0.2-2.7-0.4-3.9,0.3c0,0-0.1-0.1-0.2-0.2
		c0.9-0.4,1.9-0.7,2.7-1.5c0.2-0.3,0.5-0.2,0.8-0.2c2.2,0,4.4,0,6.5,0c0.3,0,0.7-0.1,0.7,0.3c-0.1,0-0.2,0-0.3,0
		c-0.3,0.2-0.7-0.1-1,0.2C84.6,36.8,82.9,37.7,81.1,38.5z"/>
	<path class="st86" d="M78.6,32.2c0.6-0.4,1.3,0,1.9-0.4c0.4,1,0.9,1.9,1,2.9c-0.7,0-1.4,0-2.1,0C79,34,78.7,33.1,78.6,32.2z"/>
	<path class="st86" d="M81.6,35.1c0.8,0.3,1.3-0.4,2-0.3c-0.4,0.5-1,0.5-1.6,0.7C81.8,35.5,81.7,35.4,81.6,35.1z"/>
	<path class="st87" d="M74.8,56.9c0.1-1.4,0.2-2.7,1-3.9c0.3-0.4,0.7-0.6,1.2-0.6c8,0,16-0.1,24,0c0.2,0,0.4,0.1,0.5,0.2
		c0.3,0.3,0.4,0.2,0.6-0.1c0.2-0.3,0.5-0.5,0.7-0.8c0.7-0.1,1.5-0.1,2.2,0c0.5,0.7,1,1.5,1.2,2.4c-0.3,0.3-0.7,0.3-1.1,0.3
		c-8,0-15.9,0-23.9,0c-1.5,0-3,0-4.5,0c-0.7,0-1.1,0.2-1.3,0.9c-0.2,0.5-0.1,1-0.3,1.5C75,57,74.9,57,74.8,56.9z"/>
	<path class="st88" d="M75.2,55.6c0.1-1.4,0.1-1.4,1.4-1.4c9.9,0,19.7,0,29.6,0c0.3,0.5,0.5,1.1,0.5,1.7c-7.5-0.2-15,0-22.5-0.1
		c-0.3,0-0.6-0.1-0.8,0.1c-0.7,0.2-1.2-0.2-1.7-0.5c-0.1-0.1-0.2-0.2-0.2-0.3c-0.2-0.3-0.4-0.5-0.7-0.1c-0.2,0.3-0.3,0.8-0.8,0.8
		c-1.2-0.1-2.4,0-3.6,0C75.9,55.8,75.5,55.9,75.2,55.6z"/>
	<path class="st89" d="M101.2,52.7c-8.1,0-16.1,0-24.2,0c-0.5,0-0.9,0.1-1.3,0.3c0.3-0.8,0.9-1.5,1.7-1.9c0.5-0.3,1-0.4,1.5-0.4
		c4.9,0,9.8,0,14.8,0c0.2,0,0.5,0,0.7,0.1c0.1,0,0.2,0.1,0.3,0.2c0.1,0,0.2,0,0.3,0c0.3-0.2,0.6-0.3,1-0.3c1.2,0,2.4,0,3.6,0
		C100.7,50.7,101.3,51.5,101.2,52.7z"/>
	<path class="st32" d="M75.5,65.3c-0.2-0.4-0.3-0.8-0.3-1.2c-0.1-0.3,0-0.7-0.2-1c0-0.3-0.1-0.6,0.1-0.9c0.3-0.2,0.6-0.2,0.9-0.2
		c1.9,0,3.8,0,5.7,0c1,0.2,1.8,0.7,2.8,0.9c1.5,0.3,2.9,0,4.3-0.3c2.5-0.1,4.9,0,7.4-0.1c1.6,0.7,3.3,0.7,4.9,0c0,0,0.1,0,0.2,0
		c1.5,0.1,2.9,0,4.4,0.1c0.4,0,0.9-0.1,1.2,0.2c0.1,0.4,0.1,0.8,0,1.3l0,0c-0.3,0.3-0.7,0.3-1.1,0.3c-8.2,0-16.4,0-24.6,0
		c-1.4,0-2.7,0.1-4.1,0C76.3,64.3,75.7,64.4,75.5,65.3z"/>
	<path class="st16" d="M104.2,64.9c-0.1,0.7-0.4,1.4-0.7,2.1c-0.4-0.5-1-0.6-1.7-0.6c-6.2,0-12.4,0-18.6,0c-0.5,0-1,0.1-1.4-0.1
		c-0.4-0.5-0.6-1-0.4-1.6c0.4-0.2,0.8-0.2,1.3-0.2c6.7,0,13.3,0,20,0C103.2,64.5,103.8,64.3,104.2,64.9z"/>
	<path class="st90" d="M83.2,55.9c0-0.1-0.1-0.3,0.1-0.3c0.2,0,0.4,0,0.6,0c7.3,0,14.5,0,21.8,0c0.4,0,0.8,0,1.1,0.3
		c0,0,0,0.1,0,0.1c-0.1,0.5-0.5,0.4-0.8,0.4c-0.7,0-1.4,0.1-2.1,0c-1.1,0-2.1,0.6-3.2,0.9c-0.5,0.1-1,0.4-1.5,0.2
		c-0.3-0.1-0.6-0.2-0.9-0.2c-3.5,0-7,0-10.5,0c-0.3,0-0.6,0-0.8,0.1C85.6,57.3,84.3,56.8,83.2,55.9z"/>
	<path class="st91" d="M81.6,66.1c6.9,0,13.9,0,20.8,0c0.7,0,1.1,0.1,1,0.9c0,0.3-0.1,0.6-0.3,0.9c-0.6-0.1-1.3-0.1-1.9-0.1
		c-5.8,0-11.6,0-17.4,0c-0.5,0-1,0-1.4-0.1C81.8,67.3,81.6,66.7,81.6,66.1z"/>
	<path class="st92" d="M104.2,64.9c-0.4-0.2-0.8-0.2-1.2-0.2c-7.2,0-14.5,0-21.7,0c-0.1-0.1-0.2-0.4-0.5-0.1
		c-1.1,0.7-1.8,1.8-2.4,2.9c-0.1-0.1-0.1-0.1-0.1-0.2c0-0.4,0.2-0.7,0.4-1.1c0.1-0.3,0.2-0.5-0.2-0.5c-0.8-0.1-1.6,0-2.4,0
		c-0.4,0,0.1,0.5-0.3,0.5c-0.2-0.3-0.3-0.5-0.3-0.9c-0.1-1.2-0.1-1.2,1.2-1.2c10,0,20.1,0,30.1,0c0,0.2,0,0.5,0,0.7
		c-0.2,0.5,0,1.1-0.2,1.6c0,0.3,0,0.5,0,0.8c-0.2,0.2,0,0.5-0.2,0.7c-0.5-0.1-0.3-0.7-0.5-0.9l0,0c-0.2-0.6-0.5-1.2-0.9-1.7l0,0
		c-0.1-0.3-0.3-0.5-0.6-0.7C104.3,64.6,104.3,64.8,104.2,64.9z"/>
	<path class="st79" d="M102.6,69c-0.2,1.1-1.1,1.4-2,1.5c-0.2-0.3-0.6-0.2-0.8-0.2c-4.9,0-9.9,0-14.8,0c-0.4,0-0.8,0.1-1.3,0.1
		c-0.3-0.4-0.7-0.8-0.9-1.4c0-0.4,0.3-0.5,0.6-0.6c0.4-0.1,0.7-0.1,1.1-0.1c5.5,0,10.9,0,16.4,0C101.5,68.4,102.2,68.2,102.6,69z"/>
	<path class="st42" d="M83.7,70.4c0.1-0.3,0.4-0.4,0.8-0.4c5.3,0,10.5,0,15.8,0c0.3,0,0.9-0.1,0.3,0.5c-4.1,1.3-8.3,1.8-12.6,1.3
		c-1-0.1-2-0.3-2.9-0.4C84.3,71.4,83.9,71,83.7,70.4z"/>
	<path class="st43" d="M102.6,69c-0.4-0.3-0.8-0.3-1.3-0.3c-5.7,0-11.5,0-17.2,0c-0.5,0-1,0-1.3,0.4c-0.2-0.1-0.3-0.3-0.3-0.6
		c-0.1-0.4-0.4-0.6-0.3-1c6.7,0,13.3,0,20,0c0.3,0,0.8-0.2,1,0.4C103.1,68.3,102.9,68.7,102.6,69z"/>
	<path class="st58" d="M94.6,50.9c-5.2,0-10.4,0-15.5,0c-0.5,0-1,0-1.5,0.2c0.9-0.8,2-1.2,3.2-1.5c0.6-0.3,1.2-0.3,1.9-0.3
		c3.5,0,7.1,0,10.6,0c0.4,0,0.9-0.1,1.3,0.2C94.8,50,94.7,50.5,94.6,50.9z"/>
	<path class="st93" d="M59.7,47.2c0-0.1,0-0.1-0.1-0.2c-0.2-0.3-0.8-0.6-0.7-0.9c0.2-0.4,0.8-0.2,1.2-0.2c3.4,0,6.7,0,10.1,0
		c0.4,0,0.8-0.1,1,0.3c-1.4,1.1-3.1,1.5-4.8,2c0.1-0.7,0.7-0.6,1-0.6c-1.8,0.1-3.9,0-5.9,0.1c-0.3,0-0.6-0.1-0.7,0.3
		C60.4,47.9,60,47.6,59.7,47.2z"/>
	<path class="st94" d="M94.6,49.6c-3.9,0-7.7,0-11.6,0c-0.7,0-1.5-0.2-2.2,0c1.3-0.6,2.7-1,4.1-1.4c1-0.2,2.1-0.1,3.1-0.1
		c1.7,0,3.4,0,5.1,0C94.8,48.1,94.4,48.2,94.6,49.6z"/>
	<path class="st95" d="M94.6,49.6c0-1.3-0.8-1.3-1.7-1.2c-1.7,0.1-3.5,0-5.3,0c-0.9,0-1.9,0-2.8-0.2c2.6-0.9,5.2-1.6,7.9-1.7
		c1,0,1.4,0.5,1.6,1.3c0.3,1,0.4,2.1,0.4,3.2c-0.1,0-0.1,0-0.2,0C94.6,50.5,94.6,50,94.6,49.6z"/>
	<path class="st21" d="M122.5,43.1c-2.2,2.1-4.9,2.3-7.9,1.9c0.7-0.8,1.3-1.4,1.9-2.1c0.2-0.3,0.5-0.4,0.9-0.4c1.4,0,2.8,0,4.2,0
		C122,42.5,122.6,42.4,122.5,43.1z"/>
	<path class="st15" d="M122.5,43.1c-0.1-0.4-0.3-0.3-0.6-0.3c-1.6,0-3.3,0.1-4.9-0.1c-0.2,0-0.4,0.1-0.5,0.2
		c0.1-0.3,0.3-0.5,0.5-0.7c0.1-0.1,0.2-0.2,0.1-0.3c-0.1-0.1-0.2-0.1-0.4,0c-1.3,0.1-2.6-0.2-3.9-0.5c0.2-0.3,0.5-0.2,0.8-0.2
		c3.1,0,6.3,0,9.4,0c0.3,0,0.7-0.2,0.8,0.3C123.6,42.2,123.2,42.7,122.5,43.1z"/>
	<path class="st96" d="M101.2,52.7c-0.3-1.5-0.5-1.7-1.9-1.7c-1.4,0-2.8,0-4.2,0c0.7-0.6,1.3-1.1,2-1.7c0.2-0.2,0.4-0.4,0.5-0.7
		c0.1-0.2,0.2-0.3,0.3-0.5c0.2-0.1,0.2-0.6,0.6-0.3c1.1,1.5,2.3,2.9,3,4.7c0.1,0.4,0.4,0.2,0.6,0.1C101.8,53.2,101.5,53,101.2,52.7z
		"/>
	<path class="st97" d="M106.9,64.1c0-0.4,0-0.8,0-1.2c0-0.1,0,0,0-0.1c-0.5-1.2-0.5-1.2-1.9-1.2c-0.7,0-1.5,0.2-2.1-0.3
		c0.1-0.9,0.4-1.8,1.1-2.4c1,0,2.1-0.3,3.1,0.2C107,60.8,107.2,62.4,106.9,64.1z"/>
	<path class="st98" d="M60.8,48.1c-0.1-0.2-0.5-0.6,0.2-0.5c2.3,0,4.6,0,7,0c-0.5,0.5-1.2,0.3-1.6,0.8C64.6,49,62.7,49.4,60.8,48.1z
		"/>
	<path class="st99" d="M107,59.1c-1.1,0-2.2,0-3.3,0c-0.1-0.2-0.1-0.4-0.1-0.6c0.2-0.5-0.1-1.2,0.6-1.4c0.8-0.2,1.6-0.3,2.4,0
		c0.5,0.2,0.1,0.8,0.3,1.1C107,58.6,107,58.8,107,59.1z"/>
	<path class="st100" d="M78.7,66.3c-0.1,0.3-0.2,0.7-0.3,1c-0.2,0.7-0.5,1.4-0.4,2.2c0,0.2-0.1,0.3-0.3,0.2
		c-0.7-0.8-1.2-1.7-1.5-2.7c-0.2-0.6,0-0.9,0.6-1C77.4,66,78.1,65.8,78.7,66.3z"/>
	<path class="st101" d="M107,58.3c-0.4-0.2,0.1-0.9-0.4-1c-0.8-0.1-1.6-0.1-2.4,0c-0.2,0-0.3,0.3-0.3,0.5c0,0.3,0.1,0.6-0.1,0.8
		c-0.5-0.8-0.3-1.6-0.2-2.4c0.8,0,1.5,0,2.3,0c0.3,0,0.6,0.1,0.8-0.2C107,56.8,107.1,57.5,107,58.3z"/>
	<path class="st102" d="M78.7,66.3c-0.6,0-1.2,0-1.9,0c-0.6,0-0.8,0.2-0.7,0.7c-0.2-0.2-0.3-0.5-0.3-0.8c-0.1-0.5,0-0.8,0.7-0.7
		c0.6,0.1,1.3,0,1.9,0c0.2,0,0.6-0.1,0.7,0.2C79.2,65.9,79,66.1,78.7,66.3z"/>
	<path class="st103" d="M105,51.8c-0.7,0.2-1.5,0.2-2.2,0c0.3-0.5,0.6-1.1,0.8-1.7C104.2,50.6,104.7,51.1,105,51.8z"/>
	<path class="st88" d="M75,62.4c0,0.3,0,0.6,0,0.9c0.1,0.1,0,0.1,0,0.2c-0.6-2.2-0.5-4.3-0.2-6.5c0.1,0,0.1,0,0.2,0
		c0.2,0.4,0,0.8,0.1,1.1c0,0.7,0,1.5,0,2.2C75,61,75.2,61.7,75,62.4z"/>
	<path class="st104" d="M102.8,92.2c-0.4-0.2-0.5-0.7-0.5-1c0-1-0.5-1.1-1.3-1c0.4-0.2,0.8-0.5,1.3-0.8
		C102.3,90.4,102.5,91.3,102.8,92.2z"/>
	<path class="st32" d="M82.2,67.5c0.1,0.3,0.4,0.6,0.3,1c-0.7-1-1.1-2.2-1.3-3.4c0-0.2,0.1-0.5-0.4-0.5c0.3-0.3,0.4-0.2,0.5,0.1
		c0.1,0.5,0.2,0.9,0.3,1.4C81.7,66.6,81.9,67,82.2,67.5z"/>
	<path class="st42" d="M63.7,71.9c-0.6,0.5-1.2,0.7-2,0.4c-0.6-0.2-0.5-0.5,0-0.7c-0.1,0.3-0.2,0.5,0.3,0.5
		C62.6,72.2,63.2,72,63.7,71.9z"/>
	<path class="st102" d="M77.7,69.7c0.4-0.8,0.2-1.7,0.7-2.4c0,0.1,0,0.1,0,0.2c-0.1,0.7-0.4,1.4-0.4,2.1C78,70,77.8,69.9,77.7,69.7z
		"/>
	<path class="st105" d="M105.1,65.3c0.6,0.4,0.8,1,0.9,1.7C105.7,66.4,105.4,65.8,105.1,65.3z"/>
	<path class="st105" d="M106.7,66.3c0-0.5-0.2-1.1,0.2-1.6C106.9,65.3,106.9,65.8,106.7,66.3z"/>
	<path class="st106" d="M106.5,67.8c0-0.2-0.1-0.5,0.2-0.7c0,0.4,0,0.8-0.1,1.1c-0.1,0.3-0.2,0-0.2-0.1
		C106.4,68.1,106.4,67.9,106.5,67.8z"/>
	<path class="st105" d="M106.5,67.8c0,0.1,0,0.3-0.1,0.3c-0.1-0.4-0.2-0.8-0.4-1.2C106.3,67.1,106.2,67.6,106.5,67.8z"/>
	<path class="st107" d="M98.5,47.7c-0.3,0-0.3,0.3-0.6,0.3c0.1-0.2,0-0.6,0.3-0.7C98.4,47.3,98.5,47.5,98.5,47.7z"/>
	<path class="st66" d="M86.6,36.5c0.3-0.3,0.7-0.1,1-0.2C87.3,36.5,86.9,36.4,86.6,36.5z"/>
	<path class="st107" d="M97.6,48.5c0,0.4-0.2,0.6-0.5,0.7C97.2,48.9,97.4,48.7,97.6,48.5z"/>
	<path class="st28" d="M116.7,41.9c0.1-0.2,0.4-0.2,0.5-0.1c0.2,0.2,0,0.3-0.2,0.4C117.1,42,117,41.9,116.7,41.9z"/>
	<path class="st32" d="M104.6,64.6c0.3,0.1,0.6,0.3,0.6,0.7C104.9,65.1,104.7,64.9,104.6,64.6z"/>
	<path class="st63" d="M75,63.4c0-0.1,0-0.1,0-0.2c0.3,0.3,0.1,0.6,0.1,0.9C75,63.9,75,63.7,75,63.4z"/>
	<path class="st72" d="M75.1,38c0.5,0,0.7,0.2,0.3,0.7C75.5,38.4,75.2,38.2,75.1,38z"/>
	<path class="st60" d="M74.8,57.9c0-0.4,0-0.7,0.2-1c0-0.5-0.1-0.9,0.2-1.4c1.3,0,2.7,0,4,0c0.3,0,0.7,0,1,0.2
		c0.1,0.1,0.1,0.1,0.1,0.2c0,1.2-0.2,2.4-0.3,3.6c-0.4,0-0.4-0.3-0.5-0.6c-0.1-0.6-0.5-0.7-1-0.7c-0.8,0-1.7,0-2.5,0
		C75.5,58.2,75.1,58.2,74.8,57.9z"/>
	<path class="st65" d="M79.9,59.5c-0.3-1.3,0.1-2.5,0.2-3.7c0.2-0.3,0.3-0.6,0.5-0.9c0.1-0.1,0.1-0.1,0.2-0.1
		c0.3,0.1,0.6,0.3,0.8,0.4c0.5,0.2,1,0.5,1.5,0.7c1.2,0.5,2.4,1,3.6,1.5c0.7-0.1,1.2,0.3,1.8,0.6c0.6,0.2,1.2,0.5,1.9,0.8
		c1,0.4,1.1,0.7,0.7,1.7c-0.1,0.2-0.2,0.4-0.3,0.5c-0.1,0.2-0.3,0.4-0.4,0.6c-0.5,0.6-1,1.1-1.8,1.3c-2.3,0.9-4.6,0.5-6.7-0.5
		c-1.1-0.3-1.4-1.2-1.9-2C79.9,60,79.7,59.8,79.9,59.5z"/>
	<path class="st88" d="M80.8,54.9L80.8,54.9c-0.1,0-0.1,0-0.1,0c0.4-0.5,0.6-0.5,0.9,0.2C81.2,55.1,81,54.9,80.8,54.9z"/>
	<path class="st87" d="M80.8,54.9c0.3,0,0.5,0,0.7,0.2c0.1,0.1,0.1,0.1,0.2,0.2C81.3,55.2,81,55.1,80.8,54.9z"/>
	<path class="st65" d="M103.6,56.2c0.3,0.8,0.1,1.6,0.2,2.4c0,0.2,0,0.3-0.1,0.5c-0.3,0.7-0.5,1.4-1,2c-0.2,0.9-0.9,1.2-1.7,1.5
		c-1.6,0.8-3.2,1-4.7,0c-0.5-0.1-0.8-0.4-1.1-0.8c-0.3-0.4-0.6-0.8-0.9-1.3c-0.7-1.4-0.7-1.5,0.8-2c1.2-0.4,2.3-0.7,3.5-1.1
		c0.3-0.1,0.5-0.2,0.8-0.1c1.3-0.2,2.5-0.8,3.7-1.1C103.3,56.2,103.4,56,103.6,56.2z"/>
	<path class="st63" d="M80.1,60.3c0.4,0.8,1,1.5,1.7,2c-2.3,0-4.6,0-6.9,0c-0.3-0.7-0.1-1.4-0.2-2c0.2-0.2,0.4-0.2,0.6-0.2
		c1.4,0,2.7,0,4.1,0C79.7,60.1,79.9,60.2,80.1,60.3z"/>
	<path class="st80" d="M95.3,61.8c0.3,0.3,0.6,0.6,1,0.9c-0.3,0.1-0.5,0.2-0.8,0.2c-2.3,0-4.6,0-6.9,0c0.6-0.4,1.2-0.8,1.7-1.4
		c0.2-0.3,0.5-0.5,1-0.4c0.7,0,1.5,0.1,2.2,0C94.2,61,94.9,61.2,95.3,61.8z"/>
	<path class="st80" d="M101,62.7c0.6-0.5,1.2-0.9,1.7-1.5c0.8,0.4,1.7,0.1,2.6,0.2c1.7,0.1,1.5-0.3,1.5,1.5c-1.6,0-3.2,0-4.8,0
		C101.7,62.9,101.3,62.9,101,62.7z"/>
	<path class="st22" d="M99.4,57.4c-1.5,0.6-3,1-4.6,1.5c-1,0.3-1,0.3-0.5,1.3c0.1,0.1,0.1,0.3,0.2,0.5c-0.6,0.1-0.6-0.4-0.8-0.8
		c-0.4-0.6-1-0.9-1.7-0.7c-0.4,0.1-0.3,0.4-0.4,0.7c-0.2,0.5-0.2,1.1-0.9,1.1c0.7-1.7,0.7-1.7-1-2.4c-1-0.4-1.9-0.8-2.9-1.2
		c0.3-0.3,0.7-0.3,1.1-0.3c3.5,0,6.9,0,10.4,0C98.7,57.1,99.1,57.1,99.4,57.4z"/>
	<path class="st108" d="M80.1,60.3c-1.8,0-3.5,0-5.3,0c0-0.8,0-1.6,0-2.4c1.2,0,2.5,0,3.7,0c0.6,0,1.1,0,1.1,0.8
		c0,0.2,0.2,0.5,0.3,0.7C80,59.7,80.1,60,80.1,60.3z"/>
	<path class="st109" d="M90.7,61c0.6-0.4,0.7-1,0.8-1.6c0-0.4,0.1-0.4,0.4-0.4c0.3,0,0.6,0,0.9,0c0.5-0.1,0.8,0.1,0.9,0.6
		c0.2,0.4,0.2,0.9,0.7,1.1c0.3,0.4,0.6,0.8,0.9,1.2c-1.6-0.9-3.3-0.5-5-0.3C90.4,61.3,90.5,61.1,90.7,61z"/>
</g>
<circle class="st110" cx="91.7" cy="62.8" r="44.9"/>
</svg>
