<svg width="539" height="560" viewBox="0 0 539 560" fill="none" xmlns="http://www.w3.org/2000/svg">
<g clip-path="url(#clip0_117_28)">
<path d="M457.556 785.117C481.959 793.494 510.466 788.606 530.681 772.603C555.131 753.27 565.794 721.273 586.983 698.4C614.484 668.743 656.158 657.719 690.43 636.333C731.279 610.848 760.888 571.133 789.461 532.372C808.445 506.628 828.15 479.091 830.879 447.221C834.602 403.71 800.521 360.351 757.43 353.699C684.312 342.412 623.485 423.294 549.55 420.34C511.246 418.809 474.004 394.431 436.822 403.857C392.797 415.045 373.823 466.15 363.815 510.475C356.192 544.203 349.751 578.184 343.283 612.153C338.075 639.668 332.919 668.598 341.584 695.236C352.28 728.117 373.663 727.491 399.175 739.759C421.658 750.619 431.508 776.182 457.556 785.117Z" fill="#1D173B"/>
<path d="M227.94 238.034C252.105 247.074 280.736 242.967 301.381 227.522C326.35 208.865 337.883 177.171 359.689 154.884C387.99 125.99 429.948 116.108 464.792 95.6667C506.322 71.3067 537.004 32.4155 566.626 -5.55048C586.306 -30.7656 606.755 -57.7538 610.354 -89.5383C615.264 -132.931 582.379 -177.205 539.486 -185.031C466.704 -198.313 403.691 -119.122 329.864 -124.094C291.616 -126.671 255.054 -152.057 217.628 -143.65C173.314 -133.668 152.951 -83.1013 141.737 -39.0664C133.195 -5.55867 125.828 28.2333 118.434 62.0131C112.477 89.3744 106.533 118.154 114.467 145.019C124.261 178.18 145.653 178.137 170.819 191.099C192.998 202.568 202.146 228.39 227.94 238.034Z" fill="#0B0E23"/>
</g>
<defs>
<clipPath id="clip0_117_28">
<rect width="539" height="560" fill="white"/>
</clipPath>
</defs>
</svg>
