<svg width="1613" height="1457" viewBox="0 0 1613 1457" fill="none" xmlns="http://www.w3.org/2000/svg">
<g clip-path="url(#clip0_115_12)">
<path d="M358.035 394.263C301.646 399.721 253.008 435.541 211.722 474.238C170.436 512.986 132.43 556.545 82.9958 584.229C31.2771 613.202 -29.2852 622.629 -82.3455 649.122C-121.644 668.768 -156.968 698.734 -176.095 738.225C-195.223 777.717 -195.968 827.379 -171.773 863.992C-128.947 928.885 -35.3464 928.836 42.1078 921.592C139.037 912.513 235.967 903.434 332.946 894.355C409.804 887.161 494.114 876.395 546.131 819.441C589.603 771.862 599.589 700.322 583.641 637.909C561.234 549.947 464.305 383.994 358.035 394.263Z" fill="#1D173C"/>
<path d="M1524.31 315.327C1467.92 320.785 1419.29 356.605 1378 395.302C1336.71 434.05 1298.71 477.609 1249.27 505.293C1197.55 534.266 1136.99 543.693 1083.93 570.186C1044.63 589.832 1009.31 619.798 990.182 659.289C971.054 698.781 970.309 748.443 994.504 785.056C1037.33 849.949 1130.93 849.9 1208.39 842.656C1305.31 833.577 1402.24 824.498 1499.22 815.419C1576.08 808.225 1660.39 797.459 1712.41 740.505C1755.88 692.926 1765.87 621.386 1749.92 558.973C1727.51 471.011 1630.58 305.058 1524.31 315.327Z" fill="#1D173C"/>
</g>
<defs>
<clipPath id="clip0_115_12">
<rect width="1613" height="1457" fill="white"/>
</clipPath>
</defs>
</svg>
