<svg width="539" height="560" viewBox="0 0 539 560" fill="none" xmlns="http://www.w3.org/2000/svg">
<g clip-path="url(#clip0_117_21)">
<path d="M435.118 183.85C409.435 186.328 385.51 202.58 373.734 225.517C359.482 253.237 363.023 286.779 353.205 316.372C340.451 354.754 307.081 382.042 284.739 415.698C258.107 455.809 247.598 504.218 237.636 551.331C231.014 582.625 224.478 615.849 235.189 645.989C249.815 687.138 298.789 712.495 340.768 700.71C411.998 680.712 433.88 581.904 502.404 553.982C537.904 539.517 581.897 546.289 611.84 522.314C647.283 493.903 643.396 439.528 634.154 395.037C627.129 361.18 618.923 327.581 610.746 293.982C604.095 266.781 596.811 238.311 577.895 217.651C554.545 192.149 535.341 201.572 507.039 200.967C482.077 200.39 462.527 181.199 435.118 183.85Z" fill="#1D173B"/>
<path d="M24.2536 -245.938C-1.42848 -243.46 -25.3543 -227.208 -37.1301 -204.271C-51.3819 -176.551 -47.8406 -143.01 -57.6585 -113.416C-70.4132 -75.0347 -103.782 -47.7462 -126.125 -14.09C-152.757 26.0208 -163.266 74.4304 -173.228 121.543C-179.85 152.836 -186.386 186.06 -175.675 216.201C-161.049 257.349 -112.074 282.707 -70.0965 270.921C1.13392 250.924 23.0156 152.116 91.5396 124.194C127.04 109.729 171.033 116.501 200.977 92.5263C236.419 64.1145 232.532 9.74015 223.29 -34.7505C216.265 -68.6087 208.059 -102.207 199.883 -135.806C193.232 -163.007 185.947 -191.477 167.031 -212.137C143.681 -237.639 124.477 -228.216 96.175 -228.822C71.2127 -229.398 51.6632 -248.589 24.2536 -245.938Z" fill="#0B0E23"/>
</g>
<defs>
<clipPath id="clip0_117_21">
<rect width="539" height="560" fill="white"/>
</clipPath>
</defs>
</svg>
