<svg width="24" height="24" viewBox="0 0 24 24" fill="none" xmlns="http://www.w3.org/2000/svg">
<circle cx="12" cy="12" r="12" fill="#323231"/>
<path d="M10.1425 11.7762C9.82738 11.6064 9.53671 11.3984 9.27703 11.1585C8.45916 10.403 7.9486 9.33144 7.9486 8.14296C7.9486 5.85487 9.84101 4 12.1754 4C14.5098 4 16.4022 5.85487 16.4022 8.14296C16.4022 9.33144 15.8917 10.403 15.0738 11.1585C14.8141 11.3984 14.5234 11.6064 14.2083 11.7762M10.1425 11.7762V10.3315M10.1425 11.7762C10.1425 11.7762 10.6055 13.0553 12.1754 13.0553M10.1425 11.7762L9.03549 12.8612C8.91974 12.9158 8.79376 12.9803 8.66024 13.0543M14.2083 11.7762V10.3286M14.2083 11.7762C14.2083 11.7762 13.7454 13.0553 12.1754 13.0553M14.2083 11.7762L15.3153 12.8612C15.4035 12.8983 15.4978 12.9415 15.5971 12.9908M10.1425 10.3315C9.79295 10.2811 9.45756 10.1907 9.19272 10.0961L8.97511 7.35383L12.1754 7.01844L15.2751 7.35383L15.13 10.0961C14.8725 10.1889 14.5477 10.2777 14.2083 10.3286M10.1425 10.3315C11.1052 10.4703 12.1754 10.3057 12.1754 9.08993C12.1754 10.3138 13.2498 10.4724 14.2083 10.3286M12.1754 13.0553V12.1873M12.1754 13.0553V15.403H14.4267M7.60643 19.1514C6.77448 19.1909 5.1106 19.0054 5.1106 17.948C5.1106 15.5886 7.28468 13.8167 8.66024 13.0543M7.60643 19.1514V16.567M7.60643 19.1514C7.64739 19.2953 7.93327 19.5124 8.66024 19.6909M16.7243 19.1514C17.5025 19.1646 19.0591 18.9423 19.0591 17.948C19.0591 15.3371 16.9034 13.6391 15.5971 12.9908M16.7243 19.1514V16.567M16.7243 19.1514C16.6526 19.2953 16.3308 19.5124 15.5971 19.6909M15.5971 19.6909C15.2854 19.7668 14.8995 19.8357 14.4267 19.889C13.8252 19.9569 13.0833 19.9997 12.1754 19.9997C11.2232 19.9997 10.4553 19.9569 9.8406 19.889C9.35751 19.8357 8.96908 19.7668 8.66024 19.6909M15.5971 19.6909V12.9908M8.66024 19.6909V13.0543" stroke="white" stroke-width="0.5" stroke-linecap="round" stroke-linejoin="round"/>
</svg>
