<svg width="232" height="32" viewBox="0 0 232 32" fill="none" xmlns="http://www.w3.org/2000/svg">
<path d="M29.6666 6.3593V10.6196H13.4487C13.1041 11.2775 13.1873 12.36 13.1972 13.3765C14.1457 13.7211 16.2546 13.5018 17.4717 13.5018H26.9008C27.1542 13.7234 27.5804 13.6056 27.9065 13.7524V13.8778H28.1581L28.2838 14.1284H28.5352L28.9124 14.6296H29.0387V14.8802L29.2901 15.0055V15.2562H29.4158V15.5067H29.5415C29.8746 16.3437 29.6674 17.8392 29.6673 18.8899V22.8996H29.5415C29.4998 23.0666 29.4579 23.2337 29.4158 23.4009H29.2901V23.6515L28.913 23.9021L28.7872 24.2779H28.5358L28.2844 24.6538H28.033V24.7792L27.53 24.9045V25.0298H7.79118V20.7693H18.4776C20.3503 20.7693 22.6016 20.9407 24.2607 20.644C24.4843 20.0446 24.3926 18.9417 24.3864 18.1379C23.4846 17.6773 21.5516 17.8873 20.2377 17.8873H10.6828C10.426 17.6685 10.0065 17.7821 9.6771 17.6366V17.5113C9.11038 17.2333 8.46275 16.9059 8.29412 16.2583C7.62094 15.5858 7.79118 12.3444 7.79118 10.8702C7.79118 9.75019 7.72345 8.53764 8.16841 7.86293L8.54552 7.61234V7.36176H8.67123L8.92263 6.98588H9.17416V6.86059L9.5514 6.7353L9.6771 6.48471H10.0537V6.3593H29.6666ZM31.4267 6.3593H46.6391C47.7807 6.3593 50.7702 6.13665 51.5422 6.48459V6.60939H51.7936L52.045 6.98527H52.2966V7.11056L52.6737 7.36114V7.61173L52.9251 7.73702V7.98785L53.1766 8.11314C53.533 8.79561 53.3023 11.1285 53.3023 12.1229C53.3023 13.3022 53.5385 15.4792 53.1766 16.3832H53.0508C53.009 16.5503 52.9671 16.7174 52.9251 16.8845H52.7994V17.1351L52.548 17.2603V17.5109L52.2966 17.6362V17.7615C51.0954 18.6354 49.2221 18.5134 47.142 18.5134H36.8328V25.0292H31.4267V14.1282H47.8962C48.1886 13.3416 48.0284 11.877 48.022 10.8702L47.6448 10.7448C47.4152 10.5454 46.8113 10.6199 46.3876 10.6195H31.4267V6.3593ZM58.0797 6.3593H70.2746C72.3859 6.3593 74.3208 6.24164 75.5544 7.11118L75.9316 7.61234L76.3087 7.86293C77.3337 9.31253 76.9379 14.3344 76.9379 16.8845C76.9379 19.1346 77.2696 22.1721 76.3087 23.5256L76.0573 23.6509L75.6802 24.152H75.4287C75.3869 24.2356 75.345 24.3191 75.303 24.4026C74.1958 25.1001 72.4753 25.0292 70.6513 25.0292H62.2285C60.8821 25.0292 58.6617 25.273 57.5768 24.9039V24.7786H57.1996V24.6532H56.9482V24.5279L56.1939 24.2773L56.0682 24.0267L55.439 23.5256L55.3133 23.0243H55.1876C54.8696 22.2939 54.9362 20.81 54.9362 19.7664V13.6269C54.9362 12.1326 54.7291 9.40828 55.1876 8.36422H55.3143C55.3562 8.19717 55.3981 8.03011 55.44 7.86305L56.0691 7.36188L56.1948 7.1113H56.4462C56.4882 7.02777 56.5301 6.94424 56.572 6.86071H56.8235V6.73518H57.2006V6.60939L58.0806 6.4841V6.3593H58.0797ZM95.0417 12.8751V10.6196H83.853V20.7693H95.0417V18.5138H100.322C100.614 19.3002 100.454 20.7648 100.447 21.7716C100.223 22.0301 100.346 22.5657 100.196 22.8994H100.07V23.1499L99.8186 23.2752V23.5259L99.5672 23.6512L99.1901 24.1524H98.9385C98.8967 24.2359 98.8548 24.3195 98.8128 24.403L98.31 24.5283V24.6536H98.0585V24.779C97.0114 25.2297 94.8535 25.0296 93.4068 25.0296H84.7326C82.6884 25.0296 80.9183 25.0943 79.7037 24.2777L79.4523 23.9018L78.95 23.5259C78.3862 22.6853 78.4472 21.0469 78.4472 19.6415V12.6245C78.4472 11.6223 78.3406 10.2852 78.5729 9.49185V8.7401C79.6267 5.58933 84.3831 6.35942 88.5048 6.3593H97.1795V6.48459H97.6825V6.60939L98.4368 6.73468V6.85998H98.6875C98.7294 6.9435 98.7713 7.02703 98.8132 7.11056H99.0646L99.1904 7.36114L99.8196 7.86231C100.577 8.93407 100.465 10.9106 100.449 12.7492C99.426 13.1243 96.4113 12.881 95.0417 12.8751ZM113.271 19.1397C113.113 19.7364 112.523 20.0107 112.14 20.3928C111.679 20.9358 111.218 21.4788 110.757 22.0218L109.374 23.2747V23.5255L108.242 24.5278L107.865 25.0291H100.951V24.9038H101.076C101.347 24.3271 101.79 24.0669 102.208 23.6507L102.837 22.8989L103.214 22.6483V22.3977L105.1 20.6435V20.3928L107.111 18.5133V18.2627L107.363 18.1374V18.0121L108.997 16.5083V16.2586C109.155 16.0413 109.447 15.9363 109.626 15.6322L109.249 15.3816V15.1309L107.363 13.3767L107.238 13.0008L105.351 11.2462V10.9956L103.465 9.24127L103.339 8.86539L101.453 7.11118V6.86059H101.327L100.95 6.35942H107.865C108.11 6.78527 108.535 7.02711 108.871 7.36188L110.254 8.99081L111.637 10.2439V10.4944L112.894 11.6222L113.397 12.2488H113.649C114.105 11.4005 114.916 10.9246 115.534 10.2439L115.66 9.86798L116.037 9.61739L116.666 8.86551L117.546 8.11376V7.86293L118.678 6.86047C118.804 6.69341 118.929 6.52635 119.055 6.3593H125.97V6.48459C125.619 6.69001 125.599 6.95339 125.341 7.23647C124.712 7.82116 124.083 8.4059 123.455 8.99068V9.24127C123.036 9.61714 122.617 9.99306 122.198 10.369L121.569 11.1209L121.318 11.2462V11.4968L119.306 13.3763V13.6269L119.055 13.7522L117.797 15.1306L117.294 15.5066V15.7572C117.617 15.9664 117.781 16.3669 118.049 16.6344C118.552 17.0939 119.055 17.5533 119.557 18.0128V18.2634L121.695 20.2682V20.5188L122.575 21.2707L123.329 22.1479L123.706 22.3984V22.649L123.958 22.7743V22.8996C124.635 23.5959 125.484 24.1448 125.97 25.0298H119.054L118.048 23.9021L117.797 23.7768V23.5262L116.791 22.649L116.162 21.8971L115.911 21.7719V21.5213L114.779 20.5188C114.328 20.0679 114.037 19.2397 113.271 19.1402V19.1397ZM148.725 6.35881V10.6196H132.506C132.162 11.2775 132.245 12.36 132.255 13.3765C133.203 13.7211 135.313 13.5018 136.529 13.5018H145.959C146.212 13.7234 146.639 13.6056 146.964 13.7524V13.8778H147.216L147.342 14.1284H147.593L147.971 14.6296H148.097V14.8802C148.179 14.922 148.263 14.9637 148.347 15.0055V15.2562H148.473V15.5067H148.599C148.932 16.3437 148.725 17.8392 148.725 18.8899V22.8996H148.599L148.473 23.4009H148.347V23.6515C148.221 23.7349 148.095 23.8185 147.971 23.9021L147.845 24.2779H147.593L147.342 24.6538H147.09V24.7792C146.922 24.821 146.755 24.8627 146.588 24.9045V25.0298H126.849V20.7693H137.536C139.408 20.7693 141.66 20.9407 143.319 20.644C143.542 20.0446 143.451 18.9417 143.445 18.1379C142.543 17.6773 140.61 17.8873 139.295 17.8873H129.741C129.484 17.6685 129.065 17.7821 128.735 17.6366V17.5113C128.168 17.2333 127.52 16.9059 127.353 16.2583C126.679 15.5858 126.849 12.3444 126.849 10.8702C126.849 9.75019 126.781 8.53764 127.227 7.86293C127.353 7.77936 127.478 7.69591 127.603 7.61234V7.36176H127.729L127.98 6.98588H128.232V6.86059L128.61 6.7353L128.735 6.48471H129.112V6.3593H148.725L148.725 6.35881ZM155.389 6.35881C155.503 6.9561 155.897 7.28287 156.142 7.73727V7.98785H156.268V8.23893H156.394V8.48951H156.52V8.7401H156.646V8.99068L156.897 9.11598V9.36631H157.022V9.6169H157.148V9.86748H157.274V10.1181H157.399L157.651 10.8699L157.903 10.9952L158.154 11.747H158.28C158.364 11.9976 158.447 12.2483 158.531 12.4989L158.782 12.6242V12.8747H158.908V13.1253H159.034V13.3759H159.16V13.6265H159.286V13.8772H159.411V14.1278H159.537V14.3784L159.789 14.5037V14.7543H159.914V15.0048H160.039V15.2555H160.165V15.5061H160.291V15.7567H160.417L160.543 16.2579L160.794 16.3832V16.6339H160.92V16.8845H161.046V17.1351H161.172V17.3856H161.298C161.38 17.6362 161.464 17.8868 161.548 18.1375L161.8 18.2628V18.5134H161.925V18.764H162.051L162.177 19.1399C162.32 18.9972 162.228 19.1399 162.303 18.8893C162.717 18.5123 162.896 17.6667 163.183 17.1351H163.308V16.8845H163.434V16.6339L163.686 16.5085V16.2586H163.812C163.955 16.0064 163.834 15.9527 164.063 15.7575C163.962 15.2335 163.64 14.8981 163.434 14.5044V14.2538H163.308V13.8779H163.183L162.931 13.1261H162.805V12.8755H162.68V12.6249H162.555V12.3742H162.429V12.1232H162.303V11.8727H162.177V11.6221H162.051V11.3715H161.925V10.9956H161.8L161.548 10.2437H161.422V9.99314H161.298V9.74256H161.172V9.49185H161.046V9.24127H160.92V8.99068H160.794V8.7401H160.668V8.36422H160.543C160.249 7.696 159.956 7.02773 159.663 6.35942H165.572C165.656 6.80016 165.901 7.04139 166.074 7.36188L166.2 7.86305H166.326L166.452 8.36422H166.577V8.61481H166.703V8.86539H166.829V9.11598H166.955V9.36631H167.081V9.6169H167.207V9.86748H167.331V10.1181H167.457V10.3687H167.583L167.709 10.8698H167.834V11.1204H167.96V11.371H168.086V11.6216H168.212V11.8722H168.338L168.589 12.624C168.673 12.6658 168.756 12.7075 168.84 12.7493L168.966 13.2505H169.091V13.5017H169.217V13.7523H169.343V14.003H169.469V14.2536H169.595L169.721 14.7547H169.846L169.972 15.256H170.098C170.14 15.4231 170.181 15.5902 170.223 15.7572H170.348L170.474 16.2584H170.6V16.509H170.726V16.7597H170.852V17.0103H170.978V17.2608H171.103V17.5114H171.229L171.355 18.0127C171.573 18.4211 171.856 18.7257 171.983 19.2658H172.109V19.1403C172.354 18.9162 172.216 18.9013 172.36 18.6392H172.486V18.3886H172.612V18.138L172.864 18.0127C173.156 17.3444 173.449 16.6761 173.743 16.0078L173.995 15.8825V15.6319H174.121V15.3813H174.247V15.1306H174.372V14.8802H174.498V14.6296H174.623V14.379H174.749V14.1282L175 14.0029L175.252 13.251H175.378V13.0004H175.504V12.7498H175.63V12.4992H175.755V12.2485H175.881V11.9979C175.965 11.9562 176.048 11.9144 176.132 11.8727V11.6221H176.257V11.3715H176.383V11.1209H176.509V10.8702H176.635V10.6196H176.761L176.887 10.1184L177.138 9.99314C177.432 9.32492 177.725 8.65661 178.018 7.98822L178.269 7.86293V7.61234C178.491 7.2185 178.778 6.87647 178.899 6.3593H184.682V6.48459H184.556L184.43 6.98576H184.304V7.23634H184.178V7.48693H184.052V7.73751L183.801 7.86281L183.549 8.61468H183.423V8.86539H183.299V9.11598H183.173V9.36631H183.047L182.921 9.86748L182.669 9.99278V10.2434H182.544V10.4939H182.418V10.7448H182.292V10.9954H182.166V11.2459H182.04V11.4968H181.916V11.7474L181.664 11.8727V12.1232H181.538V12.3738H181.412V12.6245H181.287V12.8751H181.161V13.1257H181.035L180.909 13.6269L180.657 13.7522C180.365 14.4205 180.072 15.0888 179.778 15.7571L179.526 15.8824V16.133H179.4V16.3835H179.275V16.6343H179.149V16.8848H179.023V17.1354H178.898L178.772 17.6366L178.521 17.7619V18.0126H178.395V18.2632H178.269V18.5138H178.143V18.7643H178.017V19.0155H177.892L177.766 19.5168L177.514 19.6421V19.8927H177.39V20.1433H177.264V20.3939H177.138V20.6446H177.012V20.8952H176.886V21.1448H176.76V21.3954H176.635V21.6459L176.383 21.7712V22.0219H176.257V22.2725H176.131V22.5232H176.007V22.7738H175.881L175.629 23.5257L175.378 23.651C175.233 23.8797 174.914 24.9381 174.748 25.0295H169.343C169.242 24.5134 168.933 24.1627 168.714 23.7764V23.5258C168.631 23.484 168.547 23.4423 168.463 23.4005V23.1498H168.337V22.8992H168.212V22.6488H168.086V22.3982H167.96L167.834 21.8969L167.583 21.7716V21.521H167.457C167.373 21.2704 167.289 21.0199 167.206 20.7693C167.062 20.912 167.156 20.7693 167.08 21.0199C166.631 21.3288 166.598 21.9045 166.325 22.3983H166.2V22.6489L165.948 22.7742L165.822 23.2754H165.698V23.5261H165.572V23.7767H165.446V24.0272H165.32V24.2778L165.068 24.4031C164.976 24.5456 164.959 24.9517 164.817 25.0297H159.537C156.226 18.8069 152.915 12.5833 149.604 6.35893H155.388L155.389 6.35881ZM193.482 6.35881C193.592 6.95524 193.99 7.28545 194.236 7.73727V7.98785H194.362V8.23893H194.487V8.48951H194.613V8.7401H194.739V8.99068H194.865V9.24127L195.117 9.36656V9.61714H195.241V9.86773H195.367V10.1183H195.493V10.3689H195.619L195.87 11.1208L196.122 11.2461C196.416 11.9143 196.709 12.5826 197.002 13.2509L197.253 13.3762V13.6267H197.379V13.8775H197.505V14.128H197.631V14.3786H197.756V14.6292H197.882V14.8802H198.008C198.05 15.0473 198.092 15.2143 198.133 15.3815L198.384 15.5067V15.7573H198.51V16.0079H198.636V16.2586H198.762V16.5092H198.888V16.7599H199.014V17.0105H199.139V17.2611L199.391 17.3864C199.683 18.0546 199.977 18.7229 200.271 19.3913L200.522 19.5166V19.7663H200.648V20.0169H200.774V20.2675H200.9V20.5181H201.026V20.7688H201.15V21.0194H201.276V21.2699H201.402V21.5205L201.653 21.6458V21.8964H201.779V22.1471H201.905V22.3977H202.031V22.6483H202.157V22.8989H202.283V23.1495H202.408V23.4002C202.695 23.9208 203.131 24.3437 203.288 25.0291H197.631C197.537 24.5847 197.301 24.4653 197.127 24.1519L197.002 23.6507L196.75 23.5255V23.2752H196.624V23.0247H196.499V22.7741H196.374V22.6488H196.248V22.5232H185.184C184.989 23.5002 184.155 24.0718 183.927 25.0293H178.143V24.904C178.587 24.5899 178.629 24.0243 178.898 23.5256H179.023L179.275 22.7737L179.526 22.6484V22.3978H179.652V22.1472H179.778V21.8965H179.904V21.6459H180.029V21.3954H180.155V21.1448H180.281V20.8942C180.365 20.8523 180.449 20.8106 180.532 20.7689L181.412 18.764C183.094 16.0986 184.38 13.0314 186.064 10.3687V10.1184H186.19V9.86785H186.316V9.61727H186.44V9.36631H186.566V9.11598L187.573 7.48705C187.68 7.28742 187.941 6.43364 188.075 6.3593H193.482L193.482 6.35881ZM204.167 6.35881H219.38C220.521 6.35881 223.511 6.13616 224.284 6.4841V6.60939H224.535C224.618 6.73468 224.702 6.85998 224.786 6.98527H225.037V7.11056L225.415 7.36114V7.61173L225.667 7.73702V7.98785L225.918 8.11314C226.275 8.79561 226.043 11.1285 226.043 12.1229C226.043 13.3022 226.28 15.4792 225.918 16.3832H225.792L225.667 16.8845H225.541V17.1351L225.289 17.2603V17.5109L225.037 17.6362V17.7615C223.836 18.6354 221.963 18.5134 219.883 18.5134H209.574V25.0292H204.167V14.1282H220.637C220.93 13.3416 220.769 11.877 220.763 10.8702L220.386 10.7449C220.156 10.5455 219.553 10.62 219.129 10.6196H204.167V6.3593L204.167 6.35881ZM60.3427 10.6196V20.7693H71.5314V10.6196H60.3427ZM187.573 18.1379H194.11V18.0126C193.852 17.7812 193.787 17.4521 193.608 17.1354H193.482V16.8848H193.356V16.6343H193.23V16.3835H193.104V16.133L192.853 16.0077V15.7571H192.727V15.5065H192.601V15.2559H192.475V15.0052L192.224 14.8799V14.6293H192.099V14.3787H191.973V14.1282H191.847V13.8776H191.722V13.6269L191.47 13.5016V13.251H191.344V13.0004H191.218V12.7498H191.092V12.4992H190.967L190.841 12.1232H190.716V12.2485C190.494 12.4488 190.606 12.4927 190.464 12.7498H190.339V13.0004H190.213V13.251L189.961 13.3763V13.6269H189.835V13.8776H189.71V14.1282H189.584V14.3787H189.458V14.6293H189.332V14.8802C189.249 14.922 189.165 14.9637 189.082 15.0055V15.2562H188.956V15.5067H188.83V15.7573H188.704V16.0079H188.578L188.452 16.5091L188.201 16.6345V16.8851C187.979 17.2778 187.691 17.6207 187.573 18.1379Z" fill="white"/>
</svg>
