<svg width="130" height="130" viewBox="0 0 130 130" fill="none" xmlns="http://www.w3.org/2000/svg">
<rect width="130" height="130" rx="65" fill="#FEC803"/>
<path d="M101.271 45.7846C99.9025 43.2439 100.87 40.083 103.431 38.7255L92.8166 19L11 62.3464L21.6145 82.0719C24.1752 80.7144 27.361 81.6747 28.7292 84.2154C30.0975 86.7561 29.1296 89.917 26.5689 91.2745L37.1834 111L119 67.6536L108.386 47.9281C105.825 49.2856 102.639 48.3253 101.271 45.7846Z" fill="white"/>
<path d="M95.3831 28.5339L94.1676 26.2761L91.5262 27.6765L90.181 25.1758L17.6395 63.6094L18.9846 66.1101L16.3433 67.5105L17.5588 69.7682L20.2002 68.3679L21.4762 70.7399L18.8349 72.1403L20.0504 74.3981L22.6918 72.9977L23.9678 75.3669L21.3265 76.7673L22.542 79.0251L25.1834 77.6247L25.1748 77.6104C28.8531 75.6613 33.4244 77.0417 35.3889 80.6884C37.3533 84.338 35.9621 88.8764 32.2866 90.8227L32.2722 90.7941L29.6308 92.1945L30.8464 94.4523L33.4878 93.0519L34.7638 95.4211L32.1224 96.8215L33.338 99.0793L35.9794 97.6789L37.2554 100.051L34.614 101.451L35.8296 103.709L38.471 102.309L39.8219 104.821L112.363 66.3902L111.012 63.878L113.654 62.4776L112.438 60.2199L109.797 61.6203L108.521 59.251L111.162 57.8506L109.947 55.5928L107.305 56.9932L106.029 54.624L108.671 53.2236L107.455 50.9658L104.814 52.3662L104.828 52.3948C101.15 54.3439 96.5785 52.9635 94.614 49.3168C92.6496 45.6672 94.0408 41.1317 97.7163 39.1826L97.7249 39.1968L100.366 37.7964L99.1508 35.5387L96.5094 36.9391L95.2333 34.5698L97.8747 33.1694L96.6592 30.9117L94.0178 32.3121L92.7417 29.9428L95.3831 28.5339Z" fill="#0E0E0E"/>
<path d="M92.1253 39.5025L87.5108 30.9258L23.9419 64.6038L28.5564 73.1804C33.3754 70.6283 36.9385 73.7206 39.5137 78.5019C42.0859 83.2832 42.6966 87.9445 37.8776 90.4967L42.4921 99.0734L106.061 65.3954L101.446 56.8187C96.6275 59.3709 93.0614 56.2786 90.4892 51.4972C87.9141 46.713 87.3034 42.0546 92.1253 39.5025Z" fill="white"/>
<path d="M47.9021 55.6248L46.6317 56.2979L62.3057 85.4229L63.5761 84.7498L47.9021 55.6248Z" fill="#0E0E0E"/>
<path d="M90.4839 59.0901L58.1719 76.2119L58.8504 77.4724L91.1624 60.3505L90.4839 59.0901Z" fill="#0E0E0E"/>
<path d="M38.8484 60.4199L42.2502 62.8406L46.1878 61.4316L44.9204 65.3899L47.4897 68.6708L43.3015 68.6965L40.9511 72.1346L39.6318 68.1907L35.6107 67.0361L38.9809 64.5725L38.8484 60.4199Z" fill="#0E0E0E"/>
<path d="M52.9512 83.4812C52.9742 83.5269 52.931 83.5755 52.8129 83.6327L52.6631 83.7127L52.5421 83.7784C52.4701 83.8156 52.4327 83.8527 52.4327 83.8842C52.4327 83.9156 52.4673 83.9956 52.5335 84.1214L54.619 87.9939C54.7457 88.2311 54.8206 88.3712 54.8379 88.414C54.8552 88.4569 54.8523 88.4855 54.8292 88.4969C54.8033 88.5112 54.7572 88.5026 54.6939 88.4741L53.1499 87.6738C52.2512 87.2051 51.1451 86.6107 49.8345 85.8933L51.8624 89.663C51.8998 89.7201 51.9516 89.7373 52.0265 89.7201C52.0986 89.703 52.257 89.6315 52.5018 89.5058C52.5623 89.4743 52.5998 89.4772 52.6199 89.5115C52.643 89.5572 52.5969 89.6087 52.4788 89.6715C52.4384 89.6944 52.3059 89.7544 52.0813 89.8573C52.0064 89.8916 51.9344 89.9259 51.8681 89.963C51.8739 89.9602 51.8364 89.9859 51.7558 90.0402C51.678 90.0945 51.5513 90.166 51.3784 90.2574L51.3093 90.2946C51.2056 90.3489 51.1422 90.3574 51.1192 90.3174C51.0962 90.2774 51.1307 90.2317 51.2229 90.186C51.4879 90.0402 51.6319 89.9402 51.6607 89.8887C51.6866 89.8373 51.6578 89.7287 51.5714 89.5686L49.7827 86.2448C49.581 85.8705 49.3794 85.679 49.1749 85.6647C49.0769 85.659 48.9358 85.7047 48.7515 85.8019C48.6334 85.8647 48.5613 85.8705 48.5354 85.8247C48.5124 85.7819 48.5354 85.7418 48.6017 85.7076C48.691 85.659 48.8091 85.6018 48.956 85.5389C49.1 85.4732 49.1778 85.4389 49.1864 85.4332C49.2008 85.4246 49.2613 85.3903 49.3736 85.3246C49.5234 85.2446 49.6646 85.1617 49.7971 85.0731L54.0054 87.2994L52.3924 84.3043C52.3175 84.1643 52.2685 84.0814 52.2483 84.0557C52.2282 84.0299 52.1994 84.0156 52.159 84.0185C52.1187 84.0185 52.0064 84.0699 51.822 84.1671C51.6578 84.2529 51.5657 84.2757 51.5455 84.2357C51.5225 84.19 51.5628 84.1385 51.6722 84.0814L51.9084 83.9556C51.9661 83.9242 52.0294 83.8899 52.0986 83.8556C52.1706 83.8184 52.2138 83.7956 52.2282 83.787C52.2339 83.7842 52.2743 83.7641 52.3492 83.7213C52.4212 83.6841 52.4903 83.647 52.5537 83.6127L52.7639 83.5012C52.8648 83.4412 52.9281 83.4383 52.9512 83.4812Z" fill="#0E0E0E"/>
<path d="M57.2833 85.2443C57.5166 85.6787 57.58 86.116 57.4706 86.5504C57.3611 86.9848 57.1076 87.3077 56.7101 87.5192C56.2982 87.7364 55.8748 87.7736 55.4427 87.625C55.0078 87.4763 54.6736 87.1848 54.4403 86.7504C54.1984 86.3017 54.1321 85.8587 54.2416 85.4186C54.351 84.9785 54.6074 84.6527 55.0106 84.4412C55.4168 84.224 55.8373 84.1954 56.2723 84.3469C56.7072 84.5012 57.0442 84.8013 57.2833 85.2443ZM56.6611 85.5644C56.3961 85.07 56.111 84.727 55.8114 84.5355C55.5896 84.3926 55.3448 84.3926 55.0798 84.5355C54.8263 84.6698 54.6967 84.9042 54.6938 85.2386C54.6909 85.573 54.8119 85.9673 55.0567 86.4246C55.3016 86.879 55.5666 87.1906 55.8546 87.3649C56.1427 87.5392 56.4221 87.5535 56.6928 87.4078C56.9002 87.2963 57.0126 87.1362 57.027 86.9276C57.0586 86.5304 56.9377 86.076 56.6611 85.5644Z" fill="#0E0E0E"/>
<path d="M58.833 85.8905C58.8877 85.9905 58.8964 86.0934 58.8647 86.202C58.833 86.3106 58.7667 86.3906 58.6659 86.4421C58.5622 86.4964 58.4556 86.5078 58.3491 86.4764C58.2425 86.4421 58.159 86.3735 58.1042 86.2706C58.0495 86.1706 58.0409 86.0677 58.0725 85.9591C58.1042 85.8505 58.1734 85.7705 58.2771 85.7162C58.3779 85.6647 58.4816 85.6533 58.5882 85.6876C58.6947 85.719 58.7783 85.7876 58.833 85.8905Z" fill="#0E0E0E"/>
<path d="M77.049 74.3313C76.8157 73.8969 76.6717 73.5225 76.6198 73.211C76.568 72.8995 76.591 72.6222 76.6918 72.385C76.7926 72.1478 76.977 71.9563 77.2478 71.8134C77.4465 71.7077 77.6424 71.6562 77.8354 71.6562C78.0284 71.6562 78.2127 71.7048 78.3913 71.802C78.5699 71.8992 78.7456 72.0421 78.9156 72.2278C79.0884 72.4136 79.2698 72.688 79.4657 73.0538C79.699 73.4853 79.8402 73.8569 79.8949 74.1684C79.9468 74.4799 79.9237 74.7571 79.8258 74.9943C79.725 75.2344 79.5406 75.423 79.2698 75.5688C78.9127 75.7574 78.5641 75.7803 78.2214 75.6345C77.8095 75.4545 77.4206 75.0201 77.049 74.3313ZM77.5156 74.0826C77.8411 74.6857 78.1292 75.0515 78.3769 75.1744C78.6275 75.3001 78.8551 75.3058 79.0653 75.1944C79.2756 75.0829 79.3966 74.8914 79.4312 74.6142C79.4657 74.337 79.3217 73.8997 78.9962 73.2967C78.6707 72.6908 78.3827 72.3279 78.1321 72.2021C77.8815 72.0792 77.651 72.0735 77.4379 72.185C77.2276 72.2964 77.1095 72.4708 77.0778 72.7137C77.0461 73.0252 77.1902 73.4796 77.5156 74.0826Z" fill="#0E0E0E"/>
<path d="M83.0605 72.9172L83.2938 73.3516L80.8454 74.6492C80.7849 74.5434 80.7446 74.4291 80.7302 74.3062C80.7043 74.109 80.7158 73.8918 80.7676 73.6574C80.8195 73.4231 80.9174 73.1344 81.0643 72.7858C81.2919 72.2456 81.4244 71.8398 81.4618 71.574C81.4993 71.3082 81.4734 71.0881 81.3812 70.9195C81.2861 70.7395 81.1392 70.6252 80.9434 70.568C80.7475 70.5137 80.5458 70.5423 80.3385 70.6509C80.1195 70.768 79.9784 70.9252 79.9179 71.1253C79.8574 71.3253 79.8862 71.5426 80.0101 71.774L79.5175 71.9741C79.362 71.6111 79.3418 71.2825 79.4541 70.991C79.5665 70.6995 79.7969 70.4594 80.1483 70.2736C80.5026 70.085 80.8368 70.0336 81.1507 70.1193C81.4647 70.205 81.698 70.3937 81.8536 70.6823C81.9313 70.8281 81.9803 70.991 81.9947 71.1653C82.0091 71.3396 81.989 71.5426 81.9342 71.774C81.8795 72.0055 81.7614 72.3456 81.5799 72.7915C81.4301 73.163 81.338 73.4117 81.3034 73.5317C81.2688 73.6546 81.2487 73.7689 81.2429 73.8775L83.0605 72.9172Z" fill="#0E0E0E"/>
<path d="M85.941 71.3938L86.1743 71.8282L83.7259 73.1257C83.6654 73.0199 83.6251 72.9056 83.6107 72.7827C83.5848 72.5855 83.5963 72.3683 83.6481 72.134C83.7 71.8996 83.7979 71.611 83.9448 71.2623C84.1724 70.7222 84.3049 70.3163 84.3423 70.0505C84.3798 69.7848 84.3539 69.5647 84.2617 69.3961C84.1666 69.216 84.0197 69.1017 83.8239 69.0446C83.628 68.9903 83.4263 69.0188 83.2189 69.1274C83 69.2446 82.8589 69.4018 82.7984 69.6018C82.7379 69.8019 82.7667 70.0191 82.8906 70.2506L82.398 70.4507C82.2425 70.0877 82.2223 69.759 82.3346 69.4675C82.447 69.176 82.6774 68.936 83.0288 68.7502C83.3831 68.5616 83.7173 68.5101 84.0312 68.5959C84.3423 68.6816 84.5785 68.8702 84.7341 69.1589C84.8118 69.3046 84.8608 69.4675 84.8752 69.6419C84.8925 69.8162 84.8723 70.0191 84.8147 70.2506C84.76 70.4821 84.6419 70.8222 84.4604 71.268C84.3106 71.6396 84.2185 71.8882 84.1839 72.0082C84.1493 72.1311 84.1292 72.2454 84.1234 72.354L85.941 71.3938Z" fill="#0E0E0E"/>
<path d="M86.2723 70.682L86.6871 70.4105C86.834 70.5962 86.9837 70.7048 87.1393 70.742C87.292 70.7791 87.4533 70.7534 87.6146 70.6677C87.7557 70.5934 87.8594 70.4962 87.9314 70.3762C88.0034 70.2561 88.0438 70.1275 88.0524 69.9846C88.0639 69.8417 88.0409 69.6703 87.989 69.4645C87.9372 69.2587 87.8623 69.0644 87.7615 68.8758C87.75 68.8557 87.7327 68.8272 87.7096 68.7872C87.6952 68.9786 87.6347 69.1615 87.5253 69.3359C87.4158 69.5102 87.2689 69.6445 87.0846 69.7417C86.7764 69.9046 86.4595 69.9303 86.1283 69.8217C85.797 69.7131 85.5349 69.4788 85.339 69.1187C85.1374 68.7471 85.0884 68.387 85.1863 68.0412C85.2843 67.6954 85.5032 67.4353 85.8344 67.2582C86.0764 67.1295 86.3299 67.0781 86.6006 67.101C86.8685 67.1238 87.1191 67.2267 87.3525 67.4096C87.5829 67.5925 87.822 67.9098 88.0639 68.3613C88.3174 68.83 88.4672 69.233 88.5133 69.5645C88.5594 69.896 88.5219 70.1904 88.3952 70.4419C88.2713 70.6963 88.0726 70.8935 87.7989 71.0392C87.508 71.1935 87.2286 71.2393 86.9607 71.1764C86.6986 71.1164 86.4653 70.9506 86.2723 70.682ZM87.2632 68.0727C87.1249 67.8126 86.9434 67.644 86.7216 67.5668C86.4998 67.4897 86.2924 67.5011 86.0966 67.604C85.8949 67.7126 85.7624 67.8869 85.6991 68.1298C85.6386 68.3728 85.676 68.6243 85.8172 68.8872C85.9439 69.1215 86.1167 69.273 86.3385 69.3445C86.5603 69.4159 86.7735 69.3959 86.9838 69.2844C87.194 69.173 87.3294 69.0072 87.3841 68.79C87.4446 68.57 87.4014 68.3299 87.2632 68.0727Z" fill="#0E0E0E"/>
<path d="M89.0231 69.0704L89.4466 68.7704C89.6367 68.999 89.8239 69.1362 90.0111 69.1819C90.1984 69.2276 90.3798 69.2048 90.5613 69.1076C90.7744 68.9933 90.9156 68.8247 90.9847 68.5989C91.0538 68.3731 91.0279 68.153 90.9127 67.9358C90.8004 67.7272 90.6419 67.5929 90.4317 67.53C90.2214 67.4671 90.014 67.4929 89.8037 67.6043C89.7173 67.65 89.6194 67.7244 89.5099 67.8244L89.3486 67.4014C89.3803 67.39 89.4062 67.3785 89.4235 67.3671C89.6165 67.2642 89.7634 67.1213 89.8671 66.9384C89.9679 66.7555 89.9622 66.5612 89.8498 66.3525C89.7605 66.1868 89.6309 66.081 89.4581 66.0324C89.2853 65.9839 89.1124 66.0067 88.9338 66.101C88.7581 66.1953 88.64 66.3268 88.5795 66.5012C88.5219 66.6726 88.5335 66.8784 88.6199 67.1185L88.1216 67.2785C88.015 66.947 88.015 66.644 88.1216 66.3754C88.2281 66.1039 88.4298 65.8924 88.7236 65.7352C88.9252 65.6295 89.1355 65.5723 89.3515 65.5695C89.5675 65.5666 89.7605 65.6152 89.9305 65.7152C90.1004 65.8152 90.23 65.9496 90.3222 66.1182C90.4086 66.2782 90.4432 66.444 90.4259 66.6212C90.4115 66.7984 90.3395 66.967 90.2128 67.1356C90.4576 67.0699 90.6851 67.0842 90.8925 67.1785C91.0999 67.2728 91.267 67.4386 91.3937 67.6758C91.5666 67.9959 91.5954 68.3302 91.4802 68.6789C91.3649 69.0276 91.1259 69.2962 90.7658 69.4877C90.4403 69.6592 90.1177 69.7078 89.8009 69.6277C89.4725 69.5449 89.2161 69.362 89.0231 69.0704Z" fill="#0E0E0E"/>
<path d="M92.0476 66.1525C91.8229 66.1839 91.6299 66.161 91.4686 66.081C91.3102 66.001 91.1806 65.8752 91.0855 65.698C90.9415 65.4294 90.9184 65.155 91.0135 64.8692C91.1085 64.5835 91.3188 64.3577 91.6386 64.1862C91.9612 64.0147 92.2722 63.969 92.5689 64.0519C92.8656 64.1348 93.0874 64.3091 93.2314 64.5749C93.3236 64.7464 93.3582 64.9178 93.3351 65.0922C93.3121 65.2665 93.2286 65.4351 93.0817 65.6009C93.3495 65.5552 93.5857 65.5809 93.7931 65.6809C94.0005 65.7809 94.1647 65.9467 94.2886 66.1725C94.4585 66.4868 94.4873 66.8098 94.3779 67.1442C94.2684 67.4757 94.0322 67.7415 93.6664 67.933C93.3006 68.1273 92.9492 68.1759 92.6093 68.0787C92.2694 67.9815 92.013 67.7729 91.8402 67.4528C91.7106 67.2128 91.6645 66.9813 91.699 66.7555C91.7394 66.5326 91.8546 66.3297 92.0476 66.1525ZM92.3126 67.2099C92.3817 67.3385 92.4796 67.4471 92.6064 67.5357C92.7331 67.6243 92.8743 67.6672 93.0298 67.67C93.1853 67.6729 93.3351 67.6357 93.4763 67.5614C93.6923 67.4471 93.8363 67.2814 93.9026 67.067C93.9688 66.8527 93.9458 66.6383 93.8306 66.424C93.7125 66.2068 93.5425 66.0667 93.3207 66.001C93.0989 65.9353 92.8771 65.961 92.6582 66.0782C92.4451 66.1925 92.3039 66.3554 92.2406 66.5697C92.1743 66.7869 92.2002 67.0013 92.3126 67.2099ZM91.5464 65.4351C91.6386 65.6095 91.7739 65.7209 91.9439 65.7724C92.1167 65.8238 92.2924 65.8009 92.4739 65.7038C92.6496 65.6123 92.7648 65.4808 92.8167 65.3122C92.8685 65.1436 92.8541 64.9807 92.7677 64.8207C92.6784 64.6549 92.5459 64.5463 92.3702 64.4949C92.1945 64.4434 92.0188 64.4634 91.8488 64.5549C91.676 64.6463 91.5608 64.7778 91.506 64.9493C91.4484 65.1179 91.4628 65.2808 91.5464 65.4351Z" fill="#0E0E0E"/>
</svg>
